<svg width="40" height="40" viewBox="0 0 40 40" fill="none" xmlns="http://www.w3.org/2000/svg">
<path d="M6.42578 6.76565C6.21708 6.76715 6.00903 6.85005 5.85703 7.01565C2.71703 10.4332 0.800781 14.9928 0.800781 20C0.800781 25.0072 2.71703 29.5668 5.85703 32.9844C6.16103 33.3156 6.68631 33.3145 7.00391 32.9969L8.70703 31.2938C9.01343 30.9874 9.01149 30.4997 8.72109 30.1781C6.28509 27.4821 4.80078 23.9112 4.80078 20C4.80078 16.0888 6.28509 12.5179 8.72109 9.8219C9.01149 9.5003 9.01343 9.01347 8.70703 8.70627L7.00391 7.00315C6.84511 6.84435 6.63448 6.76415 6.42578 6.76565ZM33.5758 6.76565C33.3669 6.76435 33.1565 6.84435 32.9977 7.00315L31.293 8.70783C30.9866 9.01423 30.9885 9.5003 31.2789 9.8219C33.7157 12.5171 35.2008 16.0888 35.2008 20C35.2008 23.9112 33.7165 27.4821 31.2805 30.1781C30.9901 30.4997 30.9881 30.9866 31.2945 31.2938L32.9977 32.9969C33.3153 33.3145 33.8405 33.3148 34.1445 32.9844C37.2845 29.5668 39.2008 25.0072 39.2008 20C39.2008 14.9928 37.2845 10.4332 34.1445 7.01565C33.9925 6.85005 33.7847 6.76695 33.5758 6.76565ZM28.5008 11.8703C28.2849 11.8596 28.0645 11.9363 27.8977 12.1031L26.193 13.8078C25.9058 14.095 25.8744 14.5576 26.1352 14.8688C27.3 16.2592 28.0008 18.0488 28.0008 20C28.0008 21.9512 27.3 23.7401 26.1352 25.1297C25.8744 25.4409 25.9058 25.9034 26.193 26.1906L27.8977 27.8969C28.2313 28.2305 28.7748 28.2006 29.0836 27.8438C30.9012 25.7406 32.0008 22.9984 32.0008 20C32.0008 17.0016 30.9012 14.2595 29.0836 12.1563C28.9292 11.9779 28.7167 11.881 28.5008 11.8703ZM11.5008 11.8719C11.2849 11.8826 11.0724 11.9794 10.918 12.1578C9.10037 14.2602 8.00078 17.0016 8.00078 20C8.00078 22.9984 9.10037 25.7406 10.918 27.8438C11.2268 28.2006 11.7703 28.2305 12.1039 27.8969L13.8086 26.1922C14.0958 25.905 14.1272 25.4425 13.8664 25.1313C12.7016 23.7409 12.0008 21.9512 12.0008 20C12.0008 18.0488 12.7016 16.2599 13.8664 14.8703C14.1272 14.5591 14.0958 14.0966 13.8086 13.8094L12.1039 12.1031C11.9371 11.9363 11.7167 11.8612 11.5008 11.8719ZM20.0008 15.2C17.3496 15.2 15.2008 17.3488 15.2008 20C15.2008 22.6512 17.3496 24.8 20.0008 24.8C22.652 24.8 24.8008 22.6512 24.8008 20C24.8008 17.3488 22.652 15.2 20.0008 15.2Z" fill="black"/>
</svg>
