<svg width="86" height="92" viewBox="0 0 86 92" fill="none" xmlns="http://www.w3.org/2000/svg">
<g clip-path="url(#clip0_1416_4034)">
<path d="M80.5063 39.6582C79.5969 40.503 79.0411 41.1601 78.3465 41.6411C72.9533 45.431 67.5602 49.2325 62.1039 52.9402C60.8282 53.7967 60.5377 54.6063 60.9798 55.9791C63.7711 64.6734 64.9331 73.6376 65.8172 82.6369C65.9309 83.8806 66.1835 85.2182 65.0594 86.6497C64.0995 86.1803 63.0638 85.8518 62.2428 85.2534C59.1862 83.0241 56.1045 80.8065 53.2121 78.3778C49.2967 75.0925 45.5581 71.6194 41.7311 68.2403C41.327 67.8883 40.8849 67.595 40.266 67.1256C39.1672 67.771 38.0683 68.3693 37.02 69.0381C29.8081 73.5906 22.6214 78.1666 15.4221 82.719C14.6138 83.2236 13.717 83.6108 12.214 84.3852C12.4792 82.9302 12.5045 82.0854 12.8076 81.358C15.9526 73.6376 19.1354 65.9171 22.3688 58.2319C22.8361 57.1172 23.7076 56.1668 24.3139 55.1108C25.6148 52.8346 25.6022 52.7173 23.8213 50.793C20.1964 46.8624 16.4831 43.0139 12.9339 39.0364C10.6352 36.4551 8.53858 33.7212 6.39142 31.0109C5.81043 30.2717 5.39363 29.4269 4.83789 28.5351C6.2146 27.5378 7.52815 27.8194 8.72804 28.0306C16.0157 29.2743 23.2782 30.5767 30.5533 31.8674C33.6224 32.4188 34.1782 32.1959 35.5549 29.5794C35.9464 28.8519 36.3253 28.1128 36.7169 27.3853C40.1397 20.932 43.5373 14.4788 46.9601 8.02552C47.2253 7.53272 47.68 7.12206 48.3242 6.33594C48.7536 7.40366 49.1072 8.07245 49.3093 8.78818C51.5702 16.9427 53.831 25.1091 56.0666 33.2754C56.6728 35.4695 56.7865 35.5633 59.2368 35.6924C65.173 35.9975 71.0335 36.8188 76.7551 38.3089C77.8918 38.6022 78.9527 39.095 80.5063 39.6582Z" fill="#FCD800"/>
<path d="M34.1651 25.8719C37.7395 18.5739 41.276 11.2758 44.8503 3.97778C45.2671 3.12126 45.7471 2.253 46.3786 1.53728C47.97 -0.269635 49.953 -0.117103 50.9382 2.03007C52.0749 4.47058 52.9843 7.01668 53.78 9.57452C55.7882 16.1216 57.6828 22.6922 59.6278 29.2511C60.272 31.4687 60.5878 31.586 63.0128 31.9615C68.1281 32.7593 73.2307 33.6041 78.2955 34.5897C80.089 34.9417 81.8699 35.6105 83.4739 36.4318C86.0379 37.7225 86.3789 40.0104 84.4717 42.0637C83.8149 42.7677 83.0066 43.3779 82.1983 43.9528C77.6135 47.1911 73.0539 50.453 68.3933 53.5857C66.7514 54.6887 66.2209 55.7916 66.6251 57.6923C67.7744 63.1835 68.848 68.6981 69.6816 74.2362C70.3636 78.7417 71.1215 83.2942 70.1616 87.8584C69.429 91.3666 67.1429 92.6338 63.7327 91.0029C60.5372 89.4658 57.4554 87.612 54.7146 85.4648C50.4709 82.1326 46.5554 78.4366 42.5137 74.8932C41.9706 74.4122 41.4149 73.9546 40.9097 73.45C39.975 72.5348 38.9899 72.5583 37.9289 73.2506C37.2469 73.6964 36.5396 74.1071 35.8323 74.5295C29.4034 78.4484 22.9746 82.3907 16.5079 86.2744C15.1943 87.0723 13.8176 87.8584 12.3398 88.3043C9.97797 89.0317 8.4497 87.964 8.55074 85.6526C8.62653 84.0334 8.91702 82.3673 9.51065 80.8537C12.1757 74.154 14.9796 67.5013 17.7456 60.8251C18.2635 59.5814 18.7687 58.3142 19.3497 57.0822L22.3683 58.2321C19.135 65.9173 15.9521 73.6378 12.8072 81.3582C12.504 82.0857 12.4788 82.9305 12.2135 84.3854C13.7166 83.611 14.6133 83.2238 15.4217 82.7193C22.6209 78.1668 29.8076 73.5908 37.0195 69.0384C38.0679 68.3696 39.1667 67.7712 40.2655 67.1258C40.8844 67.5952 41.3265 67.8885 41.7307 68.2405C45.5576 71.6197 49.2962 75.0927 53.2116 78.378C56.104 80.8067 59.1858 83.0243 62.2423 85.2536C63.0633 85.852 64.099 86.1805 65.0589 86.6499C66.183 85.2184 65.9304 83.8808 65.8167 82.6371C64.9326 73.6378 63.7706 64.6736 60.9793 55.9793C60.5372 54.6065 60.8277 53.7969 62.1034 52.9404C67.5597 49.2327 72.9529 45.4312 78.346 41.6413C79.0407 41.1603 79.5964 40.5032 80.5058 39.6584C78.9523 39.0952 77.8913 38.6024 76.7546 38.3091C71.0331 36.819 65.1726 35.9977 59.2363 35.6926C56.786 35.5635 56.6723 35.4697 56.0661 33.2756C53.8305 25.1093 51.5697 16.943 49.3089 8.78839C49.1068 8.07267 48.7531 7.40388 48.3237 6.33615C47.6795 7.12228 47.2249 7.53294 46.9596 8.02573C43.5368 14.479 40.1392 20.9322 36.7164 27.3855L34.0261 26.1535C34.0767 26.0597 34.1146 25.9658 34.1651 25.8719Z" fill="black"/>
<path d="M19.9683 55.8147C20.7261 54.3598 20.3851 53.3038 19.2862 52.0835C14.9919 47.3316 10.7355 42.5562 6.61798 37.6634C4.69817 35.3637 3.11938 32.8059 1.41428 30.3419C1.02274 29.767 0.706983 29.1099 0.504897 28.4646C-0.12662 26.4817 0.845917 25.0737 3.0436 24.6865C3.39725 24.6161 3.77616 24.5692 4.14244 24.5692C5.25391 24.5574 6.36538 24.5692 7.48948 24.5692C7.50211 24.4753 7.50211 24.3932 7.51474 24.2993C12.4532 25.015 17.4043 25.719 22.3428 26.4582C24.9825 26.8572 27.6222 27.3499 30.2746 27.7371C32.6744 28.1009 33.1038 27.9601 34.0258 26.1532L36.7161 27.3851C36.3246 28.1126 35.9456 28.8518 35.5541 29.5793C34.1774 32.1958 33.6217 32.4187 30.5525 31.8672C23.2774 30.5766 16.015 29.2742 8.72725 28.0305C7.52737 27.8193 6.21381 27.5377 4.83711 28.535C5.39284 29.4267 5.80964 30.2715 6.39064 31.0107C8.5378 33.7211 10.6344 36.4549 12.9332 39.0362C16.4823 43.0138 20.1956 46.8623 23.8205 50.7929C25.6014 52.7171 25.614 52.8345 24.3131 55.1107C23.7068 56.1667 22.8353 57.1171 22.368 58.2317L19.3494 57.0819C19.5388 56.6595 19.7535 56.2371 19.9683 55.8147Z" fill="black"/>
</g>
<defs>
<clipPath id="clip0_1416_4034">
<rect width="86" height="92" fill="white"/>
</clipPath>
</defs>
</svg>
