<svg width="300" height="249" viewBox="0 0 300 249" fill="none" xmlns="http://www.w3.org/2000/svg">
<path d="M194.438 130.32C192.341 130.009 190.282 129.443 188.329 128.592C187.441 128.204 186.615 127.726 185.796 127.205C184.774 126.558 183.92 125.678 183.126 124.759C181.852 123.284 181.045 121.337 180.596 119.431C180.073 117.222 180.07 114.916 180.251 112.661C180.413 110.646 180.755 108.588 181.338 106.657C182.011 104.428 182.955 102.322 184.095 100.314C185.001 98.7155 186.008 97.1563 187.129 95.7103C187.821 94.8143 188.515 93.9215 189.21 93.0287C191.646 89.8844 194.565 87.0733 197.65 84.631C199.332 83.3015 201.086 82.0787 202.824 80.8301C203.488 80.3545 204.198 79.9372 204.883 79.4941C205.509 79.0865 206.126 78.6433 206.771 78.2745C208.6 77.2232 210.407 76.1298 212.279 75.1658C214.575 73.9819 216.949 72.9985 219.373 72.1413C220.45 71.7596 221.559 71.4652 222.653 71.1417C226.304 70.0548 230.067 69.2526 233.88 69.3237C234.943 69.3464 236.005 69.3658 237.064 69.3852C239.357 69.4305 241.638 69.7248 243.884 70.181C246.42 70.6953 248.909 71.559 251.174 72.8562C252.6 73.6746 254.03 74.7647 255.012 76.1363C255.052 76.1945 255.093 76.256 255.133 76.3142C255.987 76.4566 256.784 76.9644 257.279 77.7667C258.379 79.5523 258.638 81.6517 258.357 83.722C257.924 86.9083 256.94 90.0558 255.706 92.9963C254.429 96.0338 252.74 98.916 250.756 101.51C248.703 104.192 246.529 106.777 244.267 109.277C243.13 110.532 241.983 111.794 240.75 112.946C240.117 113.534 239.51 114.168 238.846 114.715C238.105 115.326 237.363 115.938 236.622 116.549C235.918 117.128 235.148 117.636 234.413 118.173C233.762 118.652 233.092 119.085 232.419 119.525C231.014 120.444 229.578 121.285 228.136 122.136C227.313 122.621 226.457 123.045 225.619 123.494C224.999 123.824 224.385 124.148 223.756 124.449C222.855 124.882 221.952 125.312 221.052 125.746C220.307 126.102 219.522 126.383 218.762 126.697C217.725 127.124 216.697 127.544 215.647 127.92C213.267 128.767 210.821 129.398 208.351 129.88C205.603 130.417 202.768 130.711 199.942 130.711C198.095 130.715 196.251 130.588 194.438 130.32ZM204.03 124.057C205.874 123.837 207.693 123.52 209.503 123.1C211.307 122.64 213.07 122.081 214.821 121.443C216.538 120.738 218.248 120.04 219.927 119.231C221.656 118.403 223.344 117.516 225.036 116.607C226.335 115.841 227.637 115.084 228.902 114.259C230.208 113.405 231.469 112.506 232.731 111.587C233.454 110.988 234.18 110.393 234.902 109.795C235.603 109.219 236.248 108.553 236.912 107.928C238.37 106.418 239.796 104.894 241.176 103.309C242.516 101.769 243.825 100.21 245.108 98.6185C246.326 97.014 247.46 95.3804 248.488 93.6368C249.142 92.414 249.747 91.1751 250.295 89.9006C250.765 88.6648 251.18 87.4162 251.547 86.1449C251.812 85.1453 252.055 84.1458 252.227 83.1236C252.267 82.8033 252.298 82.4831 252.317 82.1596C252.317 82.0561 252.311 81.9526 252.304 81.8523C252.295 81.7811 252.283 81.7099 252.27 81.6388C252.254 81.5838 252.239 81.5288 252.22 81.4738C252.202 81.4285 252.18 81.3832 252.161 81.3379C251.432 81.2344 250.744 80.8721 250.286 80.2316C250.18 80.0796 250.064 79.9405 249.949 79.8014C249.778 79.6299 249.6 79.465 249.42 79.3C249.049 79.0121 248.666 78.7468 248.273 78.4913C247.843 78.2487 247.41 78.019 246.965 77.8023C246.22 77.482 245.466 77.207 244.694 76.958C243.501 76.6215 242.298 76.353 241.08 76.1428C239.747 75.9519 238.41 75.8419 237.064 75.7643C235.111 75.7222 233.148 75.6381 231.201 75.8063C229.718 75.9875 228.251 76.2689 226.793 76.6086C224.289 77.2329 221.802 77.9899 219.385 78.9118C217.516 79.6623 215.703 80.526 213.911 81.4641C212.061 82.5316 210.21 83.5764 208.416 84.7442C207.534 85.32 206.634 85.8667 205.777 86.4813C204.743 87.2253 203.709 87.9726 202.675 88.7134C200.911 90.0688 199.217 91.4921 197.612 93.0481C196.263 94.4002 194.958 95.8106 193.78 97.3245C193.135 98.1591 192.491 98.9905 191.843 99.8218C191.011 100.986 190.223 102.177 189.491 103.406C188.93 104.409 188.416 105.431 187.955 106.489C187.671 107.213 187.413 107.944 187.185 108.689C186.927 109.665 186.74 110.652 186.578 111.652C186.453 112.622 186.36 113.589 186.313 114.566C186.31 115.229 186.332 115.886 186.381 116.549C186.431 116.976 186.497 117.403 186.572 117.827C186.665 118.192 186.768 118.552 186.886 118.911C186.967 119.111 187.051 119.309 187.145 119.503C187.316 119.813 187.494 120.111 187.687 120.408C187.818 120.583 187.958 120.751 188.101 120.913C188.26 121.078 188.425 121.236 188.596 121.392C188.899 121.621 189.201 121.838 189.519 122.045C189.892 122.259 190.269 122.456 190.653 122.644C191.304 122.922 191.958 123.161 192.631 123.375C193.472 123.601 194.313 123.792 195.17 123.944C196.385 124.115 197.597 124.222 198.824 124.268C200.562 124.313 202.294 124.229 204.03 124.057Z" fill="black"/>
<path d="M173.55 169.995C169.544 168.996 165.528 167.223 162.482 164.289C161.142 163.002 159.955 161.307 159.398 159.485C158.756 157.386 158.662 155.186 158.737 153.003C158.815 150.764 159.488 148.574 160.289 146.51C161.22 144.113 162.401 141.839 163.731 139.659C165.447 136.845 167.581 134.38 169.703 131.895C170.192 131.323 170.725 130.795 171.245 130.255C172.211 129.256 173.17 128.266 174.192 127.321C175.946 125.694 177.84 124.196 179.94 123.09C180.884 122.592 181.984 122.197 183.043 122.11C183.731 122.052 184.382 122.058 185.043 122.304C184.918 122.268 184.79 122.23 184.669 122.194C184.538 122.171 184.41 122.152 184.28 122.133C184.217 122.129 184.155 122.129 184.093 122.126C185.685 122.223 187.027 123.475 187.089 125.196C187.152 126.888 185.812 128.518 184.13 128.518C183.946 128.518 183.775 128.505 183.607 128.479C183.572 128.489 183.535 128.496 183.501 128.505C183.382 128.544 183.261 128.586 183.142 128.625C182.837 128.758 182.538 128.9 182.242 129.049C181.74 129.35 181.264 129.67 180.787 130.013C179.519 130.999 178.32 132.054 177.152 133.163C176.703 133.629 176.254 134.095 175.803 134.564C175.357 135.027 174.884 135.473 174.463 135.962C173.292 137.336 172.102 138.695 170.99 140.118C170.011 141.422 169.105 142.774 168.27 144.181C167.513 145.537 166.837 146.931 166.22 148.361C165.868 149.241 165.556 150.127 165.282 151.036C165.176 151.456 165.08 151.871 164.999 152.298C164.934 152.828 164.893 153.355 164.871 153.889C164.868 154.5 164.887 155.105 164.933 155.713C164.99 156.166 165.055 156.613 165.136 157.062C165.105 156.927 165.074 156.794 165.046 156.658C165.099 156.939 165.17 157.218 165.261 157.489C165.332 157.671 165.41 157.848 165.497 158.023C165.597 158.208 165.706 158.385 165.818 158.56C166.024 158.838 166.239 159.104 166.463 159.366C166.731 159.637 167.002 159.896 167.285 160.152C167.79 160.55 168.307 160.918 168.846 161.268C169.482 161.643 170.133 161.983 170.796 162.296C171.849 162.756 172.921 163.154 174.015 163.493C175.273 163.849 176.544 164.124 177.831 164.344C179.962 164.664 182.099 164.826 184.248 164.894C185.921 164.917 187.575 164.875 189.242 164.752C190.286 164.674 191.326 164.593 192.37 164.519C193.706 164.331 195.046 164.143 196.382 163.956C197.56 163.791 198.722 163.558 199.893 163.338C200.99 163.131 202.083 162.943 203.171 162.685C204.52 162.368 205.869 162.047 207.214 161.73C209.613 161.041 212.003 160.359 214.37 159.566C215.464 159.201 216.566 158.858 217.644 158.45C218.968 157.949 220.289 157.447 221.61 156.946C223.077 156.312 224.548 155.678 226.018 155.044C227.545 154.384 229.031 153.611 230.532 152.899C233.451 151.515 236.321 150.014 239.202 148.542C240.224 147.963 241.246 147.384 242.271 146.805C243.208 146.274 244.099 145.666 245.006 145.074C245.903 144.485 246.804 143.913 247.676 143.279C248.744 142.499 249.813 141.723 250.885 140.943C252.738 139.507 254.586 138.077 256.392 136.579C257.212 135.9 258.031 135.237 258.816 134.519C259.807 133.613 260.794 132.701 261.785 131.795C262.841 130.734 263.922 129.692 264.944 128.596C266.171 127.276 267.402 125.963 268.614 124.623C269.875 123.229 271.131 121.829 272.377 120.418C273.505 119.137 274.583 117.814 275.673 116.501C276.614 115.265 277.555 114.036 278.43 112.752C278.866 112.111 279.33 111.484 279.735 110.82C280.215 110.034 280.695 109.251 281.175 108.465C281.782 107.362 282.387 106.259 282.938 105.121C283.483 103.995 283.978 102.859 284.471 101.708C284.751 100.951 285.031 100.194 285.312 99.4369C285.586 98.6962 285.788 97.9166 286.016 97.1564C286.421 95.5907 286.835 94.0283 287.153 92.44C287.514 90.6253 287.835 88.8137 288.116 86.9893C288.321 85.2522 288.452 83.528 288.511 81.7812C288.505 81.1148 288.48 80.4581 288.427 79.795C288.346 79.1545 288.246 78.5205 288.122 77.8897C287.966 77.2459 287.782 76.6119 287.57 75.9876C287.387 75.5218 287.187 75.0689 286.969 74.6192C286.757 74.2408 286.533 73.8752 286.296 73.5194C286.031 73.1733 285.757 72.8401 285.471 72.5166C285.234 72.2772 284.991 72.0476 284.742 71.8243C284.486 71.6238 284.231 71.4362 283.963 71.255C283.589 71.0318 283.209 70.8248 282.82 70.6307C282.411 70.456 282.003 70.3007 281.583 70.1584C281.131 70.0355 280.682 69.932 280.221 69.8414C279.739 69.7735 279.259 69.7249 278.773 69.6958C278.293 69.6926 277.816 69.7087 277.337 69.7379C276.087 69.8931 274.869 70.1002 273.642 70.3751C272.489 70.7018 271.355 71.0609 270.224 71.4717C268.598 72.1414 267.003 72.8886 265.455 73.7361C264.645 74.2311 263.869 74.7648 263.103 75.3277C261.486 76.5828 259.947 77.9091 258.464 79.3356C257.23 80.5228 255.159 80.2188 254.121 78.9313C253.601 78.2843 253.343 77.4368 253.417 76.5925C253.492 75.7223 253.9 75.0107 254.511 74.4219C256.71 72.3063 259.05 70.346 261.583 68.6736C262.919 67.7905 264.408 67.0756 265.86 66.4189C267.424 65.7137 269.009 65.1153 270.639 64.5912C272.224 64.0769 273.894 63.7146 275.545 63.5173C276.935 63.3523 278.302 63.2585 279.704 63.3458C281.583 63.459 283.464 63.9572 285.187 64.7303C286.739 65.4258 288.14 66.3672 289.39 67.5446C290.779 68.8547 291.841 70.4722 292.698 72.1931C293.561 73.9302 294.053 75.8711 294.384 77.7861C294.686 79.5427 294.686 81.3121 294.633 83.0881C294.53 86.6399 293.907 90.1465 293.215 93.6175C292.891 95.2446 292.477 96.8523 292.063 98.4568C291.611 100.2 291.016 101.889 290.39 103.568C289.218 106.725 287.676 109.776 285.932 112.629C285.511 113.318 285.112 114.033 284.658 114.702C284.056 115.582 283.461 116.459 282.86 117.342C282.427 117.979 281.932 118.581 281.464 119.199C280.975 119.846 280.496 120.502 279.975 121.127C278.776 122.576 277.573 124.012 276.33 125.419C275.128 126.781 273.913 128.124 272.695 129.469C271.62 130.656 270.52 131.818 269.43 132.992C268.857 133.603 268.246 134.186 267.66 134.781C267.041 135.408 266.436 136.075 265.785 136.67C263.349 138.899 260.935 141.144 258.327 143.162C256.944 144.236 255.579 145.339 254.165 146.371C252.791 147.371 251.445 148.432 250.031 149.364C248.614 150.292 247.224 151.288 245.751 152.126C244.215 152.993 242.698 153.899 241.134 154.701C238.18 156.212 235.227 157.719 232.233 159.142C229.121 160.621 226.003 162.096 222.788 163.315C219.651 164.503 216.51 165.703 213.295 166.628C211.613 167.113 209.94 167.65 208.239 168.051C206.607 168.439 204.978 168.889 203.33 169.203C202.33 169.394 201.329 169.581 200.333 169.769C199.635 169.902 198.943 170.06 198.242 170.16C197.32 170.29 196.395 170.419 195.47 170.548C194.585 170.675 193.697 170.843 192.806 170.908C190.993 171.04 189.174 171.231 187.354 171.289C186.681 171.309 186.005 171.322 185.326 171.322C181.367 171.325 177.385 170.95 173.55 169.995Z" fill="black"/>
<path d="M232.544 177.963C231.326 177.74 230.13 177.516 228.93 177.209C227.547 176.853 226.189 176.462 224.828 176.025C223.575 175.624 222.351 175.161 221.117 174.696C220.011 174.275 218.94 173.751 217.862 173.259C217.909 173.282 217.958 173.301 218.005 173.324C217.014 172.878 216.067 172.321 215.105 171.81C214.563 171.522 214.049 171.147 213.528 170.82C213.061 170.526 212.609 170.225 212.161 169.902C211.204 169.216 210.273 168.501 209.385 167.715C208.918 167.301 208.432 166.854 208.105 166.311C207.774 165.764 207.637 165.156 207.634 164.525C207.715 162.859 208.924 161.452 210.591 161.384C211.566 161.345 212.516 161.827 213.127 162.594C213.37 162.827 213.616 163.05 213.868 163.27C214.603 163.849 215.351 164.405 216.111 164.949C216.7 165.369 217.323 165.742 217.94 166.123C218.768 166.563 219.594 167.003 220.419 167.443C221.192 167.792 221.965 168.142 222.74 168.491C223.678 168.912 224.672 169.225 225.625 169.588C226.56 169.944 227.535 170.209 228.491 170.503C229.513 170.765 230.532 171.027 231.554 171.289C232.036 171.412 232.547 171.47 233.037 171.561C233.532 171.652 234.03 171.742 234.526 171.833C235.899 171.978 237.273 172.14 238.653 172.205C240.089 172.234 241.519 172.185 242.949 172.049C244.311 171.881 245.657 171.635 246.996 171.325C249.544 170.675 252.024 169.811 254.501 168.915C255.791 168.388 257.08 167.864 258.345 167.272C259.644 166.663 260.906 166.004 262.171 165.331C263.242 164.69 264.314 164.056 265.358 163.37C266.383 162.694 267.376 161.983 268.37 161.258C268.975 160.76 269.576 160.262 270.18 159.767C270.788 159.265 271.352 158.69 271.928 158.149C272.635 157.421 273.342 156.697 274.018 155.94C274.732 155.138 275.411 154.316 276.087 153.485C276.442 152.996 276.8 152.511 277.152 152.023C277.507 151.534 277.81 150.997 278.127 150.48C278.579 149.648 279.025 148.817 279.439 147.963C279.816 147.18 280.165 146.384 280.511 145.588C281.093 144.052 281.616 142.515 282.081 140.937C282.632 138.731 283.081 136.515 283.448 134.266C283.669 132.555 283.844 130.847 283.95 129.126C283.965 127.871 283.937 126.632 283.844 125.377C283.694 124.177 283.511 122.993 283.261 121.806C283.006 120.8 282.719 119.807 282.386 118.827C282.115 118.112 281.822 117.41 281.479 116.73C281.264 116.342 281.04 115.964 280.791 115.598C280.872 115.715 280.956 115.834 281.037 115.948C281.012 115.912 280.987 115.876 280.959 115.838C280.467 115.142 280.18 114.379 280.255 113.499C280.327 112.658 280.726 111.872 281.349 111.328C282.576 110.267 284.697 110.325 285.691 111.733C287.205 113.877 288.174 116.342 288.884 118.885C289.804 122.175 290.174 125.565 290.109 128.984C290.074 130.737 289.897 132.484 289.666 134.224C289.448 135.903 289.187 137.582 288.825 139.235C288.442 140.982 288 142.7 287.504 144.411C287.04 146.025 286.395 147.588 285.732 149.121C284.367 152.278 282.676 155.293 280.52 157.946C278.33 160.637 275.962 163.167 273.302 165.357C267.99 169.733 261.881 173.017 255.488 175.33C252.059 176.568 248.597 177.655 244.999 178.228C243.261 178.503 241.491 178.632 239.719 178.632C237.311 178.629 234.896 178.393 232.544 177.963Z" fill="black"/>
<path d="M279.878 209.295C277.903 208.949 275.915 208.448 274.058 207.652C273.22 207.293 272.386 206.934 271.548 206.575C270.738 206.229 269.952 205.811 269.161 205.423C267.685 204.692 266.258 203.867 264.819 203.059C264.058 202.632 263.326 202.13 262.588 201.671C261.956 201.279 261.317 200.891 260.694 200.48C259.267 199.536 257.84 198.591 256.417 197.637C252.124 194.745 247.806 191.892 243.497 189.023C241.42 187.638 239.338 186.257 237.276 184.843C236.123 184.054 234.971 183.261 233.84 182.44C232.849 181.722 231.896 180.958 230.961 180.166C230.94 180.149 230.921 180.133 230.899 180.117C230.905 180.12 230.908 180.124 230.915 180.127C230.877 180.094 230.84 180.062 230.803 180.033C229.631 179.092 229.161 177.442 229.874 175.999C230.619 174.495 232.566 173.754 234.027 174.615C234.513 174.899 234.936 175.275 235.363 175.643C237.466 177.322 239.672 178.836 241.899 180.334C244.388 182.003 246.871 183.672 249.367 185.328C254.435 188.686 259.479 192.076 264.541 195.437C264.522 195.428 264.507 195.415 264.488 195.405C265.89 196.278 267.286 197.165 268.725 197.973C269.519 198.42 270.304 198.899 271.121 199.303C271.996 199.733 272.872 200.167 273.747 200.6C275.27 201.254 276.778 201.907 278.354 202.412C279.249 202.657 280.149 202.855 281.059 203.023C282.055 203.169 283.049 203.275 284.052 203.321C284.535 203.324 285.009 203.311 285.488 203.279C285.856 203.23 286.217 203.169 286.585 203.094C286.937 202.994 287.277 202.887 287.623 202.764C287.825 202.677 288.024 202.583 288.224 202.483C288.532 202.295 288.828 202.098 289.121 201.888C289.283 201.755 289.439 201.619 289.591 201.477C289.847 201.208 290.093 200.933 290.33 200.645C290.635 200.225 290.918 199.795 291.19 199.351C291.563 198.662 291.9 197.957 292.211 197.236C292.517 196.45 292.788 195.657 293.031 194.849C293.277 193.923 293.476 192.998 293.629 192.054C293.735 191.177 293.8 190.3 293.838 189.417C293.85 187.848 293.744 186.302 293.635 184.74C293.532 183.941 293.433 183.142 293.33 182.346C293.227 181.557 293.049 180.771 292.906 179.988C292.735 179.247 292.57 178.506 292.355 177.778C292.077 176.834 291.778 175.912 291.461 174.987C290.049 171.412 288.414 167.938 286.918 164.399C285.594 161.255 284.379 158.046 282.844 155.002C282.482 154.316 282.099 153.643 281.66 153.009C280.675 151.592 281.283 149.477 282.635 148.597C283.314 148.15 284.152 148.005 284.937 148.183C285.775 148.374 286.392 148.901 286.884 149.609C288.046 151.279 288.897 153.19 289.732 155.054C291.015 157.92 292.146 160.863 293.389 163.749C294.719 166.851 296.243 169.895 297.352 173.094C297.644 173.932 297.919 174.763 298.168 175.621C298.426 176.497 298.629 177.39 298.841 178.28C299.249 180.01 299.473 181.773 299.697 183.536C300.003 185.956 300.065 188.437 299.937 190.87C299.819 193.108 299.345 195.295 298.707 197.43C298.046 199.639 297.065 201.752 295.838 203.676C293.61 207.17 289.869 209.379 285.856 209.667C285.37 209.703 284.881 209.719 284.395 209.719C282.881 209.716 281.367 209.561 279.878 209.295Z" fill="black"/>
<path d="M139.851 231.302C136.384 231.169 132.92 231.03 129.455 230.878C127.655 230.797 125.848 230.69 124.057 230.47C122.234 230.244 120.24 229.839 118.782 228.607C118.153 228.073 117.751 227.455 117.424 226.689C117.078 225.89 117.075 224.978 117.047 224.114C116.945 220.908 116.929 217.699 116.842 214.493C116.658 207.872 116.259 201.266 115.804 194.657C115.334 187.812 114.795 180.98 114.156 174.148C113.826 170.794 113.493 167.436 113.103 164.088C112.888 162.235 112.68 160.381 112.486 158.524C112.334 157.043 112.144 155.551 112.259 154.06C112.387 152.417 113.567 151.168 115.063 150.773C116.546 150.385 118.057 150.136 119.568 149.887C121.163 149.628 122.761 149.395 124.362 149.175C127.661 148.719 130.97 148.321 134.281 148.004C139.091 147.542 143.914 147.267 148.733 146.885C151.06 146.62 153.409 146.4 155.711 145.941C157.051 145.672 158.39 145.404 159.727 145.119C160.792 144.889 161.836 144.776 162.917 144.841C164.596 144.935 165.861 146.62 165.711 148.315C165.559 150.094 164.042 151.314 162.362 151.217C162.306 151.213 162.25 151.21 162.194 151.207C162.113 151.207 162.032 151.21 161.951 151.217C160.665 151.42 159.394 151.728 158.119 151.983C156.839 152.239 155.562 152.446 154.275 152.65C151.998 153.009 149.696 153.232 147.403 153.416C142.655 153.792 137.907 154.092 133.166 154.542C130.318 154.866 127.474 155.212 124.636 155.603C122.586 155.888 120.518 156.163 118.48 156.564C118.49 156.677 118.499 156.787 118.508 156.9C118.876 160.41 119.284 163.913 119.667 167.42C120.047 170.888 120.362 174.365 120.689 177.839C121.343 184.743 121.783 191.665 122.25 198.581C122.546 202.961 122.776 207.348 122.932 211.734C123.01 213.85 123.047 215.968 123.088 218.084C123.125 219.996 123.135 221.914 123.206 223.823C123.571 223.91 123.938 223.988 124.309 224.059C127.2 224.466 130.147 224.531 133.06 224.648C135.973 224.764 138.882 224.877 141.795 224.99C143.568 225.026 145.343 225.094 147.113 225.065C149.337 225.032 151.552 224.997 153.774 224.9C155.982 224.803 158.188 224.673 160.394 224.538C162.228 224.424 164.06 224.246 165.892 224.081C167.372 223.881 168.852 223.68 170.328 223.477C171.035 223.383 171.746 223.192 172.447 223.05C173.204 222.898 173.964 222.742 174.721 222.587C176.107 222.215 177.5 221.843 178.889 221.474C179.518 221.303 180.138 221.073 180.761 220.869C181.575 220.61 182.381 220.348 183.191 220.083C186.033 219.161 188.833 218.071 191.628 217.007C194.297 215.949 196.933 214.807 199.584 213.698C200.958 213.122 202.341 212.578 203.712 211.993C205.048 211.424 206.347 210.744 207.625 210.049C209.899 208.732 212.092 207.312 214.213 205.74C216.104 204.268 217.902 202.683 219.706 201.101C221.425 199.587 223.167 198.099 224.815 196.498C225.715 195.57 226.553 194.602 227.357 193.587C229.644 190.526 231.75 187.308 233.706 184.008C234.214 183.083 234.669 182.126 235.089 181.152C235.538 180.049 235.908 178.923 236.242 177.778C236.728 176.106 238.669 175.284 240.186 175.853C240.961 176.144 241.606 176.759 241.949 177.539C242.292 178.321 242.276 179.14 242.039 179.949C241.569 181.566 241.008 183.135 240.317 184.665C239.052 187.463 237.354 190.057 235.672 192.6C234.862 193.823 234.03 195.029 233.173 196.217C232.204 197.553 231.204 198.885 230.073 200.079C228.005 202.256 225.728 204.194 223.481 206.167C220.999 208.347 218.506 210.515 215.802 212.394C213.108 214.27 210.276 215.904 207.338 217.327C205.939 218.006 204.484 218.573 203.045 219.152C201.662 219.711 200.288 220.313 198.911 220.898C195.849 222.205 192.749 223.405 189.627 224.554C188.085 225.12 186.54 225.663 184.992 226.213C184.191 226.495 183.372 226.734 182.565 226.996C181.88 227.219 181.201 227.465 180.509 227.649C178.855 228.093 177.204 228.61 175.525 228.95C173.88 229.283 172.238 229.675 170.577 229.898C168.848 230.137 167.123 230.396 165.384 230.545C163.711 230.693 162.045 230.849 160.369 230.952C156.945 231.166 153.518 231.366 150.088 231.421C149.032 231.437 147.976 231.447 146.92 231.447C144.562 231.431 142.21 231.389 139.851 231.302Z" fill="black"/>
<path d="M16.5233 218.175C14.8784 217.994 13.2771 217.567 11.7631 216.871C10.4329 216.26 9.22107 215.48 8.02479 214.626C5.0123 212.482 2.58851 209.376 1.03086 205.96C-0.514326 202.57 -0.498731 197.951 2.29569 195.243C6.35804 191.313 12.2117 194.518 15.922 197.42C17.4142 198.591 18.7726 199.963 19.866 201.545C20.6262 202.641 21.2243 203.812 21.8006 205.016C21.9844 205.4 22.1527 205.795 22.3116 206.196C23.377 204.938 24.4455 203.68 25.5359 202.444C27.8599 199.804 30.2182 197.207 32.4736 194.509C34.564 192.011 36.5734 189.437 38.6762 186.952C40.9379 184.283 43.2681 181.699 45.6793 179.176C48.0314 176.714 50.3773 174.246 52.7106 171.765C53.7792 170.629 54.8695 169.51 55.9941 168.429C57.287 167.181 58.6016 165.981 59.9443 164.79C61.2029 163.674 62.5363 162.639 63.8385 161.585C65.0098 160.63 66.1843 159.679 67.3556 158.725C68.6765 157.651 70.0161 156.593 71.3557 155.542C74.6267 152.98 78.3932 150.929 82.549 150.699C84.2936 150.605 86.1845 151.071 87.6487 152.077C88.6674 152.783 89.5334 153.672 90.331 154.633C91.3933 155.914 92.3621 157.273 93.3092 158.651C95.2313 161.439 97.0413 164.305 98.8419 167.178C100.717 170.173 102.518 173.214 104.291 176.28C105.936 179.13 107.434 182.081 108.998 184.979C110.798 188.327 112.674 191.627 114.736 194.806C115.774 196.404 116.842 197.986 117.833 199.617C118.861 201.312 119.836 203.052 120.883 204.734C121.104 204.977 121.291 205.258 121.434 205.582C121.767 206.335 121.799 207.212 121.528 207.992C120.979 209.573 119.132 210.586 117.584 209.916C116.54 209.467 115.948 208.648 115.378 207.665C114.92 206.879 114.462 206.096 114.004 205.31C113.122 203.802 112.179 202.334 111.238 200.865C109.481 198.125 107.699 195.415 106.094 192.578C104.372 189.521 102.72 186.425 101.069 183.326C99.4214 180.233 97.6582 177.209 95.8513 174.21C93.3279 170.027 90.7266 165.887 87.9633 161.866C87.0256 160.549 86.0755 159.262 85.007 158.059C84.8668 157.913 84.7172 157.774 84.5676 157.638C84.4929 157.58 84.4151 157.525 84.3372 157.47C84.2437 157.418 84.1471 157.363 84.0537 157.311C84.1004 157.334 84.1502 157.357 84.197 157.376C84.1876 157.37 84.1814 157.366 84.172 157.36C84.0443 157.302 83.9135 157.253 83.7795 157.208C83.6487 157.179 83.521 157.15 83.3932 157.124C83.2562 157.108 83.116 157.098 82.9789 157.091C82.7951 157.091 82.6113 157.098 82.4275 157.111C82.0381 157.163 81.6517 157.227 81.2623 157.305C80.8355 157.421 80.4181 157.551 79.9976 157.7C79.3932 157.949 78.8044 158.227 78.225 158.534C77.1595 159.155 76.1439 159.847 75.1439 160.575C72.5239 162.633 69.9444 164.742 67.3525 166.844C66.069 167.886 64.7699 168.921 63.53 170.024C62.1905 171.211 60.8914 172.428 59.5986 173.67C57.3431 175.993 55.1405 178.367 52.8944 180.706C50.4769 183.226 48.047 185.733 45.7261 188.353C43.5766 190.782 41.5454 193.318 39.4831 195.832C37.2712 198.53 35.0406 201.208 32.7135 203.806C30.4393 206.342 28.2057 208.91 26 211.511C25.6169 211.961 25.2368 212.41 24.8567 212.863C25.0031 213.099 25.1246 213.365 25.2088 213.656C25.6792 215.27 24.7882 217.221 23.1589 217.654C22.3084 217.881 21.4641 218.058 20.5949 218.191C19.9937 218.282 19.4019 218.32 18.8068 218.32C18.0561 218.32 17.2959 218.259 16.5233 218.175ZM17.7165 211.87C17.651 211.699 17.5919 211.521 17.5327 211.343C17.2585 210.524 16.9905 209.709 16.7008 208.897C16.3862 208.147 16.0622 207.416 15.7133 206.681C15.4329 206.174 15.137 205.685 14.8161 205.206C14.5108 204.799 14.193 204.411 13.8597 204.032C13.4516 203.618 13.031 203.223 12.598 202.842C11.8285 202.227 11.031 201.68 10.2054 201.153C9.65092 200.849 9.09328 200.558 8.52629 200.283C8.21788 200.157 7.90952 200.04 7.59488 199.937C7.42977 199.895 7.26457 199.856 7.09946 199.82C7.02781 199.811 6.95616 199.804 6.8845 199.798C6.83466 199.798 6.78794 199.801 6.73809 199.801C6.71317 199.804 6.68829 199.807 6.66337 199.811C6.65091 199.814 6.63847 199.817 6.62601 199.82C6.61354 199.827 6.60103 199.83 6.59168 199.837C6.58545 199.84 6.57928 199.846 6.57305 199.849C6.55747 199.862 6.54185 199.879 6.52628 199.892C6.50758 199.917 6.48583 199.94 6.46714 199.966C6.44533 200.002 6.42344 200.037 6.40164 200.073C6.37671 200.128 6.3487 200.183 6.32377 200.238C6.29574 200.319 6.26777 200.399 6.23973 200.484C6.22415 200.548 6.21169 200.613 6.19923 200.681C6.18677 200.801 6.17737 200.92 6.16491 201.043C6.16491 201.224 6.17118 201.405 6.18364 201.583C6.20545 201.748 6.23033 201.913 6.25836 202.075C6.33625 202.386 6.42041 202.69 6.5201 202.994C6.66963 203.346 6.8254 203.692 6.99051 204.035C7.29892 204.601 7.6353 205.145 7.98733 205.682C8.43594 206.297 8.90642 206.882 9.40799 207.448C9.93136 207.985 10.4702 208.493 11.0372 208.978C11.598 209.418 12.1774 209.835 12.7725 210.224C13.2896 210.531 13.8161 210.812 14.3582 211.068C14.6822 211.201 15.0061 211.323 15.3364 211.437C15.76 211.553 16.1837 211.647 16.6168 211.728C16.9875 211.786 17.352 211.831 17.7165 211.87Z" fill="black"/>
<path d="M17.037 248.615C13.5417 248.013 9.61334 246.218 8.33295 242.501C7.67874 240.599 7.67869 238.499 8.51359 236.646C9.29553 234.915 10.5697 233.608 12.0807 232.554C13.5667 231.519 15.386 230.991 17.1399 230.762C19.1742 230.493 21.305 230.7 23.2583 231.35C25.1244 231.971 26.9033 232.884 28.6759 233.754C30.0123 234.407 31.3363 235.083 32.6759 235.73C32.9189 235.426 33.1587 235.119 33.3924 234.812C36.7569 230.39 39.7538 225.68 42.5762 220.876C44.246 217.932 45.866 214.966 47.4112 211.951C48.9408 208.965 50.3645 205.925 51.7882 202.887C54.81 196.453 58.0126 190.122 61.2961 183.831C62.9036 180.748 64.6233 177.726 66.3367 174.699C67.209 173.159 68.1156 171.648 69.0128 170.128C69.8819 168.653 70.8227 167.223 71.7417 165.78C75.6639 159.618 82.0223 151.89 90.041 154.423C92.4741 155.189 94.6423 156.613 96.7731 158.01C98.2124 158.955 99.5863 160.012 100.963 161.054C103.851 163.238 106.571 165.644 109.424 167.876C110.904 169.034 112.375 170.218 113.938 171.254C115.449 172.26 116.973 173.236 118.509 174.197C118.633 174.275 118.761 174.356 118.889 174.427C120.091 174.954 120.901 176.28 120.78 177.675C120.627 179.428 119.11 180.709 117.434 180.576C116.898 180.534 116.396 180.321 115.938 180.043C115.35 179.687 114.77 179.321 114.191 178.952C112.985 178.196 111.792 177.422 110.605 176.633C108.459 175.207 106.449 173.573 104.452 171.936C102.321 170.189 100.181 168.455 98.0224 166.747C96.0784 165.208 94.0535 163.791 91.9881 162.435C91.094 161.908 90.2061 161.381 89.2715 160.928C88.907 160.776 88.5425 160.637 88.1656 160.511C87.9786 160.462 87.7887 160.42 87.5986 160.384C87.4429 160.368 87.287 160.352 87.1313 160.336C87.206 160.339 87.2809 160.339 87.3556 160.342C87.3899 160.349 87.421 160.352 87.4553 160.359C87.4241 160.352 87.3868 160.349 87.3556 160.342C87.4117 160.346 87.4709 160.346 87.5238 160.346C87.4584 160.342 87.3962 160.339 87.3307 160.336C87.312 160.333 87.2933 160.329 87.2746 160.326C87.2933 160.329 87.3089 160.333 87.3276 160.336C87.0379 160.326 86.745 160.333 86.4553 160.359C86.2591 160.384 86.0627 160.42 85.8696 160.462C85.6733 160.514 85.4802 160.575 85.2871 160.643C84.9787 160.773 84.6796 160.909 84.3805 161.057C83.9599 161.306 83.5549 161.572 83.1562 161.853C82.6546 162.257 82.1749 162.681 81.7045 163.124C80.8322 164.02 80.0254 164.968 79.2465 165.948C76.5829 169.465 74.3555 173.308 72.1093 177.118C70.3928 180.156 68.7012 183.206 67.0345 186.273C65.3959 189.288 63.8663 192.367 62.3117 195.428C60.832 198.336 59.4052 201.279 58.0158 204.239C56.5235 207.419 55.078 210.631 53.4736 213.753C50.3521 219.818 47.0904 225.803 43.3489 231.48C41.5919 234.142 39.785 236.775 37.8254 239.282C37.3706 239.861 36.8971 240.431 36.4205 240.993C36.1245 241.343 35.8067 241.67 35.4391 241.932C35.2491 242.313 34.9843 242.656 34.6635 242.964C32.1743 245.335 29.0746 246.946 25.9188 248.117C24.3269 248.705 22.6259 248.984 20.9406 249C20.8907 249 20.8409 249 20.791 249C19.5324 249.006 18.2738 248.828 17.037 248.615ZM21.791 242.566C22.1991 242.507 22.5979 242.436 22.9967 242.346C23.4858 242.207 23.9655 242.051 24.4421 241.877C25.5263 241.433 26.5824 240.919 27.6167 240.359C27.626 240.353 27.6322 240.35 27.6416 240.343C26.2958 239.677 24.9499 239.007 23.5979 238.357C22.844 238.021 22.0932 237.697 21.3144 237.425C20.9468 237.325 20.5792 237.238 20.2022 237.16C19.8284 237.112 19.4576 237.079 19.0807 237.057C18.7193 237.06 18.3611 237.073 17.9997 237.099C17.6446 237.147 17.2988 237.209 16.9498 237.286C16.7598 237.338 16.5729 237.396 16.386 237.461C16.1087 237.577 15.8407 237.707 15.5728 237.843C15.4077 237.943 15.2488 238.05 15.09 238.16C14.9498 238.273 14.8127 238.393 14.6788 238.519C14.5822 238.622 14.4856 238.729 14.3953 238.839C14.3267 238.936 14.2613 239.036 14.1959 239.137C14.1741 239.179 14.1523 239.224 14.1305 239.269C14.1056 239.35 14.0807 239.428 14.0526 239.509C14.0433 239.56 14.0339 239.615 14.0246 239.667C14.0215 239.722 14.0183 239.774 14.0152 239.829C14.0183 239.884 14.0246 239.939 14.0277 239.991C14.0402 240.042 14.0495 240.094 14.0588 240.146C14.0775 240.201 14.0962 240.256 14.1149 240.308C14.1336 240.347 14.1523 240.389 14.171 240.427C14.1959 240.469 14.2239 240.515 14.2489 240.557C14.3081 240.631 14.3673 240.706 14.4296 240.777C14.4981 240.845 14.5666 240.909 14.6383 240.974C14.7535 241.061 14.8688 241.146 14.9903 241.226C15.1679 241.333 15.3517 241.433 15.5386 241.524C15.9187 241.686 16.2987 241.828 16.6881 241.964C17.3174 242.139 17.9499 242.281 18.5916 242.401C19.2303 242.482 19.8689 242.559 20.5106 242.601C20.9468 242.604 21.3673 242.595 21.791 242.566Z" fill="black"/>
<path d="M153.996 101.643C152.996 101.362 152.08 100.996 151.335 100.217C150.482 99.3174 150.067 98.0299 150.179 96.7715C150.348 94.8144 151.747 93.2423 152.859 91.7543C154.522 89.5287 156.323 87.3711 157.787 84.9935C157.94 84.7153 158.083 84.4371 158.217 84.1524C156.902 83.8483 155.563 83.6413 154.232 83.4278C153.451 83.3308 152.675 83.2402 151.893 83.1787C151.644 83.1755 151.394 83.1755 151.142 83.1852C149.466 83.2499 148.005 81.8524 147.943 80.1089C147.877 78.3653 149.226 76.8514 150.905 76.7867C152.899 76.709 154.899 77.0455 156.856 77.3916C157.796 77.5598 158.731 77.7377 159.666 77.9383C160.189 78.0483 160.697 78.2035 161.201 78.3717C161.709 78.5432 162.167 78.8505 162.613 79.1416C163.591 79.7886 164.139 80.8982 164.488 81.9948C164.781 82.9135 164.641 83.9292 164.494 84.8544C164.395 85.4593 164.148 86.0739 163.902 86.6303C163.613 87.287 163.292 87.921 162.918 88.5324C162.139 89.8069 161.261 91.0006 160.36 92.1813C159.672 93.0838 158.986 93.9896 158.301 94.8985C158.186 95.0506 158.071 95.2026 157.955 95.3547C158.385 95.3223 158.815 95.2835 159.248 95.2479C162.413 94.8727 165.575 94.4651 168.719 93.9281C170.373 93.6467 171.993 94.8274 172.27 96.5548C172.547 98.2693 171.398 99.9611 169.74 100.243C167.507 100.624 165.261 100.932 163.018 101.226C161.893 101.371 160.765 101.536 159.634 101.63C158.971 101.688 158.307 101.743 157.644 101.802C157.164 101.841 156.681 101.841 156.198 101.844C155.494 101.841 154.687 101.841 153.996 101.643Z" fill="black"/>
<path d="M107.92 69.3497C107.06 69.1362 106.2 68.6607 105.621 67.962C105.378 67.6709 105.16 67.3765 105.004 67.0239C104.77 66.4901 104.739 65.9402 104.699 65.3676C104.627 64.381 105.147 63.4526 105.649 62.6601C105.935 62.204 106.303 61.7834 106.639 61.3629C107.222 60.6415 107.811 59.9202 108.396 59.1988C109.474 57.8822 110.571 56.5786 111.618 55.2329C112.091 54.6118 112.571 53.9939 113.044 53.3761C113.001 53.4311 112.957 53.4893 112.917 53.5443C113.244 53.0979 113.565 52.6515 113.873 52.1954C112.428 51.9786 110.976 51.7716 109.524 51.6519C109.163 51.7651 108.777 51.8072 108.384 51.7554C107.602 51.6519 106.954 51.3867 106.34 50.8464C104.717 49.4166 105.16 46.405 107.141 45.5672C108.122 45.1499 109.119 45.1693 110.16 45.289C110.761 45.3601 111.365 45.4281 111.97 45.5025C113.11 45.6416 114.247 45.7904 115.381 45.9586C116.403 46.1106 117.465 46.2594 118.397 46.7576C119.493 47.3399 120.328 48.3006 120.689 49.5331C121.524 52.3798 119.568 55.1229 117.935 57.2579C117.942 57.2482 117.951 57.2385 117.957 57.2288C117.929 57.2644 117.904 57.2967 117.876 57.3323C117.817 57.4099 117.758 57.4843 117.702 57.562C117.714 57.549 117.724 57.5329 117.733 57.5199C116.234 59.4608 114.68 61.35 113.135 63.2521C114.733 63.2068 116.325 63.0968 117.92 62.9383C119.593 62.7733 121.057 64.3454 121.119 66.0146C121.15 66.8492 120.861 67.6773 120.316 68.2919C119.739 68.9486 118.992 69.2527 118.157 69.3336C116.309 69.5179 114.468 69.6312 112.608 69.6668C112.197 69.6765 111.783 69.6829 111.368 69.6829C110.206 69.6926 109.044 69.6312 107.92 69.3497Z" fill="black"/>
<path d="M158.979 23.2272C156.973 23.2175 154.967 23.1431 152.963 23.0396C151.761 22.9782 150.562 22.9102 149.365 22.7711C148.256 22.6417 147.1 22.4088 146.141 21.7877C145.216 21.186 144.412 20.2803 144.225 19.1255C144.076 18.2035 144.206 17.1684 144.63 16.3403C145.166 15.2857 145.942 14.3994 146.702 13.5098C147.393 12.6978 148.082 11.8826 148.767 11.0675C149.932 9.69266 151.06 8.29197 152.166 6.87187C151.552 6.94304 150.938 7.01421 150.325 7.09184C148.72 7.28593 147.094 7.43149 145.499 7.70969C145.094 7.86173 144.655 7.9232 144.206 7.87791C143.094 7.76469 142.116 7.06272 141.642 5.99846C140.854 4.229 141.823 2.21694 143.549 1.60879C144.505 1.27236 145.611 1.2303 146.611 1.10738C147.505 0.990923 148.403 0.884182 149.297 0.777432C151.079 0.560698 152.861 0.360137 154.643 0.172516C154.512 0.18869 154.381 0.198396 154.25 0.21457C154.596 0.175752 154.939 0.143401 155.284 0.107818C155.777 0.059295 156.316 -0.0506946 156.805 0.0269416C157.216 0.0884036 157.636 0.127221 158.029 0.276023C158.362 0.398947 158.649 0.589811 158.939 0.800076C159.546 1.24648 160.051 1.95167 160.269 2.69569C160.755 4.3584 160.119 6.0114 159.322 7.4412C158.633 8.67691 157.798 9.79941 156.942 10.909C155.957 12.1835 154.963 13.4418 153.926 14.6711C153.378 15.3213 152.817 15.9682 152.262 16.6152C153.898 16.7284 155.543 16.7705 157.178 16.8158C157.699 16.8255 158.219 16.8352 158.739 16.8384C160.415 16.8481 161.873 18.113 161.939 19.9148C162.001 21.5969 160.664 23.2369 158.992 23.2369C158.988 23.2272 158.985 23.2272 158.979 23.2272Z" fill="black"/>
</svg>
