<svg width="95" height="135" viewBox="0 0 95 135" fill="none" xmlns="http://www.w3.org/2000/svg">
<path d="M41.478 51.9369C38.517 51.7762 35.553 51.4887 32.6509 50.8664C29.6884 50.2337 26.7568 49.3844 24.0081 48.0882C22.6455 47.4452 21.3184 46.6917 20.149 45.7346C18.9398 44.7466 17.8662 43.5684 17.0714 42.2191C16.6467 41.5024 16.3032 40.7651 16.0082 39.9851C15.7369 39.2669 15.5703 38.5016 15.4154 37.7525C15.2503 36.9473 15.1411 36.1318 15.035 35.3178C14.945 34.6189 14.858 33.9155 14.8197 33.2135C14.7931 32.7254 14.7651 32.2388 14.7371 31.7507C14.687 30.832 14.7356 29.9015 14.8182 28.9858C14.8728 28.3694 14.9494 27.7603 15.0527 27.1499C15.1323 26.6824 15.1942 26.2061 15.3004 25.7416C15.467 25.019 15.6204 24.292 15.8298 23.5798C15.9669 23.1123 16.1041 22.6463 16.2427 22.1789C16.3489 21.8161 16.4978 21.4636 16.6261 21.1083C16.7603 20.7396 16.8945 20.3724 17.0287 20.0038C17.4253 18.917 17.9518 17.867 18.4871 16.8436C18.9678 15.9235 19.5134 15.0402 20.0959 14.1819C20.73 13.2455 21.4113 12.3401 22.1633 11.4952C23.5922 9.88782 25.2822 8.52081 27.0827 7.35438C27.9424 6.79697 28.8331 6.28677 29.7577 5.84586C30.815 5.33859 31.9224 4.93303 33.0402 4.58206C34.0385 4.26797 35.0575 4.03501 36.0735 3.78579C36.3832 3.70911 36.7062 3.67372 37.0203 3.62064C37.2901 3.57345 37.557 3.5277 37.8254 3.48198C38.0112 3.44954 38.2029 3.40386 38.3902 3.38469C39.1599 3.30801 39.9326 3.19447 40.7053 3.1694C41.4781 3.1458 42.2566 3.08679 43.0293 3.11481C43.5204 3.13251 44.013 3.1517 44.5025 3.1694C44.9066 3.18267 45.3091 3.24164 45.7117 3.28145C46.452 3.35666 47.1893 3.45249 47.9222 3.58373C49.4337 3.85359 50.929 4.19426 52.4331 4.49656C52.6101 4.53195 52.787 4.5703 52.9654 4.59979C53.4314 4.67647 53.8178 4.96992 54.0286 5.36218C55.1479 5.64678 56.2657 5.94906 57.354 6.33247C58.8433 6.85596 60.29 7.45762 61.6835 8.20231C63.0755 8.947 64.4292 9.7536 65.6723 10.7283C66.2666 11.1928 66.8624 11.6942 67.3696 12.2561C67.6498 12.5657 67.927 12.8769 68.1895 13.2043C68.4564 13.539 68.7057 13.8796 68.9549 14.2277C69.8426 15.4678 70.689 16.7758 71.3438 18.1546C72.0354 19.6042 72.6326 21.1068 72.9762 22.6802C73.1458 23.4559 73.3168 24.2375 73.4009 25.0279C73.4436 25.4172 73.5041 25.8109 73.5248 26.2031C73.5484 26.6647 73.6015 27.1336 73.5956 27.5967C73.5911 27.986 73.5882 28.3738 73.5852 28.7631C73.5823 29.148 73.5292 29.5387 73.5011 29.9251C73.4407 30.7553 73.2637 31.5738 73.1 32.3892C72.7815 33.9759 72.2167 35.5036 71.5502 36.9753C71.2258 37.6905 70.8306 38.3703 70.4133 39.0339C70.0107 39.6754 69.5801 40.3095 69.0979 40.8964C68.1718 42.0274 67.2178 43.1481 66.069 44.0624C65.7402 44.3234 65.4128 44.5844 65.084 44.8454C64.7478 45.1123 64.385 45.3542 64.037 45.6063C62.7422 46.5457 61.3546 47.3523 59.9655 48.1427C59.6381 48.3285 59.2872 48.4789 58.9495 48.6456C58.6251 48.8063 58.2977 48.9567 57.963 49.0998C57.1578 49.4433 56.3512 49.7604 55.5342 50.073C54.1407 50.6038 52.6853 51.0123 51.2195 51.2881C50.3155 51.4591 49.4116 51.6081 48.5017 51.7482C47.7614 51.8617 47.0079 51.906 46.2603 51.9502C45.5407 51.993 44.824 52.0121 44.1058 52.0121C43.2299 52.0136 42.3554 51.9856 41.478 51.9369ZM41.8246 49.0452C42.4454 49.0776 43.0662 49.0953 43.6885 49.1115C44.2371 49.1263 44.7871 49.1056 45.3357 49.0968C46.0037 49.057 46.6688 49.0186 47.3353 48.9493C48.0564 48.8741 48.7657 48.7694 49.4809 48.6588C50.0604 48.5497 50.6385 48.4421 51.2136 48.3182C51.8211 48.187 52.4169 48.0247 53.0156 47.8596C53.7499 47.6119 54.4784 47.3611 55.2039 47.0869C55.8955 46.8229 56.5753 46.5324 57.2551 46.2419C57.8686 45.9381 58.4835 45.6403 59.0778 45.3026C59.7901 44.8985 60.4816 44.4723 61.1762 44.0373C62.2644 43.3413 63.2937 42.5568 64.3039 41.7531C64.8333 41.2886 65.3361 40.802 65.8154 40.2873C66.2017 39.8538 66.5645 39.3996 66.9317 38.9498C67.1868 38.6357 67.4139 38.2951 67.6483 37.9633C67.8592 37.6286 68.0701 37.2939 68.281 36.9591C68.4638 36.6671 68.6142 36.3515 68.775 36.0448C68.9342 35.6953 69.092 35.3444 69.2513 34.9949C69.3958 34.6749 69.5078 34.3372 69.6317 34.0084C69.7408 33.6545 69.8544 33.3035 69.9635 32.951C70.0756 32.5927 70.1508 32.2211 70.2407 31.8569C70.3086 31.5177 70.3764 31.1785 70.4457 30.8408C70.518 30.4766 70.549 30.1006 70.6006 29.7319C70.6256 29.3943 70.6507 29.058 70.6743 28.7203C70.7008 28.3443 70.6831 27.9594 70.6846 27.5789C70.6566 27.0333 70.6271 26.4892 70.5696 25.9451C70.5077 25.3655 70.4221 24.7964 70.3307 24.2212C70.2496 23.8541 70.1714 23.4854 70.0888 23.1167C70.0151 22.7775 69.9031 22.4414 69.8057 22.1052C69.6937 21.7778 69.5816 21.4504 69.468 21.1245C69.3545 20.7971 69.2041 20.4772 69.0714 20.1542C68.8752 19.7384 68.6791 19.324 68.4608 18.9199C68.1984 18.4348 67.9226 17.9629 67.638 17.491C67.318 17.0044 66.9951 16.5207 66.6648 16.04C66.361 15.5976 66.0366 15.1758 65.7018 14.7556C65.3671 14.3854 65.0265 14.0345 64.6711 13.6879C64.1225 13.2205 63.5636 12.7796 62.9782 12.3578C61.9415 11.678 60.8739 11.0646 59.7753 10.4924C58.7755 10.0043 57.7609 9.57815 56.7169 9.19474C55.2496 8.68304 53.747 8.29371 52.2414 7.91916C51.8698 7.82625 51.5749 7.57704 51.392 7.25852C51.1546 7.20691 50.9172 7.15529 50.6813 7.10516C50.0044 6.96064 49.326 6.81762 48.6477 6.68196C47.9458 6.54187 47.2409 6.42093 46.5316 6.31771C45.8606 6.22038 45.1897 6.15256 44.5158 6.08473C44.212 6.07293 43.9068 6.06112 43.603 6.0508C43.2889 6.039 42.966 6.00656 42.6504 6.01835C42.0192 6.039 41.3881 6.05819 40.7584 6.07884C40.0742 6.14667 39.39 6.21302 38.7058 6.28085C38.3666 6.33984 38.0274 6.39737 37.6897 6.45636C37.3756 6.50945 37.0527 6.54631 36.743 6.62152C35.8346 6.84419 34.9233 7.05506 34.0268 7.32049C33.0918 7.61542 32.1761 7.95456 31.2765 8.34681C30.4655 8.72579 29.6869 9.15936 28.9231 9.62829C28.0265 10.199 27.1697 10.8227 26.3454 11.4937C25.6538 12.0791 25.002 12.7029 24.3856 13.3679C23.7648 14.0728 23.197 14.819 22.6544 15.5858C22.0129 16.5222 21.429 17.4895 20.9011 18.4938C20.4174 19.4434 19.9661 20.4167 19.6019 21.4209C19.4161 21.9282 19.2317 22.4384 19.0474 22.9471C18.8675 23.5562 18.6876 24.1652 18.5092 24.7742C18.4296 25.0441 18.3794 25.3257 18.3146 25.5985C18.2511 25.8684 18.1892 26.1383 18.1258 26.4081C17.9606 27.3755 17.7955 28.334 17.7011 29.3102C17.6465 30.0475 17.6229 30.7833 17.6303 31.5221C17.6568 31.9852 17.6819 32.4482 17.7085 32.9098C17.7335 33.3728 17.7925 33.8343 17.8397 34.2974C17.9267 35.1394 18.0491 35.974 18.1848 36.8087C18.2954 37.3425 18.4148 37.8675 18.5475 38.3954C18.7142 38.9174 18.8985 39.4217 19.1197 39.9231C19.276 40.221 19.4353 40.513 19.6049 40.8035C19.8614 41.1913 20.1298 41.5659 20.4159 41.9345C20.6916 42.2575 20.9748 42.5686 21.2697 42.8724C21.7976 43.3398 22.3462 43.766 22.9228 44.173C23.4197 44.4901 23.924 44.785 24.4416 45.0681C25.5388 45.6137 26.661 46.0871 27.8112 46.5133C29.42 47.078 31.0524 47.5396 32.7173 47.9156C33.6404 48.1117 34.5679 48.2843 35.4999 48.4362C36.4894 48.5954 37.4818 48.7046 38.4786 48.8063C39.5949 48.8977 40.7083 48.9847 41.8246 49.0452Z" fill="black"/>
<path d="M37.7613 30.5209C36.9812 30.5032 36.3044 29.8249 36.3413 29.033C36.4268 27.1764 36.5374 25.3213 36.6952 23.4692C36.6952 23.4751 36.6937 23.4795 36.6937 23.4854C36.7807 22.4826 36.8721 21.4814 36.9916 20.4831C37.0727 19.7915 37.1331 19.0733 37.3293 18.4038C37.5505 17.6429 38.3659 17.1887 39.1298 17.4055C39.8892 17.6237 40.3478 18.4451 40.1266 19.2045C40.1178 19.237 40.1089 19.2694 40.1016 19.3004C39.9777 19.9168 39.9128 20.545 39.8391 21.1688C39.7462 21.9562 39.6739 22.7466 39.6046 23.5356C39.6061 23.5208 39.6076 23.506 39.6091 23.4913C39.5987 23.6063 39.5899 23.7213 39.5796 23.8363C39.435 25.5897 39.3303 27.343 39.2507 29.1023C39.2153 29.8824 38.5871 30.5223 37.7967 30.5223C37.7835 30.5208 37.7731 30.5209 37.7613 30.5209Z" fill="black"/>
<path d="M46.1343 29.1655C45.3719 29.1478 44.6567 28.468 44.7142 27.6776C44.9059 25.0513 45.2023 22.4338 45.4323 19.8119C45.4309 19.8252 45.4309 19.8384 45.4294 19.8502C45.4309 19.8296 45.4323 19.8105 45.4338 19.7898C45.4368 19.7485 45.4412 19.7072 45.4442 19.6645C45.4412 19.694 45.4383 19.7235 45.4353 19.7529C45.5061 18.8814 45.5607 18.007 45.6211 17.1325C45.6491 16.7447 45.7833 16.3893 46.0709 16.115C46.3481 15.8496 46.7256 15.7051 47.1075 15.7124C47.8729 15.7301 48.5837 16.4085 48.5276 17.2003C48.4303 18.5968 48.3315 19.9904 48.2017 21.3868C48.0661 22.8364 47.9053 24.283 47.7785 25.7341C47.721 26.4035 47.6664 27.073 47.6178 27.7439C47.5898 28.1332 47.457 28.4872 47.168 28.7614C46.8981 29.0195 46.5324 29.164 46.1608 29.164C46.1549 29.1655 46.1446 29.1655 46.1343 29.1655Z" fill="black"/>
<path d="M40.1813 40.7754C39.3717 40.7636 38.5651 40.6132 37.785 40.4023C36.9651 40.1811 36.1939 39.8169 35.4448 39.4232C34.7237 39.0442 34.0616 38.5634 33.4422 38.037C32.8627 37.543 32.3304 36.9871 31.8806 36.3751C31.4736 35.8236 31.1477 35.1836 30.9177 34.5406C30.8159 34.2619 30.7422 33.9744 30.7422 33.6765C30.7422 32.8846 31.4515 32.2387 32.2301 32.2564C32.9379 32.2741 33.4968 32.7962 33.6236 33.4612V33.4627C33.6206 33.4465 33.6177 33.4317 33.6163 33.4155C33.6222 33.4435 33.6295 33.4715 33.6369 33.4996C33.6737 33.6043 33.7136 33.7075 33.7549 33.8107C33.8714 34.0525 33.9952 34.284 34.1338 34.5141C34.2356 34.6645 34.3403 34.8076 34.4523 34.9491C34.6765 35.1983 34.9095 35.4358 35.1513 35.6673C35.43 35.9135 35.7176 36.1451 36.0169 36.3677C36.3605 36.5978 36.7145 36.8072 37.0802 37.0018C37.4296 37.1743 37.7835 37.3321 38.1492 37.4692C38.4265 37.5592 38.7037 37.6403 38.9869 37.7097C39.2774 37.7657 39.5664 37.8114 39.8598 37.8453C40.2167 37.8704 40.5691 37.8748 40.926 37.8645C41.3108 37.8409 41.6913 37.804 42.0732 37.748C42.4139 37.6831 42.7486 37.6035 43.0834 37.5091C43.5258 37.369 43.9549 37.2068 44.3781 37.021C44.673 36.8765 44.9576 36.7246 45.2408 36.558C45.8852 36.1406 46.4898 35.6776 47.0885 35.1939C48.103 34.3194 49.1117 33.4347 50.0274 32.4555C50.0658 32.4127 50.1026 32.37 50.141 32.3272C50.4035 32.0323 50.7279 31.8288 51.1275 31.786C51.505 31.7477 51.8884 31.8583 52.1848 32.0957C52.7791 32.5691 52.9442 33.5467 52.4163 34.1395C51.5463 35.1187 50.5834 35.9991 49.6013 36.8632C49.153 37.2584 48.6958 37.6669 48.2136 38.0208C47.901 38.2508 47.5913 38.4838 47.2698 38.7035C46.5222 39.2137 45.7244 39.6237 44.8868 39.9614C43.4668 40.5321 41.942 40.7769 40.4187 40.7769C40.3376 40.7769 40.2595 40.7769 40.1813 40.7754Z" fill="black"/>
<path d="M72.488 64.0232C69.6832 63.541 66.8696 63.0956 64.0575 62.6606C62.661 62.4438 61.2616 62.2462 59.8607 62.0767C58.4082 61.8997 56.9542 61.767 55.4973 61.6343C55.5592 61.6402 55.6212 61.6461 55.6831 61.652C49.3835 61.1609 43.0794 60.7967 36.768 60.518C34.6932 60.4265 32.6184 60.3292 30.5436 60.2378C29.3756 60.1847 28.2092 60.1331 27.0413 60.0844C26.5547 60.0638 26.068 60.0387 25.5829 60.0151C25.1715 59.9945 24.7615 59.9399 24.3501 59.9266C23.5597 59.8986 22.9123 59.238 22.93 58.4387C22.9477 57.6542 23.6261 56.9907 24.4179 57.0187C24.6893 57.029 24.9606 57.0614 25.2319 57.0806C25.667 57.1101 26.102 57.1308 26.5385 57.1529C27.2271 57.1868 27.9172 57.2104 28.6059 57.2413C30.3076 57.3166 32.0093 57.3962 33.7096 57.4743C36.8506 57.6188 39.9901 57.7516 43.1295 57.9079C46.3088 58.0671 49.4852 58.2809 52.6586 58.508C55.8984 58.741 59.1278 59.0301 62.3469 59.4695C64.0929 59.7069 65.833 59.993 67.573 60.2717C69.3588 60.5578 71.1446 60.8439 72.9274 61.1491C73.7075 61.2833 74.2679 62.0118 74.1469 62.8051C74.0408 63.5026 73.4111 64.0438 72.7151 64.0438C72.6399 64.0438 72.5632 64.0365 72.488 64.0232Z" fill="black"/>
<path d="M58.8479 116.881C57.2361 116.838 55.6243 116.778 54.0125 116.734C50.8996 116.65 47.7852 116.648 44.6737 116.57C41.5401 116.492 38.3977 116.318 35.2803 115.977C32.1394 115.632 29.0116 115.208 25.8928 114.697C24.2736 114.432 22.6633 114.131 21.056 113.799C20.3452 113.652 19.6271 113.497 18.9296 113.296C18.4105 113.146 17.9003 112.997 17.3915 112.813C16.9683 112.658 16.5834 112.438 16.2163 112.182C16.0747 112.083 15.9184 111.922 15.8181 111.782C15.6721 111.578 15.5247 111.341 15.4745 111.093C15.3993 110.725 15.4067 110.366 15.4155 109.993C15.4229 109.645 15.4332 109.297 15.4465 108.948C15.4701 108.266 15.4996 107.587 15.535 106.905C15.6117 105.376 15.7458 103.85 15.8845 102.324C16.436 96.2747 17.188 90.2509 18.0182 84.2344C18.903 77.8271 19.9309 71.4405 21.0413 65.0686C21.2226 64.0231 21.4114 62.9775 21.6105 61.9365C21.7225 61.3451 21.8346 60.7553 21.9481 60.1654C22.0411 59.6818 22.1177 59.1878 22.2431 58.71C22.4451 57.9432 23.2945 57.4993 24.0436 57.7131C24.8163 57.9343 25.2395 58.7439 25.0419 59.5077C24.4137 62.5307 23.8976 65.5788 23.38 68.6239C22.8388 71.8062 22.3271 74.9928 21.8316 78.1825C21.3612 81.1996 20.9484 84.2255 20.5458 87.2529C20.1314 90.3762 19.7185 93.4995 19.3764 96.6331C19.1169 99.0072 18.8809 101.383 18.6701 103.76C18.676 103.698 18.6818 103.638 18.6877 103.574C18.5801 104.814 18.4901 106.054 18.4252 107.298C18.3957 107.87 18.3736 108.443 18.3545 109.016C18.3427 109.359 18.3279 109.703 18.3191 110.046C18.4326 110.095 18.5462 110.141 18.6612 110.183C19.5356 110.472 20.4307 110.676 21.3244 110.89C26.6625 111.99 32.0685 112.763 37.4937 113.268C39.0834 113.394 40.6716 113.498 42.2656 113.58C43.8406 113.661 45.4184 113.681 46.9948 113.711C50.034 113.765 53.0732 113.786 56.1139 113.888C57.8304 113.947 59.5498 114.031 61.2677 113.981C61.9077 113.944 62.5433 113.886 63.1759 113.785C63.9575 113.658 64.6948 114.324 64.7744 115.079C64.8127 115.457 64.7021 115.84 64.4647 116.137C64.2126 116.452 63.8705 116.614 63.4797 116.678C62.3929 116.855 61.2972 116.905 60.1986 116.905C59.7489 116.902 59.2976 116.893 58.8479 116.881Z" fill="black"/>
<path d="M63.8257 117.158C63.0353 117.037 62.4956 116.284 62.6062 115.501C63.0073 112.683 63.3316 109.854 63.6944 107.032C64.0926 103.941 64.5585 100.859 65.0496 97.7831C65.5642 94.5669 66.1364 91.364 66.7602 88.1685C67.3677 85.0614 68.0298 81.9662 68.6595 78.8635C69.1373 76.5056 69.6033 74.1447 70.0471 71.7809C70.286 70.5053 70.5293 69.2283 70.7579 67.9513C70.9938 66.6448 71.2327 65.3382 71.4053 64.0214C71.4244 63.7176 71.4318 63.4094 71.5483 63.1248C71.8491 62.3904 72.7442 62.0572 73.4609 62.3683C74.0331 62.616 74.353 63.1882 74.3295 63.7736C74.3324 63.7618 74.3354 63.7486 74.3368 63.7368C74.2248 65.263 73.9254 66.7701 73.6541 68.2757C73.396 69.7061 73.1276 71.135 72.8563 72.5639C72.2679 75.6518 71.6575 78.7367 71.0219 81.8172C70.3804 84.9213 69.7301 88.0254 69.1461 91.1413C68.5607 94.2646 68.0476 97.3982 67.5639 100.539C67.1554 103.191 66.7705 105.845 66.4372 108.51C66.1276 110.987 65.8311 113.467 65.4802 115.939C65.3784 116.652 64.734 117.173 64.0336 117.173C63.9658 117.173 63.8965 117.169 63.8257 117.158Z" fill="black"/>
<path d="M46.6104 92.535C46.4334 90.9099 46.1547 89.2952 45.8863 87.6834C45.643 86.253 45.3894 84.8241 45.0959 83.4011C44.7966 81.9427 44.4205 80.5079 44.0239 79.0745C43.8469 78.5275 43.6891 77.9656 43.4812 77.4289C43.2113 76.7343 42.9489 76.0382 42.654 75.3525C42.2175 76.6414 41.8031 77.9376 41.399 79.2367C40.8829 80.8913 40.4759 82.5886 40.1058 84.28C40.1072 84.2711 40.1087 84.2638 40.1102 84.2549C39.9863 84.8212 39.8624 85.386 39.7386 85.9507C39.7504 85.8903 39.7651 85.8283 39.7784 85.7693C39.7725 85.7944 39.7666 85.8195 39.7607 85.8446C39.7622 85.8372 39.7637 85.8298 39.7651 85.8224C39.7637 85.8328 39.7607 85.8416 39.7592 85.8519C39.7474 85.9035 39.7371 85.9537 39.7253 86.0053C39.7327 85.9758 39.7386 85.9448 39.746 85.9153C39.5882 86.6497 39.4304 87.3841 39.2785 88.1184C39.1237 88.8631 38.9511 89.6108 38.8538 90.3643C38.8538 90.3894 38.8538 90.4145 38.8538 90.4395C38.8361 91.2181 38.1578 91.895 37.3659 91.8596C36.9781 91.8419 36.6168 91.6929 36.3469 91.4083C36.0166 91.0633 35.9016 90.5973 35.9532 90.1284C36.0166 89.5592 36.1375 88.9988 36.2452 88.4355C36.4443 87.3929 36.6787 86.3533 36.9058 85.3152C37.0356 84.715 37.1668 84.1163 37.2996 83.5176C37.2907 83.5604 37.2818 83.6017 37.2715 83.6444C37.6122 82.0857 38.0015 80.5388 38.4336 79.0023C38.8391 77.5601 39.3272 76.14 39.802 74.7199C39.9155 74.3808 40.032 74.0401 40.1471 73.7024C40.3992 72.9637 40.6381 72.1408 41.2648 71.6291C41.4167 71.5067 41.5627 71.3991 41.7485 71.3298C41.9255 71.2619 42.1054 71.2427 42.2926 71.2265C42.6421 71.1941 43.0786 71.2782 43.3765 71.4728C43.5446 71.5819 43.7083 71.6837 43.8513 71.8267C44.0003 71.9771 44.1315 72.1349 44.2672 72.2956C44.63 72.7336 44.888 73.2778 45.1313 73.7865C45.382 74.31 45.5973 74.8482 45.8082 75.3894C45.9468 75.7463 46.1031 76.1002 46.2211 76.4644C46.4776 77.246 46.746 78.0217 46.9643 78.815C47.2621 79.893 47.563 80.9724 47.7886 82.0695C48.0216 83.2079 48.2487 84.3463 48.4507 85.4921C48.8459 87.7277 49.2544 89.9735 49.4992 92.2312C49.5847 93.0187 48.9919 93.7486 48.2044 93.8297C48.1543 93.8341 48.1042 93.8371 48.0555 93.8371C47.33 93.8371 46.69 93.2738 46.6104 92.535Z" fill="black"/>
<path d="M35.4701 85.5907C34.687 85.4698 34.1311 84.7192 34.2505 83.9332C34.3641 83.1855 35.0616 82.6414 35.8078 82.7019C35.9169 82.7033 36.0245 82.7019 36.1336 82.6975C36.9609 82.6193 37.7779 82.4866 38.5978 82.3524C41.3848 81.8702 44.1719 81.3865 46.9619 80.9117C47.3423 80.8468 47.7065 80.8763 48.0457 81.0783C48.3804 81.2788 48.6238 81.6106 48.7137 81.9896C48.8877 82.724 48.4173 83.6087 47.6343 83.7415C45.6317 84.0821 43.6322 84.4272 41.6311 84.7737C40.6431 84.9448 39.6536 85.1203 38.6641 85.284C38.1141 85.3754 37.5655 85.458 37.0125 85.5361C36.7544 85.573 36.4876 85.5922 36.2265 85.601C36.0909 85.6054 35.9537 85.6128 35.8166 85.6128C35.7016 85.6143 35.5851 85.6084 35.4701 85.5907Z" fill="black"/>
<path d="M40.6408 105.27C39.523 105.103 38.4289 104.782 37.3671 104.403C35.4132 103.707 33.57 102.726 31.9818 101.381C30.4039 100.047 29.1372 98.3495 28.2377 96.4944C27.2851 94.5317 26.8176 92.3787 26.651 90.214C26.5699 89.1463 26.5758 88.0698 26.6318 87.0022C26.6908 85.8682 26.8693 84.7534 27.1126 83.646C27.5771 81.5299 28.422 79.4831 29.4115 77.5631C30.401 75.6432 31.6441 73.8692 33.0981 72.2721C33.7794 71.5215 34.5063 70.8167 35.2761 70.1575C36.0075 69.5308 36.7905 68.9808 37.6031 68.4705C37.3008 68.4248 36.9985 68.3821 36.6962 68.3437C35.9102 68.2434 35.3617 67.4545 35.4767 66.6877C35.5976 65.8885 36.3482 65.3694 37.1341 65.4682C38.6324 65.6584 40.1188 65.943 41.5993 66.2365C41.7217 66.2616 41.8456 66.2851 41.968 66.3102C42.7141 66.0241 43.4736 65.7661 44.2374 65.5301C46.2945 64.8946 48.4151 64.4492 50.571 64.3637C52.6399 64.2811 54.8769 64.4212 56.7261 65.4387C56.7718 65.4652 56.8175 65.4932 56.8618 65.5213C57.5386 65.9327 57.7716 66.8337 57.3631 67.5164C56.9576 68.1918 56.0433 68.4292 55.368 68.0178C55.2868 67.9677 55.2043 67.9205 55.1202 67.8748C54.9875 67.8143 54.8533 67.7597 54.7177 67.7067C54.4316 67.6167 54.1425 67.54 53.8491 67.4722C53.4391 67.3955 53.0292 67.3395 52.6148 67.2967C51.9557 67.251 51.2995 67.2451 50.6403 67.2672C49.8573 67.3115 49.0846 67.3999 48.3104 67.5238C48.1423 67.5533 47.9727 67.5858 47.8061 67.6197C49.2999 68.0694 50.7479 68.6888 52.109 69.4394C53.9523 70.4554 55.5641 71.8416 57.0136 73.3545C58.4912 74.897 59.7653 76.637 60.7666 78.5231C61.2518 79.4403 61.6528 80.4018 61.9772 81.3868C62.3031 82.3734 62.5184 83.382 62.691 84.4054C62.862 85.4244 62.9328 86.4551 62.9254 87.4874C62.9181 88.6081 62.7352 89.72 62.4772 90.8083C62.2265 91.8611 61.8416 92.8801 61.4346 93.8799C61.0247 94.8885 60.5307 95.8692 59.9674 96.7982C58.8865 98.584 57.4324 100.124 55.8 101.411C54.1116 102.742 52.1444 103.719 50.1242 104.435C48.1083 105.152 45.9775 105.462 43.8437 105.494C43.7523 105.496 43.6609 105.496 43.5695 105.496C42.5888 105.496 41.6067 105.413 40.6408 105.27ZM44.3982 102.574C45.1237 102.537 45.8418 102.465 46.56 102.355C47.2531 102.231 47.9344 102.071 48.6083 101.874C49.3382 101.638 50.0504 101.364 50.7538 101.055C51.4646 100.725 52.1518 100.358 52.8198 99.948C53.3816 99.5838 53.9214 99.1945 54.4419 98.7728C54.9418 98.3466 55.4152 97.8953 55.8664 97.4161C56.294 96.9353 56.6937 96.4355 57.0697 95.912C57.4192 95.3958 57.7362 94.8635 58.0282 94.312C58.478 93.4169 58.8658 92.4996 59.2094 91.5603C59.4306 90.9203 59.6179 90.2759 59.7683 89.6167C59.8612 89.136 59.932 88.6538 59.9806 88.1657C60.0145 87.6628 60.0219 87.163 60.0071 86.6587C59.9673 85.9567 59.8862 85.2636 59.7727 84.5691C59.6503 83.8996 59.4984 83.239 59.3082 82.5842C59.1106 81.962 58.8806 81.3559 58.6195 80.7572C58.2863 80.039 57.9117 79.3445 57.4988 78.6676C56.9989 77.8875 56.4504 77.1443 55.862 76.4261C55.194 75.6416 54.4832 74.8999 53.7297 74.198C53.156 73.6848 52.5603 73.1982 51.9336 72.7514C51.3629 72.3665 50.7745 72.0155 50.167 71.6911C49.4621 71.3387 48.741 71.0261 48.0037 70.7518C46.8151 70.3374 45.6029 70.0454 44.379 69.7652C43.6697 69.6178 42.9604 69.4718 42.2496 69.3273C42.0594 69.4069 41.8706 69.488 41.6819 69.5706C40.7632 69.9997 39.874 70.479 39.0099 71.0113C38.395 71.4095 37.8051 71.8327 37.2403 72.2957C36.5517 72.8885 35.9028 73.5182 35.2835 74.1803C34.6273 74.9103 34.0168 75.6756 33.4476 76.4748C32.9005 77.2756 32.405 78.1014 31.9567 78.9611C31.4347 80.0081 30.9658 81.0831 30.5602 82.1817C30.2889 82.9662 30.0648 83.7639 29.8819 84.575C29.7448 85.2533 29.6401 85.9331 29.5722 86.6203C29.5015 87.5597 29.4882 88.499 29.5191 89.4398C29.5604 90.2081 29.6416 90.9705 29.7625 91.7299C29.8686 92.3035 29.9984 92.8683 30.1606 93.4301C30.3317 93.9581 30.5248 94.4771 30.7446 94.9873C30.979 95.4858 31.2386 95.968 31.5261 96.4399C31.8151 96.8852 32.1234 97.3143 32.4566 97.7272C32.8017 98.1313 33.1644 98.5132 33.5478 98.8789C33.9327 99.224 34.3338 99.5455 34.7541 99.8478C35.2672 100.196 35.7952 100.513 36.3408 100.805C36.9749 101.12 37.6252 101.395 38.2888 101.641C38.9759 101.881 39.6691 102.091 40.3784 102.256C40.9505 102.372 41.5271 102.455 42.1095 102.514C42.8675 102.577 43.6314 102.596 44.3982 102.574Z" fill="black"/>
<path d="M18.4314 90.4115C17.2502 89.5636 16.1369 88.6154 15.0515 87.651C13.8659 86.5951 12.7747 85.4449 11.7676 84.2166C11.2854 83.6267 10.812 83.0266 10.4138 82.3733C10.2015 82.0253 9.99062 81.6787 9.77679 81.3307C9.23265 80.4415 8.79913 79.4609 8.43784 78.4861C7.702 76.5087 7.441 74.4073 7.54865 72.306C7.60173 71.2723 7.75657 70.243 7.96154 69.2284C8.15324 68.2832 8.38181 67.3306 8.69886 66.4178C8.71508 66.3735 8.7298 66.3293 8.74602 66.285C8.74159 66.2968 8.73865 66.3072 8.73423 66.319C8.72685 66.3426 8.71801 66.3647 8.70916 66.3883C8.71506 66.3735 8.71946 66.3573 8.72536 66.3426C8.72241 66.3485 8.72098 66.3558 8.71803 66.3617C8.72098 66.3544 8.7239 66.3455 8.72685 66.3381C8.7357 66.3145 8.74307 66.2909 8.75191 66.2659C8.74602 66.2806 8.74162 66.2954 8.7372 66.3101C8.74162 66.2983 8.746 66.2865 8.75043 66.2747C8.76075 66.2467 8.76963 66.2187 8.77995 66.1921C8.777 66.1995 8.77404 66.2069 8.77257 66.2143C9.00704 65.5595 9.2415 64.9033 9.47744 64.2486C9.46564 64.281 9.45386 64.3135 9.44207 64.3474C9.54529 64.0598 9.67209 63.7826 9.79448 63.5024C10.0113 63.0055 10.228 62.51 10.4448 62.0116C10.548 61.7756 10.6734 61.5485 10.7928 61.317C11.0553 60.8097 11.3193 60.3025 11.5817 59.7937C11.9371 59.1065 12.3574 58.4533 12.7585 57.7897C13.1626 57.1187 13.6079 56.4802 14.0517 55.8314C14.2449 55.5468 14.4263 55.2504 14.6372 54.9776C14.9218 54.6074 15.2094 54.2388 15.494 53.8686C15.6945 53.6091 15.8847 53.3274 16.1045 53.0812C16.4318 52.714 16.7607 52.3468 17.088 51.9796C18.1601 50.7793 19.3206 49.635 20.6655 48.7414C21.1226 48.4376 21.5989 48.1662 22.0693 47.8875C22.379 47.7032 22.7005 47.5366 23.0249 47.3773C23.4511 47.1679 23.9111 46.9644 24.3874 46.9099C24.5246 46.8936 24.6617 46.8833 24.7989 46.8833C25.5922 46.8833 26.2366 47.5926 26.2189 48.3712C26.2012 49.1528 25.5657 49.7515 24.8077 49.7898H24.8033C24.7694 49.7987 24.734 49.8075 24.7001 49.8164C24.6249 49.8444 24.5497 49.8754 24.4745 49.9063C23.8153 50.2189 23.1812 50.592 22.5604 50.9769C22.1224 51.2571 21.7095 51.5609 21.3084 51.8882C20.7422 52.3748 20.2054 52.8924 19.6863 53.4292C19.4843 53.6563 19.2823 53.8834 19.0802 54.109C18.8443 54.3744 18.5818 54.631 18.3636 54.9127C17.8828 55.5394 17.3962 56.1617 16.914 56.7884C16.538 57.337 16.1634 57.887 15.7889 58.4356C15.4703 58.9016 15.1916 59.3897 14.8997 59.8719C14.6165 60.3408 14.3304 60.8009 14.0783 61.286C13.773 61.8744 13.4678 62.4628 13.1625 63.0497C13.167 63.0409 13.1729 63.0305 13.1773 63.0217C13.0107 63.3962 12.8485 63.7738 12.6833 64.1513C12.527 64.5081 12.3456 64.8635 12.2084 65.2292C11.9872 65.8515 11.7631 66.4738 11.5405 67.0961C11.5611 67.0371 11.5832 66.9796 11.6024 66.9206C11.57 67.0091 11.539 67.0991 11.5065 67.189C11.5021 67.2008 11.4977 67.2126 11.4933 67.2259C11.4947 67.2214 11.4962 67.2185 11.4977 67.2141C11.4918 67.2332 11.4844 67.2509 11.4785 67.2701C11.247 68.0163 11.0405 68.7683 10.868 69.5307C10.6984 70.3373 10.5716 71.1469 10.4876 71.9668C10.4389 72.5994 10.4212 73.2306 10.4404 73.8661C10.4699 74.3852 10.5244 74.8984 10.607 75.4115C10.6955 75.8731 10.8031 76.3273 10.9314 76.78C11.1202 77.3699 11.3384 77.9435 11.5891 78.5098C11.9858 79.3503 12.4562 80.1392 12.9384 80.9325C13.1655 81.254 13.3941 81.5755 13.6212 81.897C13.8246 82.1831 14.0665 82.4485 14.2936 82.7183C14.2788 82.6992 14.2626 82.6815 14.2479 82.6623C15.0162 83.5264 15.7874 84.3729 16.6294 85.1662C17.7958 86.1999 18.977 87.2263 20.2437 88.1376C20.8881 88.6007 20.9516 89.5857 20.4753 90.1814C20.2349 90.4852 19.8751 90.6813 19.4902 90.7226C19.4401 90.7285 19.3914 90.73 19.3427 90.73C19.0095 90.7285 18.7057 90.6091 18.4314 90.4115Z" fill="black"/>
<path d="M18.9553 90.6459C18.3566 90.5707 17.9157 90.1018 17.7579 89.5444C17.5632 88.8601 18.0145 88.2643 18.3669 87.7291C18.6324 87.325 18.8993 86.9195 19.1677 86.5184C19.7148 85.6985 20.2663 84.8815 20.831 84.0734C20.7942 84.1265 20.7573 84.1796 20.719 84.2327C20.9608 83.8832 21.2041 83.5367 21.4504 83.1916C21.9105 82.5457 22.8999 82.4853 23.4942 82.9601C23.798 83.2005 23.9941 83.5603 24.0354 83.9451C24.0767 84.3374 23.9514 84.6884 23.7258 85.004C23.5739 85.2178 23.422 85.4316 23.2716 85.6469C23.2745 85.6425 23.2774 85.638 23.2819 85.6336C23.2258 85.7133 23.1713 85.7929 23.1153 85.8725C23.1389 85.8386 23.1624 85.8032 23.186 85.7693C23.158 85.8091 23.1315 85.8489 23.1049 85.8873C23.0946 85.9005 23.0858 85.9152 23.0754 85.9285C23.0828 85.9182 23.0916 85.9064 23.099 85.8961C22.6817 86.5036 22.2673 87.1142 21.8559 87.7261C21.4062 88.3986 20.9387 89.0666 20.5199 89.7596C20.2957 90.3082 19.7457 90.6606 19.1455 90.6606C19.0836 90.6577 19.0187 90.6547 18.9553 90.6459Z" fill="black"/>
<path d="M19.8576 92.1663C19.0524 92.1486 18.4375 91.4702 18.4375 90.6783C18.4375 89.9337 19.0613 89.4411 19.5833 89.0076C20.1038 88.5785 20.6391 88.173 21.1847 87.7763C21.8262 87.3103 22.7508 87.4607 23.2153 88.1022C23.6813 88.7451 23.5309 89.6682 22.8894 90.1342C22.4249 90.4719 21.956 90.8096 21.5151 91.1768C21.521 91.1724 21.5254 91.1679 21.5313 91.1635C21.5003 91.1901 21.4693 91.2151 21.4384 91.2416C21.3012 91.3626 21.1656 91.482 21.0344 91.6089C20.7615 91.948 20.3383 92.1692 19.89 92.1692C19.8782 92.1663 19.8679 92.1663 19.8576 92.1663Z" fill="black"/>
<path d="M16.8379 97.5193C16.2259 97.0312 16.102 96.0874 16.6064 95.4755C16.7966 95.244 17.0443 95.0965 17.295 94.9372C17.3157 94.924 17.3363 94.9107 17.3569 94.8974C17.3628 94.8945 17.3673 94.8901 17.3732 94.8871C17.4056 94.8665 17.438 94.8458 17.4705 94.8252C17.5103 94.7972 17.5516 94.7721 17.5929 94.7485C17.6032 94.7411 17.6135 94.7352 17.6253 94.7293C17.6843 94.6925 17.7433 94.6556 17.8008 94.6187C17.8318 94.5981 17.8628 94.5789 17.8937 94.5612C18.0781 94.4462 18.2609 94.3326 18.4452 94.2191C19.4524 93.5953 20.4714 92.9878 21.4948 92.3891C22.179 91.9895 23.0992 92.3021 23.4649 92.9819C23.8497 93.6971 23.5563 94.5539 22.8721 94.952C21.8915 95.5242 20.9197 96.111 19.9508 96.7024C19.7444 96.8292 19.538 96.9575 19.3315 97.0843C19.3271 97.0872 19.3227 97.0902 19.3182 97.0917C19.302 97.102 19.2858 97.1123 19.2695 97.1226C19.2518 97.133 19.2357 97.1448 19.218 97.1551C19.1826 97.1787 19.1442 97.2008 19.1073 97.2229C19.1029 97.2259 19.1 97.2273 19.0956 97.2303C19.072 97.2465 19.0469 97.2627 19.0233 97.2775C19.0071 97.2878 18.9908 97.2996 18.9732 97.3099C18.9599 97.3188 18.9466 97.3276 18.9319 97.335C18.8169 97.4058 18.7003 97.4781 18.5956 97.5592C18.6045 97.5518 18.6133 97.5429 18.6207 97.5341C18.3597 97.7287 18.0456 97.8305 17.7301 97.8305C17.4174 97.8305 17.1018 97.7287 16.8379 97.5193Z" fill="black"/>
<path d="M69.2368 88.2453C68.5423 87.9297 68.0203 87.2941 67.5366 86.722C66.5383 85.5393 65.6476 84.2741 64.7599 83.0074C64.1214 82.0946 63.4843 81.1803 62.8605 80.2557C62.4167 79.5995 62.5302 78.7014 63.1864 78.2251C63.8132 77.7709 64.7732 77.8948 65.2185 78.551C66.5958 80.5875 67.9908 82.6254 69.5111 84.5572C69.7087 84.7917 69.9063 85.0232 70.1143 85.2459C70.4755 84.8138 70.8147 84.3655 71.1391 83.9054C72.1625 82.4013 73.0739 80.8411 73.9232 79.2323C74.1739 78.728 74.4172 78.2207 74.6532 77.709C74.8921 77.19 75.0823 76.6502 75.274 76.1135C75.5011 75.4307 75.7474 74.745 75.9332 74.049C76.0408 73.6464 76.1706 73.2468 76.2605 72.8398C76.3387 72.4844 76.4183 72.1275 76.4965 71.7722C76.5687 71.3519 76.6395 70.9331 76.7118 70.5128C76.7766 70.1324 76.8032 69.743 76.843 69.3581C76.8622 68.9585 76.8828 68.5589 76.9035 68.1608C76.9241 67.7523 76.8991 67.335 76.8932 66.925C76.8651 66.5003 76.8371 66.0757 76.8106 65.651C76.7796 65.182 76.6985 64.7116 76.638 64.2441C76.5525 63.7767 76.467 63.3092 76.3814 62.8432C76.3372 62.6073 76.2606 62.3728 76.2016 62.1398C76.1367 61.8847 76.0703 61.6296 76.0054 61.3745C75.8447 60.9011 75.6839 60.4263 75.5232 59.953C75.4318 59.6875 75.2991 59.431 75.1885 59.1744C75.0941 58.9532 74.9983 58.7305 74.9039 58.5093C74.6296 57.9828 74.3582 57.4579 74.0854 56.9329C73.9424 56.6586 73.7581 56.4006 73.5973 56.1381C73.4366 55.8785 73.2774 55.619 73.1181 55.3595C72.7067 54.7844 72.2938 54.2093 71.8838 53.6342C71.6671 53.3289 71.406 53.0473 71.1701 52.7582C70.9666 52.509 70.7646 52.2583 70.5611 52.0091C69.7323 51.0934 68.9154 50.1762 68.0129 49.3327C67.5396 48.9124 67.0456 48.5202 66.5309 48.1515C65.9809 47.7755 65.4117 47.4334 64.8218 47.1222C64.3883 46.9069 63.9488 46.699 63.5006 46.5161C62.7382 46.4527 62.166 45.7965 62.166 45.0326C62.166 44.4442 62.573 43.8913 63.1171 43.6863C63.7822 43.4341 64.4413 43.7438 65.0474 44.0166C66.7123 44.7657 68.2592 45.7051 69.6453 46.898C70.6112 47.7283 71.4532 48.6691 72.3085 49.6084C72.8556 50.2101 73.3585 50.8442 73.8716 51.4753C74.373 52.0902 74.8213 52.7405 75.2828 53.3849C75.7592 54.0485 76.1632 54.7652 76.5923 55.4612C76.7472 55.7149 76.874 55.9877 77.0111 56.2516C77.2043 56.6247 77.4181 56.9919 77.5833 57.3782C77.7617 57.7941 77.9401 58.2114 78.1186 58.6287C78.2572 58.9531 78.3678 59.2835 78.4813 59.6182C78.6023 59.9721 78.7408 60.3246 78.8337 60.6873C78.9561 61.1622 79.0771 61.637 79.198 62.1118C79.285 62.4465 79.3293 62.7975 79.3912 63.1367C79.4575 63.4994 79.5224 63.8578 79.5667 64.2235C79.6138 64.6025 79.6817 64.9844 79.7067 65.3649C79.7348 65.8132 79.7642 66.2629 79.7937 66.7141C79.8468 67.5149 79.8085 68.3244 79.7672 69.1252C79.7304 69.8595 79.6493 70.5969 79.5254 71.3209C79.3897 72.1098 79.2555 72.9076 79.0476 73.6803C78.8397 74.4545 78.617 75.2184 78.3781 75.9837C78.1466 76.7298 77.8944 77.4834 77.5951 78.2059C76.9831 79.685 76.2458 81.1006 75.4584 82.4912C74.7181 83.7963 73.9144 85.0925 73.0001 86.2869C72.7892 86.5612 72.5769 86.834 72.3542 87.0994C72.2554 87.2174 72.1537 87.3324 72.0505 87.4475C71.8706 87.6495 71.6759 87.8869 71.4503 88.0388C71.1229 88.2556 70.7897 88.4251 70.3915 88.4664C70.3325 88.4723 70.2735 88.4753 70.216 88.4753C69.8783 88.4797 69.5421 88.3839 69.2368 88.2453Z" fill="black"/>
<path d="M67.8101 88.4755C67.7113 88.4312 67.6096 88.3943 67.5078 88.3575C67.1141 88.2144 66.7263 88.0611 66.3429 87.8885C65.9447 87.7101 65.5569 87.5096 65.1676 87.3135C64.2975 86.8755 63.429 86.4316 62.5723 85.9671C61.8762 85.5881 61.6772 84.6296 62.0709 83.9704C62.4912 83.27 63.3715 83.0916 64.0675 83.4705C64.6043 83.761 65.1455 84.0442 65.6882 84.3244C65.6321 84.2949 65.5761 84.2668 65.52 84.2373C66.4373 84.7048 67.35 85.1841 68.3085 85.5601C68.5297 85.6368 68.7524 85.7105 68.9663 85.8064C69.6918 86.1279 70.0398 86.9876 69.7227 87.719C69.4883 88.2602 68.9397 88.5949 68.3734 88.5949C68.1847 88.5949 67.993 88.5566 67.8101 88.4755Z" fill="black"/>
<path d="M63.7006 90.6432C63.2435 90.0135 63.3732 89.0608 64.0265 88.6111C64.6842 88.1598 65.3552 87.7204 66.0497 87.3252C66.3609 87.1483 66.6749 86.9802 66.9979 86.8239C67.5597 86.554 68.1496 86.293 68.7851 86.293C69.5785 86.293 70.2229 87.0023 70.2052 87.7809C70.1875 88.5344 69.5947 89.1199 68.8707 89.1936L68.8663 89.195C68.8766 89.195 68.8869 89.1936 68.8972 89.1936C68.8854 89.1936 68.8751 89.195 68.8633 89.1965C68.825 89.2068 68.7852 89.2171 68.7453 89.2275C68.676 89.2525 68.6082 89.2791 68.5404 89.3071C67.8959 89.6212 67.2751 89.9692 66.6646 90.3467C66.352 90.5502 66.0409 90.7552 65.7327 90.9676C65.4717 91.146 65.1723 91.2345 64.8744 91.2345C64.4247 91.2374 63.9852 91.0354 63.7006 90.6432Z" fill="black"/>
<path d="M28.0635 59.0284C27.254 58.906 26.76 58.1598 26.8455 57.3723C27.0741 55.2371 27.5961 53.1357 28.0562 51.0403C28.1432 50.6362 28.2258 50.2307 28.3113 49.8266C28.3791 49.5052 28.4484 49.1439 28.677 48.8903C28.9365 48.6027 29.2654 48.3742 29.6665 48.3476C30.4554 48.2945 31.1794 48.8313 31.265 49.6423C31.2856 49.8414 31.262 50.0405 31.2015 50.2278C31.1853 50.2867 31.1706 50.3457 31.1558 50.4062C30.9626 51.3219 30.7651 52.2362 30.5645 53.152C30.2298 54.6959 29.8891 56.2413 29.7195 57.8133C29.6414 58.5329 28.9601 59.0476 28.2656 59.0476C28.1992 59.0431 28.1314 59.0387 28.0635 59.0284Z" fill="black"/>
<path d="M62.1212 60.9173C61.1937 59.0327 60.2912 57.1364 59.3902 55.24C58.4435 53.2448 57.5233 51.2349 56.4395 49.3075C56.0502 48.6159 56.3436 47.7076 57.0322 47.3374C57.7386 46.957 58.6145 47.2401 59.0023 47.9303C60.0862 49.8576 61.0049 51.8675 61.9531 53.8627C62.8556 55.759 63.7536 57.6569 64.6841 59.54C65.0336 60.2508 64.808 61.1252 64.0913 61.5101C63.8804 61.6237 63.6445 61.6782 63.41 61.6782C62.8865 61.6782 62.3645 61.4084 62.1212 60.9173Z" fill="black"/>
<path d="M65.7206 100.435C65.6381 99.6503 66.225 98.9159 67.0154 98.8363C67.5404 98.7832 68.0639 98.7109 68.5844 98.6254C70.292 98.2818 71.9805 97.8424 73.6763 97.4442C75.2438 97.0771 76.8246 96.7173 78.373 96.269C78.3465 96.1495 78.3155 96.033 78.283 95.915C78.2108 95.7056 78.1341 95.4962 78.0427 95.2927C77.9999 95.1998 77.9586 95.1069 77.9159 95.014C77.9262 95.0376 77.938 95.0597 77.9483 95.0833C77.9026 94.9831 77.8569 94.8828 77.8112 94.784L77.8126 94.787C77.8067 94.7737 77.8009 94.7604 77.795 94.7471C77.8112 94.7825 77.8274 94.8179 77.8421 94.8533C77.1903 93.5704 76.4929 92.3095 75.819 91.0384C75.1613 89.7982 74.5198 88.5493 73.8842 87.2988C72.6603 84.8907 71.5042 82.4472 70.3967 79.9831C70.0723 79.2606 70.5339 78.3758 71.2417 78.1074C71.5927 77.9747 71.9908 77.9835 72.3359 78.1325C72.7104 78.2932 72.9552 78.5881 73.1174 78.9523C73.1941 79.1234 73.2796 79.2915 73.3489 79.464C73.3504 79.4684 73.3533 79.4729 73.3548 79.4759C73.4167 79.6115 73.4787 79.7472 73.5406 79.8829C73.6925 80.2117 73.8444 80.5435 73.9978 80.8723C74.2986 81.5226 74.6053 82.17 74.9165 82.8159C76.2569 85.5956 77.6696 88.3399 79.1295 91.0605C79.594 91.9262 80.091 92.7814 80.498 93.678C80.4714 93.6205 80.4449 93.5615 80.4198 93.5055C80.4744 93.6234 80.5274 93.7429 80.582 93.8609C80.5554 93.8033 80.5304 93.7459 80.5039 93.6884C80.5555 93.8004 80.6056 93.9125 80.6572 94.026C81.1482 95.1202 81.6231 96.4739 81.1188 97.6389C80.9787 97.9618 80.7648 98.2272 80.4994 98.4499C80.2222 98.6814 79.9155 98.8215 79.5778 98.9439C79.2445 99.0649 78.8921 99.1445 78.55 99.2359C77.3157 99.5648 76.0726 99.8671 74.8309 100.165C73.6306 100.451 72.4288 100.734 71.2284 101.022C69.9352 101.331 68.6419 101.598 67.3192 101.732C67.2705 101.737 67.2233 101.74 67.1747 101.74C66.4447 101.735 65.7988 101.177 65.7206 100.435Z" fill="black"/>
<path d="M12.9101 134.997C12.1433 134.974 11.4576 134.528 10.9518 133.983C10.2956 133.278 9.99773 132.256 9.86943 131.321C9.74704 130.423 9.77949 129.535 9.96677 128.649C10.0921 128.058 10.2882 127.489 10.474 126.916C10.7542 126.052 11.1701 125.255 11.6272 124.471C12.1389 123.594 12.7509 122.804 13.5472 122.171C13.8819 121.906 14.2845 121.707 14.6871 121.572C15.0749 121.443 15.4627 121.412 15.8668 121.407C16.6852 121.398 17.4461 121.825 18.0581 122.327C18.9959 123.099 19.9087 123.896 20.8466 124.668C21.7668 125.426 22.7135 126.142 23.6838 126.832C24.3562 127.269 25.0316 127.691 25.7409 128.065C26.1228 128.252 26.5107 128.423 26.9074 128.58C27.1949 128.677 27.4824 128.763 27.7759 128.835C27.9779 128.87 28.1799 128.898 28.3849 128.92C28.5117 128.928 28.6371 128.931 28.7639 128.929C28.9674 128.915 29.1665 128.892 29.367 128.863C29.5632 128.822 29.7563 128.776 29.948 128.723C30.1707 128.649 30.3875 128.567 30.6028 128.474C30.7738 128.388 30.9405 128.298 31.1071 128.202C31.2605 128.101 31.4094 127.993 31.5568 127.879C31.8459 127.627 32.1216 127.366 32.3856 127.087C32.6982 126.731 32.9873 126.36 33.2645 125.977C33.8735 125.078 34.3867 124.131 34.888 123.168C35.0738 122.758 35.2611 122.348 35.4499 121.938C35.6313 121.541 35.7728 121.123 35.9306 120.714C36.3995 119.332 36.8065 117.943 37.1516 116.526C37.2062 116.264 37.2622 116.003 37.3006 115.737C37.3065 114.95 38.0128 114.31 38.787 114.328C39.5921 114.345 40.207 115.023 40.207 115.815C40.207 116.206 40.1009 116.6 40.0213 116.98C39.9372 117.395 39.8296 117.805 39.7293 118.216C39.5464 118.967 39.312 119.707 39.0878 120.447C38.8445 121.257 38.5304 122.044 38.2222 122.829C37.9494 123.522 37.6235 124.197 37.2799 124.859C36.8331 125.718 36.3671 126.56 35.8303 127.366C35.2641 128.216 34.6153 129.006 33.8735 129.708C33.1273 130.416 32.2706 130.941 31.3195 131.324C30.4317 131.682 29.4658 131.833 28.5147 131.837C27.4825 131.842 26.465 131.533 25.5153 131.16C24.4167 130.73 23.3903 130.113 22.4038 129.472C21.2964 128.751 20.2376 127.94 19.2186 127.099C18.6892 126.663 18.1643 126.223 17.6408 125.779C17.5611 125.712 17.48 125.642 17.4004 125.574C17.3989 127.018 17.3045 128.474 16.9757 129.879C16.7987 130.637 16.5569 131.377 16.2782 132.103C16.1425 132.452 15.9759 132.785 15.7945 133.113C15.5895 133.487 15.3094 133.813 15.0218 134.126C14.5028 134.694 13.7477 135 12.9883 135C12.9632 134.999 12.9367 134.997 12.9101 134.997ZM13.062 131.966C13.1402 131.87 13.2139 131.769 13.2818 131.665C13.2449 131.718 13.2095 131.771 13.1712 131.824C13.239 131.722 13.3009 131.618 13.3599 131.511C13.4956 131.227 13.6106 130.938 13.7241 130.643C13.9158 130.063 14.081 129.481 14.224 128.888C14.2992 128.48 14.3568 128.073 14.3995 127.661C14.4541 126.903 14.491 126.147 14.4939 125.389C14.2019 125.83 13.935 126.282 13.6843 126.748C13.5206 127.085 13.3805 127.425 13.2508 127.775C13.0959 128.252 12.9396 128.726 12.8158 129.214C12.7715 129.438 12.7362 129.662 12.7096 129.889C12.7008 130.069 12.6978 130.248 12.6993 130.426C12.7125 130.606 12.7303 130.783 12.7538 130.961C12.7892 131.147 12.8291 131.329 12.8748 131.513C12.8571 131.452 12.8379 131.392 12.8187 131.333C12.8659 131.503 12.922 131.669 12.9883 131.831C13.009 131.873 13.0311 131.912 13.0532 131.952C13.0562 131.958 13.0591 131.961 13.062 131.966Z" fill="black"/>
<path d="M63.6124 127.27C61.921 126.538 60.5467 125.257 59.5469 123.728C59.131 123.091 58.7623 122.418 58.4512 121.722C58.2905 121.36 58.1076 121.001 57.9675 120.628C57.677 119.851 57.388 119.071 57.1963 118.261C57.0208 117.518 56.8262 116.744 56.8262 115.976C56.8262 115.182 57.5355 114.538 58.3141 114.556C59.0897 114.573 59.6884 115.203 59.7312 115.956C59.7474 116.13 59.7695 116.305 59.7916 116.48C59.8609 116.853 59.9391 117.219 60.0276 117.589C60.1102 117.932 60.2163 118.27 60.3196 118.606C60.3196 118.606 60.3196 118.606 60.3196 118.605C60.4523 118.962 60.585 119.319 60.7192 119.676C60.8386 119.994 60.9935 120.304 61.138 120.615C61.3813 121.109 61.6423 121.591 61.9299 122.061C62.1186 122.348 62.3191 122.625 62.53 122.893C62.7276 123.122 62.9356 123.339 63.1553 123.548C63.3529 123.717 63.5549 123.878 63.7658 124.033C63.9899 124.179 64.217 124.316 64.4515 124.446C64.742 124.588 65.0355 124.714 65.3378 124.828C65.6224 124.919 65.9069 124.999 66.1989 125.067C66.426 125.108 66.6531 125.143 66.8817 125.171C67.1471 125.191 67.4111 125.199 67.678 125.197C67.9375 125.18 68.1941 125.154 68.4522 125.118C68.8341 125.048 69.2086 124.955 69.5802 124.846C70.0138 124.704 70.437 124.534 70.8632 124.369C71.1832 124.223 71.5017 124.077 71.8143 123.914C72.1815 123.72 72.534 123.513 72.8893 123.3C73.4748 122.909 74.0395 122.501 74.5955 122.069C74.6456 122.028 74.6958 121.986 74.7459 121.946C74.8329 121.87 74.9243 121.795 75.0143 121.719C75.4906 121.309 75.93 120.855 76.3577 120.397C76.8045 119.894 77.2203 119.373 77.6111 118.825C78.4738 117.564 79.2671 116.263 80.0752 114.967C80.3244 114.569 80.5574 114.15 80.8553 113.786C81.1104 113.476 81.4673 113.215 81.861 113.122C82.0483 113.078 82.2252 113.082 82.4155 113.1C82.6617 113.122 82.8844 113.161 83.1012 113.276C83.1012 113.273 83.1026 113.271 83.1026 113.268C83.2103 112.894 83.4698 112.572 83.8119 112.388C84.157 112.202 84.5271 112.186 84.9017 112.271C85.4444 112.397 85.9826 112.544 86.4943 112.767C86.9367 112.957 87.3511 113.246 87.73 113.543C88.3656 114.037 88.9761 114.579 89.4996 115.191C89.501 115.193 89.504 115.196 89.5055 115.197C89.5069 115.199 89.507 115.199 89.5084 115.2C89.5084 115.199 89.5069 115.199 89.5055 115.197C89.5069 115.199 89.507 115.199 89.5084 115.2C89.5527 115.247 89.594 115.296 89.6308 115.347C89.6426 115.362 89.6559 115.378 89.6692 115.393C90.6572 116.579 91.4151 117.983 91.5154 119.55C91.5729 120.459 91.3753 121.417 90.7619 122.116C90.1602 122.803 89.243 123.119 88.3464 123.06C87.3909 122.998 86.4722 122.558 85.6847 122.039C84.7808 121.444 84.042 120.634 83.4138 119.76C82.8549 118.982 82.4317 118.142 82.0601 117.264C81.7991 117.695 81.5395 118.129 81.2726 118.555C80.5913 119.643 79.882 120.742 79.0533 121.722C78.6153 122.241 78.1567 122.746 77.6686 123.216C77.4312 123.445 77.1894 123.666 76.9446 123.887C76.8502 123.971 76.7484 124.063 76.6423 124.142C76.5449 124.226 76.4417 124.307 76.3415 124.39C76.3547 124.378 76.368 124.368 76.3812 124.356C75.2266 125.307 73.9466 126.151 72.5885 126.771C71.5799 127.232 70.5609 127.624 69.4785 127.877C68.8297 128.031 68.1705 128.103 67.5143 128.103C66.1797 128.105 64.8496 127.804 63.6124 127.27ZM88.5853 120.162C88.5868 120.155 88.5897 120.147 88.5912 120.139C88.6 120.08 88.6074 120.021 88.6163 119.963C88.6207 119.883 88.6222 119.802 88.6207 119.723C88.6148 119.643 88.6074 119.563 88.5971 119.484C88.5617 119.31 88.5204 119.14 88.4732 118.969C88.4423 118.876 88.4069 118.785 88.37 118.696C88.2712 118.497 88.1694 118.303 88.0574 118.109C87.8966 117.86 87.7345 117.608 87.5472 117.377C87.4646 117.281 87.382 117.185 87.3068 117.083C87.2861 117.06 87.267 117.037 87.2463 117.014C87.2729 117.045 87.2994 117.077 87.3245 117.108C87.1151 116.886 86.9013 116.667 86.6831 116.453C86.3631 116.169 86.0342 115.902 85.6906 115.647C85.5903 115.582 85.4886 115.519 85.3854 115.46C85.2954 115.417 85.204 115.377 85.1096 115.34C84.8619 115.262 84.6127 115.191 84.3605 115.128C84.3974 115.228 84.4342 115.328 84.4711 115.427C84.6304 115.849 84.7999 116.265 84.9754 116.681C85.1406 117.02 85.3205 117.349 85.5181 117.67C85.7245 117.981 85.9398 118.285 86.1713 118.577C86.3571 118.791 86.5503 118.993 86.7553 119.187C86.9145 119.326 87.0768 119.457 87.2463 119.583C87.3879 119.674 87.5295 119.76 87.6754 119.844C87.8288 119.919 87.9822 119.988 88.1414 120.053C88.2491 120.087 88.3552 120.118 88.4629 120.144C88.4968 120.15 88.5322 120.155 88.5661 120.161C88.5706 120.162 88.5779 120.162 88.5853 120.162Z" fill="black"/>
<path d="M8.21666 22.3883C7.43806 22.1759 6.69341 21.8958 5.94725 21.5876C5.80126 21.5256 5.65967 21.4445 5.5181 21.3723C5.3264 21.2764 5.12881 21.185 4.94154 21.0803C4.04054 20.5774 3.22949 19.9876 2.48775 19.268C1.75633 18.5557 1.15616 17.671 0.70197 16.7596C0.247783 15.8483 -0.00292354 14.7983 2.57282e-05 13.7794C0.00150036 12.8046 0.215318 11.8756 0.622316 10.9894C1.01457 10.137 1.63394 9.38793 2.27246 8.7096C2.53347 8.43384 2.78856 8.15513 3.06431 7.8956C3.37546 7.60215 3.68809 7.31901 4.01251 7.04326C5.54465 5.73821 7.24344 4.63961 8.92747 3.541C9.8904 2.91429 10.8578 2.29792 11.831 1.68889C12.1982 1.45885 12.5698 1.23618 12.9429 1.01499C13.2231 0.849828 13.5003 0.683162 13.7819 0.520953C14.0076 0.389711 14.2479 0.243743 14.4942 0.155265C14.6048 0.112501 14.7154 0.0756514 14.8289 0.0432095C14.9956 0.00339446 15.1637 0.00483633 15.3333 0.000412436C16.2018 -0.021707 16.861 0.849804 16.7371 1.67265C16.6781 2.0708 16.4938 2.39818 16.2962 2.74177C16.1782 2.94674 16.0676 3.1532 15.9556 3.35965C15.3819 4.51428 14.8614 5.68513 14.391 6.88548C14.0872 7.75551 13.7967 8.62407 13.5888 9.5236C13.5194 9.88636 13.4664 10.2506 13.4295 10.6178C13.4074 10.9923 13.4 11.3639 13.4089 11.74C13.4295 12.029 13.4619 12.3121 13.5077 12.5968C13.5504 12.8032 13.5991 13.0067 13.6551 13.2087C13.723 13.4033 13.7967 13.5921 13.8763 13.7823C13.9707 13.9711 14.068 14.1554 14.1742 14.3368C14.2907 14.5108 14.4101 14.6804 14.5384 14.847C14.6962 15.0284 14.8584 15.2009 15.0309 15.3676C15.1681 15.4841 15.3067 15.5946 15.4527 15.7008C15.5456 15.7613 15.6415 15.8188 15.7388 15.8734C15.8833 15.9441 16.0293 16.009 16.1797 16.0695C16.2918 16.1049 16.4039 16.1373 16.5174 16.1638C16.6192 16.1845 16.7224 16.1993 16.8271 16.2125C16.9303 16.2184 17.035 16.2214 17.1397 16.2214C17.2798 16.211 17.4169 16.1948 17.5555 16.1742C17.6661 16.1506 17.7738 16.1255 17.8829 16.0945C18.0436 16.0415 18.2014 15.984 18.3562 15.9206C18.3961 15.9014 18.4373 15.8807 18.4772 15.8601C19.1791 15.4914 20.0683 15.7495 20.4473 16.4529C20.695 16.913 20.6611 17.4689 20.406 17.898C20.6316 18.4377 20.5004 19.0763 20.0727 19.5172C19.3988 20.2132 18.5096 20.6851 17.6352 21.0891C17.647 21.0832 17.6602 21.0773 17.672 21.0714C17.6484 21.0818 17.6248 21.0936 17.5998 21.1039C17.5658 21.1201 17.5319 21.1349 17.498 21.1511C17.5068 21.1467 17.5172 21.1422 17.526 21.1378C17.501 21.1496 17.4759 21.1614 17.4508 21.1717C17.4641 21.1658 17.4759 21.1599 17.4892 21.154C16.0662 21.8043 14.5886 22.2865 13.0564 22.5977C12.4238 22.7245 11.7809 22.785 11.1364 22.785C10.1573 22.7879 9.1678 22.6463 8.21666 22.3883ZM11.5656 19.8667C11.8266 19.8475 12.0846 19.8165 12.3427 19.7796C12.9207 19.6617 13.49 19.529 14.0592 19.3682C14.5178 19.2178 14.9705 19.0556 15.4173 18.8801C15.3112 18.8477 15.2079 18.8108 15.1032 18.771C14.3924 18.4952 13.7539 18.103 13.1759 17.606C12.6229 17.1312 12.1554 16.5591 11.7602 15.9486C11.3193 15.2702 11.0199 14.53 10.7914 13.7573C10.5569 12.9551 10.5039 12.0968 10.498 11.2666C10.4935 10.4615 10.5938 9.64597 10.7663 8.85999C11.0583 7.53872 11.5051 6.26022 12.0139 5.00826C10.0467 6.27054 8.07511 7.53728 6.22887 8.97209C5.90298 9.24932 5.57709 9.52801 5.26447 9.82147C4.92088 10.1429 4.59939 10.4792 4.27645 10.8198C4.02134 11.1118 3.77952 11.4096 3.548 11.7223C3.44477 11.883 3.35038 12.0452 3.25895 12.2133C3.21029 12.3136 3.16605 12.4168 3.12624 12.5201C3.06578 12.7073 3.01272 12.8916 2.96553 13.0819C2.94489 13.1984 2.92719 13.3149 2.91392 13.4328C2.90654 13.5552 2.9021 13.6776 2.90505 13.8C2.91685 13.9917 2.93457 14.182 2.95964 14.3751C2.99503 14.5551 3.0363 14.732 3.08349 14.9104C3.14395 15.0844 3.21032 15.254 3.28258 15.4236C3.38433 15.6271 3.49343 15.8247 3.60992 16.0208C3.78098 16.2804 3.95797 16.5296 4.14819 16.7743C4.34137 16.9985 4.54188 17.2123 4.75275 17.4203C4.99902 17.637 5.25268 17.842 5.51959 18.0337C5.81009 18.2269 6.1065 18.4038 6.41027 18.5749C6.63294 18.687 6.85558 18.799 7.07973 18.9111C7.33041 19.0379 7.60616 19.1293 7.86717 19.2355C8.40099 19.4139 8.93189 19.5835 9.48046 19.7118C9.77538 19.7693 10.0673 19.8136 10.3652 19.8475C10.7678 19.8726 11.1645 19.8785 11.5656 19.8667Z" fill="black"/>
<path d="M78.0737 21.6451C77.2052 21.6171 76.3484 21.4667 75.4976 21.3015C74.7101 21.1481 73.9477 20.8547 73.2119 20.5421C72.569 20.2692 71.9422 19.9375 71.3317 19.6013C70.6564 19.2282 70.0046 18.8241 69.3778 18.3729C69.0431 18.1311 68.8647 17.7491 68.8381 17.3539C68.552 17.2713 68.2704 17.177 67.9947 17.0708C67.2559 16.7833 66.9314 15.8646 67.2382 15.1567C67.5478 14.443 68.3383 14.1407 69.052 14.3648C69.049 14.3634 69.046 14.3619 69.046 14.3619C69.0519 14.3634 69.0579 14.3663 69.0638 14.3678C69.0815 14.3737 69.0991 14.3796 69.1168 14.3855C69.5341 14.5256 69.9545 14.6376 70.3806 14.7453C71.0781 14.8868 71.7727 15.0122 72.482 15.0845C73.0408 15.1257 73.5997 15.1405 74.1601 15.1243C74.6393 15.0963 75.1157 15.0491 75.5905 14.9768C76.0063 14.8987 76.4148 14.8028 76.8203 14.6863C77.0975 14.5934 77.3689 14.4916 77.6388 14.3781C77.9573 14.2277 78.2654 14.0625 78.5692 13.8811C78.8553 13.6909 79.1311 13.4904 79.3995 13.2766C79.6678 13.0406 79.9215 12.7958 80.1663 12.5378C80.3978 12.2694 80.616 11.9951 80.8225 11.7075C81.0171 11.4111 81.1985 11.1089 81.3651 10.7962C81.5185 10.4777 81.6556 10.1548 81.7825 9.82447C81.9506 9.32309 82.0906 8.81435 82.2101 8.2997C82.3369 7.67888 82.4254 7.05508 82.4991 6.42689C82.5316 5.90487 82.5433 5.39022 82.5286 4.86968C82.4962 4.50987 82.4549 4.15301 82.3989 3.79615C82.3885 3.75044 82.3782 3.70326 82.3679 3.65755C82.3517 3.61331 82.334 3.56908 82.3163 3.52632C82.185 3.25204 82.0744 2.96889 82.0862 2.65922C82.101 2.26549 82.1555 1.90714 82.4107 1.58862C82.9327 0.932404 83.7481 0.823301 84.5341 0.815928C85.3658 0.80708 86.2034 0.917675 87.0263 1.02532C87.7415 1.1197 88.4522 1.25978 89.1615 1.3925C89.9563 1.54291 90.7644 1.68303 91.5327 1.93666C92.2582 2.17555 92.8599 2.60907 93.2949 3.23579C93.8169 3.98785 94.0263 4.94636 94.0543 5.84884C94.0912 7.05509 93.8715 8.21859 93.5913 9.38502C93.5014 9.75515 93.379 10.1179 93.2669 10.4821C93.1504 10.8567 93.0118 11.2416 92.8555 11.6014C92.5222 12.3697 92.1786 13.1261 91.7451 13.8443C90.9915 15.0948 90.1038 16.2893 89.017 17.2743C88.7397 17.5235 88.4625 17.7757 88.1868 18.0249C87.8712 18.3095 87.5202 18.5587 87.187 18.8227C86.5175 19.3535 85.7536 19.7915 84.9913 20.172C84.0563 20.6394 83.061 20.9697 82.0479 21.2248C80.9168 21.508 79.715 21.651 78.5397 21.651C78.379 21.6525 78.2256 21.6495 78.0737 21.6451ZM78.9585 18.7371C79.51 18.7061 80.0616 18.6442 80.6072 18.5557C81.0997 18.4614 81.5834 18.3464 82.0641 18.2077C82.5315 18.0573 82.9872 17.8863 83.4355 17.6916C83.8529 17.4925 84.2569 17.2728 84.6536 17.0339C85.2065 16.6726 85.7197 16.2716 86.2373 15.8631C86.7181 15.4266 87.1943 14.9931 87.6441 14.5226C88.0216 14.1039 88.3726 13.6688 88.7014 13.2102C88.9713 12.8076 89.2176 12.3933 89.4668 11.9774C89.654 11.6058 89.8369 11.2357 90.0021 10.8538C90.1717 10.4615 90.3206 10.0648 90.468 9.6652C90.558 9.37323 90.6479 9.07829 90.7379 8.78631C90.8175 8.52678 90.8706 8.25691 90.9311 7.99C91.0033 7.56235 91.0756 7.13915 91.1213 6.70856C91.1375 6.44165 91.1449 6.17767 91.1419 5.91076C91.1301 5.76035 91.1154 5.61292 91.0962 5.46398C91.0726 5.34896 91.0417 5.23394 91.0063 5.12187C91.0151 5.14252 91.0254 5.16316 91.0343 5.18528C91.024 5.16169 91.0136 5.13809 91.0033 5.11449C90.9974 5.09532 90.9901 5.07466 90.9842 5.05549C90.9886 5.07171 90.9945 5.08792 90.9989 5.10414C90.9635 5.02746 90.9267 4.95228 90.8854 4.87855C90.8721 4.85938 90.8588 4.8402 90.8455 4.82103C90.8411 4.81661 90.8367 4.8107 90.8323 4.80627C90.8293 4.8048 90.8278 4.80185 90.8249 4.80038C90.7998 4.78563 90.7733 4.77088 90.7482 4.75465C90.7158 4.73991 90.6833 4.72666 90.6509 4.71339C90.3338 4.61311 90.0124 4.53791 89.6894 4.46565C88.2428 4.17367 86.7977 3.90969 85.3304 3.76371C85.3702 4.03946 85.3938 4.31817 85.4189 4.59688C85.4808 5.31797 85.4617 6.07448 85.3791 6.79262C85.2832 7.62284 85.1505 8.4368 84.9706 9.25375C84.568 11.0734 83.7585 12.7678 82.5714 14.2056C81.4271 15.5888 79.9156 16.624 78.2507 17.2743C77.1241 17.7137 75.912 17.9364 74.6954 18.0131C74.747 18.0352 74.7971 18.0573 74.8488 18.0794C75.0242 18.1414 75.1997 18.2033 75.3737 18.2653C75.5934 18.3419 75.8294 18.392 76.055 18.451C76.6168 18.5587 77.1772 18.656 77.7478 18.7135C78.1504 18.7386 78.553 18.7474 78.9585 18.7371Z" fill="black"/>
<path d="M38.2179 13.0052C37.4687 12.6808 37.1753 11.8299 37.4614 11.0912C37.8153 10.1769 38.1899 9.27001 38.5733 8.36754C38.7886 7.86321 39.0083 7.36329 39.2383 6.86487C39.5347 6.2175 39.8621 5.52148 40.6127 5.33272C41.381 5.14102 42.1832 5.64686 42.3645 6.41219C42.4648 6.83688 42.3631 7.26305 42.1242 7.59336C42.108 7.61843 42.0932 7.64349 42.0785 7.66856C41.3559 9.16089 40.7277 10.7033 40.129 12.2473C39.9167 12.7988 39.3489 13.1188 38.7827 13.1188C38.591 13.1203 38.3978 13.0834 38.2179 13.0052Z" fill="black"/>
<path d="M45.7057 13.0289C44.9463 12.9139 44.3343 12.15 44.4862 11.3729C44.6749 10.407 44.8843 9.44554 45.1159 8.4885C45.2324 8.00777 45.3548 7.52998 45.4786 7.05073C45.5347 6.84133 45.5907 6.63046 45.6526 6.42106C45.7426 6.11581 45.8178 5.79584 45.983 5.52155C46.3914 4.84322 47.2969 4.61171 47.9781 5.02018C48.6093 5.39916 48.854 6.21758 48.5532 6.87526C48.3394 7.54327 48.1757 8.22897 48.0061 8.90878C47.8572 9.50453 47.7215 10.1032 47.5888 10.7034C47.5918 10.6886 47.5947 10.6739 47.5977 10.6591C47.5947 10.6754 47.5903 10.6916 47.5873 10.7078C47.577 10.7535 47.5682 10.7978 47.5579 10.842C47.5682 10.7978 47.577 10.755 47.5873 10.7108C47.5107 11.0779 47.434 11.4437 47.3632 11.8123C47.2246 12.5172 46.6377 13.0466 45.9269 13.0466C45.8532 13.0466 45.7794 13.0407 45.7057 13.0289Z" fill="black"/>
<path d="M52.2767 13.5715C52.1867 12.3859 52.113 11.1988 52.0407 10.0118C52.0039 9.40126 51.9684 8.78633 51.9596 8.17436C51.9552 7.85732 51.9434 7.52848 51.992 7.21586C52.0687 6.71596 52.4212 6.21309 52.9196 6.05678C53.2853 5.94176 53.654 5.92702 54.0138 6.08334C54.3706 6.23817 54.6567 6.53751 54.7953 6.90175C54.8646 7.08607 54.8927 7.28517 54.8824 7.48277C54.8824 7.47834 54.8838 7.47243 54.8838 7.46801C54.8602 7.80275 54.8661 8.13604 54.8705 8.46931C54.9398 10.0708 55.049 11.6707 55.1699 13.2678C55.2303 14.0567 54.6818 14.7822 53.8752 14.8662C53.828 14.8707 53.7793 14.8736 53.7321 14.8736C53.0125 14.8721 52.3327 14.3133 52.2767 13.5715Z" fill="black"/>
</svg>
