<svg width="192" height="273" viewBox="0 0 192 273" fill="none" xmlns="http://www.w3.org/2000/svg">
<mask id="mask0_745_7196" style="mask-type:luminance" maskUnits="userSpaceOnUse" x="-42" y="52" width="167" height="198">
<path d="M53.7832 52.1235L124.021 94.0548L29.1421 249.009L-41.0953 207.077L53.7832 52.1235Z" fill="white"/>
</mask>
<g mask="url(#mask0_745_7196)">
<mask id="mask1_745_7196" style="mask-type:luminance" maskUnits="userSpaceOnUse" x="-18" y="35" width="195" height="205">
<path d="M-12.639 35.6399L176.754 39.8596L172.087 239.194L-17.3058 234.974L-12.639 35.6399Z" fill="white"/>
</mask>
<g mask="url(#mask1_745_7196)">
<mask id="mask2_745_7196" style="mask-type:luminance" maskUnits="userSpaceOnUse" x="-18" y="35" width="195" height="205">
<path d="M-12.6428 35.64L176.75 39.8594L172.084 239.194L-17.3094 234.975L-12.6428 35.64Z" fill="white"/>
</mask>
<g mask="url(#mask2_745_7196)">
<path d="M109.353 92.7088C103.774 94.8303 95.0203 96.1713 89.0158 96.4072C87.0525 96.4785 88.6697 95.4097 89.9952 94.1721C90.9914 93.2488 96.1098 90.607 97.3049 89.9626C101.783 87.5552 103.047 86.476 107.761 84.5848L109.353 92.7088ZM76.0754 97.0596C74.2323 97.2076 72.4511 97.6679 70.7133 98.2392C69.0209 98.8025 67.2079 99.4141 65.7396 100.446C65.2435 100.802 64.8694 101.139 64.6921 101.735C64.5307 102.254 64.5746 102.951 64.8724 103.424C65.4413 104.339 66.8712 104.982 67.8709 104.276C68.4417 103.865 69.0834 103.561 69.7244 103.268C69.9025 103.184 70.0969 103.114 70.2751 103.03C70.3354 103.006 70.4099 102.975 70.4666 102.949C70.3504 102.99 70.2781 103.017 70.4852 102.935C70.5292 102.921 70.5724 102.892 70.6164 102.878C70.5887 102.907 70.5448 102.921 70.5008 102.934C70.9307 102.77 71.3479 102.618 71.7755 102.483C72.5919 102.208 73.4253 101.964 74.2704 101.767C74.6538 101.67 75.0388 101.579 75.4236 101.513C75.5874 101.485 75.7489 101.461 75.9127 101.434C75.8085 101.447 75.7519 101.448 75.9566 101.42C76.5646 101.362 77.082 101.245 77.5316 100.817C77.926 100.446 78.2335 99.8283 78.2194 99.2891C78.2016 98.227 77.304 96.9558 76.0754 97.0596ZM75.9417 101.436C75.9573 101.435 76.0146 101.425 76.0592 101.426C76.0146 101.425 75.9573 101.435 75.926 101.437C75.926 101.437 75.926 101.437 75.9417 101.436ZM76.2074 101.399C76.1947 101.412 76.1344 101.411 76.0749 101.425C76.1195 101.427 76.1791 101.412 76.2074 101.399ZM48.5317 107.122C52.1701 107.764 55.8551 107.743 59.4863 106.933C60.6083 106.681 61.4208 105.387 61.0938 104.276C60.7394 103.119 59.6191 102.426 58.4085 102.69C57.6238 102.864 56.8221 103.006 56.022 103.105C56.0093 103.118 55.9937 103.118 55.9781 103.119C55.9497 103.132 55.9207 103.13 55.8739 103.132C55.6864 103.141 55.507 103.169 55.3136 103.179C54.9177 103.213 54.5055 103.233 54.1061 103.24C53.325 103.25 52.5596 103.234 51.7803 103.175C51.3982 103.138 51.0316 103.1 50.6628 103.065C50.4717 103.046 50.2956 103.011 50.1045 102.992C50.0027 102.977 49.8815 102.96 49.7796 102.944C49.1627 102.827 48.6168 102.817 48.068 103.125C47.6028 103.389 47.1491 103.889 47.0168 104.411C46.7424 105.454 47.2836 106.919 48.5317 107.122ZM31.6785 109.407C32.0109 109.08 32.3536 108.768 32.7156 108.484C32.7343 108.47 32.747 108.457 32.7769 108.425C32.8209 108.386 32.8984 108.342 32.9268 108.329C33.1066 108.201 33.2871 108.088 33.4809 107.978C33.8858 107.739 34.2877 107.513 34.72 107.32C34.7639 107.306 34.9883 107.18 35.1515 107.112C35.0912 107.136 35.0912 107.136 35.255 107.083C35.3906 107.044 35.5061 106.988 35.6417 106.948C36.0558 106.81 36.49 106.688 36.9159 106.596C37.14 106.545 37.3477 106.503 37.5688 106.465C37.673 106.452 37.7899 106.426 37.894 106.413C37.9089 106.422 37.9305 106.42 37.9535 106.424C38.1 106.441 38.4387 106.368 38.5436 106.37C38.7646 106.357 38.9877 106.364 39.2064 106.355C39.7077 106.363 40.1948 106.403 40.6922 106.459C41.8393 106.612 42.9727 105.415 42.9536 104.322C42.9255 103.029 42.034 102.252 40.7976 102.096C36.4047 101.52 31.7688 103.167 28.6444 106.242C27.8264 107.056 27.6916 108.508 28.5718 109.328C29.4037 110.144 30.8009 110.261 31.6785 109.407ZM7.48059 142.008C8.73533 142.035 9.65889 141.049 9.74567 139.874C9.80626 139.089 9.82526 138.289 9.9045 137.49C9.962 136.908 10.0492 136.344 10.1074 135.778C10.1244 135.618 10.1601 135.444 10.1928 135.283C10.2582 134.937 10.3393 134.59 10.4263 134.241C10.5704 133.576 10.7651 132.911 11.0014 132.261C11.1295 131.886 11.2694 131.509 11.4257 131.147C11.4431 131.077 11.461 131.047 11.4731 131.02C11.491 130.99 11.4897 130.959 11.5204 130.918C11.6134 130.733 11.7056 130.557 11.7986 130.372C12.1674 129.696 12.5816 129.037 13.0402 128.404C13.0402 128.404 13.2504 128.119 13.2834 128.073C13.4037 127.935 13.5263 127.792 13.6608 127.647C13.9769 127.305 14.2966 126.99 14.643 126.681C15.516 125.884 15.5228 124.426 14.7156 123.594C13.8817 122.732 12.4825 122.734 11.5962 123.527C8.88418 125.986 7.09466 129.296 6.21621 132.813C5.64192 135.114 5.48711 137.425 5.3113 139.779C5.22451 140.954 6.30543 141.984 7.48059 142.008ZM11.3942 160.264C12.4099 159.648 12.8676 158.363 12.2584 157.299C12.1307 157.078 12.035 156.846 11.9221 156.608C11.8647 156.479 11.8101 156.361 11.7549 156.228C11.6152 155.844 11.4769 155.466 11.3529 155.082C11.069 154.132 10.8411 153.14 10.6854 152.145C10.6615 151.986 10.6502 151.839 10.6233 151.693C10.6233 151.693 10.6233 151.693 10.6264 151.68L10.6257 151.664C10.6055 151.342 10.583 151.023 10.5606 150.704C10.5159 150.017 10.5351 149.332 10.564 148.648C10.6201 147.515 9.57236 146.39 8.40812 146.422C7.18362 146.453 6.21812 147.334 6.14899 148.555C6.01403 151.098 6.31914 153.708 7.06976 156.154C7.4102 157.268 7.81224 158.414 8.39038 159.43C8.95592 160.433 10.3732 160.897 11.3942 160.264ZM12.329 164.897C11.2484 165.545 10.9406 166.758 11.4588 167.863C12.9622 171.023 14.5937 174.303 17.3205 176.615C17.7845 177.007 18.249 177.274 18.8686 177.287C19.4123 177.301 20.0685 177.081 20.4436 176.684C21.1989 175.898 21.459 174.39 20.5198 173.6C19.8965 173.063 19.3218 172.48 18.8045 171.862C18.689 171.728 18.5765 171.581 18.4641 171.433C18.4205 171.372 18.3642 171.299 18.3206 171.238C18.0618 170.883 17.8379 170.529 17.6074 170.162C16.743 168.745 16.0293 167.248 15.3119 165.749C14.8246 164.717 13.2694 164.321 12.329 164.897ZM36.2886 188.213C35.3856 187.67 34.5006 187.097 33.6336 186.495C33.1827 186.181 32.7474 185.867 32.3158 185.554C32.1 185.386 31.882 185.221 31.664 185.056C31.5929 184.998 31.5343 184.953 31.4594 184.894C31.4328 184.863 31.3905 184.832 31.3319 184.788C29.6833 183.444 28.1259 181.985 26.6761 180.425C25.9031 179.578 24.371 179.516 23.5567 180.358C22.7087 181.229 22.6489 182.55 23.4804 183.442C26.5408 186.738 30.082 189.605 33.9461 191.929C34.933 192.517 36.3972 192.243 36.984 191.211C37.599 190.191 37.3496 188.846 36.2886 188.213ZM54.4788 194.641C52.8855 195.348 50.7822 195.276 48.9234 194.739C46.786 194.111 45.029 193.068 43.0251 191.833C42.051 191.233 40.571 191.532 39.985 192.555C39.4019 193.589 39.6656 194.903 40.7117 195.552C43.0182 196.987 45.4588 198.376 48.1145 199.043C50.9693 199.774 53.9049 199.661 56.6154 198.453C57.6736 197.982 58.0655 196.433 57.4833 195.491C56.8147 194.416 55.6116 194.139 54.4788 194.641ZM66.301 181.71C65.8187 181.423 65.129 181.292 64.5942 181.454C63.3809 181.822 62.8238 182.872 62.9854 184.055C62.9888 183.967 62.9765 183.879 62.9642 183.792C62.9861 184.07 62.9493 184.329 62.9303 184.608C62.8789 184.808 62.8289 185.013 62.7656 185.216C62.7339 185.317 62.6739 185.431 62.6392 185.546C62.6399 185.561 62.6272 185.574 62.6279 185.589C62.3473 186.138 61.9962 186.67 61.6438 187.171C60.9419 188.159 60.1977 189.118 59.6842 190.228C59.4356 190.791 59.2602 191.292 59.4235 191.911C59.5567 192.421 59.9426 192.981 60.4079 193.238C60.9185 193.513 61.5331 193.659 62.111 193.493C62.6308 193.347 63.2295 193.023 63.4615 192.52C64.0996 191.123 65.1422 189.967 65.9547 188.674C66.4317 187.912 66.8466 187.078 67.1053 186.226C67.4237 185.169 67.4638 184.136 67.2995 183.057C67.2228 182.545 66.7483 181.997 66.301 181.71ZM62.8451 176.951C63.3823 177.968 64.8466 178.405 65.8496 177.801C66.8959 177.168 67.291 175.911 66.7138 174.836C65.2902 172.175 63.327 169.758 60.9741 167.845C60.496 167.459 60.0612 167.185 59.426 167.172C58.8801 167.162 58.2298 167.38 57.8488 167.779C57.4587 168.192 57.1485 168.724 57.1647 169.309C57.181 169.844 57.3292 170.504 57.7785 170.862C59.1047 171.938 60.2837 173.171 61.3134 174.516C61.8694 175.303 62.3808 176.114 62.8451 176.951ZM45.7108 168.304C45.7242 168.307 45.7242 168.307 45.7398 168.306C45.6794 168.33 45.6333 168.348 45.5766 168.374C45.6801 168.346 45.7687 168.334 45.87 168.309C46.7286 168.255 47.6121 168.301 48.4487 168.349C49.466 168.4 50.4631 168.508 51.4637 168.644C51.993 168.714 52.678 168.382 53.0387 168.041C53.4331 167.67 53.7406 167.052 53.7265 166.513C53.7111 165.943 53.5469 165.36 53.115 164.957C52.666 164.524 52.1847 164.367 51.5669 164.285C50.3618 164.127 49.1707 164.013 47.9532 163.958C46.5223 163.896 45.0507 163.81 43.7403 164.436C42.6991 164.936 42.2777 166.443 42.8724 167.398C43.5109 168.39 44.6513 168.719 45.7108 168.304ZM38.0389 168.112C37.4949 167.983 36.7892 167.952 36.3236 168.291C33.9995 169.96 31.8221 171.761 29.8274 173.801C29.4181 174.213 29.1525 174.746 29.1419 175.325C29.1307 175.864 29.3481 176.51 29.7534 176.882C30.5877 177.669 32.0152 177.819 32.8728 176.949C34.656 175.138 36.597 173.466 38.6504 171.966C38.5945 172.008 38.5475 172.035 38.4856 172.078C38.9668 171.739 39.3275 171.398 39.5055 170.819C39.6669 170.299 39.6229 169.602 39.3252 169.129C39.0274 168.656 38.5948 168.238 38.0389 168.112ZM23.2558 189.066C22.749 188.794 22.1322 188.651 21.5528 188.812C21.374 188.88 21.1989 188.951 21.0201 189.02C20.6771 189.216 20.4023 189.458 20.2038 189.79C18.9453 191.348 18.0166 193.203 17.4848 195.129C17.3218 195.693 17.3794 196.318 17.6651 196.819C17.931 197.278 18.4371 197.724 18.9655 197.854C19.5376 197.995 20.1692 197.981 20.6793 197.669C21.1588 197.374 21.5668 196.931 21.7246 196.385C21.8863 195.79 22.1089 195.212 22.3575 194.649C22.8054 193.744 23.3431 192.883 23.981 192.082C24.3167 191.666 24.3617 190.882 24.2418 190.4C24.1204 189.887 23.7375 189.338 23.2558 189.066ZM16.1422 202.52C15.0001 202.235 13.7198 202.803 13.3793 203.987C13.1873 204.714 12.9486 205.418 12.666 206.111C12.605 206.285 12.5247 206.457 12.4481 206.632C12.4487 206.647 12.4487 206.647 12.4301 206.661C12.4181 206.689 12.4001 206.718 12.385 206.759C12.2132 207.123 12.0272 207.467 11.8442 207.824C11.4725 208.489 11.0763 209.119 10.6513 209.721C10.4358 210.024 10.2099 210.31 9.99374 210.596C9.96307 210.638 9.92048 210.683 9.88981 210.725C9.75228 210.883 9.61699 211.038 9.46383 211.197C8.69412 212.04 8.48374 213.416 9.38982 214.277C10.1959 215.053 11.6946 215.26 12.5129 214.346C14.8894 211.732 16.6705 208.643 17.6095 205.242C17.9169 204.129 17.3133 202.808 16.1422 202.52ZM5.56443 217.76C4.51804 217.186 3.18693 217.449 2.52799 218.483C2.17318 219.013 1.7961 219.529 1.39902 220.028C0.475039 221.115 -0.566764 222.096 -1.70403 222.96C-1.85619 223.06 -2.00543 223.171 -2.15759 223.27C-2.64915 223.593 -3.02648 223.994 -3.20515 224.559C-3.36282 225.08 -3.3189 225.778 -3.02113 226.251C-2.72336 226.723 -2.27881 227.139 -1.72227 227.28C-1.16202 227.424 -0.502226 227.422 -0.00695784 227.101C2.52318 225.435 4.66845 223.314 6.28958 220.776C6.90291 219.799 6.59891 218.336 5.56443 217.76ZM-8.79401 227.29C-9.40854 227.144 -9.9422 227.222 -10.5093 227.47C-10.8663 227.622 -11.2076 227.774 -11.5674 227.915C-12.9316 228.439 -14.3437 228.859 -15.7814 229.163C-16.919 229.417 -17.719 230.722 -17.3889 231.82C-17.0375 232.991 -15.9179 233.669 -14.7036 233.406C-12.5096 232.942 -10.3992 232.217 -8.35868 231.3C-7.88317 231.078 -7.45677 230.506 -7.31113 230.012C-7.15199 229.496 -7.19367 228.795 -7.49143 228.322C-7.78921 227.849 -8.22477 227.419 -8.79401 227.29ZM17.9327 120.956C19.1491 121.26 20.2816 120.644 20.6955 119.488C20.7399 119.375 20.7865 119.257 20.8368 119.142C21.0995 118.598 21.4223 118.079 21.8007 117.594C22.1797 117.149 22.6017 116.749 23.0666 116.396C23.5761 116.043 24.1003 115.75 24.6643 115.516C25.1428 115.305 25.5678 114.702 25.7119 114.227C25.8733 113.708 25.8316 113.007 25.5316 112.538C25.2338 112.065 24.7856 111.647 24.2313 111.502C24.0402 111.483 23.8328 111.45 23.6447 111.418C23.2446 111.41 22.8604 111.491 22.5174 111.687C19.6731 112.891 17.4771 115.392 16.4498 118.234C16.0741 119.302 16.8196 120.673 17.9327 120.956Z" fill="#030303"/>
</g>
</g>
</g>
<mask id="mask3_745_7196" style="mask-type:luminance" maskUnits="userSpaceOnUse" x="94" y="30" width="97" height="97">
<path d="M131.561 30.3584L190.064 65.7123L153.493 126.13L94.9901 90.7765L131.561 30.3584Z" fill="white"/>
</mask>
<g mask="url(#mask3_745_7196)">
<mask id="mask4_745_7196" style="mask-type:luminance" maskUnits="userSpaceOnUse" x="-18" y="35" width="195" height="205">
<path d="M-12.5433 35.6404L176.85 39.8601L172.183 239.195L-17.2101 234.975L-12.5433 35.6404Z" fill="white"/>
</mask>
<g mask="url(#mask4_745_7196)">
<mask id="mask5_745_7196" style="mask-type:luminance" maskUnits="userSpaceOnUse" x="-18" y="35" width="195" height="205">
<path d="M-12.5452 35.6405L176.848 39.8599L172.181 239.194L-17.2118 234.975L-12.5452 35.6405Z" fill="white"/>
</mask>
<g mask="url(#mask5_745_7196)">
<path d="M175.142 81.1316C174.28 75.534 170.446 71.0719 165.665 68.2839C160.766 65.44 155.106 64.0705 149.486 63.4599C150.065 61.1302 150.647 58.7872 151.245 56.459C151.875 53.9536 152.693 51.411 152.93 48.8239C153.341 44.2829 150.298 40.5102 145.644 40.4078C141.199 40.2912 137.664 43.7558 135.818 47.5058C134.742 49.6916 134.085 52.0499 133.868 54.4471C132.734 53.5853 131.493 52.8407 130.188 52.2437C126.668 50.6407 122.056 50.01 118.988 52.901C115.92 55.7765 115.945 60.3853 117.542 63.9943C118.072 65.1906 118.79 66.4658 119.627 67.6113C119.533 67.7255 119.443 67.8575 119.355 67.9704C112.816 71.9977 107.935 78.4926 107.626 86.1426C107.5 89.0788 109.117 94.3268 109.117 94.3268C111.066 98.7178 114.767 101.86 119.226 104.025C120.817 104.79 122.442 105.515 124.096 106.167C124.298 106.274 124.499 106.35 124.69 106.4C129.201 108.138 133.887 109.403 138.703 109.946C150.398 111.29 162.841 107.586 170.281 98.0595C173.979 93.3281 176.073 87.1387 175.142 81.1316ZM138.918 60.8522C137.855 57.4502 137.924 53.8503 139.261 50.483C140.275 47.9425 142.474 44.698 145.545 44.7805C149.201 44.8787 148.693 48.5557 148.058 51.1187C147.075 55.1232 146.056 59.1113 145.054 63.1143C142.642 63.0167 140.24 63.0513 137.837 63.2463C138.668 62.7964 139.242 61.9143 138.918 60.8522ZM114.246 94.7512C111.33 90.4107 111.296 84.4364 113.644 79.8313C114.502 78.1541 115.619 76.6579 116.914 75.3248C116.237 79.2474 116.418 83.2906 116.749 87.2529C117.069 91.0926 117.385 95.1716 119.119 98.6775C119.214 98.8862 119.326 99.1096 119.439 99.3139C117.376 98.0978 115.52 96.6391 114.246 94.7512ZM123.779 55.3071C128.274 54.6583 133.125 58.6621 134.87 62.4762C135.104 62.9956 135.492 63.3107 135.926 63.4671C132.728 63.8365 129.552 64.4357 126.444 65.2879C126.038 65.0932 125.541 65.0497 124.964 65.2549C124.683 65.3524 124.416 65.4781 124.136 65.5911C123.978 65.5707 123.817 65.5695 123.657 65.5934C123.528 65.415 123.385 65.2527 123.256 65.0743C122.843 64.4924 122.449 63.8964 122.096 63.2902C121.464 62.1786 120.937 60.9786 120.836 59.6889C120.677 57.6637 121.604 55.6247 123.779 55.3071ZM128.356 103.07C127.744 102.866 127.12 102.65 126.479 102.429C125.127 100.877 124.122 98.8038 123.197 96.996C121.682 94.0664 121.414 90.5904 121.139 87.3516C120.853 83.9303 120.556 80.2954 121.076 76.8978C121.316 75.3356 121.674 72.6654 122.47 71.1417C122.839 70.9469 123.224 70.7514 123.597 70.5685C123.888 70.6033 124.197 70.5835 124.549 70.4588C126.823 69.7026 129.182 69.0826 131.56 68.5956C128.521 73.4028 128.669 80.2716 128.791 85.6439C128.957 92.3672 130.779 98.9074 134.1 104.707C132.162 104.266 130.241 103.715 128.356 103.07ZM145.462 105.795C143.586 105.885 141.716 105.813 139.873 105.641C135.893 99.9725 133.473 93.3478 133.209 86.4041C133.083 83.1347 133.131 79.769 133.545 76.5137C133.907 73.5944 134.773 70.7889 137.147 68.8788C137.612 68.5099 137.825 68.0745 137.894 67.6527C142.44 67.2265 147.02 67.3443 151.499 68.0861C147.596 72.2753 147.893 80.111 149.505 85.0686C151.651 91.6134 156.581 96.8182 162.857 99.4065C157.992 103.337 151.691 105.524 145.462 105.795ZM168.973 92.001C168.237 93.4347 167.342 94.7475 166.333 95.9661C160.679 94.2626 155.93 90.0987 153.91 84.4765C152.385 80.2411 151.378 71.9216 156.7 69.798C156.906 69.7158 157.069 69.5877 157.222 69.4433C157.423 69.5096 157.642 69.556 157.846 69.6342C162.045 70.9723 166.442 73.2058 168.943 77.0087C171.911 81.512 171.38 87.3407 168.973 92.001Z" fill="#F3C424"/>
</g>
</g>
</g>
</svg>
