<svg width="87" height="165" viewBox="0 0 87 165" fill="none" xmlns="http://www.w3.org/2000/svg">
<path d="M33.7415 64.2063C32.8227 64.1909 31.8971 64.2132 30.9817 64.1532C30.3989 64.1155 29.8144 64.0795 29.2299 64.04C28.8236 64.0143 28.4122 64.0023 28.0077 63.9543C27.4728 63.8926 26.938 63.8326 26.4049 63.7692C25.7638 63.692 25.1245 63.6098 24.4851 63.5035C24.0102 63.4246 23.5337 63.3355 23.0606 63.2361C22.8858 63.1984 22.7126 63.1607 22.5378 63.1212C20.9745 62.7681 19.4386 62.2985 17.9593 61.6848C17.6781 61.5682 17.3987 61.4465 17.121 61.3197C16.0497 60.8277 15.0401 60.2106 14.0561 59.5644C13.2522 59.0381 12.4654 58.4673 11.7146 57.8673C10.8729 57.1937 10.0142 56.5372 9.19135 55.8378C8.27428 55.0561 7.38635 54.2402 6.54984 53.3711C5.71333 52.5003 4.99852 51.5439 4.33515 50.5359C2.99296 48.4961 1.82562 46.3242 1.06624 43.9964C0.303445 41.6566 0.00689905 39.1951 4.2421e-05 36.7404C-0.00510005 34.3131 0.457718 31.9133 1.16224 29.5974C1.6062 28.1353 2.20959 26.7451 2.81469 25.3446C3.19523 24.4619 3.65462 23.6202 4.09859 22.7666C4.53056 21.9369 5.02595 21.1501 5.51106 20.3513C6.00645 19.5354 6.5824 18.7657 7.1275 17.984C7.32463 17.6995 7.55433 17.4389 7.77031 17.1698C8.10972 16.7464 8.43541 16.3093 8.80224 15.9116C9.45705 15.1986 10.0947 14.4632 10.7769 13.7775C11.6375 12.9102 12.5477 12.0959 13.5076 11.3383C14.5532 10.5103 15.6743 9.7921 16.8074 9.09101C17.3096 8.78074 17.817 8.47217 18.3312 8.17905C18.5472 8.05563 18.7649 7.93392 18.9826 7.81564C19.754 7.3991 20.5151 6.95515 21.3019 6.56947C21.3447 6.54718 21.391 6.52491 21.4356 6.50434C22.3201 6.0758 23.1943 5.63354 24.1028 5.26156C24.5828 5.06444 25.061 4.86732 25.541 4.6719C25.9901 4.48849 26.4649 4.35136 26.9226 4.19194C28.7087 3.57142 30.5378 3.09658 32.3685 2.62347C33.1724 2.41606 33.9952 2.23094 34.8112 2.07838C35.2483 1.9961 35.6854 1.91384 36.1208 1.8367C36.6796 1.73557 37.2401 1.64124 37.8024 1.55725C38.3577 1.47497 38.9148 1.40131 39.4719 1.33445C40.8673 1.16475 42.266 1.04305 43.6699 0.957337C44.0333 0.936767 44.3967 0.919588 44.7601 0.907589C45.0327 0.504762 45.4698 0.216824 45.9806 0.167113C47.8405 -0.0145877 49.6952 -0.0540166 51.5585 0.0779735C52.4361 0.137969 53.3069 0.283678 54.1691 0.448237C55.1274 0.631652 56.0718 0.837307 57.0112 1.09957C57.7689 1.31213 58.5145 1.59155 59.2465 1.88467C59.3167 1.9121 59.387 1.93953 59.4573 1.96696C60.2938 2.30465 61.1098 2.68346 61.9051 3.11029C62.0851 3.20628 62.2651 3.30401 62.4434 3.40172C63.8678 4.1868 65.2614 5.0439 66.5145 6.0861C67.9852 7.31001 69.3377 8.63844 70.5702 10.0989C71.1873 10.8308 71.7512 11.592 72.2826 12.3856C72.3152 12.4353 72.3478 12.4816 72.3769 12.5313C72.8757 13.289 73.3163 14.0775 73.7482 14.8712C73.8562 15.07 73.9642 15.2723 74.0671 15.4745C74.811 16.9281 75.4247 18.4469 75.9818 19.9793C76.2955 20.8415 76.5475 21.7278 76.796 22.6106C77.0309 23.4454 77.2434 24.287 77.4148 25.1372C77.6205 26.1623 77.8125 27.1891 77.9205 28.2296C78.0182 29.1724 78.0576 30.1443 77.9805 31.0922C77.9394 31.5927 77.9154 32.0984 77.8451 32.5972C77.7148 33.5263 77.588 34.4639 77.3617 35.3759C77.2503 35.8216 77.1663 36.2844 77.0257 36.7215C76.8732 37.1946 76.7223 37.6677 76.5697 38.1391C76.4138 38.6259 76.1961 39.0973 76.0075 39.5705C75.8464 39.9716 75.651 40.3572 75.4641 40.7481C75.291 41.1097 75.1213 41.4697 74.9259 41.8194C74.6756 42.2634 74.451 42.7331 74.1734 43.1582C73.8871 43.5936 73.6008 44.0307 73.3163 44.4678C73.0712 44.8415 72.7986 45.1929 72.5278 45.5477C72.2912 45.8563 72.0649 46.1785 71.8112 46.4717C71.4256 46.9191 71.0399 47.3682 70.6525 47.8156C70.4245 48.0812 70.1777 48.3315 69.936 48.5852C69.8914 48.6298 69.8502 48.6743 69.8074 48.7206C69.504 49.0411 69.2109 49.3771 68.8955 49.684C68.3452 50.2136 67.8121 50.7639 67.2464 51.2764C67.1522 51.3621 67.0545 51.4478 66.955 51.5318C66.6413 51.801 66.3294 52.0787 66.0157 52.3529C65.618 52.7009 65.2169 53.0403 64.7952 53.3574C64.1215 53.8614 63.4633 54.3962 62.7656 54.8693C62.7142 54.9053 62.6611 54.9413 62.6079 54.9756C61.804 55.5087 61.0103 56.0675 60.1824 56.5612C59.3956 57.0291 58.6191 57.5245 57.8169 57.9633C57.0061 58.4056 56.2073 58.8753 55.3776 59.2798C54.5257 59.6964 53.684 60.1523 52.8029 60.5054C51.951 60.8465 51.1076 61.2168 50.2317 61.4928C49.3369 61.7757 48.4473 62.091 47.5371 62.3173C46.6474 62.5384 45.7595 62.7921 44.8578 62.9652C43.927 63.1452 42.998 63.3458 42.0586 63.4864C40.2142 63.7658 38.3663 64.0452 36.4979 64.1206C35.6682 64.1532 34.8369 64.2115 34.0072 64.2115C33.9164 64.2063 33.8289 64.2063 33.7415 64.2063ZM44.6298 4.27935C43.4231 4.35135 42.2146 4.41478 41.0147 4.55363C40.6153 4.59991 40.2159 4.64789 39.8165 4.69932C38.9783 4.80388 38.14 4.91702 37.3035 5.04044C37.0241 5.09187 36.7464 5.14502 36.467 5.19816C35.3545 5.40729 34.2421 5.6267 33.1467 5.90783C32.3959 6.10153 31.6434 6.29693 30.8926 6.49063C30.2035 6.66719 29.523 6.89004 28.8407 7.09745C28.1448 7.33743 27.4488 7.58252 26.7512 7.82422C26.4084 7.9425 26.0741 8.10192 25.7398 8.23905C25.4261 8.36762 25.109 8.49616 24.7936 8.62815C24.2074 8.9127 23.6194 9.19384 23.0332 9.4801C22.9612 9.51439 22.8926 9.54868 22.8223 9.58467C22.3869 9.80409 21.9635 10.0424 21.5367 10.2755C20.9762 10.5789 20.4174 10.8909 19.8637 11.2114C19.2329 11.5748 18.6055 11.9468 17.9867 12.3307C16.9753 12.9718 16.0017 13.6592 15.0709 14.4118C14.1744 15.1677 13.3225 15.975 12.5305 16.839C12.1174 17.2898 11.7043 17.7406 11.2929 18.1897C10.8112 18.788 10.3296 19.3862 9.84788 19.9862C9.62161 20.2656 9.43134 20.5827 9.22564 20.8792C9.0268 21.1638 8.82967 21.4466 8.63083 21.7312C8.19543 22.4529 7.75661 23.1728 7.32121 23.8928C7.09323 24.2699 6.90981 24.6847 6.70582 25.0755C6.52927 25.4132 6.35614 25.7475 6.18129 26.0834C5.69447 27.2131 5.19051 28.3341 4.76369 29.4877C4.39857 30.53 4.09002 31.5876 3.84661 32.6675C3.67691 33.4766 3.53978 34.2857 3.45407 35.1085C3.38207 36.029 3.37007 36.9495 3.39921 37.8717C3.44721 38.7425 3.53806 39.603 3.67348 40.4653C3.80547 41.1972 3.97175 41.9171 4.17744 42.6319C4.42257 43.4118 4.70883 44.1713 5.03966 44.9203C5.55905 46.0123 6.14529 47.0716 6.78125 48.1001C7.25264 48.8389 7.73946 49.5709 8.28971 50.2548C8.89652 50.9593 9.54961 51.621 10.2301 52.2552C11.0444 52.9923 11.8894 53.6831 12.7482 54.3688C13.631 55.075 14.5155 55.771 15.4377 56.4241C16.264 56.9914 17.1159 57.5211 18.0004 57.9925C18.7666 58.373 19.5517 58.7022 20.3522 58.9953C21.4184 59.3638 22.5052 59.6535 23.6057 59.9003C24.5931 60.1077 25.5856 60.274 26.5866 60.3906C27.2191 60.4643 27.85 60.538 28.4808 60.6117C29.2316 60.6597 29.9807 60.7077 30.728 60.7557C31.364 60.7968 31.9982 60.8003 32.6359 60.8106C33.2513 60.8209 33.8667 60.8483 34.482 60.8243C35.2448 60.7934 36.0076 60.7626 36.7704 60.7317C37.6481 60.6443 38.5257 60.5586 39.4017 60.4712C39.8353 60.4283 40.2673 60.3409 40.6976 60.2757C41.0867 60.2174 41.4741 60.1575 41.8632 60.1009C42.2643 60.0238 42.6671 59.9467 43.0682 59.8678C43.5019 59.7855 43.9459 59.722 44.3727 59.6175C45.2829 59.3912 46.1914 59.1667 47.1017 58.9404C47.9039 58.685 48.7095 58.4313 49.5118 58.1776C49.8906 58.0593 50.2591 57.8811 50.626 57.732C51.0202 57.5743 51.4128 57.4182 51.8053 57.2605C52.4241 56.9588 53.0446 56.6554 53.6652 56.352C54.188 56.0966 54.6954 55.8104 55.2062 55.5327C56.3667 54.8984 57.4997 54.2248 58.6345 53.5494C59.3767 53.0609 60.119 52.5689 60.8612 52.0787C61.2143 51.8455 61.5434 51.5678 61.8828 51.3141C62.2531 51.0347 62.6251 50.7587 62.997 50.4811L63.0005 50.4776C63.201 50.3062 63.4016 50.1348 63.6021 49.9616C64.2398 49.4148 64.874 48.8646 65.4791 48.2801C65.8837 47.891 66.3037 47.5121 66.6893 47.1042C67.1333 46.6345 67.5773 46.1631 68.0212 45.6917C68.4292 45.2169 68.8372 44.7438 69.2451 44.269C69.6377 43.813 69.9805 43.3107 70.3439 42.8307C70.6508 42.3611 70.9576 41.8914 71.2661 41.4235C71.4016 41.2143 71.513 40.9863 71.6347 40.7703C71.7924 40.4841 71.9535 40.2012 72.1129 39.915C72.3375 39.4453 72.562 38.9756 72.7866 38.506C73.0026 38.0569 73.1654 37.5752 73.3471 37.1072C73.4877 36.6684 73.63 36.2295 73.7705 35.7907C73.9077 35.3605 73.9951 34.9079 74.1014 34.4691C74.1802 34.0526 74.2591 33.6343 74.3379 33.2177C74.4202 32.7823 74.4631 32.3401 74.5248 31.9013C74.5882 31.1128 74.6379 30.3328 74.6225 29.5392C74.5745 28.6615 74.4528 27.8044 74.3259 26.9371C74.1768 26.1948 74.0276 25.4544 73.8477 24.7173C73.6745 24.0093 73.4791 23.3116 73.282 22.6106C73.0077 21.7603 72.7215 20.9187 72.4146 20.0788C72.1335 19.3005 71.7787 18.5463 71.4324 17.7955C71.3039 17.5384 71.177 17.2795 71.0467 17.0224C70.913 16.7567 70.7776 16.4927 70.6353 16.2322C70.3354 15.6802 70.0199 15.142 69.6994 14.6054C69.5845 14.434 69.4714 14.2626 69.3566 14.0929C69.2589 13.9472 69.1594 13.798 69.06 13.6523C68.8303 13.3095 68.5595 12.9873 68.3092 12.6564C67.9304 12.2073 67.5516 11.7617 67.1505 11.328C66.7099 10.8514 66.2539 10.3989 65.7928 9.94463C65.414 9.60009 65.0352 9.25558 64.6409 8.92989C64.2107 8.57334 63.7701 8.23733 63.3244 7.90478C62.8085 7.55852 62.2908 7.22426 61.7629 6.90029C61.2469 6.58145 60.7052 6.30206 60.1704 6.0158C60.155 6.00723 60.1378 5.99868 60.1207 5.99011C59.6339 5.74499 59.1436 5.51353 58.6448 5.28898C58.1186 5.05071 57.5666 4.85533 57.0215 4.6582C56.9992 4.65134 56.9786 4.6445 56.9546 4.63764C56.5775 4.51422 56.2021 4.38737 55.8182 4.28281C55.3845 4.1611 54.9525 4.05993 54.5154 3.96051C53.4749 3.76167 52.4378 3.57825 51.3836 3.45654C51.2294 3.44626 51.0751 3.4377 50.9191 3.42913C50.6225 3.96909 50.0414 4.34105 49.3952 4.3222C48.377 4.28963 47.3639 4.27078 46.3491 4.27078C45.7766 4.26049 45.2041 4.26564 44.6298 4.27935Z" fill="black"/>
<path d="M30.7062 29.4654C30.6222 27.5953 30.8348 25.744 31.0662 23.8893C31.2873 22.1134 31.5256 20.341 31.7193 18.56C31.7399 18.1931 31.7536 17.8298 31.7536 17.4629C31.7536 16.5407 32.5798 15.7916 33.4832 15.8122C34.4191 15.8328 35.1339 16.6213 35.1339 17.5418C35.1339 19.0931 34.8939 20.6427 34.6934 22.1786C34.4877 23.7539 34.2785 25.3292 34.1277 26.9114C34.0831 27.6056 34.0505 28.2981 34.0625 28.9941C34.0643 29.0335 34.0643 29.0729 34.0677 29.1123C34.0883 29.5632 33.9957 29.9831 33.7077 30.3414C33.4283 30.6945 33.0101 30.9225 32.5627 30.9705C32.5095 30.9774 32.4564 30.979 32.4032 30.979C31.5787 30.979 30.7439 30.3311 30.7062 29.4654Z" fill="black"/>
<path d="M41.6395 32.0744C40.755 31.9407 40.0505 31.0528 40.2236 30.1477C40.9693 26.2343 41.9326 22.3672 42.812 18.4829C43.0348 17.3944 43.2594 16.3093 43.4239 15.2089C43.4548 14.3106 44.2639 13.589 45.1518 13.6078C46.0877 13.6301 46.8025 14.4169 46.8025 15.3374C46.8025 15.8242 46.6722 16.3367 46.5865 16.815C46.5025 17.3001 46.4031 17.7801 46.3037 18.2618C46.0911 19.3023 45.8529 20.3376 45.618 21.373C45.1724 23.3494 44.6975 25.319 44.2621 27.2988C44.0204 28.4165 43.7805 29.5358 43.5662 30.6586C43.4085 31.4814 42.7228 32.095 41.8949 32.095C41.8126 32.0933 41.7269 32.0881 41.6395 32.0744Z" fill="black"/>
<path d="M36.5619 43.412C34.6763 43.2269 32.8028 42.8446 31.0149 42.2138C30.2178 41.9327 29.4533 41.5949 28.7111 41.1904C28.01 40.8082 27.3894 40.3162 26.8032 39.778C26.2598 39.2757 25.8073 38.6723 25.4319 38.0381C25.1799 37.6113 24.9416 37.1039 24.8868 36.6102C24.7856 35.6948 25.4782 34.8463 26.3918 34.7521C27.2215 34.6646 27.986 35.2149 28.2002 35.9965C28.2174 36.0377 28.2328 36.0788 28.25 36.12C28.3117 36.2468 28.3768 36.372 28.4471 36.4971C28.5568 36.6548 28.6682 36.8108 28.7899 36.9616C28.9545 37.1467 29.1259 37.3216 29.3042 37.4913C29.4704 37.6335 29.6401 37.769 29.8184 37.8975C30.0875 38.0758 30.3618 38.2404 30.6446 38.3964C31.1057 38.6226 31.5754 38.8198 32.0554 38.9997C32.8199 39.2654 33.5981 39.4763 34.3866 39.658C35.2591 39.838 36.1351 39.9734 37.0213 40.0625C37.7327 40.1191 38.4406 40.1465 39.1537 40.1294C39.5771 40.1037 39.9919 40.0625 40.4102 39.9991C40.8439 39.9151 41.2707 39.8174 41.6958 39.6974C42.1175 39.5637 42.5289 39.4111 42.9369 39.2397C43.2968 39.0683 43.6414 38.8832 43.9842 38.6792C44.2962 38.4735 44.5979 38.2558 44.891 38.0227C45.2853 37.6798 45.6538 37.3147 46.0155 36.9359C46.3617 36.5588 46.7011 36.1799 47.0097 35.7703C47.2222 35.4429 47.4142 35.1069 47.5994 34.7658C47.8274 34.2875 48.0382 33.8076 48.2285 33.3122C48.2405 33.2762 48.2525 33.2402 48.2662 33.2059C48.4222 32.7705 48.6741 32.4088 49.0907 32.1842C49.4764 31.9768 49.9375 31.9271 50.3574 32.0488C51.2008 32.2905 51.8265 33.2728 51.5162 34.1401C50.9403 35.7583 50.21 37.2925 49.0718 38.5952C48.3005 39.478 47.4742 40.3111 46.5417 41.0224C45.1121 42.1126 43.398 42.7983 41.6581 43.1977C40.6553 43.4257 39.6337 43.5166 38.6103 43.5166C37.9264 43.5183 37.2407 43.4771 36.5619 43.412Z" fill="black"/>
<path d="M13.0036 81.036C12.1105 81.036 11.2037 80.9914 10.4683 80.4051C10.1752 80.172 9.95407 79.896 9.78951 79.5909C9.4244 78.9155 9.3404 78.103 9.38326 77.3197C9.41583 76.718 9.47582 76.118 9.56667 75.5215C9.67295 74.8221 9.8495 74.1159 10.0912 73.4405C10.2232 73.0703 10.3758 72.7085 10.5489 72.3623C10.7546 71.9492 11.0614 71.62 11.502 71.4538C11.5328 71.4418 11.562 71.4315 11.5928 71.423C11.8876 71.3287 12.2065 71.3201 12.5047 71.3921C12.6916 70.7527 13.2555 70.2573 13.9515 70.1733C16.9084 69.8185 19.8773 69.5031 22.8445 69.2254C23.4239 69.1705 24.0033 69.1191 24.5827 69.0677C24.9855 69.0317 25.3883 68.9957 25.7912 68.9614C27.3579 68.8226 28.9247 68.682 30.4914 68.538C32.4867 68.3529 34.4785 68.1386 36.4704 67.9175C39.945 67.5352 43.4024 67.009 46.8736 66.5959C50.5985 66.1536 54.325 65.7525 58.0568 65.3805C60.22 65.1645 62.3833 64.9383 64.5466 64.7189C65.6608 64.6057 66.7767 64.4943 67.8926 64.3881C68.1806 64.3589 68.4703 64.3315 68.7582 64.304C69.2965 64.2543 69.833 64.2269 70.373 64.2886C71.3466 64.4 72.1557 65.2726 72.2568 66.2342C72.2843 66.493 72.2688 66.7501 72.2191 67.0055C72.0957 67.6878 71.7495 68.3443 71.4203 68.9254C70.9798 69.6985 70.4176 70.3962 69.809 71.0458C69.6188 71.2515 69.4233 71.4487 69.2262 71.6441C67.848 73.0051 66.1956 74.0148 64.5208 74.961C63.758 75.3929 62.961 75.7752 62.1519 76.1146C61.7628 76.2792 61.3771 76.4643 60.9794 76.6014C60.4514 76.7814 59.9218 76.9631 59.3921 77.1448C59.0064 77.2768 58.607 77.3728 58.2127 77.4825C57.8133 77.5922 57.4174 77.7139 57.0128 77.8065C55.1735 78.2385 53.3274 78.6378 51.459 78.919C49.6471 79.1898 47.8318 79.4589 46.008 79.6321C44.1498 79.8086 42.2916 79.9526 40.4284 80.0846C38.6799 80.208 36.9315 80.3486 35.1813 80.4548C33.3352 80.5662 31.489 80.6554 29.6395 80.7274C26.0037 80.8714 22.3663 80.9571 18.7288 80.9982C17.5101 81.012 16.293 81.0222 15.076 81.0308C14.4897 81.0342 13.9035 81.0376 13.3172 81.0394C13.259 81.0394 13.199 81.0394 13.1407 81.0411C13.0927 81.0359 13.0481 81.036 13.0036 81.036ZM13.6549 73.7028C13.5298 73.953 13.4184 74.2084 13.3172 74.4707C13.1887 74.8461 13.0841 75.2266 12.9916 75.614C12.9076 76.0392 12.8459 76.466 12.7996 76.898C12.779 77.1517 12.7619 77.407 12.755 77.6607C13.343 77.6762 13.9326 77.6505 14.5189 77.647C15.2011 77.6453 15.8851 77.6385 16.5673 77.6333C18.0209 77.623 19.4728 77.6042 20.9264 77.5854C23.813 77.5477 26.6997 77.4602 29.5846 77.3471C31.3588 77.2734 33.1295 77.1894 34.9019 77.0814C36.6692 76.9751 38.4348 76.8311 40.2021 76.706C42.0277 76.5757 43.8498 76.4334 45.6737 76.2603C47.4856 76.0872 49.2871 75.8198 51.087 75.5524C52.2458 75.3552 53.4148 75.1718 54.5582 74.9027C55.1667 74.7604 55.7872 74.6387 56.3906 74.4724C57.0008 74.3044 57.6094 74.1347 58.2196 73.9685C58.7579 73.785 59.2944 73.5999 59.8326 73.4182C60.3212 73.252 60.7943 73.0188 61.2691 72.8166C61.6994 72.6109 62.145 72.4189 62.5599 72.1841C63.2181 71.8104 63.8763 71.4418 64.5208 71.0441C65.0797 70.6807 65.6179 70.295 66.139 69.8785C66.5881 69.4928 67.0149 69.0865 67.4212 68.6563C67.6818 68.3632 67.9252 68.0597 68.1549 67.7443C67.0509 67.8489 65.947 67.9775 64.8465 68.0889C63.0741 68.2706 61.3017 68.4489 59.5275 68.6254C55.6552 69.0128 51.7847 69.4105 47.9209 69.8699C46.1571 70.0791 44.3949 70.3173 42.6345 70.5453C40.9478 70.763 39.2627 71.0064 37.5726 71.1933C35.7076 71.399 33.8426 71.6201 31.9741 71.7915C29.9103 71.9835 27.8482 72.1703 25.7843 72.352C21.9549 72.6897 18.1272 73.0737 14.3097 73.5331C14.116 73.5571 13.9241 73.5434 13.7424 73.4988C13.7149 73.5674 13.6892 73.6359 13.6549 73.7028Z" fill="black"/>
<path d="M42.2519 141.582C40.4846 141.563 38.7156 141.42 36.9535 141.276C35.3096 141.143 33.6692 140.975 32.0304 140.783C31.7373 140.749 31.4459 140.713 31.1528 140.677C30.3008 140.572 29.4523 140.443 28.6055 140.305C27.6216 140.145 26.6394 139.97 25.6555 139.804C23.8745 139.501 22.0952 139.204 20.309 138.925C19.1228 138.738 17.9023 138.585 16.7641 138.196C15.9002 137.903 15.11 137.365 14.7757 136.48C14.5854 135.976 14.5614 135.402 14.5032 134.871C14.3215 133.223 14.114 131.58 13.9203 129.932C13.4867 126.317 13.2484 122.678 12.9501 119.051C12.6604 115.537 12.3365 112.026 12.0279 108.514C12.0108 108.312 11.9919 108.111 11.9748 107.909C11.8256 106.205 11.6954 104.501 11.5668 102.797C11.428 100.965 11.2943 99.1288 11.1486 97.2964C10.8417 93.4447 10.4852 89.6015 10.1269 85.755C10.0429 84.8585 9.96921 83.9619 9.88865 83.0637C9.84408 82.5375 9.81494 82.0112 9.77723 81.485C9.76351 81.2879 9.75666 81.0907 9.74809 80.8936C9.73438 80.5953 9.69495 80.2782 9.72237 79.9817C9.73437 79.8462 9.75666 79.716 9.79265 79.5891C9.93493 79.0714 10.276 78.6429 10.8109 78.4389C11.0594 78.3446 11.3371 78.3138 11.6079 78.3447C11.7039 78.3532 11.7931 78.3721 11.8805 78.3978C12.2456 78.4955 12.5782 78.7098 12.7804 79.0303C12.765 79.0132 12.7496 78.9926 12.7341 78.9754C12.7033 78.936 12.6707 78.8966 12.6382 78.8589C12.6364 78.8572 12.633 78.8555 12.6279 78.8538C12.6656 78.8915 12.6999 78.9326 12.7341 78.9754C12.9758 79.2806 13.1164 79.6663 13.1078 80.0674C13.1078 80.124 13.1027 80.1805 13.0976 80.2371C13.1096 80.5045 13.1233 80.7702 13.1404 81.0359C13.3255 84.3117 13.7129 87.5737 13.9992 90.8426C14.3215 94.5314 14.606 98.2238 14.8888 101.916C15.0191 103.635 15.1597 105.353 15.3054 107.07C15.4494 108.774 15.5985 110.478 15.7494 112.182C15.7785 112.513 15.8076 112.846 15.8368 113.176C16.1642 116.893 16.4659 120.611 16.7727 124.33C16.9304 126.267 17.1155 128.201 17.3487 130.131C17.4567 131.043 17.5732 131.957 17.6812 132.869C17.7652 133.583 17.8269 134.303 17.9195 135.016C18.1012 135.075 18.2863 135.126 18.4766 135.172C19.9165 135.472 21.3855 135.664 22.8357 135.903C24.3476 136.149 25.8543 136.407 27.3628 136.664C28.7735 136.904 30.186 137.12 31.6036 137.324C33.0281 137.531 34.4611 137.658 35.8941 137.802C37.5192 137.936 39.1459 138.088 40.7726 138.145C41.6434 138.176 42.5108 138.2 43.3799 138.21C44.1907 138.218 45.0015 138.196 45.8123 138.179C46.9642 138.112 48.1109 138.032 49.2594 137.929C50.3393 137.833 51.4158 137.661 52.4906 137.499C54.2202 137.197 55.9429 136.857 57.6468 136.425C58.0119 136.333 58.3753 136.239 58.737 136.144C59.4364 135.963 60.1358 135.779 60.8334 135.587C61.5568 135.388 62.2767 135.183 62.995 134.968C64.2154 134.586 65.4119 134.161 66.5844 133.657C68.4751 132.779 70.3196 131.801 72.0971 130.714C72.2909 130.59 72.4743 130.465 72.6577 130.328C72.668 130.318 72.6765 130.308 72.6868 130.296C72.7125 130.263 72.7365 130.231 72.7605 130.2C72.7708 130.184 72.7794 130.169 72.7897 130.153C72.7948 130.14 72.7999 130.126 72.8051 130.111C72.8634 129.929 72.9079 129.744 72.9456 129.559C72.9302 129.631 72.9131 129.699 72.8977 129.771C72.9508 129.466 72.9919 129.164 73.0245 128.856C73.1702 126.999 73.1325 125.139 73.0965 123.28C73.0571 121.468 73.0176 119.656 72.9885 117.842C72.9594 116.049 72.9645 114.256 72.9594 112.463C72.9542 110.696 72.8994 108.932 72.836 107.166C72.836 107.163 72.836 107.161 72.836 107.158C72.7537 105.262 72.656 103.368 72.5325 101.474C72.524 101.328 72.5137 101.184 72.5017 101.038C72.3834 99.3619 72.2189 97.6889 72.0714 96.0159C72.0714 96.009 72.0697 96.0022 72.0697 95.9953C71.756 92.3733 71.4458 88.7513 71.1166 85.131C70.8681 82.4226 70.6093 79.7143 70.3658 77.0059C70.1841 75.0209 70.0556 73.0222 69.8122 71.0406C69.747 70.4972 69.6716 69.9556 69.5859 69.4173C69.5413 69.1602 69.4933 68.9048 69.4453 68.6494C69.2705 67.746 69.7728 66.8323 70.6967 66.6146C71.2298 66.4878 71.8109 66.6489 72.2206 67.0021C72.476 67.2232 72.6662 67.5197 72.7331 67.8677C73.357 71.1161 73.5096 74.4346 73.8267 77.7207C74.1781 81.3821 74.5055 85.0453 74.8227 88.7067C74.8964 89.5518 74.9718 90.3969 75.0472 91.242C75.2169 93.131 75.3883 95.0182 75.5495 96.9072C75.6215 97.7283 75.69 98.5494 75.7552 99.3705C76.0568 103.152 76.2283 106.939 76.3208 110.73C76.3654 112.549 76.3448 114.371 76.3534 116.19C76.362 117.979 76.3928 119.771 76.4357 121.56C76.4802 123.513 76.5282 125.462 76.4905 127.414C76.482 127.843 76.4477 128.271 76.422 128.7C76.3637 129.694 76.2591 130.75 75.8152 131.655C75.4895 132.325 74.9649 132.875 74.3461 133.283C73.9844 133.523 73.6125 133.753 73.2371 133.974C71.8229 134.806 70.3847 135.594 68.9054 136.302C67.2564 137.092 65.5611 137.725 63.8126 138.251C63.5709 138.323 63.3292 138.395 63.0875 138.465C61.9322 138.805 60.77 139.125 59.6027 139.424C57.5045 139.962 55.3892 140.425 53.2568 140.793C51.493 141.098 49.6965 141.34 47.907 141.443C46.9453 141.498 45.9871 141.554 45.022 141.577C44.5883 141.585 44.1581 141.59 43.7244 141.59C43.2342 141.59 42.7439 141.585 42.2519 141.582Z" fill="black"/>
<path d="M35.7719 109.541C34.7074 109.539 33.6429 109.534 32.5801 109.524C30.8351 109.508 29.0901 109.422 27.3468 109.361C26.4777 109.33 25.6086 109.301 24.7396 109.278C24.3384 109.268 23.939 109.258 23.5396 109.253C23.3699 109.249 23.202 109.244 23.0305 109.239C22.5557 109.222 22.1186 109.128 21.6866 108.932C20.2347 108.274 19.8285 106.507 19.6057 105.079C19.4668 104.198 19.3931 103.312 19.3348 102.424C19.1891 100.156 19.1617 97.8811 19.1257 95.6098C19.1103 94.6019 19.0914 93.5939 19.0863 92.586C19.0828 92.0941 19.1068 91.6055 19.1514 91.1153C19.1943 90.6524 19.3485 90.2291 19.5628 89.8211C19.7908 89.3874 20.2159 89.1217 20.6804 89.036C20.8416 88.2595 21.5581 87.6459 22.3757 87.6784C22.8677 87.699 23.3597 87.723 23.8533 87.7332C24.4413 87.747 25.0275 87.7281 25.6138 87.7161C29.3318 87.5344 33.0412 87.2584 36.7455 86.9002C38.4048 86.7408 40.0573 86.5316 41.7149 86.3551C43.6056 86.1562 45.498 85.9677 47.3922 85.7997C49.1354 85.6454 50.8788 85.5083 52.6203 85.3317C53.0369 85.2889 53.4534 85.2477 53.8682 85.1997C54.4785 85.1294 55.1007 85.0197 55.7041 85.1911C57.5108 85.7071 57.8999 87.8087 58.0902 89.4183C58.5273 93.1414 58.5942 96.9005 58.6542 100.646C58.6679 101.512 58.6782 102.379 58.6867 103.245C58.6902 103.603 58.7124 103.973 58.7022 104.338V104.34C58.697 104.541 58.6833 104.741 58.649 104.937C58.5753 105.384 58.4742 105.878 58.2188 106.265C58.0885 106.46 57.9685 106.658 57.8005 106.824C57.7885 106.836 57.7748 106.848 57.7645 106.86C57.5554 107.059 57.3377 107.23 57.0926 107.386C57.0874 107.389 57.084 107.393 57.0789 107.395C56.2406 107.928 55.2773 108.197 54.3208 108.428C53.5288 108.62 52.7283 108.747 51.9244 108.859C50.9473 108.994 49.9702 109.088 48.9863 109.184C48.3452 109.246 47.699 109.294 47.051 109.332C45.9728 109.395 44.8895 109.429 43.813 109.455C41.8366 109.503 39.8619 109.532 37.8871 109.539C37.8032 109.539 37.7192 109.541 37.6369 109.539C37.2118 109.542 36.7884 109.542 36.3615 109.542C36.161 109.542 35.9673 109.543 35.7719 109.541ZM22.5197 91.4427V91.4478L22.518 91.4513C22.5077 91.5147 22.4991 91.5798 22.4923 91.645C22.4512 92.2706 22.4666 92.898 22.4734 93.5237C22.482 94.2796 22.494 95.0356 22.5043 95.7898C22.5317 97.468 22.5677 99.1461 22.6294 100.824C22.6963 102.173 22.7854 103.514 22.986 104.851C23.0408 105.099 23.094 105.344 23.1591 105.59C23.19 105.682 23.2225 105.773 23.2568 105.864C24.8253 105.917 26.3971 105.941 27.9639 105.999C29.738 106.066 31.5105 106.133 33.2846 106.148C36.9598 106.181 40.6315 106.15 44.3049 106.063C45.6437 106.004 46.9808 105.934 48.3195 105.843C49.6291 105.752 50.9285 105.581 52.2295 105.401C52.8672 105.288 53.498 105.156 54.1236 104.986C54.2111 104.962 54.2985 104.938 54.3859 104.913C54.6036 104.839 54.8179 104.758 55.0304 104.669C55.1161 104.626 55.2001 104.582 55.2807 104.534L55.2859 104.53C55.2893 104.511 55.2927 104.491 55.2961 104.47C55.3441 103.641 55.2996 102.799 55.2876 101.969C55.2859 101.837 55.2841 101.707 55.2824 101.575C55.2738 100.948 55.2653 100.32 55.255 99.6929C55.2327 98.1999 55.1881 96.7086 55.135 95.2173C55.039 93.2237 54.9584 91.2113 54.6533 89.2383C54.6088 88.9983 54.5573 88.76 54.4956 88.5235C53.8271 88.5938 53.1586 88.6761 52.4883 88.7412C51.6055 88.8269 50.7245 88.9057 49.8434 88.9829C47.9835 89.144 46.1271 89.3034 44.269 89.4851C40.7326 89.8314 37.2083 90.2993 33.6652 90.5788C31.6356 90.7382 29.6043 90.8701 27.5713 90.997C26.6508 91.0553 25.7269 91.0913 24.8047 91.1084C24.083 91.1221 23.3682 91.0981 22.6483 91.0707C22.6209 91.1975 22.5763 91.3227 22.5197 91.4427Z" fill="black"/>
<path d="M29.7573 119.52C26.6581 118.228 23.456 117.114 20.5283 115.448C20.146 115.232 19.75 115.029 19.3798 114.795C18.9495 114.52 18.5193 114.248 18.0873 113.973C17.6348 113.687 17.2148 113.341 16.7828 113.026C16.4006 112.746 16.044 112.429 15.6806 112.129C14.2819 110.975 13.0631 109.628 11.8289 108.305C11.2341 107.669 10.6582 107.012 10.1028 106.345C9.12741 105.171 8.15376 104.006 7.30011 102.737C6.03506 100.858 5.01171 98.786 4.42033 96.5919C4.1872 95.728 3.93008 94.8675 3.74667 93.9915C3.42783 92.4573 3.11414 90.9352 2.93415 89.377C2.65303 86.9309 2.69932 84.4231 3.22556 82.0113C3.49811 80.772 3.75867 79.5377 4.12721 78.3207C4.4649 77.2048 4.87458 76.1026 5.34597 75.0364C5.88079 73.8279 6.55446 72.6725 7.2744 71.5652C7.8675 70.6532 8.52059 69.7585 9.25082 68.9494C9.69308 68.4574 10.137 67.9655 10.581 67.4735C11.9712 65.9342 13.5825 64.5766 15.2984 63.4127C15.7715 63.0921 16.2446 62.7698 16.7177 62.4476C17.2268 62.103 17.7736 61.8048 18.2981 61.4894C18.7095 61.2425 19.1312 61.0146 19.5495 60.7814C20.1683 60.4369 20.8642 60.0769 21.5893 60.0769C22.5098 60.0769 23.2623 60.9014 23.2401 61.8065C23.2212 62.631 22.6093 63.2841 21.8345 63.4264C21.795 63.4418 21.7573 63.4572 21.7179 63.4744C20.65 63.98 19.642 64.6211 18.6324 65.2331C18.1816 65.5399 17.729 65.8468 17.2782 66.1536C16.572 66.6336 15.8949 67.1461 15.2367 67.6878C14.5407 68.2843 13.8808 68.9151 13.238 69.5682C12.9054 69.9368 12.5729 70.3053 12.2386 70.6756C11.5958 71.3869 10.9976 72.1326 10.4405 72.9125C9.8405 73.7936 9.29711 74.7072 8.8 75.6517C8.41774 76.4231 8.0852 77.2133 7.78865 78.0224C7.44067 79.0081 7.12012 80.0057 6.89728 81.0308C6.77215 81.6033 6.64531 82.1792 6.52017 82.7518C6.39675 83.4392 6.28705 84.1317 6.21505 84.8259C6.15677 85.6093 6.13963 86.391 6.15677 87.1761C6.21334 88.3965 6.35561 89.605 6.55103 90.8101C6.7173 91.7426 6.92643 92.6665 7.12013 93.5956C7.18526 93.9093 7.28297 94.2161 7.36525 94.5246C7.48353 94.9652 7.60352 95.4057 7.7218 95.8462C7.96178 96.6056 8.22576 97.3513 8.54459 98.0832C8.90971 98.858 9.31596 99.6054 9.76507 100.334C10.713 101.8 11.8152 103.13 12.9277 104.468C13.7093 105.341 14.4927 106.21 15.2932 107.067C15.6703 107.472 16.0595 107.866 16.4451 108.264C16.7691 108.598 17.1205 108.906 17.4634 109.222C17.885 109.57 18.3033 109.914 18.7233 110.261C19.0935 110.566 19.4998 110.837 19.8923 111.118C20.47 111.486 21.0442 111.858 21.639 112.196C22.227 112.53 22.8218 112.846 23.4183 113.159C24.7502 113.8 26.0976 114.392 27.4672 114.951C28.6774 115.444 29.8927 115.921 31.0995 116.423C31.9497 116.778 32.3405 117.81 31.9788 118.646C31.7029 119.284 31.0721 119.658 30.4155 119.658C30.1944 119.652 29.9698 119.61 29.7573 119.52Z" fill="black"/>
<path d="M7.78788 78.0225C7.78632 78.0256 7.78476 78.0303 7.7832 78.0334C7.78476 78.0303 7.78476 78.0256 7.78788 78.0225Z" fill="black"/>
<path d="M24.8778 127.505C23.8218 125.988 22.9013 124.365 22.0751 122.712C21.6312 121.821 21.2369 120.909 20.8581 119.987C20.4827 119.073 20.1484 118.141 19.761 117.23C19.7919 117.297 19.821 117.366 19.8519 117.431C19.7781 117.256 19.6942 117.086 19.5982 116.922C19.6376 116.985 19.677 117.049 19.7164 117.112C19.4953 116.762 19.3496 116.423 19.3496 116C19.3496 115.077 20.1741 114.328 21.0792 114.349C21.7289 114.363 22.2722 114.748 22.5431 115.288C22.5414 115.281 22.5397 115.274 22.5362 115.268C22.8499 115.811 23.0745 116.392 23.3059 116.975C23.491 117.439 23.671 117.907 23.8527 118.374C24.1544 119.154 24.4921 119.915 24.8366 120.676C25.5154 122.035 26.2405 123.36 27.0376 124.656C27.2262 124.947 27.4181 125.239 27.6187 125.525C28.1449 126.281 27.9958 127.337 27.2399 127.886C26.9485 128.096 26.5988 128.199 26.2508 128.199C25.7211 128.199 25.1949 127.961 24.8778 127.505Z" fill="black"/>
<path d="M20.444 115.456C20.1286 114.623 20.5503 113.566 21.4245 113.274C22.597 112.885 23.8038 112.57 25.0003 112.261C26.3356 111.916 27.6761 111.596 29.0148 111.274C31.4935 110.679 33.9585 110.022 36.4217 109.369C37.3114 109.133 38.249 109.745 38.4581 110.622C38.6741 111.536 38.093 112.422 37.2034 112.659C34.7727 113.303 32.3369 113.931 29.8959 114.539C28.7234 114.832 27.5424 115.096 26.3699 115.4C25.1563 115.713 23.9478 116.043 22.7462 116.397C22.705 116.411 22.6639 116.423 22.6227 116.437C22.4308 116.5 22.2319 116.531 22.0365 116.531C21.3525 116.533 20.7063 116.149 20.444 115.456Z" fill="black"/>
<path d="M30.3388 125.354C29.1646 124.409 28.0161 123.429 26.9225 122.392C25.8529 121.377 24.8038 120.338 23.7393 119.318C23.7942 119.37 23.8524 119.421 23.909 119.472C23.609 119.2 23.3142 118.917 23.0039 118.655C22.5411 118.261 21.9994 117.89 21.8692 117.253C21.684 116.351 22.2051 115.434 23.1222 115.216C23.6982 115.081 24.3187 115.276 24.7284 115.684C26.4014 117.1 27.9236 118.686 29.5126 120.194C30.4674 121.06 31.441 121.901 32.4455 122.709C33.162 123.286 33.2923 124.363 32.7146 125.085C32.3838 125.498 31.8833 125.715 31.3827 125.715C31.0142 125.715 30.6422 125.599 30.3388 125.354Z" fill="black"/>
<path d="M59.7868 109.505C59.264 108.783 59.396 107.65 60.1657 107.143C61.9518 105.967 63.6848 104.702 65.363 103.377C65.9801 102.857 66.6023 102.34 67.1783 101.776C67.5125 101.45 67.8657 101.133 68.1845 100.792C68.4947 100.461 68.805 100.13 69.117 99.7991C69.5918 99.2403 70.0684 98.6849 70.5226 98.1055C70.9854 97.5159 71.4277 96.9125 71.8699 96.3074C72.4647 95.4452 73.0681 94.5846 73.6115 93.6864C73.9201 93.1773 74.2475 92.6751 74.5372 92.1574C74.8577 91.5832 75.1817 91.0089 75.5022 90.433C75.9068 89.6359 76.3147 88.8439 76.6816 88.0297C76.8787 87.5978 77.093 87.1692 77.261 86.7253C77.4547 86.223 77.6449 85.7207 77.8352 85.2185C78.01 84.6494 78.1849 84.0803 78.3597 83.5112C78.454 83.2027 78.5123 82.8752 78.5877 82.5616C78.6546 82.2941 78.718 82.0233 78.7831 81.7525C78.9014 81.0925 79.0163 80.4309 79.1311 79.7709C79.1928 79.4212 79.21 79.0578 79.2494 78.703C79.2854 78.391 79.3214 78.0773 79.3557 77.7671C79.3882 77.0763 79.4225 76.3855 79.4551 75.6929C79.4705 75.3347 79.4465 74.9696 79.4414 74.6113C79.4396 74.2856 79.4328 73.9582 79.4294 73.6325C79.3814 72.964 79.3334 72.2937 79.2871 71.6235C79.2631 71.2995 79.2065 70.9756 79.1671 70.655C79.1225 70.2848 79.078 69.9145 79.03 69.5425C78.9683 69.1911 78.9065 68.8415 78.8431 68.4901C78.7848 68.1644 78.742 67.8318 78.6666 67.5113C78.4214 66.4948 78.19 65.4783 77.8901 64.4772C77.5421 63.375 77.1358 62.2985 76.6696 61.2409C76.1519 60.1233 75.5656 59.0433 74.9211 57.9925C74.3092 57.0309 73.6578 56.0984 72.9378 55.2156C72.4802 54.6808 72.0019 54.1717 71.4911 53.6866C71.0163 53.2632 70.5243 52.8672 70.0084 52.4952C69.6552 52.2621 69.297 52.0444 68.925 51.8439C68.7862 51.777 68.6439 51.7136 68.4999 51.6587C68.3593 51.6742 68.2136 51.6725 68.0645 51.6502C67.1628 51.513 66.4978 50.6336 66.6486 49.7251C66.7635 49.0223 67.2948 48.4687 67.9874 48.3058C69.0399 48.0555 70.1352 48.6435 71.0231 49.1389C72.0619 49.72 73.0236 50.488 73.8875 51.3039C74.7994 52.1661 75.6171 53.1141 76.3696 54.1186C77.8489 56.0933 79.0694 58.2634 80.0447 60.5278C80.7698 62.2094 81.2858 63.9561 81.7143 65.732C82.592 69.3608 82.964 73.1217 82.7874 76.8517C82.7668 77.2854 82.7634 77.7294 82.7154 78.1613C82.6554 78.7133 82.592 79.2652 82.5303 79.8189C82.4343 80.6623 82.2646 81.4971 82.1172 82.3319C82.0297 82.8272 81.884 83.3175 81.7675 83.8043C81.6749 84.1934 81.5755 84.5689 81.4589 84.9511C81.3064 85.4414 81.1761 85.9453 80.9944 86.4253C80.799 86.9395 80.6036 87.4521 80.4082 87.9646C80.283 88.2937 80.1339 88.6108 79.9899 88.9331C79.8065 89.3376 79.6385 89.7524 79.4362 90.1484C78.994 91.0209 78.5603 91.8968 78.0837 92.7488C77.1992 94.3275 76.2685 95.8754 75.2434 97.3667C74.4035 98.5855 73.5567 99.8146 72.5916 100.939C71.5957 102.103 70.5792 103.267 69.441 104.297C68.8513 104.83 68.2582 105.353 67.6514 105.867C67.0394 106.383 66.3966 106.865 65.7572 107.345C64.5848 108.228 63.378 109.074 62.1524 109.884C61.8438 110.087 61.4907 110.192 61.1427 110.192C60.6251 110.19 60.1211 109.966 59.7868 109.505Z" fill="black"/>
<path d="M47.0537 109.458C46.9594 108.562 47.6382 107.671 48.5587 107.6C50.4494 107.453 52.3384 107.297 54.2291 107.136C56.0307 106.983 57.8323 106.803 59.6407 106.803C60.5629 106.803 61.3137 107.629 61.2932 108.533C61.2709 109.469 60.4841 110.184 59.5636 110.184C59.1693 110.184 58.7785 110.192 58.3843 110.204C55.2233 110.415 52.071 110.72 48.9135 110.963C48.8672 110.967 48.821 110.969 48.7747 110.969C47.9107 110.969 47.1479 110.345 47.0537 109.458Z" fill="black"/>
<path d="M52.2462 118.434C51.5091 117.844 51.4251 116.795 51.977 116.058C53.1427 114.495 54.4146 113.01 55.6608 111.508C56.271 110.773 56.8778 110.033 57.5035 109.307C57.8566 108.898 58.2046 108.483 58.5748 108.089C59.0617 107.571 59.5399 106.998 60.1433 106.615C60.5238 106.373 60.9335 106.244 61.3895 106.313C61.8352 106.38 62.2397 106.628 62.5054 106.993C63.0214 107.705 62.9048 108.862 62.1266 109.355C62.0717 109.39 62.0169 109.427 61.9637 109.465C61.5849 109.803 61.2421 110.175 60.8958 110.547C59.8879 111.716 58.8988 112.899 57.9115 114.088C56.7973 115.432 55.6642 116.764 54.622 118.164C54.3083 118.584 53.8095 118.795 53.3072 118.795C52.9301 118.794 52.5496 118.674 52.2462 118.434Z" fill="black"/>
<path d="M56.5262 125.237C56.0908 125.112 55.7171 124.81 55.5045 124.411C55.2885 124.012 55.268 123.58 55.3691 123.144C55.9536 120.606 56.6633 118.093 57.3558 115.583C57.7038 114.321 58.0809 113.068 58.4597 111.815C58.6346 111.238 58.83 110.667 59.0168 110.093C59.3716 109.011 59.8242 107.645 61.0532 107.316C61.9429 107.079 62.8822 107.693 63.0897 108.57C63.2354 109.184 63.0228 109.782 62.5977 110.184C62.5223 110.346 62.4537 110.511 62.3869 110.679C61.6052 112.897 60.9744 115.172 60.3504 117.438C59.7436 119.641 59.1317 121.848 58.6174 124.077C58.446 124.824 57.7038 125.299 56.9684 125.299C56.8193 125.299 56.6701 125.28 56.5262 125.237Z" fill="black"/>
<path d="M63.9618 120.655C63.8778 120.33 63.787 120.006 63.6927 119.68C63.1064 117.837 62.4036 116.041 61.6288 114.27C61.3254 113.658 61.022 113.048 60.6998 112.446C60.5369 112.143 60.3758 111.841 60.2147 111.539C59.9713 111.078 59.6713 110.581 59.6473 110.05C59.6267 109.599 59.7193 109.179 60.0055 108.819C60.2867 108.468 60.7049 108.238 61.1523 108.19C61.9837 108.102 62.8767 108.709 62.9984 109.56C63.3704 110.314 63.799 111.042 64.1727 111.796C64.5943 112.647 65.016 113.5 65.3623 114.383C66.0737 116.185 66.7679 117.995 67.2513 119.874C67.481 120.765 66.881 121.701 65.9982 121.91C65.8697 121.941 65.7411 121.955 65.6143 121.955C64.8497 121.955 64.1607 121.42 63.9618 120.655Z" fill="black"/>
<path d="M61.2581 110.602C59.2576 109.181 57.3635 107.602 55.4539 106.063C53.5118 104.498 51.5748 102.926 49.6138 101.383C48.8904 100.812 48.7721 99.7236 49.3446 99.0071C49.9223 98.2837 50.9971 98.1672 51.7205 98.738C53.6815 100.281 55.6202 101.849 57.5589 103.418C59.4667 104.96 61.3609 106.537 63.363 107.957C64.1138 108.49 64.1841 109.642 63.6321 110.331C63.351 110.684 62.9345 110.914 62.4871 110.96C62.4288 110.967 62.3722 110.968 62.3174 110.968C61.93 110.968 61.5786 110.83 61.2581 110.602Z" fill="black"/>
<path d="M24.2117 69.9659C23.3289 69.9453 22.489 69.1568 22.561 68.2363C22.6398 67.2318 22.7427 66.2307 22.8506 65.2296C22.9021 64.76 22.9569 64.292 23.0101 63.8223C23.0615 63.3663 23.0683 62.8778 23.1849 62.4321C23.3632 61.7533 23.9649 61.3179 24.6334 61.2168C25.5436 61.0779 26.4007 61.8373 26.4932 62.7218C26.5104 62.8864 26.5018 63.0527 26.4709 63.2138C26.279 64.8165 26.1058 66.4244 25.9618 68.034C25.955 68.1265 25.9481 68.2208 25.9413 68.3134C25.9053 68.7676 25.7544 69.1756 25.4185 69.4961C25.1048 69.7944 24.6831 69.9659 24.2511 69.9659C24.2374 69.9676 24.2237 69.9676 24.2117 69.9659Z" fill="black"/>
<path d="M64.552 64.7274C64.2589 63.6561 64.0206 62.571 63.7961 61.4825C63.5629 60.3563 63.3435 59.2233 63.1721 58.0851C62.9955 56.9092 62.8378 55.735 62.7316 54.5522C62.6818 54.014 62.663 53.4774 62.6373 52.9392C62.6236 52.61 62.6304 52.281 62.6321 51.9536C62.6321 51.645 62.6339 51.2953 62.7281 51.0005C62.9613 50.2737 63.6144 49.7594 64.3926 49.7765C65.2068 49.7971 65.9799 50.4536 66.0347 51.2901V51.2919C66.0485 51.513 66.0245 51.729 65.9645 51.9329C65.9679 51.9329 65.973 51.9347 65.9782 51.9347C65.9919 51.873 66.0056 51.8113 66.0193 51.7479C66.0227 51.705 66.0279 51.6604 66.0313 51.6176C66.0142 51.9981 66.0107 52.3752 66.0107 52.7575C66.0485 53.5426 66.105 54.3208 66.177 55.1059C66.2559 55.9784 66.4033 56.8475 66.5336 57.7148C66.8918 59.8061 67.2844 61.8991 67.8432 63.9458C68.0866 64.8337 67.4626 65.7748 66.5884 65.9822C66.4581 66.0131 66.3296 66.0268 66.2027 66.0268C65.4348 66.0268 64.7611 65.4902 64.552 64.7274Z" fill="black"/>
<path d="M17.0867 164.69C16.1748 164.497 15.3212 164.096 14.6269 163.466C14.2584 163.132 13.9361 162.746 13.7338 162.289C13.4956 161.749 13.3859 161.18 13.2985 160.599C13.163 159.687 13.3379 158.663 13.8024 157.863C14.3647 156.893 15.196 156.188 16.2057 155.715C16.9325 155.376 17.721 155.177 18.5061 155.033C18.9963 154.944 19.4848 154.848 19.9768 154.776C20.9025 154.64 21.8264 154.536 22.7589 154.438C23.5868 154.352 24.425 154.327 25.2564 154.263C26.0004 154.208 26.734 154.117 27.4694 153.999C27.6905 153.953 27.9082 153.901 28.1259 153.841C28.1791 153.823 28.2322 153.804 28.2853 153.785C28.2922 153.737 28.299 153.691 28.3059 153.644C28.3813 152.681 28.4122 151.714 28.4568 150.751C28.5065 149.691 28.5527 148.632 28.5973 147.573C28.6882 145.418 28.707 143.263 28.6693 141.107C28.659 140.87 28.647 140.634 28.6265 140.399C28.5785 140.197 28.5682 139.984 28.6007 139.77V139.766C28.6916 139.17 29.1081 138.654 29.6721 138.44C30.2018 138.239 30.8926 138.309 31.3262 138.697C31.6108 138.952 31.8456 139.252 31.9245 139.634C31.9896 139.945 32.0102 140.255 32.0256 140.57C32.0496 141.095 32.0582 141.619 32.0685 142.146C32.0856 143.053 32.0668 143.963 32.0599 144.868C32.0462 146.639 31.9502 148.409 31.8679 150.18C31.8268 151.082 31.7873 151.982 31.7394 152.883C31.7171 153.324 31.6999 153.766 31.6451 154.201C31.6176 154.423 31.5851 154.647 31.5268 154.861C31.4085 155.307 31.232 155.84 30.8669 156.149C30.8274 156.181 30.788 156.214 30.752 156.246C31.0194 156.701 31.0828 157.271 30.8514 157.772C29.8658 159.899 28.2648 161.708 26.2575 162.926C25.3661 163.466 24.4199 163.902 23.4103 164.167C22.9286 164.293 22.4469 164.413 21.9618 164.522C21.0053 164.74 20.0111 164.875 19.0203 164.875C18.3672 164.884 17.7193 164.824 17.0867 164.69ZM16.7919 160.852C16.7936 160.857 16.7988 160.863 16.8005 160.866C16.833 160.902 16.8656 160.938 16.8982 160.972C16.9376 161.005 16.977 161.037 17.0182 161.067C17.0902 161.115 17.1639 161.157 17.2393 161.2C17.3096 161.233 17.3799 161.265 17.4501 161.293C17.5393 161.324 17.6301 161.349 17.7227 161.372C17.9301 161.413 18.1341 161.444 18.3449 161.469C18.6809 161.492 19.0152 161.497 19.3511 161.49C19.8962 161.454 20.4276 161.375 20.9642 161.286C21.5744 161.149 22.1829 161.01 22.7829 160.835C23.076 160.741 23.3606 160.631 23.6417 160.509C23.9554 160.357 24.2605 160.191 24.5588 160.011C24.8844 159.798 25.1981 159.572 25.5015 159.328C25.8375 159.034 26.1546 158.722 26.4632 158.401C26.6586 158.163 26.8454 157.921 27.0306 157.673C27.0734 157.606 27.118 157.541 27.1608 157.474C27.082 157.484 27.0031 157.493 26.926 157.501C26.0244 157.602 25.121 157.671 24.2159 157.731C23.4446 157.782 22.6817 157.849 21.9104 157.928C21.3036 157.99 20.7036 158.086 20.1002 158.175C19.4523 158.293 18.8009 158.406 18.1649 158.583C17.9935 158.639 17.8255 158.699 17.6576 158.766C17.5221 158.833 17.3901 158.905 17.2582 158.982C17.2067 159.016 17.157 159.054 17.1073 159.09C17.049 159.145 16.9907 159.198 16.9325 159.255C16.9582 159.224 16.9873 159.195 17.013 159.166C17.0096 159.167 17.0045 159.172 16.9993 159.176C16.9393 159.243 16.8793 159.311 16.8228 159.385C16.797 159.428 16.773 159.472 16.7473 159.517C16.7268 159.563 16.7045 159.61 16.6839 159.656C16.6753 159.687 16.6651 159.718 16.6582 159.748C16.6496 159.808 16.6428 159.867 16.6342 159.925C16.6325 159.964 16.6325 160.004 16.6325 160.043C16.6445 160.167 16.6582 160.292 16.6788 160.413C16.7045 160.549 16.7353 160.681 16.7748 160.813C16.7542 160.744 16.7319 160.674 16.7096 160.604C16.737 160.691 16.761 160.773 16.7919 160.852Z" fill="black"/>
<path d="M79.37 154.268C78.9003 154.064 78.5147 153.749 78.1735 153.373C77.877 153.051 77.6884 152.662 77.517 152.263C77.3353 151.839 77.2753 151.349 77.2427 150.893C77.1982 150.259 77.2873 149.621 77.409 149.001C77.6421 147.816 78.0844 146.669 78.5318 145.552C78.8472 144.765 79.202 143.999 79.5534 143.227C79.7128 142.879 79.9031 142.542 80.0797 142.201C80.2442 141.875 80.4037 141.542 80.5819 141.225C80.7431 140.939 80.9025 140.653 81.0619 140.365C80.8596 140.466 80.6556 140.567 80.4499 140.663C78.7701 141.457 77.0405 142.144 75.2835 142.744C74.9064 142.873 74.531 142.999 74.147 143.109C73.6567 143.251 73.1665 143.423 72.6677 143.538C72.1551 143.656 71.6409 143.771 71.1283 143.889C70.117 144.12 69.0679 144.251 68.0326 144.288C66.9458 144.326 65.8847 144.228 64.8391 143.922C63.7883 143.613 62.8798 143.01 62.0742 142.286C60.9068 141.237 59.952 140.015 59.1155 138.695C58.9921 138.501 58.8704 138.306 58.7401 138.117C58.2259 137.355 58.3562 136.311 59.119 135.755C59.8458 135.229 60.9651 135.371 61.4811 136.134C62.0193 136.931 62.5078 137.747 63.1061 138.5C63.4781 138.925 63.8689 139.335 64.2769 139.727C64.4688 139.897 64.6643 140.06 64.8665 140.217C65.0139 140.313 65.1631 140.401 65.3174 140.485C65.4185 140.533 65.5213 140.577 65.6259 140.62C65.8265 140.687 66.0253 140.745 66.231 140.797C66.4401 140.834 66.6458 140.867 66.8567 140.891C67.2286 140.915 67.5972 140.922 67.9691 140.912C68.5571 140.874 69.1399 140.809 69.721 140.72C70.4478 140.589 71.1626 140.414 71.8826 140.25C72.4208 140.126 72.9505 139.948 73.4802 139.787C74.387 139.479 75.2852 139.163 76.18 138.819C76.9959 138.507 77.7964 138.153 78.5986 137.804C79.5791 137.337 80.5339 136.837 81.4716 136.287C81.9584 136.002 82.4418 135.716 82.9286 135.431C83.2886 135.221 83.652 135.013 84.0514 134.89C84.5999 134.725 85.2033 134.747 85.7073 135.049C86.1889 135.337 86.4958 135.863 86.5678 136.415C86.626 136.851 86.5335 137.259 86.3912 137.656C86.6003 139.326 86.7563 140.997 86.7855 142.681C86.8009 143.548 86.7203 144.427 86.626 145.288C86.5283 146.195 86.3929 147.093 86.2095 147.984C85.9078 149.455 85.4844 150.922 84.6411 152.184C83.7805 153.473 82.2601 154.544 80.6899 154.544C80.2528 154.541 79.8071 154.457 79.37 154.268ZM82.4332 145.067C82.2532 145.461 82.0544 145.852 81.8933 146.256C81.7184 146.692 81.5453 147.127 81.3704 147.561C81.1373 148.234 80.9059 148.903 80.7379 149.597C80.6916 149.842 80.6539 150.084 80.6248 150.331C80.6162 150.444 80.6145 150.557 80.6162 150.672C80.6196 150.739 80.6265 150.807 80.6368 150.874C80.6488 150.929 80.6608 150.984 80.6728 151.039C80.6796 151.056 80.6865 151.073 80.6933 151.088C80.7053 151.109 80.7156 151.131 80.7276 151.154C80.7448 151.152 80.7619 151.148 80.779 151.145C80.8048 151.138 80.8305 151.13 80.8579 151.123C80.9025 151.106 80.947 151.087 80.9916 151.07C81.0413 151.044 81.091 151.015 81.1407 150.989C81.235 150.924 81.3276 150.857 81.4184 150.785C81.4819 150.728 81.5419 150.67 81.6001 150.61C81.6704 150.528 81.739 150.444 81.8041 150.357C81.9155 150.185 82.0184 150.012 82.1178 149.834C82.2207 149.614 82.3167 149.393 82.4058 149.167C82.5686 148.687 82.6955 148.202 82.8258 147.712C83.0366 146.652 83.2029 145.596 83.3211 144.522C83.3571 144.06 83.3829 143.599 83.3966 143.14C83.0623 143.778 82.7315 144.415 82.4332 145.067Z" fill="black"/>
</svg>
