<svg width="117" height="110" viewBox="0 0 117 110" fill="none" xmlns="http://www.w3.org/2000/svg">
<mask id="mask0_370_711" style="mask-type:luminance" maskUnits="userSpaceOnUse" x="4" y="1" width="109" height="108">
<path d="M112.59 20.447L29.2743 1.66434L4.69595 89.467L88.0115 108.25L112.59 20.447Z" fill="white"/>
</mask>
<g mask="url(#mask0_370_711)">
<path d="M37.3294 18.8624C39.4292 15.882 41.6005 12.63 44.4263 10.3691C47.4994 7.86123 51.5698 7.33987 54.5467 9.59899C57.3903 11.7139 57.9564 15.2408 57.6745 18.8593C59.6523 19.6277 61.3586 20.8114 62.7779 22.4166C64.4288 24.1733 65.9343 26.0908 67.4351 27.9923C70.5245 31.8895 73.4611 35.9409 76.2376 40.1398C77.6403 42.2772 78.9983 44.4443 80.3071 46.6399C80.7012 46.3417 81.135 46.1467 81.5972 46.0624C82.9601 45.8288 84.2336 46.7957 85.3303 47.4152C86.509 47.9539 87.6003 48.6416 88.5969 49.4717C89.4106 50.335 89.7595 51.4061 89.6436 52.6851C89.6253 52.7504 89.6345 52.8319 89.6308 52.9104C91.7983 53.6869 93.7555 54.8229 95.5123 56.3157C95.9498 56.6625 96.329 57.0705 96.6529 57.5455C96.9738 58.0148 97.2219 58.5323 97.3984 59.0931C97.5762 59.6493 97.6735 60.232 97.6929 60.8318C97.7153 61.4373 97.6564 62.0394 97.5206 62.6389C97.1518 64.0544 96.7155 65.4497 96.1976 66.8266C95.7729 68.1154 95.3786 69.4258 94.862 70.6839C94.0504 72.6695 92.7246 74.7128 90.5501 74.9569C89.0459 75.124 87.4806 74.4485 86.1205 74.0029C84.6067 73.5028 83.1184 72.944 81.6488 72.3347C81.5423 72.2909 81.4496 72.2303 81.3734 72.1436C80.8001 72.6247 80.1614 72.8827 79.4641 72.9091C78.9204 72.9254 78.379 72.9175 77.8359 72.8992C76.1267 77.1934 74.2346 81.4066 72.1847 85.5147C70.1304 89.6219 67.9697 94.0276 65.6124 98.0912C64.5655 99.8401 63.1545 101.502 61.1847 102.011C60.7589 102.128 60.3399 102.172 59.9146 102.141C59.4937 102.111 59.0924 102.01 58.7119 101.835C58.3358 101.661 57.9964 101.421 57.7054 101.122C57.4102 100.822 57.1735 100.476 56.9956 100.084C56.1334 98.202 56.5667 96.0666 57.4431 94.1106C58.4143 91.898 59.6496 89.7698 60.7712 87.5911C63.4042 82.5426 66.0372 77.494 68.6676 72.4548C68.7395 72.3122 68.8363 72.1951 68.9579 72.1034C68.5704 71.5943 68.4357 70.9982 68.5396 70.317C59.5845 71.7716 50.6905 72.0937 41.8522 71.287C39.4698 71.0823 37.0706 70.7746 34.7195 70.3438C33.4464 71.4809 32.0425 72.3504 30.508 72.9522C29.0847 73.4997 27.6346 73.8328 26.1577 73.9514C24.6459 74.0968 22.8497 74.1484 21.7526 73.0078C20.6556 71.8673 20.7083 69.7205 20.6344 68.0911C20.5452 66.1903 20.551 64.2761 20.658 62.36C20.8804 58.5296 21.4326 54.7289 22.3258 50.9504C24.2012 43.2549 27.093 35.9274 30.9924 28.9661C32.9228 25.4811 35.0356 22.1116 37.3294 18.8624ZM86.9031 72.2192C87.6154 72.4493 88.3289 72.6747 89.0573 72.8637C89.6698 73.0911 90.3114 73.1167 90.9735 72.9385C91.9571 72.5747 92.5522 71.4931 92.9873 70.559C93.5168 69.3038 93.9703 68.0265 94.3477 66.7271C95.2087 64.1572 96.8309 60.9898 95.104 58.7048C94.2756 57.7142 93.2996 56.9085 92.1775 56.2983C91.2934 55.7516 90.3657 55.2794 89.4028 54.8837C89.0497 56.9776 88.5032 59.0278 87.7706 61.0411C86.7815 63.8402 85.4738 66.488 83.8531 68.9809C83.5033 69.5124 83.1175 70.14 82.6987 70.7056C84.0744 71.2589 85.473 71.7628 86.9031 72.2192ZM79.7831 70.9861L79.898 70.9674C79.9566 70.921 80.2557 70.7503 80.3368 70.6892C81.1368 69.9366 81.803 69.0745 82.3397 68.1038C83.7402 65.9731 84.8926 63.717 85.7998 61.3411C86.6853 59.01 87.3117 56.6254 87.6832 54.1883C87.7041 54.1136 87.725 54.0389 87.7185 53.9481C87.5726 53.5877 87.6164 53.2354 87.8426 52.8844C87.9288 52.2339 87.8113 51.6417 87.4931 51.1135C86.8618 50.2516 85.6166 49.7872 84.7307 49.2798C84.2336 48.999 83.7383 48.7285 83.2386 48.4571C82.7432 48.1866 82.1641 47.7583 81.5545 47.9285C80.5341 48.2443 80.2255 49.6734 80.0576 50.5833C79.6857 53.0054 79.0533 55.3788 78.1588 57.693C77.2036 60.1424 75.9771 62.4513 74.4806 64.6149C73.1362 66.4307 71.1031 67.8183 70.3371 70.0325C70.2391 70.3826 70.1046 70.6996 70.432 70.8032C70.8916 70.8423 71.357 70.8281 71.8239 70.7597C72.7366 70.7472 73.6474 70.7739 74.5414 70.8117C76.0753 70.8647 77.6069 70.9917 79.1452 70.9961C79.3491 71.0024 79.5538 70.989 79.7659 70.9822L79.7831 70.9861ZM63.892 85.3372C62.8485 87.335 61.808 89.3384 60.7731 91.3381C59.8222 93.1682 58.468 95.215 58.3141 97.2992C58.214 98.8646 59.0365 100.529 60.7149 100.213C61.4388 100.058 62.0693 99.6991 62.6119 99.1317L61.4739 98.3987C61.2713 98.2737 61.1442 98.0912 61.0952 97.8419C61.0462 97.5927 61.0901 97.3544 61.2182 97.1253C61.3506 96.8971 61.5318 96.7395 61.7746 96.6553C62.0175 96.5711 62.2488 96.5935 62.4669 96.7121L63.8409 97.5975C64.0598 97.24 64.2683 96.8701 64.4661 96.5227C64.5518 96.3634 64.6345 96.1984 64.7203 96.0391C64.5534 95.9171 64.4059 95.7747 64.2723 95.6156C64.0856 95.3849 63.9338 95.1274 63.8157 94.8477C63.7532 94.7443 63.7261 94.629 63.7244 94.5045C63.6956 94.3789 63.7025 94.2564 63.7464 94.1323C63.7773 94.0053 63.8328 93.8888 63.9243 93.7904C63.9927 93.6768 64.0773 93.5867 64.1867 93.522C64.404 93.3824 64.6351 93.3402 64.8715 93.3935L65.0949 93.4439C65.2293 93.5189 65.336 93.6273 65.4108 93.7682C65.47 93.9156 65.5448 94.0565 65.6377 94.1816L65.6775 94.2353C66.158 93.3511 66.6372 92.4717 67.0949 91.5873L67.0433 91.5757C66.8923 91.4623 66.7495 91.3358 66.6137 91.201C66.4804 91.0568 66.3597 90.9005 66.2544 90.7379C66.0795 90.4652 65.9511 90.1732 65.8619 89.8554C65.8261 89.7382 65.8244 89.6137 65.8541 89.4914C65.855 89.3576 65.8903 89.2316 65.9586 89.118C66.0154 88.9968 66.0957 88.9057 66.2022 88.8354C66.2924 88.7416 66.3963 88.6807 66.5108 88.647C66.7537 88.5628 66.9807 88.5842 67.1944 88.7019L67.3746 88.8417C67.4727 88.9482 67.5428 89.0732 67.5849 89.2167C67.6488 89.3799 67.7266 89.5265 67.8241 89.6676C67.8742 89.7335 67.9299 89.7956 67.9912 89.8541C68.4312 89.0006 68.8668 88.146 69.3154 87.2944C69.2014 87.2935 69.094 87.2693 68.9974 87.2227C68.8299 87.1353 68.6806 87.0322 68.5421 86.9067C68.4328 86.8076 68.333 86.6908 68.2431 86.5713C68.1532 86.4518 68.0801 86.3211 68.0183 86.1831C67.9354 86.0057 67.878 85.819 67.8447 85.6279C67.809 85.5107 67.8073 85.3863 67.8383 85.2593C67.8379 85.1301 67.8732 85.0041 67.9428 84.8858C67.9983 84.7693 68.0786 84.6783 68.1851 84.608C68.271 84.5132 68.3748 84.4523 68.4937 84.4195C68.7365 84.3353 68.9648 84.3521 69.1773 84.4744C69.3868 84.5911 69.5195 84.7699 69.5771 85.0211C69.564 85.0677 69.6025 85.1261 69.6152 85.1785C69.6309 85.2367 69.6704 85.2753 69.6943 85.3204L69.8083 85.4355C69.849 85.4695 69.8924 85.4941 69.9414 85.5151C70.0152 85.5615 70.0735 85.6143 70.1292 85.6765C70.2119 85.5116 70.2989 85.3476 70.376 85.1863C70.7342 84.4781 71.0765 83.7612 71.4204 83.0548C71.2792 83.1023 71.1411 83.1059 71.0049 83.0702L70.7919 82.9825C70.6575 82.9076 70.5508 82.7991 70.4748 82.6629L69.6621 81.5021C69.6053 81.395 69.5738 81.2787 69.5721 81.1543C69.5356 80.893 69.6023 80.6549 69.772 80.4401C69.8391 80.3312 69.928 80.2421 70.0332 80.1765C70.2547 80.0378 70.4828 79.99 70.7205 80.0386L70.9378 80.1273C71.0722 80.2023 71.1789 80.3107 71.2493 80.4507L72.0588 81.6554C72.0721 81.6733 72.0798 81.6949 72.0874 81.7164C73.4778 78.7895 74.7832 75.8236 75.9937 72.8213C75.1066 72.7752 74.2277 72.7159 73.3469 72.696C72.744 72.6792 72.1828 72.6767 71.6004 72.6843C71.1634 72.695 70.7047 72.7504 70.2627 72.7301C70.2981 72.9465 70.2607 73.1614 70.1491 73.3645L63.892 85.3372ZM61.6622 69.3271C64.136 69.0909 66.6062 68.7695 69.0712 68.3527L69.2334 68.3446C70.1514 66.6807 71.5863 65.4064 72.823 63.8938C73.6574 62.757 74.3833 61.551 74.9977 60.2703C75.6539 59.0685 76.2393 57.8259 76.7456 56.5556C77.2526 55.2507 77.652 53.9215 77.9411 52.5625C78.2559 51.0951 78.316 49.5257 79.0041 48.1773C74.1521 39.9028 68.6569 32.1632 62.5174 24.9631C61.0729 23.3174 59.5008 21.6381 57.4745 20.814C55.9061 28.0329 53.7125 35.086 50.8808 41.9705C48.0521 48.8606 44.6447 55.4515 40.6572 61.7479C39.637 63.3688 38.5996 64.9859 37.5449 66.5991C37.5409 66.7768 37.4952 66.9402 37.4064 67.0938C37.0587 67.6506 36.6792 68.1903 36.2663 68.7026C44.6123 69.9789 53.0709 70.1839 61.645 69.3233L61.6622 69.3271ZM22.4333 68.0302C22.4434 68.9406 22.5202 69.8412 22.6737 70.7294C22.7463 71.1229 22.924 71.4508 23.2096 71.7037C23.4938 71.9613 23.8319 72.0921 24.221 72.1054C25.7176 72.2592 27.2106 72.0996 28.7029 71.6322C30.9793 71.0239 32.9538 69.7968 34.6165 67.9535C37.921 62.8728 41.2414 57.8006 44.0901 52.4384C47.6122 45.7642 50.5042 38.8437 52.7649 31.6816C54.01 27.7394 55.0549 23.7619 55.9007 19.7446C55.8504 19.6142 55.8355 19.4718 55.8532 19.327C56.1241 16.4007 56.0016 13.4106 53.8494 11.4863C53.3121 11.0227 52.7078 10.6681 52.0437 10.4291C51.3766 10.1844 50.6786 10.0667 49.9565 10.0677C49.2331 10.0733 48.517 10.1996 47.8125 10.4477C47.108 10.6958 46.4504 11.0537 45.8355 11.5205C43.2588 13.381 41.2851 16.3352 39.4292 18.9339C37.3487 21.8292 35.4157 24.8175 33.6235 27.9069C26.5299 40.1425 21.7697 54.1449 22.4161 68.0264L22.4333 68.0302ZM39.6173 24.0726C40.647 22.3198 41.7154 20.5758 42.8201 18.9143C43.8659 17.3488 44.9212 15.4231 46.4676 14.3873C46.662 14.2475 46.8628 14.134 47.0769 14.0384C47.294 13.9484 47.5131 13.8836 47.7343 13.8442C47.9611 13.801 48.1831 13.7915 48.4071 13.8073C48.6311 13.8231 48.8443 13.8612 49.0527 13.933C49.2623 14.0001 49.4598 14.0943 49.6452 14.2155C49.8276 14.331 49.9978 14.4736 50.1443 14.6357C50.2952 14.7987 50.4223 14.9812 50.5312 15.1794C50.6402 15.3777 50.7225 15.5898 50.7836 15.812C51.4332 17.8491 50.9827 20.4867 50.7038 22.642C49.9198 28.0379 48.4525 33.2798 46.3018 38.3676C44.1217 43.5282 41.6171 48.5263 38.7951 53.3685C37.4104 55.7855 35.9922 58.1752 34.5624 60.5574C33.3907 62.556 32.1959 64.6537 30.5259 66.2621C30.0882 66.6993 29.6241 67.1008 29.1274 67.4553C28.4516 68.1068 27.6795 68.4985 26.8025 68.6283C26.4401 68.7153 26.1014 68.6687 25.7962 68.4857C25.4855 68.3065 25.2778 68.0364 25.1677 67.6791C25.0326 67.1822 24.9385 66.6697 24.884 66.1463C24.6604 63.3219 24.8939 60.4964 25.5761 57.6678C27.1879 49.9674 30.2898 42.4442 33.6703 35.2964C35.5055 31.4823 37.479 27.7291 39.6219 24.0885L39.6173 24.0726ZM26.8915 60.2967C26.4818 62.4622 26.4601 64.5961 26.8265 66.6984C26.8734 66.694 26.9216 66.6851 26.9668 66.6704C27.0116 66.6409 27.0565 66.6113 27.1 66.5863C27.5093 66.3809 27.9006 66.1416 28.2784 65.8695C28.8036 65.3478 29.301 64.7949 29.7722 64.2213C29.9091 64.0587 30.0746 63.9571 30.2657 63.9108C30.6027 63.4906 30.9277 63.0477 31.248 62.589C32.5052 60.7089 33.6274 58.7239 34.7847 56.7765C37.2615 52.5959 39.6663 48.3792 41.8268 44.0231C43.9944 39.7232 45.7794 35.2724 47.1777 30.6849C47.8645 28.3784 48.3995 26.0427 48.7802 23.6871C48.9561 22.5854 49.0851 21.488 49.1797 20.3829C49.3207 19.3081 49.3352 18.2445 49.2275 17.193C49.1375 16.6169 48.9835 15.8775 48.3675 15.6791C47.6516 15.478 46.9217 16.2414 46.4622 16.773C45.4073 18.0933 44.4524 19.4808 43.5962 20.9403C41.6679 23.9444 39.8847 27.0507 38.2053 30.2102C34.7114 36.7022 31.7873 43.4269 29.4289 50.3834C28.3044 53.6333 27.4577 56.9358 26.8958 60.2977L26.8915 60.2967ZM21.844 29.1365L24.5641 32.1169C24.7299 32.3081 24.9429 32.3958 25.1962 32.3884C25.4509 32.3763 25.6719 32.2723 25.8606 32.0717C26.0449 31.8701 26.1416 31.6389 26.1447 31.3666C26.1508 31.1 26.0626 30.8767 25.883 30.7022L23.1585 27.7209C22.9957 27.5353 22.7827 27.4476 22.5294 27.455C22.276 27.4624 22.0537 27.5711 21.8664 27.767C21.682 27.9686 21.584 28.2046 21.5809 28.4768C21.5748 28.7434 21.6631 28.9667 21.844 29.1365ZM21.0181 38.0116C21.2544 38.0648 21.4868 38.018 21.7054 37.8737C21.924 37.7295 22.067 37.5285 22.1389 37.2718C22.2108 37.0151 22.1905 36.7773 22.0739 36.5574C21.9572 36.3376 21.7771 36.1977 21.5407 36.1445C20.4975 35.8398 19.4822 35.4521 18.4416 35.1381C18.2053 35.0848 17.9785 35.1279 17.7599 35.2722C17.537 35.4155 17.394 35.6164 17.3221 35.8732C17.249 36.1346 17.2692 36.3724 17.3901 36.5932C17.5068 36.813 17.6839 36.9472 17.9203 37.0005C18.9609 37.3145 19.9762 37.7022 21.0181 38.0116ZM14.7124 43.5967C14.6449 43.8544 14.6694 44.0932 14.786 44.313C14.9027 44.5328 15.0785 44.6717 15.3149 44.725C16.5535 44.9844 17.8116 44.9455 19.0837 44.612C19.3278 44.5232 19.5103 44.3609 19.6397 44.127C19.7692 43.8932 19.81 43.6493 19.7524 43.3982C19.6922 43.1563 19.5608 42.9728 19.3569 42.8525C19.1448 42.7451 18.9122 42.7274 18.6733 42.7976C18.573 42.8295 18.4765 42.8475 18.3788 42.8701L18.2299 42.8961C18.0427 42.9283 17.8582 42.9512 17.6805 42.9658C17.338 42.9977 16.9948 42.9997 16.6581 42.9784C16.3917 42.9183 16.1096 42.9143 15.8362 42.8626C15.5985 42.8139 15.3704 42.8618 15.1532 43.0013C14.9346 43.1456 14.7873 43.3456 14.7124 43.5967Z" fill="black"/>
</g>
</svg>
