<svg width="167" height="134" viewBox="0 0 167 134" fill="none" xmlns="http://www.w3.org/2000/svg">
<path d="M147.309 16.8494C139.013 10.3049 128.568 6.69978 117.897 6.69978C107.926 6.69978 98.7334 9.93049 91.6641 15.6733C86.9456 7.73495 79.1011 2.04026 69.8892 0.420089C68.3052 0.140831 66.6778 0 65.0528 0C52.6378 0 41.5133 7.92874 37.6434 18.9883C36.353 18.7873 35.0398 18.6862 33.7049 18.6862C19.1474 18.6862 4.03502 31.7042 0.705594 47.1127C-1.35874 56.6628 1.18226 67.3324 7.33676 74.9602C11.6556 80.313 17.2733 83.6881 23.453 84.7173C22.3143 92.8796 23.6817 101.239 27.5227 108.991C33.067 120.182 43.1443 128.504 55.1716 131.825C59.1354 132.919 63.299 133.474 67.5468 133.474C77.6843 133.474 87.6245 130.346 95.5327 124.666C101.928 120.072 106.649 113.995 109.291 107.084C112.311 107.807 115.407 108.17 118.537 108.17H118.54C136.795 108.17 155.016 95.5277 162.847 77.4253C172.019 56.2162 165.631 31.3057 147.309 16.8494Z" fill="#FCD800"/>
<path d="M143.073 22.2172C126.495 9.13789 100.353 10.4848 89.2259 28.6847C87.5287 18.1524 79.7119 9.08973 68.7053 7.15419C57.4736 5.18013 45.439 12.6407 43.3386 24.1083C43.1002 25.4119 43.0413 26.7624 43.1363 28.1166C28.6342 19.5607 10.6041 33.6824 7.38779 48.5577C4.05596 63.9686 15.9521 81.8207 32.3849 77.5813C24.4755 97.2954 36.4342 119.558 56.9897 125.233C76.876 130.723 101.501 119.764 104.571 98.1946C105.485 98.6423 106.427 99.048 107.396 99.3958C127.304 106.537 148.682 92.9452 156.57 74.7104C164.495 56.3926 158.72 34.5624 143.073 22.2172ZM153.459 75.0643C145.301 92.2387 123.091 105.2 104.794 95.426C104.642 94.699 103.906 94.4029 103.238 94.5353C95.5778 89.8096 90.0396 81.3524 90.9989 72.1104C91.4985 67.3017 93.629 62.6675 96.9921 59.1948C99.0649 57.0534 101.737 55.3682 104.624 54.5726C107.455 53.6698 110.226 53.9033 112.935 55.2707C117.879 61.081 117.114 64.5861 110.642 65.785C109.887 65.7513 109.689 67.0164 110.46 67.1284C117.066 68.0865 120.51 60.8775 116.732 55.7113C111.391 48.4109 100.511 52.1267 95.2287 57.4326C82.9197 69.797 88.7239 88.4759 102.006 96.7694C99.9448 117.537 76.2151 127.718 57.7143 122.609C37.875 117.131 26.4122 94.8892 36.0574 76.0237C36.5377 75.0848 35.7108 73.5405 34.5191 74.0232C17.8046 80.7879 6.30687 62.31 10.438 47.5791C14.693 32.4041 29.2108 25.5274 43.4397 30.3482C45.0839 38.6561 52.4409 46.1407 61.5277 42.1938C65.2796 40.564 67.9746 36.9384 67.7002 32.7688C67.492 29.6176 64.9209 24.8521 61.1653 26.0414C60.2397 26.3339 60.6297 27.6315 61.5601 27.4738C66.1426 26.6926 65.5059 34.9548 64.5008 36.6291C63.1803 38.8307 60.5226 40.1066 58.1031 40.3906C52.4891 41.0491 47.5985 36.7771 46.1649 31.529C46.0818 31.2269 46.0288 30.9248 45.9663 30.6239C46.0457 30.4096 46.0289 30.1664 45.8375 30.0088L45.8363 30.0076C44.6253 22.6085 49.1789 15.2924 55.6572 11.8257C62.3919 8.22308 70.3592 9.04399 76.6388 13.2196C83.5312 17.8021 86.715 25.2626 86.9112 33.2539C86.7932 33.538 86.6644 33.8113 86.5537 34.1014C86.2961 34.773 86.5946 35.2737 87.0701 35.5193C87.6069 36.5075 89.4281 36.2812 89.528 34.8729C89.5533 34.513 89.5449 34.1567 89.5557 33.798C98.4089 13.9936 123.843 11.3768 140.347 23.5257C156.262 35.24 161.936 57.2159 153.459 75.0643Z" fill="#1D1D1B"/>
</svg>
