<svg width="148" height="137" viewBox="0 0 148 137" fill="none" xmlns="http://www.w3.org/2000/svg">
<path d="M147.017 87.8654C146.834 82.0577 145.406 71.2524 137.897 64.1376C134.558 60.9741 130.363 58.899 125.792 58.1008C127.197 54.3397 127.622 50.7625 127.089 47.286C126.126 40.9995 121.817 35.6127 115.269 32.5063C111.653 30.7918 107.731 29.9223 103.61 29.9223C100.616 29.9223 97.667 30.3828 94.865 31.2666C95.19 28.3774 95.1828 25.497 94.8127 22.8226C92.7637 8.00174 78.4303 0.00237793 65.9786 0C52.9293 0 41.524 7.48098 36.6976 18.3362C33.0459 15.9377 28.6213 14.637 23.8219 14.637C18.6729 14.637 13.4517 16.1977 9.11754 19.0306C3.95981 22.4033 -0.213451 27.7219 -2.32981 33.6224C-3.81602 37.7631 -4.22503 41.9499 -3.57347 45.8814C-11.7226 46.7525 -19.9289 51.0994 -26.4848 58.1048C-40.4029 72.9779 -41.8716 95.099 -29.9772 110.704C-23.0638 119.773 -12.0659 125.188 -0.556667 125.188C7.27782 125.188 14.6779 122.738 20.7631 118.203C28.7252 128.415 41.2577 135.156 54.6129 136.155C55.7995 136.244 57.0067 136.289 58.2028 136.289C65.1559 136.289 72.1882 134.769 78.5389 131.892C80.7908 130.873 86.2679 128.392 90.056 123.736C94.5931 127.668 100.8 129.786 108.014 129.786C108.014 129.786 108.015 129.786 108.017 129.786C114.689 129.786 121.743 127.944 127.369 124.734C139.977 117.539 147.506 103.412 147.017 87.8654Z" fill="#FCD800"/>
<path d="M142.516 88.0074C142.288 80.7555 140.232 72.5548 134.799 67.4058C130.427 63.2635 124.386 61.6044 118.542 62.4478C121.287 58.1438 123.428 53.1287 122.638 47.9686C121.839 42.7506 117.973 38.7731 113.339 36.5759C105.033 32.6365 94.8392 34.282 87.9424 40.1087C90.268 34.7592 91.0559 28.529 90.3528 23.4402C88.7216 11.6409 77.2924 4.50555 65.983 4.50317C52.7086 4.5008 40.6564 13.6503 38.9499 26.7923C33.0122 17.9028 20.4305 17.0143 11.5823 22.7998C2.89726 28.4791 -2.5696 40.8189 2.69276 50.463C2.20846 50.3909 1.72018 50.3315 1.22637 50.2926C-8.00476 49.565 -17.0504 54.6141 -23.1974 61.1828C-35.2139 74.0236 -37.2295 93.7652 -26.3965 107.976C-14.8175 123.167 8.08035 125.237 21.6187 111.505C28.5718 123.153 41.4855 130.66 54.9486 131.668C62.3677 132.223 69.9066 130.862 76.6805 127.793C82.1141 125.333 87.8774 121.648 89.2051 115.567C89.5245 116.196 89.8859 116.802 90.2942 117.37C97.9693 128.041 115.026 126.596 125.136 120.826C136.73 114.207 142.93 101.142 142.516 88.0074ZM127.894 116.83C119.126 123.571 105.496 126.286 95.7151 119.996C90.1428 116.413 86.3191 107.159 93.2412 102.735C96.7146 100.515 101.352 101.747 102.549 105.915C103.719 109.983 97.5421 114.316 95.5882 109.604C95.1689 108.593 93.5028 109.012 93.9126 110.066C95.2585 113.527 99.7132 114.205 102.528 111.918C105.825 109.238 104.7 104.177 101.847 101.639C98.2277 98.418 92.8203 99.798 89.9351 103.32C87.554 106.227 87.2687 110.054 88.3562 113.489C88.0019 113.578 87.6824 113.848 87.6325 114.302C86.8018 121.817 77.6753 125.926 71.3365 127.95C65.1024 129.94 58.4434 130.503 51.9706 129.532C39.6854 127.689 29.4659 120.35 22.3186 110.413C22.2814 109.729 21.4071 109.147 20.8023 109.786C12.6056 118.446 -0.567383 121.395 -11.712 117.083C-23.1934 112.641 -31.1516 100.792 -31.8071 88.6257C-32.4864 76.0274 -25.6696 63.5282 -15.1203 56.7535C-9.38715 53.0716 -2.37145 50.9347 4.40248 52.6182C11.9231 54.4873 17.0998 61.0076 17.0919 68.7874C17.084 77.2037 9.81782 86.5093 0.554188 84.0157C-4.29917 82.7094 -6.15395 78.3403 -5.04028 73.6614C-4.52348 71.4879 -3.51445 69.0902 -1.57406 67.8267C-0.675995 67.2417 0.42421 66.7241 1.54739 66.7043C4.89789 66.6457 7.9028 74.3121 2.06974 73.2262C1.48159 73.1168 1.22477 73.9752 1.81925 74.1353C7.25679 75.5946 9.00933 67.4383 3.82147 65.5169C-3.28696 62.8846 -7.61242 71.8961 -7.03299 77.6912C-6.27047 85.318 2.32972 87.5382 8.59161 85.0627C16.3976 81.977 20.0786 72.9179 18.5123 64.9883C17.0269 57.4661 11.1495 52.2235 3.93483 50.6961C0.0294685 41.243 3.55199 30.4187 11.9548 24.6284C20.8673 18.4862 34.0624 19.6086 38.8595 30.2752C39.2352 31.1114 40.5035 30.647 40.5098 29.8282C40.6049 17.2251 50.8015 7.73558 62.9963 6.44753C73.1794 5.37191 84.8931 10.3878 87.9741 20.8459C90.9719 31.0211 86.0115 49.2947 73.4014 50.2435C67.1664 50.7119 59.5277 43.5036 64.9898 37.623C67.2211 35.2205 71.5212 34.3296 73.5789 37.4716C75.1911 39.9336 74.4904 43.5028 71.8422 44.8424C70.8356 45.3521 71.7186 46.8319 72.7228 46.3492C80.4487 42.6286 74.2463 30.406 66.2041 34.5016C62.1022 36.5902 60.3639 41.377 62.2369 45.5835C64.347 50.322 69.5031 52.688 74.5071 51.8914C79.8638 51.0385 83.8547 47.5192 86.5236 42.9329C92.9424 36.9976 102.257 34.4017 110.686 37.3924C115.589 39.1322 120.003 42.8576 120.839 48.2119C121.699 53.7105 118.901 58.9206 115.847 63.2841C115.381 63.9499 116.149 64.7718 116.852 64.5927C123.088 63.0074 129.877 64.6688 134.318 69.4635C138.549 74.0323 140.297 80.7634 140.669 86.8422C141.361 98.1604 137.023 109.811 127.894 116.83Z" fill="#1D1D1B"/>
</svg>
