<svg width="192" height="177" viewBox="0 0 192 177" fill="none" xmlns="http://www.w3.org/2000/svg">
<path d="M238.978 113.492C238.741 105.99 236.896 92.0334 227.198 82.8435C222.885 78.7575 217.466 76.0771 211.562 75.0461C213.377 70.1881 213.926 65.5676 213.238 61.0771C211.994 52.9572 206.429 45.9993 197.971 41.9869C193.3 39.7724 188.234 38.6493 182.911 38.6493C179.044 38.6493 175.235 39.2441 171.616 40.3857C172.035 36.6538 172.026 32.9333 171.548 29.4789C168.901 10.3355 150.388 0.00307146 134.304 0C117.449 0 102.717 9.66284 96.4834 23.6841C91.7667 20.586 86.0517 18.9059 79.8524 18.9059C73.2017 18.9059 66.4578 20.9218 60.8595 24.5809C54.1975 28.9373 48.8071 35.8071 46.0735 43.4285C44.1539 48.7769 43.6256 54.1847 44.4672 59.2629C33.9412 60.3881 23.3416 66.0027 14.8736 75.0512C-3.10368 94.2622 -5.00083 122.835 10.3626 142.991C19.2924 154.706 33.4979 161.699 48.3638 161.699C58.4833 161.699 68.0417 158.535 75.9015 152.677C86.1858 165.868 102.373 174.575 119.624 175.865C121.156 175.98 122.716 176.038 124.261 176.038C133.242 176.038 142.325 174.074 150.528 170.359C153.437 169.042 160.511 165.838 165.404 159.825C171.264 164.903 179.282 167.638 188.6 167.638C188.6 167.638 188.601 167.638 188.603 167.638C197.221 167.638 206.332 165.259 213.599 161.113C229.884 151.819 239.61 133.572 238.978 113.492Z" fill="#FCD800"/>
<path d="M233.165 113.675C232.87 104.308 230.215 93.7156 223.197 87.0648C217.55 81.7143 209.747 79.5715 202.2 80.6608C205.745 75.1015 208.51 68.6237 207.49 61.9587C206.458 55.2189 201.463 50.0813 195.478 47.2433C184.75 42.1549 171.583 44.2804 162.675 51.8065C165.679 44.8967 166.697 36.8495 165.788 30.2765C163.681 15.0359 148.919 5.81948 134.311 5.81641C117.165 5.81334 101.598 17.6313 99.3936 34.6063C91.7241 23.1241 75.4731 21.9764 64.0441 29.4493C52.8261 36.785 45.7648 52.7238 52.562 65.1806C51.9364 65.0875 51.3057 65.0107 50.6679 64.9605C38.7445 64.0207 27.0606 70.5424 19.1209 79.0268C3.59976 95.6127 0.996199 121.112 14.9888 139.468C29.9447 159.089 59.5209 161.763 77.0077 144.026C85.9887 159.071 102.669 168.768 120.058 170.069C129.641 170.786 139.379 169.028 148.129 165.065C155.147 161.887 162.591 157.127 164.306 149.272C164.719 150.085 165.185 150.867 165.713 151.601C175.626 165.384 197.658 163.518 210.716 156.065C225.692 147.516 233.7 130.64 233.165 113.675ZM214.279 150.903C202.953 159.611 185.349 163.117 172.715 154.993C165.517 150.365 160.578 138.413 169.519 132.698C174.006 129.83 179.995 131.422 181.542 136.805C183.053 142.06 175.074 147.657 172.551 141.57C172.009 140.265 169.857 140.806 170.386 142.167C172.125 146.637 177.879 147.513 181.514 144.559C185.773 141.098 184.32 134.56 180.635 131.282C175.96 127.122 168.976 128.904 165.249 133.453C162.173 137.209 161.805 142.152 163.209 146.588C162.752 146.703 162.339 147.052 162.275 147.638C161.202 157.345 149.413 162.653 141.226 165.266C133.174 167.837 124.572 168.564 116.212 167.31C100.344 164.93 87.1436 155.45 77.9118 142.615C77.8637 141.732 76.7344 140.98 75.9532 141.805C65.3659 152.991 48.351 156.8 33.9561 151.231C19.126 145.493 8.84684 130.188 8.00014 114.474C7.12273 98.2009 15.9276 82.0563 29.5536 73.3057C36.9589 68.55 46.0208 65.7898 54.7703 67.9644C64.4844 70.3786 71.1709 78.8006 71.1607 88.8494C71.1505 99.7203 61.7651 111.74 49.7997 108.519C43.5308 106.832 41.1351 101.188 42.5736 95.1448C43.2411 92.3375 44.5444 89.2404 47.0507 87.6085C48.2107 86.8529 49.6318 86.1843 51.0826 86.1587C55.4102 86.083 59.2915 95.9854 51.7572 94.5828C50.9976 94.4415 50.6658 95.5502 51.4337 95.7571C58.4571 97.6419 60.7208 87.1068 54.0199 84.6251C44.8383 81.225 39.2513 92.8648 39.9997 100.35C40.9846 110.201 52.0931 113.069 60.1812 109.871C70.2638 105.886 75.0185 94.1845 72.9954 83.9422C71.0767 74.2261 63.4851 67.4546 54.1663 65.4817C49.1219 53.2716 53.6718 39.2902 64.5253 31.8112C76.0372 23.8776 93.0807 25.3274 99.2769 39.1049C99.7622 40.1851 101.4 39.5851 101.408 38.5275C101.531 22.2488 114.702 9.99155 130.453 8.32784C143.606 6.93852 158.736 13.4173 162.716 26.9256C166.588 40.0684 160.181 63.6715 143.893 64.897C135.84 65.5021 125.973 56.1915 133.028 48.5958C135.91 45.4926 141.464 44.3418 144.122 48.4002C146.205 51.5802 145.3 56.1905 141.879 57.9207C140.579 58.579 141.719 60.4905 143.017 59.867C152.996 55.0612 144.984 39.2739 134.597 44.564C129.298 47.2617 127.053 53.4446 129.472 58.878C132.198 64.9984 138.858 68.0545 145.321 67.0256C152.24 65.9239 157.395 61.3782 160.842 55.4543C169.133 47.788 181.164 44.435 192.051 48.2978C198.385 50.5451 204.086 55.3571 205.167 62.273C206.276 69.3752 202.662 76.1048 198.718 81.741C198.117 82.601 199.108 83.6627 200.017 83.4313C208.071 81.3836 216.84 83.5296 222.576 89.7227C228.041 95.624 230.299 104.318 230.78 112.17C231.673 126.789 226.07 141.837 214.279 150.903Z" fill="#1D1D1B"/>
</svg>
