<svg width="128" height="103" viewBox="0 0 128 103" fill="none" xmlns="http://www.w3.org/2000/svg">
<path d="M112.907 13.4828C106.549 8.4667 98.5433 5.70352 90.3645 5.70352C82.7217 5.70352 75.6759 8.17975 70.2575 12.5814C66.6409 6.49694 60.6284 2.13215 53.5678 0.890344C52.3537 0.676302 51.1063 0.568359 49.8608 0.568359C40.3452 0.568359 31.8186 6.64548 28.8524 15.1223C27.8634 14.9682 26.8569 14.8907 25.8337 14.8907C14.6759 14.8907 3.09271 24.8686 0.540815 36.6787C-1.04143 43.9985 0.906164 52.1764 5.62338 58.0229C8.93365 62.1257 13.2394 64.7126 17.976 65.5014C17.1032 71.7575 18.1513 78.1649 21.0953 84.1064C25.3447 92.6838 33.0687 99.0626 42.2872 101.608C45.3253 102.447 48.5166 102.872 51.7724 102.872C59.5425 102.872 67.1613 100.474 73.2227 96.1205C78.1244 92.5998 81.7429 87.9417 83.768 82.645C86.0828 83.1986 88.4557 83.4772 90.8544 83.4772H90.8572C104.849 83.4772 118.815 73.7872 124.817 59.9123C131.847 43.6562 126.951 24.5632 112.907 13.4828Z" fill="#FCD800"/>
<path d="M109.661 17.5969C96.9544 7.57195 76.9175 8.60435 68.3891 22.554C67.0882 14.4813 61.0969 7.53504 52.6607 6.05151C44.052 4.53846 34.8279 10.2567 33.218 19.0463C33.0353 20.0454 32.9901 21.0806 33.063 22.1185C21.9476 15.5607 8.12805 26.3846 5.66288 37.786C3.10915 49.5979 12.2271 63.2809 24.8224 60.0316C18.76 75.1418 27.926 92.2051 43.6811 96.5551C58.9233 100.763 77.7977 92.3629 80.1503 75.831C80.8515 76.1742 81.5729 76.4851 82.3156 76.7517C97.5744 82.2254 113.961 71.8075 120.006 57.8312C126.081 43.7911 121.654 27.059 109.661 17.5969ZM117.621 58.1024C111.369 71.266 94.3453 81.2004 80.3219 73.709C80.2047 73.1517 79.641 72.9248 79.129 73.0262C73.2576 69.4041 69.0127 62.922 69.7481 55.8383C70.1309 52.1526 71.7639 48.6006 74.3417 45.9389C75.9304 44.2976 77.9785 43.006 80.1909 42.3962C82.3608 41.7042 84.4846 41.8832 86.5614 42.9313C90.3505 47.3846 89.7646 50.0712 84.8039 50.9901C84.2254 50.9643 84.0732 51.9339 84.6645 52.0197C89.7277 52.7541 92.3673 47.2287 89.4713 43.2689C85.3777 37.6734 77.0384 40.5215 72.9901 44.5883C63.5556 54.0651 68.0044 68.3819 78.1843 74.7386C76.6048 90.6561 58.4168 98.4594 44.2365 94.5439C29.0303 90.3452 20.2445 73.2975 27.6372 58.8377C28.0053 58.1181 27.3715 56.9344 26.4581 57.3044C13.647 62.4893 4.83439 48.3266 8.00073 37.0359C11.2621 25.4048 22.3895 20.134 33.2955 23.829C34.5557 30.1967 40.1946 35.9334 47.1593 32.9082C50.035 31.659 52.1007 28.8802 51.8904 25.6843C51.7307 23.2689 49.7601 19.6164 46.8816 20.5279C46.1721 20.7521 46.471 21.7467 47.1842 21.6258C50.6965 21.0271 50.2085 27.3597 49.4381 28.6431C48.426 30.3305 46.3889 31.3084 44.5345 31.5262C40.2315 32.0308 36.4831 28.7565 35.3842 24.734C35.3206 24.5025 35.28 24.2709 35.232 24.0403C35.2929 23.876 35.28 23.6897 35.1333 23.5688L35.1324 23.5679C34.2042 17.8967 37.6944 12.2892 42.6598 9.63211C47.8217 6.87079 53.9284 7.49999 58.7415 10.7005C64.0243 14.2128 66.4646 19.931 66.6149 26.0561C66.5245 26.2738 66.4258 26.4833 66.3409 26.7056C66.1435 27.2204 66.3723 27.6042 66.7367 27.7924C67.1482 28.5499 68.5441 28.3764 68.6207 27.297C68.64 27.0212 68.6336 26.7481 68.6419 26.4731C75.4276 11.2937 94.922 9.28798 107.572 18.5997C119.77 27.5784 124.119 44.4222 117.621 58.1024Z" fill="#1D1D1B"/>
</svg>
