<svg width="207" height="147" viewBox="0 0 207 147" fill="none" xmlns="http://www.w3.org/2000/svg">
<path d="M101.417 70.1728C99.6703 69.9519 97.9693 69.4958 96.301 68.9506C95.8903 68.816 95.4654 68.7027 95.0646 68.5399C94.6425 68.3671 94.2205 68.1943 93.797 68.0229C93.4996 67.9011 93.1866 67.7949 92.8977 67.6519C92.4176 67.4154 91.9389 67.1803 91.4587 66.9423C90.6628 66.55 89.9023 66.1053 89.1318 65.6634C88.4081 65.247 87.7241 64.7641 87.0272 64.3052C85.3391 63.1906 83.7755 61.8324 82.3861 60.3652C80.8283 58.7209 79.606 56.816 78.6798 54.7525C77.7507 52.6819 77.3032 50.4471 77.2309 48.1867C77.1955 47.0848 77.3131 45.9688 77.4745 44.8797C77.6501 43.6971 77.9107 42.523 78.2294 41.373C78.8469 39.1438 79.8071 37.0407 80.9812 35.0522C81.5661 34.0594 82.2134 33.1077 82.9116 32.1914C83.665 31.2028 84.5176 30.3006 85.4099 29.4381C85.7229 29.1336 86.0628 28.8546 86.3871 28.5629C86.6817 28.3023 86.9664 28.029 87.2794 27.7882C87.9563 27.2642 88.6205 26.726 89.3343 26.2501C89.755 25.9697 90.1756 25.6907 90.5977 25.4089C90.9546 25.1723 91.3398 24.9769 91.7123 24.7687C92.0253 24.5931 92.334 24.3948 92.6598 24.2433C93.1469 24.0138 93.6341 23.7844 94.1213 23.555C94.4513 23.4006 94.7856 23.2689 95.1241 23.1372C95.5461 22.9729 95.9639 22.8058 96.3973 22.6726C96.5163 22.6372 96.6352 22.599 96.7542 22.5636C96.995 22.1231 97.434 21.796 97.958 21.7506C99.5938 21.6133 101.237 21.5354 102.877 21.5708C104.643 21.6062 106.398 21.7506 108.151 21.9574C109.79 22.1514 111.404 22.5112 113.009 22.8865C114.701 23.2845 116.345 23.851 117.942 24.5308C119.482 25.1879 120.909 26.1113 122.294 27.0418C122.959 27.4894 123.619 27.9723 124.243 28.4765C124.938 29.0416 125.646 29.6024 126.292 30.2256C127.476 31.3614 128.624 32.5299 129.613 33.8441C130.136 34.5381 130.664 35.2392 131.099 35.9926C131.3 36.3425 131.533 36.688 131.708 37.0534C131.914 37.4825 132.154 37.9103 132.328 38.355C132.48 38.7459 132.631 39.1353 132.783 39.5248C132.937 39.9242 133.038 40.3519 133.165 40.7626C133.426 41.6152 133.576 42.5046 133.741 43.3799C133.89 44.1758 134.005 44.976 134.063 45.7833C134.111 46.4447 134.101 47.1018 134.094 47.7632C134.087 48.6328 133.975 49.5052 133.798 50.3564C133.655 51.0348 133.435 51.6877 133.217 52.3434C132.686 53.9438 131.991 55.4833 131.14 56.9392C130.944 57.2706 130.756 57.6049 130.542 57.9264C130.279 58.3229 130.029 58.7365 129.74 59.1146C129.477 59.4602 129.215 59.8058 128.952 60.1499C128.683 60.5026 128.367 60.8255 128.076 61.1611C127.503 61.8253 126.848 62.4145 126.191 62.9923C125.434 63.658 124.631 64.2755 123.825 64.8831C121.965 66.2809 119.903 67.3474 117.722 68.1504C117.218 68.3359 116.704 68.4875 116.19 68.6433C115.783 68.7665 115.377 68.9166 114.963 69.0143C114.184 69.2013 113.408 69.4151 112.619 69.5568C112.107 69.6488 111.592 69.7409 111.081 69.8329C110.649 69.9108 110.212 69.9561 109.775 70.0128C108.883 70.1275 107.991 70.2026 107.096 70.2805C106.325 70.347 105.553 70.381 104.783 70.381C103.656 70.3853 102.531 70.3145 101.417 70.1728ZM100.842 25.0378C100.626 25.0378 100.41 25.0392 100.193 25.042C99.8501 25.0704 99.5117 25.1143 99.1718 25.1624C98.8489 25.2318 98.516 25.2856 98.203 25.3805C97.8447 25.491 97.4864 25.6015 97.1295 25.7105C96.631 25.906 96.1324 26.0986 95.6339 26.294C95.1184 26.5376 94.6015 26.7798 94.0859 27.022C93.78 27.1665 93.4883 27.3562 93.1923 27.5219C92.9133 27.6791 92.6328 27.8349 92.3538 27.9935C91.8043 28.3589 91.2562 28.7229 90.7081 29.0883C90.4348 29.2696 90.1827 29.4948 89.9235 29.6945C89.6445 29.9112 89.3655 30.125 89.0879 30.3403C88.1673 31.1632 87.2496 31.9747 86.4055 32.8768C85.8008 33.5595 85.2385 34.2747 84.7088 35.0197C84.0403 35.9997 83.4285 37.0166 82.8733 38.0646C82.4385 38.9257 82.0519 39.8052 81.7162 40.7116C81.3749 41.6931 81.0931 42.6902 80.8651 43.7042C80.664 44.6729 80.4997 45.6459 80.4076 46.6302C80.3637 47.2406 80.3453 47.8468 80.3609 48.4586C80.3949 49.0591 80.4572 49.6539 80.5507 50.2474C80.6597 50.8224 80.7929 51.3889 80.9586 51.9483C81.1611 52.57 81.3948 53.1748 81.6582 53.771C81.9627 54.414 82.2955 55.0358 82.6651 55.6433C83.0645 56.2665 83.4951 56.8642 83.961 57.4378C84.5205 58.0907 85.1125 58.7096 85.7385 59.3001C86.652 60.1258 87.6108 60.8906 88.6092 61.6087C89.2012 61.9995 89.7932 62.389 90.3866 62.7799C90.6926 62.981 91.0296 63.1481 91.3483 63.3308C91.65 63.505 91.9516 63.6792 92.2561 63.8534C92.8991 64.1707 93.5421 64.4879 94.1837 64.8038C94.5023 64.961 94.8493 65.0743 95.1764 65.2088C95.5263 65.3533 95.8789 65.4963 96.2302 65.6394C96.6805 65.7866 97.1295 65.9339 97.5785 66.0798C98.3475 66.3319 99.1208 66.5443 99.9096 66.7285C100.836 66.9253 101.765 67.0811 102.71 67.176C103.765 67.2581 104.818 67.2737 105.876 67.2341C107.414 67.159 108.94 66.9721 110.465 66.7752C110.978 66.6831 111.49 66.5911 112.003 66.499C112.444 66.4197 112.876 66.3036 113.31 66.1988C113.721 66.1011 114.133 66.009 114.537 65.8872C115.044 65.7328 115.551 65.5785 116.058 65.4241C116.857 65.1465 117.643 64.8406 118.416 64.495C119.147 64.1494 119.854 63.7699 120.543 63.3478C121.682 62.6156 122.738 61.7829 123.796 60.9388C124.128 60.6484 124.458 60.3581 124.788 60.0663C125.105 59.7873 125.391 59.4573 125.684 59.15C125.958 58.8342 126.231 58.5184 126.503 58.2025C126.788 57.874 127.037 57.5072 127.3 57.1587C127.673 56.5993 128.038 56.0427 128.378 55.4635C128.732 54.8601 129.049 54.2455 129.369 53.6252C129.338 53.6861 129.307 53.7455 129.276 53.8064C129.449 53.4141 129.62 53.0247 129.791 52.6324C129.929 52.3179 130.039 51.9851 130.154 51.658C130.364 51.0277 130.575 50.4031 130.735 49.7587C130.825 49.3027 130.892 48.8453 130.939 48.3807C130.98 47.759 130.991 47.1316 130.975 46.507C130.939 45.7606 130.851 45.0227 130.735 44.2849C130.653 43.8515 130.572 43.4167 130.491 42.9847C130.409 42.5556 130.291 42.1293 130.191 41.703C130.083 41.3532 129.976 41.0034 129.868 40.6507C129.748 40.2613 129.572 39.8817 129.422 39.5007C129.263 39.1707 129.106 38.8407 128.947 38.5093C128.777 38.1567 128.555 37.821 128.355 37.4811C128.13 37.1426 127.904 36.8027 127.68 36.4643C127.428 36.0847 127.129 35.7306 126.854 35.3681C126.436 34.8752 126.021 34.3837 125.577 33.915C125.092 33.4065 124.592 32.9193 124.088 32.4336C123.516 31.9322 122.94 31.4407 122.348 30.9606C121.791 30.5088 121.206 30.0925 120.624 29.6775C119.633 29.0118 118.624 28.3901 117.576 27.8165C117.164 27.6168 116.755 27.4185 116.333 27.2401C115.902 27.056 115.466 26.8917 115.028 26.7288C114.408 26.5235 113.789 26.3323 113.163 26.1482C112.533 25.9655 111.888 25.8267 111.25 25.6765C110.394 25.4953 109.539 25.3295 108.678 25.1837C107.774 25.0307 106.861 24.9429 105.95 24.8537C104.593 24.7503 103.239 24.6908 101.882 24.6908C101.868 24.6908 101.854 24.6908 101.841 24.6908C101.562 24.9118 101.214 25.0378 100.842 25.0378Z" fill="black"/>
<path d="M100.135 44.1749C99.7242 44.165 99.3262 43.9908 99.0415 43.692C98.747 43.3832 98.6223 42.998 98.6096 42.5774C98.5643 40.9571 98.56 39.3369 98.5586 37.7153C98.5586 36.8386 98.5614 35.962 98.5699 35.0853C98.5742 34.6746 98.5827 34.2653 98.5912 33.856C98.5997 33.4623 98.5869 33.0402 98.6931 32.6578C98.924 31.8378 99.812 31.3534 100.626 31.5871C101.38 31.8024 101.846 32.5615 101.738 33.3178C101.738 33.3221 101.738 33.3249 101.738 33.3291C101.663 34.8899 101.681 36.4534 101.681 38.0141C101.683 39.5593 101.689 41.1044 101.731 42.6496C101.754 43.4894 100.975 44.1749 100.166 44.1749C100.158 44.1749 100.146 44.1749 100.135 44.1749Z" fill="black"/>
<path d="M107.923 45.4883C107.083 45.4685 106.362 44.742 106.398 43.8908C106.47 42.102 106.542 40.3133 106.61 38.5246C106.677 36.8024 106.738 35.0816 106.738 33.358C106.738 32.5068 107.5 31.8129 108.337 31.8327C109.202 31.8539 109.862 32.5791 109.862 33.4302C109.862 35.1043 109.802 36.7769 109.739 38.4509C109.668 40.2892 109.594 42.1261 109.521 43.9644C109.487 44.8015 108.805 45.4898 107.961 45.4898C107.949 45.4883 107.936 45.4883 107.923 45.4883Z" fill="black"/>
<path d="M98.7111 58.6298C97.7381 58.2304 96.836 57.6894 95.9763 57.0889C95.0798 56.4615 94.315 55.667 93.6281 54.8201C92.9809 54.0213 92.4682 53.0965 92.0985 52.1391C91.913 51.6575 91.7955 51.1463 91.6666 50.6492C91.5023 50.0189 91.389 49.3759 91.2828 48.7344C91.1326 47.8308 91.1355 46.923 91.1525 46.0109C91.161 45.5761 91.1766 45.1413 91.219 44.7093C91.3026 43.861 92.1892 43.2775 92.9979 43.4007C93.4086 43.463 93.7853 43.6924 94.0289 44.0295C94.2598 44.3482 94.3377 44.7122 94.3136 45.096C94.3178 45.0676 94.3193 45.0393 94.3221 45.0096C94.2711 45.7984 94.2499 46.593 94.2725 47.3832C94.3008 47.7727 94.3504 48.1565 94.4113 48.5432C94.5501 49.3136 94.7328 50.0756 94.9509 50.829C95.0203 51.0372 95.0982 51.2383 95.1846 51.4394C95.3234 51.7184 95.4721 51.9875 95.6321 52.2552C95.8318 52.5554 96.0428 52.8444 96.268 53.1248C96.506 53.3981 96.7538 53.6601 97.0144 53.9137C97.3345 54.1969 97.6659 54.4603 98.0129 54.7096C98.4137 54.9759 98.8258 55.2195 99.2521 55.4446C99.6883 55.6542 100.129 55.8426 100.583 56.0111C101.055 56.1698 101.531 56.3029 102.015 56.4148C102.519 56.5139 103.024 56.5861 103.535 56.6385C104.065 56.6725 104.591 56.681 105.121 56.6655C105.672 56.6329 106.216 56.5748 106.761 56.4913C107.338 56.385 107.904 56.2519 108.466 56.089C108.944 55.9318 109.411 55.7562 109.87 55.5537C110.232 55.3752 110.585 55.184 110.932 54.9759C111.275 54.7507 111.603 54.5127 111.923 54.2564C112.285 53.9448 112.627 53.6191 112.956 53.2735C113.406 52.7665 113.821 52.2382 114.216 51.6873C114.468 51.3049 114.729 50.9282 114.959 50.533C115.236 50.0557 115.5 49.5785 115.756 49.0927C116.211 48.1664 116.651 47.2359 117.016 46.2715C117.065 46.127 117.113 45.9854 117.159 45.8395C117.419 45.028 118.257 44.5309 119.093 44.7688C119.893 44.9968 120.421 45.8905 120.163 46.7006C119.646 48.3279 118.88 49.856 118.088 51.3644C117.724 52.0555 117.284 52.7013 116.859 53.3528C116.27 54.255 115.56 55.0849 114.808 55.8525C113.994 56.6839 113.039 57.3693 112.035 57.9514C111.105 58.491 110.085 58.8593 109.058 59.1694C107.869 59.5277 106.615 59.709 105.377 59.7784C105.101 59.794 104.825 59.8011 104.55 59.8011C102.545 59.7954 100.569 59.3889 98.7111 58.6298Z" fill="black"/>
<path d="M85.4528 115.322C84.8523 115.262 84.1952 115.152 83.708 114.764C83.4431 114.553 83.15 114.24 83.0452 113.91C82.9999 113.771 82.9574 113.631 82.9149 113.491C82.8653 113.278 82.854 113.046 82.8582 112.826C82.8682 112.2 82.9163 111.571 82.9545 110.947C83.0282 109.732 83.1103 108.517 83.1967 107.301C83.3808 104.707 83.6414 102.116 83.8723 99.5276C84.1527 96.1753 84.4062 92.8215 84.6611 89.4678C84.9175 86.0787 85.2206 82.6952 85.5435 79.3132C85.7942 76.6902 86.0491 74.0645 86.3012 71.4416C86.4187 70.2193 86.5292 68.9957 86.6468 67.7706C86.6779 67.4406 86.7105 67.112 86.7417 66.7806C86.7728 66.4464 86.8139 66.1136 86.8578 65.7807C86.9059 65.4054 86.9555 64.9805 87.1113 64.6293C87.2175 64.3914 87.3322 64.1733 87.5234 63.9906C87.7274 63.7951 87.9894 63.6521 88.2641 63.5884C88.6437 63.4977 89.1153 63.5487 89.4453 63.7753C89.7965 64.0189 90.0614 64.3291 90.1634 64.7539C90.254 65.1363 90.1945 65.5442 90.0033 65.8841C89.8433 66.8939 89.7654 67.9165 89.6691 68.9319C89.5954 69.6882 89.526 70.4445 89.4552 71.2036C89.3348 72.4938 89.2102 73.7826 89.0841 75.0729C88.7896 78.1079 88.5021 81.143 88.2202 84.1795C87.9441 87.4652 87.699 90.7552 87.4441 94.0438C87.175 97.5065 86.8748 100.965 86.5618 104.424C86.5476 104.569 86.5349 104.715 86.5221 104.86C86.4116 106.168 86.3083 107.474 86.2204 108.783C86.144 109.93 86.0434 111.083 85.9981 112.234C86.6722 112.274 87.345 112.258 88.0205 112.253C91.4479 112.081 94.8753 111.843 98.3012 111.615C101.683 111.39 105.067 111.233 108.454 111.108C109.12 111.084 109.784 111.057 110.45 111.032C110.385 111.035 110.317 111.036 110.252 111.039C112.853 110.912 115.451 110.753 118.037 110.42C119.365 110.249 120.69 110.05 122.015 109.848C123.174 109.671 124.339 109.522 125.494 109.338C125.495 109.335 125.496 109.334 125.498 109.331C125.512 109.283 125.526 109.237 125.537 109.189C125.567 109.021 125.593 108.854 125.613 108.685C125.63 108.366 125.631 108.051 125.622 107.732C125.58 107.049 125.481 106.381 125.379 105.707C125.066 104.108 124.705 102.523 124.339 100.935C123.955 99.2585 123.569 97.5816 123.169 95.9076C122.393 92.6587 121.627 89.4112 120.967 86.1353C120.367 83.1527 119.776 80.17 119.153 77.1916C118.86 75.7895 118.568 74.386 118.259 72.9867C117.958 71.6242 117.649 70.2632 117.255 68.9248C117.114 68.4702 116.962 68.017 116.803 67.5666C116.52 66.765 116.9 65.8586 117.71 65.5527C118.49 65.2567 119.44 65.6561 119.724 66.4591C120.749 69.3596 121.334 72.3876 121.964 75.3929C122.655 78.6858 123.315 81.9828 123.98 85.2799C124.3 86.869 124.628 88.4566 124.988 90.0357C125.37 91.7154 125.778 93.388 126.179 95.0621C126.578 96.7347 126.965 98.4101 127.349 100.086C127.727 101.73 128.102 103.374 128.428 105.03C128.7 106.423 128.827 107.864 128.689 109.276C128.609 110.091 128.308 111.045 127.69 111.615C127.411 111.873 127.111 112.094 126.751 112.23C126.367 112.376 125.955 112.424 125.552 112.482C124.031 112.697 122.514 112.935 120.993 113.159C119.303 113.41 117.612 113.631 115.911 113.795C114.217 113.958 112.521 114.051 110.821 114.134C109.364 114.204 107.908 114.25 106.45 114.302C103.124 114.445 99.8025 114.649 96.4799 114.863C94.7945 114.972 93.1106 115.08 91.4252 115.186C90.4834 115.244 89.5416 115.299 88.5998 115.346C88.0786 115.371 87.5546 115.391 87.0306 115.391C86.5037 115.394 85.9769 115.374 85.4528 115.322Z" fill="black"/>
<path d="M53.6732 145.765C51.7301 145.328 49.5703 144.421 48.5138 142.624C48.2702 142.206 48.1073 141.777 47.9827 141.311C47.926 141.096 47.9062 140.864 47.8991 140.643C47.8934 140.407 47.885 140.157 47.9303 139.925C48.0209 139.474 48.137 139.031 48.375 138.632C48.6639 138.144 49.0166 137.714 49.457 137.357C51.1183 136.013 53.3886 135.881 55.4365 136.037C57.2437 136.173 59.0182 136.548 60.7532 137.057C61.0888 137.156 61.4131 137.269 61.7417 137.391C62.0844 137.518 62.4329 137.633 62.7643 137.785C63.1297 137.952 63.5007 138.109 63.859 138.292C63.8279 138.103 63.7939 137.916 63.7641 137.728C63.6268 136.867 63.4866 136.006 63.3506 135.143C63.0815 133.466 62.8195 131.79 62.5702 130.11C62.0618 126.716 61.7955 123.293 61.5335 119.876C61.4712 119.059 61.4457 118.237 61.4018 117.42C61.314 115.752 61.2871 114.086 61.3792 112.418C61.4415 111.286 61.5774 110.157 61.7885 109.043C61.8862 108.524 62.0179 108.013 62.1708 107.506C62.3436 106.933 62.549 106.348 62.845 105.825C63.0744 105.417 63.3322 105.036 63.6423 104.686C63.9284 104.365 64.2797 104.046 64.6691 103.852C65.0756 103.653 65.5033 103.463 65.9594 103.413C66.4706 103.357 66.9663 103.396 67.4691 103.505C68.2226 103.668 68.9505 103.994 69.6374 104.337C70.0297 104.533 70.4277 104.722 70.8157 104.929C71.623 105.359 72.4274 105.795 73.2262 106.241C74.6595 107.046 76.0843 107.866 77.5175 108.67C78.2979 109.071 79.0712 109.479 79.8742 109.829C80.3458 110.034 80.8146 110.265 81.299 110.444C81.7805 110.622 82.2634 110.8 82.745 110.979C83.2449 111.146 83.7449 111.316 84.2476 111.472C84.7334 111.625 85.2248 111.765 85.705 111.935C86.1072 112.078 86.4428 112.312 86.651 112.697C86.8422 113.054 86.8875 113.479 86.7771 113.868C86.5533 114.648 85.6455 115.222 84.8439 114.939C84.249 114.729 83.64 114.555 83.0381 114.368C82.3612 114.157 81.6941 113.918 81.0284 113.671C80.6843 113.544 80.3401 113.416 79.996 113.289C79.6264 113.153 79.268 112.972 78.9069 112.814C78.6236 112.691 78.329 112.581 78.0543 112.44C77.6507 112.234 77.2456 112.028 76.8405 111.822C75.5404 111.16 74.2757 110.435 73.011 109.71C71.7689 108.999 70.5169 108.305 69.2536 107.632C68.5398 107.274 67.8317 106.913 67.081 106.635C67.0046 106.61 66.9267 106.586 66.8488 106.564C66.7284 106.542 66.6108 106.523 66.489 106.508C66.4678 106.508 66.4466 106.508 66.4239 106.508C66.4168 106.508 66.4111 106.509 66.4026 106.511C66.3828 106.515 66.363 106.52 66.3446 106.525C66.3148 106.535 66.2851 106.546 66.2554 106.556C66.2228 106.573 66.1888 106.59 66.1548 106.605C66.135 106.62 66.1152 106.634 66.0953 106.647C66.0599 106.681 66.0259 106.714 65.9905 106.748C65.9027 106.852 65.8206 106.958 65.7398 107.069C65.6832 107.155 65.6308 107.244 65.5812 107.335C65.4821 107.542 65.3943 107.75 65.3135 107.964C65.1606 108.417 65.0289 108.873 64.9198 109.336C64.7584 110.133 64.6437 110.938 64.5629 111.746C64.4425 113.259 64.4355 114.766 64.4737 116.28C64.5643 117.998 64.6606 119.712 64.7909 121.425C64.9156 123.051 65.06 124.676 65.2442 126.297C65.628 129.699 66.1831 133.077 66.727 136.456C66.8162 137.008 66.9054 137.562 66.9946 138.113C67.1065 138.813 67.2453 139.51 67.2623 140.219C67.2765 140.771 67.0187 141.351 66.6222 141.727C66.4763 141.869 66.2993 141.98 66.1081 142.059C66.0358 142.318 65.897 142.557 65.6846 142.744C64.1423 144.105 62.2728 145.111 60.3085 145.704C59.2831 146.015 58.1968 146.107 57.1332 146.128C57.0482 146.131 56.9618 146.132 56.8754 146.132C55.7976 146.133 54.7142 146 53.6732 145.765ZM51.0149 140.517C51.0206 140.551 51.0262 140.586 51.0305 140.621C51.0404 140.658 51.0503 140.695 51.0602 140.732C51.0815 140.784 51.0999 140.835 51.1197 140.886C51.1438 140.936 51.1707 140.985 51.199 141.032C51.2472 141.103 51.2967 141.172 51.3491 141.239C51.4115 141.31 51.4766 141.376 51.5446 141.441C51.6522 141.535 51.7641 141.625 51.8802 141.71C52.0474 141.821 52.2173 141.924 52.3929 142.023C52.6946 142.171 52.9991 142.304 53.3135 142.423C53.6761 142.543 54.0401 142.647 54.4111 142.733C54.9252 142.835 55.4393 142.911 55.9605 142.964C56.4888 143.002 57.0156 143.013 57.5439 142.996C57.8951 142.974 58.2449 142.938 58.5948 142.887C58.9687 142.819 59.3355 142.733 59.7009 142.628C59.9955 142.529 60.2858 142.42 60.5747 142.3C61.1823 142.014 61.77 141.703 62.3479 141.355C62.4442 141.291 62.5377 141.228 62.6325 141.164C62.5235 141.107 62.413 141.049 62.3025 140.992C62.362 141.024 62.4229 141.055 62.4838 141.086C62.1057 140.913 61.7276 140.74 61.3494 140.569C61.0053 140.413 60.6356 140.297 60.2745 140.17C59.8453 140.042 59.4176 139.917 58.9885 139.791C58.6118 139.681 58.218 139.607 57.8314 139.522C56.9887 139.374 56.1517 139.233 55.2991 139.151C54.8275 139.117 54.3573 139.102 53.8843 139.11C53.5444 139.13 53.2059 139.161 52.8674 139.209C52.6493 139.249 52.4354 139.297 52.2202 139.354C52.1097 139.392 51.9992 139.433 51.8916 139.48C51.8165 139.517 51.7414 139.556 51.6678 139.599C51.5913 139.648 51.5191 139.701 51.4469 139.757C51.3846 139.815 51.3237 139.875 51.2613 139.933C51.2897 139.903 51.318 139.872 51.3449 139.841C51.3746 139.818 51.4015 139.794 51.4299 139.77C51.403 139.793 51.3775 139.813 51.3506 139.835C51.369 139.815 51.3874 139.796 51.4058 139.776C51.3831 139.799 51.3591 139.824 51.3378 139.848C51.3222 139.861 51.3067 139.874 51.2911 139.888C51.3052 139.876 51.318 139.865 51.3321 139.854C51.2755 139.915 51.2231 139.977 51.1735 140.042C51.1466 140.086 51.1211 140.13 51.0942 140.174C51.0815 140.201 51.0701 140.228 51.056 140.255C51.0503 140.274 51.0418 140.296 51.0361 140.315C51.0305 140.342 51.0248 140.368 51.0192 140.395C51.0248 140.328 51.0319 140.262 51.0361 140.196C51.022 140.304 51.0149 140.41 51.0149 140.517Z" fill="black"/>
<path d="M157.63 143.564C156.434 143.285 155.262 142.875 154.129 142.404C153.343 142.077 152.981 141.121 153.316 140.349C153.381 140.198 153.467 140.063 153.569 139.947C153.093 139.966 152.615 139.825 152.234 139.519C151.602 139.014 151.49 138.185 151.417 137.435C151.339 136.639 151.258 135.844 151.173 135.051C150.999 133.439 150.8 131.831 150.588 130.223C150.371 128.57 150.197 126.913 150.04 125.253C149.802 122.754 149.599 120.253 149.357 117.754C149.234 116.481 149.132 115.202 148.965 113.932C148.88 113.283 148.816 112.627 148.709 111.982C148.607 111.374 148.506 110.768 148.404 110.16C148.203 109.241 148.013 108.322 147.748 107.418C147.593 106.933 147.418 106.457 147.22 105.986C147.087 105.705 146.947 105.428 146.794 105.158C146.688 104.998 146.579 104.844 146.462 104.691C146.416 104.64 146.368 104.589 146.318 104.539C146.275 104.504 146.232 104.468 146.186 104.434C146.161 104.422 146.137 104.406 146.111 104.393C146.105 104.39 146.098 104.388 146.093 104.386C146.079 104.38 146.063 104.378 146.047 104.373C146.043 104.373 146.042 104.373 146.039 104.372C146.012 104.372 145.985 104.371 145.958 104.371C145.914 104.375 145.87 104.379 145.825 104.383C145.693 104.41 145.564 104.443 145.431 104.477C144.593 104.752 143.78 105.113 142.968 105.453C142.188 105.78 141.408 106.107 140.629 106.435C139.037 107.11 137.448 107.788 135.862 108.472C134.261 109.163 132.658 109.849 131.052 110.528C130.266 110.86 129.477 111.186 128.69 111.513C128.018 111.79 127.346 112.084 126.66 112.323C126.228 112.474 125.798 112.619 125.36 112.749C124.897 112.887 124.418 113.034 123.932 113.032C123.247 113.031 122.59 112.507 122.45 111.833C122.448 111.83 122.448 111.829 122.448 111.829C122.322 111.228 122.527 110.555 123.051 110.203C123.057 110.198 123.064 110.193 123.071 110.189C123.336 110.021 123.618 109.912 123.921 109.9C124.237 109.83 124.547 109.738 124.857 109.646C126.456 109.085 128.013 108.414 129.578 107.764C131.08 107.139 132.573 106.494 134.067 105.849C137.18 104.505 140.29 103.147 143.437 101.886C144.079 101.629 144.756 101.351 145.451 101.283C145.911 101.239 146.372 101.225 146.822 101.348C147.329 101.487 147.744 101.719 148.169 102.021C148.543 102.286 148.84 102.664 149.116 103.022C149.439 103.443 149.69 103.922 149.922 104.396C150.422 105.416 150.755 106.512 151.043 107.607C151.154 108.03 151.232 108.466 151.326 108.894C151.405 109.254 151.477 109.612 151.537 109.975C151.686 110.871 151.831 111.765 151.949 112.667C152.388 116.021 152.646 119.399 152.949 122.768C153.174 125.283 153.422 127.797 153.751 130.302C153.912 131.53 154.064 132.758 154.199 133.986C154.273 134.645 154.335 135.306 154.401 135.966C154.738 135.701 155.072 135.434 155.413 135.174C156.038 134.698 156.688 134.244 157.369 133.852C158.104 133.43 158.856 133.017 159.652 132.723C161.033 132.213 162.574 131.801 164.045 132.134C164.987 132.349 165.824 132.833 166.447 133.577C167.028 134.272 167.368 135.123 167.512 136.013C167.682 137.057 167.595 138.085 167.327 139.103C167.059 140.127 166.511 141.056 165.79 141.821C165.218 142.426 164.457 142.904 163.698 143.236C162.825 143.62 161.878 143.808 160.931 143.899C160.716 143.918 160.502 143.928 160.287 143.928C159.391 143.927 158.494 143.765 157.63 143.564ZM162.894 135.143C162.669 135.16 162.448 135.184 162.225 135.217C161.887 135.286 161.561 135.373 161.233 135.468C160.846 135.612 160.471 135.765 160.093 135.931C159.644 136.16 159.206 136.398 158.768 136.649C158.14 137.057 157.533 137.483 156.939 137.937C156.281 138.437 155.657 138.986 154.959 139.427C155.097 139.444 155.236 139.481 155.371 139.536C155.719 139.682 156.072 139.818 156.429 139.947C157.165 140.198 157.906 140.419 158.661 140.6C159.053 140.671 159.442 140.729 159.839 140.78C160.046 140.794 160.253 140.801 160.461 140.8C160.707 140.781 160.951 140.754 161.194 140.716C161.479 140.665 161.759 140.607 162.037 140.529C162.187 140.477 162.333 140.42 162.48 140.359C162.631 140.284 162.778 140.205 162.924 140.121C163.084 140.015 163.238 139.903 163.39 139.784C163.497 139.687 163.599 139.589 163.7 139.485C163.749 139.429 163.795 139.368 163.84 139.306C163.898 139.219 163.95 139.13 164.001 139.038C164.098 138.833 164.187 138.627 164.269 138.416C164.31 138.293 164.344 138.168 164.377 138.042C164.418 137.826 164.452 137.61 164.476 137.392C164.483 137.263 164.486 137.134 164.483 137.006C164.469 136.823 164.45 136.643 164.425 136.462C164.407 136.37 164.385 136.279 164.36 136.188C164.32 136.072 164.278 135.96 164.231 135.849C164.208 135.803 164.184 135.759 164.159 135.715C164.125 135.667 164.091 135.622 164.057 135.574C164.02 135.534 163.983 135.496 163.945 135.458C163.851 135.378 163.751 135.306 163.647 135.241C163.663 135.252 163.68 135.264 163.697 135.275C163.674 135.266 163.652 135.258 163.63 135.251C163.653 135.259 163.674 135.266 163.697 135.275C163.715 135.288 163.734 135.3 163.751 135.313C163.755 135.316 163.758 135.317 163.764 135.319C163.759 135.317 163.758 135.316 163.755 135.315C163.776 135.329 163.796 135.344 163.819 135.358C163.775 135.334 163.732 135.309 163.69 135.285C163.642 135.264 163.595 135.244 163.547 135.221C163.492 135.204 163.436 135.189 163.38 135.174C163.305 135.164 163.23 135.155 163.155 135.145C163.085 135.14 163.014 135.139 162.943 135.139C162.925 135.142 162.909 135.143 162.894 135.143Z" fill="black"/>
<path d="M86.4449 73.1554C86.0299 73.0365 85.7198 72.7575 85.5002 72.3935C82.1083 66.7666 78.7163 61.1412 75.3229 55.5172C71.8134 49.6964 68.3025 43.8769 64.793 38.0561C61.595 32.7522 58.373 27.4596 55.1978 22.1415C55.2204 22.174 55.2403 22.208 55.2615 22.2434C54.8465 21.5424 54.9712 20.6332 55.6581 20.136C56.3251 19.6531 57.3703 19.7763 57.8391 20.4859C58.2597 21.1232 58.6336 21.7959 59.0274 22.4502C59.4636 23.1725 59.8984 23.8948 60.3346 24.6171C61.292 26.2062 62.2508 27.7952 63.2082 29.3829C64.851 32.1106 66.4967 34.8369 68.141 37.5646C71.7398 43.5314 75.3371 49.4981 78.9358 55.4648C82.0431 60.6144 85.1462 65.7639 88.2506 70.9135C88.6911 71.6429 88.3356 72.6413 87.6147 73.0294C87.3867 73.1512 87.1303 73.2135 86.8726 73.2135C86.7295 73.2135 86.5865 73.1937 86.4449 73.1554Z" fill="black"/>
<path d="M119.927 77.1611C119.164 76.7971 118.82 75.8425 119.191 75.0777C122.086 69.1153 124.972 63.1485 127.86 57.1846C130.942 50.8199 134.028 44.458 137.111 38.0933C140.041 32.043 142.973 25.9942 145.905 19.9439C146.562 18.5842 147.222 17.2246 147.88 15.8664C148.251 15.1002 149.192 14.7617 149.964 15.13C150.727 15.4954 151.07 16.4485 150.7 17.2147C147.958 22.8713 145.218 28.5293 142.476 34.1887C139.401 40.5392 136.324 46.8869 133.247 53.2361C130.295 59.3317 127.342 65.4273 124.387 71.5229C123.596 73.1573 122.805 74.7945 122.012 76.4289C121.743 76.984 121.175 77.314 120.589 77.314C120.365 77.3112 120.14 77.2631 119.927 77.1611Z" fill="black"/>
<path d="M43.5279 27.6695C43.0365 26.9996 43.1639 25.9686 43.8664 25.487C45.226 24.5523 46.6111 23.6374 48.0302 22.7933C49.5002 21.9181 51.0142 21.125 52.5508 20.3716C55.5929 18.8802 58.788 17.7118 61.9448 16.4882C65.0095 15.3 68.131 14.1925 71.3232 13.3937C74.606 12.5723 77.9116 11.8316 81.2086 11.0711C82.9067 10.6788 84.6062 10.285 86.3156 9.94231C88.093 9.58542 89.876 9.27809 91.6633 8.98776C93.343 8.71443 95.0312 8.49208 96.7179 8.26123C98.45 8.02613 100.191 7.86184 101.93 7.69331C103.571 7.53469 105.22 7.46105 106.865 7.3959C108.528 7.32934 110.193 7.31234 111.858 7.34491C113.523 7.37607 115.189 7.41573 116.85 7.52619C117.766 7.58709 118.688 7.62391 119.602 7.70747C120.577 7.79811 121.553 7.88875 122.53 7.97656C123.335 8.05162 124.135 8.16633 124.935 8.2683C125.68 8.36319 126.414 8.46658 127.153 8.59829C127.957 8.74275 128.766 8.86596 129.564 9.04299C130.505 9.25401 131.454 9.44521 132.39 9.67747C135.655 10.489 138.921 11.3019 142.165 12.1899C143.771 12.6303 145.379 13.0722 146.964 13.5863C148.605 14.1188 150.228 14.6924 151.847 15.2915C152.64 15.5861 153.429 15.9019 154.201 16.2489C154.572 16.416 154.96 16.5647 155.319 16.7559C155.739 16.9754 156.156 17.1963 156.576 17.4158C157.329 17.8124 158.033 18.2996 158.737 18.774C159.072 19.0006 159.401 19.2513 159.713 19.5105C160.001 19.7527 160.299 19.9934 160.555 20.2696C161.136 20.8927 161.122 21.8869 160.501 22.4775C159.89 23.0596 158.873 23.0454 158.294 22.4223C158.265 22.3925 158.235 22.3628 158.207 22.3331C157.818 21.9875 157.408 21.6731 156.992 21.3601C156.719 21.1717 156.448 20.9749 156.163 20.8035C155.815 20.5939 155.468 20.3829 155.121 20.1733C154.774 19.992 154.429 19.8093 154.083 19.628C153.744 19.451 153.386 19.3079 153.039 19.1522C152.3 18.8179 151.545 18.5262 150.79 18.2259C149.22 17.6453 147.643 17.0901 146.05 16.5732C144.424 16.0463 142.776 15.5946 141.127 15.1428C137.962 14.276 134.777 13.4829 131.592 12.6927C130.779 12.51 129.966 12.3287 129.154 12.1474C128.465 11.9945 127.768 11.8797 127.074 11.7565C126.417 11.639 125.767 11.5214 125.105 11.4364C124.26 11.326 123.414 11.2198 122.567 11.1107C120.243 10.8954 117.919 10.6887 115.588 10.5881C114.213 10.5286 112.842 10.4861 111.467 10.4592C110.304 10.438 109.143 10.4578 107.98 10.4692C107.207 10.5003 106.433 10.5315 105.66 10.5626C104.977 10.5895 104.295 10.6476 103.614 10.6972C102.234 10.7935 100.856 10.9096 99.4838 11.0739C96.4049 11.4421 93.3401 11.8741 90.2782 12.3698C88.7203 12.6502 87.1639 12.932 85.6188 13.2733C83.8725 13.6585 82.1306 14.0608 80.3886 14.4672C77.0547 15.2462 73.7053 15.9628 70.4069 16.8819C69.6959 17.0788 68.992 17.3026 68.2896 17.5207C65.9754 18.3067 63.6868 19.1536 61.4109 20.0444C60.2 20.5174 58.9834 20.9834 57.7782 21.4762C56.6253 21.9478 55.4839 22.4449 54.3509 22.9619C53.2703 23.4944 52.1968 24.0425 51.1346 24.6132C50.1517 25.1386 49.2056 25.7278 48.2652 26.3226C47.4056 26.8735 46.5516 27.4287 45.7132 28.0065C45.4299 28.202 45.1028 28.2983 44.7799 28.2983C44.3026 28.2969 43.8352 28.0859 43.5279 27.6695Z" fill="black"/>
<path d="M55.4238 24.8139C54.6732 24.6751 53.88 24.2106 53.3985 23.6172C53.1464 23.3042 52.9481 22.9855 52.7697 22.6258C52.5941 22.2717 52.5148 21.8624 52.4595 21.4744C52.3406 20.6558 52.5317 19.8315 52.8433 19.0794C53.1478 18.3458 53.601 17.632 54.118 17.0287C54.4069 16.693 54.7142 16.3871 55.057 16.1053C55.3615 15.8546 55.7056 15.6691 56.0554 15.4935C56.5794 15.2286 57.1729 15.189 57.7465 15.2329C58.422 15.2867 58.9701 15.7909 59.1302 16.4197C59.4247 16.465 59.7051 16.5259 59.9827 16.6449C60.341 16.7978 60.6371 17.0202 60.9161 17.2907C61.4415 17.7963 61.7687 18.5795 61.8225 19.3018C61.8791 20.0694 61.7446 20.7931 61.45 21.5027C61.1299 22.2745 60.6229 23.0195 59.9842 23.5648C59.3553 24.1015 58.66 24.4712 57.8725 24.7162C57.425 24.855 56.9618 24.9159 56.5001 24.9159C56.1404 24.9173 55.7793 24.8805 55.4238 24.8139ZM58.6826 19.5553C58.6288 19.5822 58.575 19.6077 58.5211 19.6346C58.4588 19.6714 58.3979 19.7083 58.337 19.7479C58.1926 19.8598 58.0538 19.9745 57.9164 20.0949C57.7776 20.2323 57.6431 20.3725 57.5156 20.5212C57.6502 20.8073 57.6983 21.1231 57.6601 21.4248C57.6841 21.4092 57.7096 21.3936 57.7337 21.3752C57.8116 21.3157 57.8881 21.2534 57.9603 21.1883C58.024 21.126 58.0864 21.0608 58.1444 20.9928C58.2407 20.8654 58.3328 20.7365 58.4206 20.6019C58.473 20.5099 58.5226 20.4136 58.5665 20.3173C58.6033 20.2252 58.6373 20.1346 58.667 20.0397C58.6854 19.9689 58.701 19.8995 58.7152 19.8272C58.7194 19.7876 58.7223 19.7465 58.7251 19.7054C58.7223 19.6658 58.7194 19.6261 58.7166 19.5865C58.7123 19.5737 58.7109 19.5596 58.7081 19.5468C58.6982 19.5497 58.6897 19.5525 58.6826 19.5553Z" fill="black"/>
<path d="M148.815 20.1507C147.902 19.8108 147.11 19.1169 146.544 18.3379C146.05 17.6595 145.659 16.7999 145.633 15.9473C145.609 15.1131 145.773 14.3469 146.195 13.6246C146.654 12.8386 147.374 12.2168 148.175 11.7976C149.519 11.0965 151.114 10.8586 152.57 11.3486C153.291 11.5922 153.703 12.3669 153.578 13.0921C153.975 13.4447 154.299 13.888 154.512 14.3426C154.723 14.7944 154.863 15.249 154.931 15.7419C154.996 16.222 154.942 16.6936 154.846 17.1652C154.753 17.617 154.539 18.0561 154.299 18.4456C154.084 18.7968 153.828 19.1239 153.523 19.4015C152.717 20.1323 151.662 20.4722 150.599 20.4722C149.992 20.4722 149.383 20.3632 148.815 20.1507ZM150.284 17.338C150.361 17.3465 150.439 17.3536 150.516 17.3579C150.579 17.355 150.642 17.3522 150.705 17.3508C150.82 17.3352 150.931 17.3154 151.045 17.2927C151.089 17.28 151.133 17.2658 151.178 17.2516C151.2 17.2403 151.226 17.2304 151.249 17.2191C151.285 17.1964 151.322 17.1738 151.359 17.1511C151.376 17.1369 151.395 17.1214 151.412 17.1072C151.44 17.0774 151.468 17.0477 151.496 17.0165C151.553 16.9401 151.608 16.8636 151.661 16.7843C151.683 16.7418 151.708 16.6979 151.73 16.6554C151.719 16.6795 151.708 16.7035 151.698 16.729C151.702 16.722 151.708 16.7149 151.712 16.7064C151.743 16.6327 151.771 16.5591 151.797 16.4826C151.808 16.433 151.818 16.3821 151.826 16.3325C151.831 16.3013 151.832 16.2688 151.835 16.2376C151.834 16.2022 151.834 16.1668 151.832 16.13C151.826 16.0889 151.819 16.0478 151.815 16.0068C151.831 16.0719 151.846 16.1356 151.862 16.2008C151.839 16.0861 151.81 15.9728 151.773 15.8609L151.77 15.8566C151.678 16.0223 151.57 16.1781 151.434 16.3254C151.169 16.6115 150.804 16.831 150.434 16.9457C150.144 17.0364 149.831 17.0491 149.532 16.9953C149.596 17.0435 149.661 17.0888 149.726 17.1327C149.783 17.1653 149.839 17.195 149.898 17.2247C149.971 17.2517 150.042 17.2786 150.114 17.3041C150.077 17.2941 150.041 17.2828 150.005 17.2743C149.987 17.2672 149.97 17.2587 149.953 17.2516C149.968 17.2587 149.984 17.2658 150.001 17.2729C149.973 17.2658 149.946 17.2573 149.917 17.2488C149.949 17.2601 149.983 17.2701 150.014 17.2786C150.029 17.2842 150.043 17.2913 150.06 17.2984C150.046 17.2927 150.032 17.2856 150.018 17.28C150.107 17.3012 150.195 17.321 150.284 17.338Z" fill="black"/>
<path d="M31.9982 63.2988C31.1569 61.8372 30.31 60.377 29.4843 58.9055C28.6317 57.3873 27.7621 55.8747 26.9464 54.3352C26.2977 53.1115 25.642 51.8893 25.0202 50.6487C24.305 49.2168 23.6025 47.7821 22.9114 46.339C21.7161 43.8336 20.5278 41.324 19.3212 38.8228C18.6059 37.4037 17.8936 35.9818 17.1585 34.5726C16.2748 32.8844 15.3882 31.1991 14.4931 29.5151C12.9777 26.6557 11.4467 23.8047 9.9568 20.9325C9.16228 19.403 8.37766 17.8677 7.5973 16.3311C7.15259 15.4558 6.7079 14.5834 6.25328 13.7152C6.05925 13.3442 5.86238 12.9745 5.66551 12.6035C5.48565 12.2678 5.29303 11.9392 5.19531 11.5866C5.35535 11.4903 5.5168 11.3968 5.67684 11.3005C6.38497 10.8827 7.1016 10.4833 7.82248 10.0896C7.96411 10.2426 8.07318 10.4253 8.14541 10.6249C8.13974 10.6023 8.13266 10.5796 8.127 10.557C8.13833 10.5895 8.14965 10.6235 8.16523 10.6547C8.1893 10.717 8.22047 10.7751 8.25446 10.8346C8.22471 10.7737 8.19497 10.7142 8.16523 10.6547C9.82084 13.7535 11.383 16.9047 13.0018 20.0233C14.5144 22.938 16.0751 25.83 17.616 28.7333C18.4884 30.3776 19.3523 32.0276 20.2134 33.6775C20.9145 35.0216 21.607 36.3755 22.2642 37.7394C23.7782 40.8778 25.2653 44.0248 26.7679 47.1675C27.5341 48.6956 28.3003 50.221 29.1005 51.7293C29.8398 53.1243 30.6003 54.5094 31.3736 55.886C33.0731 58.914 34.8166 61.9193 36.5444 64.9346C37.431 66.4769 38.3133 68.0234 39.1872 69.5714C39.0965 69.6196 39.0073 69.6663 38.9166 69.7145C38.8741 69.7371 38.8317 69.7612 38.7878 69.7824C38.2057 70.0869 37.6179 70.3758 37.0288 70.6648C36.8163 70.7696 36.6025 70.8715 36.3872 70.9679C34.9369 68.4058 33.4697 65.8509 31.9982 63.2988Z" fill="black"/>
<path d="M48.2882 63.9163C46.8238 60.9804 45.3523 58.0473 43.8539 55.1298C42.3498 52.1967 40.8047 49.2806 39.1675 46.4155C37.4339 43.3805 35.7231 40.3341 34.0505 37.2622C32.4175 34.264 30.8271 31.2459 29.2196 28.2321C27.6107 25.2183 26.0429 22.1804 24.4737 19.1439C23.7046 17.6568 22.9172 16.1825 22.1128 14.7138C21.2998 13.2281 20.426 11.775 19.5337 10.3361C19.0196 9.5076 18.4871 8.69041 17.9518 7.87181C17.4164 7.09994 16.8768 6.33657 16.2891 5.60295C17.204 5.12 18.1203 4.63564 19.0352 4.15127C19.0565 4.13994 19.0749 4.13003 19.0961 4.12012C19.987 5.28004 20.7815 6.50227 21.5802 7.72735C22.5263 9.17902 23.3959 10.6774 24.2726 12.1716C25.1252 13.6275 25.897 15.1358 26.6802 16.6286C27.4535 18.1029 28.2126 19.5843 28.9774 21.0643C30.5438 24.1022 32.1654 27.1146 33.7687 30.1355C35.369 33.155 36.9991 36.1575 38.642 39.1543C40.2282 42.0478 41.9249 44.8803 43.5012 47.7794C45.1229 50.7606 46.6822 53.7745 48.2018 56.8109C48.8406 58.0856 49.485 59.3602 50.1279 60.6334C50.5302 61.4294 50.9352 62.2239 51.3261 63.0241C50.5146 63.3952 49.7073 63.7747 48.9 64.1571C48.7683 64.2237 48.6352 64.2917 48.5049 64.3596C48.4341 64.2095 48.3605 64.0622 48.2882 63.9163Z" fill="black"/>
<path d="M6.24937 13.7169C6.05534 13.3458 5.85847 12.9762 5.66161 12.6065C5.48174 12.2695 5.28913 11.9423 5.19141 11.5882C5.35144 11.4934 5.51289 11.3985 5.67293 11.3022C7.20675 10.3986 8.78165 9.57006 10.3537 8.73871C13.2486 7.20914 16.142 5.68099 19.034 4.14717C19.0553 4.13726 19.0751 4.12593 19.0935 4.11743C19.7322 4.94878 20.3228 5.81271 20.8992 6.68655C20.082 7.12276 19.2649 7.55896 18.4477 7.99234C17.0526 8.73163 15.6576 9.47517 14.2612 10.2102C12.7571 11.0019 11.2431 11.7823 9.75179 12.5952C8.99692 13.0073 8.24064 13.4166 7.49993 13.8514C7.2011 14.0299 6.88951 14.197 6.59492 14.384C6.48162 14.163 6.36692 13.9407 6.24937 13.7169Z" fill="black"/>
<path d="M34.832 68.2374C35.4948 67.9569 36.1378 67.6326 36.7822 67.3097C38.0739 66.6341 39.3655 65.9473 40.6302 65.2165C42.0394 64.4007 43.4429 63.5736 44.855 62.7621C46.1098 62.0398 47.4099 61.3897 48.7256 60.7835C49.1264 60.5994 49.5244 60.4153 49.9266 60.2312C49.9932 60.3643 50.0612 60.4975 50.1277 60.6306C50.5285 61.4265 50.935 62.2211 51.3259 63.0227C50.5144 63.3923 49.7071 63.7719 48.8998 64.1557C47.8249 64.7009 46.7627 65.2703 45.716 65.8722C44.5816 66.5251 43.4557 67.195 42.3198 67.8507C41.1982 68.4994 40.0609 69.1197 38.9137 69.7188C38.8712 69.7414 38.8273 69.7655 38.7848 69.7868C38.2013 70.0913 37.6136 70.3802 37.0258 70.6691C36.8134 70.7739 36.601 70.8759 36.3843 70.9722C35.8702 70.0573 35.3518 69.148 34.832 68.2374Z" fill="black"/>
<path d="M20.4492 11.8271C20.6447 11.7067 20.8713 11.6317 21.0837 11.5495C21.3202 11.4589 21.5568 11.3711 21.7947 11.2805C22.3654 11.0595 22.9376 10.8357 23.507 10.6091C24.7193 10.1319 25.9273 9.65457 27.1312 9.16313C29.3986 8.23689 31.6023 7.16619 33.8811 6.27111C34.0539 6.20313 34.2323 6.16631 34.4108 6.16064C34.6232 6.60819 34.8357 7.05573 35.0495 7.50327C35.2549 7.91399 35.4588 8.32753 35.6614 8.73967C35.541 8.88413 35.3923 9.00451 35.2209 9.09373C35.1756 9.11639 35.1303 9.13764 35.0835 9.15605C32.8812 10.0228 30.754 11.0595 28.5644 11.9546C27.3635 12.4446 26.161 12.9247 24.9544 13.3978C24.4658 13.5918 23.9786 13.7844 23.4871 13.9756C23.2109 14.0818 22.9362 14.1923 22.6586 14.2957C22.4476 14.3778 22.2295 14.4501 22.0184 14.5379C21.5143 13.6215 20.9874 12.7194 20.4492 11.8271Z" fill="black"/>
<path d="M44.9785 57.3282C45.0989 57.2546 45.2193 57.1753 45.3382 57.0959C46.1993 56.511 47.0618 55.9261 47.9413 55.3653C48.8548 54.7832 49.7768 54.2138 50.6988 53.6459C52.5669 52.4959 54.425 51.3331 56.3171 50.2228C56.7449 49.9693 57.2561 49.9594 57.6895 50.1364C58.0039 50.7171 58.3155 51.2992 58.62 51.8855C58.5322 52.309 58.2716 52.697 57.8765 52.9293C56.3681 53.8173 54.8811 54.7378 53.3911 55.657C51.9196 56.5634 50.451 57.4713 48.9922 58.3989C48.447 58.7643 47.9031 59.1269 47.3593 59.4951C47.0703 59.692 46.7814 59.8945 46.4812 60.0687C46.45 60.0857 46.4189 60.1041 46.3877 60.1225C45.9217 59.1878 45.4501 58.2559 44.9785 57.3282Z" fill="black"/>
<path d="M56.0349 53.6751C54.5081 50.7477 52.8539 47.8954 51.2224 45.0246C49.5328 42.0518 47.948 39.0168 46.315 36.0129C44.7684 33.169 43.2162 30.328 41.7263 27.4544C40.0806 24.2791 38.4561 21.0953 36.826 17.913C35.2908 14.9133 33.7527 11.9137 32.2585 8.89277C31.9923 8.35742 31.7317 7.81641 31.4824 7.27256C32.1665 6.97373 32.8534 6.68056 33.5459 6.40156C33.5077 6.44688 33.4652 6.48937 33.4213 6.52902C33.444 6.51061 33.4652 6.49078 33.4865 6.47379C33.5091 6.44829 33.5318 6.42421 33.5544 6.39872C33.6621 6.35482 33.7711 6.31233 33.8802 6.26984C34.053 6.20186 34.2314 6.16504 34.4084 6.15796C34.6209 6.60692 34.8347 7.05304 35.0472 7.50199C35.4211 8.25545 35.7935 9.0089 36.1646 9.76236C37.6885 12.8314 39.2832 15.8665 40.844 18.9171C42.3509 21.8658 43.8578 24.813 45.4058 27.739C46.9693 30.6948 48.5739 33.6293 50.1701 36.5681C51.7775 39.5238 53.3581 42.4923 55.0364 45.4084C56.2671 47.547 57.4752 49.6983 58.6195 51.8864C58.5317 52.3099 58.2711 52.6979 57.876 52.9302C57.3166 53.2602 56.76 53.5944 56.2048 53.9301C56.1397 53.8522 56.0816 53.7686 56.0349 53.6751Z" fill="black"/>
<path d="M0.699641 24.2781C0.553765 23.9297 0.424882 23.5756 0.291753 23.2229C0.196863 22.9737 0.0906411 22.7202 0 22.4596C0.369646 22.2571 0.747791 22.063 1.11744 21.8647C2.32976 21.2147 3.52934 20.5405 4.71334 19.8409C6.81083 18.6045 8.88282 17.3242 10.969 16.0708C11.442 17.0013 11.9165 17.9304 12.3938 18.8594C10.4563 20.0194 8.52736 21.1949 6.59132 22.359C5.51496 23.0077 4.42159 23.628 3.31549 24.2257C2.59602 24.6137 1.87656 24.9989 1.16843 25.404C1.01264 25.0287 0.85543 24.6548 0.699641 24.2781Z" fill="black"/>
<path d="M22.916 67.9208C23.0378 67.8188 23.1766 67.7338 23.3239 67.663C23.3607 67.6446 23.3961 67.6276 23.4329 67.6106C25.0701 66.7863 26.7456 66.0626 28.4593 65.4026C30.0951 64.7752 31.7238 64.1506 33.3001 63.3873C33.8878 63.0828 34.4671 62.7655 35.0336 62.4214C35.0506 62.4115 35.0676 62.4016 35.086 62.3931C35.5732 63.24 36.0604 64.0883 36.5462 64.9367C36.5759 64.9905 36.6085 65.0457 36.6382 65.0995C36.6255 65.1095 36.6085 65.1194 36.5943 65.1279C36.1156 65.4168 35.6298 65.6873 35.137 65.9436C33.7958 66.6404 32.405 67.231 30.9916 67.7735C29.0612 68.517 27.1436 69.2676 25.2826 70.167C25.0815 70.2689 24.8818 70.3681 24.6793 70.4672C24.0887 69.6217 23.4981 68.7734 22.916 67.9208Z" fill="black"/>
<path d="M22.3167 67.0429C21.3649 65.6294 20.4585 64.1905 19.562 62.7402C18.7278 61.3891 17.9291 60.0083 17.1855 58.6047C14.8586 54.22 12.8064 49.6936 10.6325 45.2338C9.12697 42.2568 7.60023 39.2883 6.16697 36.2745C4.66006 33.1077 3.16448 29.9367 1.7468 26.7274C1.38848 25.9159 1.04291 25.1001 0.701594 24.2801C0.555718 23.9331 0.426835 23.5776 0.293706 23.225C0.198816 22.9757 0.0925943 22.7208 0.00195312 22.4602C0.371599 22.2577 0.749744 22.065 1.11939 21.8653C1.69156 21.558 2.26089 21.2464 2.82598 20.9292C2.84298 20.9929 2.85574 21.0595 2.86424 21.1289C2.86424 21.1232 2.86424 21.119 2.86424 21.1133L2.86707 21.1204C2.89822 21.245 2.93787 21.3697 2.97894 21.4915C3.47747 22.9106 4.08223 24.2886 4.68981 25.6652C5.26056 26.9554 5.84122 28.2428 6.43747 29.5231C7.7631 32.3712 9.1128 35.2052 10.4908 38.0306C11.8278 40.679 13.1704 43.326 14.4705 45.9957C15.7211 48.5634 16.9363 51.1495 18.184 53.7229C18.6528 54.6619 19.123 55.6008 19.6159 56.5271C20.1356 57.5086 20.6809 58.4716 21.2276 59.4361C22.3308 61.3806 23.5559 63.2614 24.7838 65.1267C25.6973 66.4764 26.6306 67.8105 27.5653 69.1474C26.7977 69.4703 26.0358 69.8102 25.2852 70.1742C25.084 70.2762 24.8829 70.3754 24.6818 70.4745C23.8859 69.3316 23.0928 68.1929 22.3167 67.0429Z" fill="black"/>
<path d="M161.282 23.8894C160.442 23.3115 159.588 22.7564 158.73 22.2054C157.789 21.6106 156.842 21.0214 155.86 20.496C154.798 19.9267 153.725 19.3786 152.644 18.8446C152.577 18.8149 152.508 18.7837 152.441 18.7526L152.497 18.584L152.756 17.8263L153.029 17.07L153.315 16.3138L153.515 15.8096C153.827 15.954 154.135 16.1027 154.444 16.2529C155.981 17.0063 157.495 17.7994 158.965 18.6747C160.384 19.5188 161.769 20.4337 163.129 21.3684C163.83 21.8499 163.958 22.881 163.467 23.5509C163.161 23.9687 162.692 24.1797 162.216 24.1797C161.892 24.1811 161.565 24.0848 161.282 23.8894Z" fill="black"/>
<path d="M152.013 20.1051L152.247 19.3431L152.493 18.5854L152.752 17.8277L153.026 17.0714L153.312 16.3151L153.609 15.5631L153.914 14.8337L154.003 14.634C154.055 14.7445 154.105 14.8536 154.15 14.964C154.463 15.7175 154.653 16.5403 154.534 17.3589C154.479 17.747 154.4 18.1577 154.224 18.5104C154.046 18.8701 153.849 19.1902 153.595 19.5017C153.176 20.0201 152.517 20.4407 151.857 20.6305L152.013 20.1051Z" fill="black"/>
<path d="M169.967 66.552C169.379 66.2631 168.79 65.9742 168.208 65.6711C168.165 65.6484 168.122 65.6258 168.079 65.6031C167.988 65.555 167.898 65.5097 167.809 65.4601C168.685 63.9121 169.566 62.3641 170.451 60.8232C172.181 57.8094 173.923 54.8041 175.624 51.7747C176.397 50.3967 177.157 49.013 177.897 47.618C178.695 46.1082 179.463 44.5843 180.228 43.0547C181.73 39.9135 183.219 36.7665 184.732 33.6281C185.389 32.2642 186.081 30.9088 186.782 29.5662C187.645 27.9163 188.509 26.2663 189.38 24.6206C190.919 21.7172 192.48 18.8266 193.994 15.912C195.613 12.7934 197.175 9.64215 198.831 6.54194C198.801 6.60143 198.772 6.66091 198.741 6.72181C198.775 6.66374 198.808 6.60426 198.831 6.54194C198.845 6.51079 198.857 6.47821 198.87 6.44564C198.863 6.4683 198.857 6.48954 198.85 6.5122C198.923 6.31393 199.032 6.12981 199.173 5.97827C199.893 6.37058 200.611 6.76996 201.317 7.18776C201.479 7.28265 201.64 7.37754 201.8 7.47385C201.701 7.82792 201.51 8.15507 201.33 8.49214C201.133 8.8632 200.938 9.23144 200.742 9.6025C200.289 10.4721 199.843 11.3445 199.398 12.2198C198.618 13.7564 197.833 15.2916 197.038 16.8212C195.548 19.692 194.017 22.5429 192.501 25.4024C191.608 27.0863 190.72 28.7717 189.837 30.4613C189.101 31.8705 188.388 33.2924 187.673 34.7101C186.469 37.2112 185.278 39.7208 184.083 42.2262C183.392 43.6694 182.691 45.1055 181.974 46.5359C181.352 47.7752 180.697 48.9974 180.048 50.2225C179.232 51.7605 178.363 53.2745 177.51 54.7928C176.684 56.2643 175.839 57.7244 174.996 59.1846C173.525 61.7367 172.057 64.2917 170.609 66.8565C170.392 66.7588 170.178 66.6568 169.967 66.552Z" fill="black"/>
<path d="M158.094 60.0384C157.287 59.656 156.479 59.2764 155.668 58.9054C156.059 58.1052 156.465 57.3107 156.866 56.5133C157.511 55.2401 158.154 53.9669 158.794 52.6908C160.313 49.6558 161.873 46.6405 163.494 43.6607C165.071 40.7616 166.766 37.9276 168.352 35.0342C169.995 32.0374 171.626 29.0349 173.227 26.0168C174.827 22.9959 176.45 19.9835 178.018 16.9456C178.781 15.4656 179.542 13.9842 180.315 12.5085C181.098 11.0157 181.87 9.5074 182.723 8.05148C183.598 6.5559 184.469 5.0589 185.414 3.60581C186.214 2.38074 187.009 1.15851 187.899 0C187.921 0.00991387 187.939 0.0212431 187.96 0.031157C188.874 0.51552 189.79 0.999881 190.705 1.48283C190.117 2.21645 189.579 2.97982 189.042 3.75169C188.508 4.56888 187.976 5.38748 187.462 6.216C186.568 7.65634 185.696 9.10802 184.883 10.5937C184.078 12.0623 183.291 13.5367 182.522 15.0238C180.953 18.0602 179.385 21.0981 177.776 24.112C176.168 27.1229 174.577 30.1438 172.945 33.1421C171.274 36.214 169.563 39.2589 167.828 42.2954C166.194 45.1577 164.649 48.0752 163.142 51.0097C161.643 53.9272 160.172 56.8603 158.709 59.7962C158.636 59.9421 158.563 60.0908 158.492 60.2367C158.357 60.173 158.226 60.105 158.094 60.0384Z" fill="black"/>
<path d="M199.491 9.73669C198.75 9.30048 197.994 8.8926 197.239 8.48046C195.747 7.66611 194.235 6.88716 192.729 6.09547C191.333 5.35901 189.938 4.61547 188.541 3.87618C187.726 3.4428 186.907 3.008 186.09 2.57179C186.668 1.69654 187.258 0.832618 187.896 0.00268555C187.917 0.0125994 187.937 0.0239287 187.957 0.0338425C190.847 1.56624 193.742 3.0944 196.635 4.62397C198.209 5.45673 199.782 6.28525 201.316 7.18741C201.478 7.2823 201.639 7.37719 201.799 7.4735C201.7 7.82757 201.509 8.15472 201.329 8.49179C201.132 8.86285 200.937 9.23108 200.741 9.60215C200.625 9.82592 200.51 10.0483 200.396 10.2706C200.101 10.0823 199.791 9.91514 199.491 9.73669Z" fill="black"/>
<path d="M169.968 66.5512C169.38 66.2623 168.793 65.9734 168.209 65.6703C168.167 65.6476 168.123 65.625 168.08 65.6023C166.933 65.0018 165.796 64.3815 164.674 63.7343C163.54 63.0771 162.412 62.4072 161.278 61.7557C160.233 61.1538 159.169 60.5831 158.094 60.0378C157.287 59.6554 156.479 59.2758 155.668 58.9048C156.059 58.1046 156.465 57.3101 156.866 56.5127C156.933 56.381 157.001 56.2465 157.067 56.1147C157.469 56.2974 157.867 56.4816 158.268 56.6671C159.584 57.2718 160.884 57.9233 162.139 58.6456C163.551 59.4585 164.954 60.2856 166.364 61.1014C167.628 61.8322 168.92 62.5177 170.212 63.1947C170.856 63.5162 171.499 63.8419 172.162 64.1223C171.642 65.0316 171.125 65.9422 170.61 66.8529C170.391 66.758 170.179 66.656 169.968 66.5512Z" fill="black"/>
<path d="M184.338 10.1773C184.061 10.0739 183.784 9.96484 183.508 9.8572C183.02 9.66742 182.531 9.47339 182.042 9.28078C180.836 8.80633 179.632 8.32621 178.432 7.83619C176.243 6.9411 174.114 5.9044 171.912 5.03764C171.865 5.01923 171.82 4.99799 171.776 4.97533C171.603 4.88611 171.456 4.76572 171.334 4.62126C171.538 4.20913 171.74 3.79558 171.946 3.38486C172.16 2.93732 172.374 2.48978 172.585 2.04224C172.763 2.0479 172.941 2.08473 173.114 2.15271C175.393 3.04779 177.597 4.1199 179.863 5.04473C181.067 5.53617 182.276 6.01345 183.487 6.49074C184.058 6.71592 184.628 6.94111 185.201 7.16205C185.437 7.2541 185.675 7.34191 185.912 7.43113C186.124 7.51328 186.349 7.58692 186.546 7.70872C186.007 8.60097 185.481 9.50314 184.977 10.418C184.766 10.3302 184.549 10.2594 184.338 10.1773Z" fill="black"/>
<path d="M160.514 55.9507C160.212 55.7765 159.923 55.5726 159.636 55.3772C159.092 55.0103 158.548 54.6449 158.003 54.281C156.545 53.3519 155.074 52.4455 153.602 51.5377C152.114 50.6185 150.625 49.6993 149.119 48.8113C148.723 48.5776 148.461 48.191 148.375 47.7675C148.679 47.1826 148.991 46.5991 149.305 46.0185C149.74 45.84 150.25 45.8513 150.678 46.1034C152.569 47.2166 154.428 48.378 156.296 49.528C157.218 50.0959 158.14 50.6666 159.054 51.2487C159.932 51.8096 160.794 52.3931 161.657 52.978C161.776 53.0559 161.895 53.1366 162.016 53.2117C161.545 54.1408 161.073 55.0712 160.606 56.0017C160.575 55.9861 160.545 55.9691 160.514 55.9507Z" fill="black"/>
<path d="M149.117 48.8128C148.721 48.5805 148.459 48.1924 148.373 47.769C149.517 45.5794 150.725 43.4295 151.956 41.291C153.634 38.3749 155.214 35.4064 156.823 32.4506C158.417 29.5105 160.022 26.5774 161.585 23.6216C163.133 20.6956 164.64 17.7469 166.147 14.7997C167.707 11.7505 169.303 8.71398 170.825 5.64493C171.198 4.89148 171.57 4.13802 171.943 3.38457C172.156 2.93703 172.37 2.48948 172.581 2.04053C172.76 2.04761 172.938 2.08444 173.111 2.15242C173.22 2.1949 173.328 2.23739 173.437 2.2813C173.459 2.30679 173.482 2.33228 173.503 2.35635C173.525 2.37335 173.547 2.39318 173.57 2.41159C173.526 2.37194 173.483 2.32803 173.445 2.28413C174.138 2.56313 174.825 2.8563 175.507 3.15513C175.258 3.69898 174.999 4.23999 174.733 4.77392C173.238 7.79482 171.7 10.7945 170.164 13.7955C168.534 16.9779 166.909 20.1617 165.265 23.3355C163.775 26.2105 162.221 29.0516 160.676 31.894C159.042 34.8979 157.458 37.9344 155.77 40.9072C154.139 43.7765 152.484 46.6303 150.958 49.5577C150.908 49.6498 150.852 49.7333 150.785 49.8098C150.233 49.4756 149.676 49.1427 149.117 48.8128Z" fill="black"/>
<path d="M203.676 20.1077C202.57 19.5101 201.478 18.8898 200.401 18.2425C198.466 17.0769 196.537 15.9029 194.6 14.7415C195.077 13.8124 195.55 12.8834 196.024 11.9529C198.111 13.2063 200.183 14.4866 202.279 15.723C203.464 16.4226 204.662 17.0953 205.876 17.7454C206.244 17.9437 206.622 18.1377 206.993 18.3402C206.901 18.6008 206.796 18.8558 206.702 19.105C206.567 19.4563 206.438 19.8118 206.292 20.1602C206.136 20.534 205.981 20.9094 205.821 21.2847C205.114 20.8824 204.396 20.4972 203.676 20.1077Z" fill="black"/>
<path d="M181.711 66.0538C179.85 65.1531 177.934 64.401 176.002 63.6603C174.589 63.1179 173.198 62.5273 171.857 61.8291C171.365 61.5727 170.878 61.3022 170.399 61.0133C170.385 61.0048 170.37 60.9949 170.355 60.9836C170.387 60.9298 170.418 60.8745 170.449 60.8207C170.935 59.9724 171.422 59.124 171.909 58.2771C171.928 58.2856 171.945 58.2955 171.962 58.3054C172.529 58.6467 173.109 58.9654 173.695 59.2699C175.271 60.0347 176.9 60.6593 178.536 61.2867C180.25 61.9452 181.925 62.6689 183.562 63.4946C183.599 63.5116 183.634 63.5286 183.671 63.5456C183.818 63.6178 183.957 63.7028 184.079 63.8048C183.496 64.6574 182.905 65.5057 182.313 66.3527C182.11 66.2563 181.912 66.1558 181.711 66.0538Z" fill="black"/>
<path d="M181.712 66.0547C180.96 65.6907 180.199 65.3508 179.432 65.0279C180.365 63.6923 181.3 62.3582 182.213 61.0085C183.442 59.1433 184.668 57.2625 185.771 55.3179C186.318 54.3535 186.863 53.3904 187.383 52.4089C187.875 51.4827 188.346 50.5437 188.816 49.6047C190.062 47.0328 191.277 44.4453 192.528 41.879C193.828 39.2093 195.169 36.5637 196.508 33.9139C197.887 31.0884 199.237 28.2545 200.562 25.4049C201.157 24.1261 201.739 22.8387 202.31 21.547C202.918 20.1718 203.522 18.7924 204.021 17.3747C204.062 17.2529 204.1 17.1283 204.131 17.0036C204.131 16.9994 204.134 16.9966 204.134 16.9966C204.136 17.0008 204.136 17.0022 204.136 17.0051C204.144 16.9385 204.158 16.8748 204.174 16.811C204.739 17.1283 205.308 17.4413 205.88 17.7472C206.249 17.9455 206.627 18.1395 206.998 18.342C206.906 18.6026 206.801 18.8575 206.706 19.1068C206.572 19.458 206.443 19.8135 206.297 20.1619C205.957 20.9819 205.613 21.7977 205.253 22.6092C203.834 25.8185 202.338 28.9895 200.833 32.1563C199.4 35.1701 197.873 38.1386 196.367 41.117C194.193 45.5768 192.141 50.1047 189.814 54.488C189.069 55.8901 188.272 57.2724 187.438 58.6235C186.541 60.0723 185.635 61.5127 184.683 62.9261C183.907 64.0776 183.114 65.2148 182.318 66.3521C182.111 66.2572 181.913 66.1566 181.712 66.0547Z" fill="black"/>
</svg>
