<svg width="142" height="159" viewBox="0 0 142 159" fill="none" xmlns="http://www.w3.org/2000/svg">
<path d="M105.359 9.88069C103.722 9.17523 102.784 8.68324 101.791 8.35591C92.3706 5.24538 82.6529 4.7534 72.8802 5.52188C68.9368 5.8309 65.0566 6.94705 61.154 7.72571C59.739 8.0083 58.695 8.69141 58.6318 10.33C58.5666 11.9646 59.3862 13.3389 61.1764 13.7374C62.7668 14.0911 64.4674 14.2029 66.0965 14.083C69.8768 13.8045 73.5755 13.7516 77.2721 14.9308C79.2417 15.559 81.3969 15.7826 83.4807 15.8517C89.3468 16.0408 94.8418 14.2822 100.249 12.2594C101.766 11.6922 103.197 10.8972 105.359 9.88069ZM29.3564 25.7811C28.025 26.9277 27.2196 27.501 26.5569 28.2085C18.0524 37.2575 12.0803 47.7235 8.75066 59.6961C8.26742 61.4302 8.66914 62.6135 9.80892 63.8882C11.8764 66.1977 13.8358 68.6068 15.7769 71.0261C19.0372 75.0881 19.9344 79.5181 17.5855 84.3384C16.3336 86.9061 16.0379 89.5958 16.148 92.4075C16.3397 97.2705 18.7885 100.845 23.3313 102.562C24.989 103.189 26.6915 103.701 28.3838 104.234C31.3811 105.179 33.7504 106.974 35.2082 109.725C36.6539 112.455 38.0486 115.247 39.0884 118.146C40.948 123.33 43.8188 127.888 47.1566 132.194C47.5705 132.729 48.2576 133.054 49.1792 133.745C49.1792 131.836 49.2384 130.433 49.1609 129.039C49.0834 127.605 48.853 126.184 48.7185 124.753C48.013 117.271 47.3197 109.786 46.6204 102.302C46.2635 98.4903 44.3286 95.9572 40.6095 94.7862C37.547 93.8205 34.5048 92.7856 31.4729 91.7264C25.2214 89.5409 23.4781 83.8017 27.4337 78.4813C29.544 75.6452 32.3292 73.787 35.6201 72.4614C39.5186 70.8919 43.3457 69.1151 47.1076 67.2406C49.903 65.846 50.6616 63.8699 49.9806 60.8976C48.6981 55.2986 49.1609 54.1459 53.7628 50.828C55.5571 49.535 57.386 48.2399 58.9499 46.6928C60.7952 44.8671 61.7514 42.4417 60.4241 40.0306C59.0213 37.4832 56.9559 35.4014 53.7139 35.1879C50.5066 34.9785 47.2973 34.8199 44.09 34.5963C38.5481 34.2079 33.6382 32.5734 30.4799 27.5762C30.1842 27.1106 29.8947 26.641 29.3564 25.7811ZM83.6316 77.5928C84.5308 76.7471 85.1995 76.3222 85.5869 75.7204C87.84 72.2236 91.0228 71.0322 95.1517 70.8208C101.827 70.4813 104.131 73.7362 105.22 78.6053C105.903 81.6548 105.045 84.2815 103.228 86.6906C100.773 89.9516 97.3436 91.6573 93.5002 92.6657C88.0582 94.0949 85.0732 97.7828 84.0516 103.109C83.6622 105.146 83.4032 107.322 83.6826 109.353C84.7693 117.243 87.5994 124.533 92.0036 131.186C93.5145 133.467 95.6044 135.081 98.2795 135.851C101.742 136.85 104.494 135.798 106.003 132.509C106.959 130.425 107.683 128.144 107.999 125.881C108.811 120.087 109.41 114.259 109.942 108.43C110.159 106.063 110.601 103.837 111.916 101.843C114.049 98.6143 116.149 95.3615 118.365 92.192C120.724 88.8131 123.828 88.5387 126.782 91.454C128.036 92.6921 129.102 94.1295 130.165 95.5445C132.542 98.7038 135.733 100.558 139.519 101.465C142.686 102.223 145.276 100.629 148.071 99.5333C150.481 98.5879 151.507 97.0957 151.965 94.7333C154.194 83.2711 154.133 71.88 151.152 60.5479C147.869 48.0692 141.544 37.3103 132.722 27.9381C130.73 25.8237 128.436 24.7401 125.581 25.4354C122.188 26.2628 119.501 28.1129 118.094 31.443C117.58 32.6628 117.177 33.9335 116.769 35.196C115.164 40.1789 111.898 43.5274 106.921 45.2168C105.559 45.6783 104.078 45.9772 102.885 46.7212C101.232 47.754 99.3255 48.8559 98.3733 50.4356C96.6361 53.3205 94.4116 55.4491 91.4734 56.925C87.0367 59.1532 84.4573 62.955 82.6916 67.3626C81.3662 70.6683 81.3643 73.9842 83.6316 77.5928ZM122.749 95.518C120.261 99.3218 118.115 102.51 116.09 105.775C115.649 106.484 115.551 107.454 115.464 108.32C115.001 112.937 114.836 117.599 114.094 122.169C113.405 126.398 112.501 130.673 111.003 134.67C109.072 139.814 104.859 142.015 99.3988 141.674C95.8184 141.448 92.7641 140.102 90.1135 137.701C86.8267 134.719 84.8141 130.901 82.9933 126.979C79.6494 119.776 77.1028 112.333 78.0652 104.24C78.9644 96.6769 82.4999 90.8705 90.0441 88.13C91.6059 87.5628 93.3024 87.2375 94.7113 86.4162C96.3894 85.4362 98.0551 84.2368 99.301 82.775C100.647 81.1954 100.19 79.2111 99.2561 77.4505C98.2978 75.6411 96.6096 75.7285 94.8989 75.8383C92.2176 76.0132 90.4723 77.4302 89.0695 79.6543C87.5688 82.035 85.383 83.6106 82.3735 83.0149C79.5067 82.4477 78.3038 80.1544 77.5412 77.6253C76.1098 72.8762 76.3199 68.2266 78.5974 63.7519C80.9626 59.1085 84.1984 55.3047 88.8656 52.7512C90.3826 51.9217 92.1259 50.8747 92.9109 49.4577C95.4739 44.8346 99.458 42.3645 104.309 40.9474C108.47 39.7317 111.202 37.0949 112.55 32.9922C112.86 32.0489 113.252 31.1299 113.643 30.213C115.337 26.2323 118.119 23.4085 122.339 22.1013C122.926 21.9203 123.452 21.5483 124.286 21.1234C120.535 15.1076 114.389 13.4751 109.612 11.3323C107.577 12.9892 106.207 14.2903 104.659 15.3333C96.212 21.0237 86.9266 22.7722 77.0519 20.4423C73.8792 19.6921 70.7922 19.1269 67.5544 19.2448C66.1128 19.2957 64.6652 19.3058 63.2257 19.2448C58.2547 19.0354 55.5164 16.8499 54.1258 12.05C54.0075 11.6434 53.8587 11.2469 53.6853 10.7305C53.1654 10.7305 52.6903 10.6065 52.3192 10.7488C45.3296 13.4609 38.9763 17.2484 33.2488 22.0809C32.0866 23.0629 32.1763 24.1302 33.0021 25.289C34.6435 27.5965 36.5642 29.6906 39.3861 30.3452C42.4935 31.0629 45.6926 31.4146 48.8652 31.8171C51.2773 32.1241 53.8424 31.8456 56.1097 32.5551C61.3906 34.212 66.541 38.8128 64.8181 45.4445C64.0882 48.2603 62.3672 50.3807 60.2038 52.182C58.8439 53.3164 57.382 54.3329 55.9547 55.3881C54.5539 56.4249 54.0422 57.5939 54.7416 59.383C56.8967 64.8986 53.4692 69.8551 49.2628 71.7539C45.0238 73.667 40.7685 75.5476 36.4602 77.296C33.9625 78.3105 32.0703 79.882 30.9162 82.2728C30.015 84.1473 30.4799 85.4444 32.3395 86.3877C33.2203 86.8329 34.2174 87.0464 35.1553 87.3859C38.279 88.5163 41.4658 89.5105 44.5079 90.8319C48.1903 92.4319 50.478 95.3737 51.3629 99.2791C51.7748 101.107 51.9542 102.991 52.1499 104.86C53.2551 115.411 54.3561 125.963 55.394 136.52C55.5652 138.273 55.6529 140.09 55.3817 141.816C54.9026 144.886 52.101 145.829 49.6604 143.878C49.1466 143.465 48.6573 142.983 48.278 142.446C42.7932 134.688 36.4908 127.426 33.7626 118.018C32.1947 112.604 28.8487 108.932 22.9704 108.084C22.8623 108.07 22.7604 108.009 22.6544 107.978C16.6721 106.254 13.108 102.186 11.4401 96.3475C10.1066 91.6756 10.7713 87.1765 12.6349 82.7404C13.2588 81.2543 13.9765 79.4449 13.6564 78.0014C12.8735 74.4721 10.3145 71.9817 7.22552 69.0277C6.8218 71.0607 6.38955 72.3964 6.31206 73.7504C5.29054 91.393 9.47248 107.714 20.0996 121.899C37.6652 145.35 61.3885 155.368 90.4947 151.823C104.209 150.154 116.477 144.496 127.112 135.575C135.652 128.414 142.356 119.839 146.895 109.639C147.266 108.802 147.425 107.871 147.806 106.561C146.434 106.862 145.61 107.137 144.77 107.21C143.02 107.365 141.206 107.73 139.513 107.446C133.831 106.486 129.082 103.825 125.632 99.086C124.87 98.041 124.005 97.0672 122.749 95.518ZM159.997 79.2314C160.339 116.651 132.893 150.516 94.9927 157.584C51.5301 165.69 10.6326 138.177 1.73664 95.7579C-7.44888 51.9563 20.7031 9.72012 64.9241 1.43959C84.5247 -2.23003 103.1 1.12242 120.294 11.4217C123.783 13.5137 127.61 15.193 130.721 17.7424C146.26 30.4855 155.721 46.8351 158.843 66.6978C159.493 70.833 159.626 75.0515 159.997 79.2314Z" fill="#26224D"/>
</svg>
