<svg width="236" height="180" viewBox="0 0 236 180" fill="none" xmlns="http://www.w3.org/2000/svg">
<path d="M159.193 47.0761C158.537 46.3758 157.014 46.6369 156.863 47.6906C156.337 51.3687 157.974 54.2331 154.785 57.1859C151.807 59.9434 146.718 60.194 142.918 60.1281C135.646 60.0028 124.339 57.0632 127.089 47.7948C127.33 46.9811 126.197 46.2505 125.614 46.9376C117.423 56.5871 134.003 62.8356 140.992 63.6256C146.184 64.2124 152.568 63.607 156.824 60.2797C160.5 57.4087 162.787 50.9032 159.193 47.0761Z" fill="black"/>
<path d="M138.435 46.2298C137.922 44.9335 137.307 43.7043 136.95 42.3499C136.563 40.8861 137.189 39.2099 136.325 37.932C135.842 37.2185 134.981 37.125 134.333 37.6762C132.933 38.8671 133.462 41.0931 133.86 42.6717C134.296 44.4033 135.222 46.0755 136.343 47.4484C137.119 48.4006 138.89 47.3798 138.435 46.2298Z" fill="black"/>
<path d="M147.955 35.3311C147.59 34.6586 146.802 34.4198 146.093 34.5728C144.215 34.9803 143.624 37.4109 143.229 39.0053C142.643 41.3672 142.416 44.0246 142.975 46.4063C143.313 47.8451 145.513 47.5049 145.513 46.0634C145.513 43.7819 145.891 41.5927 146.634 39.4338C147.068 38.1678 148.716 36.7357 147.955 35.3311Z" fill="black"/>
<path d="M220.644 112.985C207.624 111.738 193.913 111.08 180.391 109.405C179.9 108.504 178.721 108.521 178.126 109.116C171.95 108.294 165.832 107.22 159.841 105.777C155.68 94.6502 150.911 83.6924 146.365 72.7214C146.354 72.6937 146.335 72.6792 146.322 72.6528C153.784 71.6202 161.026 68.6068 166.179 64.38C177.258 55.2909 177.225 44.3674 171.509 35.2954C171.802 35.219 172.087 35.1095 172.392 34.8893C172.619 34.7258 172.802 34.5148 173.009 34.3288C173.17 34.5886 173.42 34.8154 173.813 34.9407C181.185 37.3027 183.02 46.219 183.666 53.0543C183.743 53.8614 184.296 54.5854 185.18 54.5682C205.272 54.1607 210.184 23.3512 196.317 11.9212C185.557 3.05239 157.421 6.38102 165.363 25.0709C165.806 26.1154 167.383 25.3492 167.134 24.3245C163.134 7.89502 185.82 7.57721 194.878 15.0613C205.918 24.1808 201.566 49.7283 186.524 51.4441C185.64 43.9784 183.007 33.6906 174.692 32.2359C174.908 31.7902 175.073 31.318 175.149 30.8288C175.447 28.9192 174.697 27.0517 173.273 25.7633C172.028 24.637 170.301 24.0106 168.644 24.4827C166.796 25.0103 166.013 26.8407 165.92 28.6039C154.38 17.7411 134.666 12.2866 121.136 22.0759C120.875 21.3189 120.265 20.6174 119.54 20.0371C121.848 7.43348 108.986 -5.97732 96.9439 2.83614C90.553 7.51388 88.9665 17.3362 89.6892 24.6502C90.5807 33.6694 96.8819 40.6445 104.415 45.007C105.66 45.7284 107.307 44.5428 106.873 43.1172C104.953 36.8134 105.839 29.0563 112.69 26.1682C112.699 26.1642 112.703 26.1576 112.713 26.1537C113.328 26.6917 114.071 27.0293 114.879 27.1915C106.894 35.0766 113.377 54.9573 118.316 62.3874C121.163 66.6721 125.15 69.4837 129.664 71.156C126.995 74.2169 125.178 78.4449 123.159 81.8461C121.229 85.0956 119.156 89.3118 117.364 92.2764C113.793 91.3163 109.79 91.1502 106.435 90.86C100.067 90.3088 93.0006 90.3549 87.0265 87.7424C87.0846 87.1239 87.078 86.4987 86.9976 85.8763C86.8604 84.7962 86.5069 83.7201 86.0111 82.7073C86.1008 82.7284 86.1891 82.7626 86.2788 82.76C88.861 82.6743 90.2286 79.5461 90.3591 77.2765C90.4963 74.9066 88.7291 72.7504 86.9844 71.3881C84.356 69.3361 79.3459 66.8158 75.2841 66.8356C78.9978 64.6187 82.2262 61.699 84.6184 57.6925C89.3081 49.8378 86.7628 38.2706 81.2661 31.5343C69.1847 16.7309 45.6892 13.5909 31.7733 27.8377C15.7527 44.2408 30.5982 71.8272 49.9712 73.7144C49.9383 73.8081 49.9185 73.9136 49.9238 74.0323C50.0082 76.0382 49.7695 78.0243 49.4226 79.9972C49.2908 80.7502 48.9887 81.5454 48.7843 82.3367C39.3853 81.6786 29.8413 81.8381 20.5451 82.9842C20.2075 82.8246 19.8185 82.7112 19.3437 82.6822C18.9204 82.6558 18.5023 82.9222 18.2399 83.2876C12.8117 84.0551 7.47856 85.1417 2.33133 86.599C1.11541 86.9432 0.466564 88.4136 1.1431 89.5201C8.01663 100.747 17.3761 111.867 28.5713 119.094C28.628 122.391 37.121 124.051 39.3102 124.712C40.4087 125.043 41.5719 125.333 42.7575 125.594C42.0334 131.476 41.4519 137.335 39.5818 142.982C39.1743 144.212 40.232 145.125 41.3213 145.267C41.6405 145.309 41.9754 145.351 42.2972 145.393C41.9055 145.687 41.5178 145.977 41.0958 146.314C35.7996 150.533 29.9112 152.281 23.4148 153.624C20.6928 154.186 18.042 154.65 15.4322 154.654C14.1951 147.162 9.87086 140.046 1.36731 142.171C0.557578 142.373 0.0194769 143.149 0.00365139 143.961C-0.162516 152.972 5.35531 157.595 13.9894 158.495C20.2906 159.152 27.5136 156.719 33.3373 154.708C38.7694 152.832 42.0941 149.103 46.3644 145.913C54.0358 146.88 62.4654 147.753 70.423 147.247C71.5295 157.173 72.0755 166.915 71.9436 176.928C71.933 177.779 72.5212 178.451 73.2993 178.71C77.584 180.125 86.8709 178.711 88.0644 173.392C88.5445 171.251 86.1904 169.071 84.2769 168.634C80.7254 167.826 77.8834 168.907 75.4674 171.133C75.168 163.064 74.473 154.883 72.5832 147.081C75.9026 146.757 79.1165 146.17 82.126 145.213C87.6886 143.444 85.6023 136.966 83.4764 132.841C87.9101 133.32 92.3426 133.829 96.7605 134.509C99.1053 134.871 101.389 135.335 103.649 135.847C100.073 144.603 95.8901 152.47 107.857 156.33C111.456 157.49 115.286 158.316 119.16 159.035C117.841 162.365 117.847 166.205 117.521 169.882C113.977 168.363 108.969 167.828 107.25 170.757C104.1 176.132 116.759 176.369 118.747 176.327C119.565 176.31 120.383 175.766 120.574 174.937C120.656 174.583 120.693 174.229 120.752 173.875C121.08 173.485 121.167 172.902 120.972 172.395C121.401 168.086 120.723 163.716 121.727 159.498C125.802 160.207 129.887 160.845 133.776 161.651C134.565 161.815 135.356 161.965 136.147 162.119C135.569 166.164 134.97 170.416 135.199 174.541C135.148 174.825 135.17 175.111 135.245 175.381C135.303 176.062 135.384 176.738 135.495 177.409C135.586 177.957 136.199 178.582 136.751 178.666C139.777 179.124 150.421 179.663 147.252 173.42C145.821 170.602 141.626 170.184 138.537 171.409C138.475 168.452 138.615 165.505 138.335 162.534C146.715 164.059 155.168 164.957 163.705 164.348C164.897 164.262 165.923 163.192 165.539 161.939C164.596 158.855 164.111 153.964 161.985 151.039C170.879 151.818 180.042 151.57 188.712 153.582C190.289 153.947 192.014 154.436 193.837 154.98C194.119 155.412 194.681 155.622 195.153 155.375C208.459 159.409 226.288 165.502 232.266 150.01C237.585 136.225 239.835 114.822 220.644 112.985ZM10.0265 149.185C11.0063 150.696 11.4837 152.509 11.8029 154.31C10.4036 154.037 9.01098 153.592 7.62097 152.889C1.98183 147.72 2.78366 146.484 10.0265 149.185ZM80.8243 174.784C79.3776 175.293 77.7858 175.576 76.2389 175.487C78.8065 173.315 87.0187 172.609 80.8243 174.784ZM143.773 174.996C143.862 175.049 143.91 175.062 143.967 175.082C143.923 175.086 143.887 175.083 143.829 175.106C142.512 175.648 140.894 175.59 139.389 175.418C140.759 174.66 142.118 174.021 143.773 174.996ZM167.466 29.291C167.769 28.2413 168.239 27.0847 169.293 26.8367C169.911 26.693 170.882 27.1929 171.486 27.7758C172.178 28.4457 172.553 29.4137 172.393 30.2485C172.278 30.8512 171.974 31.3576 171.561 31.8152C171.31 32.0921 171.023 32.3387 170.726 32.5643C170.465 32.7621 170.271 32.9862 170.086 33.2144C169.187 32.0156 168.172 30.867 167.089 29.7566C167.258 29.6682 167.399 29.5218 167.466 29.291ZM112.041 20.5198C111.468 21.3124 111.27 22.2764 111.336 23.2286C104.614 26.3014 102.049 32.9981 102.806 39.869C93.2579 32.4548 89.8013 20.1967 96.1368 8.84587C99.195 3.36762 105.256 2.15171 110.56 4.85127C115.85 7.54424 117.824 13.5025 117.942 19.0401C117.473 18.8225 117.014 18.6642 116.61 18.5904C114.766 18.2501 113.119 19.0295 112.041 20.5198ZM114.238 24.0383C113.863 23.4014 114.02 22.6971 114.428 22.0693C114.724 21.617 115.458 21.3348 116.148 21.4944C117.4 21.7792 118.096 23.0492 119.125 23.7178C118.902 23.9143 118.666 24.0792 118.448 24.2863C118.197 24.5236 118.059 24.7782 117.973 25.038C117.549 25.2239 117.203 25.481 116.823 25.7065C115.81 25.4059 114.732 24.8758 114.238 24.0383ZM123.432 62.7949C115.336 55.5442 110.459 35.3232 119.297 27.2667C119.855 27.4355 120.487 27.3802 121.043 26.8817C140.085 9.82444 182.761 31.1202 167.391 57.2494C159.117 71.3142 134.98 73.1382 123.432 62.7949ZM124.364 87.0382C127.021 82.131 129.751 77.0496 132.005 71.9327C135.826 72.9732 139.944 73.2436 144.054 72.9034C144.04 73.0419 144.036 73.1882 144.073 73.3531C146.487 84.1751 151.556 94.3456 155.581 104.672C149.755 103.06 144.069 101.06 138.627 98.4721C138.52 98.4219 138.418 98.4233 138.313 98.3929C138.649 95.7013 137.291 93.1639 135.157 91.5168C133.067 89.9026 130.225 89.9224 127.777 90.8059C124.809 90.14 122.811 91.7014 121.771 94.1069C121.447 93.9011 121.091 93.7376 120.744 93.5596C122.423 91.6816 123.651 88.357 124.364 87.0382ZM133.607 100.634C132.246 102.687 128.17 105.77 125.796 103.544C123.903 101.769 123.262 96.9383 124.642 94.0805C124.968 94.9021 125.804 95.5588 126.698 95.1869C128.943 94.2572 131.048 93.2417 133.312 94.67C135.483 96.0415 134.75 98.9099 133.607 100.634ZM83.3089 72.7148C84.7305 73.6076 86.325 74.8934 86.8709 76.5419C87.4657 78.3368 85.5363 79.5672 85.1249 81.1919C84.0923 79.7347 82.7115 78.5465 81.1223 77.928C81.0894 77.7723 80.9812 77.6405 80.7848 77.6629C80.6581 77.6787 80.5421 77.6906 80.4194 77.7038C79.1429 77.3543 77.7608 77.3609 76.3338 77.8831C75.9949 78.0071 75.7496 78.2326 75.5544 78.4898C74.5152 75.3761 73.9758 72.1688 73.2334 68.9906C76.7374 70.0456 80.091 70.6944 83.3089 72.7148ZM83.3564 87.9798C82.9462 90.285 80.8098 91.8306 78.1907 91.7897C75.5465 91.7502 75.4581 87.6026 75.7206 85.8328C75.921 84.485 76.591 82.731 77.5708 81.2421C80.517 81.3093 82.4636 82.7217 83.2733 85.8486C83.3748 86.2429 83.4197 86.6214 83.4342 86.988C83.2403 87.2808 83.1823 87.6488 83.3564 87.9798ZM51.6738 73.8067C54.9259 73.8661 58.277 73.2173 61.6148 71.6347C61.9445 71.7904 62.3243 71.8682 62.7767 71.7548C65.7848 71.0044 68.6954 70.0509 71.4358 68.8363C70.9149 72.3561 72.1915 76.174 72.7665 79.6015C72.9234 80.5391 73.7951 80.8042 74.5548 80.6064C73.3929 82.1573 72.6821 84.0327 72.3748 85.9291C72.3748 85.9317 72.3748 85.9343 72.3748 85.9343C72.2047 85.8341 72.0333 85.7339 71.8025 85.6812C65.3022 84.2081 58.5328 83.1688 51.6646 82.5582C51.7516 81.7762 51.745 80.9665 51.811 80.3216C52.0193 78.2366 52.2752 75.8509 51.6738 73.8067ZM35.7969 62.5166C29.3612 55.2237 27.4516 43.8689 31.5122 35.0423C32.4195 33.072 33.6222 31.3879 35.0122 29.9174C35.2786 33.2922 36.757 37.1536 39.1783 39.2175C39.9643 39.8862 41.1076 39.0566 40.6131 38.1111C39.8667 36.6828 38.9026 35.3905 38.1813 33.9398C37.2964 32.1581 36.9429 30.259 36.7095 28.3085C38.0586 27.1849 39.562 26.2618 41.1551 25.489C41.8093 29.4928 41.8436 34.9064 45.2566 37.6363C45.9621 38.2008 46.909 37.515 46.5055 36.671C45.5401 34.6559 44.4904 32.828 43.8969 30.6507C43.376 28.7437 43.0924 26.788 42.5214 24.8916C42.5188 24.8823 42.5135 24.8784 42.5109 24.8692C44.3796 24.0977 46.3736 23.5741 48.4124 23.2167C48.2528 23.4237 48.2159 23.7403 48.4151 23.9869C48.8925 24.5738 48.9492 25.9057 49.0969 26.6205C49.3844 28.0184 49.5598 29.44 49.7892 30.8472C50.0728 32.584 50.1598 35.3575 51.8399 36.3822C52.6167 36.8556 53.3249 36.0815 53.2168 35.3245C52.8792 32.9533 51.9231 30.4859 51.3731 28.1319C50.992 26.5018 50.7005 24.0475 49.1035 23.0967C49.0837 23.0835 49.0679 23.0953 49.0468 23.0861C51.108 22.7683 53.2168 22.6747 55.3136 22.7433C55.162 22.9161 55.0855 23.1455 55.2583 23.4092C56.3529 25.0709 56.6971 27.4184 57.04 29.3412C57.2905 30.7523 57.2562 32.2887 58.004 33.5455C58.4194 34.2431 59.4784 34.0967 59.7026 33.3239C60.1351 31.8363 59.5417 30.2023 59.1698 28.7543C58.6462 26.7141 58.0304 24.2533 56.3951 22.7894C58.0119 22.891 59.5984 23.1363 61.1585 23.4475C61.2376 23.6163 61.3708 23.7574 61.6069 23.8022C62.9771 24.0647 63.3596 27.8509 63.5521 28.9204C63.7697 30.1311 63.6708 31.831 64.6362 32.7607C65.194 33.2975 66.257 32.8927 66.2583 32.1568C66.2807 32.05 66.3084 31.9049 66.315 31.8627C66.4033 31.3352 66.3928 30.8894 66.286 30.3658C66.0288 29.1064 65.7176 27.8588 65.3325 26.6337C65.1123 25.936 64.8023 25.0419 64.3605 24.2467C66.0697 24.7649 67.7195 25.3795 69.2189 26.1484C78.6694 30.9976 84.261 41.4212 82.6561 51.8964C81.3162 60.6399 72.4869 65.0117 64.714 67.4739C64.5636 67.4805 64.4041 67.5148 64.2405 67.5847C64.1034 67.6427 63.9675 67.6902 63.8304 67.7469C63.1525 67.9514 62.4813 68.1478 61.8298 68.3259C61.5014 68.4155 61.2627 68.5777 61.0675 68.7663C51.712 71.8233 42.8379 70.494 35.7969 62.5166ZM47.6304 86.5687C55.4231 87.083 63.1828 88.0734 70.787 89.3593C71.3936 89.4621 71.9119 89.3052 72.3115 89.0098C72.7019 92.2012 74.5917 94.9351 78.1893 95.4006C81.9914 95.8912 85.0721 93.5028 86.3817 90.3193C90.0031 92.4214 94.3379 93.1521 98.5027 93.6572C106.206 94.5909 113.504 95.5549 120.984 97.5094C120.698 101.187 121.965 105.302 124.823 107.007C129.113 109.568 134.651 105.702 137.085 101.663C149.926 107.808 164.273 110.167 178.407 112.323C179.305 115.814 179.478 119.272 179.245 122.714C179.037 122.396 178.697 122.159 178.186 122.148C152.917 121.6 126.268 116.198 101.578 111.096C86.8156 108.045 72.4737 103.436 57.8418 99.8673C52.4519 98.5538 47.2097 97.6069 42.1073 95.4269C41.6537 95.2318 41.2989 95.1039 40.9692 95.0142C44.9137 94.0132 47.7873 90.74 47.6304 86.5687ZM6.03052 89.7469C10.1662 88.6906 14.3547 87.9032 18.5748 87.3362C18.472 91.4059 15.4058 95.8609 12.0192 98.0118C9.90382 95.3386 7.8887 92.5929 6.03052 89.7469ZM28.5765 115.495C28.6346 114.847 27.9224 114.655 27.4595 114.92C22.7237 110.247 18.0935 105.4 13.8417 100.26C17.0635 98.5288 19.4703 94.9152 20.8484 91.7937C21.3364 90.6872 21.9799 88.7275 22.1105 86.9062C29.377 86.144 36.724 86.0438 44.0565 86.3827C44.402 89.3962 42.3394 91.2121 37.8028 91.7963C36.211 91.5708 34.5902 93.4462 36.0659 94.7795C40.228 98.538 38.209 104.473 32.3324 104.267C30.6905 104.209 30.2039 106.145 31.1033 107.234C36.1226 113.308 28.8865 112.075 28.5765 115.495ZM68.4105 143.056C60.0507 143.377 51.6606 142.849 43.3549 141.885C44.1092 136.609 44.5919 131.339 44.8398 126.002C47.1174 126.389 49.4279 126.611 51.5828 126.537C51.5789 126.533 51.5749 126.527 51.5709 126.521C51.5934 126.521 51.6158 126.52 51.6382 126.519C52.5429 130.356 54.9312 134.388 59.2027 134.524C61.8087 134.605 64.0282 132.706 65.6451 130.806C70.3729 131.45 75.1139 131.944 79.855 132.445C80.2242 134.693 81.0564 136.687 81.7382 138.855C83.2403 143.638 70.6274 142.972 68.4105 143.056ZM54.3747 124.333C56.3054 123.199 57.847 122.048 60.209 121.87C61.7572 121.754 63.8633 122.027 64.7839 123.445C66.2925 125.768 61.4645 131.322 58.8691 130.945C56.9094 130.661 55.0657 127.423 54.3747 124.333ZM123.694 155.618C118.763 154.54 113.791 153.75 108.86 152.693C100.453 150.889 104.139 142.017 105.607 136.299C113.64 138.26 121.291 140.955 129.346 143.381C129.41 143.4 129.461 143.39 129.521 143.402C129.394 147.582 131.339 152.016 134.761 154.42C139.621 157.832 146.393 153.32 148.159 148.444C151.133 149.963 155.063 150.311 158.159 150.653C158.075 151.024 158.097 151.423 158.291 151.785C159.733 154.485 160.449 157.612 161.232 160.625C148.518 161.042 136.08 158.325 123.694 155.618ZM134.756 139.06C134.792 139.658 135.139 140.212 135.819 140.46C136.974 140.88 138.14 140.507 139.353 140.574C140.664 140.648 142.068 141.313 143.086 142.109C145.875 144.289 145.028 147.336 142.898 149.636C140.817 151.883 138.014 152.815 135.666 150.525C133.155 148.074 131.162 140.759 134.756 139.06ZM171.698 148.217C165.967 147.909 154.46 148.987 148.667 145.768C148.721 143.166 147.496 140.76 145.313 139.033C143.359 137.483 139.07 135.803 136.397 136.991C133.374 136.361 131.058 137.723 130.053 140.425C122.158 134.619 110.239 133.111 100.895 131.443C89.887 129.477 78.1827 127.975 66.9836 129.043C68.4883 126.784 69.3403 124.208 67.978 121.577C65.711 117.198 58.8111 117.26 54.5527 119.71C54.9088 119.054 55.4745 118.628 56.3093 118.582C56.9529 118.547 57.1402 117.585 56.4663 117.422C55.6777 117.233 55.2675 116.923 54.3773 117.147C53.47 117.376 52.8304 118.042 52.2989 118.767C51.4483 119.929 51.2082 121.489 51.2148 122.983C48.5641 121.95 44.9387 122.151 42.3157 121.704C39.6952 121.257 37.0722 120.393 34.5269 119.645C33.5589 119.36 32.1491 118.577 30.8699 118.251C30.4848 117.882 30.105 117.501 29.7213 117.129C30.3978 117.052 31.0229 116.896 31.3644 116.718C34.8276 114.911 36.1424 112.19 35.6466 109.276C44.5167 109.15 53.6098 110.783 62.6751 112.979C65.1703 113.725 67.6931 114.35 70.2278 114.915C79.3605 117.357 88.3968 120.032 97.081 121.705C99.3427 122.14 101.61 122.548 103.875 122.961C108.229 123.856 112.602 124.662 117.007 125.328C124.365 126.647 131.715 128.002 139.026 129.614C150.669 132.179 162.349 135.196 174.26 136.163C174.374 136.64 174.863 137.022 175.447 136.902C176.316 136.721 176.659 136.168 176.861 135.508C176.866 135.494 176.87 135.481 176.874 135.468C177.001 135.037 177.072 134.562 177.184 134.112C177.234 133.912 177.166 133.772 177.064 133.664C177.23 133.495 177.416 133.339 177.552 133.154C176.401 138.193 174.983 143.23 174.213 148.32C173.373 148.287 172.525 148.262 171.698 148.217ZM175.654 148.378C178.747 136.75 183.957 124.782 181.366 112.774C182.333 112.921 183.303 113.067 184.266 113.216C188.457 123.822 186.815 138.364 182.043 148.723C179.918 148.54 177.782 148.455 175.654 148.378ZM188.335 149.716C188.077 149.656 187.823 149.583 187.566 149.522C186.247 149.216 184.9 149.004 183.541 148.846C188.357 139.809 192.456 123.125 187.261 113.686C188.259 113.845 189.256 114.006 190.249 114.172C190.619 114.234 190.972 114.27 191.339 114.328C194.434 126.334 192.367 138.111 188.335 149.716ZM194.859 151.462C193.197 150.985 191.533 150.53 189.863 150.1C193.06 143.774 194.655 136.509 195.589 129.582C196.14 125.497 196.746 118.901 194.414 114.767C195.146 114.866 195.894 114.994 196.62 115.082C199.871 127.397 199.782 139.585 194.859 151.462ZM231.537 139.254C230.942 143.2 229.647 147.029 227.931 150.618C224.634 157.508 217.228 156.532 211.092 155.551C206.36 154.795 201.74 153.458 197.124 152.116C199.865 146.51 201.244 140.251 202.041 134.102C202.713 128.908 203.261 120.417 199.983 115.449C203.961 115.833 207.94 116.055 212.123 116.102C218.287 116.168 228.149 115.643 231.116 122.879C233.118 127.758 232.295 134.22 231.537 139.254Z" fill="black"/>
<path d="M79.8901 46.1217C79.4298 44.7013 76.9492 44.3769 76.6855 46.1217C75.5447 53.6559 71.7545 56.5572 64.2704 58.0448C57.9758 59.2963 50.3994 58.4708 44.9093 55.0472C43.7883 54.3483 42.517 55.9796 43.4968 56.879C49.5461 62.435 58.9069 62.799 66.5769 61.4301C73.4149 60.2089 82.533 54.281 79.8901 46.1217Z" fill="black"/>
<path d="M67.8305 44.6155C67.0366 42.6913 65.3973 41.4174 63.3018 41.3198C62.3971 41.279 62.3668 42.5028 63.1026 42.7903C64.3318 43.2716 65.0188 44.4189 65.3472 45.6428C65.6664 46.8297 65.007 47.8861 65.1085 49.0624C65.1863 49.9684 66.0567 50.5342 66.8981 50.0897C68.8235 49.0703 68.54 46.3338 67.8305 44.6155Z" fill="black"/>
<path d="M58.8655 51.7819C58.429 49.5136 57.6087 47.389 56.2609 45.5071C55.4459 44.369 53.6616 45.3515 54.3566 46.6201C55.3087 48.357 55.9219 50.1795 56.1712 52.1472C56.3743 53.7482 55.7202 55.6472 57.0377 56.8222C57.4926 57.2284 58.1217 57.2416 58.5753 56.8222C59.9403 55.5602 59.178 53.4106 58.8655 51.7819Z" fill="black"/>
</svg>
