<svg width="76" height="101" viewBox="0 0 76 101" fill="none" xmlns="http://www.w3.org/2000/svg">
<path d="M51.0914 83.7952C50.8855 83.3738 50.7422 82.9575 50.4999 82.6107C50.1366 82.0899 50.23 81.6508 50.6062 81.2158C51.6384 80.0215 54.6148 79.3424 56.0753 79.9992C56.3833 80.137 56.6244 80.4235 57.0462 80.7623C56.3799 81.4732 55.7835 82.1118 55.2228 82.7105C55.5315 83.457 56.0559 83.5287 56.5662 83.4106C57.3832 83.2216 58.1202 82.8397 58.547 82.0607C59.3864 80.526 58.8077 79.059 57.1518 78.4913C54.5463 77.5984 52.1514 78.071 50.0466 79.7714C49.4482 80.2544 48.929 81.0241 48.72 81.7607C48.3223 83.1657 49.4924 84.2049 51.0914 83.7952Z" fill="#26224D"/>
<path d="M63.7262 80.0025C64.293 80.1147 64.7774 79.7135 64.8709 79.039C64.9529 78.4438 64.7426 78.0027 64.111 77.9227C63.5275 77.8477 63.1218 78.143 62.9549 78.7116C62.7834 79.2974 63.1465 79.8879 63.7262 80.0025Z" fill="#26224D"/>
<path d="M43.2053 83.0511C43.0405 83.847 43.3811 84.3006 43.9538 84.3765C44.4843 84.447 44.8579 84.2206 44.9586 83.7001C45.0679 83.1403 44.8468 82.6024 44.2633 82.5778C43.8685 82.5612 43.4571 82.9286 43.2053 83.0511Z" fill="#26224D"/>
<path d="M48.1318 51.5351C49.0234 51.3138 49.5065 51.1564 50.002 51.0789C51.325 50.8714 52.6779 50.7979 53.9742 50.4873C55.6683 50.0809 57.3344 49.5438 58.9833 48.977C60.31 48.5205 60.7917 47.5615 60.7504 46.1028C60.5658 39.6574 58.6797 33.8123 54.6693 28.7496C49.358 22.0439 42.3874 18.3923 33.8349 17.838C30.4571 17.6179 27.1518 18.0781 23.9167 19.0687C23.4153 19.2221 22.9105 19.551 22.3425 19.2844C22.3948 19.0892 22.3906 18.9601 22.4517 18.9019C22.7532 18.6232 23.0525 18.3342 23.3877 18.0995C36.0147 9.2763 49.5283 7.52262 63.6288 13.823C74.3701 18.6225 81.398 27.0653 84.7177 38.3649C87.5798 48.107 86.8153 57.6535 82.1729 66.7529C76.3359 78.1948 67.02 85.2193 54.4692 87.7154C45.0154 89.5958 36.0159 87.9401 27.6535 83.1143C21.9129 79.801 17.3642 75.2433 13.9163 69.5891C13.6464 69.1466 13.2098 68.7148 13.4674 67.8798C14.2672 68.4497 14.9566 68.9503 15.6565 69.4372C19.9284 72.4102 24.6134 74.275 29.8376 74.6342C39.4874 75.2985 47.5122 71.9714 53.9461 64.7637C54.3045 64.3627 54.7231 64.0156 55.137 63.6207C55.6162 63.9768 55.9426 64.2232 56.2725 64.4637C58.4847 66.0758 60.9631 66.767 63.6872 66.5881C66.9827 66.3704 69.0617 64.4732 70.4086 61.6269C70.6207 61.1789 70.7279 60.6234 70.6899 60.1326C70.662 59.7773 70.3813 59.2738 70.0867 59.1581C69.817 59.0509 69.2774 59.2784 69.0336 59.5299C68.4623 60.1181 67.9596 60.7828 67.4958 61.4617C64.962 65.1682 59.6607 63.7806 57.6312 61.7795C57.0548 61.2114 56.8151 60.6162 57.2928 59.8566C57.5664 59.4212 57.7967 58.9559 58.0085 58.4875C58.3791 57.6682 58.2671 57.3088 57.456 56.8608C56.9175 56.5634 56.3531 56.2978 55.7743 56.0895C53.4796 55.2624 51.4118 54.0117 49.3838 52.6883C49.0186 52.449 48.7304 52.0927 48.1318 51.5351ZM14.9121 25.6873C15.9381 25.127 16.9747 24.5851 17.9891 24.0033C20.8255 22.3748 23.7993 21.1049 27.0231 20.4679C40.8964 17.7263 54.3627 26.1909 57.6407 40.0151C58.0536 41.7574 58.1673 43.5785 58.3127 45.3721C58.4125 46.6013 58.193 46.9543 56.9644 47.2723C55.4258 47.6701 53.8375 47.884 52.2641 48.1368C50.5864 48.4062 48.8881 48.5645 47.2204 48.887C45.1887 49.2805 44.5177 50.7721 45.5676 52.5601C45.9754 53.2546 46.5362 53.932 47.1839 54.4001C49.1448 55.815 51.1473 57.1828 53.4372 58.0493C54.8596 58.5884 54.9493 58.843 54.0597 60.1559C51.1582 64.4392 47.4189 67.749 42.6262 69.7824C36.5952 72.3405 30.4214 72.6726 24.1978 70.6407C20.0691 69.2922 16.4792 66.9999 13.503 63.7946C12.8738 63.1164 12.2271 62.4489 11.5477 61.8202C10.9989 61.3118 10.3381 60.9467 9.5815 61.3186C8.90576 61.6491 8.77644 62.3053 8.7329 63.0174C8.60031 65.2046 9.21628 67.2126 10.2349 69.092C11.9611 72.2792 14.0921 75.1891 16.5373 77.8665C20.9272 82.6733 26.1805 86.294 32.2606 88.521C42.6495 92.325 53.0787 92.3154 63.3364 87.9413C73.3041 83.6911 80.6565 76.592 85.0076 66.6927C93.1837 48.0941 87.0448 27.7673 71.7823 16.4776C66.6339 12.668 60.886 10.1338 54.6187 9.05712C42.1473 6.91398 30.8459 9.74491 21.061 17.8762C18.8608 19.7051 17.0524 22.0101 15.1116 24.1401C14.8195 24.46 14.7945 25.0231 14.6455 25.4744C14.7342 25.5447 14.8236 25.6161 14.9121 25.6873Z" fill="#26224D"/>
<path d="M68.3436 21.0109C68.9986 19.2534 68.3989 18.3021 66.8067 18.3028C65.8873 18.3025 65.3952 18.9206 65.5921 19.8309C65.6145 19.9318 65.6391 20.0353 65.6857 20.1253C66.9624 22.6252 68.7992 24.6008 71.2698 25.943C71.8813 26.2754 72.5719 26.3122 73.1292 25.7368C73.5818 25.2699 73.6111 24.7304 73.3295 24.1685C73.0771 23.6639 72.6939 23.2715 72.1034 23.5406C71.3217 23.8979 70.811 23.5004 70.3209 23.0261C69.6261 22.3536 68.9638 21.647 68.3436 21.0109Z" fill="#26224D"/>
<path d="M65.2235 40.572C65.3189 42.5557 65.3554 44.4588 65.5259 46.3503C65.5979 47.1593 66.2434 47.5851 66.9064 47.537C67.5506 47.4907 68.1252 46.948 68.0709 46.1418C67.9453 44.2962 67.6913 42.4599 67.4875 40.6205C67.4818 40.5696 67.4642 40.5193 67.4439 40.4722C67.2045 39.9372 66.8952 39.3272 66.2404 39.5141C65.8492 39.6254 65.5843 40.1765 65.2235 40.572Z" fill="#26224D"/>
<path d="M76.8624 28.4992C76.382 28.9538 75.9428 29.1791 75.9034 29.4602C75.8621 29.7514 76.2082 30.0981 76.3846 30.4195C76.6954 30.218 77.1675 30.076 77.27 29.7983C77.368 29.5339 77.0791 29.126 76.8624 28.4992Z" fill="#26224D"/>
</svg>
