<svg width="173" height="200" viewBox="0 0 173 200" fill="none" xmlns="http://www.w3.org/2000/svg">
<path d="M181.708 99.6683C181.125 94.1788 180.798 88.6442 179.91 83.2114C176.96 65.1767 169.43 49.4391 157.65 36.1038C152.94 30.7747 148.202 25.082 142.47 21.2358C123.14 8.26418 102.007 3.55934 79.205 7.7122C31.7592 16.3532 -1.13352 65.1485 8.58056 116.638C17.8381 165.723 61.8197 198.888 109.598 189.925C151.609 182.044 181.11 143.644 181.708 99.6683ZM94.3049 199.159C51.8296 200.229 10.2211 168.575 1.63421 118.351C-8.09535 61.4386 26.8273 13.0645 74.286 2.38054C99.6236 -3.32513 123.406 1.20174 145.349 16.2217C150.436 19.7065 155.747 22.6828 160.17 27.236C176.302 43.8451 185.913 63.8557 188.469 87.5219C191.626 116.747 184.19 142.736 166.118 165.048C150.358 184.508 130.086 195.568 106.173 199.078C102.288 199.649 98.2643 199.159 94.3049 199.159Z" fill="#26224D"/>
<path d="M60.8081 28.2564C69.3976 28.2262 73.1919 33.3407 71.6313 40.3103C70.5067 45.3218 68.3503 49.8853 65.4614 54.0152C60.8184 60.6513 55.915 67.0697 49.4097 71.7921C46.2757 74.0674 43.0179 76.2679 38.9734 76.3556C34.8927 76.4433 32.9117 75.1868 31.4053 71.2401C29.7571 66.9355 29.4088 62.4468 30.9178 58.0879C31.6117 56.0788 33.0252 54.2159 34.4981 52.7044C35.161 52.0213 37.0569 51.8379 37.8745 52.3507C39.3938 53.3079 38.3285 54.6653 37.5418 55.7504C35.4963 58.5756 34.253 61.6779 34.5935 65.3234C34.6631 66.066 34.6992 66.8267 34.8772 67.5443C35.762 71.1392 37.6837 72.3807 40.8383 70.7887C43.7453 69.3215 46.6832 67.5956 49.0563 65.3355C54.3183 60.3268 59.1186 54.771 62.7066 48.2531C64.0376 45.8328 65.0925 43.1113 65.6548 40.3859C66.5628 35.9947 64.5431 34.0944 60.4521 35.1543C58.3963 35.6854 56.4437 36.712 54.3776 37.1201C53.2994 37.3339 52.0716 36.689 50.9134 36.4311C51.3003 35.2683 51.3623 33.7124 52.1258 33.0051C55.1644 30.2072 58.662 28.3008 60.8081 28.2564Z" fill="#26224D"/>
<path d="M138.694 144.399C136.538 144.63 134.797 144.463 133.316 145.038C126.94 147.517 120.865 150.674 115.418 155.031C113.336 156.692 111.763 158.782 111.265 161.58C110.697 164.756 112.067 167.046 115.119 167.203C117.463 167.322 119.844 166.643 122.209 166.319C123.739 166.109 125.281 165.666 126.801 165.74C128.792 165.836 129.555 167.843 127.987 169.14C126.032 170.758 123.757 172.313 121.397 172.919C118.727 173.605 115.774 173.538 113.003 173.21C108.889 172.723 106.005 169.058 105.714 164.624C105.361 159.24 106.87 154.52 110.666 150.883C117.254 144.574 124.99 140.323 133.422 137.494C134.73 137.052 136.213 137.089 137.614 137.094C141.509 137.109 144.336 138.866 145.378 142.069C146.58 145.773 145.734 149.199 143.389 152.093C142.778 152.846 141.416 153.352 140.456 153.264C138.885 153.117 138.733 151.533 138.702 150.148C138.666 148.529 138.694 146.908 138.694 144.399Z" fill="#26224D"/>
<path d="M32.3864 106.024C30.7511 111.299 29.7657 116.166 30.6762 121.286C30.8258 122.137 31.2669 122.986 31.7441 123.706C33.168 125.859 34.762 125.793 35.9254 123.404C37.798 119.558 38.3551 115.408 37.4549 111.193C36.939 108.779 35.4714 106.983 32.3864 106.024ZM44.6695 115.627C43.7203 119.333 43.2019 123.247 41.729 126.706C38.546 134.194 31.1534 134.692 26.6652 127.956C24.2586 124.343 23.8666 120.193 24.2045 115.95C24.4418 112.983 24.79 110.012 25.3214 107.092C25.9249 103.762 27.1501 100.682 30.5343 99.521C33.9675 98.3422 36.8436 99.6298 39.454 102.092C43.2793 105.704 44.4116 110.277 44.6695 115.627Z" fill="#26224D"/>
<path d="M147.713 125.798C142.933 125.78 139.598 122.336 139.639 117.461C139.691 111.232 144.272 105.57 149.144 105.715C153.658 105.846 157.757 110.383 157.648 115.132C157.517 120.945 152.977 125.821 147.713 125.798Z" fill="#26224D"/>
<path d="M88.945 33.7825C85.8162 33.7825 82.9272 31.0661 82.8757 28.0796C82.8241 24.8138 85.8394 21.9917 89.4763 21.912C92.6439 21.8395 95.5457 24.4654 95.5844 27.4348C95.6257 30.4705 92.159 33.7825 88.945 33.7825Z" fill="#26224D"/>
<path d="M87.1624 170.716C87.116 173.398 85.5502 175.15 83.3474 174.982C81.3045 174.827 79.9452 173.048 80.0355 170.652C80.1258 168.284 81.6321 166.625 83.6982 166.619C85.8185 166.612 87.2037 168.25 87.1624 170.716Z" fill="#26224D"/>
<path d="M165.115 100.252C163.343 100.241 161.713 98.3425 161.85 96.3535C161.979 94.4713 162.98 93.3519 164.754 93.1636C166.539 92.975 168.342 94.8322 168.324 96.7283C168.309 98.4434 166.658 100.259 165.115 100.252Z" fill="#26224D"/>
<path d="M84.3906 46.4369C86.0878 46.5094 87.3518 48.1447 87.246 50.1306C87.1428 52.0832 86.0311 53.1049 84.3287 53.3164C82.6985 53.5202 81.1534 51.7175 81.1921 49.8727C81.2308 48.0286 82.7733 46.3703 84.3906 46.4369Z" fill="#26224D"/>
</svg>
