<svg width="75" height="57" viewBox="0 0 75 57" fill="none" xmlns="http://www.w3.org/2000/svg">
<path d="M8.30272 43.3614C12.3944 41.3735 16.0659 37.8184 19.68 35.0722C23.5422 32.1378 27.3827 29.1754 31.288 26.2984C35.0858 23.5006 38.9947 20.8688 42.8592 18.1668C46.5266 15.6026 50.8037 13.2027 54.0341 10.0996C54.404 9.74407 54.0168 9.17759 53.5503 9.36226C51.8798 10.024 50.2799 11.2834 48.8833 12.4181C46.7343 14.1639 44.403 15.6818 42.1486 17.2856C38.2913 20.0296 34.4504 22.7922 30.6544 25.6211C26.7788 28.5088 22.9699 31.4863 19.1162 34.4034C15.3856 37.2278 11.5625 39.9424 8.06128 43.0423C7.88253 43.2012 8.10574 43.4571 8.30272 43.3614Z" fill="black"/>
<path d="M16.6285 52.1351C17.5609 52.0821 18.737 51.5156 19.4396 50.9455C21.2933 49.4419 23.1115 47.8732 25.031 46.4536C28.9755 43.5384 33.2348 41.0784 37.1815 38.1636C40.8797 35.4321 44.6192 32.7816 48.4748 30.2767C50.5891 28.9029 52.5918 27.3952 54.6416 25.9285C56.3953 24.674 58.3962 23.6928 59.8631 22.0845C60.3198 21.5834 59.768 20.7575 59.1419 21.109C55.3619 23.2282 52.0942 26.1786 48.4632 28.5251C44.7588 30.9192 41.1411 33.4469 37.604 36.0809C33.9071 38.8337 30.0969 41.3925 26.3254 44.0403C24.5326 45.2988 22.8505 46.6641 21.1706 48.0668C19.8709 49.1526 18.1936 50.9371 16.4813 51.391C16.0513 51.5049 16.2061 52.1591 16.6285 52.1351Z" fill="black"/>
<path d="M52.3148 9.04574C54.3993 11.2632 54.6506 14.5478 56.1744 17.1102C57.3336 19.0602 58.4861 21.0601 60.0815 22.6861C60.2918 22.2078 60.5022 21.7298 60.7125 21.2514C60.6653 21.2483 60.6178 21.2452 60.5702 21.2421C59.5493 21.1753 59.2691 22.7088 60.3163 22.8383C60.3674 22.8446 60.4186 22.8508 60.4697 22.857C61.3154 22.9616 61.6631 21.9728 61.1006 21.4223C59.2869 19.6481 57.6004 17.0559 56.5528 14.7401C55.511 12.4367 54.892 10.0844 52.896 8.40091C52.5167 8.08139 51.9795 8.68929 52.3148 9.04574Z" fill="black"/>
<path d="M53.2118 9.18621C53.2989 8.7857 53.3176 7.88455 53.8738 8.04386C54.2247 8.14399 54.5133 8.50222 54.7498 8.75899C55.2323 9.2841 55.6222 9.92938 56.3088 10.1986C56.8468 10.4104 57.1025 9.58049 56.6631 9.30058C55.8054 8.75411 55.3576 7.71989 54.4034 7.29179C54.0308 7.12492 53.4416 7.02657 53.0895 7.30782C52.5795 7.71545 52.595 8.48043 52.603 9.06518C52.6079 9.39715 53.1317 9.55512 53.2118 9.18621Z" fill="black"/>
<path d="M55.3049 8.44958C55.4606 7.98454 55.7509 7.57826 56.0262 7.17686C56.4175 6.60591 56.6416 6.46173 57.1911 6.93211C57.4859 7.18487 57.8012 7.41405 58.0911 7.67171C58.4646 8.00413 58.6545 8.36103 59.1 8.60089C59.4522 8.79047 59.7341 8.35524 59.6398 8.05308C59.4562 7.46522 58.9231 7.00508 58.4326 6.65219C57.935 6.2944 57.4686 5.82403 56.8714 5.64247C55.5602 5.24508 54.8389 7.5124 54.8243 8.41533C54.8185 8.71571 55.2249 8.68855 55.3049 8.44958Z" fill="black"/>
<path d="M60.9576 23.0407C62.0234 22.7519 63.5544 22.2117 63.6953 20.9309C63.7785 20.1771 63.5859 19.4397 63.3098 18.741C63.0457 18.0718 62.7451 17.0731 62.2329 16.5467C62.0221 16.3309 61.521 16.2494 61.3347 16.5494C60.9745 17.1301 61.4721 17.6695 61.7446 18.1919C62.1426 18.9533 62.742 20.024 62.5228 20.9122C62.3703 21.5312 61.1141 22.0715 60.605 22.3536C60.1986 22.5797 60.561 23.1484 60.9576 23.0407Z" fill="black"/>
<path d="M62.9254 21.136C65.2331 22.3122 65.9126 18.4744 65.7187 17.0295C65.4781 15.2339 64.0401 13.3301 63.1588 11.798C62.3598 10.4073 61.2455 8.61303 59.603 8.18493C59.2388 8.09014 59.0285 8.55473 59.2753 8.8026C60.7422 10.2783 61.9218 11.5821 62.9507 13.4231C63.3403 14.12 63.7111 14.8271 64.1051 15.5227C64.792 16.609 65.0148 17.7811 64.7734 19.0391C64.6866 19.5318 63.7867 20.675 63.2611 20.4796C62.8289 20.319 62.4905 20.9144 62.9254 21.136Z" fill="black"/>
<path d="M58.5434 12.6452C58.7597 12.6567 58.9759 12.6772 59.1922 12.6643C59.4801 12.6474 59.5282 12.1801 59.2518 12.1027C59.0307 12.0404 58.797 12.0221 58.5701 11.9914C58.1567 11.9363 58.118 12.6216 58.5434 12.6452Z" fill="black"/>
<path d="M59.267 13.9847C59.2862 13.9874 59.1861 13.9072 59.2893 13.9945C59.2324 13.9464 59.4138 14.1311 59.3995 14.1164C59.5134 14.2317 59.6614 14.298 59.8206 14.3211C60.3164 14.3923 60.4525 13.646 59.9576 13.5544C59.9389 13.5508 59.9696 13.5797 59.97 13.5806C59.9318 13.5383 59.8993 13.4916 59.8611 13.4498C59.7281 13.3038 59.5823 13.2228 59.3875 13.1863C58.8766 13.0916 58.7517 13.9095 59.267 13.9847Z" fill="black"/>
<path d="M57.7456 7.45555C59.2223 6.46763 60.4384 4.93635 61.8186 3.80068C63.6995 2.2525 64.868 0.991346 67.2073 2.7251C68.8814 3.96579 70.0535 5.71154 71.2274 7.40079C72.203 8.80568 72.4342 10.5617 73.5841 11.8803C74.0772 12.4459 75.1861 11.8807 74.7664 11.1714C73.6503 9.28586 72.9251 7.26596 71.6481 5.47658C70.319 3.61378 68.7752 2.05313 66.7716 0.928144C65.2335 0.0648265 63.5243 0.89923 62.3331 1.91385C60.5727 3.41264 58.4873 4.98084 57.2676 6.98427C57.092 7.27353 57.457 7.64824 57.7456 7.45555Z" fill="black"/>
<path d="M64.9625 19.1938C67.4534 19.7638 68.7865 17.8757 70.5628 16.4552C72.0724 15.2474 74.9915 13.7758 75 11.5196C75.0027 10.8419 74.1556 10.6994 73.8795 11.2895C73.0169 13.1332 71.4419 14.1478 69.8767 15.3707C68.2662 16.6287 67.1626 18.3073 65.0154 18.6179C64.737 18.6584 64.6619 19.1248 64.9625 19.1938Z" fill="black"/>
<path d="M64.5847 3.16858C64.9635 4.85027 66.0525 6.41848 67.1263 7.73704C67.3704 8.03653 67.7982 7.67828 67.6519 7.35876C66.9467 5.8177 65.7163 4.58413 65.0449 3.01191C64.9204 2.71999 64.5162 2.86464 64.5847 3.16858Z" fill="black"/>
<path d="M69.3194 9.72281C69.628 10.1442 69.7343 10.6426 70.1598 10.98C70.3501 11.1308 70.673 10.9341 70.564 10.6916C70.3461 10.2056 70.1327 9.7179 69.7854 9.30493C69.5213 8.9912 69.0856 9.40285 69.3194 9.72281Z" fill="black"/>
<path d="M8.73484 43.7551C9.55078 43.0315 10.9003 43.3341 11.6993 43.9496C12.3281 44.4338 12.9408 44.7239 13.0511 45.5983C13.1524 46.3993 12.5539 47.0104 12.4188 47.7477C12.3565 48.0882 12.7838 48.3512 13.0564 48.1327C13.7069 47.6102 14.1053 46.5324 14.0995 45.7007C14.0929 44.739 13.5989 44.0172 12.8461 43.4538C11.6967 42.5941 8.96828 41.4678 8.14968 43.3404C7.9816 43.7271 8.42759 44.0275 8.73484 43.7551Z" fill="black"/>
<path d="M12.4888 48.0625C13.6093 48.2418 15.1229 47.7634 16.0046 48.6521C16.4648 49.1158 17.1536 50.1451 16.7103 50.7886C16.4555 51.158 15.9384 51.3226 15.6284 51.6506C15.2371 52.0649 15.7552 52.6781 16.2394 52.4151C16.7583 52.133 17.4568 51.7445 17.7187 51.1816C18.1345 50.2875 17.805 49.4585 17.3186 48.6633C17.0998 48.3055 16.7952 47.9891 16.4955 47.7003C15.9579 47.1809 15.3096 47.2441 14.6049 47.2014C13.7849 47.1516 13.2607 47.3976 12.4834 47.4978C12.1548 47.5396 12.1748 48.0122 12.4888 48.0625Z" fill="black"/>
<path d="M8.31844 43.1577C7.65235 45.6061 5.48335 48.0136 3.94086 49.9806C2.68294 51.5844 0.829187 53.2273 0.125751 55.1684C0.00302737 55.5075 0.526381 55.7737 0.742926 55.4964C2.34367 53.4445 3.97287 51.3819 5.48379 49.2632C6.8293 47.3759 8.47583 45.6203 8.68482 43.2235C8.70305 43.0117 8.37446 42.9525 8.31844 43.1577Z" fill="black"/>
<path d="M0.172663 56.1589C0.949022 56.6453 1.41101 56.6346 2.31454 56.453C3.94373 56.1264 5.57694 55.8603 7.19635 55.4771C10.1248 54.7834 13.7758 54.1675 16.2245 52.3158C16.6136 52.0216 16.2605 51.5121 15.8408 51.6144C13.6011 52.1605 11.4441 53.1573 9.20528 53.7781C8.01095 54.1092 6.80017 54.3895 5.5925 54.6694C4.267 54.9769 1.86499 55.8625 0.581285 55.4713C0.18199 55.3498 -0.246197 55.8959 0.172663 56.1589Z" fill="black"/>
<path d="M2.75426 51.8053C3.88323 52.6321 4.49239 53.6601 4.90769 54.9698C5.05221 55.4246 5.70807 55.2203 5.68495 54.782C5.60758 53.3326 4.18558 52.0705 3.02326 51.3874C2.77826 51.2437 2.52615 51.6375 2.75426 51.8053Z" fill="black"/>
<path d="M12.9547 44.72C19.7436 39.9282 26.7424 35.4038 33.5816 30.6733C41.1904 25.4102 49.0656 20.5445 57.0844 15.9618C57.7865 15.5604 57.1462 14.4826 56.4477 14.884C52.6277 17.0814 48.8931 19.2687 45.174 21.6517C41.5488 23.9751 37.9849 26.4644 34.4389 28.9075C30.622 31.5362 26.8967 34.2855 23.054 36.8812C21.122 38.1864 19.2558 39.5962 17.2949 40.8538C15.5821 41.9525 14.0161 42.8408 12.6746 44.3792C12.5149 44.5625 12.7417 44.8704 12.9547 44.72Z" fill="black"/>
<path d="M15.0717 47.6465C16.0371 48.4586 17.0349 47.6745 17.9104 46.9843C19.7068 45.5678 21.6241 44.3013 23.5005 42.9948C27.1107 40.4809 30.9115 38.2377 34.4478 35.6188C38.383 32.7044 42.5035 30.1278 46.5583 27.3861C50.4161 24.7775 53.6829 21.5712 57.8658 19.4111C58.6212 19.0208 58.1623 17.7659 57.3984 18.1602C54.0342 19.8975 51.1893 22.09 48.3209 24.5242C45.2079 27.1667 41.4697 29.1715 38.0926 31.4513C34.2028 34.0764 30.5167 36.9449 26.5717 39.5068C24.8465 40.6278 23.1946 41.8467 21.5134 43.0308C20.7006 43.6031 19.8966 44.1865 19.1003 44.7815C18.3346 45.3533 16.3159 47.5526 15.3421 47.2139C15.0753 47.1209 14.8361 47.4485 15.0717 47.6465Z" fill="black"/>
</svg>
