<svg width="165" height="213" viewBox="0 0 165 213" fill="none" xmlns="http://www.w3.org/2000/svg">
<path d="M163.51 157.218C162.733 136.752 163.244 116.323 162.158 95.8536C160.431 63.3498 165.429 26.185 140.992 0.640421C140.022 -0.371335 138.176 -0.156681 137.503 1.08925C129.783 15.3754 120.554 28.866 115.137 44.272C110.752 56.7389 114.237 75.1877 117.243 88.0043C114.757 89.1916 112.868 91.5289 113.259 94.3765C112.888 95.5009 112.927 96.7948 113.334 98.0693C109.922 107.613 106.427 114.266 97.3782 119.675C89.2992 124.501 79.8601 125.887 70.6252 126.157C70.4315 126.163 70.2664 126.205 70.1238 126.268C70.0533 125.501 70.0458 124.849 70.1313 124.375C70.1974 124.013 70.1434 123.698 70.0443 123.407C80.7623 120.994 90.7643 115.46 95.8381 106.018C104.214 90.4286 86.0718 68.7224 71.7796 64.3316C71.6295 64.285 71.5033 64.3075 71.3637 64.291C52.6793 57.0856 28.6748 65.7351 19.7161 83.6525C10.8805 101.324 27.2007 117.868 43.5209 123.003C43.7506 126.286 43.7536 129.473 43.5795 132.597C37.1712 135.919 30.9295 135.521 24.3681 132.013C18.5197 128.884 15.8402 123.857 12.2796 118.786C12.6443 118.394 12.9761 117.961 13.2658 117.491C15.2848 114.221 13.1473 110.15 9.79524 108.919C8.05995 108.28 6.13095 108.405 4.46921 109.196C3.9228 109.457 3.32986 109.843 2.76093 110.302C-1.41519 111.868 -0.296856 117.248 2.44419 119.648C4.46921 121.421 6.9866 121.644 9.20676 120.819C12.5378 134.357 31.2372 142.636 43.3108 136.072C41.9312 149.693 37.0181 162.119 30.6233 175.077C29.8367 176.67 30.82 178.231 32.5312 178.403C34.3716 178.588 38.1198 178.773 42.7103 178.768C41.727 185.139 42.5527 191.667 43.2778 198.166C39.6015 198.185 35.9087 200.059 34.0863 203.447C29.8231 211.373 42.7223 211.252 46.7393 210.643C47.631 210.508 48.3246 209.456 48.293 208.601C48.23 206.911 48.0948 205.231 47.9312 203.558C47.9402 203.562 47.9478 203.565 47.9568 203.57C49.6801 204.292 51.1122 201.636 49.7626 200.467C49.0481 199.85 48.2465 199.4 47.4148 199.032C46.5397 192.283 45.3733 185.588 45.3268 178.743C50.6483 178.657 56.7383 178.307 62.2189 177.444C60.955 188.851 59.4959 214.163 74.998 210.63C84.4536 208.475 75.1 188.273 66.8364 199.677C64.9269 192.275 65.7375 184.475 65.2257 176.907C72.2299 175.475 77.643 173.032 78.0543 168.976C78.8003 161.628 76.1479 153.182 74.7894 146.048C74.0253 142.036 71.3833 133.719 70.421 128.375C70.4901 128.395 70.5471 128.428 70.6237 128.437C85.9547 130.244 108.335 123.043 114.76 107.511C112.853 126.014 114.463 144.559 115.097 163.117C115.191 165.857 114.944 168.964 114.599 172.241C114.344 172.214 114.092 172.214 113.835 172.183C113.16 172.1 113.02 173.224 113.676 173.363C113.94 173.418 114.204 173.447 114.469 173.498C113.229 184.689 111.139 197.67 117.017 205.679C121.579 211.895 135.218 211.506 141.784 212.306C150.041 213.312 157.144 210.584 161.066 203.158C167.731 190.541 164.024 170.727 163.51 157.218ZM10.4707 115.448C9.84321 117.895 6.73292 118.89 4.69139 117.761C3.9093 117.329 3.31635 116.655 2.89754 115.883C4.64184 114.627 5.41344 111.818 8.07643 112.313C9.56554 112.591 10.8715 113.879 10.4707 115.448ZM68.6512 204.353C70.8128 201.588 74.4561 198.6 74.8614 204.203C75.0295 206.545 73.1396 206.718 71.2857 206.32C69.9992 206.045 69.1706 205.338 68.5717 204.422C68.5957 204.394 68.6257 204.386 68.6512 204.353ZM70.2514 145.599C62.0433 148.222 54.4927 151.706 45.7531 147.678C45.6931 147.651 45.6375 147.654 45.5775 147.635C47.1777 139.886 47.5484 131.935 45.9497 123.689C47.1716 123.988 48.389 124.225 49.5854 124.384C54.8694 125.088 60.7147 125.019 66.4896 124.096C66.0918 127.667 67.4653 131.585 68.1529 135.012C68.8584 138.54 69.5639 142.067 70.2514 145.599ZM25.2958 82.4486C32.3196 68.4116 54.4416 63.4444 69.0671 66.6523C69.1166 67.4794 69.5894 68.2735 70.6057 68.5857C84.2193 72.7604 98.366 92.0363 90.9459 105.866C84.9565 117.028 67.6905 120.185 56.345 120.481C36.1624 121.006 14.8135 103.397 25.2958 82.4486ZM39.4619 203.522C40.8445 202.48 42.2705 202.199 43.7086 202.328C43.8422 203.793 43.9487 205.254 44.0073 206.71C40.7648 206.917 35.1672 206.758 39.4619 203.522ZM44.6873 174.178C44.5207 174.145 44.3496 174.157 44.1859 174.206C41.4149 174.332 38.6513 174.382 35.9373 174.239C39.6841 166.45 42.955 158.548 44.9485 150.434C47.3113 151.635 50.1409 152.378 53.1116 152.74C52.1719 156.394 52.8805 160.965 53.0546 164.679C53.1882 167.528 53.4163 170.53 54.3035 173.283C51.1316 173.697 47.9087 174.014 44.6873 174.178ZM70.999 149.507C71.7345 153.401 72.4355 157.301 73.0525 161.216C73.2551 162.505 74.6467 167.733 73.2747 168.768C70.2754 171.027 65.1927 171.462 61.6395 172.129C60.1189 172.414 58.5682 172.671 57.0026 172.908C56.6093 169.745 56.3675 166.602 56.3435 163.397C56.3195 160.079 57.0671 156.241 56.339 152.964C61.5479 153.063 66.9129 151.958 70.999 149.507ZM159.968 178.576C153.203 177.783 146.171 178.016 139.42 177.836C132.707 177.657 125.505 176.934 118.735 177.693C118.771 176.512 118.801 175.331 118.834 174.151C127.522 175.098 136.188 174.035 144.962 173.322C145.219 173.301 145.494 173.304 145.759 173.294C146.394 174.425 147.987 174.263 148.804 173.325C152.484 173.517 156.473 174.031 159.723 173.163C159.792 174.838 159.883 176.632 159.968 178.576ZM157.045 81.572C158.283 111.096 158.8 140.556 159.618 170.087C156.548 169.343 152.683 169.887 149.421 170.077C149.544 167.107 149.455 163.652 149.026 160.364C150.114 150.582 147.426 138.41 146.698 131.147C143.976 103.973 146.884 76.1934 145.332 48.834C148.997 50.7569 153.291 50.5663 155.562 47.3163C156.701 58.5567 156.567 70.1844 157.045 81.572ZM119.734 43.9613C121.302 38.0004 124.116 32.1835 127.371 26.4988C129.076 29.9243 136.759 29.2518 139.669 28.875C143.289 28.4052 148.076 27.0226 150.404 23.8553C152.577 29.5265 153.954 35.45 154.85 41.5235C154.433 41.6196 154.062 41.8507 153.867 42.2891C151.821 46.884 147.615 47.516 144.51 43.3023C143.629 42.1059 141.276 41.9198 140.951 43.7677C140.343 47.2188 134.702 51.4985 134.513 43.7166C134.469 41.9468 131.773 40.9185 130.94 42.7484C129.814 45.2208 128.363 46.923 126.029 48.3221C122.617 50.3711 118.636 49.0051 119.788 44.5152C119.843 44.3096 119.81 44.1249 119.734 43.9613ZM117.49 98.964C117.103 98.6397 116.789 98.2599 116.515 97.8636C116.436 97.5604 116.295 97.3142 116.093 97.1341C115.958 96.8429 115.859 96.5487 115.793 96.2484C116.006 96.1223 116.196 95.9467 116.325 95.6795C117.411 93.4293 117.789 90.5096 121.06 90.9945C123.615 91.3728 125.068 93.3783 124.329 95.8731C123.432 98.9099 120.267 101.282 117.49 98.964ZM119.293 103.341C122.533 103.634 125.87 101.301 127.447 98.0633C129.66 93.5224 127.285 88.5026 122.373 87.3378C121.782 87.1966 121.167 87.1591 120.547 87.1801C120.56 86.9069 120.574 86.6322 120.587 86.3575C120.595 86.1969 120.553 86.0558 120.491 85.9252C120.329 74.2525 117.339 62.8184 118.459 51.1682C119.041 51.6906 119.791 52.1364 120.782 52.4577C124.346 53.6075 128.078 51.8842 130.834 49.2918C130.913 50.889 130.936 52.4982 130.984 54.1014C130.254 58.1529 130.356 62.3005 131.134 66.3536C131.087 73.2753 130.897 80.2195 130.696 87.1456C130.191 87.3903 129.783 87.8707 129.718 88.6302C128.057 108.092 129.007 127.586 131.751 146.869C132.012 154.762 132.051 162.645 131.491 170.503C131.446 171.142 131.87 171.488 132.36 171.549C127.89 172.099 123.421 172.582 118.877 172.499C119.081 164.845 119.181 157.199 118.796 149.429C118.037 134.047 117.354 118.737 119.296 103.413C119.302 103.388 119.29 103.37 119.293 103.341ZM148.969 207.762C143.671 209.212 137.592 207.276 132.297 206.566C121.797 205.156 118.17 201.132 118.377 190.357C118.416 188.336 118.481 186.335 118.538 184.327C124.058 185.609 129.95 185.841 135.556 186.392C143.592 187.185 151.968 188.396 160.046 187.718C159.654 196.71 157.416 205.451 148.969 207.762ZM138.425 183.767C131.948 183.318 125.083 182.249 118.574 182.974C118.61 181.737 118.648 180.508 118.687 179.274C124.562 180.056 130.709 179.895 136.58 180.215C144.281 180.636 152.312 181.76 160.076 181.506C160.107 182.698 160.124 183.911 160.115 185.131C152.939 184.348 145.63 184.265 138.425 183.767Z" fill="black"/>
<path d="M81.6819 92.9369C80.8173 91.5604 78.7368 92.1383 78.6752 93.7521C77.8316 115.786 39.3848 110.5 31.6135 94.9965C31.1331 94.0373 29.71 94.7233 29.9412 95.7005C33.3067 109.861 50.8009 112.917 63.1281 111.647C70.7868 110.856 88.491 103.772 81.6819 92.9369Z" fill="black"/>
<path d="M52.2418 80.3546C51.116 78.6478 48.6616 79.7541 49.0294 81.7086C49.4227 83.7966 50.3863 85.7091 50.6535 87.8707C50.7751 88.8599 50.7421 89.8371 50.7031 90.8279C50.6896 91.1821 50.61 91.4974 50.544 91.8427C50.5229 91.9507 50.511 91.9898 50.496 92.0453C49.8955 92.3245 50.0336 93.2027 50.7241 93.2492C55.6102 93.587 53.7774 82.6828 52.2418 80.3546Z" fill="black"/>
<path d="M64.4531 81.6755C63.8586 79.3548 62.5557 75.8151 59.8206 75.6125C58.6768 75.5269 58.0433 76.7233 58.2294 77.6991C58.4231 78.7093 59.07 79.1777 59.6495 79.9793C60.3775 80.9865 60.8219 82.1724 61.2091 83.3403C62.0288 85.8141 62.0723 88.3375 61.9042 90.9074C61.8006 92.5001 64.0162 92.5737 64.5101 91.2602C65.6479 88.2324 65.2382 84.7438 64.4531 81.6755Z" fill="black"/>
<path d="M143 141C141.4 125.8 142.333 73.6667 143 49.5C142.167 50 139.8 51.1 137 51.5C133.5 52 133 48 132.5 50C132.1 51.6 133.333 76 134 88C130 93 134 139.5 135.5 145.5C136.7 150.3 136 164.167 135.5 170.5L145.5 169.5C145.333 166.333 144.6 156.2 143 141Z" fill="#F8F9FA" stroke="black"/>
</svg>
