<svg width="123" height="118" viewBox="0 0 123 118" fill="none" xmlns="http://www.w3.org/2000/svg">
<path d="M62.5007 90.273C65.3559 90.7 68.2096 91.1324 71.0667 91.5524C71.6587 91.6388 72.2603 91.6539 72.849 91.7527C76.0597 92.2846 76.2209 92.491 76.5158 95.72C76.7941 98.7984 77.0586 101.879 77.4528 104.943C77.6411 106.415 77.9473 107.916 78.4878 109.293C79.6446 112.246 82.2824 112.613 84.2747 110.116C85.0723 109.117 85.6524 107.93 86.2483 106.783C88.0448 103.338 89.8515 99.8972 91.5457 96.4018C92.4112 94.6172 93.6636 93.954 95.6093 94.1754C99.0732 94.57 102.553 94.8416 106.026 95.1648C109.19 95.46 110.731 93.3723 109.39 90.4838C108.891 89.4122 108.164 88.4257 107.432 87.4871C105.593 85.1276 103.766 82.747 101.785 80.5111C100.344 78.8853 100.082 77.298 100.955 75.3295C102.488 71.8687 103.923 68.3645 105.344 64.8547C105.791 63.7536 106.231 62.5994 106.369 61.4326C106.694 58.6869 104.684 57.0697 102.03 57.8757C101.184 58.1351 100.383 58.5869 99.61 59.0348C96.9329 60.5865 94.2783 62.1746 91.6158 63.7491C87.9756 65.9047 87.986 65.8942 85.1359 62.947C83.3326 61.0815 81.5315 59.2148 79.6544 57.4264C78.2852 56.1234 76.8347 54.5993 74.6963 55.8054C72.7205 56.9222 72.7562 58.9008 72.9768 60.8339C73.3497 64.1047 73.7071 67.3771 74.1987 70.6303C74.5113 72.702 73.8128 73.9978 71.9592 74.9916C68.0926 77.0637 64.3058 79.2845 60.51 81.482C59.7408 81.9291 58.9875 82.4658 58.3683 83.0974C56.1561 85.3584 56.7252 88.1311 59.645 89.316C60.5633 89.6874 61.566 89.8497 62.5297 90.1079C62.519 90.162 62.5096 90.2184 62.5007 90.273Z" fill="#FCD800"/>
<path d="M60.8904 66.5853C60.6958 64.7465 59.4569 64.0272 58.2575 63.3659C50.2252 58.9466 42.3082 54.2885 34.094 50.2363C23.0944 44.8092 11.6535 40.3632 -0.0208578 36.5686C-8.9338 33.6716 -17.8626 30.8196 -26.831 28.1013C-34.9448 25.6443 -43.1173 23.371 -51.2829 21.0862C-52.502 20.7463 -53.8516 20.5821 -55.1035 20.7118C-56.8046 20.8883 -57.3844 22.4855 -56.249 23.7751C-55.6217 24.4882 -54.7166 25.0858 -53.8199 25.4096C-50.5397 26.5961 -47.235 27.7265 -43.8944 28.7299C-34.7205 31.4823 -25.4728 33.9944 -16.3478 36.9008C5.90645 43.9898 27.6561 52.3524 48.4241 63.1386C51.1576 64.5584 54.0721 65.6355 56.9261 66.818C58.1566 67.3281 59.4292 67.39 60.8904 66.5853Z" fill="#26224D"/>
<path d="M-6.07202 12.0131C-6.708 11.8427 -6.89838 11.7879 -7.09243 11.7397C-9.08924 11.2483 -10.2888 11.5516 -10.7833 12.6742C-11.2593 13.7561 -10.7741 15.0348 -8.97876 16.0513C-4.81867 18.404 -0.599596 20.6642 3.67251 22.8115C21.3128 31.6793 38.5094 41.3453 55.5004 51.3892C56.7871 52.1497 58.0898 52.8861 59.4122 53.5842C61.5041 54.6915 62.6658 54.7636 63.1475 53.7382C63.9383 52.0552 62.6204 51.1135 61.589 50.2504C59.5275 48.5265 57.4843 46.7201 55.2015 45.3262C47.8036 40.8072 40.427 36.2294 32.8134 32.097C20.8204 25.5873 8.642 19.4152 -3.46717 13.1193C-4.4352 12.615 -5.47961 12.2611 -6.07202 12.0131Z" fill="#26224D"/>
<path d="M-20.0581 44.9908C-20.1555 44.9646 -20.2502 44.9355 -20.3486 44.9129C-22.2567 44.4871 -23.5924 44.845 -24.0699 45.9114C-24.5946 47.0828 -23.915 48.4155 -22.0438 49.4466C-20.3005 50.4093 -18.5194 51.3442 -16.6646 52.0538C-10.4243 54.4379 -4.10118 56.6049 2.10982 59.0628C10.1699 62.2517 18.1879 65.5621 26.1594 68.9683C32.7629 71.7896 39.2854 74.7999 46.276 76.5876C47.2408 76.8347 48.2164 77.1265 49.1986 77.1809C49.6907 77.2083 50.4675 76.8601 50.6467 76.4676C50.8255 76.0694 50.5968 75.2296 50.2482 74.9007C49.4652 74.1593 48.5666 73.4666 47.5932 73.0178C41.9815 70.4281 36.3549 67.8723 30.695 65.3912C22.2084 61.6685 13.7553 57.8561 5.16616 54.3812C-2.87152 51.13 -11.067 48.2695 -19.1965 45.2406C-19.4764 45.1371 -19.7731 45.0823 -20.0619 45.0049C-20.0605 44.9996 -20.0595 44.9961 -20.0581 44.9908Z" fill="#26224D"/>
</svg>
