<svg width="64" height="60" viewBox="0 0 64 60" fill="none" xmlns="http://www.w3.org/2000/svg">
<path d="M62.9549 21.2366C63.8386 16.5253 62.563 11.8577 59.3644 8.09492C56.4164 4.62639 52.1154 2.71597 47.2527 2.71597C43.3175 2.71597 39.3495 3.9394 36.0122 6.04911C32.6059 2.05673 26.9503 0 21.5175 0C18.5317 0 15.6854 0.600372 13.2873 1.73637C7.26337 4.58939 2.43687 10.4257 0.691255 16.9684C-0.767627 22.4407 0.0992856 27.86 3.13477 32.2291C4.93924 34.8257 8.05042 37.0253 11.4517 38.3161C10.7866 42.3824 11.5795 46.3605 13.8136 49.8702C17.7303 56.0228 25.6419 59.9992 33.9698 60H33.9714C36.0694 60 38.1076 59.7368 40.0289 59.2189C47.6261 57.1697 53.692 52.0043 56.2541 45.4011C57.9618 40.9984 57.8551 36.3897 56.1641 32.6487C59.6898 29.5224 62.167 25.4426 62.9549 21.2366Z" fill="#FCD800"/>
<path d="M55.7245 11.1875C50.1547 4.6347 38.968 7.57013 34.376 13.9682C33.6571 5.59412 21.9785 2.90423 15.3307 6.05238C7.1458 9.92872 1.3624 21.308 7.05583 29.5038C9.02259 32.335 13.7566 34.776 17.7372 34.7735C17.6077 34.8517 17.4925 34.9719 17.4084 35.1518C11.1172 48.6198 27.196 57.7338 38.7838 54.6075C44.3755 53.099 49.6594 49.1907 51.7994 43.6739C53.4054 39.5344 52.9446 34.3631 49.4719 31.5412C56.6309 27.6724 61.9056 18.4592 55.7245 11.1875ZM47.1419 30.6163C46.4969 30.8896 46.5751 31.9204 47.1419 32.2181C51.8196 34.6768 51.4462 40.8326 49.1431 44.8368C46.8409 48.8384 42.682 51.5998 38.2818 52.7854C28.4867 55.4231 13.4354 48.1153 19.0456 36.1096C19.3281 35.505 18.9598 34.9441 18.4864 34.7432C21.2789 34.5111 23.5643 32.9396 24.0176 29.2532C24.4153 26.0202 21.8515 22.7173 18.4797 22.6492C16.1438 22.6021 14.077 24.6 16.0547 26.6214C16.3649 26.9384 16.9678 26.5079 16.6878 26.1328C17.0704 25.6889 17.4337 25.3256 17.7801 25.038C18.9564 24.6941 20.3489 25.0708 21.1973 26.0193C21.9322 26.84 22.1904 27.8053 22.2375 28.8093C22.1399 29.0094 22.0247 29.2137 21.8742 29.4248C21.1368 32.0566 19.5904 33.0783 16.8636 33.1052C14.2636 33.1304 11.6654 31.9061 9.84496 30.0815C5.56333 25.7923 5.84333 19.0587 8.88134 14.1364C11.6503 9.64957 16.6895 6.00278 22.1576 6.13984C28.4077 6.29624 31.8905 10.5711 33.2787 16.1956C33.436 16.8338 34.2735 16.6186 34.3416 16.0518C34.3584 15.908 34.3626 15.771 34.3744 15.6297C38.714 9.50578 50.6735 5.8018 55.22 13.5208C59.4562 20.7118 53.6274 27.8684 47.1419 30.6163Z" fill="#1D1D1B"/>
</svg>
