<svg width="98" height="67" viewBox="0 0 98 67" fill="none" xmlns="http://www.w3.org/2000/svg">
<mask id="mask0_273_3455" style="mask-type:luminance" maskUnits="userSpaceOnUse" x="0" y="12" width="98" height="55">
<path d="M0 12.6555H97.5223V67H0V12.6555Z" fill="white"/>
</mask>
<g mask="url(#mask0_273_3455)">
<mask id="mask1_273_3455" style="mask-type:luminance" maskUnits="userSpaceOnUse" x="-6" y="-4" width="113" height="71">
<path d="M97.153 66.8023L-5.49609 47.7172L3.99558 -3.33252L106.645 15.7526L97.153 66.8023Z" fill="white"/>
</mask>
<g mask="url(#mask1_273_3455)">
<mask id="mask2_273_3455" style="mask-type:luminance" maskUnits="userSpaceOnUse" x="-6" y="-4" width="113" height="71">
<path d="M106.652 15.6945L4.00339 -3.39062L-5.48828 47.6591L97.1608 66.7442L106.652 15.6945Z" fill="white"/>
</mask>
<g mask="url(#mask2_273_3455)">
<path d="M40.0016 25.4335C36.7475 28.6003 34.6741 32.4591 33.7843 37.0102C33.4208 42.4568 34.8283 45.423 38.0067 45.9057C38.091 45.9173 38.1754 45.9289 38.2597 45.9377C42.5112 45.737 44.6631 43.4455 44.7154 39.0632C44.5322 33.2327 42.9619 28.6875 40.0016 25.4335ZM63.4051 17.2504C67.1942 17.8262 70.6605 18.9603 73.804 20.6498C81.3561 24.4389 87.7885 31.232 93.0927 41.0232C97.5419 48.834 98.5975 57.0316 96.2595 65.6218C96.1141 66.154 95.5907 66.4855 95.0556 66.4041C95.0149 66.3983 94.9742 66.3896 94.9335 66.3779C94.3577 66.2209 94.0174 65.6277 94.1745 65.0519C96.3584 57.0316 95.3697 49.372 91.2083 42.0759C91.2025 42.0671 91.1996 42.0613 91.1967 42.0555C86.1019 32.654 79.9777 26.1604 72.8211 22.5749C72.8124 22.5691 72.8008 22.5633 72.792 22.5604C69.8666 20.9842 66.6271 19.9257 63.0794 19.3848C60.8751 19.0504 58.5516 18.9166 56.1089 18.9806C56.106 18.9806 56.1031 18.9806 56.1002 18.9806C50.7146 19.0795 46.1752 20.5277 42.4792 23.3252L42.4734 23.3281C42.1826 23.5462 41.8976 23.7701 41.6184 23.9969C44.9248 27.6348 46.6783 32.6394 46.8761 39.0138C46.8761 39.0283 46.8761 39.0428 46.8761 39.0574C46.8179 44.8501 43.9506 47.8657 38.2742 48.0983C38.2248 48.1012 38.1754 48.1012 38.1259 48.0954C37.9514 48.078 37.7799 48.0576 37.6112 48.0314C33.1533 47.3539 31.1613 43.6084 31.6324 36.795C31.6353 36.7513 31.6411 36.7077 31.6498 36.6641C32.6153 31.6595 34.8777 27.4167 38.4371 23.9387C38.3411 23.8573 38.2422 23.7788 38.1405 23.6974C38.1172 23.6799 38.0968 23.6625 38.0736 23.6421C34.2728 20.1031 28.1312 17.3696 19.6515 15.4416C19.2705 15.3573 18.8779 15.2846 18.4766 15.2235C14.167 14.5692 8.65927 15.2991 1.95345 17.4161C1.79061 17.4685 1.62485 17.4772 1.46782 17.4539C1.07233 17.3958 0.726283 17.1166 0.598332 16.7124C0.420944 16.1424 0.735007 15.5347 1.30497 15.3573C8.32776 13.1385 14.1641 12.3824 18.8111 13.089C19.2589 13.1588 19.6951 13.2403 20.1226 13.3362H20.1255C28.9658 15.3427 35.4273 18.242 39.5159 22.0311C39.702 22.1794 39.8823 22.3277 40.0597 22.4818C40.4203 22.1823 40.7925 21.8886 41.1764 21.6007C45.2418 18.5241 50.2028 16.9305 56.0537 16.82C58.6243 16.7531 61.0758 16.8956 63.4051 17.2504Z" fill="#303030"/>
</g>
</g>
</g>
<mask id="mask3_273_3455" style="mask-type:luminance" maskUnits="userSpaceOnUse" x="0" y="0" width="26" height="30">
<path d="M0 0H25.3111V29.7778H0V0Z" fill="white"/>
</mask>
<g mask="url(#mask3_273_3455)">
<mask id="mask4_273_3455" style="mask-type:luminance" maskUnits="userSpaceOnUse" x="-6" y="-4" width="113" height="71">
<path d="M97.153 66.8023L-5.49609 47.7172L3.99558 -3.33252L106.645 15.7526L97.153 66.8023Z" fill="white"/>
</mask>
<g mask="url(#mask4_273_3455)">
<mask id="mask5_273_3455" style="mask-type:luminance" maskUnits="userSpaceOnUse" x="-6" y="-4" width="113" height="71">
<path d="M106.652 15.6945L4.00339 -3.39062L-5.48828 47.6591L97.1608 66.7442L106.652 15.6945Z" fill="white"/>
</mask>
<g mask="url(#mask5_273_3455)">
<path d="M12.282 9.48025C12.2325 9.75942 12.0959 10.0153 11.8923 10.2131C12.1017 10.027 12.2325 9.78268 12.282 9.48025ZM23.4981 0.253208C23.879 0.311368 24.2338 0.529467 24.449 0.884241C24.8387 1.52109 24.6351 2.35277 23.9982 2.74245C16.5305 7.29345 12.4855 9.79432 11.8603 10.2421C11.8196 10.28 11.776 10.3148 11.7265 10.3497L3.76156 15.9331C9.30709 19.3994 14.7479 22.9588 20.0899 26.6141C20.7064 27.0358 20.8634 27.8762 20.4418 28.4898C20.1393 28.9318 19.6217 29.1383 19.1245 29.0626C18.9296 29.0336 18.7377 28.9609 18.5661 28.8416C13.0729 25.0874 7.47215 21.4292 1.76377 17.8698C1.74342 17.8553 1.72306 17.8436 1.70271 17.8291C1.42936 17.6372 1.20544 17.4423 1.03387 17.2504C0.591854 16.7531 0.426099 16.2268 0.533695 15.6743C0.58313 15.3108 0.751793 14.9705 1.03968 14.6477C1.20253 14.4675 1.41481 14.2842 1.67363 14.0981C1.67653 14.0952 1.68235 14.0894 1.68526 14.0865L10.0923 8.19492H10.0952C10.1242 8.16875 10.1562 8.14258 10.1911 8.11641C10.7378 7.70347 14.873 5.14153 22.5937 0.436411C22.8758 0.26484 23.1956 0.20668 23.4981 0.253208Z" fill="#303030"/>
</g>
</g>
</g>
</svg>
