<svg width="21" height="94" viewBox="0 0 21 94" fill="none" xmlns="http://www.w3.org/2000/svg">
<mask id="mask0_273_3438" style="mask-type:luminance" maskUnits="userSpaceOnUse" x="0" y="0" width="21" height="94">
<path d="M0 0H20.1983V94H0V0Z" fill="white"/>
</mask>
<g mask="url(#mask0_273_3438)">
<mask id="mask1_273_3438" style="mask-type:luminance" maskUnits="userSpaceOnUse" x="-12" y="-1" width="44" height="96">
<path d="M2.92155 -0.91626L31.11 3.60834L16.5166 94.5039L-11.6719 89.9763L2.92155 -0.91626Z" fill="white"/>
</mask>
<g mask="url(#mask1_273_3438)">
<mask id="mask2_273_3438" style="mask-type:luminance" maskUnits="userSpaceOnUse" x="-12" y="-1" width="44" height="96">
<path d="M2.92155 -0.91626L31.11 3.60834L16.5166 94.5039L-11.6719 89.9763L2.92155 -0.91626Z" fill="white"/>
</mask>
<g mask="url(#mask2_273_3438)">
<mask id="mask3_273_3438" style="mask-type:luminance" maskUnits="userSpaceOnUse" x="-12" y="-1" width="44" height="96">
<path d="M2.92155 -0.91626L31.11 3.60834L16.5166 94.5039L-11.6719 89.9763L2.92155 -0.91626Z" fill="white"/>
</mask>
<g mask="url(#mask3_273_3438)">
<path d="M16.3744 92.7986C15.2516 69.0346 14.1258 45.2736 12.9908 21.5096C12.83 18.1412 12.6722 14.7697 12.4992 11.4013C12.3536 8.59124 12.3232 5.70836 11.9985 2.89832C14.7357 4.61591 16.8509 6.89793 18.3469 9.74743C18.8992 10.7519 20.55 10.2148 20.0736 9.08285C19.2361 7.22567 18.0981 5.56877 16.6597 4.1152C15.2182 2.66162 13.5704 1.5024 11.7102 0.634501C11.601 0.588981 11.4857 0.56167 11.3643 0.558636C11.2429 0.555601 11.1276 0.576843 11.0153 0.616293C10.9 0.658777 10.7999 0.71947 10.7118 0.801404C10.6208 0.880304 10.551 0.974377 10.4994 1.08059C7.17956 6.88883 3.64425 12.5939 0.221209 18.3445C-0.0822521 18.8543 0.791715 19.4005 1.11642 18.8998C4.28758 13.9989 7.40716 9.04643 10.6329 4.17589C10.6512 6.13624 10.7786 8.10874 10.8545 10.0539C10.9698 13.0036 11.0942 15.9562 11.2247 18.9059L11.9955 36.8647C12.5083 48.8332 13.0303 60.8047 13.5583 72.7732C13.8557 79.5191 14.1531 86.262 14.4444 93.0049C14.499 94.243 16.4351 94.0336 16.3744 92.7986Z" fill="black"/>
</g>
</g>
</g>
</g>
</svg>
