<svg width="369" height="244" viewBox="0 0 369 244" fill="none" xmlns="http://www.w3.org/2000/svg">
<path d="M182.956 203.423C182.595 203.375 181.913 203.274 182.356 203.274C188.108 203.274 195.075 201.201 200.693 202.455C202.527 202.858 202.742 205.962 202.883 207.38C202.954 208.089 203.984 212.031 203.432 212.583C202.398 213.618 195.274 212.779 193.852 212.858C187.148 213.23 179.347 215.984 179.347 207.38C179.347 206.059 179.229 205.248 180.44 204.645" stroke="black" stroke-width="4.48686" stroke-miterlimit="1.5" stroke-linecap="round" stroke-linejoin="round"/>
<path d="M174.11 214.977C173.279 215.094 175.775 214.82 176.61 214.773C180.058 214.593 183.306 214.483 186.738 213.954C191.812 213.17 196.216 213.174 201.243 213.68C207.587 214.315 212.077 211.932 211.094 220.799C209.946 231.128 174.772 233.079 170.591 220.525C169.439 217.073 171.927 216.16 174.694 214.773" stroke="black" stroke-width="4.48686" stroke-miterlimit="1.5" stroke-linecap="round" stroke-linejoin="round"/>
<mask id="mask0_1711_3298" style="mask-type:luminance" maskUnits="userSpaceOnUse" x="180" y="224" width="29" height="20">
<path d="M180.104 224.795H208.189V243.387H180.104V224.795Z" fill="white"/>
</mask>
<g mask="url(#mask0_1711_3298)">
<path d="M182.849 229.16C182.5 228.055 183.182 238.634 183.801 241.106C183.918 241.58 183.899 241.671 184.345 241.671C200.281 241.671 205.892 243.136 205.892 227.095" stroke="black" stroke-width="4.48686" stroke-miterlimit="1.5" stroke-linecap="round" stroke-linejoin="round"/>
</g>
<path d="M180.447 209.746C180.318 201.999 165.793 190.46 165.793 174.815C165.793 165.999 172.81 157.261 179.993 152.951C185.172 149.84 191.363 148.382 197.135 146.862C216.867 141.667 224.93 147.054 226.415 167.127C227.117 176.582 225.655 184.489 220.946 192.866C217.999 198.105 213.779 200.585 209.724 204.644C208.298 206.07 205.081 209.025 202.883 209.025" stroke="black" stroke-width="4.48686" stroke-miterlimit="1.5" stroke-linecap="round" stroke-linejoin="round"/>
<path d="M185.636 201.132C184.79 200.968 185.887 198.723 185.915 198.617C187.243 193.641 188.085 186.165 186.44 181.224C184.579 175.644 176.025 181.627 181.808 183.281C185.832 184.433 190.229 184.695 194.398 184.378C201.149 183.865 213.373 172.087 203.178 168.686C191.804 164.893 191.984 197.618 194.946 203.546" stroke="black" stroke-width="4.48686" stroke-miterlimit="1.5" stroke-linecap="round" stroke-linejoin="round"/>
<mask id="mask1_1711_3298" style="mask-type:luminance" maskUnits="userSpaceOnUse" x="194" y="117" width="7" height="22">
<path d="M194.148 117H200.167V138.531H194.148V117Z" fill="white"/>
</mask>
<g mask="url(#mask1_1711_3298)">
<path d="M198.149 119.094C197.005 118.118 196.59 133.72 196.59 136.73" stroke="black" stroke-width="4.48686" stroke-miterlimit="1.5" stroke-linecap="round" stroke-linejoin="round"/>
</g>
<mask id="mask2_1711_3298" style="mask-type:luminance" maskUnits="userSpaceOnUse" x="233" y="157" width="25" height="16">
<path d="M233.264 157.588H257.11V172.634H233.264V157.588Z" fill="white"/>
</mask>
<g mask="url(#mask2_1711_3298)">
<path d="M235.576 170.488C234.306 170.856 237.848 169.132 239.004 168.494C244.321 165.571 249.759 162.432 255.151 159.732" stroke="black" stroke-width="4.48686" stroke-miterlimit="1.5" stroke-linecap="round" stroke-linejoin="round"/>
</g>
<path d="M123.622 162.311C120.671 159.329 129.174 164.074 129.264 164.113C137.68 167.765 145.971 171.24 154.168 175.339" stroke="black" stroke-width="4.48686" stroke-miterlimit="1.5" stroke-linecap="round" stroke-linejoin="round"/>
<path d="M167.182 144.428C168.945 146.363 170.653 148.295 172.506 150.148" stroke="black" stroke-width="4.48686" stroke-miterlimit="1.5" stroke-linecap="round" stroke-linejoin="round"/>
<path d="M238.629 138.284C239.859 136.148 236.305 142.645 234.902 144.67" stroke="black" stroke-width="4.48686" stroke-miterlimit="1.5" stroke-linecap="round" stroke-linejoin="round"/>
<path d="M137.912 207.167C139.374 202.783 158.808 201.631 163.2 201.082" stroke="black" stroke-width="4.48686" stroke-miterlimit="1.5" stroke-linecap="round" stroke-linejoin="round"/>
<path d="M235.145 193.426C235.799 192.815 235.795 193.355 236.543 194.237C242.001 200.694 247.244 207.136 253.235 213.131" stroke="black" stroke-width="4.48686" stroke-miterlimit="1.5" stroke-linecap="round" stroke-linejoin="round"/>
<mask id="mask3_1711_3298" style="mask-type:luminance" maskUnits="userSpaceOnUse" x="179" y="0" width="16" height="73">
<path d="M179 0H194.686V73H179V0Z" fill="white"/>
</mask>
<g mask="url(#mask3_1711_3298)">
<mask id="mask4_1711_3298" style="mask-type:luminance" maskUnits="userSpaceOnUse" x="169" y="-1" width="35" height="75">
<path d="M181.271 -0.712891L203.162 2.80089L191.829 73.39L169.938 69.8739L181.271 -0.712891Z" fill="white"/>
</mask>
<g mask="url(#mask4_1711_3298)">
<mask id="mask5_1711_3298" style="mask-type:luminance" maskUnits="userSpaceOnUse" x="169" y="-1" width="35" height="75">
<path d="M181.271 -0.713867L203.162 2.79992L191.829 73.3891L169.938 69.8729L181.271 -0.713867Z" fill="white"/>
</mask>
<g mask="url(#mask5_1711_3298)">
<mask id="mask6_1711_3298" style="mask-type:luminance" maskUnits="userSpaceOnUse" x="169" y="-1" width="35" height="75">
<path d="M181.271 -0.714844L203.162 2.79894L191.829 73.3881L169.938 69.8719L181.271 -0.714844Z" fill="white"/>
</mask>
<g mask="url(#mask6_1711_3298)">
<path d="M191.718 72.064C190.846 53.609 189.972 35.1563 189.091 16.7013C188.966 14.0854 188.843 11.4671 188.709 8.85124C188.596 6.66897 188.572 4.43014 188.32 2.24787C190.446 3.58174 192.088 5.35396 193.25 7.56686C193.679 8.34692 194.961 7.92979 194.591 7.05075C193.941 5.60848 193.057 4.32174 191.94 3.1929C190.821 2.06405 189.541 1.16381 188.096 0.489803C188.011 0.454453 187.922 0.433243 187.828 0.430886C187.733 0.42853 187.644 0.445026 187.557 0.475663C187.467 0.508656 187.389 0.555789 187.321 0.619419C187.25 0.680692 187.196 0.753749 187.156 0.836232C184.578 5.34689 181.832 9.77741 179.174 14.2433C178.938 14.6392 179.617 15.0634 179.869 14.6746C182.332 10.8685 184.755 7.02247 187.26 3.24003C187.274 4.76243 187.373 6.29426 187.432 7.80488C187.521 10.0956 187.618 12.3886 187.719 14.6793L188.318 28.626C188.716 37.9207 189.121 47.2177 189.531 56.5124C189.762 61.7513 189.993 66.9878 190.22 72.2243C190.262 73.1858 191.766 73.0232 191.718 72.064Z" fill="black"/>
</g>
</g>
</g>
</g>
<mask id="mask7_1711_3298" style="mask-type:luminance" maskUnits="userSpaceOnUse" x="0" y="126" width="75" height="43">
<path d="M0 126.634H74.2334V168H0V126.634Z" fill="white"/>
</mask>
<g mask="url(#mask7_1711_3298)">
<mask id="mask8_1711_3298" style="mask-type:luminance" maskUnits="userSpaceOnUse" x="-5" y="114" width="87" height="54">
<path d="M73.9523 167.849L-4.18359 153.322L3.04141 114.463L81.1773 128.99L73.9523 167.849Z" fill="white"/>
</mask>
<g mask="url(#mask8_1711_3298)">
<mask id="mask9_1711_3298" style="mask-type:luminance" maskUnits="userSpaceOnUse" x="-5" y="114" width="87" height="54">
<path d="M81.1832 128.946L3.04727 114.419L-4.17773 153.278L73.9582 167.805L81.1832 128.946Z" fill="white"/>
</mask>
<g mask="url(#mask9_1711_3298)">
<path d="M30.4492 136.359C27.9722 138.77 26.394 141.707 25.7166 145.171C25.4399 149.317 26.5113 151.575 28.9307 151.942C28.9949 151.951 29.0591 151.96 29.1233 151.967C32.3595 151.814 33.9975 150.07 34.0373 146.734C33.8979 142.296 32.7026 138.836 30.4492 136.359ZM48.2638 130.13C51.148 130.568 53.7866 131.432 56.1794 132.718C61.928 135.602 66.8243 140.773 70.8618 148.226C74.2486 154.171 75.0521 160.411 73.2724 166.95C73.1617 167.355 72.7633 167.608 72.356 167.546C72.325 167.541 72.294 167.535 72.263 167.526C71.8247 167.406 71.5658 166.955 71.6853 166.516C73.3477 160.411 72.595 154.581 69.4275 149.027C69.423 149.02 69.4208 149.016 69.4186 149.012C65.5405 141.855 60.8788 136.912 55.4312 134.183C55.4246 134.179 55.4157 134.174 55.4091 134.172C53.1823 132.972 50.7164 132.167 48.0159 131.755C46.338 131.5 44.5694 131.398 42.71 131.447C42.7078 131.447 42.7056 131.447 42.7034 131.447C38.6039 131.522 35.1485 132.625 32.3351 134.754L32.3307 134.756C32.1093 134.922 31.8924 135.093 31.6799 135.265C34.1967 138.035 35.5315 141.844 35.682 146.696C35.682 146.707 35.682 146.718 35.682 146.729C35.6377 151.139 33.4552 153.434 29.1343 153.611C29.0967 153.614 29.0591 153.614 29.0214 153.609C28.8886 153.596 28.758 153.58 28.6296 153.56C25.2363 153.045 23.72 150.194 24.0786 145.007C24.0808 144.974 24.0852 144.941 24.0919 144.908C24.8268 141.098 26.5489 137.869 29.2583 135.221C29.1852 135.159 29.11 135.099 29.0325 135.037C29.0148 135.024 28.9993 135.011 28.9816 134.995C26.0885 132.302 21.4135 130.221 14.9588 128.753C14.6688 128.689 14.37 128.634 14.0645 128.587C10.784 128.089 6.59159 128.645 1.48716 130.256C1.3632 130.296 1.23703 130.303 1.1175 130.285C0.816458 130.241 0.553046 130.028 0.455651 129.721C0.320624 129.287 0.559687 128.824 0.993542 128.689C6.33925 127 10.7818 126.425 14.3191 126.962C14.66 127.016 14.992 127.078 15.3174 127.151H15.3196C22.0488 128.678 26.9673 130.885 30.0795 133.769C30.2212 133.882 30.3584 133.995 30.4934 134.112C30.7679 133.884 31.0513 133.661 31.3434 133.442C34.438 131.1 38.2143 129.887 42.6679 129.802C44.6247 129.752 46.4907 129.86 48.2638 130.13Z" fill="#303030"/>
</g>
</g>
</g>
<mask id="mask10_1711_3298" style="mask-type:luminance" maskUnits="userSpaceOnUse" x="0" y="117" width="20" height="23">
<path d="M0 117H19.2667V139.667H0V117Z" fill="white"/>
</mask>
<g mask="url(#mask10_1711_3298)">
<mask id="mask11_1711_3298" style="mask-type:luminance" maskUnits="userSpaceOnUse" x="-5" y="114" width="87" height="54">
<path d="M73.9523 167.849L-4.18359 153.322L3.04141 114.463L81.1773 128.99L73.9523 167.849Z" fill="white"/>
</mask>
<g mask="url(#mask11_1711_3298)">
<mask id="mask12_1711_3298" style="mask-type:luminance" maskUnits="userSpaceOnUse" x="-5" y="114" width="87" height="54">
<path d="M81.1832 128.947L3.04727 114.419L-4.17773 153.278L73.9582 167.805L81.1832 128.947Z" fill="white"/>
</mask>
<g mask="url(#mask12_1711_3298)">
<path d="M9.34969 124.216C9.31206 124.429 9.20802 124.624 9.05308 124.774C9.21245 124.632 9.31206 124.446 9.34969 124.216ZM17.8873 117.193C18.1773 117.237 18.4474 117.403 18.6112 117.673C18.9078 118.158 18.7528 118.791 18.2681 119.087C12.5837 122.552 9.50464 124.455 9.02873 124.796C8.99774 124.825 8.96453 124.852 8.9269 124.878L2.86401 129.128C7.08524 131.767 11.2268 134.476 15.2931 137.258C15.7623 137.579 15.8819 138.219 15.5609 138.686C15.3307 139.023 14.9367 139.18 14.5582 139.122C14.4099 139.1 14.2638 139.045 14.1332 138.954C9.95178 136.096 5.68849 133.312 1.3433 130.602C1.32781 130.591 1.31231 130.582 1.29682 130.571C1.08875 130.425 0.918303 130.277 0.787703 130.131C0.451245 129.752 0.325073 129.352 0.406974 128.931C0.444604 128.654 0.57299 128.395 0.792131 128.15C0.916089 128.012 1.07768 127.873 1.27468 127.731C1.2769 127.729 1.28132 127.725 1.28354 127.722L7.68289 123.238H7.68511C7.70724 123.218 7.73159 123.198 7.75815 123.178C8.1743 122.864 11.322 120.914 17.1989 117.332C17.4136 117.201 17.6571 117.157 17.8873 117.193Z" fill="#303030"/>
</g>
</g>
</g>
<mask id="mask13_1711_3298" style="mask-type:luminance" maskUnits="userSpaceOnUse" x="284" y="132" width="79" height="35">
<path d="M284 132H362.392V166.031H284V132Z" fill="white"/>
</mask>
<g mask="url(#mask13_1711_3298)">
<mask id="mask14_1711_3298" style="mask-type:luminance" maskUnits="userSpaceOnUse" x="283" y="113" width="86" height="71">
<path d="M283.314 149.151L351.146 113.632L368.904 147.548L301.073 183.067L283.314 149.151Z" fill="white"/>
</mask>
<g mask="url(#mask14_1711_3298)">
<mask id="mask15_1711_3298" style="mask-type:luminance" maskUnits="userSpaceOnUse" x="283" y="113" width="86" height="71">
<path d="M301.049 183.021L368.883 147.502L351.122 113.585L283.291 149.106L301.049 183.021Z" fill="white"/>
</mask>
<g mask="url(#mask15_1711_3298)">
<path d="M335.167 147.092C335.611 143.78 335.056 140.606 333.501 137.57C331.234 134.254 329.074 133.181 327.016 134.347C326.961 134.378 326.907 134.408 326.854 134.442H326.852C324.488 136.49 324.284 138.795 326.244 141.354C329.003 144.642 331.977 146.555 335.167 147.092ZM325.354 162.464C322.902 163.853 320.381 164.772 317.796 165.225C311.705 166.467 304.899 165.462 297.379 162.213C291.255 159.718 286.918 155.457 284.366 149.427C284.207 149.05 284.359 148.623 284.705 148.426C284.731 148.411 284.76 148.397 284.788 148.385C285.192 148.214 285.657 148.402 285.828 148.808C288.211 154.439 292.266 158.417 297.991 160.746C297.996 160.748 298.001 160.75 298.008 160.753C305.227 163.874 311.719 164.845 317.49 163.665C317.497 163.663 317.504 163.663 317.511 163.661C319.921 163.243 322.273 162.381 324.573 161.08C325.997 160.271 327.403 159.293 328.787 158.146C328.789 158.144 328.789 158.144 328.791 158.142C331.861 155.635 333.829 152.734 334.693 149.439L334.695 149.435C334.764 149.173 334.828 148.915 334.887 148.658C331.32 148.058 328.032 145.959 325.019 142.363C325.012 142.356 325.005 142.346 324.998 142.339C322.399 138.961 322.686 135.916 325.862 133.2C325.891 133.176 325.919 133.153 325.95 133.134C326.059 133.065 326.168 132.998 326.278 132.937C329.162 131.301 332.017 132.562 334.842 136.718C334.861 136.744 334.878 136.773 334.892 136.801C336.608 140.134 337.228 143.616 336.751 147.246C336.846 147.248 336.938 147.248 337.033 147.248C337.055 147.251 337.076 147.251 337.097 147.253C340.905 147.571 345.698 146.358 351.478 143.619C351.737 143.493 351.998 143.358 352.259 143.21C355.046 141.629 357.899 138.705 360.814 134.432C360.885 134.328 360.975 134.247 361.077 134.188C361.334 134.045 361.659 134.048 361.918 134.223C362.281 134.47 362.374 134.966 362.127 135.327C359.074 139.804 356.043 142.892 353.033 144.597C352.743 144.761 352.453 144.912 352.164 145.05L352.161 145.053C346.137 147.908 341.081 149.171 336.995 148.839C336.822 148.836 336.649 148.834 336.478 148.824C336.404 149.164 336.321 149.501 336.231 149.843C335.277 153.47 333.133 156.646 329.8 159.369C328.343 160.577 326.862 161.61 325.354 162.464Z" fill="#303030"/>
</g>
</g>
</g>
<mask id="mask16_1711_3298" style="mask-type:luminance" maskUnits="userSpaceOnUse" x="350" y="129" width="19" height="21">
<path d="M350 129H368.231V149.662H350V129Z" fill="white"/>
</mask>
<g mask="url(#mask16_1711_3298)">
<mask id="mask17_1711_3298" style="mask-type:luminance" maskUnits="userSpaceOnUse" x="288" y="108" width="87" height="71">
<path d="M288.547 144.328L356.378 108.809L374.136 142.725L306.305 178.244L288.547 144.328Z" fill="white"/>
</mask>
<g mask="url(#mask17_1711_3298)">
<mask id="mask18_1711_3298" style="mask-type:luminance" maskUnits="userSpaceOnUse" x="288" y="108" width="87" height="71">
<path d="M306.282 178.198L374.115 142.679L356.355 108.762L288.523 144.283L306.282 178.198Z" fill="white"/>
</mask>
<g mask="url(#mask18_1711_3298)">
<path d="M363.683 138.893C363.585 138.707 363.547 138.498 363.576 138.292C363.538 138.494 363.573 138.695 363.683 138.893ZM361.39 149.328C361.143 149.468 360.839 149.501 360.554 149.394C360.039 149.202 359.778 148.63 359.97 148.117C362.218 142.09 363.422 138.805 363.581 138.261C363.588 138.221 363.597 138.18 363.609 138.138L365.677 131.287V131.289C360.893 131.804 356.127 132.22 351.379 132.535C350.831 132.571 350.359 132.156 350.321 131.61C350.294 131.216 350.501 130.86 350.824 130.679C350.95 130.608 351.092 130.563 351.246 130.553C356.129 130.228 361.031 129.798 365.952 129.26C365.969 129.257 365.988 129.257 366.004 129.255C366.251 129.243 366.467 129.253 366.657 129.286C367.137 129.374 367.471 129.601 367.661 129.969C367.796 130.202 367.856 130.477 367.834 130.793C367.823 130.971 367.785 131.175 367.718 131.401C367.718 131.403 367.716 131.408 367.716 131.413L365.532 138.641C365.525 138.669 365.52 138.7 365.51 138.731C365.382 139.218 364.157 142.579 361.831 148.81C361.746 149.038 361.587 149.216 361.39 149.328Z" fill="#303030"/>
</g>
</g>
</g>
</svg>
