<svg width="134" height="123" viewBox="0 0 134 123" fill="none" xmlns="http://www.w3.org/2000/svg">
<path d="M61.349 84.1053C60.9982 84.0595 60.3347 83.9604 60.7656 83.9604C66.3634 83.9604 73.1433 81.9431 78.6115 83.1634C80.3961 83.5562 80.6058 86.5762 80.7431 87.9566C80.8117 88.6468 81.8146 92.483 81.2769 93.0206C80.2702 94.0273 73.3378 93.2113 71.9536 93.2876C65.4291 93.6498 57.837 96.3305 57.837 87.9566C57.837 86.6716 57.7226 85.8822 58.9009 85.295" stroke="black" stroke-width="4.48686" stroke-miterlimit="1.5" stroke-linecap="round" stroke-linejoin="round"/>
<path d="M52.7382 95.3505C51.9298 95.4649 54.3588 95.198 55.171 95.1522C58.5267 94.9768 61.6879 94.87 65.0282 94.3552C69.9664 93.5926 74.2524 93.5964 79.1448 94.0883C85.3184 94.7061 89.6884 92.3876 88.7313 101.017C87.614 111.069 53.3826 112.968 49.3139 100.75C48.1928 97.3906 50.6142 96.5021 53.3064 95.1522" stroke="black" stroke-width="4.48686" stroke-miterlimit="1.5" stroke-linecap="round" stroke-linejoin="round"/>
<mask id="mask0_273_3413" style="mask-type:luminance" maskUnits="userSpaceOnUse" x="58" y="104" width="28" height="19">
<path d="M58.5742 104.906H85.9075V123H58.5742V104.906Z" fill="white"/>
</mask>
<g mask="url(#mask0_273_3413)">
<path d="M61.2464 109.155C60.9071 108.079 61.5706 118.375 62.1731 120.781C62.2874 121.243 62.2684 121.33 62.7031 121.33C78.2115 121.33 83.672 122.756 83.672 107.145" stroke="black" stroke-width="4.48686" stroke-miterlimit="1.5" stroke-linecap="round" stroke-linejoin="round"/>
</g>
<path d="M58.908 90.26C58.7821 82.7212 44.6465 71.4912 44.6465 56.2649C44.6465 47.6851 51.476 39.1815 58.4656 34.987C63.5067 31.9593 69.5316 30.5407 75.1485 29.0612C94.3519 24.0048 102.2 29.248 103.645 48.7833C104.327 57.9847 102.905 65.6798 98.3215 73.8325C95.4539 78.9309 91.3471 81.3446 87.4004 85.2952C86.0124 86.6832 82.8817 89.5584 80.7425 89.5584" stroke="black" stroke-width="4.48686" stroke-miterlimit="1.5" stroke-linecap="round" stroke-linejoin="round"/>
<path d="M63.9575 81.8782C63.1338 81.7181 64.2015 79.5331 64.2282 79.4301C65.5209 74.5873 66.3407 67.3116 64.7392 62.5031C62.9279 57.073 54.6036 62.8959 60.2319 64.5051C64.1481 65.6262 68.4266 65.8817 72.4838 65.5728C79.054 65.0732 90.9513 53.6106 81.0293 50.3007C69.9595 46.6095 70.1349 78.4577 73.0177 84.2272" stroke="black" stroke-width="4.48686" stroke-miterlimit="1.5" stroke-linecap="round" stroke-linejoin="round"/>
<mask id="mask1_273_3413" style="mask-type:luminance" maskUnits="userSpaceOnUse" x="72" y="0" width="7" height="21">
<path d="M72.2402 0H78.0974V20.9537H72.2402V0Z" fill="white"/>
</mask>
<g mask="url(#mask1_273_3413)">
<path d="M76.1329 2.03631C75.0194 1.08682 74.6152 16.2712 74.6152 19.1998" stroke="black" stroke-width="4.48686" stroke-miterlimit="1.5" stroke-linecap="round" stroke-linejoin="round"/>
</g>
<mask id="mask2_273_3413" style="mask-type:luminance" maskUnits="userSpaceOnUse" x="110" y="39" width="24" height="16">
<path d="M110.311 39.5012H133.518V54.144H110.311V39.5012Z" fill="white"/>
</mask>
<g mask="url(#mask2_273_3413)">
<path d="M112.56 52.0548C111.325 52.4132 114.772 50.7354 115.897 50.1138C121.072 47.2691 126.364 44.2147 131.611 41.5874" stroke="black" stroke-width="4.48686" stroke-miterlimit="1.5" stroke-linecap="round" stroke-linejoin="round"/>
</g>
<path d="M3.60513 44.0966C0.733769 41.1947 9.00847 45.8126 9.09618 45.8507C17.287 49.4047 25.3558 52.787 33.333 56.7757" stroke="black" stroke-width="4.48686" stroke-miterlimit="1.5" stroke-linecap="round" stroke-linejoin="round"/>
<path d="M45.9961 26.6931C47.712 28.5769 49.3746 30.4568 51.1783 32.2605" stroke="black" stroke-width="4.48686" stroke-miterlimit="1.5" stroke-linecap="round" stroke-linejoin="round"/>
<path d="M115.531 20.714C116.728 18.6358 113.269 24.9582 111.904 26.9296" stroke="black" stroke-width="4.48686" stroke-miterlimit="1.5" stroke-linecap="round" stroke-linejoin="round"/>
<path d="M17.5117 87.7506C18.9341 83.4836 37.8477 82.3625 42.1223 81.8286" stroke="black" stroke-width="4.48686" stroke-miterlimit="1.5" stroke-linecap="round" stroke-linejoin="round"/>
<path d="M112.141 74.3776C112.777 73.7827 112.774 74.3089 113.502 75.1669C118.814 81.4512 123.916 87.7201 129.746 93.5544" stroke="black" stroke-width="4.48686" stroke-miterlimit="1.5" stroke-linecap="round" stroke-linejoin="round"/>
</svg>
