<svg width="110" height="48" viewBox="0 0 110 48" fill="none" xmlns="http://www.w3.org/2000/svg">
<mask id="mask0_273_3483" style="mask-type:luminance" maskUnits="userSpaceOnUse" x="0" y="0" width="110" height="48">
<path d="M0 0H109.804V47.6667H0V0Z" fill="white"/>
</mask>
<g mask="url(#mask0_273_3483)">
<mask id="mask1_273_3483" style="mask-type:luminance" maskUnits="userSpaceOnUse" x="-1" y="-26" width="120" height="98">
<path d="M-0.960938 24.0229L94.0499 -25.7285L118.924 21.7786L23.9131 71.53L-0.960938 24.0229Z" fill="white"/>
</mask>
<g mask="url(#mask1_273_3483)">
<mask id="mask2_273_3483" style="mask-type:luminance" maskUnits="userSpaceOnUse" x="-1" y="-26" width="120" height="98">
<path d="M23.8799 71.4668L118.894 21.7153L94.0167 -25.7917L-0.994141 23.963L23.8799 71.4668Z" fill="white"/>
</mask>
<g mask="url(#mask2_273_3483)">
<path d="M71.6698 21.1401C72.2915 16.5018 71.5135 12.0563 69.3356 7.80369C66.1603 3.15872 63.1346 1.65584 60.2518 3.28839C60.1754 3.33162 60.0989 3.37484 60.0257 3.42139H60.0224C56.7107 6.29083 56.4248 9.51937 59.1712 13.1037C63.0348 17.7088 67.201 20.3887 71.6698 21.1401ZM57.9244 42.6726C54.4897 44.6177 50.9586 45.9044 47.3377 46.5395C38.8058 48.2785 29.2732 46.872 18.7397 42.3201C10.1613 38.8256 4.08656 32.8573 0.512222 24.4119C0.28945 23.8832 0.502247 23.2847 0.987691 23.0087C1.02427 22.9888 1.06417 22.9688 1.10407 22.9522C1.66931 22.7128 2.321 22.9755 2.5604 23.5441C5.89866 31.4309 11.5777 37.0035 19.5975 40.2653C19.6042 40.2686 19.6108 40.272 19.6208 40.2753C29.732 44.6476 38.8258 46.0075 46.9088 44.355C46.9187 44.3517 46.9287 44.3517 46.9387 44.3484C50.3135 43.7632 53.6086 42.5562 56.8304 40.7341C58.8254 39.6003 60.7938 38.2304 62.7323 36.6245C62.7356 36.6211 62.7356 36.6211 62.7389 36.6178C67.0381 33.1067 69.7945 29.0436 71.0048 24.4285L71.0081 24.4219C71.1045 24.0561 71.1943 23.6937 71.2774 23.3346C66.28 22.4934 61.6749 19.5541 57.4555 14.5168C57.4456 14.5068 57.4356 14.4935 57.4256 14.4835C53.7848 9.75212 54.1871 5.48619 58.6359 1.68244C58.6758 1.64919 58.7157 1.61594 58.7589 1.58934C58.9119 1.49291 59.0648 1.39981 59.2178 1.31336C63.2576 -0.977536 67.2575 0.78802 71.2142 6.61003C71.2408 6.64661 71.2641 6.6865 71.2841 6.7264C73.688 11.3947 74.5558 16.2724 73.8875 21.3562C74.0205 21.3596 74.1502 21.3596 74.2832 21.3596C74.3131 21.3629 74.343 21.3629 74.3729 21.3662C79.7062 21.8118 86.4193 20.1127 94.5156 16.2757C94.878 16.0995 95.2437 15.91 95.6095 15.7038C99.513 13.4894 103.51 9.39302 107.593 3.40809C107.692 3.26179 107.819 3.14874 107.962 3.06562C108.321 2.86612 108.776 2.86945 109.139 3.11549C109.647 3.46129 109.777 4.15621 109.431 4.6616C105.155 10.9325 100.909 15.2583 96.6934 17.6456C96.2878 17.875 95.8821 18.0878 95.4765 18.2807L95.4732 18.284C87.0344 22.2839 79.9522 24.0528 74.23 23.5873C73.9873 23.584 73.7445 23.5806 73.5051 23.5673C73.4021 24.0428 73.2857 24.515 73.1593 24.9938C71.8227 30.0743 68.8203 34.5231 64.152 38.3368C62.1105 40.0292 60.0357 41.4756 57.9244 42.6726Z" fill="#303030"/>
</g>
</g>
</g>
</svg>
