<svg width="98" height="55" viewBox="0 0 98 55" fill="none" xmlns="http://www.w3.org/2000/svg">
<mask id="mask0_273_3456" style="mask-type:luminance" maskUnits="userSpaceOnUse" x="0" y="0" width="98" height="55">
<path d="M0 0.655518H97.5223V55H0V0.655518Z" fill="white"/>
</mask>
<g mask="url(#mask0_273_3456)">
<mask id="mask1_273_3456" style="mask-type:luminance" maskUnits="userSpaceOnUse" x="-6" y="-16" width="113" height="71">
<path d="M97.153 54.8023L-5.49609 35.7172L3.99558 -15.3325L106.645 3.7526L97.153 54.8023Z" fill="white"/>
</mask>
<g mask="url(#mask1_273_3456)">
<mask id="mask2_273_3456" style="mask-type:luminance" maskUnits="userSpaceOnUse" x="-6" y="-16" width="113" height="71">
<path d="M106.652 3.6945L4.00339 -15.3906L-5.48828 35.6591L97.1608 54.7442L106.652 3.6945Z" fill="white"/>
</mask>
<g mask="url(#mask2_273_3456)">
<path d="M40.0016 13.4335C36.7475 16.6003 34.6741 20.4591 33.7843 25.0102C33.4208 30.4568 34.8283 33.423 38.0067 33.9057C38.091 33.9173 38.1754 33.9289 38.2597 33.9377C42.5112 33.737 44.6631 31.4455 44.7154 27.0632C44.5322 21.2327 42.9619 16.6875 40.0016 13.4335ZM63.4051 5.25037C67.1942 5.82615 70.6605 6.96027 73.804 8.64981C81.3561 12.4389 87.7885 19.232 93.0927 29.0232C97.5419 36.834 98.5975 45.0316 96.2595 53.6218C96.1141 54.154 95.5907 54.4855 95.0556 54.4041C95.0149 54.3983 94.9742 54.3896 94.9335 54.3779C94.3577 54.2209 94.0174 53.6277 94.1745 53.0519C96.3584 45.0316 95.3697 37.372 91.2083 30.0759C91.2025 30.0671 91.1996 30.0613 91.1967 30.0555C86.1019 20.654 79.9777 14.1604 72.8211 10.5749C72.8124 10.5691 72.8008 10.5633 72.792 10.5604C69.8666 8.98423 66.6271 7.92572 63.0794 7.38484C60.8751 7.05042 58.5516 6.91665 56.1089 6.98063C56.106 6.98063 56.1031 6.98063 56.1002 6.98063C50.7146 7.0795 46.1752 8.52768 42.4792 11.3252L42.4734 11.3281C42.1826 11.5462 41.8976 11.7701 41.6184 11.9969C44.9248 15.6348 46.6783 20.6394 46.8761 27.0138C46.8761 27.0283 46.8761 27.0428 46.8761 27.0574C46.8179 32.8501 43.9506 35.8657 38.2742 36.0983C38.2248 36.1012 38.1754 36.1012 38.1259 36.0954C37.9514 36.078 37.7799 36.0576 37.6112 36.0314C33.1533 35.3539 31.1613 31.6084 31.6324 24.795C31.6353 24.7513 31.6411 24.7077 31.6498 24.6641C32.6153 19.6595 34.8777 15.4167 38.4371 11.9387C38.3411 11.8573 38.2422 11.7788 38.1405 11.6974C38.1172 11.6799 38.0968 11.6625 38.0736 11.6421C34.2728 8.10311 28.1312 5.3696 19.6515 3.4416C19.2705 3.35727 18.8779 3.28457 18.4766 3.22351C14.167 2.56921 8.65927 3.29911 1.95345 5.41613C1.79061 5.46847 1.62485 5.4772 1.46782 5.45393C1.07233 5.39577 0.726283 5.11661 0.598332 4.7124C0.420944 4.14243 0.735007 3.53466 1.30497 3.35727C8.32776 1.13848 14.1641 0.382401 18.8111 1.08904C19.2589 1.15883 19.6951 1.24026 20.1226 1.33622H20.1255C28.9658 3.34273 35.4273 6.242 39.5159 10.0311C39.702 10.1794 39.8823 10.3277 40.0597 10.4818C40.4203 10.1823 40.7925 9.88861 41.1764 9.60072C45.2418 6.52407 50.2028 4.93049 56.0537 4.81999C58.6243 4.75311 61.0758 4.8956 63.4051 5.25037Z" fill="#303030"/>
</g>
</g>
</g>
</svg>
