<svg width="1370" height="161" viewBox="0 0 1370 161" fill="none" xmlns="http://www.w3.org/2000/svg">
<path d="M1253.17 75.5002L1252.37 76.5785C1166.81 130.811 1034.92 109.499 965.869 97.1297C896.821 84.7609 888.315 116.856 834.477 128.084C780.74 139.311 733.707 116.095 711.092 111.465C688.476 106.835 588.907 137.027 569.994 90.1525C551.081 43.2777 699.484 45.6247 672.065 33.6364C650.249 24.1219 692.679 9.59647 717.496 3.25348C883.912 2.93633 1065.94 22.8533 1253.17 75.5002Z" fill="#FCD800"/>
<path d="M618.928 5.79086C579 10.0407 617.827 42.7705 559.587 63.0047C497.244 84.6977 406.881 27.7376 425.194 81.9702C443.506 136.203 402.578 111.782 326.825 145.083C251.073 178.384 183.826 136.203 102.57 138.867C37.6244 141.023 34.7224 130.494 41.427 124.912L40.3263 123.771C164.713 73.1534 370.556 18.0963 618.928 5.79086Z" fill="#FCD800"/>
<path d="M41.5262 124.976C34.8215 130.558 37.6235 141.087 102.669 138.93C183.925 136.203 251.172 178.447 326.924 145.147C402.677 111.846 443.605 136.266 425.293 82.0338C406.98 27.8012 497.343 84.7613 559.686 63.0682C617.926 42.8341 579.099 10.0408 619.027 5.85444C621.829 5.53729 625.031 5.41043 628.734 5.41043" stroke="black" stroke-width="5" stroke-linecap="round"/>
<path d="M718.396 3C718.096 3.06343 717.796 3.12686 717.396 3.25372C692.578 9.59671 650.249 24.1222 671.964 33.5732C699.483 45.5615 550.98 43.278 569.893 90.0893C588.806 136.964 688.475 106.708 710.991 111.402C733.607 116.032 780.639 139.247 834.377 128.02C888.114 116.793 896.72 84.6343 965.768 97.0666C1034.82 109.435 1166.81 130.748 1252.27 76.5153" stroke="black" stroke-width="5" stroke-linecap="round"/>
<path d="M3 140.072C14.508 134.744 26.9166 129.352 40.3259 123.834C164.612 73.09 370.455 18.0962 618.928 5.72738C622.13 5.60052 625.332 5.41023 628.634 5.28337C657.655 3.95134 687.375 3.25361 717.496 3.19018C884.012 2.87304 1066.04 22.79 1253.17 75.4369C1316.01 93.1338 1379.46 114.51 1443 140.009" stroke="black" stroke-width="5" stroke-linecap="round"/>
</svg>
