<svg width="227" height="260" viewBox="0 0 227 260" fill="none" xmlns="http://www.w3.org/2000/svg">
<path d="M94.3583 37.439C96.1708 37.3298 97.9786 37.209 99.7911 37.1207C101.262 37.0486 102.466 35.8565 102.431 34.3578C102.396 32.9124 101.139 31.646 99.6657 31.718C97.8532 31.804 96.0453 31.9271 94.2328 32.0364C92.7619 32.1247 91.5582 33.2865 91.5931 34.7993C91.6256 36.1842 92.8061 37.4436 94.2142 37.4436C94.263 37.4436 94.3095 37.4413 94.3583 37.439Z" fill="black"/>
<path d="M104.848 56.6793C105.095 56.0264 105.078 55.2851 104.799 54.6461C104.502 53.9559 103.954 53.4912 103.28 53.1938C101.683 52.4873 100.085 51.7391 98.4441 51.1419C97.0615 50.64 95.4837 51.3185 94.9585 52.7104C94.4403 54.0721 95.1421 55.6941 96.527 56.1983C98.1675 56.7932 99.7663 57.5437 101.36 58.2478C101.662 58.3803 101.976 58.4407 102.292 58.4407C103.382 58.443 104.458 57.7041 104.848 56.6793Z" fill="black"/>
<path d="M49.0929 81.6707C50.3524 81.6289 51.6071 81.5684 52.8643 81.501C53.5219 81.4662 54.1748 81.4151 54.8301 81.3523C56.1384 81.2269 57.3025 80.7342 58.3529 79.9604C59.1034 79.4074 59.7286 78.6522 60.2839 77.9086C60.6929 77.3602 61.0786 76.7886 61.4318 76.2053C62.0941 75.1085 62.6169 73.9653 62.9724 72.7337C63.1699 72.348 63.2815 71.9111 63.2815 71.4533C63.2815 71.444 63.2815 71.437 63.2815 71.4277C63.2838 71.4138 63.2861 71.3999 63.2908 71.3859C63.2931 71.3813 63.2955 71.3743 63.2978 71.3697C63.3373 71.2999 63.3768 71.2302 63.4139 71.1605C63.6324 70.8445 63.8601 70.5424 64.0995 70.2427C65.9515 68.1885 67.9638 66.2924 69.8297 64.2521C70.5152 63.5016 71.1938 62.7533 71.8514 61.9749C73.1062 60.4924 74.203 58.9029 75.2184 57.2461C77.3516 53.7582 78.8852 49.8776 79.8728 45.918C80.8255 42.1095 81.1392 38.115 80.9417 34.2019C80.7465 30.3724 80.0238 26.5267 78.6877 22.9295C78.0208 21.131 77.2098 19.4045 76.2757 17.7314C75.2556 15.8933 74.0077 14.1993 72.6972 12.5588C71.4911 11.0507 70.1574 9.62629 68.7933 8.25762C67.4177 6.87501 65.8446 5.70385 64.1785 4.70001C62.524 3.70314 60.7719 2.85963 58.9663 2.18111C57.0539 1.45843 55.0347 1.0146 53.0223 0.68231C51.3841 0.412759 49.7458 0.208279 48.089 0.0897696C44.8126 -0.151897 41.5501 0.0804684 38.3759 0.956508C36.5727 1.45611 34.8671 2.24385 33.194 3.06876C32.3296 3.49633 31.5001 3.97502 30.6914 4.49785C29.7875 5.07878 28.9765 5.77822 28.1725 6.48695C26.3368 8.10193 24.7148 9.89584 23.2532 11.8571C22.735 12.5495 22.2378 13.2629 21.7637 13.9879C20.8528 15.3821 20.1278 16.8949 19.5399 18.4541C19.1472 19.5021 18.7661 20.5454 18.4501 21.619C18.0225 23.0666 17.8064 24.6073 17.6856 26.1084C17.5671 27.563 17.4648 29.0339 17.5299 30.4932C17.5647 31.2856 17.5996 32.078 17.6345 32.8681C17.6763 33.7697 17.7948 34.6759 17.8738 35.5729C17.9947 36.9369 18.2317 38.2963 18.4664 39.644C18.708 41.022 18.9706 42.4092 19.3215 43.764C19.7095 45.2674 20.1278 46.7523 20.567 48.2418C21.4175 51.1185 22.5213 53.9279 23.6552 56.7001C24.1804 57.9828 24.7822 59.2445 25.4445 60.4645C26.1416 61.7472 26.9432 62.9718 27.7658 64.1824C28.9811 65.981 30.3173 67.6959 31.5907 69.4549C32.3203 70.5192 33.0035 71.5951 33.6124 72.7337C34.1445 73.8305 34.6464 74.9435 35.132 76.0612C35.3993 76.6747 35.6827 77.2742 36.0011 77.8668C36.6726 79.1216 37.8484 80.1184 39.1427 80.6761C40.9947 81.4755 43.0071 81.6753 45.0031 81.7172C45.3656 81.7241 45.7282 81.7264 46.0907 81.7264C47.0899 81.7311 48.0914 81.7055 49.0929 81.6707ZM44.7824 76.3145C44.1015 76.2774 43.4277 76.2309 42.7491 76.1379C42.454 76.0798 42.1613 76.0124 41.8708 75.9358C41.6617 75.8661 41.4572 75.7894 41.2527 75.7057C41.1969 75.6778 41.1435 75.6476 41.0877 75.6197C41.0528 75.5942 41.018 75.5709 40.9832 75.5454C40.9599 75.5245 40.9367 75.5012 40.9135 75.4803C40.867 75.4199 40.8182 75.3618 40.7717 75.3014C40.688 75.1643 40.6067 75.0272 40.5277 74.8878C40.0327 73.8305 39.5959 72.7499 39.101 71.6926C38.5131 70.4355 37.8764 69.2225 37.1467 68.0444C35.7595 65.8067 34.077 63.7502 32.5411 61.6124C31.579 60.188 30.6636 58.7426 29.8363 57.2345C28.5699 54.5483 27.501 51.797 26.4971 49.0039C26.123 47.856 25.7489 46.7081 25.4073 45.5486C25.0611 44.3821 24.7567 43.2086 24.4546 42.0305C24.1316 40.5038 23.8365 38.9818 23.5646 37.4458C23.2718 35.782 23.1579 34.081 23.0069 32.401C23.0185 32.5149 23.0278 32.631 23.0394 32.7449C23.0022 31.906 22.9628 31.0672 22.9256 30.2307C22.8954 29.5242 22.9325 28.8085 22.9464 28.0975C23.0347 26.9984 23.1208 25.9039 23.2834 24.8118C23.4182 24.0658 23.5855 23.3315 23.79 22.6019C24.1943 21.3703 24.6544 20.1527 25.1795 18.9676C25.4886 18.3239 25.8209 17.6965 26.1904 17.0877C26.9967 15.8608 27.8635 14.6664 28.793 13.5278C29.6876 12.4961 30.6496 11.5689 31.6395 10.6348C32.253 10.0957 32.8734 9.57516 33.538 9.0988C34.163 8.6968 34.7974 8.32965 35.4504 7.98342C36.5053 7.46523 37.5649 6.96796 38.6641 6.54969C39.4564 6.27781 40.2558 6.04544 41.0715 5.8549C41.9219 5.68759 42.7724 5.56212 43.6345 5.47614C44.643 5.40643 45.6468 5.38551 46.6576 5.40642C47.45 5.45987 48.2517 5.47846 49.0394 5.5807C50.1037 5.72245 51.1703 5.8549 52.2299 6.02453C53.5521 6.25691 54.8534 6.54969 56.1407 6.92846C57.0051 7.21428 57.8463 7.53959 58.6782 7.90441C59.789 8.43654 60.8741 9.01979 61.9314 9.65417C62.5867 10.0817 63.2118 10.5418 63.8206 11.0368C64.9058 11.9825 65.8957 13.0119 66.8693 14.0692C68.0683 15.403 69.1953 16.7926 70.2364 18.2542C70.966 19.3348 71.6259 20.4525 72.2347 21.6073C72.7878 22.7251 73.2781 23.8637 73.7126 25.0348C74.1402 26.2757 74.4957 27.5328 74.7932 28.8109C75.1162 30.3561 75.3392 31.9153 75.4856 33.4862C75.5925 34.9338 75.6227 36.3745 75.5763 37.8245C75.4973 39.3257 75.3439 40.8128 75.1115 42.2977C74.8536 43.7361 74.5213 45.1535 74.11 46.5571C73.6429 48.021 73.0968 49.4524 72.4787 50.8606C71.8188 52.285 71.0869 53.663 70.2713 55.0061C69.5068 56.2051 68.6795 57.3554 67.7756 58.4568C66.1025 60.4157 64.2993 62.2561 62.4868 64.0872C61.6944 64.8888 60.9253 65.7045 60.1747 66.541C59.3893 67.4147 58.7154 68.379 58.2483 69.4596C58.0415 69.9359 57.9439 70.4541 57.9067 70.9723C57.844 71.1117 57.7882 71.2558 57.7464 71.4092C57.7371 71.4371 57.7301 71.4673 57.7231 71.4951C57.6279 71.7786 57.521 72.0552 57.4072 72.3294C57.2027 72.7476 56.9773 73.1543 56.7379 73.554C56.3708 74.1186 55.9827 74.6647 55.5621 75.1898C55.4227 75.3409 55.2786 75.485 55.1322 75.629C55.0741 75.6778 55.0161 75.7243 54.9557 75.7708C54.9278 75.787 54.8999 75.8056 54.8743 75.8242C54.8348 75.8428 54.7953 75.8637 54.7535 75.8823C54.7163 75.8939 54.6768 75.9079 54.6372 75.9195C54.3328 75.9729 54.0285 76.0148 53.7217 76.0473C50.7451 76.2471 47.7567 76.368 44.7824 76.3145Z" fill="black"/>
<path d="M48.0245 102.647C49.5535 102.473 51.0453 102.129 52.5046 101.645C53.1831 101.422 53.8431 101.146 54.4821 100.834C55.7137 100.237 56.8872 99.5889 57.9561 98.7268C59.2132 97.716 60.2077 96.3543 60.6818 94.8067C61.114 93.4009 60.9839 91.6767 60.2333 90.3893C59.5153 89.1531 58.3744 88.3003 57.0986 87.6938C57.4937 87.0873 57.8213 86.4367 58.0955 85.7651C58.4719 84.838 58.5719 83.8457 58.6021 82.8582C58.63 81.938 58.3534 81.0155 58.1211 80.1325C57.7098 78.5547 56.9197 76.8235 55.3349 76.1566C53.9779 75.5873 52.3559 76.3866 51.847 77.7251C51.438 78.8033 51.7796 79.9349 52.5674 80.6646C52.6557 80.8551 52.7347 81.0457 52.809 81.2432C52.9252 81.6196 53.0228 82.0007 53.1228 82.3841C53.0972 82.2703 53.0739 82.1587 53.0484 82.0449C53.1111 82.2958 53.1576 82.5491 53.1925 82.8047C53.1971 82.9046 53.1994 83.0046 53.1994 83.1022C53.1878 83.2021 53.1762 83.302 53.1645 83.3996C53.1436 83.4995 53.1204 83.5971 53.0948 83.6947C53.046 83.8411 52.9903 83.9829 52.9322 84.1246C52.8579 84.2733 52.7811 84.4197 52.6952 84.5638C52.5929 84.7195 52.4838 84.8705 52.3722 85.0192C52.0306 85.4073 51.6681 85.7721 51.294 86.1323C51.0918 86.3112 50.8874 86.4878 50.6782 86.6598C48.0733 86.5924 45.4661 86.6714 42.8868 87.1013C41.0976 87.401 38.8063 88.0726 38.093 89.9525C37.7607 90.8262 37.8025 91.7998 38.2556 92.6154C38.7692 93.5449 39.6382 94.2142 40.6607 94.5023C42.0944 94.9113 43.5863 94.8276 45.0502 94.6673C46.3933 94.5209 47.7015 94.2258 48.9726 93.7633C49.5651 93.5472 50.1414 93.2637 50.713 92.9942C51.2638 92.7316 51.7959 92.4435 52.3118 92.1275C52.8253 92.16 53.3365 92.2018 53.8477 92.2739C54.022 92.3087 54.194 92.3505 54.3636 92.3993C54.589 92.476 54.8098 92.5666 55.0235 92.6759C54.9167 92.6271 54.8098 92.5783 54.7029 92.5295C54.8632 92.6108 55.0235 92.6991 55.1792 92.7897C55.2838 92.8594 55.3883 92.9338 55.4882 93.0081C55.4929 93.0244 55.4976 93.043 55.5022 93.0593C55.5092 93.0988 55.5162 93.1383 55.5231 93.1755C55.5231 93.1801 55.5232 93.1848 55.5255 93.1894C55.5232 93.2057 55.5231 93.2243 55.5208 93.2405C55.5022 93.2916 55.4836 93.3451 55.4627 93.3939C55.4046 93.5031 55.3465 93.61 55.2884 93.7192C55.221 93.8191 55.1514 93.9144 55.077 94.0097C54.9794 94.1212 54.8771 94.2281 54.7702 94.3327C54.5448 94.5255 54.3171 94.7091 54.0801 94.888C53.6781 95.1529 53.2645 95.3923 52.8393 95.6223C52.249 95.9081 51.6611 96.1754 51.0546 96.4287C50.2855 96.6773 49.5187 96.8888 48.7333 97.0723C48.2708 97.156 47.8154 97.2234 47.3506 97.2815C46.6489 97.307 45.9517 97.3093 45.2523 97.2884C44.6295 97.2443 44.0114 97.1862 43.391 97.1072C42.4871 96.9352 41.5948 96.7238 40.7095 96.4821C39.2897 96.0917 37.7839 97.0932 37.4539 98.4851C37.1054 99.9537 38.0395 101.35 39.4593 101.741C40.8303 102.117 42.2222 102.445 43.6396 102.58C44.5273 102.665 45.4359 102.731 46.3375 102.731C46.9068 102.735 47.4692 102.71 48.0245 102.647Z" fill="black"/>
<path d="M39.4453 77.934C40.7465 77.3716 41.5041 75.7009 40.8511 74.3787C39.7404 72.1317 38.8295 69.7917 37.972 67.4354C37.247 65.2837 36.6429 63.1203 36.1409 60.9081C35.481 57.5109 35.0442 54.088 34.6817 50.6489C34.6096 49.6707 34.5376 48.6947 34.4981 47.7164C34.4586 46.6452 34.4609 45.5809 34.4702 44.5097C34.519 43.6708 34.5678 42.8343 34.6538 41.9978C34.7491 41.0915 34.8746 40.1945 35.0047 39.2906C35.1023 38.8003 35.2022 38.31 35.2998 37.8174C35.3927 37.3573 35.5415 36.9018 35.6762 36.4487C35.9574 35.6145 36.2362 34.7849 36.5732 33.9716C36.7196 33.6696 36.8776 33.3768 37.0449 33.084C37.2215 32.8191 37.405 32.5658 37.6002 32.3148C37.7187 32.1824 37.8442 32.0546 37.972 31.9314C38.0464 31.8664 38.1231 31.8059 38.1998 31.7455C38.2858 31.6921 38.3717 31.6386 38.4554 31.5875C38.4112 31.6108 38.367 31.6317 38.3229 31.6549C38.3322 31.6479 38.3392 31.6433 38.3485 31.6363C38.4182 31.6015 38.4856 31.5713 38.5576 31.541C38.5855 31.5341 38.6157 31.5271 38.6436 31.5201C38.6668 31.5155 38.6924 31.5132 38.7156 31.5085C38.7203 31.5085 38.7249 31.5085 38.7296 31.5085C38.7342 31.5085 38.7412 31.5108 38.7412 31.5108C38.7552 31.5132 38.769 31.5155 38.783 31.5201C38.8016 31.5271 38.8179 31.5317 38.8365 31.5387C38.8481 31.5457 38.862 31.5527 38.8736 31.5596C38.941 31.6084 39.0061 31.6549 39.0688 31.7037C39.1153 31.7479 39.1618 31.792 39.2059 31.8362C39.3709 32.0313 39.5266 32.2312 39.6776 32.438C39.9263 32.8284 40.1586 33.2257 40.3794 33.6301C40.5816 34.046 40.7745 34.4666 40.9627 34.8872C40.5607 35.647 40.2214 36.4394 39.9379 37.2574C39.5777 38.3007 39.3477 39.3743 39.106 40.4478C38.7621 41.9931 38.5832 43.5593 38.5181 45.1417C38.4461 46.8473 38.5181 48.546 38.6157 50.2469C38.697 51.6714 38.9666 53.0819 39.2268 54.4831C39.5312 56.1189 40.0611 57.72 40.9139 59.1514C41.7411 60.5433 43.1934 61.7633 44.8339 61.984C46.2979 62.1792 47.878 61.6819 48.9097 60.5967C49.4535 60.0274 49.888 59.4117 50.2412 58.7076C50.6525 57.8896 50.8849 56.9625 51.029 56.0609C51.3195 54.2437 51.2289 52.3847 51.0708 50.5583C50.9361 49.0084 50.6735 47.4561 50.297 45.9457C50.0925 45.1255 49.888 44.3075 49.6835 43.4872C49.4884 42.7065 49.2281 41.9373 49.0027 41.1659C48.6286 39.9041 48.2057 38.6539 47.7688 37.4107C47.5411 36.7671 47.311 36.1257 47.0694 35.4867C47.3784 35.1358 47.6991 34.8012 48.0361 34.4782C48.3451 34.2133 48.6542 33.9577 48.9772 33.7091C49.0492 33.6626 49.1235 33.6184 49.2002 33.5743C49.2258 33.5627 49.2514 33.5511 49.2769 33.5394C49.3211 33.5464 49.3652 33.5511 49.4093 33.558C49.4395 33.5673 49.4697 33.5743 49.4999 33.5813C49.5325 33.5952 49.5673 33.6091 49.5999 33.6231C49.6417 33.6463 49.6812 33.6719 49.723 33.6951C49.7625 33.7253 49.8021 33.7532 49.8439 33.7834C49.8927 33.8299 49.9415 33.874 49.9902 33.9228C50.1064 34.0599 50.218 34.2017 50.3226 34.3458C50.448 34.5479 50.5619 34.7524 50.6734 34.9615C50.9755 35.5982 51.2219 36.2512 51.4682 36.9111C52.0212 38.5726 52.5185 40.241 52.9855 41.928C53.4503 43.6174 53.8174 45.3346 54.2008 47.0402C54.396 48.1021 54.5913 49.1664 54.7865 50.2283C54.8771 50.7326 54.9096 51.2577 54.9723 51.7666C55.0397 52.322 55.1048 52.8797 55.1722 53.4374C55.2465 54.5667 55.3186 55.6914 55.3953 56.8207C55.4324 57.4016 55.3999 57.9965 55.4022 58.5774C55.4045 59.1165 55.4068 59.6533 55.4092 60.1901C55.3487 61.0847 55.2883 61.9794 55.2279 62.8717C55.1721 63.671 55.0235 64.475 54.9142 65.2697C54.7446 66.1806 54.575 67.0915 54.3635 67.9954C54.1312 68.9714 53.8546 69.9334 53.5735 70.8954C53.3318 71.6878 53.0924 72.4849 52.7904 73.2563C52.0142 74.4414 52.3163 76.0866 53.4712 76.9208C54.6656 77.7876 56.3782 77.5064 57.2449 76.3143C57.7863 75.5754 58.0373 74.6715 58.3185 73.8117C58.5392 73.1309 58.7483 72.4477 58.9458 71.7599C59.3502 70.3819 59.7173 68.997 59.9776 67.5818C60.1077 66.887 60.2448 66.1946 60.3378 65.4928C60.4353 64.7655 60.5655 64.0358 60.6166 63.3062C60.6747 62.4278 60.7375 61.5495 60.7956 60.6711C60.8444 59.9345 60.8118 59.1909 60.8095 58.452C60.8048 57.8362 60.8351 57.2111 60.7956 56.593C60.7328 55.6147 60.6654 54.6388 60.6027 53.6605C60.5097 52.2407 60.3053 50.8255 60.1333 49.415C60.0427 48.6622 59.8568 47.9046 59.7197 47.1587C59.5988 46.5011 59.471 45.8505 59.32 45.1998C58.9598 43.6174 58.5857 42.0442 58.193 40.4711C57.8653 39.1582 57.4773 37.8453 57.0474 36.5626C56.8057 35.8329 56.5594 35.1056 56.2922 34.3853C55.839 33.156 55.2768 32.0081 54.5262 30.9299C53.7083 29.7588 52.3907 28.7665 51.0081 28.3901C50.2598 28.1879 49.4721 28.0671 48.6983 28.1577C47.8245 28.2623 47.0903 28.5667 46.3258 28.9919C45.7355 29.3172 45.1988 29.768 44.6922 30.2235C44.1159 29.2499 43.4398 28.3459 42.5962 27.6023C41.5692 26.6984 40.1494 26.0455 38.7575 26.0919C38.0487 26.1175 37.3562 26.2151 36.6917 26.4707C35.8458 26.796 35.0999 27.2701 34.4167 27.8672C33.1619 28.9664 32.1999 30.428 31.5563 31.957C31.1822 32.847 30.8824 33.7555 30.5733 34.6711C30.0923 36.1002 29.7926 37.599 29.5742 39.0908C29.3557 40.5849 29.2024 42.0768 29.1141 43.5872C28.9398 46.5243 29.128 49.4708 29.4324 52.3894C30.0342 58.1824 30.9637 63.9499 32.9551 69.4431C33.8242 71.8458 34.7537 74.2323 35.883 76.5235C36.2107 77.1834 36.7033 77.7132 37.4051 77.9781C37.7118 78.0943 38.0371 78.1524 38.3624 78.1524C38.7365 78.1571 39.106 78.0827 39.4453 77.934ZM45.4498 56.1956C45.3313 55.9981 45.222 55.796 45.1221 55.5868C45.1755 55.6914 45.229 55.796 45.2824 55.9005C45.15 55.6147 45.0338 55.3219 44.9339 55.0222C44.9734 55.1314 45.0129 55.2406 45.0524 55.3521C44.8618 54.7596 44.6992 54.1647 44.5551 53.5582C44.4552 53.0145 44.3529 52.4754 44.253 51.9316C44.1415 51.3275 44.095 50.7047 44.0253 50.0936C43.9393 48.5715 43.8696 47.0542 43.9092 45.5275C43.9417 44.8513 43.9928 44.1797 44.0718 43.5082C44.2228 43.9961 44.3692 44.4865 44.4923 44.9814C44.7224 45.8993 44.9502 46.8171 45.1802 47.735C45.4335 49.0107 45.6264 50.2888 45.7495 51.5854C45.8076 52.4684 45.8238 53.3491 45.8029 54.2321C45.7774 54.5876 45.7426 54.9362 45.6914 55.2871C45.6426 55.5241 45.5892 55.7588 45.5218 55.9935C45.5567 55.8819 45.5915 55.7704 45.624 55.6589C45.5752 55.8401 45.5171 56.019 45.4498 56.1956Z" fill="black"/>
<path d="M88.5254 16.0442C90.0776 15.9513 91.5323 15.5353 92.966 14.9451C94.3207 14.3874 95.6592 13.7972 96.9814 13.1652C98.3105 12.5308 98.9868 10.9971 98.3873 9.60987C97.8179 8.29698 96.1588 7.56965 94.832 8.20635C93.2611 8.95691 91.6694 9.67028 90.0381 10.2837C89.6919 10.3883 89.3503 10.4836 89.004 10.5696C88.8344 10.5951 88.6672 10.6184 88.4998 10.637C88.4673 10.6393 88.4347 10.6416 88.4022 10.6439C86.9313 10.7299 85.7276 11.8964 85.7601 13.4068C85.7927 14.7918 86.9731 16.0512 88.3836 16.0512C88.4301 16.0489 88.4789 16.0466 88.5254 16.0442Z" fill="black"/>
<path d="M14.3881 12.4706C15.2595 11.2692 14.9667 9.57057 13.7816 8.69686C13.4656 8.46216 13.1217 8.26232 12.7871 8.05551C12.8615 8.10198 12.9358 8.14846 13.0101 8.19494C12.4455 7.84173 11.8739 7.50479 11.2929 7.18179C10.0079 6.46609 8.32094 7.00054 7.6308 8.28323C6.92672 9.59148 7.4449 11.232 8.73224 11.9454C9.19466 12.2033 9.65471 12.4729 10.1078 12.7471C10.1241 12.7564 10.1404 12.768 10.1566 12.7773C10.31 12.8749 10.4657 12.9725 10.6121 13.0794C11.0768 13.4233 11.6252 13.5859 12.1713 13.5859C13.0241 13.5836 13.8676 13.1932 14.3881 12.4706Z" fill="black"/>
<path d="M7.6734 35.2172C8.1149 35.1986 8.55877 35.1382 9.00027 35.1382C10.4735 35.1382 11.6725 33.8207 11.64 32.3753C11.6051 30.8789 10.348 29.7356 8.87709 29.7356C8.50995 29.7356 8.14046 29.7867 7.77332 29.803C7.18309 29.8285 6.5906 29.8378 5.99805 29.8355C4.87802 29.8332 3.7603 29.8123 2.64027 29.7681C1.16936 29.71 -0.0320406 31.1298 0.000492096 32.5333C0.016758 33.2467 0.321201 33.9322 0.837066 34.4248C1.37849 34.9407 2.03607 35.1429 2.76572 35.1731C3.88575 35.2172 5.00347 35.2381 6.1235 35.2428C6.63936 35.2428 7.15521 35.2405 7.6734 35.2172Z" fill="black"/>
<path d="M5.92175 62.2515C7.30901 61.9982 8.69861 61.7426 10.0719 61.4242C10.6738 61.2825 11.2733 61.1291 11.8704 60.9711C12.4607 60.8131 12.9952 60.5877 13.4297 60.1369C13.834 59.7117 14.1291 59.1331 14.1686 58.5452C14.2709 57.0766 13.267 55.7311 11.7636 55.5755C11.3802 55.536 10.9968 55.5847 10.6366 55.7056C9.77219 55.9472 8.90076 56.1587 8.02705 56.3539C7.05573 56.5491 6.08209 56.7327 5.11077 56.9116C3.6631 57.1765 2.61974 58.5033 2.84514 59.9928C3.03801 61.2732 4.20224 62.2956 5.48726 62.2956C5.63133 62.291 5.77535 62.277 5.92175 62.2515Z" fill="black"/>
<path d="M12.2038 88.0519C13.3587 87.162 14.5066 86.2511 15.5964 85.2867C16.2215 84.7337 16.8163 84.1644 17.3903 83.5602C18.2756 82.6284 19.168 81.5456 19.168 80.1978C19.168 78.7246 17.8504 77.5255 16.4027 77.5557C15.2827 77.5813 14.3649 78.29 13.9698 79.2613C13.935 79.3101 13.8978 79.3589 13.8606 79.4077C13.4331 79.8888 12.9822 80.3442 12.5221 80.7973C11.3254 81.8453 10.0939 82.8538 8.8321 83.8251C7.66559 84.7244 7.49364 86.4881 8.40222 87.6244C8.93435 88.2913 9.7174 88.6305 10.5098 88.6305C11.107 88.6259 11.7042 88.4377 12.2038 88.0519Z" fill="black"/>
<path d="M175.717 123.504C177.192 123.462 178.675 123.321 180.144 123.16C181.568 123.007 183.006 122.851 184.417 122.582C187.375 122.015 190.361 121.434 193.173 120.323C194.599 119.758 196.01 119.161 197.351 118.413C197.948 118.078 198.564 117.767 199.135 117.391C199.986 116.833 200.843 116.285 201.673 115.692C204.761 113.489 207.619 110.81 209.615 107.559C211.653 104.243 213.187 100.567 213.928 96.7444C214.237 95.1457 214.453 93.5098 214.507 91.8809C214.537 90.9955 214.567 90.1125 214.597 89.2272C214.639 88.0212 214.611 86.8222 214.551 85.6138C214.462 83.8803 214.316 82.1004 213.979 80.3971C213.682 78.8867 213.417 77.3739 213.012 75.8891C212.794 75.0897 212.578 74.288 212.359 73.4887C212.146 72.7056 211.86 71.9341 211.583 71.1719C211.179 70.0566 210.733 68.9621 210.24 67.8839C209.483 66.2155 208.562 64.6237 207.521 63.1156C206.397 61.4844 205.098 59.9879 203.752 58.5379C203.185 57.9245 202.577 57.3505 201.982 56.7672C201.536 56.3281 201.103 55.8773 200.634 55.466C199.449 54.4319 198.282 53.3793 197.046 52.408C196.312 51.8317 195.578 51.2554 194.843 50.6768C194.362 50.298 193.839 49.9681 193.335 49.6195C192.668 49.1571 192.001 48.6947 191.335 48.2322C190.561 47.6955 189.703 47.2609 188.892 46.7869C188.379 46.4871 187.877 46.1734 187.345 45.9062C186.455 45.4601 185.567 45.0139 184.675 44.5678C183.26 43.8567 181.772 43.2665 180.295 42.7018C178.886 42.1604 177.46 41.7537 175.97 41.5028C175.259 41.3843 174.534 41.3448 173.811 41.3053C173.63 41.2704 173.442 41.2541 173.251 41.2611C170.393 41.3494 167.53 41.533 164.682 41.7932C161.733 42.0605 158.837 42.5229 155.947 43.1503C154.569 43.4524 153.209 43.8869 151.862 44.2982C150.493 44.7141 149.143 45.2137 147.816 45.7505C146.389 46.3268 145.018 46.9914 143.65 47.6955C143.101 47.979 142.585 48.3345 142.063 48.6575C141.428 49.0455 140.803 49.4778 140.201 49.9146C139.086 50.7279 137.945 51.525 136.922 52.4544C136.36 52.9657 135.758 53.4536 135.226 53.9974C134.722 54.5156 134.178 55.0105 133.713 55.5612C132.749 56.6999 131.755 57.8338 130.953 59.0979C130.14 60.3853 129.317 61.6656 128.625 63.0204C127.895 64.4448 127.244 65.8901 126.649 67.3796C126.096 68.7692 125.683 70.1983 125.269 71.6344C125.088 72.2641 124.981 72.9217 124.839 73.563C124.755 73.9488 124.711 74.3531 124.651 74.7458C124.595 75.1246 124.509 75.5057 124.479 75.8891C124.419 76.6513 124.335 77.4111 124.307 78.1756C124.23 80.2693 124.391 82.3211 124.742 84.3846C125.378 88.1397 126.44 91.8228 128.134 95.2433C128.78 96.5469 129.512 97.8087 130.353 98.9961C130.781 99.5956 131.183 100.228 131.645 100.799C132.628 102.015 133.609 103.255 134.715 104.364C136.774 106.427 138.888 108.423 141.166 110.252C143.443 112.079 145.801 113.803 148.26 115.381C148.922 115.806 149.587 116.231 150.251 116.659C151.018 117.151 151.824 117.588 152.612 118.048C155.44 119.696 158.445 120.909 161.605 121.752C162.414 121.968 163.236 122.133 164.054 122.317C164.524 122.424 165.021 122.568 165.516 122.626C165.767 122.675 166.025 122.707 166.276 122.751C166.963 122.868 167.651 122.984 168.339 123.102C168.411 123.119 168.483 123.13 168.558 123.139C168.643 123.153 168.732 123.17 168.818 123.184C168.887 123.195 168.955 123.205 169.025 123.209C169.124 123.223 169.227 123.237 169.329 123.249C170.944 123.451 172.564 123.535 174.186 123.535C174.697 123.528 175.206 123.521 175.717 123.504ZM172.687 118.111C171.618 118.051 170.558 117.948 169.499 117.818C169.471 117.814 169.445 117.811 169.417 117.807C168.788 117.7 168.158 117.593 167.526 117.486C167.063 117.407 166.578 117.281 166.099 117.233C166.046 117.219 165.992 117.207 165.936 117.195C164.468 116.868 163.006 116.547 161.558 116.129C160.378 115.755 159.225 115.316 158.092 114.814C156.407 114.012 154.815 113.073 153.202 112.134C151.532 111.058 149.879 109.966 148.241 108.842C146.684 107.773 145.218 106.576 143.747 105.398C142.925 104.678 142.09 103.966 141.293 103.218C140.334 102.324 139.404 101.41 138.477 100.483C137.773 99.7025 137.08 98.9194 136.416 98.1015C135.772 97.3067 135.182 96.4749 134.592 95.6406C134.039 94.7809 133.525 93.9048 133.051 93.0009C132.535 91.9552 132.078 90.891 131.669 89.7988C131.439 89.0761 131.208 88.3535 130.978 87.6285C130.765 86.9499 130.63 86.2343 130.469 85.5395C130.191 84.1313 129.912 82.7278 129.763 81.2964C129.691 80.3018 129.675 79.3142 129.703 78.3174C129.754 77.6969 129.805 77.0765 129.856 76.4537C129.903 75.8868 130.016 75.3198 130.112 74.7551C130.246 74.1463 130.381 73.5375 130.516 72.9287C130.632 72.3919 130.813 71.8621 130.974 71.3323C131.236 70.5794 131.494 69.8242 131.792 69.0806C132.096 68.3138 132.424 67.5586 132.761 66.8057C133.328 65.7019 133.916 64.6237 134.529 63.5455C134.824 63.0784 135.119 62.6114 135.412 62.1443C135.77 61.5797 136.2 61.0522 136.595 60.5084C136.971 60.0646 137.348 59.6231 137.722 59.1793C138.154 58.6657 138.668 58.2079 139.139 57.7293C139.811 57.1205 140.482 56.5186 141.186 55.9446C141.93 55.3405 142.695 54.7828 143.466 54.2181C144.084 53.8022 144.702 53.3793 145.337 52.9866C146.057 52.5427 146.789 52.15 147.535 51.762C148.994 51.1113 150.458 50.5095 151.959 49.9564C154.102 49.2454 156.253 48.618 158.454 48.1254C160.961 47.656 163.475 47.326 166.015 47.089C168.365 46.9031 170.721 46.752 173.075 46.673C173.909 46.7265 174.739 46.7822 175.566 46.9077C176.031 47.0007 176.484 47.1169 176.939 47.247C178.703 47.8209 180.392 48.5645 182.084 49.3151C182.579 49.5637 183.071 49.81 183.566 50.0587C184.082 50.3166 184.626 50.549 185.123 50.8418C186.178 51.4622 187.235 52.0803 188.29 52.7007C189.362 53.442 190.431 54.1833 191.502 54.9245C191.971 55.2522 192.41 55.6379 192.859 55.9911C193.405 56.421 193.951 56.8486 194.495 57.2785C195.385 58.0569 196.279 58.8353 197.167 59.6138C197.678 60.0599 198.143 60.5758 198.624 61.0522C199.17 61.5936 199.712 62.1281 200.234 62.6881C201.224 63.7849 202.163 64.9235 203.034 66.1225C203.697 67.1008 204.298 68.107 204.849 69.1503C205.488 70.4469 206.051 71.7715 206.55 73.1262C207.131 74.8109 207.584 76.5258 208.051 78.2453C208.198 78.9843 208.342 79.7209 208.488 80.4598C208.748 81.7797 208.925 83.1065 209.057 84.4473C209.183 86.0089 209.26 87.575 209.204 89.1389C209.174 89.9987 209.143 90.8584 209.116 91.7182C209.03 92.894 208.909 94.0582 208.721 95.2224C208.546 96.1658 208.335 97.0953 208.072 98.0155C207.682 99.2192 207.224 100.393 206.715 101.55C206.188 102.672 205.609 103.764 204.965 104.826C204.533 105.489 204.071 106.123 203.576 106.739C202.939 107.475 202.272 108.175 201.563 108.844C200.453 109.832 199.3 110.752 198.096 111.618C197.446 112.044 196.795 112.471 196.147 112.897C195.566 113.275 194.932 113.589 194.32 113.921C193.712 114.209 193.103 114.498 192.494 114.783C191.922 115.053 191.314 115.257 190.721 115.485C189.987 115.713 189.255 115.941 188.52 116.168C187.733 116.412 186.908 116.57 186.102 116.761C184.87 116.998 183.643 117.235 182.404 117.423C181.078 117.623 179.751 117.774 178.417 117.92C176.5 118.041 174.606 118.167 172.687 118.111Z" fill="black"/>
<path d="M174.88 77.7623C175.524 77.3742 175.912 76.7747 176.121 76.066C176.76 73.8956 177.046 71.6393 177.216 69.39C177.392 67.0035 177.529 64.6171 177.529 62.2236C177.529 60.7504 176.212 59.5514 174.764 59.5839C173.268 59.6164 172.124 60.8759 172.124 62.3491C172.124 63.0741 172.113 63.7968 172.099 64.5195C171.985 67.0895 171.832 69.6595 171.464 72.204C171.302 73.087 171.114 73.9537 170.86 74.8182C170.442 76.231 171.49 77.746 172.863 78.0737C173.068 78.1225 173.275 78.1457 173.484 78.1457C173.972 78.1457 174.457 78.0133 174.88 77.7623Z" fill="black"/>
<path d="M163.523 75.5684C163.976 73.1309 164.399 70.6886 164.82 68.2487C165.057 66.8778 165.294 65.5068 165.515 64.1381C165.612 63.5293 165.689 62.9251 165.768 62.314C165.847 61.6959 165.914 61.015 165.824 60.3946C165.608 58.9353 164.195 57.9105 162.745 58.129C161.392 58.3335 160.419 59.5511 160.451 60.8849C160.451 60.8779 160.451 60.871 160.449 60.864C160.451 60.9174 160.451 60.9709 160.451 61.0243C160.349 62.2373 160.159 63.4317 159.966 64.6354C159.968 64.6261 159.968 64.6168 159.97 64.6075C159.413 67.8467 158.864 71.0883 158.265 74.3206C158.135 75.0224 158.204 75.7125 158.574 76.3353C158.946 76.9534 159.564 77.4111 160.27 77.5761C160.463 77.6226 160.66 77.6435 160.858 77.6435C162.071 77.6412 163.293 76.8163 163.523 75.5684Z" fill="black"/>
<path d="M169.131 106.239C170.311 106.146 171.459 105.918 172.619 105.7C174.48 105.351 176.332 104.817 178.112 104.178C179.871 103.546 181.572 102.816 183.196 101.884C184.971 100.864 186.561 99.5491 188.018 98.1154C191.373 94.811 193.506 90.3983 194.717 85.895C194.991 84.8725 195.249 83.8501 195.491 82.8207C195.7 81.94 195.877 80.9826 195.858 80.0741C195.83 78.6031 194.564 77.4018 193.093 77.4343C191.624 77.4668 190.437 78.7124 190.453 80.174C190.437 80.3297 190.421 80.4854 190.404 80.641C190.081 82.3908 189.621 84.1103 189.122 85.8183C188.82 86.7571 188.464 87.6679 188.062 88.5672C187.644 89.4409 187.193 90.2914 186.693 91.121C186.249 91.8065 185.782 92.4641 185.274 93.1054C184.725 93.7445 184.147 94.351 183.538 94.9342C182.903 95.4989 182.246 96.0264 181.558 96.5213C180.921 96.9442 180.268 97.3369 179.597 97.7041C178.502 98.2432 177.373 98.7009 176.227 99.1215C174.866 99.5839 173.495 99.9418 172.107 100.302C170.997 100.511 169.893 100.723 168.77 100.853C168.22 100.89 167.671 100.904 167.116 100.899C166.372 100.86 165.638 100.783 164.902 100.667C164.237 100.534 163.584 100.379 162.936 100.19C162.266 99.9674 161.613 99.7187 160.965 99.4376C160.131 99.0402 159.322 98.5987 158.535 98.1177C157.835 97.6599 157.159 97.1766 156.501 96.6607C155.985 96.2192 155.493 95.7591 155.021 95.2688C154.663 94.8575 154.324 94.4369 153.999 93.9978C153.585 93.3657 153.211 92.7104 152.86 92.0412C152.119 90.5145 151.501 88.946 150.92 87.3519C150.19 85.1514 149.481 82.9462 148.966 80.6852C148.877 80.2251 148.794 79.765 148.728 79.3026C148.524 77.8433 147.095 76.8162 145.65 77.037C144.181 77.2577 143.179 78.6589 143.384 80.1159C143.788 82.9833 144.704 85.7648 145.612 88.5022C146.075 89.9034 146.616 91.2651 147.176 92.6291C147.794 94.1279 148.568 95.5941 149.47 96.9396C150.597 98.6243 152.056 100.025 153.636 101.28C155.04 102.396 156.615 103.325 158.221 104.115C159.978 104.98 161.853 105.579 163.775 105.949C165.011 106.186 166.266 106.302 167.523 106.302C168.057 106.302 168.594 106.281 169.131 106.239Z" fill="black"/>
<path d="M175.402 197.343C178.365 197.245 181.339 197.157 184.286 196.82C185.436 196.69 186.572 196.555 187.708 196.32C188.575 196.141 189.405 195.895 190.227 195.57C191.024 195.256 191.712 194.691 192.284 194.066C193.185 193.088 193.745 191.77 193.955 190.469C194.08 189.691 194.131 188.896 194.173 188.11C194.484 182.324 194.524 176.513 194.531 170.72C194.538 164.962 194.456 159.201 194.336 153.443C194.21 147.418 194.068 141.399 193.817 135.381C193.694 132.432 193.529 129.474 193.278 126.532C193.134 124.826 192.983 123.123 192.818 121.42C192.744 120.641 192.723 119.765 192.479 119.022C192.212 118.208 191.635 117.502 190.813 117.205C189.428 116.705 187.855 117.379 187.327 118.773C187.109 119.347 187.109 119.97 187.285 120.537C187.464 121.771 187.555 123.019 187.674 124.257C188.155 130.048 188.459 135.838 188.64 141.648C188.821 147.478 188.94 153.313 189.031 159.145C189.17 167.989 189.182 176.84 188.886 185.682C188.831 186.995 188.805 188.327 188.619 189.628C188.605 189.684 188.591 189.739 188.577 189.795C188.529 189.937 188.477 190.076 188.422 190.216C188.398 190.258 188.378 190.299 188.354 190.339C188.329 190.374 188.303 190.411 188.278 190.446C188.245 190.481 188.213 190.515 188.18 190.553C188.175 190.557 188.168 190.562 188.164 190.567C188.129 190.585 188.094 190.604 188.059 190.622C187.971 190.657 187.88 190.692 187.792 190.729C187.441 190.838 187.093 190.931 186.737 191.017C185.445 191.273 184.144 191.412 182.836 191.559C180.087 191.749 177.345 191.879 174.591 191.97C171.995 192.054 169.402 192.005 166.811 191.926C164.336 191.787 161.876 191.608 159.413 191.354C156.954 191.099 154.514 190.708 152.077 190.318C152.144 190.33 152.211 190.341 152.279 190.353C149.788 189.925 147.306 189.46 144.822 188.998C142.349 188.538 139.868 188.145 137.384 187.75C137.261 187.727 137.142 187.701 137.021 187.676C136.972 187.597 136.926 187.518 136.879 187.437C136.759 187.162 136.649 186.89 136.545 186.614C136.368 186.096 136.22 185.575 136.092 185.041C135.955 184.293 135.855 183.54 135.773 182.784C135.678 181.509 135.59 180.238 135.543 178.957C135.483 177.373 135.464 175.79 135.448 174.203C135.418 171.449 135.548 168.693 135.646 165.94C135.955 160.089 136.326 154.247 136.868 148.417C137.405 142.645 138.016 136.877 138.601 131.11C139.027 126.908 139.447 122.707 139.875 118.508C140.258 114.711 140.679 110.917 141.03 107.117C141.164 105.651 140.102 104.301 138.625 104.145C137.175 103.994 135.79 105.082 135.653 106.55C135.169 111.793 134.581 117.021 134.065 122.261C133.524 127.768 132.929 133.271 132.374 138.778C131.779 144.683 131.184 150.585 130.787 156.506C130.589 159.468 130.424 162.433 130.266 165.398C130.187 166.886 130.122 168.38 130.101 169.867C130.08 171.301 130.025 172.739 130.041 174.175C130.059 175.981 130.087 177.782 130.157 179.585C130.185 180.312 130.227 181.032 130.282 181.755C130.396 183.277 130.508 184.797 130.84 186.289C131.228 188.034 131.816 189.832 132.95 191.238C133.419 191.821 134.075 192.335 134.772 192.614C135.371 192.853 135.966 192.993 136.601 193.092C138.081 193.327 139.563 193.555 141.041 193.804C143.769 194.282 146.49 194.817 149.216 195.307C152.214 195.846 155.228 196.283 158.251 196.669C159.615 196.843 160.988 196.957 162.359 197.061C163.823 197.175 165.289 197.284 166.76 197.329C168.419 197.38 170.078 197.412 171.735 197.412C172.955 197.401 174.177 197.382 175.402 197.343Z" fill="black"/>
<path d="M123.625 114.802C125.77 114.73 127.847 114.277 129.853 113.521C131.691 112.831 133.506 111.927 135.13 110.824C136.355 109.989 137.447 109.009 138.513 107.991C138.588 107.928 138.662 107.87 138.741 107.812C138.729 107.819 138.72 107.826 138.708 107.831C139.396 107.333 139.842 106.539 139.822 105.607C139.789 104.18 138.527 102.874 137.056 102.967C136.294 103.016 135.729 103.302 135.139 103.766C134.672 104.131 134.249 104.582 133.817 104.996C133.287 105.453 132.746 105.886 132.179 106.299C131.568 106.704 130.94 107.066 130.292 107.408C129.335 107.879 128.368 108.307 127.369 108.686C126.895 108.841 126.418 108.974 125.933 109.09C125.377 109.197 124.822 109.281 124.262 109.346C123.423 109.408 122.587 109.427 121.745 109.408C120.897 109.362 120.058 109.278 119.222 109.155C118.123 108.958 117.045 108.7 115.973 108.386C114.735 107.989 113.524 107.538 112.327 107.036C111.498 106.648 110.671 106.26 109.839 105.872C109.446 105.686 109.07 105.44 108.693 105.228C108.235 104.972 107.78 104.717 107.322 104.459C107.362 104.484 107.403 104.51 107.443 104.536C106.688 104.062 105.93 103.585 105.175 103.113C105.277 103.176 105.377 103.239 105.479 103.304C104.743 102.842 104.036 102.328 103.353 101.787C102.545 101.097 101.787 100.362 101.062 99.5861C99.9513 98.3429 98.9428 97.0207 97.9366 95.6939C97.9459 95.7078 97.9576 95.7241 97.9669 95.738C97.2953 94.7714 96.6144 93.807 96.0219 92.7869C95.3898 91.6971 94.7764 90.6003 94.1954 89.4849C93.6006 88.2557 93.0429 87.0148 92.5665 85.7321C92.5363 85.6461 92.5061 85.5578 92.4759 85.4718C92.2342 84.7747 91.8183 84.1915 91.1583 83.8383C90.5425 83.5037 89.806 83.4293 89.1321 83.6199C87.7727 84.0079 86.8014 85.5718 87.2801 86.9637C87.9563 88.9249 88.7974 90.7932 89.7478 92.6405C90.6169 94.3299 91.5766 95.9936 92.6594 97.5575C93.2915 98.4661 93.9282 99.3607 94.5974 100.244C95.1946 101.034 95.836 101.787 96.4727 102.549C97.9366 104.308 99.6561 105.865 101.534 107.168C102.57 107.889 103.662 108.535 104.731 109.206C104.629 109.141 104.529 109.078 104.427 109.013C105.663 109.79 106.96 110.482 108.279 111.102C109.265 111.565 110.248 112.032 111.254 112.443C113.347 113.298 115.527 113.958 117.746 114.381C119.347 114.683 120.969 114.818 122.594 114.818C122.942 114.82 123.284 114.813 123.625 114.802Z" fill="black"/>
<path d="M89.1335 83.6199C87.7741 84.008 86.8028 85.5718 87.2815 86.9637L87.2838 86.9684C87.6254 87.1218 87.9879 87.1938 88.3481 87.1938C88.8361 87.1938 89.3217 87.0637 89.7655 86.815C90.2093 86.5687 90.6113 86.2248 91.0273 85.932C91.4014 85.6648 91.7732 85.3952 92.145 85.1257C92.1938 85.0885 92.2426 85.0536 92.2891 85.0188C92.2101 84.8608 92.1171 84.7074 92.0126 84.568C92.0079 84.5633 92.0009 84.554 92.0009 84.554C91.9638 84.5006 91.9196 84.4518 91.8778 84.403C91.8545 84.3751 91.8313 84.3496 91.8058 84.324C91.75 84.2659 91.6919 84.2101 91.6338 84.1567C91.6036 84.1335 91.5757 84.1079 91.5455 84.0846C91.4967 84.0451 91.4433 84.0056 91.3921 83.9731C91.3573 83.9476 91.3225 83.9243 91.2853 83.9034C91.2481 83.8778 91.2063 83.8546 91.1644 83.8337C91.0785 83.7872 90.9878 83.7454 90.8972 83.7082C90.3371 83.4875 89.7121 83.4549 89.1335 83.6199Z" fill="black"/>
<path d="M193.441 259.939C195.016 259.788 196.52 259.179 197.87 258.38C200.665 256.723 202.264 253.196 201.86 250.003C201.676 248.541 201.195 247.147 200.342 245.941C199.894 245.307 199.39 244.719 198.783 244.229C198.186 243.745 197.556 243.385 196.85 243.085C196.185 242.799 195.393 242.641 194.677 242.553C193.894 242.453 193.102 242.416 192.314 242.5C190.52 242.693 188.824 243.283 187.197 244.052C186.214 244.514 185.236 245.042 184.316 245.639C184.244 242.997 184.207 240.355 184.069 237.715C183.853 233.609 183.57 229.503 183.212 225.406C183.212 225.411 183.212 225.418 183.214 225.423C182.773 220.306 182.313 215.194 181.818 210.082C181.576 207.57 181.334 205.062 181.083 202.553C180.956 201.275 180.816 199.999 180.675 198.723C180.565 197.747 180.463 196.774 180.282 195.812C180.105 194.875 179.775 194.025 178.997 193.437C177.823 192.547 176.071 192.87 175.223 194.043C174.642 194.843 174.582 195.846 174.944 196.69C174.951 196.718 174.958 196.748 174.965 196.776C175.218 198.161 175.335 199.576 175.49 200.975C175.59 201.865 175.681 202.757 175.769 203.647C175.974 205.72 176.173 207.795 176.378 209.868C176.801 214.234 177.208 218.605 177.591 222.978C177.586 222.925 177.582 222.869 177.577 222.815C177.668 223.859 177.758 224.907 177.849 225.953C177.847 225.934 177.847 225.915 177.844 225.899C177.847 225.932 177.849 225.964 177.851 225.997C177.858 226.078 177.865 226.159 177.872 226.243C177.867 226.19 177.863 226.138 177.858 226.087C178.262 231.011 178.627 235.942 178.799 240.88C178.885 243.332 178.939 245.785 179.001 248.239C179.025 249.141 179.106 250.008 179.315 250.891C179.392 251.209 179.566 251.541 179.775 251.836C179.78 252.42 179.97 253.008 180.349 253.498C181.188 254.581 182.111 255.598 183.063 256.579C184.074 257.618 185.273 258.466 186.616 259.021C187.822 259.521 189.121 259.8 190.42 259.921C190.969 259.972 191.512 260 192.056 260C192.514 260.004 192.976 259.983 193.441 259.939ZM191.961 254.62C191.308 254.581 190.666 254.513 190.018 254.416C189.774 254.365 189.53 254.311 189.286 254.251C189.038 254.169 188.794 254.079 188.55 253.979C188.371 253.891 188.194 253.798 188.02 253.7C187.813 253.558 187.611 253.412 187.413 253.258C186.986 252.875 186.586 252.464 186.193 252.043C185.998 251.829 185.808 251.613 185.617 251.397C186 251.093 186.389 250.791 186.786 250.503C187.516 250.017 188.271 249.582 189.047 249.166C189.667 248.86 190.295 248.579 190.941 248.33C191.312 248.209 191.684 248.102 192.063 248.007C192.363 247.949 192.658 247.902 192.96 247.865C193.118 247.858 193.278 247.856 193.439 247.86C193.62 247.872 193.803 247.888 193.985 247.914C194.278 247.972 194.563 248.039 194.852 248.114C194.9 248.13 194.949 248.149 194.998 248.17C195.056 248.202 195.116 248.235 195.174 248.269C195.24 248.314 195.302 248.36 195.365 248.409C195.428 248.467 195.488 248.527 195.549 248.585C195.697 248.762 195.839 248.941 195.978 249.129C196.034 249.218 196.088 249.306 196.136 249.396C196.195 249.517 196.246 249.64 196.294 249.766C196.343 249.919 196.387 250.073 196.427 250.228C196.459 250.393 196.485 250.556 196.504 250.721C196.513 250.87 196.515 251.018 196.513 251.169C196.504 251.281 196.492 251.395 196.478 251.506C196.434 251.734 196.378 251.957 196.308 252.178C196.304 252.187 196.299 252.197 196.294 252.208C196.313 252.145 196.334 252.083 196.355 252.02C196.304 252.148 196.253 252.273 196.204 252.401C196.141 252.526 196.074 252.647 196.004 252.768C195.89 252.942 195.769 253.11 195.639 253.272C195.572 253.349 195.502 253.423 195.43 253.495C195.37 253.544 195.307 253.591 195.247 253.64C195.005 253.795 194.761 253.939 194.508 254.076C194.359 254.146 194.21 254.214 194.059 254.274C193.797 254.358 193.534 254.432 193.264 254.499C192.997 254.546 192.73 254.585 192.46 254.616C192.293 254.616 192.128 254.62 191.961 254.62Z" fill="black"/>
<path d="M137.57 257.365C138.878 256.997 140.138 256.451 141.355 255.856C142.721 255.19 144.013 254.383 145.201 253.435C145.522 253.18 145.768 252.861 145.937 252.51C146.284 252.294 146.597 252.018 146.802 251.706C146.99 251.425 147.192 251.153 147.306 250.833C147.415 250.528 147.508 250.228 147.587 249.915C147.671 249.578 147.738 249.234 147.815 248.895C148.106 247.552 148.333 246.201 148.524 244.842C149.305 239.263 149.876 233.653 150.508 228.056C151.138 222.495 151.77 216.939 152.397 211.378C152.709 208.634 152.997 205.885 153.28 203.136C153.401 201.96 153.524 200.773 153.592 199.592C153.634 198.865 153.673 198.142 153.715 197.417C153.757 196.681 153.785 195.912 153.675 195.182C153.62 194.824 153.503 194.422 153.299 194.125C152.881 193.514 152.339 193.058 151.605 192.884C150.924 192.724 150.19 192.835 149.59 193.193C148.619 193.776 148.068 195.043 148.329 196.146C148.338 196.428 148.336 196.711 148.331 196.994C147.989 202.901 147.25 208.783 146.581 214.659C145.937 220.32 145.294 225.983 144.662 231.648C144.383 234.144 144.097 236.642 143.8 239.137C143.528 241.403 143.265 243.676 142.896 245.927C142.859 246.129 142.819 246.334 142.78 246.536C140.572 244.868 138.56 242.927 136.066 241.67C133.252 240.253 129.871 240.364 127.194 242.058C125.737 242.981 124.796 244.466 124.129 246.016C123.792 246.808 123.648 247.691 123.569 248.541C123.479 249.513 123.546 250.505 123.723 251.462C124.336 254.792 127.106 257.302 130.352 257.999C131.047 258.148 131.751 258.213 132.458 258.213C134.186 258.21 135.927 257.827 137.57 257.365ZM132.26 252.785C131.986 252.766 131.714 252.74 131.44 252.703C131.319 252.678 131.201 252.65 131.08 252.615C130.868 252.541 130.661 252.455 130.462 252.352C130.568 252.401 130.678 252.45 130.785 252.499C130.541 252.373 130.306 252.238 130.076 252.09C130.097 252.106 130.118 252.125 130.136 252.141C130.113 252.122 130.09 252.104 130.064 252.083C130.025 252.057 129.985 252.032 129.946 252.004C129.981 252.025 130.013 252.046 130.048 252.066C130.011 252.036 129.976 252.006 129.939 251.974C129.978 252.006 130.018 252.039 130.057 252.073C130.12 252.113 130.185 252.152 130.25 252.192C130.129 252.104 130.008 252.015 129.888 251.927C129.806 251.855 129.727 251.781 129.651 251.704C129.579 251.611 129.504 251.518 129.432 251.427C129.386 251.355 129.342 251.281 129.3 251.207C129.242 251.077 129.186 250.946 129.13 250.816C129.153 250.886 129.179 250.956 129.204 251.025C129.23 251.074 129.256 251.125 129.281 251.174C129.258 251.13 129.232 251.086 129.209 251.039C129.221 251.074 129.235 251.109 129.246 251.144C129.23 251.104 129.216 251.063 129.2 251.023C129.179 250.984 129.16 250.944 129.142 250.905C129.16 250.939 129.177 250.972 129.195 251.007C129.128 250.821 129.072 250.635 129.023 250.445C128.998 250.305 128.977 250.166 128.96 250.024C128.944 249.689 128.942 249.359 128.949 249.027C128.96 248.897 128.972 248.764 128.984 248.634C129.014 248.479 129.051 248.325 129.093 248.172C129.144 248.023 129.2 247.877 129.26 247.733C129.337 247.575 129.418 247.421 129.509 247.27C129.592 247.156 129.674 247.045 129.758 246.933C129.82 246.866 129.883 246.799 129.948 246.734C130.015 246.68 130.08 246.627 130.148 246.576C130.211 246.536 130.276 246.494 130.341 246.455C130.301 246.476 130.264 246.494 130.225 246.515C130.229 246.51 130.234 246.508 130.241 246.503C130.376 246.436 130.513 246.373 130.654 246.318C130.866 246.25 131.077 246.19 131.293 246.139C131.431 246.113 131.568 246.092 131.705 246.078C131.84 246.069 131.972 246.067 132.104 246.069C132.246 246.081 132.386 246.095 132.527 246.115C132.641 246.139 132.755 246.167 132.869 246.194C133.115 246.28 133.355 246.373 133.594 246.473C133.891 246.624 134.182 246.785 134.47 246.954C135.729 247.782 136.894 248.739 138.062 249.687C138.511 250.052 138.962 250.414 139.424 250.765C139.324 250.821 139.222 250.874 139.122 250.93C138.439 251.26 137.751 251.56 137.049 251.841C136.447 252.043 135.846 252.227 135.232 252.401C134.579 252.541 133.929 252.666 133.262 252.747C132.927 252.773 132.597 252.785 132.26 252.785Z" fill="black"/>
<path d="M201.355 184.618C202.24 183.398 201.913 181.744 200.749 180.844C200.393 180.57 200.045 180.289 199.696 180.008C198.75 179.199 197.856 178.353 196.994 177.456C196.815 177.254 196.64 177.052 196.471 176.845C196.722 176.713 196.975 176.583 197.228 176.453C197.124 176.508 197.019 176.559 196.915 176.615C202.027 174.022 207.253 171.654 212.291 168.917C213.55 168.231 214.798 167.516 216.008 166.739C216.922 166.149 217.823 165.554 218.704 164.913C220.303 163.749 221.697 162.357 222.947 160.83C224.074 159.455 224.901 157.879 225.564 156.236C226.247 154.538 226.477 152.607 226.077 150.815C225.575 148.552 224.281 146.465 222.889 144.632C222.027 143.495 221.162 142.359 220.238 141.272C219.694 140.632 219.166 139.968 218.592 139.359C218.007 138.739 217.424 138.118 216.838 137.498C215.969 136.573 215.044 135.678 214.105 134.826C213.057 133.871 212.019 132.908 210.95 131.977C208.542 129.878 206.119 127.81 203.579 125.872C201.237 124.083 198.806 122.417 196.371 120.76C195.553 120.205 194.74 119.64 193.887 119.136C193.178 118.718 192.469 118.267 191.698 117.972C190.322 117.446 188.73 118.167 188.212 119.54C187.689 120.918 188.403 122.496 189.776 123.023C190.285 123.272 190.768 123.565 191.254 123.855C193.659 125.408 196.001 127.05 198.332 128.71C200.574 130.304 202.694 132.039 204.813 133.789C206.623 135.362 208.412 136.949 210.188 138.564C211.751 139.987 213.211 141.516 214.661 143.054C216.094 144.739 217.479 146.444 218.818 148.203C219.306 148.93 219.78 149.653 220.2 150.425C220.354 150.738 220.496 151.052 220.626 151.373C220.698 151.591 220.76 151.81 220.816 152.033C220.832 152.149 220.849 152.265 220.865 152.381C220.87 152.488 220.874 152.595 220.874 152.702C220.863 152.825 220.851 152.951 220.839 153.076C220.781 153.38 220.712 153.678 220.63 153.978C220.505 154.324 220.37 154.663 220.226 155.002C220.01 155.453 219.78 155.888 219.529 156.32C219.18 156.852 218.806 157.356 218.409 157.854C217.958 158.369 217.489 158.857 216.994 159.331C216.255 159.982 215.483 160.584 214.682 161.156C212.23 162.836 209.614 164.241 206.983 165.617C203.086 167.581 199.145 169.454 195.246 171.41C194.138 171.965 193.018 172.509 192 173.218C191.53 173.546 191.149 174.113 190.898 174.617C190.657 175.1 190.499 175.662 190.513 176.204C190.527 176.78 190.594 177.366 190.822 177.903C191.089 178.528 191.405 179.116 191.814 179.662C193.42 181.802 195.478 183.593 197.584 185.225C198.035 185.575 198.578 185.738 199.12 185.738C199.977 185.736 200.839 185.329 201.355 184.618Z" fill="black"/>
<path d="M91.1628 83.8389C91.0768 83.7924 90.9862 83.7506 90.8956 83.7134C91.1837 84.0898 91.5718 84.3849 92.0156 84.5708C91.7902 84.2757 91.5114 84.0248 91.1628 83.8389Z" fill="black"/>
<path d="M90.626 88.0443C92.4059 87.8863 93.4377 85.7067 92.6546 84.1777C92.3316 83.5479 91.9156 82.974 91.5067 82.3977C90.7027 81.2265 89.9289 80.0298 89.2109 78.8052C88.8042 78.1128 88.4324 77.3994 88.0165 76.7092C87.5146 75.8797 86.929 75.0919 86.362 74.3042C85.5022 73.1075 83.6711 72.989 82.5627 73.8743C81.998 74.3228 81.6333 74.9897 81.5589 75.7054C81.4822 76.4327 81.7122 77.088 82.1328 77.6736C82.3141 77.9269 82.4953 78.1825 82.6766 78.4404C83.5573 79.7324 84.2706 81.1197 85.0886 82.4511C85.8229 83.6386 86.6036 84.7981 87.4007 85.9437C87.5192 86.1156 87.6354 86.2899 87.7469 86.4688C87.9398 86.9034 88.2465 87.2845 88.6346 87.5679C89.1295 87.9258 89.6826 88.0652 90.2681 88.0652C90.3867 88.0606 90.5051 88.0559 90.626 88.0443Z" fill="black"/>
<path d="M93.0554 87.8629C93.6991 87.2215 93.9221 86.2781 94.0569 85.4114C94.1545 84.7747 94.2242 84.1356 94.273 83.4966C94.3636 82.2674 94.4148 81.0358 94.4566 79.8042C94.5379 77.4666 94.5611 75.1243 94.6146 72.7866C94.6494 71.3134 93.2715 70.1144 91.8494 70.1469C91.1383 70.1632 90.4505 70.4652 89.9579 70.9811C89.449 71.5155 89.2259 72.1848 89.2097 72.9121C89.1492 75.5635 89.1074 78.2148 89.0191 80.8662C88.9564 82.1558 88.8867 83.4478 88.6984 84.7259C88.6961 84.7328 88.6961 84.7398 88.6938 84.7468C88.1616 85.7785 88.3731 87.1309 89.2328 87.9512C89.7534 88.4484 90.411 88.6878 91.0709 88.6878C91.789 88.6878 92.5093 88.4043 93.0554 87.8629Z" fill="black"/>
<path d="M91.1359 89.5666C92.1188 88.5372 92.1583 86.7131 91.0476 85.7441C89.8973 84.7379 88.5473 83.9502 87.2855 83.0974C85.8193 82.1098 84.3599 81.1152 82.9053 80.1114C80.1773 78.2338 77.4515 76.3563 74.7188 74.488C73.5035 73.6561 71.8258 73.8769 70.9428 75.0945C70.097 76.2633 70.3317 78.0387 71.5493 78.8682C74.1914 80.6761 76.8265 82.4909 79.4639 84.3057C80.9046 85.2956 82.3476 86.2855 83.7999 87.2638C85.0617 88.1143 86.3955 88.9043 87.5736 89.8664C87.5248 89.8269 87.4761 89.7874 87.4273 89.7455C87.9571 90.1638 88.5938 90.3846 89.2281 90.3846C89.9183 90.3869 90.6037 90.122 91.1359 89.5666Z" fill="black"/>
<path d="M77.0663 94.449C79.2552 94.1399 81.4279 93.7216 83.5982 93.2941C84.774 93.0617 85.9545 92.8224 87.1187 92.5249C88.1202 92.2716 89.0845 91.9161 90.0256 91.4955C90.9179 91.0935 91.6058 90.4684 91.8614 89.4925C92.2332 88.068 91.2665 86.5693 89.856 86.237C89.1287 86.065 88.4083 86.2091 87.8227 86.5762C87.8274 86.5693 87.8321 86.5623 87.8391 86.5553C87.9366 86.5065 88.0319 86.4554 88.1295 86.4066C87.702 86.6227 87.265 86.8086 86.8189 86.9759C85.894 87.278 84.953 87.4918 84.0072 87.7032C81.4325 88.2214 78.8579 88.7396 76.2576 89.1044C74.7984 89.3066 73.7713 90.7403 73.992 92.1833C74.1942 93.5264 75.3793 94.4745 76.6945 94.4745C76.8153 94.4745 76.9408 94.4652 77.0663 94.449Z" fill="black"/>
<path d="M93.6292 89.8404C95.3882 88.9481 96.8754 87.5144 98.337 86.2178C99.8521 84.8747 101.363 83.5292 102.843 82.1513C103.921 81.1451 103.774 79.3001 102.754 78.3288C102.239 77.8361 101.539 77.5643 100.826 77.5805C100.082 77.5968 99.4664 77.9198 98.9342 78.4171C98.6252 78.7052 98.3162 78.9887 98.0048 79.2745C98.0931 79.1932 98.1837 79.1095 98.2743 79.0259C97.1799 80.0228 96.0761 81.0057 94.97 81.9886C93.8779 82.9553 92.7834 83.9034 91.6122 84.7701C91.4751 84.8584 91.3357 84.9467 91.1916 85.0257C91.2544 84.9932 91.3148 84.9606 91.3775 84.9304C90.764 85.2627 90.2784 85.7298 90.0228 86.4013C89.7765 87.0543 89.7928 87.7956 90.0693 88.4346C90.4875 89.4012 91.5379 90.0844 92.5928 90.0844C92.9484 90.0821 93.3015 90.0077 93.6292 89.8404Z" fill="black"/>
</svg>
