<svg width="36" height="38" viewBox="0 0 36 38" fill="none" xmlns="http://www.w3.org/2000/svg">
<path d="M22.3244 32.2639C21.0542 31.2258 19.7215 30.2798 18.17 29.4828C17.4616 30.0363 16.6909 30.6372 15.9211 31.2397C15.4993 31.5699 15.0651 31.8857 14.6637 32.2387C14.3562 32.5085 14.0919 32.8268 13.8072 33.1228C13.7166 33.2174 13.632 33.3209 13.5285 33.3991C12.7315 34.0015 11.9043 34.5679 11.1385 35.2075C10.432 35.7971 9.61125 36.1872 8.85186 36.6817C7.96623 37.2589 6.99495 37.3961 5.98704 37.4723C5.76229 37.4896 5.54348 37.5857 5.2826 37.656C4.83161 36.6886 4.72172 35.5689 4.78508 34.4515C4.91676 32.1407 5.36874 29.8684 5.85932 27.6145C6.28457 25.6606 6.88753 23.7453 7.41128 21.8126C7.43999 21.7072 7.4593 21.5997 7.49346 21.4473C7.15881 21.1606 6.81723 20.8547 6.46179 20.5656C5.67665 19.926 4.88409 19.2953 4.09598 18.6597C3.92469 18.5216 3.74252 18.3919 3.59203 18.2325C2.74551 17.3364 1.85789 16.4721 1.08661 15.5147C0.670284 14.9978 0.422267 14.3305 0.17326 13.7013C0.0846478 13.4771 0.216822 13.1652 0.25296 12.8523C0.217812 12.8241 0.134157 12.7578 0 12.6513C0.0826721 12.6018 0.154451 12.5761 0.20346 12.5271C0.937114 11.791 1.8465 11.3529 2.80738 11.0172C4.18558 10.536 5.61626 10.2865 7.0603 10.0989C8.13107 9.9593 9.19938 9.79941 10.2697 9.65584C11.0107 9.55634 11.7533 9.46971 12.5647 9.36872C12.7236 9.06575 12.9077 8.72021 13.0869 8.3722C13.8226 6.94301 14.5493 5.50887 15.2943 4.08414C15.6617 3.38217 16.0478 2.68911 16.4527 2.00793C16.6191 1.72823 16.8725 1.501 17.0577 1.23022C17.2047 1.01586 17.3265 0.779233 17.4275 0.539138C17.5968 0.138153 17.9225 -0.0247162 18.3131 0.00300622C18.72 0.0322137 19.0096 0.233198 19.1933 0.660915C19.6096 1.63021 20.1071 2.56435 20.5547 3.52078C20.8715 4.198 21.1467 4.89452 21.466 5.57025C21.6863 6.03757 21.8388 6.53955 22.2358 6.92172C22.4136 7.09251 22.4957 7.37568 22.5873 7.62072C22.7551 8.06874 22.8977 8.52665 23.0705 9.03803C24.6398 9.05833 26.1803 9.06872 27.7209 9.10139C29.7031 9.14298 31.6887 9.18209 33.6421 9.55684C34.1015 9.64496 34.556 9.86723 34.9584 10.1152C35.3777 10.3732 35.6426 10.7548 35.6084 11.3236C35.5946 11.5593 35.8332 11.8098 36 12.138C35.3391 12.8741 34.9446 13.886 34.0386 14.5548C33.4302 15.0043 32.9723 15.6572 32.4446 16.2166C31.8288 16.8696 31.2164 17.526 30.5912 18.1696C29.706 19.081 28.8179 19.9894 27.9155 20.8829C27.661 21.1349 27.5843 21.3715 27.7298 21.7052C27.9135 22.1275 28.0818 22.5581 28.2273 22.9948C28.4486 23.6581 28.6575 24.3264 28.8471 24.9997C29.0075 25.5695 29.1318 26.1497 29.2739 26.7244C29.711 28.4907 30.1461 30.257 30.5882 32.0219C30.6951 32.4481 30.8332 32.8664 30.9431 33.2917C31.0253 33.6085 31.0768 33.9337 31.1585 34.2511C31.2139 34.4659 31.1283 34.5907 30.9441 34.6684C30.7219 34.7624 30.4946 34.8446 30.2733 34.9402C30.0446 35.0387 29.8194 35.1461 29.5288 35.2788C29.2793 35.2283 28.9402 35.1441 28.5966 35.0946C28.3075 35.053 28.0164 35.0842 27.8006 35.3144C27.508 35.6268 27.2031 35.5307 26.9085 35.3446C25.5897 34.5105 24.2724 33.6738 22.965 32.8219C22.7497 32.6813 22.5863 32.461 22.3997 32.2773C22.9175 32.4045 23.22 32.9912 23.9036 32.9709C23.3195 32.5006 22.7814 32.1253 22.069 31.8308C22.1353 32.0209 22.1457 32.0887 22.1804 32.1392C22.2155 32.1902 22.2754 32.2234 22.3244 32.2639ZM13.6399 12.5474C13.5562 12.8162 13.5067 13.1023 13.383 13.3513C12.4365 15.2548 11.5805 17.1968 10.8503 19.1933C10.8429 19.2141 10.787 19.2171 10.7513 19.229C10.7696 19.0953 10.787 18.9676 10.8048 18.8399C10.5028 19.4453 10.1177 19.9983 10.1177 20.7082C10.238 20.5225 10.3583 20.3374 10.4786 20.1517C10.4266 20.4824 10.2692 20.7968 10.5697 21.0799C10.8167 21.3126 11.0533 21.5587 11.3182 21.7695C11.7285 22.0968 12.1726 22.3824 12.5756 22.7175C12.8939 22.9819 13.1488 23.3235 13.4721 23.5799C14.1944 24.1527 14.9335 24.7051 15.6815 25.2433C16.2829 25.6764 16.9082 26.0769 17.4998 26.4764C19.9136 24.4824 22.2888 22.5626 24.4125 20.3146C24.4086 20.2824 24.4096 20.2166 24.3908 20.1572C24.117 19.3022 23.87 18.4369 23.5556 17.5973C23.2393 16.7518 23.0888 15.8424 22.5581 15.0756C22.3353 14.7538 22.2235 14.3568 22.0101 14.0266C21.8061 13.7107 21.5982 13.4231 21.5146 13.033C21.4507 12.7355 21.1413 12.4914 21.072 12.1934C20.9685 11.7484 20.674 11.6306 20.3121 11.6028C19.7438 11.5598 19.17 11.5177 18.6027 11.5494C17.3745 11.6177 16.1488 11.7256 14.9231 11.8316C14.1478 11.8984 14.1488 11.9103 13.6939 12.4741C13.685 12.4167 13.6756 12.3593 13.6493 12.1934C13.5355 12.44 13.4652 12.5924 13.3944 12.7449C13.4186 12.7588 13.4429 12.7721 13.4666 12.786C13.5241 12.7063 13.582 12.6266 13.6399 12.5474ZM6.10487 36.7758C8.04741 35.5382 15.2884 28.9204 15.8849 27.8516C15.6468 27.6977 15.4161 27.5264 15.1661 27.3898C13.9028 26.6997 12.8077 25.7863 11.729 24.8467C11.0672 24.2705 10.3796 23.724 9.63848 23.1101C9.49839 23.4715 9.32809 23.7631 9.2771 24.0745C9.18205 24.6512 8.96819 25.1348 8.5078 25.5101C8.42018 25.5814 8.37315 25.7388 8.36275 25.8616C8.33751 26.1586 8.27464 26.4571 8.4583 26.7452C8.60285 26.9724 8.60681 27.2551 8.31275 27.3531C7.96969 27.4675 7.90236 27.7294 7.84989 28.0066C7.74395 28.564 7.66227 29.1259 7.57069 29.6863C7.54594 29.8382 7.57415 30.0372 7.48801 30.1348C7.05138 30.6263 7.04594 31.264 6.86327 31.8402C6.3608 33.4214 6.27516 35.0659 6.10487 36.7758ZM1.46978 13.3528C3.72519 15.3434 5.61279 17.7038 8.23206 19.3651C9.26076 16.8627 10.2682 14.4132 11.3236 11.8459C9.60482 11.9845 7.98405 12.0791 6.37269 12.2563C5.04003 12.4028 3.71925 12.6543 2.39056 12.8414C2.05294 12.8895 1.73908 12.938 1.46978 13.3528ZM26.6318 18.5631C28.9555 16.5176 30.9996 14.2731 33.3634 12.2984C32.5738 12.2573 31.8545 12.2261 31.1367 12.1796C30.8971 12.1642 30.6214 12.2355 30.5258 11.8528C30.4966 11.737 30.1798 11.6929 29.9481 11.5969C29.9961 11.7801 30.0214 11.8766 30.0634 12.038C29.8689 11.9632 29.7125 11.9365 29.5971 11.8533C29.0422 11.4519 28.8308 11.4439 28.3174 11.7816C28.1585 11.886 27.9565 11.9721 27.7704 11.9796C27.3105 11.9979 26.8477 11.9776 26.3873 11.9509C25.7977 11.9167 25.21 11.8489 24.62 11.8241C24.4868 11.8187 24.3487 11.9301 24.1299 12.0226C24.4254 12.7637 24.7214 13.4652 24.9858 14.1786C25.2591 14.9167 25.4873 15.6716 25.7625 16.4087C26.0289 17.1201 26.3298 17.8186 26.6318 18.5631ZM25.11 23.27C23.4918 24.9517 21.6121 26.1744 20.1354 27.9046C20.2369 28.0397 20.3121 28.2066 20.4408 28.3006C22.2393 29.616 24.1922 30.6699 26.1506 31.755C26.1991 31.5907 26.2234 31.5085 26.2481 31.4258C26.4828 31.513 26.7071 31.5961 26.9254 31.6773C26.8699 30.9229 26.8645 30.2491 26.759 29.5917C26.6561 28.9506 26.4477 28.3264 26.2902 27.6937C25.9922 26.4992 25.7016 25.3027 25.3987 24.1091C25.3343 23.8576 25.2303 23.616 25.11 23.27ZM19.8522 9.06922C19.3878 7.24845 18.9567 5.55739 18.4992 3.76434C18.2032 4.28513 17.9552 4.69007 17.7374 5.11086C17.1933 6.16134 16.6503 7.21232 16.1369 8.27765C16.0235 8.51279 16.0369 8.80882 15.9929 9.06872C17.331 9.06922 18.575 9.06922 19.8522 9.06922Z" fill="black"/>
<path d="M8.07617 27.9808C8.10241 27.9016 8.12073 27.8477 8.13855 27.7932C8.1638 27.8298 8.18855 27.8665 8.21379 27.9031C8.17815 27.9229 8.14251 27.9432 8.07617 27.9808Z" fill="black"/>
</svg>
