<svg width="81" height="77" viewBox="0 0 81 77" fill="none" xmlns="http://www.w3.org/2000/svg">
<path d="M0.349665 49.5075C-0.779021 55.5247 0.850129 61.486 4.93531 66.2918C8.70046 70.7217 14.1935 73.1616 20.404 73.1616C25.4299 73.1616 30.4977 71.5991 34.7601 68.9046C39.1106 74.0036 46.3337 76.6304 53.2723 76.6304C57.0858 76.6304 60.721 75.8636 63.7838 74.4127C71.4773 70.7689 77.6416 63.3149 79.8711 54.9587C81.7343 47.9697 80.6271 41.0483 76.7503 35.4682C74.4456 32.152 70.4721 29.3426 66.1281 27.6942C66.9776 22.5007 65.9649 17.42 63.1115 12.9375C58.1092 5.07963 48.0047 0.00107208 37.3687 -4.85524e-06L37.3665 -4.85547e-06C34.6871 -5.15533e-06 32.0839 0.336115 29.63 0.997652C19.9272 3.61479 12.18 10.2119 8.90773 18.6453C6.72661 24.2684 6.86299 30.1545 9.02264 34.9323C4.51971 38.9252 1.35593 44.1358 0.349665 49.5075Z" fill="#FCD800"/>
<path d="M9.58295 62.3419C16.6966 70.7109 30.9839 66.9618 36.8486 58.7904C37.7668 69.4855 52.6824 72.921 61.1728 68.9003C71.6263 63.9495 79.0127 49.4162 71.7412 38.9487C69.2294 35.3328 63.1832 32.2153 58.0993 32.2185C58.2647 32.1186 58.4118 31.9651 58.5192 31.7352C66.5542 14.5343 46.0188 2.89415 31.2192 6.88696C24.0776 8.81357 17.3291 13.8051 14.596 20.8511C12.5448 26.138 13.1333 32.7426 17.5686 36.3466C8.42527 41.2877 1.68858 53.0546 9.58295 62.3419ZM20.5444 37.5279C21.3681 37.1789 21.2682 35.8623 20.5444 35.4821C14.5702 32.342 15.047 24.4799 17.9885 19.3659C20.9289 14.2551 26.2405 10.7284 31.8603 9.21413C44.3703 5.84526 63.5934 15.1787 56.4283 30.512C56.0674 31.2842 56.5378 32.0005 57.1424 32.2572C53.5759 32.5536 50.657 34.5607 50.0782 39.2688C49.5702 43.398 52.8446 47.6163 57.151 47.7033C60.1344 47.7634 62.774 45.2118 60.2482 42.6301C59.8519 42.2252 59.0819 42.7751 59.4395 43.2541C58.9509 43.8211 58.487 44.285 58.0445 44.6523C56.5421 45.0915 54.7637 44.6104 53.6801 43.399C52.7415 42.3509 52.4118 41.1181 52.3517 39.8358C52.4762 39.5802 52.6234 39.3192 52.8156 39.0497C53.7574 35.6883 55.7324 34.3835 59.2151 34.3491C62.5356 34.3169 65.854 35.8806 68.179 38.211C73.6474 43.689 73.2898 52.2889 69.4097 58.5756C65.8733 64.306 59.4374 68.9636 52.4537 68.7886C44.4713 68.5888 40.0231 63.129 38.2501 55.9456C38.0493 55.1305 36.9796 55.4054 36.8926 56.1293C36.8712 56.3129 36.8658 56.4879 36.8508 56.6683C31.3083 64.4897 16.034 69.2203 10.2273 59.3617C4.81691 50.1776 12.2613 41.0375 20.5444 37.5279Z" fill="#1D1D1B"/>
</svg>
