<svg width="430" height="560" viewBox="0 0 430 560" fill="none" xmlns="http://www.w3.org/2000/svg">
<path d="M410.713 36.3968C410.713 36.3968 345.098 34.4132 334.351 35.1728C323.602 35.9323 233.564 34.7278 209.148 32.2349C184.733 29.7419 84.9878 22.9103 84.9878 22.9103C84.9878 22.9103 55.1411 30.5944 42.5681 49.5657C29.9951 68.537 20.2523 80.4863 15.6336 101.649C11.0163 122.813 0.631256 226.986 2.08887 248.689C3.54648 270.391 6.96399 333.067 7.1011 354.216C7.23972 375.366 2.35269 531.247 2.35269 531.247L2.08887 539.508C2.08887 539.508 201.316 553.604 226.203 554.572C251.09 555.54 364.435 561.441 379.073 557.819C393.712 554.196 427.938 553.115 427.938 553.115C427.938 553.115 415.455 452.247 414.074 438.611C412.692 424.975 408.087 338.451 407.166 325.284C406.245 312.118 402.1 206.785 400.718 198.791C399.337 190.796 403.021 116.97 403.021 110.857C403.021 104.745 410.713 36.3968 410.713 36.3968Z" fill="white"/>
<path d="M14.6992 79.7339C18.6875 73.0971 24.9188 69.4355 30.7045 64.6459C31.4944 63.9927 32.2695 63.323 33.0355 62.6443C33.1846 61.8728 33.4991 61.1012 34.0684 60.3761C36.9016 56.773 39.7349 53.1699 42.5681 49.5668C43.0302 45.8139 46.4312 43.6296 49.9665 43.1247C50.8517 42.2902 51.7356 41.4573 52.6209 40.6228C53.6925 39.5905 54.7804 38.5688 55.8744 37.553C56.9877 36.3395 58.0563 35.0841 59.0907 33.7941C60.3873 31.3207 62.0685 28.9685 64.2147 26.7782C68.0033 22.91 74.9142 27.9797 71.8097 32.7619C70.7218 34.4383 69.5816 36.0594 68.4042 37.6414C69.0346 38.9239 69.1851 40.4939 68.4623 42.1299C67.3356 44.6783 66.1492 47.1908 64.9345 49.6867C64.8466 55.6434 66.3191 61.8683 67.8721 67.5613C69.054 71.897 64.7423 74.4574 61.52 73.4296C60.985 73.6004 60.3784 73.6798 59.6868 73.6259C46.7099 72.6296 31.2127 74.9713 22.2957 85.7176C18.7217 90.0233 11.8599 84.4592 14.6992 79.7339Z" fill="#F8F9FA"/>
<path d="M4.57208 334.34C3.76279 307.578 1.87 280.863 0.652344 254.119C-0.841034 221.291 1.9505 188.96 5.39185 156.337C7.54398 135.936 9.72443 115.537 11.8482 95.1323C11.8706 94.9271 11.9212 94.7443 11.9853 94.569C13.1806 86.9478 14.1047 80.0338 18.8322 73.5752C27.408 61.8565 38.2417 51.3843 47.8831 40.5436C55.6093 31.8527 63.2357 22.6854 75.29 20.9715C75.7371 20.6779 76.2245 20.6464 76.6731 20.7993C90.51 19.3535 105.798 22.9851 119.583 24.1911C150.256 26.8743 180.989 28.8294 211.636 31.8048C226.677 33.2655 241.55 34.8041 256.685 34.7427C272.1 34.6798 287.493 34.0625 302.913 34.1344C320.338 34.2153 337.524 32.3471 354.91 31.7254C372.891 31.0827 390.864 31.9516 408.725 34.0685C409.665 33.5696 410.917 33.7239 411.475 34.536C413.093 35.3734 413.111 38.0102 411.482 38.4447C397.437 173.22 407.975 308.705 417.01 443.441C419.466 480.056 422.593 516.555 429.951 552.557C430.218 553.862 429.368 555.236 427.938 555.215C398.912 554.801 370.134 558.974 341.156 559.786C312.493 560.589 283.616 558.957 254.977 557.796C200.959 555.609 146.908 553.977 92.9617 550.322C62.5963 548.265 32.2727 545.555 2.08911 541.609C0.996643 541.466 -0.0376892 540.762 0.00106812 539.51C2.11743 471.118 6.64075 402.794 4.57208 334.34ZM28.6808 68.432C23.9905 73.7145 19.2645 78.7858 17.6608 85.8707C17.5565 86.3336 17.473 86.798 17.3806 87.2625C29.7553 73.6651 48.6015 67.5735 66.5504 72.065C63.9541 56.4811 63.4056 40.2215 71.3777 26.5043C67.9826 27.5815 64.7469 29.2984 61.7527 31.9306C49.6 42.6156 39.4176 56.3403 28.6808 68.432ZM163.225 549.949C218.584 552.4 274.072 555.251 329.488 555.708C361.543 555.971 393.356 550.837 425.408 551.007C412.827 487.862 411.233 422.533 407.153 358.431C402.789 289.867 399.458 221.161 400.62 152.437C401.266 114.247 403.367 76.0936 407.34 38.1046C392.861 36.4401 378.315 35.5907 363.734 35.7255C348.942 35.8633 334.29 37.724 319.525 38.1885C305.558 38.6274 291.583 38.1001 277.613 38.4986C263.296 38.9076 248.96 39.3151 234.658 38.2754C205.919 36.1884 177.218 33.0093 148.479 30.7576C133.891 29.6145 119.303 28.4384 104.739 27.0241C95.6846 26.1447 86.0417 24.1357 77.1202 25.2653C66.6159 39.4335 68.1391 57.9208 71.1914 74.4157C71.4657 75.8943 70.254 77.5259 68.622 76.9985C49.8668 70.9384 29.1055 77.6787 17.4402 93.6761C17.0959 94.148 16.6518 94.4072 16.1883 94.5166C16.0854 95.2147 15.9811 95.9144 15.8693 96.611C10.6678 146.028 2.61072 196.076 4.48267 245.827C5.45886 271.799 7.32788 297.729 8.3801 323.699C9.74979 357.464 9.50684 391.278 8.50827 425.05C7.39792 462.606 5.43353 500.129 4.2457 537.682C56.9864 544.476 110.128 547.598 163.225 549.949Z" fill="black"/>
<g opacity="0.15">
<path d="M212.548 80.8052C214.825 83.1154 217.46 85.2413 220.748 85.7791C224.016 86.3139 226.587 84.7738 229.216 83.03C232.428 80.8996 235.416 86.0862 232.226 88.2046C223.748 93.8287 215.374 92.1868 208.333 85.0435C205.629 82.2989 209.843 78.0605 212.548 80.8052Z" fill="#6E6A5F"/>
</g>
<path d="M173.676 53.925C175.563 52.5167 177.171 51.6807 179.475 51.1609C179.51 51.1534 179.541 51.1609 179.575 51.1534C182.37 49.5249 185.236 48.3578 188.611 47.5473C189.661 47.2956 190.614 47.6896 191.257 48.3638C192.163 48.1585 193.087 47.9787 194.051 47.8409C194.09 47.8364 194.126 47.8379 194.165 47.8334C193.987 46.9555 193.819 46.0776 193.679 45.1682C193.665 45.0768 193.667 44.9839 193.662 44.8925C193.402 44.6783 193.173 44.4041 193.002 44.052C191.29 40.5284 190.586 37.0346 190.877 33.448C186.228 33.6907 181.653 33.2922 177.173 31.0569C174.371 29.6592 175.156 26.0606 177.237 24.5939C175.66 23.3414 174.904 21.4177 175.648 18.5847C175.679 18.4679 175.737 18.36 175.776 18.2446C175.642 16.9457 176.028 15.7157 176.77 14.6445C177.116 12.0812 178.673 9.57323 181.535 8.20541C182.465 7.76045 183.584 7.49828 184.781 7.3979C188.762 3.05471 195.104 -0.410551 199.612 1.85917C200.506 1.56853 201.421 1.31684 202.377 1.15803C205.472 0.644161 209.426 0.964771 211.154 3.43225C212.033 3.69293 212.866 4.048 213.611 4.53041C214.131 4.86599 214.558 5.24354 214.944 5.63905C218.539 7.62262 220.449 11.771 217.345 16.1727C216.998 16.6656 216.57 17.1405 216.108 17.6079C216.947 18.4319 217.37 19.7008 216.845 21.2874C215.552 25.1946 213.377 27.8419 210.613 29.5753C212.353 32.0967 213.793 34.9432 214.564 37.6699C214.991 37.4586 215.425 37.2803 215.862 37.147C217.558 35.6413 219.947 34.6211 222.351 34.2795C225.712 32.7664 229.36 32.2135 232.511 33.7162C233.244 33.9559 233.937 34.305 234.571 34.7484C236.322 34.6765 237.996 35.529 239.117 37.7822C240.592 40.7471 239.675 43.5921 237.635 45.757C236.572 47.5473 234.125 49.6672 231.502 50.8807C229.278 56.1977 219.586 58.5333 212.344 59.5146C210.334 60.7252 208.152 61.654 205.726 62.3626C205.091 62.5484 204.512 62.4825 204.015 62.2623C202.731 62.514 201.444 62.7417 200.146 62.929C196.947 63.8668 193.793 64.2548 190.197 64.093C189.729 64.0721 189.312 63.9327 188.95 63.72C186.523 63.9762 184.033 63.9192 182.273 62.9964C180.75 63.1447 179.258 62.7911 177.939 61.9057C175.575 61.254 173.687 59.3948 172.837 56.5752C172.582 55.7363 172.937 54.4778 173.676 53.925ZM205.049 23.6096C205.155 23.6845 205.261 23.7789 205.366 23.8598C206.195 23.5826 206.975 23.2185 207.663 22.7122C206.808 23.0388 205.939 23.3459 205.049 23.6096Z" fill="#F8F9FA"/>
<path d="M171.424 22.3048C171.314 21.7221 171.445 21.2247 171.698 20.8292C169.931 15.3534 176.451 8.68351 184.356 4.55906C184.897 4.2774 185.398 4.195 185.829 4.23695C196.974 -0.166162 210.669 -2.41641 218.4 3.9493C220.239 5.46395 221.218 7.20182 221.497 9.03109C221.558 9.16292 221.639 9.2678 221.674 9.4281C224.21 20.5011 219.574 27.2233 211.754 31.0946C212.729 32.9179 213.692 34.7471 214.62 36.5899C222.752 33.5726 240.798 28.2046 241.763 39.0124C242.749 50.0389 225.858 57.3754 216.219 60.4647C215.723 60.6235 215.222 60.7733 214.723 60.9261C214.775 61.0145 214.842 61.0864 214.88 61.1943L214.927 61.3336C214.562 61.3471 214.184 61.3905 213.783 61.4894C213.288 61.6108 212.805 61.7621 212.318 61.9044C212.258 61.8984 212.189 61.9119 212.127 61.9089L212.109 61.8565C212.091 61.8025 212.103 61.7591 212.091 61.7051C211.018 62.0093 209.94 62.2984 208.857 62.5711C208.875 62.6205 208.896 62.667 208.912 62.7149C208.033 63.061 207.14 63.3666 206.231 63.6168C206.185 63.4865 206.132 63.3576 206.086 63.2273C201.956 64.1456 197.776 64.8033 193.594 65.0685C187.508 65.4536 178.582 65.6543 173.944 61.9448C164.817 54.6458 184.997 47.8711 191.865 45.8515C190.789 42.8117 190.293 39.2776 190.066 35.8902C181.115 36.2857 173.606 33.8317 171.424 22.3048ZM212.604 4.6879C204.588 0.911018 193.804 3.81896 184.878 7.75764C184.674 7.84753 184.478 7.90596 184.286 7.95091C180.507 10.1217 177.31 12.7031 176.077 15.9511C174.233 20.8067 178.661 23.8405 184.326 25.027C191.378 26.5042 200.609 25.2472 207.626 21.8284C216.753 17.3804 221.279 8.7749 212.604 4.6879ZM212.78 39.0858C212.508 38.8656 212.344 38.5615 212.318 38.2513C212.169 37.9817 212.021 37.712 211.884 37.4423C210.993 35.697 210.076 33.9636 209.151 32.2347C206.507 33.2594 203.606 34.0355 200.539 34.5778C198.038 35.0183 195.539 35.4198 193.109 35.6715C193.308 37.5142 193.58 39.3465 193.978 41.1623C194.376 42.9765 194.64 45.3152 195.586 46.9737C198.993 52.9438 203.086 52.3266 208.732 49.7722C211.529 48.5048 213.474 47.6059 214.175 44.8283C214.704 42.7279 213.778 40.8821 212.78 39.0858ZM180.329 52.8644L180.189 52.8974C179.156 53.1431 178.447 53.6525 177.992 54.2682L177.708 54.4285L177.277 54.5319C173.818 55.3559 173.767 58.8931 175.907 60.2085C176.272 60.4796 176.711 60.6774 177.177 60.8017C177.567 61.007 178.015 61.1793 178.579 61.2827C180.817 62.3044 184.341 62.5231 186.73 62.655C194.895 63.1029 203.204 61.6377 211.17 59.4279C218.886 57.2885 227.178 54.469 233.146 49.2733C234.894 47.7527 237.124 45.6658 237.774 43.5653C238.444 42.7219 238.674 41.9398 238.513 41.2147C238.577 40.9211 238.635 40.6259 238.637 40.3308C238.638 38.8611 237.941 37.6071 236.836 36.7906C236.446 36.2423 235.946 35.7584 235.313 35.3749C234.08 34.6303 232.556 34.5583 231.1 34.9074C230.505 34.9149 229.906 34.9883 229.317 35.1336C229.278 35.1366 229.24 35.1471 229.201 35.1501C224.987 35.2865 219.64 37.2341 215.744 38.7457C216.667 40.5091 217.57 42.3997 217.448 44.3519C217.145 49.1565 211.552 51.5416 206.979 53.0233C199.432 55.4698 195.193 52.7566 192.823 48.1018C188.978 49.1865 183.708 50.5947 180.329 52.8644ZM191.899 33.2519C197.867 32.7471 205.438 31.5306 210.069 27.2608C213.59 24.9686 216.343 21.9737 217.634 18.3916C215.504 20.6419 212.646 22.6839 209.341 24.2405C208.99 24.4068 208.623 24.5566 208.262 24.7139C208.274 24.7349 208.285 24.7558 208.297 24.7768C207.912 24.9221 207.538 25.0899 207.162 25.2562C205.201 25.887 203.165 26.4892 201.098 27.0151C200.88 27.0675 200.664 27.1229 200.448 27.1769C199.157 27.4945 197.858 27.7761 196.561 28.0188C196.461 27.9844 196.354 27.9634 196.232 27.9709C194.103 28.1117 192 28.323 189.898 28.6151C189.898 28.6031 189.898 28.5882 189.898 28.5762C185.119 28.5941 180.614 27.7866 177.019 26.0323C177.863 27.2323 178.945 28.2256 180.164 29.0706C180.335 29.4436 180.679 29.7792 181.085 30.0773C182.915 32.6197 190.002 33.4123 191.899 33.2519Z" fill="black"/>
<path d="M207.877 61.774C208.203 62.168 208.528 62.562 208.853 62.9561C208.871 62.4062 209.311 62.0272 209.797 62.0377C209.865 61.8504 209.987 61.6856 210.186 61.5538C210.288 61.4849 210.391 61.416 210.494 61.3455C210.68 61.2197 210.907 61.2137 211.127 61.2542C211.545 60.9395 212.239 60.947 212.587 61.4774C212.691 61.6377 212.77 61.804 212.873 61.9658C213.007 61.5478 213.414 61.2631 213.825 61.2572C213.746 60.9935 213.667 60.7283 213.587 60.4646C213.226 59.2646 215.067 58.7507 215.426 59.9463L223.699 87.5095C224.042 88.6511 222.568 89.0721 221.957 88.2601C215.98 80.3258 210.789 71.8926 206.379 62.9531C205.921 62.0257 207.138 60.8811 207.877 61.774Z" fill="black"/>
</svg>
