<svg width="104" height="99" viewBox="0 0 104 99" fill="none" xmlns="http://www.w3.org/2000/svg">
<path d="M103.55 34.9308C105.004 27.1814 102.906 19.504 97.6447 13.3148C92.7957 7.60966 85.7213 4.46732 77.723 4.46732C71.2503 4.46732 64.7235 6.47967 59.2341 9.94979C53.6313 3.38298 44.3288 0 35.3928 0C30.4815 0 25.7999 0.987514 21.8554 2.85604C11.9471 7.54879 4.00825 17.1486 1.137 27.9103C-1.26262 36.9113 0.163309 45.8252 5.15618 53.0116C8.12425 57.2825 13.2416 60.9006 18.8361 63.0236C17.7421 69.7121 19.0463 76.2554 22.7212 82.0284C29.1635 92.1483 42.1768 98.6888 55.8747 98.6902H55.8774C59.3282 98.6902 62.6808 98.2573 65.8411 97.4053C78.3371 94.0348 88.3145 85.5386 92.5287 74.6773C95.3377 67.4356 95.1621 59.855 92.3808 53.7018C98.18 48.5595 102.255 41.8489 103.55 34.9308Z" fill="#FCD800"/>
<path d="M91.6596 18.4018C82.4982 7.62358 64.0979 12.4519 56.545 22.9756C55.3624 9.20167 36.153 4.77724 25.2184 9.95544C11.7557 16.3314 2.24292 35.0485 11.6077 48.5292C14.8427 53.186 22.6293 57.2011 29.1768 57.1969C28.9638 57.3255 28.7743 57.5233 28.636 57.8193C18.2879 79.9719 44.7349 94.9629 63.795 89.8207C72.9924 87.3395 81.6836 80.911 85.2035 71.8367C87.8451 65.0278 87.0872 56.5219 81.3751 51.8804C93.1506 45.5169 101.827 30.3626 91.6596 18.4018ZM77.5427 50.359C76.4819 50.8085 76.6105 52.5042 77.5427 52.9938C85.2367 57.0378 84.6226 67.1633 80.8344 73.7494C77.0475 80.3315 70.2069 84.8735 62.9693 86.8236C46.8579 91.1623 22.101 79.142 31.3288 59.3946C31.7936 58.4002 31.1878 57.4777 30.4091 57.1471C35.0023 56.7654 38.7615 54.1804 39.507 48.1171C40.1611 42.7992 35.9441 37.3665 30.398 37.2544C26.5559 37.177 23.1563 40.4632 26.4093 43.7881C26.9197 44.3095 27.9113 43.6013 27.4507 42.9845C28.08 42.2542 28.6775 41.6567 29.2473 41.1837C31.1822 40.6181 33.4726 41.2377 34.8681 42.7978C36.0769 44.1476 36.5015 45.7354 36.579 47.3868C36.4186 47.716 36.2291 48.052 35.9815 48.3992C34.7685 52.7282 32.2251 54.4086 27.7398 54.4529C23.4633 54.4944 19.1897 52.4806 16.1953 49.4794C9.15275 42.4243 9.61332 31.3488 14.6103 23.2523C19.1648 15.8722 27.4535 9.87385 36.4476 10.0993C46.7279 10.3565 52.4566 17.388 54.74 26.6394C54.9987 27.6891 56.3762 27.3351 56.4882 26.4029C56.5159 26.1664 56.5228 25.941 56.5422 25.7086C63.6802 15.6357 83.3515 9.54327 90.8298 22.2398C97.7977 34.0678 88.2103 45.8392 77.5427 50.359Z" fill="#1D1D1B"/>
</svg>
