<svg width="430" height="560" viewBox="0 0 430 560" fill="none" xmlns="http://www.w3.org/2000/svg">
<path d="M19.287 36.3968C19.287 36.3968 84.9018 34.4132 95.6491 35.1728C106.398 35.9323 196.436 34.7278 220.852 32.2349C245.267 29.7419 345.012 22.9103 345.012 22.9103C345.012 22.9103 374.859 30.5944 387.432 49.5657C400.005 68.537 409.748 80.4863 414.366 101.649C418.984 122.813 429.369 226.986 427.911 248.689C426.454 270.391 423.036 333.067 422.899 354.216C422.76 375.366 427.647 531.247 427.647 531.247L427.911 539.508C427.911 539.508 228.684 553.604 203.797 554.572C178.91 555.54 65.5654 561.441 50.9267 557.819C36.288 554.196 2.0625 553.115 2.0625 553.115C2.0625 553.115 14.5446 452.247 15.9262 438.611C17.3078 424.975 21.9131 338.451 22.8342 325.284C23.7553 312.118 27.9001 206.785 29.2817 198.791C30.6632 190.796 26.979 116.97 26.979 110.857C26.979 104.745 19.287 36.3968 19.287 36.3968Z" fill="white"/>
<path d="M415.301 79.7339C411.313 73.0971 405.081 69.4355 399.295 64.6459C398.506 63.9927 397.731 63.323 396.964 62.6443C396.815 61.8728 396.501 61.1012 395.932 60.3761C393.098 56.773 390.265 53.1699 387.432 49.5668C386.97 45.8139 383.569 43.6296 380.034 43.1247C379.148 42.2902 378.264 41.4573 377.379 40.6228C376.308 39.5905 375.22 38.5688 374.126 37.553C373.012 36.3395 371.944 35.0841 370.909 33.7941C369.613 31.3207 367.932 28.9685 365.785 26.7782C361.997 22.91 355.086 27.9797 358.19 32.7619C359.278 34.4383 360.418 36.0594 361.596 37.6414C360.965 38.9239 360.815 40.4939 361.538 42.1299C362.664 44.6783 363.851 47.1908 365.065 49.6867C365.153 55.6434 363.681 61.8683 362.128 67.5613C360.946 71.897 365.258 74.4574 368.48 73.4296C369.015 73.6004 369.622 73.6798 370.313 73.6259C383.29 72.6296 398.787 74.9713 407.704 85.7176C411.278 90.0233 418.14 84.4592 415.301 79.7339Z" fill="#F8F9FA"/>
<path d="M425.428 334.34C426.237 307.578 428.13 280.863 429.348 254.119C430.841 221.291 428.049 188.96 424.608 156.337C422.456 135.936 420.276 115.537 418.152 95.1323C418.129 94.9271 418.079 94.7443 418.015 94.569C416.819 86.9478 415.895 80.0338 411.168 73.5752C402.592 61.8565 391.758 51.3843 382.117 40.5436C374.391 31.8527 366.764 22.6854 354.71 20.9715C354.263 20.6779 353.775 20.6464 353.327 20.7993C339.49 19.3535 324.202 22.9851 310.417 24.1911C279.744 26.8743 249.011 28.8294 218.364 31.8048C203.323 33.2655 188.45 34.8041 173.315 34.7427C157.9 34.6798 142.507 34.0625 127.087 34.1344C109.662 34.2153 92.4758 32.3471 75.0903 31.7254C57.1087 31.0827 39.136 31.9516 21.275 34.0685C20.3346 33.5696 19.0827 33.7239 18.5252 34.536C16.9067 35.3734 16.8888 38.0102 18.5178 38.4447C32.5633 173.22 22.0247 308.705 12.9899 443.441C10.5337 480.056 7.40687 516.555 0.0487723 552.557C-0.218009 553.862 0.631515 555.236 2.0623 555.215C31.0878 554.801 59.8659 558.974 88.8437 559.786C117.507 560.589 146.384 558.957 175.023 557.796C229.041 555.609 283.092 553.977 337.038 550.322C367.404 548.265 397.727 545.555 427.911 541.609C429.003 541.466 430.038 540.762 429.999 539.51C427.883 471.118 423.359 402.794 425.428 334.34ZM401.319 68.432C406.01 73.7145 410.736 78.7858 412.339 85.8707C412.444 86.3336 412.527 86.798 412.619 87.2625C400.245 73.6651 381.399 67.5735 363.45 72.065C366.046 56.4811 366.594 40.2215 358.622 26.5043C362.017 27.5815 365.253 29.2984 368.247 31.9306C380.4 42.6156 390.582 56.3403 401.319 68.432ZM266.775 549.949C211.416 552.4 155.928 555.251 100.512 555.708C68.4566 555.971 36.644 550.837 4.59151 551.007C17.1735 487.862 18.7667 422.533 22.8474 358.431C27.2113 289.867 30.5423 221.161 29.3798 152.437C28.7345 114.247 26.633 76.0936 22.6596 38.1046C37.1388 36.4401 51.6851 35.5907 66.2657 35.7255C81.0579 35.8633 95.71 37.724 110.475 38.1885C124.442 38.6274 138.417 38.1001 152.387 38.4986C166.704 38.9076 181.04 39.3151 195.342 38.2754C224.081 36.1884 252.782 33.0093 281.521 30.7576C296.109 29.6145 310.697 28.4384 325.261 27.0241C334.315 26.1447 343.958 24.1357 352.88 25.2653C363.384 39.4335 361.861 57.9208 358.809 74.4157C358.534 75.8943 359.746 77.5259 361.378 76.9985C380.133 70.9384 400.894 77.6787 412.56 93.6761C412.904 94.148 413.348 94.4072 413.812 94.5166C413.915 95.2147 414.019 95.9144 414.131 96.611C419.332 146.028 427.389 196.076 425.517 245.827C424.541 271.799 422.672 297.729 421.62 323.699C420.25 357.464 420.493 391.278 421.492 425.05C422.602 462.606 424.566 500.129 425.754 537.682C373.014 544.476 319.872 547.598 266.775 549.949Z" fill="black"/>
<g opacity="0.15">
<path d="M217.452 80.8052C215.175 83.1154 212.54 85.2413 209.252 85.7791C205.984 86.3139 203.413 84.7738 200.784 83.03C197.572 80.8996 194.584 86.0862 197.774 88.2046C206.252 93.8287 214.626 92.1868 221.667 85.0435C224.371 82.2989 220.157 78.0605 217.452 80.8052Z" fill="#6E6A5F"/>
</g>
<path d="M256.324 53.925C254.437 52.5167 252.829 51.6807 250.525 51.1609C250.49 51.1534 250.459 51.1609 250.425 51.1534C247.63 49.5249 244.764 48.3578 241.389 47.5473C240.339 47.2956 239.386 47.6896 238.743 48.3638C237.837 48.1585 236.913 47.9787 235.949 47.8409C235.91 47.8364 235.874 47.8379 235.835 47.8334C236.013 46.9555 236.181 46.0776 236.321 45.1682C236.335 45.0768 236.333 44.9839 236.338 44.8925C236.598 44.6783 236.827 44.4041 236.998 44.052C238.71 40.5284 239.414 37.0346 239.123 33.448C243.772 33.6907 248.347 33.2922 252.827 31.0569C255.629 29.6592 254.844 26.0606 252.763 24.5939C254.34 23.3414 255.096 21.4177 254.352 18.5847C254.321 18.4679 254.263 18.36 254.224 18.2446C254.358 16.9457 253.972 15.7157 253.23 14.6445C252.884 12.0812 251.327 9.57323 248.465 8.20541C247.535 7.76045 246.416 7.49828 245.219 7.3979C241.238 3.05471 234.896 -0.410551 230.388 1.85917C229.494 1.56853 228.579 1.31684 227.623 1.15803C224.528 0.644161 220.574 0.964771 218.846 3.43225C217.967 3.69293 217.134 4.048 216.389 4.53041C215.869 4.86599 215.442 5.24354 215.056 5.63905C211.461 7.62262 209.551 11.771 212.655 16.1727C213.002 16.6656 213.43 17.1405 213.892 17.6079C213.053 18.4319 212.63 19.7008 213.155 21.2874C214.448 25.1946 216.623 27.8419 219.387 29.5753C217.647 32.0967 216.207 34.9432 215.436 37.6699C215.009 37.4586 214.575 37.2803 214.138 37.147C212.442 35.6413 210.053 34.6211 207.649 34.2795C204.288 32.7664 200.64 32.2135 197.489 33.7162C196.756 33.9559 196.063 34.305 195.429 34.7484C193.678 34.6765 192.004 35.529 190.883 37.7822C189.408 40.7471 190.325 43.5921 192.365 45.757C193.428 47.5473 195.875 49.6672 198.498 50.8807C200.722 56.1977 210.414 58.5333 217.656 59.5146C219.666 60.7252 221.848 61.654 224.274 62.3626C224.909 62.5484 225.488 62.4825 225.985 62.2623C227.269 62.514 228.556 62.7417 229.854 62.929C233.053 63.8668 236.207 64.2548 239.803 64.093C240.271 64.0721 240.688 63.9327 241.05 63.72C243.477 63.9762 245.967 63.9192 247.727 62.9964C249.25 63.1447 250.742 62.7911 252.061 61.9057C254.425 61.254 256.313 59.3948 257.163 56.5752C257.418 55.7363 257.063 54.4778 256.324 53.925ZM224.951 23.6096C224.845 23.6845 224.739 23.7789 224.634 23.8598C223.805 23.5826 223.025 23.2185 222.337 22.7122C223.192 23.0388 224.061 23.3459 224.951 23.6096Z" fill="#F8F9FA"/>
<path d="M258.576 22.3048C258.686 21.7221 258.555 21.2247 258.302 20.8292C260.069 15.3534 253.549 8.68351 245.644 4.55906C245.103 4.2774 244.602 4.195 244.171 4.23695C233.026 -0.166162 219.331 -2.41641 211.6 3.9493C209.761 5.46395 208.782 7.20182 208.503 9.03109C208.442 9.16292 208.361 9.2678 208.326 9.4281C205.79 20.5011 210.426 27.2233 218.246 31.0946C217.271 32.9179 216.308 34.7471 215.38 36.5899C207.248 33.5726 189.202 28.2046 188.237 39.0124C187.251 50.0389 204.142 57.3754 213.781 60.4647C214.277 60.6235 214.778 60.7733 215.277 60.9261C215.225 61.0145 215.158 61.0864 215.12 61.1943L215.073 61.3336C215.438 61.3471 215.816 61.3905 216.217 61.4894C216.712 61.6108 217.195 61.7621 217.682 61.9044C217.742 61.8984 217.811 61.9119 217.873 61.9089L217.891 61.8565C217.909 61.8025 217.897 61.7591 217.909 61.7051C218.982 62.0093 220.06 62.2984 221.143 62.5711C221.125 62.6205 221.104 62.667 221.088 62.7149C221.967 63.061 222.86 63.3666 223.769 63.6168C223.815 63.4865 223.868 63.3576 223.914 63.2273C228.044 64.1456 232.224 64.8033 236.406 65.0685C242.492 65.4536 251.418 65.6543 256.056 61.9448C265.183 54.6458 245.003 47.8711 238.135 45.8515C239.211 42.8117 239.707 39.2776 239.934 35.8902C248.885 36.2857 256.394 33.8317 258.576 22.3048ZM217.396 4.6879C225.412 0.911018 236.196 3.81896 245.122 7.75764C245.326 7.84753 245.522 7.90596 245.714 7.95091C249.493 10.1217 252.69 12.7031 253.923 15.9511C255.767 20.8067 251.339 23.8405 245.674 25.027C238.622 26.5042 229.391 25.2472 222.374 21.8284C213.247 17.3804 208.721 8.7749 217.396 4.6879ZM217.22 39.0858C217.492 38.8656 217.656 38.5615 217.682 38.2513C217.831 37.9817 217.979 37.712 218.116 37.4423C219.007 35.697 219.924 33.9636 220.849 32.2347C223.493 33.2594 226.394 34.0355 229.461 34.5778C231.962 35.0183 234.461 35.4198 236.891 35.6715C236.692 37.5142 236.42 39.3465 236.022 41.1623C235.624 42.9765 235.36 45.3152 234.414 46.9737C231.007 52.9438 226.914 52.3266 221.268 49.7722C218.471 48.5048 216.526 47.6059 215.825 44.8283C215.296 42.7279 216.222 40.8821 217.22 39.0858ZM249.671 52.8644L249.811 52.8974C250.844 53.1431 251.553 53.6525 252.008 54.2682L252.292 54.4285L252.723 54.5319C256.182 55.3559 256.233 58.8931 254.093 60.2085C253.728 60.4796 253.289 60.6774 252.823 60.8017C252.433 61.007 251.985 61.1793 251.421 61.2827C249.183 62.3044 245.659 62.5231 243.27 62.655C235.105 63.1029 226.796 61.6377 218.83 59.4279C211.114 57.2885 202.822 54.469 196.854 49.2733C195.106 47.7527 192.876 45.6658 192.226 43.5653C191.556 42.7219 191.326 41.9398 191.487 41.2147C191.423 40.9211 191.365 40.6259 191.363 40.3308C191.362 38.8611 192.059 37.6071 193.164 36.7906C193.554 36.2423 194.054 35.7584 194.687 35.3749C195.92 34.6303 197.444 34.5583 198.9 34.9074C199.495 34.9149 200.094 34.9883 200.683 35.1336C200.722 35.1366 200.76 35.1471 200.799 35.1501C205.013 35.2865 210.36 37.2341 214.256 38.7457C213.333 40.5091 212.43 42.3997 212.552 44.3519C212.855 49.1565 218.448 51.5416 223.021 53.0233C230.568 55.4698 234.807 52.7566 237.177 48.1018C241.022 49.1865 246.292 50.5947 249.671 52.8644ZM238.101 33.2519C232.133 32.7471 224.562 31.5306 219.931 27.2608C216.41 24.9686 213.657 21.9737 212.366 18.3916C214.496 20.6419 217.354 22.6839 220.659 24.2405C221.01 24.4068 221.377 24.5566 221.738 24.7139C221.726 24.7349 221.715 24.7558 221.703 24.7768C222.088 24.9221 222.462 25.0899 222.838 25.2562C224.799 25.887 226.835 26.4892 228.902 27.0151C229.12 27.0675 229.336 27.1229 229.552 27.1769C230.843 27.4945 232.142 27.7761 233.439 28.0188C233.539 27.9844 233.646 27.9634 233.768 27.9709C235.897 28.1117 238 28.323 240.102 28.6151C240.102 28.6031 240.102 28.5882 240.102 28.5762C244.881 28.5941 249.386 27.7866 252.981 26.0323C252.137 27.2323 251.055 28.2256 249.836 29.0706C249.665 29.4436 249.321 29.7792 248.915 30.0773C247.085 32.6197 239.998 33.4123 238.101 33.2519Z" fill="black"/>
<path d="M222.123 61.774C221.797 62.168 221.472 62.562 221.147 62.9561C221.129 62.4062 220.689 62.0272 220.203 62.0377C220.135 61.8504 220.013 61.6856 219.814 61.5538C219.712 61.4849 219.609 61.416 219.506 61.3455C219.32 61.2197 219.093 61.2137 218.873 61.2542C218.455 60.9395 217.761 60.947 217.413 61.4774C217.309 61.6377 217.23 61.804 217.127 61.9658C216.993 61.5478 216.586 61.2631 216.175 61.2572C216.254 60.9935 216.333 60.7283 216.413 60.4646C216.774 59.2646 214.933 58.7507 214.574 59.9463L206.301 87.5095C205.958 88.6511 207.432 89.0721 208.043 88.2601C214.02 80.3258 219.211 71.8926 223.621 62.9531C224.079 62.0257 222.862 60.8811 222.123 61.774Z" fill="black"/>
</svg>
