<svg width="194" height="291" viewBox="0 0 194 291" fill="none" xmlns="http://www.w3.org/2000/svg">
<path d="M163.867 108.061C165.23 118.371 163.813 129.293 159.77 139.645C156.722 147.451 152.195 154.734 146.677 160.708C132.784 175.749 112.793 180.918 96.0057 174.113C90.3177 184.654 77.6796 190.521 66.9768 190.2C60.7426 196.961 56.0027 204.444 52.8592 212.493C48.9499 222.505 47.6576 233.035 49.0151 243.792C49.2116 245.346 49.0097 246.95 48.4319 248.431C46.9133 252.321 42.9592 254.937 38.8175 254.791C37.4634 254.743 36.1962 254.416 35.0718 253.859C32.4821 253.185 30.3265 251.405 29.2011 248.912C11.2002 208.962 9.09467 161.552 23.5677 122.091C23.8418 121.344 24.1248 120.596 24.4142 119.856L24.4157 119.852C30.2844 104.82 41.9433 84.2331 64.1575 71.5117C82.2546 61.1498 104.888 59.3655 126.257 66.6157C147.641 73.8714 161.348 88.9782 163.867 108.061Z" fill="#FCD800"/>
<path d="M155.263 109.649C157.353 125.472 151.668 142.927 140.427 155.095C129.115 167.341 112.026 172.449 97.3346 165.101C94.7202 163.793 92.2907 162.07 90.1348 160.043C92.5463 174.909 75.0519 184.007 64.1298 181.115C46.3302 198.475 37.4324 221.224 40.4664 245.246C40.592 246.235 39.1176 246.531 38.9197 245.566C38.8819 245.378 38.8616 245.186 38.8247 244.999C38.4545 245.581 37.4924 245.788 37.1379 245.001C20.8305 208.811 17.3644 163.703 31.6894 124.649C38.4907 106.108 50.5801 88.9981 68.1663 78.9285C85.1814 69.1868 105.462 68.827 123.053 74.7937C139.185 80.2664 152.937 92.04 155.263 109.649ZM28.4401 148.681C22.6996 180.983 26.7769 213.541 38.5122 243.119C34.8696 220.736 43.4609 195.761 61.3271 180.017C57.6525 178.03 55.3118 174.18 55.8641 168.068C56.618 159.731 66.7545 151.833 73.9064 158.327C79.9688 163.833 74.4376 175.021 66.1135 172.057C64.9336 171.637 65.3294 169.562 66.6745 169.775C73.1609 170.8 76.5547 163.113 71.1716 159.718C67.5974 157.464 62.8414 159.444 60.4872 162.767C56.5357 168.343 58.6294 175.959 64.2517 178.495C64.2748 178.507 64.2962 178.516 64.3168 178.53C65.1396 178.894 66.0358 179.151 67.0003 179.276C79.2827 180.863 89.66 169.972 88.1677 158.022C81.0117 149.986 77.9278 138.309 83.5864 127.839C90.8107 114.472 113.594 110.274 118.29 126.92C120.188 133.643 116.778 142.102 110.102 145.326C104.372 148.092 97.3654 146.223 95.3809 140.259C94.8358 138.621 97.3073 137.363 97.942 139.021C100.276 145.107 107.939 144.426 112.082 140.108C115.585 136.456 116.746 130.631 114.685 126.217C110.555 117.368 98.0274 117.043 90.889 123.258C75.755 136.439 86.4549 157.873 101.483 163.615C130.632 174.752 153.203 140.182 152.443 114.806C151.467 82.2139 112.041 68.4513 83.4944 76.0019C50.8496 84.6347 33.8029 118.501 28.4401 148.681Z" fill="#1D1D1B"/>
</svg>
