<svg width="204" height="164" viewBox="0 0 204 164" fill="none" xmlns="http://www.w3.org/2000/svg">
<path d="M179.946 20.5824C169.812 12.588 157.053 8.18417 144.018 8.18417C131.838 8.18417 120.608 12.1307 111.973 19.1459C106.209 9.44868 96.6265 2.4923 85.3737 0.513162C83.4386 0.172033 81.4507 0 79.4657 0C64.3001 0 50.7108 9.68541 45.9836 23.1953C44.4073 22.9497 42.8031 22.8263 41.1725 22.8263C23.3897 22.8263 4.929 38.7284 0.861923 57.5508C-1.65978 69.2168 1.4442 82.2503 8.96227 91.5681C14.238 98.1069 21.1003 102.23 28.6492 103.487C27.2582 113.458 28.9286 123.67 33.6206 133.139C40.3932 146.809 52.7032 156.975 67.3953 161.032C72.2373 162.369 77.3233 163.046 82.5123 163.046C94.8958 163.046 107.038 159.225 116.699 152.286C124.511 146.675 130.278 139.251 133.505 130.81C137.194 131.692 140.976 132.136 144.799 132.136H144.804C167.103 132.136 189.361 116.693 198.927 94.5795C210.131 68.6713 202.328 38.2417 179.946 20.5824Z" fill="#FCD800"/>
<path d="M174.771 27.1388C154.52 11.1616 122.586 12.807 108.994 35.0392C106.921 22.1734 97.3719 11.1028 83.9267 8.73843C70.2066 6.327 55.5057 15.4405 52.9399 29.4488C52.6487 31.0412 52.5767 32.691 52.6928 34.3452C34.9777 23.8937 12.9528 41.1442 9.02394 59.3152C4.95392 78.1405 19.4857 99.9478 39.5594 94.7691C29.8975 118.851 44.5057 146.046 69.6155 152.979C93.9077 159.685 123.989 146.297 127.738 119.949C128.856 120.496 130.006 120.992 131.189 121.417C155.508 130.141 181.623 113.537 191.259 91.2622C200.94 68.8859 193.885 42.2191 174.771 27.1388ZM187.458 91.6945C177.493 112.674 150.362 128.507 128.012 116.567C127.825 115.679 126.927 115.318 126.111 115.479C116.753 109.707 109.988 99.3758 111.16 88.0862C111.77 82.212 114.372 76.551 118.481 72.309C121.013 69.6932 124.277 67.6346 127.803 66.6627C131.261 65.5599 134.646 65.8452 137.956 67.5155C143.995 74.6131 143.061 78.8948 135.155 80.3593C134.233 80.3181 133.99 81.8635 134.933 82.0003C143.002 83.1707 147.209 74.3646 142.594 68.0537C136.069 59.1358 122.779 63.6749 116.327 70.1564C101.29 85.2601 108.381 108.078 124.605 118.208C122.088 143.577 93.1005 156.013 70.5007 149.773C46.2658 143.081 32.2634 115.912 44.0455 92.8664C44.6322 91.7195 43.6221 89.833 42.1664 90.4227C21.7486 98.6862 7.70353 76.1143 12.7499 58.1198C17.9477 39.5827 35.682 31.1824 53.0634 37.0713C55.0719 47.2198 64.0589 56.3627 75.1589 51.5413C79.742 49.5504 83.0342 45.1216 82.699 40.0282C82.4446 36.1787 79.3039 30.3575 74.7163 31.8102C73.5855 32.1675 74.0619 33.7526 75.1985 33.56C80.7963 32.6057 80.0185 42.6984 78.7907 44.7437C77.1777 47.433 73.9311 48.9916 70.9756 49.3386C64.1177 50.1429 58.1436 44.9246 56.3924 38.5137C56.2909 38.1446 56.2262 37.7756 56.1497 37.408C56.2468 37.1462 56.2262 36.8492 55.9924 36.6566L55.9909 36.6552C54.5117 27.6167 60.0742 18.6797 67.9878 14.445C76.2146 10.0441 85.947 11.0469 93.618 16.1477C102.037 21.7454 105.927 30.8589 106.166 40.6208C106.022 40.9678 105.865 41.3016 105.73 41.6559C105.415 42.4764 105.78 43.088 106.36 43.388C107.016 44.5952 109.241 44.3188 109.363 42.5984C109.394 42.1588 109.383 41.7235 109.397 41.2854C120.211 17.0932 151.281 13.8965 171.441 28.7371C190.882 43.0469 197.814 69.8917 187.458 91.6945Z" fill="#1D1D1B"/>
</svg>
