<svg width="289" height="273" viewBox="0 0 289 273" fill="none" xmlns="http://www.w3.org/2000/svg">
<path d="M0.0449524 176.003C0.411713 164.37 3.2728 142.726 18.3135 128.474C25.0011 122.137 33.4051 117.981 42.5616 116.382C39.7465 108.848 38.8954 101.682 39.9624 94.7185C41.8915 82.1261 50.5225 71.3358 63.6389 65.1134C70.8821 61.6791 78.7383 59.9374 86.993 59.9374C92.9899 59.9374 98.8979 60.8598 104.511 62.6302C103.86 56.8428 103.874 51.073 104.615 45.7159C108.72 16.0283 137.431 0.00476323 162.373 0C188.512 0 211.358 14.9852 221.026 36.7293C228.34 31.9248 237.203 29.3193 246.817 29.3193C257.131 29.3193 267.589 32.4456 276.271 38.1202C286.603 44.876 294.962 55.5298 299.201 67.3489C302.178 75.6433 302.998 84.0298 301.693 91.905C318.016 93.6499 334.454 102.357 347.586 116.39C375.466 146.182 378.408 190.493 354.582 221.751C340.734 239.918 318.704 250.764 295.65 250.764C279.956 250.764 265.133 245.856 252.944 236.772C236.995 257.229 211.891 270.731 185.139 272.732C182.763 272.909 180.344 273 177.949 273C164.021 273 149.934 269.955 137.213 264.193C132.703 262.151 121.731 257.181 114.143 247.856C105.055 255.732 92.6216 259.974 78.1715 259.974C78.1715 259.974 78.1699 259.974 78.1667 259.974C64.8011 259.974 50.6718 256.284 39.402 249.854C14.1473 235.442 -0.934692 207.144 0.0449524 176.003Z" fill="#FCD800"/>
<path d="M9.06131 176.287C9.51859 161.761 13.6356 145.334 24.5196 135.02C33.2776 126.723 45.3778 123.4 57.0826 125.089C51.5843 116.467 47.2958 106.422 48.8788 96.0856C50.4792 85.6335 58.2242 77.6662 67.5062 73.2649C84.1442 65.3739 104.563 68.67 118.378 80.3415C113.719 69.6258 112.141 57.1462 113.549 46.9528C116.817 23.3177 139.71 9.02478 162.364 9.02002C188.954 9.01526 213.096 27.3426 216.514 53.6674C228.408 35.8609 253.61 34.081 271.334 45.6699C288.731 57.0461 299.682 81.7641 289.141 101.082C290.111 100.938 291.089 100.819 292.078 100.741C310.569 99.2833 328.689 109.397 341.002 122.555C365.072 148.276 369.109 187.821 347.41 216.287C324.216 246.715 278.349 250.862 251.23 223.356C237.303 246.688 211.435 261.725 184.467 263.743C169.606 264.855 154.505 262.129 140.936 255.983C130.052 251.054 118.508 243.673 115.848 231.492C115.208 232.752 114.484 233.965 113.667 235.104C98.2926 256.478 64.1259 253.583 43.8758 242.026C20.6503 228.769 8.23251 202.596 9.06131 176.287ZM38.3505 234.021C55.9141 247.525 83.2153 252.963 102.808 240.364C113.97 233.186 121.629 214.65 107.763 205.788C100.806 201.34 91.5177 203.809 89.1186 212.158C86.7751 220.308 99.1484 228.986 103.062 219.547C103.902 217.523 107.24 218.363 106.419 220.473C103.723 227.405 94.7995 228.764 89.1614 224.182C82.5564 218.815 84.811 208.676 90.5253 203.592C97.775 197.141 108.607 199.905 114.386 206.959C119.156 212.783 119.727 220.449 117.549 227.329C118.258 227.508 118.898 228.048 118.998 228.958C120.662 244.011 138.944 252.242 151.641 256.295C164.128 260.282 177.467 261.409 190.433 259.464C215.041 255.773 235.512 241.072 249.829 221.168C249.903 219.798 251.654 218.632 252.866 219.912C269.285 237.258 295.671 243.166 317.995 234.529C340.994 225.631 356.935 201.896 358.248 177.526C359.608 152.29 345.954 127.253 324.822 113.683C313.338 106.307 299.285 102.027 285.716 105.399C270.652 109.143 260.282 122.204 260.298 137.788C260.314 154.646 274.869 173.287 293.425 168.291C303.147 165.675 306.862 156.923 304.631 147.551C303.596 143.197 301.575 138.394 297.688 135.863C295.889 134.692 293.685 133.655 291.435 133.615C284.724 133.498 278.705 148.854 290.389 146.679C291.567 146.46 292.082 148.179 290.891 148.5C279.999 151.423 276.488 135.085 286.88 131.237C301.119 125.964 309.783 144.015 308.623 155.623C307.095 170.9 289.868 175.347 277.325 170.389C261.689 164.208 254.315 146.061 257.453 130.178C260.428 115.11 272.201 104.609 286.653 101.549C294.476 82.6136 287.42 60.9313 270.588 49.3329C252.736 37.0294 226.304 39.2777 216.695 60.644C215.943 62.319 213.402 61.3886 213.39 59.7485C213.199 34.5033 192.775 15.4948 168.347 12.9148C147.949 10.7602 124.486 20.8075 118.314 41.7562C112.309 62.138 122.245 98.7419 147.505 100.642C159.994 101.581 175.295 87.1418 164.354 75.3624C159.884 70.5499 151.271 68.7653 147.149 75.0591C143.92 79.9906 145.323 87.1402 150.628 89.8235C152.644 90.8444 150.876 93.8088 148.864 92.8418C133.388 85.3889 145.812 60.9059 161.921 69.1098C170.138 73.2935 173.62 82.8819 169.868 91.3081C165.642 100.8 155.313 105.539 145.29 103.943C134.56 102.235 126.566 95.1853 121.22 85.9986C108.362 74.1096 89.7045 68.9098 72.8204 74.9003C62.9986 78.3854 54.1565 85.8478 52.4814 96.573C50.7603 107.587 56.365 118.023 62.4825 126.764C63.4146 128.098 61.8777 129.744 60.4677 129.385C47.977 126.21 34.3779 129.538 25.4834 139.142C17.008 148.294 13.5054 161.777 12.7608 173.953C11.3747 196.625 20.0644 219.961 38.3505 234.021Z" fill="#1D1D1B"/>
</svg>
