<svg width="132" height="170" viewBox="0 0 132 170" fill="none" xmlns="http://www.w3.org/2000/svg">
<path d="M130.808 125.774C130.186 109.401 130.596 93.0584 129.726 76.6829C128.345 50.6799 132.343 20.948 112.793 0.512337C112.018 -0.297068 110.541 -0.125345 110.003 0.871401C103.826 12.3004 96.4433 23.0928 92.1092 35.4176C88.6014 45.3911 91.3898 60.1501 93.794 70.4034C91.8053 71.3533 90.2946 73.2231 90.6069 75.5012C90.3102 76.4007 90.3415 77.4359 90.667 78.4554C87.9373 86.0908 85.1416 91.4131 77.9026 95.74C71.4393 99.6009 63.8881 100.709 56.5001 100.925C56.3452 100.93 56.2131 100.964 56.0991 101.014C56.0426 100.401 56.0366 99.8795 56.1051 99.5C56.1579 99.2106 56.1147 98.9584 56.0354 98.7254C64.6098 96.7956 72.6114 92.3678 76.6705 84.8142C83.3715 72.3429 68.8574 54.9779 57.4237 51.4653C57.3036 51.428 57.2027 51.446 57.091 51.4328C42.1434 45.6685 22.9398 52.5881 15.7729 66.922C8.70438 81.059 21.7606 94.2941 34.8168 98.4024C35.0005 101.029 35.0029 103.578 34.8636 106.077C29.737 108.735 24.7436 108.417 19.4945 105.61C14.8158 103.107 12.6722 99.0857 9.82364 95.029C10.1155 94.7156 10.3808 94.3685 10.6126 93.9927C12.2278 91.3771 10.5178 88.1203 7.8362 87.1355C6.44796 86.6239 4.90476 86.7236 3.57537 87.3565C3.13824 87.5655 2.66388 87.8741 2.20874 88.2416C-1.13216 89.4941 -0.237485 93.7981 1.95536 95.7184C3.57537 97.1366 5.58928 97.3155 7.36541 96.6551C10.0302 107.486 24.9898 114.109 34.6486 108.857C33.545 119.754 29.6145 129.695 24.4987 140.062C23.8694 141.336 24.656 142.585 26.025 142.723C27.4973 142.87 30.4959 143.018 34.1682 143.015C33.3816 148.111 34.0422 153.334 34.6222 158.533C31.6812 158.548 28.727 160.047 27.2691 162.757C23.8585 169.098 34.1779 169.002 37.3915 168.514C38.1048 168.406 38.6596 167.564 38.6344 166.881C38.584 165.529 38.4759 164.185 38.345 162.846C38.3522 162.85 38.3582 162.852 38.3654 162.856C39.7441 163.433 40.8897 161.309 39.8101 160.374C39.2385 159.88 38.5972 159.52 37.9319 159.225C37.2318 153.826 36.2987 148.47 36.2614 142.994C40.5186 142.926 45.3907 142.646 49.7751 141.955C48.764 151.081 47.5967 171.331 59.9984 168.504C67.5628 166.78 60.08 150.619 53.4691 159.742C51.9415 153.82 52.59 147.58 52.1805 141.525C57.7839 140.38 62.1144 138.426 62.4434 135.181C63.0403 129.303 60.9183 122.545 59.8315 116.839C59.2202 113.629 57.1066 106.976 56.3368 102.7C56.3921 102.716 56.4377 102.742 56.499 102.75C68.7637 104.195 86.6679 98.4348 91.8078 86.0091C90.2826 100.811 91.57 115.647 92.078 130.494C92.1525 132.686 91.9555 135.171 91.6793 137.793C91.4751 137.771 91.2734 137.771 91.068 137.746C90.5276 137.68 90.4159 138.58 90.9407 138.69C91.1521 138.735 91.3635 138.757 91.5748 138.798C90.5829 147.751 88.9112 158.136 93.6139 164.543C97.2635 169.516 108.175 169.205 113.428 169.845C120.032 170.65 125.715 168.468 128.853 162.527C134.185 152.433 131.219 136.581 130.808 125.774ZM8.37654 92.3582C7.87457 94.3157 5.38633 95.1119 3.75311 94.2088C3.12744 93.863 2.65308 93.3238 2.31803 92.7065C3.71347 91.7014 4.33075 89.4545 6.46114 89.8508C7.65244 90.0729 8.69718 91.1033 8.37654 92.3582ZM54.921 163.483C56.6502 161.271 59.5649 158.88 59.8891 163.363C60.0236 165.236 58.5116 165.374 57.0285 165.056C55.9994 164.836 55.3365 164.27 54.8573 163.538C54.8765 163.515 54.9005 163.509 54.921 163.483ZM56.2012 116.479C49.6346 118.577 43.5941 121.365 36.6025 118.143C36.5545 118.121 36.51 118.124 36.462 118.108C37.7421 111.909 38.0387 105.548 36.7598 98.9512C37.7373 99.1901 38.7112 99.3799 39.6684 99.5072C43.8955 100.07 48.5718 100.015 53.1917 99.2766C52.8734 102.134 53.9723 105.268 54.5223 108.01C55.0867 110.832 55.6511 113.654 56.2012 116.479ZM20.2367 65.9589C25.8557 54.7293 43.5533 50.7555 55.2537 53.3218C55.2933 53.9835 55.6715 54.6188 56.4845 54.8686C67.3755 58.2083 78.6928 73.629 72.7568 84.6929C67.9652 93.6228 54.1524 96.1483 45.076 96.3849C28.9299 96.8052 11.8508 82.7174 20.2367 65.9589ZM31.5696 162.817C32.6756 161.984 33.8164 161.759 34.9669 161.863C35.0737 163.035 35.159 164.203 35.2058 165.368C32.6119 165.534 28.1338 165.406 31.5696 162.817ZM35.7498 139.342C35.6165 139.316 35.4796 139.325 35.3487 139.365C33.1319 139.466 30.921 139.506 28.7498 139.391C31.7473 133.16 34.364 126.838 35.9588 120.348C37.849 121.308 40.1127 121.903 42.4893 122.192C41.7375 125.115 42.3044 128.772 42.4437 131.743C42.5506 134.022 42.7331 136.424 43.4428 138.626C40.9053 138.958 38.327 139.211 35.7498 139.342ZM56.7992 119.605C57.3876 122.721 57.9484 125.84 58.442 128.972C58.6041 130.004 59.7174 134.187 58.6197 135.014C56.2203 136.822 52.1541 137.17 49.3116 137.703C48.0951 137.931 46.8546 138.137 45.602 138.326C45.2874 135.796 45.094 133.281 45.0748 130.717C45.0556 128.063 45.6537 124.993 45.0712 122.371C49.2383 122.45 53.5303 121.566 56.7992 119.605ZM127.974 142.861C122.563 142.227 116.937 142.413 111.536 142.269C106.166 142.126 100.404 141.547 94.9877 142.155C95.0166 141.21 95.0406 140.264 95.0671 139.321C102.018 140.078 108.951 139.228 115.97 138.658C116.175 138.641 116.395 138.643 116.608 138.635C117.115 139.54 118.39 139.411 119.043 138.66C121.988 138.814 125.178 139.224 127.778 138.53C127.834 139.871 127.907 141.306 127.974 142.861ZM125.636 65.2576C126.627 88.8768 127.04 112.444 127.694 136.07C125.238 135.474 122.146 135.91 119.537 136.061C119.635 133.686 119.564 130.921 119.221 128.292C120.091 120.465 117.941 110.728 117.358 104.917C115.181 83.1786 117.507 60.9548 116.265 39.0672C119.198 40.6055 122.632 40.453 124.449 37.8531C125.361 46.8454 125.254 56.1476 125.636 65.2576ZM95.7876 35.1691C97.0413 30.4003 99.293 25.7468 101.896 21.199C103.261 23.9395 109.407 23.4014 111.735 23.1C114.631 22.7241 118.46 21.6181 120.323 19.0842C122.062 23.6212 123.163 28.36 123.88 33.2188C123.546 33.2957 123.25 33.4806 123.094 33.8313C121.457 37.5072 118.092 38.0128 115.608 34.6419C114.903 33.6848 113.02 33.5358 112.761 35.0141C112.275 37.775 107.762 41.1988 107.61 34.9733C107.576 33.5575 105.419 32.7348 104.752 34.1987C103.852 36.1766 102.69 37.5384 100.823 38.6577C98.0933 40.2969 94.9085 39.2041 95.8308 35.6122C95.874 35.4477 95.8476 35.3 95.7876 35.1691ZM93.9922 79.1712C93.6824 78.9118 93.4314 78.608 93.2116 78.2909C93.1492 78.0483 93.0363 77.8514 92.8742 77.7073C92.7661 77.4743 92.6869 77.2389 92.634 76.9987C92.8046 76.8979 92.957 76.7574 93.0603 76.5436C93.9286 74.7435 94.2312 72.4077 96.848 72.7956C98.8919 73.0982 100.054 74.7026 99.4635 76.6985C98.7453 79.1279 96.2139 81.0254 93.9922 79.1712ZM95.4345 82.673C98.026 82.9072 100.696 81.041 101.958 78.4506C103.728 74.8179 101.828 70.8021 97.8987 69.8702C97.4256 69.7573 96.9332 69.7273 96.4373 69.7441C96.4481 69.5256 96.4589 69.3058 96.4697 69.086C96.4757 68.9575 96.442 68.8447 96.3928 68.7402C96.2631 59.402 93.871 50.2547 94.7668 40.9346C95.2328 41.3525 95.8332 41.7092 96.6258 41.9661C99.4767 42.886 102.462 41.5074 104.667 39.4334C104.731 40.7112 104.749 41.9986 104.787 43.2811C104.203 46.5224 104.285 49.8404 104.907 53.0829C104.87 58.6202 104.717 64.1756 104.557 69.7165C104.153 69.9123 103.826 70.2965 103.775 70.9042C102.445 86.4738 103.206 102.069 105.401 117.495C105.61 123.81 105.641 130.116 105.193 136.402C105.157 136.914 105.496 137.19 105.888 137.239C102.312 137.679 98.737 138.066 95.1019 138C95.2652 131.876 95.3444 125.759 95.037 119.543C94.4293 107.237 93.8829 94.9894 95.4369 82.7306C95.4417 82.7102 95.4321 82.6958 95.4345 82.673ZM119.175 166.21C114.937 167.37 110.073 165.821 105.838 165.253C97.4376 164.125 94.5362 160.906 94.702 152.285C94.7332 150.669 94.7848 149.068 94.8305 147.461C99.2462 148.487 103.96 148.673 108.445 149.114C114.873 149.748 121.574 150.717 128.036 150.174C127.723 157.368 125.932 164.361 119.175 166.21ZM110.74 147.014C105.558 146.654 100.066 145.799 94.8593 146.379C94.8881 145.39 94.9181 144.406 94.9493 143.419C99.6497 144.045 104.567 143.916 109.264 144.172C115.425 144.508 121.849 145.408 128.061 145.205C128.086 146.158 128.099 147.129 128.092 148.105C122.351 147.478 116.504 147.412 110.74 147.014Z" fill="black"/>
<path d="M65.3463 74.3496C64.6546 73.2483 62.9902 73.7107 62.9409 75.0016C62.266 92.6284 31.5086 88.4001 25.2916 75.9972C24.9073 75.2298 23.7688 75.7786 23.9538 76.5604C26.6462 87.8885 40.6415 90.3335 50.5033 89.3175C56.6302 88.6847 70.7936 83.0176 65.3463 74.3496Z" fill="black"/>
<path d="M41.793 64.2837C40.8924 62.9182 38.9289 63.8033 39.2231 65.3669C39.5377 67.0373 40.3087 68.5673 40.5224 70.2966C40.6197 71.088 40.5933 71.8697 40.5621 72.6623C40.5513 72.9457 40.4876 73.1979 40.4348 73.4741C40.418 73.5606 40.4084 73.5918 40.3964 73.6363C39.916 73.8596 40.0265 74.5622 40.5789 74.5994C44.4878 74.8696 43.0216 66.1463 41.793 64.2837Z" fill="black"/>
<path d="M51.5633 65.3404C51.0877 63.4838 50.0453 60.652 47.8573 60.4899C46.9422 60.4215 46.4354 61.3786 46.5843 62.1592C46.7392 62.9674 47.2568 63.3421 47.7204 63.9833C48.3028 64.7891 48.6583 65.7378 48.9681 66.6721C49.6238 68.6512 49.6586 70.6699 49.5241 72.7259C49.4413 74 51.2137 74.0589 51.6088 73.0081C52.5191 70.5859 52.1913 67.795 51.5633 65.3404Z" fill="black"/>
</svg>
