<svg width="1216" height="155" viewBox="0 0 1216 155" fill="none" xmlns="http://www.w3.org/2000/svg">
<path d="M1215.17 72.5002L1214.37 73.5785C1128.81 127.811 996.917 106.499 927.869 94.1297C858.821 81.7609 850.315 113.856 796.477 125.084C742.74 136.311 695.707 113.095 673.092 108.465C650.476 103.835 550.907 134.027 531.994 87.1525C513.081 40.2777 661.484 42.6247 634.065 30.6364C612.249 21.1219 654.679 6.59647 679.496 0.253478C845.912 -0.0636715 1027.94 19.8533 1215.17 72.5002Z" fill="#FCD800"/>
<path d="M580.928 2.79086C541 7.04067 579.827 39.7705 521.587 60.0047C459.244 81.6977 368.881 24.7376 387.194 78.9702C405.506 133.203 364.578 108.782 288.825 142.083C213.073 175.384 145.826 133.203 64.5695 135.867C-0.375596 138.023 -3.27761 127.494 3.42705 121.912L2.32628 120.771C126.713 70.1534 332.556 15.0963 580.928 2.79086Z" fill="#FCD800"/>
</svg>
