<svg width="147" height="211" viewBox="0 0 147 211" fill="none" xmlns="http://www.w3.org/2000/svg">
<path d="M64.8288 81.1752C60.2008 80.924 55.5681 80.4746 51.0323 79.5019C46.402 78.5132 41.8201 77.1856 37.5239 75.1597C35.3943 74.1548 33.32 72.977 31.4922 71.4812C29.6023 69.937 27.9244 68.0955 26.6821 65.9866C26.0183 64.8665 25.4814 63.7141 25.0204 62.4949C24.5963 61.3724 24.3359 60.1762 24.0939 59.0054C23.8357 57.747 23.6652 56.4724 23.4992 55.2002C23.3587 54.1077 23.2227 53.0083 23.1628 51.9112C23.1213 51.1483 23.0775 50.3877 23.0337 49.6248C22.9553 48.189 23.0314 46.7346 23.1604 45.3033C23.2457 44.3399 23.3656 43.3881 23.5269 42.4339C23.6513 41.7033 23.7481 40.9588 23.9141 40.2328C24.1745 39.1034 24.4143 37.9672 24.7415 36.854C24.9559 36.1234 25.1702 35.395 25.3869 34.6644C25.5528 34.0974 25.7856 33.5466 25.9861 32.9911C26.1958 32.4149 26.4056 31.841 26.6153 31.2648C27.2353 29.5662 28.0581 27.9252 28.8948 26.3256C29.6461 24.8874 30.4989 23.5069 31.4093 22.1655C32.4003 20.702 33.4651 19.2868 34.6406 17.9662C36.8739 15.454 39.5152 13.3174 42.3294 11.4943C43.6731 10.6231 45.0652 9.82566 46.5103 9.13652C48.1628 8.34367 49.8938 7.7098 51.6408 7.16126C53.2011 6.67033 54.7938 6.30623 56.3818 5.91672C56.8658 5.79687 57.3705 5.74155 57.8614 5.65858C58.2832 5.58483 58.7004 5.51332 59.1198 5.44187C59.4102 5.39117 59.7099 5.31977 60.0026 5.2898C61.2057 5.16996 62.4134 4.99249 63.6211 4.95331C64.8288 4.91644 66.0457 4.8242 67.2534 4.86799C68.0209 4.89565 68.7908 4.92566 69.556 4.95331C70.1875 4.97406 70.8167 5.06622 71.4459 5.12845C72.6029 5.246 73.7553 5.39578 74.9008 5.6009C77.2632 6.02268 79.6003 6.55513 81.9512 7.02762C82.2277 7.08293 82.5043 7.14287 82.7832 7.18897C83.5115 7.30882 84.1154 7.76747 84.445 8.38054C86.1943 8.82537 87.9413 9.29783 89.6423 9.89708C91.9701 10.7153 94.2311 11.6556 96.4092 12.8196C98.5849 13.9835 100.701 15.2442 102.644 16.7676C103.572 17.4937 104.504 18.2773 105.296 19.1554C105.734 19.6394 106.168 20.1258 106.578 20.6374C106.995 21.1606 107.385 21.693 107.774 22.237C109.162 24.1753 110.485 26.2196 111.508 28.3746C112.589 30.6402 113.522 32.9888 114.059 35.448C114.324 36.6604 114.592 37.8819 114.723 39.1173C114.79 39.7258 114.884 40.3411 114.917 40.9542C114.954 41.6756 115.037 42.4086 115.027 43.1323C115.02 43.7407 115.016 44.3469 115.011 44.9553C115.007 45.5569 114.924 46.1676 114.88 46.7715C114.785 48.0691 114.509 49.3483 114.253 50.6228C113.755 53.1028 112.872 55.4905 111.831 57.7907C111.323 58.9086 110.706 59.9711 110.054 61.0082C109.424 62.0108 108.751 63.0019 107.998 63.9192C106.55 65.687 105.059 67.4386 103.264 68.8676C102.75 69.2755 102.238 69.6835 101.724 70.0914C101.199 70.5086 100.632 70.8866 100.088 71.2807C98.064 72.7488 95.8952 74.0096 93.7241 75.2449C93.2124 75.5354 92.6639 75.7704 92.1361 76.0309C91.629 76.2821 91.1173 76.5172 90.5941 76.7408C89.3357 77.2778 88.075 77.7733 86.7981 78.2619C84.6201 79.0916 82.3453 79.7301 80.0543 80.1611C78.6415 80.4284 77.2286 80.6612 75.8065 80.8802C74.6495 81.0577 73.4718 81.1268 72.3033 81.1959C71.1785 81.2628 70.0584 81.2927 68.936 81.2927C67.5669 81.295 66.2001 81.2512 64.8288 81.1752ZM65.3705 76.6555C66.3408 76.7062 67.3111 76.7339 68.2837 76.7592C69.1411 76.7823 70.0008 76.75 70.8582 76.7362C71.9023 76.6739 72.9417 76.614 73.9835 76.5057C75.1105 76.3881 76.2191 76.2245 77.3369 76.0516C78.2427 75.8811 79.1462 75.7129 80.0451 75.5193C80.9947 75.3141 81.9258 75.0606 82.8615 74.8025C84.0093 74.4153 85.1479 74.0234 86.2819 73.5947C87.3628 73.1821 88.4253 72.7281 89.4878 72.2741C90.4466 71.7993 91.4078 71.3337 92.3366 70.8059C93.4498 70.1744 94.5307 69.5083 95.6163 68.8284C97.3172 67.7405 98.9259 66.5144 100.505 65.2582C101.332 64.5322 102.118 63.7717 102.867 62.9673C103.471 62.2897 104.038 61.5798 104.612 60.8768C105.011 60.3859 105.366 59.8536 105.732 59.335C106.062 58.8118 106.391 58.2886 106.721 57.7654C107.007 57.3091 107.242 56.8158 107.493 56.3364C107.742 55.7901 107.988 55.2417 108.237 54.6954C108.463 54.1953 108.638 53.6675 108.832 53.1535C109.003 52.6003 109.18 52.0518 109.351 51.5009C109.526 50.9409 109.643 50.3601 109.784 49.7908C109.89 49.2607 109.996 48.7306 110.104 48.2028C110.217 47.6335 110.266 47.0458 110.346 46.4696C110.385 45.9418 110.425 45.4163 110.461 44.8885C110.503 44.3008 110.475 43.6992 110.478 43.1045C110.434 42.2518 110.388 41.4013 110.298 40.5508C110.201 39.6451 110.067 38.7555 109.924 37.8566C109.798 37.2827 109.676 36.7064 109.546 36.1302C109.431 35.6001 109.256 35.0747 109.104 34.5492C108.929 34.0375 108.754 33.5259 108.576 33.0165C108.399 32.5048 108.164 32.0047 107.956 31.5C107.65 30.85 107.343 30.2024 107.002 29.5708C106.592 28.8126 106.161 28.075 105.716 27.3374C105.216 26.5769 104.711 25.8209 104.195 25.0696C103.72 24.3781 103.213 23.719 102.69 23.0621C102.166 22.4836 101.634 21.935 101.079 21.3934C100.221 20.6628 99.3478 19.9736 98.4328 19.3145C96.8125 18.252 95.1438 17.2932 93.4268 16.3989C91.8641 15.6361 90.2784 14.97 88.6466 14.3707C86.3533 13.5709 84.0047 12.9624 81.6515 12.377C81.0707 12.2318 80.6098 11.8423 80.324 11.3445C79.9529 11.2638 79.5819 11.1831 79.2131 11.1048C78.1552 10.8789 77.0949 10.6554 76.0347 10.4433C74.9376 10.2244 73.8359 10.0353 72.7273 9.874C71.6787 9.72189 70.63 9.61589 69.5767 9.50987C69.102 9.49143 68.6248 9.47297 68.15 9.45684C67.6591 9.4384 67.1544 9.38769 66.6611 9.40612C65.6747 9.43839 64.6883 9.46839 63.7041 9.50066C62.6347 9.60668 61.5653 9.71038 60.4958 9.8164C59.9657 9.90859 59.4356 9.99852 58.9078 10.0907C58.4169 10.1737 57.9121 10.2313 57.4281 10.3488C56.0083 10.6969 54.584 11.0265 53.1827 11.4413C51.7215 11.9023 50.2901 12.4323 48.8842 13.0454C47.6166 13.6378 46.3997 14.3154 45.2058 15.0483C43.8045 15.9403 42.4654 16.9152 41.177 17.9639C40.096 18.8789 39.0774 19.8538 38.114 20.8932C37.1436 21.9949 36.2563 23.1612 35.4081 24.3597C34.4055 25.8232 33.4928 27.3352 32.6677 28.9048C31.9117 30.389 31.2064 31.9102 30.6372 33.4797C30.3468 34.2726 30.0586 35.0701 29.7705 35.8652C29.4894 36.8171 29.2082 37.769 28.9293 38.7209C28.8049 39.1427 28.7265 39.5829 28.6251 40.0092C28.526 40.431 28.4292 40.8528 28.33 41.2746C28.0719 42.7865 27.8138 44.2846 27.6663 45.8104C27.581 46.9628 27.5441 48.1129 27.5556 49.2676C27.5971 49.9913 27.6363 50.715 27.6778 51.4364C27.717 52.1601 27.8092 52.8815 27.8829 53.6052C28.0189 54.9212 28.2102 56.2258 28.4223 57.5303C28.5951 58.3646 28.7818 59.1852 28.9892 60.0103C29.2497 60.8262 29.5378 61.6144 29.8835 62.398C30.1278 62.8636 30.3768 63.32 30.6418 63.774C31.0428 64.3802 31.4623 64.9656 31.9094 65.5418C32.3404 66.0465 32.783 66.5328 33.2439 67.0076C34.069 67.7382 34.9264 68.4043 35.8276 69.0405C36.6043 69.536 37.3926 69.9969 38.2015 70.4395C39.9163 71.2922 41.6703 72.0321 43.468 72.6982C45.9825 73.5809 48.5339 74.3023 51.136 74.89C52.5789 75.1966 54.0286 75.4662 55.4852 75.7036C57.0317 75.9525 58.5828 76.1231 60.1408 76.2821C61.8856 76.425 63.6257 76.561 65.3705 76.6555Z" fill="black"/>
<path d="M59.0186 47.7032C57.7994 47.6755 56.7415 46.6153 56.7991 45.3776C56.9328 42.4759 57.1056 39.5764 57.3523 36.6816C57.3523 36.6908 57.3499 36.6977 57.3499 36.7069C57.4859 35.1397 57.6288 33.5748 57.8155 32.0144C57.9423 30.9335 58.0368 29.811 58.3433 28.7646C58.689 27.5754 59.9636 26.8655 61.1575 27.2043C62.3444 27.5454 63.0612 28.8292 62.7155 30.0162C62.7017 30.0669 62.6879 30.1176 62.6763 30.166C62.4827 31.1294 62.3813 32.1112 62.2661 33.0861C62.1208 34.3169 62.0079 35.5523 61.8996 36.7854C61.9019 36.7623 61.9043 36.7392 61.9066 36.7162C61.8904 36.8959 61.8766 37.0757 61.8604 37.2555C61.6345 39.9959 61.4709 42.7363 61.3465 45.486C61.2912 46.7052 60.3093 47.7054 59.074 47.7054C59.0532 47.7031 59.037 47.7032 59.0186 47.7032Z" fill="black"/>
<path d="M72.1055 45.5847C70.9139 45.5571 69.796 44.4946 69.8859 43.2592C70.1856 39.1543 70.6488 35.0633 71.0084 30.9654C71.0061 30.9861 71.0061 31.0069 71.0038 31.0253C71.0061 30.993 71.0084 30.9631 71.0107 30.9308C71.0153 30.8663 71.0223 30.8018 71.0269 30.7349C71.0223 30.781 71.0176 30.8271 71.013 30.8732C71.1236 29.5111 71.2089 28.1443 71.3034 26.7776C71.3472 26.1714 71.5569 25.616 72.0064 25.1873C72.4397 24.7724 73.0297 24.5465 73.6267 24.558C74.8228 24.5857 75.9338 25.6459 75.8462 26.8836C75.6941 29.0662 75.5396 31.2443 75.3368 33.4269C75.1248 35.6926 74.8735 37.9536 74.6753 40.2215C74.5854 41.2679 74.5002 42.3142 74.4241 43.3629C74.3803 43.9713 74.1729 44.5245 73.7211 44.9532C73.2993 45.3565 72.7278 45.5824 72.147 45.5824C72.1378 45.5847 72.1216 45.5847 72.1055 45.5847Z" fill="black"/>
<path d="M62.8018 63.7306C61.5365 63.7122 60.2758 63.4771 59.0565 63.1476C57.7751 62.8018 56.5696 62.2325 55.3988 61.6172C54.2718 61.0248 53.2369 60.2735 52.2689 59.4507C51.3631 58.6785 50.5311 57.8097 49.8281 56.8532C49.192 55.9912 48.6826 54.9909 48.3231 53.986C48.164 53.5504 48.0488 53.1009 48.0488 52.6354C48.0488 51.3977 49.1574 50.3882 50.3744 50.4158C51.4807 50.4435 52.3541 51.2594 52.5524 52.2989V52.3012C52.5477 52.2758 52.5432 52.2528 52.5409 52.2274C52.5501 52.2712 52.5616 52.315 52.5731 52.3588C52.6307 52.5224 52.693 52.6838 52.7575 52.8451C52.9396 53.2231 53.1332 53.5849 53.3498 53.9445C53.5089 54.1796 53.6725 54.4032 53.8477 54.6244C54.198 55.0139 54.5622 55.385 54.9401 55.7469C55.3758 56.1318 55.8252 56.4936 56.2931 56.8416C56.8301 57.2012 57.3833 57.5285 57.9549 57.8327C58.5011 58.1024 59.0542 58.3489 59.6258 58.5633C60.0591 58.7039 60.4924 58.8307 60.9349 58.939C61.389 59.0266 61.8407 59.098 62.2993 59.151C62.8571 59.1902 63.4079 59.1971 63.9657 59.181C64.5672 59.1441 65.1619 59.0865 65.7589 58.9989C66.2913 58.8975 66.8144 58.773 67.3376 58.6255C68.0291 58.4066 68.6998 58.1531 69.3612 57.8627C69.8222 57.6368 70.2671 57.3994 70.7096 57.139C71.7168 56.4867 72.6617 55.763 73.5975 55.007C75.1832 53.6402 76.7597 52.2574 78.191 50.727C78.2509 50.6601 78.3085 50.5933 78.3684 50.5265C78.7787 50.0655 79.2857 49.7474 79.9103 49.6806C80.5004 49.6207 81.0996 49.7936 81.5628 50.1646C82.4917 50.9045 82.7498 52.4325 81.9247 53.3591C80.5649 54.8894 79.0599 56.2654 77.5249 57.6161C76.8242 58.2337 76.1097 58.8722 75.356 59.4253C74.8674 59.7849 74.3834 60.149 73.8809 60.4924C72.7124 61.2899 71.4655 61.9306 70.1564 62.4584C67.9369 63.3503 65.5537 63.733 63.1729 63.733C63.0461 63.733 62.924 63.7329 62.8018 63.7306Z" fill="black"/>
<path d="M113.294 100.066C108.91 99.3122 104.512 98.6161 100.117 97.9362C97.9346 97.5974 95.7474 97.2885 93.5578 97.0235C91.2876 96.7469 89.015 96.5395 86.7379 96.3321C86.8347 96.3413 86.9315 96.3505 87.0283 96.3597C77.1822 95.5922 67.3292 95.0229 57.4647 94.5873C54.2219 94.4444 50.979 94.2923 47.7361 94.1494C45.9107 94.0664 44.0876 93.9857 42.2622 93.9097C41.5017 93.8774 40.7411 93.8382 39.9828 93.8013C39.3397 93.7691 38.699 93.6838 38.056 93.6631C36.8206 93.6193 35.8088 92.5867 35.8365 91.3375C35.8641 90.1114 36.9244 89.0742 38.162 89.118C38.5861 89.1342 39.0102 89.1849 39.4343 89.2148C40.1142 89.2609 40.7941 89.2932 41.4763 89.3278C42.5526 89.3808 43.6313 89.4177 44.7076 89.4661C47.3674 89.5836 50.0271 89.708 52.6845 89.8302C57.5938 90.0561 62.5007 90.2635 67.4076 90.5078C72.3767 90.7567 77.3413 91.0909 82.3012 91.4458C87.3648 91.81 92.4123 92.2617 97.4436 92.9486C100.173 93.3197 102.892 93.7668 105.612 94.2024C108.403 94.6495 111.194 95.0967 113.981 95.5738C115.2 95.7835 116.076 96.922 115.887 98.162C115.721 99.2522 114.737 100.098 113.649 100.098C113.531 100.098 113.411 100.087 113.294 100.066Z" fill="black"/>
<path d="M91.9775 182.681C89.4584 182.614 86.9392 182.519 84.42 182.45C79.5546 182.319 74.6869 182.317 69.8238 182.194C64.9261 182.072 60.0146 181.8 55.1423 181.268C50.2331 180.729 45.3445 180.065 40.4699 179.267C37.9392 178.852 35.4224 178.382 32.9102 177.864C31.7992 177.633 30.6768 177.391 29.5867 177.078C28.7754 176.843 27.9779 176.61 27.1828 176.322C26.5213 176.08 25.9198 175.736 25.3459 175.335C25.1246 175.181 24.8803 174.93 24.7236 174.711C24.4954 174.393 24.2649 174.022 24.1866 173.634C24.069 173.058 24.0805 172.498 24.0944 171.915C24.1059 171.371 24.122 170.827 24.1427 170.281C24.1796 169.216 24.2257 168.154 24.281 167.089C24.4009 164.699 24.6106 162.313 24.8273 159.928C25.6893 150.473 26.8647 141.058 28.1623 131.655C29.5452 121.64 31.1516 111.658 32.8872 101.699C33.1706 100.065 33.4656 98.4312 33.7768 96.804C33.9519 95.8798 34.1271 94.9579 34.3046 94.036C34.4498 93.28 34.5697 92.5079 34.7656 91.7611C35.0813 90.5626 36.4088 89.8688 37.5797 90.203C38.7874 90.5487 39.4489 91.8141 39.14 93.008C38.1582 97.7328 37.3515 102.497 36.5426 107.256C35.6967 112.23 34.8969 117.211 34.1225 122.196C33.3873 126.912 32.742 131.641 32.1127 136.373C31.4651 141.254 30.8198 146.136 30.285 151.034C29.8794 154.744 29.5106 158.457 29.181 162.173C29.1903 162.076 29.1995 161.981 29.2087 161.882C29.0404 163.821 28.8998 165.759 28.7984 167.702C28.7523 168.596 28.7177 169.493 28.6878 170.387C28.6693 170.924 28.6463 171.461 28.6325 171.998C28.81 172.074 28.9874 172.145 29.1672 172.212C30.5339 172.664 31.9329 172.982 33.3296 173.316C41.673 175.036 50.1224 176.243 58.6017 177.034C61.0863 177.23 63.5686 177.393 66.0601 177.52C68.5216 177.647 70.9878 177.679 73.4516 177.725C78.2018 177.811 82.9519 177.843 87.7044 178.002C90.3872 178.094 93.0746 178.226 95.7597 178.147C96.7599 178.09 97.7533 178 98.7421 177.841C99.9636 177.642 101.116 178.684 101.24 179.864C101.3 180.454 101.128 181.054 100.756 181.517C100.362 182.01 99.8276 182.264 99.2169 182.363C97.5182 182.639 95.8057 182.718 94.0887 182.718C93.3857 182.713 92.6805 182.699 91.9775 182.681Z" fill="black"/>
<path d="M99.7566 183.114C98.5213 182.925 97.6777 181.748 97.8506 180.524C98.4775 176.119 98.9845 171.699 99.5515 167.287C100.174 162.457 100.902 157.639 101.67 152.832C102.474 147.805 103.368 142.799 104.343 137.804C105.293 132.948 106.328 128.11 107.312 123.261C108.058 119.576 108.787 115.886 109.481 112.191C109.854 110.198 110.234 108.202 110.591 106.206C110.96 104.164 111.334 102.122 111.603 100.063C111.633 99.5886 111.645 99.1069 111.827 98.6621C112.297 97.5143 113.696 96.9934 114.816 97.4797C115.71 97.8669 116.211 98.7612 116.174 99.6762C116.178 99.6578 116.183 99.637 116.185 99.6186C116.01 102.004 115.542 104.36 115.118 106.713C114.715 108.948 114.295 111.182 113.871 113.415C112.952 118.241 111.997 123.063 111.004 127.878C110.001 132.729 108.985 137.581 108.072 142.451C107.157 147.332 106.355 152.23 105.599 157.139C104.961 161.283 104.359 165.432 103.838 169.597C103.354 173.469 102.891 177.346 102.343 181.208C102.184 182.324 101.176 183.137 100.082 183.137C99.9756 183.137 99.8673 183.131 99.7566 183.114Z" fill="black"/>
<path d="M72.851 144.629C72.5744 142.089 72.1388 139.565 71.7193 137.046C71.339 134.81 70.9426 132.577 70.4839 130.353C70.0161 128.074 69.4284 125.831 68.8084 123.591C68.5318 122.736 68.2852 121.858 67.9602 121.019C67.5384 119.933 67.1282 118.845 66.6673 117.773C65.985 119.788 65.3374 121.814 64.7058 123.844C63.8992 126.43 63.263 129.083 62.6845 131.727C62.6868 131.713 62.6892 131.701 62.6915 131.688C62.4979 132.573 62.3042 133.455 62.1106 134.338C62.1291 134.244 62.1521 134.147 62.1729 134.054C62.1637 134.094 62.1545 134.133 62.1452 134.172C62.1475 134.161 62.1498 134.149 62.1521 134.137C62.1498 134.154 62.1452 134.167 62.1429 134.184C62.1245 134.264 62.1083 134.343 62.0899 134.423C62.1014 134.377 62.1106 134.329 62.1222 134.283C61.8755 135.43 61.629 136.578 61.3916 137.726C61.1496 138.89 60.8799 140.059 60.7277 141.236C60.7277 141.275 60.7277 141.315 60.7277 141.354C60.7001 142.571 59.6399 143.629 58.4023 143.573C57.7961 143.546 57.2314 143.313 56.8096 142.868C56.2933 142.329 56.1136 141.6 56.1942 140.868C56.2934 139.978 56.4823 139.102 56.6506 138.222C56.9617 136.592 57.3282 134.967 57.6831 133.345C57.886 132.407 58.0911 131.471 58.2985 130.535C58.2847 130.602 58.2708 130.666 58.2547 130.733C58.7871 128.297 59.3956 125.879 60.0709 123.478C60.7047 121.224 61.4676 119.004 62.2097 116.785C62.3872 116.255 62.5693 115.722 62.7491 115.194C63.1432 114.04 63.5166 112.754 64.4961 111.954C64.7335 111.763 64.9617 111.594 65.2521 111.486C65.5287 111.38 65.8098 111.35 66.1025 111.325C66.6488 111.274 67.331 111.405 67.7966 111.71C68.0593 111.88 68.3151 112.039 68.5387 112.263C68.7715 112.498 68.9766 112.744 69.1887 112.996C69.7557 113.68 70.159 114.531 70.5393 115.326C70.9311 116.144 71.2676 116.985 71.5972 117.831C71.8138 118.389 72.0581 118.942 72.2425 119.511C72.6435 120.733 73.063 121.945 73.4041 123.185C73.8697 124.87 74.3399 126.557 74.6925 128.272C75.0567 130.051 75.4117 131.83 75.7274 133.621C76.3451 137.115 76.9835 140.625 77.3661 144.154C77.4998 145.385 76.5732 146.526 75.3425 146.652C75.2641 146.659 75.1858 146.664 75.1097 146.664C73.9758 146.664 72.9754 145.784 72.851 144.629Z" fill="black"/>
<path d="M55.4372 133.776C54.2133 133.587 53.3444 132.413 53.5311 131.185C53.7086 130.016 54.7988 129.166 55.965 129.26C56.1355 129.263 56.3037 129.26 56.4743 129.254C57.7673 129.131 59.0442 128.924 60.3257 128.714C64.6817 127.961 69.0378 127.205 73.3985 126.462C73.9931 126.361 74.5623 126.407 75.0925 126.723C75.6156 127.036 75.9959 127.555 76.1365 128.147C76.4085 129.295 75.6733 130.678 74.4494 130.885C71.3195 131.418 68.1943 131.957 65.0666 132.499C63.5224 132.766 61.9759 133.04 60.4293 133.296C59.5697 133.439 58.7123 133.568 57.848 133.69C57.4446 133.748 57.0275 133.778 56.6195 133.792C56.4075 133.799 56.1931 133.81 55.9788 133.81C55.799 133.812 55.617 133.803 55.4372 133.776Z" fill="black"/>
<path d="M63.5197 164.533C61.7727 164.273 60.0625 163.77 58.4031 163.178C55.3492 162.09 52.4683 160.558 49.986 158.456C47.5199 156.37 45.5401 153.717 44.1341 150.817C42.6453 147.75 41.9146 144.385 41.6541 141.001C41.5274 139.333 41.5366 137.65 41.6242 135.981C41.7164 134.209 41.9953 132.467 42.3756 130.736C43.1016 127.428 44.4222 124.229 45.9687 121.229C47.5153 118.228 49.4582 115.455 51.7307 112.959C52.7956 111.786 53.9318 110.684 55.1349 109.654C56.2781 108.674 57.5019 107.815 58.7719 107.017C58.2994 106.946 57.8269 106.879 57.3544 106.819C56.126 106.662 55.2686 105.429 55.4484 104.231C55.6374 102.981 56.8105 102.17 58.039 102.325C60.3806 102.622 62.7038 103.067 65.0178 103.525C65.2091 103.565 65.4028 103.601 65.594 103.641C66.7603 103.193 67.9472 102.79 69.1411 102.421C72.3563 101.428 75.6707 100.732 79.0403 100.598C82.2739 100.469 85.7703 100.688 88.6605 102.278C88.732 102.32 88.8034 102.364 88.8725 102.408C89.9304 103.051 90.2946 104.459 89.6561 105.526C89.0223 106.582 87.5933 106.953 86.5377 106.31C86.411 106.231 86.2819 106.157 86.1505 106.086C85.9431 105.992 85.7334 105.906 85.5214 105.823C85.0742 105.683 84.6225 105.563 84.1638 105.457C83.5231 105.337 82.8823 105.249 82.2347 105.183C81.2044 105.111 80.1788 105.102 79.1486 105.136C77.9247 105.206 76.7171 105.344 75.507 105.537C75.2443 105.584 74.9792 105.634 74.7188 105.687C77.0535 106.39 79.3168 107.358 81.4442 108.531C84.3252 110.119 86.8443 112.286 89.1099 114.651C91.4193 117.061 93.4107 119.781 94.9756 122.729C95.7339 124.162 96.3608 125.665 96.8678 127.205C97.3772 128.747 97.7137 130.323 97.9834 131.923C98.2507 133.515 98.3614 135.126 98.3498 136.74C98.3383 138.491 98.0525 140.229 97.6492 141.93C97.2574 143.576 96.6558 145.168 96.0197 146.731C95.379 148.308 94.6069 149.84 93.7264 151.292C92.037 154.083 89.7645 156.49 87.2131 158.502C84.5741 160.583 81.4995 162.109 78.3419 163.229C75.1912 164.349 71.8608 164.833 68.5258 164.884C68.3829 164.886 68.24 164.886 68.0971 164.886C66.5644 164.886 65.0294 164.757 63.5197 164.533ZM69.3924 160.32C70.5263 160.263 71.6488 160.15 72.7712 159.977C73.8545 159.783 74.9193 159.534 75.9726 159.225C77.1135 158.857 78.2267 158.428 79.326 157.946C80.437 157.43 81.511 156.856 82.5551 156.215C83.4332 155.646 84.2768 155.038 85.0904 154.378C85.8717 153.712 86.6115 153.007 87.3168 152.258C87.9852 151.507 88.6098 150.725 89.1975 149.907C89.7438 149.1 90.2393 148.268 90.6956 147.406C91.3986 146.007 92.0047 144.574 92.5418 143.106C92.8875 142.105 93.1802 141.098 93.4153 140.068C93.5605 139.317 93.6711 138.563 93.7472 137.8C93.8002 137.014 93.8117 136.233 93.7886 135.445C93.7264 134.347 93.5996 133.264 93.4222 132.179C93.2309 131.132 92.9935 130.1 92.6962 129.076C92.3873 128.104 92.0278 127.156 91.6199 126.221C91.099 125.098 90.5135 124.013 89.8682 122.955C89.0869 121.736 88.2295 120.574 87.3099 119.451C86.2658 118.225 85.1549 117.066 83.9771 115.969C83.0806 115.167 82.1495 114.406 81.1699 113.708C80.278 113.106 79.3584 112.558 78.4088 112.051C77.3071 111.5 76.18 111.011 75.0276 110.583C73.17 109.935 71.2754 109.479 69.3624 109.041C68.2538 108.81 67.1452 108.582 66.0343 108.356C65.737 108.481 65.4419 108.607 65.1469 108.737C63.711 109.407 62.3213 110.156 60.9707 110.988C60.0096 111.611 59.0876 112.272 58.2049 112.996C57.1285 113.922 56.1144 114.906 55.1464 115.941C54.1208 117.082 53.1666 118.278 52.277 119.528C51.4219 120.779 50.6475 122.07 49.9469 123.413C49.131 125.05 48.398 126.73 47.7642 128.447C47.3401 129.673 46.9898 130.92 46.704 132.188C46.4896 133.248 46.326 134.311 46.22 135.385C46.1094 136.853 46.0886 138.321 46.137 139.791C46.2015 140.992 46.3283 142.184 46.5173 143.371C46.6832 144.267 46.886 145.15 47.1396 146.028C47.4069 146.853 47.7088 147.665 48.0523 148.462C48.4187 149.241 48.8244 149.995 49.2738 150.732C49.7255 151.428 50.2073 152.099 50.7282 152.744C51.2675 153.376 51.8344 153.973 52.4337 154.544C53.0352 155.084 53.6621 155.586 54.319 156.059C55.1211 156.603 55.9462 157.098 56.799 157.554C57.7901 158.048 58.8064 158.476 59.8436 158.861C60.9176 159.237 62.0009 159.564 63.1095 159.822C64.0038 160.004 64.9049 160.133 65.8153 160.226C67 160.325 68.1939 160.355 69.3924 160.32Z" fill="black"/>
<path d="M28.8074 141.31C26.9613 139.985 25.2212 138.503 23.5248 136.995C21.6718 135.345 19.9662 133.547 18.3921 131.627C17.6384 130.706 16.8986 129.767 16.2763 128.746C15.9444 128.202 15.6148 127.661 15.2806 127.117C14.4301 125.727 13.7525 124.194 13.1878 122.671C12.0378 119.58 11.6298 116.296 11.7981 113.012C11.881 111.396 12.123 109.787 12.4434 108.201C12.743 106.724 13.1003 105.235 13.5958 103.809C13.6212 103.739 13.6442 103.67 13.6695 103.601C13.6626 103.62 13.658 103.636 13.6511 103.654C13.6396 103.691 13.6257 103.726 13.6119 103.762C13.6211 103.739 13.628 103.714 13.6372 103.691C13.6326 103.7 13.6304 103.712 13.6258 103.721C13.6304 103.709 13.6349 103.696 13.6396 103.684C13.6534 103.647 13.6649 103.61 13.6787 103.571C13.6695 103.594 13.6626 103.617 13.6557 103.64C13.6626 103.622 13.6695 103.603 13.6764 103.585C13.6925 103.541 13.7064 103.497 13.7226 103.456C13.7179 103.467 13.7133 103.479 13.711 103.49C14.0775 102.467 14.4439 101.441 14.8127 100.418C14.7943 100.469 14.7759 100.52 14.7574 100.573C14.9188 100.123 15.1169 99.6899 15.3082 99.252C15.647 98.4752 15.9859 97.7008 16.3247 96.9218C16.486 96.553 16.6819 96.198 16.8686 95.8362C17.2788 95.0433 17.6914 94.2505 18.1016 93.4554C18.6571 92.3813 19.314 91.3603 19.9409 90.3231C20.5724 89.2744 21.2684 88.2765 21.9622 87.2623C22.2641 86.8175 22.5476 86.3543 22.8772 85.9279C23.322 85.3494 23.7715 84.7732 24.2163 84.1947C24.5298 83.789 24.8271 83.3488 25.1705 82.9639C25.6822 82.39 26.1961 81.8161 26.7078 81.2422C28.3834 79.3661 30.1972 77.5776 32.2992 76.1809C33.0137 75.7061 33.7581 75.282 34.4934 74.8464C34.9774 74.5583 35.4798 74.2979 35.9869 74.049C36.653 73.7217 37.372 73.4036 38.1165 73.3184C38.3308 73.293 38.5452 73.2769 38.7596 73.2769C39.9995 73.2769 41.0067 74.3855 40.979 75.6024C40.9514 76.8239 39.958 77.7597 38.7734 77.8196H38.7665C38.7134 77.8335 38.6581 77.8473 38.6051 77.8611C38.4876 77.9049 38.3701 77.9533 38.2525 78.0017C37.2223 78.4903 36.2312 79.0734 35.2609 79.675C34.5763 80.1129 33.931 80.5877 33.3041 81.0994C32.4191 81.8599 31.5801 82.6689 30.7688 83.5078C30.4531 83.8628 30.1373 84.2177 29.8215 84.5703C29.4528 84.9852 29.0425 85.3863 28.7014 85.8265C27.95 86.806 27.1895 87.7787 26.4358 88.7582C25.8481 89.6156 25.2626 90.4753 24.6772 91.3327C24.1794 92.061 23.7438 92.8239 23.2874 93.5775C22.8449 94.3105 22.3978 95.0295 22.0037 95.7878C21.5266 96.7074 21.0495 97.6271 20.5724 98.5444C20.5793 98.5305 20.5885 98.5144 20.5954 98.5005C20.335 99.086 20.0815 99.676 19.8234 100.266C19.579 100.824 19.2955 101.379 19.0812 101.951C18.7354 102.923 18.3852 103.896 18.0372 104.869C18.0694 104.777 18.104 104.687 18.1339 104.594C18.0832 104.733 18.0348 104.873 17.9841 105.014C17.9772 105.032 17.9703 105.051 17.9634 105.072C17.9657 105.065 17.968 105.06 17.9703 105.053C17.961 105.083 17.9495 105.111 17.9403 105.141C17.5784 106.307 17.2558 107.482 16.9861 108.674C16.7211 109.935 16.5229 111.2 16.3915 112.481C16.3154 113.47 16.2878 114.457 16.3178 115.45C16.3639 116.261 16.4491 117.063 16.5782 117.865C16.7164 118.587 16.8847 119.297 17.0852 120.004C17.3802 120.926 17.7214 121.823 18.1132 122.708C18.7332 124.022 19.4684 125.255 20.2221 126.495C20.577 126.997 20.9342 127.5 21.2892 128.002C21.6072 128.449 21.9852 128.864 22.3401 129.286C22.3171 129.256 22.2918 129.228 22.2688 129.198C23.4696 130.549 24.6749 131.872 25.991 133.112C27.8141 134.727 29.6602 136.332 31.64 137.756C32.6472 138.48 32.7463 140.019 32.0019 140.95C31.6262 141.425 31.0638 141.732 30.4623 141.796C30.3839 141.805 30.3079 141.808 30.2318 141.808C29.7109 141.805 29.2361 141.619 28.8074 141.31Z" fill="black"/>
<path d="M29.6265 141.676C28.6908 141.559 28.0016 140.826 27.755 139.955C27.4508 138.885 28.1561 137.954 28.707 137.117C29.1218 136.486 29.539 135.852 29.9585 135.225C30.8135 133.944 31.6755 132.667 32.5582 131.404C32.5006 131.487 32.443 131.57 32.3831 131.653C32.7611 131.106 33.1414 130.565 33.5263 130.025C34.2454 129.016 35.7919 128.921 36.7207 129.664C37.1955 130.039 37.502 130.602 37.5666 131.203C37.6311 131.816 37.4352 132.365 37.0826 132.858C36.8452 133.192 36.6078 133.526 36.3727 133.863C36.3773 133.856 36.3819 133.849 36.3888 133.842C36.3012 133.967 36.216 134.091 36.1284 134.216C36.1653 134.163 36.2021 134.107 36.239 134.054C36.1952 134.116 36.1537 134.179 36.1122 134.239C36.0961 134.259 36.0823 134.282 36.0662 134.303C36.0777 134.287 36.0915 134.269 36.103 134.252C35.4508 135.202 34.8031 136.156 34.1601 137.113C33.4571 138.164 32.7265 139.208 32.0719 140.291C31.7216 141.148 30.8619 141.699 29.9239 141.699C29.827 141.695 29.7256 141.69 29.6265 141.676Z" fill="black"/>
<path d="M31.036 144.053C29.7775 144.025 28.8164 142.965 28.8164 141.727C28.8164 140.563 29.7914 139.794 30.6073 139.116C31.4208 138.445 32.2575 137.812 33.1103 137.192C34.1128 136.463 35.558 136.698 36.284 137.701C37.0123 138.706 36.7772 140.149 35.7746 140.877C35.0486 141.405 34.3157 141.933 33.6265 142.506C33.6357 142.499 33.6427 142.493 33.6519 142.486C33.6035 142.527 33.5551 142.566 33.5067 142.608C33.2923 142.797 33.0803 142.983 32.8752 143.182C32.4488 143.712 31.7873 144.058 31.0867 144.058C31.0682 144.053 31.0521 144.053 31.036 144.053Z" fill="black"/>
<path d="M26.3185 152.419C25.362 151.656 25.1684 150.181 25.9566 149.225C26.2539 148.863 26.6412 148.632 27.033 148.383C27.0652 148.363 27.0975 148.342 27.1297 148.321C27.139 148.316 27.1459 148.31 27.1551 148.305C27.2058 148.273 27.2565 148.24 27.3072 148.208C27.3694 148.164 27.434 148.125 27.4985 148.088C27.5147 148.077 27.5308 148.068 27.5492 148.058C27.6414 148.001 27.7336 147.943 27.8235 147.885C27.8719 147.853 27.9203 147.823 27.9687 147.796C28.2568 147.616 28.5426 147.438 28.8307 147.261C30.4049 146.286 31.9975 145.336 33.597 144.401C34.6664 143.776 36.1046 144.265 36.6762 145.327C37.2778 146.445 36.8192 147.784 35.7497 148.406C34.217 149.301 32.6981 150.218 31.1839 151.142C30.8612 151.34 30.5386 151.541 30.2159 151.739C30.209 151.744 30.2021 151.748 30.1952 151.751C30.1698 151.767 30.1444 151.783 30.1191 151.799C30.0914 151.815 30.0661 151.834 30.0385 151.85C29.9831 151.887 29.9232 151.921 29.8656 151.956C29.8587 151.96 29.8541 151.963 29.8471 151.967C29.8103 151.993 29.7711 152.018 29.7342 152.041C29.7088 152.057 29.6835 152.076 29.6558 152.092C29.6351 152.106 29.6144 152.119 29.5913 152.131C29.4116 152.242 29.2294 152.355 29.0658 152.481C29.0796 152.47 29.0934 152.456 29.1049 152.442C28.697 152.746 28.2061 152.905 27.7129 152.905C27.2243 152.905 26.731 152.746 26.3185 152.419Z" fill="black"/>
<path d="M108.216 137.924C107.13 137.431 106.314 136.438 105.558 135.543C103.998 133.695 102.606 131.717 101.218 129.737C100.22 128.311 99.2245 126.882 98.2496 125.437C97.5558 124.411 97.7333 123.007 98.7589 122.263C99.7385 121.553 101.239 121.747 101.935 122.772C104.088 125.955 106.268 129.141 108.644 132.16C108.953 132.526 109.262 132.888 109.587 133.236C110.152 132.561 110.682 131.86 111.189 131.141C112.788 128.79 114.213 126.352 115.54 123.837C115.932 123.049 116.312 122.256 116.681 121.456C117.054 120.645 117.352 119.802 117.651 118.963C118.006 117.895 118.391 116.824 118.682 115.736C118.85 115.107 119.053 114.482 119.193 113.846C119.315 113.29 119.44 112.733 119.562 112.177C119.675 111.52 119.786 110.866 119.899 110.209C120 109.614 120.041 109.006 120.104 108.404C120.134 107.78 120.166 107.155 120.198 106.533C120.23 105.894 120.191 105.242 120.182 104.601C120.138 103.938 120.094 103.274 120.053 102.61C120.005 101.877 119.878 101.142 119.783 100.411C119.65 99.6806 119.516 98.95 119.382 98.2217C119.313 97.8529 119.193 97.4864 119.101 97.1223C119 96.7236 118.896 96.3248 118.795 95.9261C118.543 95.1862 118.292 94.4441 118.041 93.7043C117.898 93.2894 117.691 92.8884 117.518 92.4874C117.37 92.1417 117.22 91.7936 117.073 91.4479C116.644 90.6251 116.22 89.8045 115.794 88.984C115.57 88.5553 115.282 88.152 115.031 87.7418C114.78 87.3361 114.531 86.9305 114.282 86.5249C113.639 85.626 112.993 84.7271 112.353 83.8282C112.014 83.3511 111.606 82.9109 111.237 82.4592C110.919 82.0697 110.603 81.6779 110.285 81.2884C108.99 79.8571 107.713 78.4235 106.303 77.1051C105.563 76.4483 104.791 75.8352 103.986 75.259C103.127 74.6713 102.237 74.1366 101.315 73.6503C100.637 73.3138 99.9506 72.9888 99.2499 72.703C98.0583 72.6039 97.1641 71.5782 97.1641 70.3843C97.1641 69.4647 97.8002 68.6004 98.6506 68.2801C99.6901 67.8859 100.72 68.3699 101.668 68.7963C104.27 69.9672 106.687 71.4353 108.854 73.2999C110.364 74.5975 111.68 76.068 113.016 77.5362C113.872 78.4765 114.657 79.4676 115.46 80.454C116.243 81.4151 116.944 82.4315 117.665 83.4387C118.41 84.4758 119.041 85.596 119.712 86.6839C119.954 87.0803 120.152 87.5067 120.366 87.9192C120.668 88.5023 121.003 89.0762 121.261 89.6801C121.54 90.33 121.818 90.9823 122.097 91.6345C122.314 92.1416 122.487 92.6579 122.664 93.1811C122.853 93.7343 123.07 94.2851 123.215 94.8521C123.406 95.5942 123.595 96.3363 123.784 97.0785C123.92 97.6017 123.99 98.1502 124.086 98.6803C124.19 99.2473 124.291 99.8074 124.361 100.379C124.434 100.971 124.54 101.568 124.58 102.163C124.623 102.864 124.669 103.566 124.716 104.272C124.799 105.523 124.739 106.789 124.674 108.04C124.617 109.188 124.49 110.34 124.296 111.472C124.084 112.705 123.874 113.952 123.549 115.16C123.224 116.37 122.876 117.564 122.503 118.76C122.141 119.926 121.747 121.104 121.279 122.233C120.323 124.545 119.17 126.757 117.94 128.931C116.783 130.971 115.526 132.996 114.097 134.863C113.768 135.292 113.436 135.718 113.088 136.133C112.933 136.318 112.774 136.497 112.613 136.677C112.332 136.993 112.028 137.364 111.675 137.601C111.163 137.94 110.643 138.205 110.02 138.27C109.928 138.279 109.836 138.284 109.746 138.284C109.218 138.291 108.693 138.141 108.216 137.924Z" fill="black"/>
<path d="M105.986 138.284C105.831 138.214 105.672 138.157 105.513 138.099C104.898 137.876 104.292 137.636 103.692 137.366C103.07 137.087 102.464 136.774 101.855 136.467C100.496 135.783 99.1381 135.089 97.799 134.363C96.7111 133.771 96.4 132.273 97.0154 131.242C97.6723 130.148 99.0482 129.869 100.136 130.461C100.975 130.915 101.821 131.358 102.669 131.795C102.581 131.749 102.494 131.706 102.406 131.659C103.84 132.39 105.267 133.139 106.765 133.727C107.11 133.847 107.458 133.962 107.793 134.112C108.927 134.614 109.47 135.958 108.975 137.101C108.609 137.947 107.751 138.47 106.866 138.47C106.571 138.47 106.271 138.41 105.986 138.284Z" fill="black"/>
<path d="M99.5621 141.672C98.8476 140.688 99.0504 139.199 100.071 138.496C101.099 137.791 102.148 137.104 103.234 136.486C103.72 136.21 104.211 135.947 104.716 135.703C105.594 135.281 106.516 134.873 107.509 134.873C108.749 134.873 109.756 135.981 109.729 137.198C109.701 138.376 108.774 139.291 107.643 139.406L107.636 139.409C107.652 139.409 107.668 139.406 107.684 139.406C107.666 139.406 107.65 139.409 107.631 139.411C107.571 139.427 107.509 139.443 107.447 139.459C107.339 139.499 107.232 139.54 107.126 139.584C106.119 140.075 105.149 140.619 104.195 141.209C103.706 141.527 103.22 141.847 102.738 142.179C102.33 142.458 101.862 142.596 101.397 142.596C100.694 142.601 100.007 142.285 99.5621 141.672Z" fill="black"/>
<path d="M43.8621 92.2594C42.5967 92.0681 41.8246 90.9018 41.9583 89.671C42.3156 86.3337 43.1314 83.0494 43.8505 79.7742C43.9865 79.1427 44.1156 78.5089 44.2493 77.8774C44.3553 77.3749 44.4636 76.8103 44.8208 76.4139C45.2265 75.9645 45.7405 75.6072 46.3674 75.5657C47.6005 75.4827 48.7321 76.3217 48.8658 77.5893C48.898 77.9004 48.8611 78.2116 48.7666 78.5043C48.7413 78.5965 48.7182 78.6887 48.6952 78.7832C48.3933 80.2145 48.0845 81.6434 47.771 83.0747C47.2478 85.4878 46.7154 87.9033 46.4503 90.3602C46.3282 91.4849 45.2634 92.2893 44.1778 92.2893C44.0741 92.2824 43.9681 92.2755 43.8621 92.2594Z" fill="black"/>
<path d="M97.0954 95.2118C95.6457 92.2663 94.2351 89.3024 92.8269 86.3384C91.3472 83.22 89.9091 80.0785 88.2151 77.0662C87.6066 75.9852 88.0652 74.5655 89.1415 73.987C90.2455 73.3923 91.6146 73.8349 92.2207 74.9135C93.9148 77.9259 95.3507 81.0673 96.8327 84.1857C98.2432 87.1496 99.6468 90.1159 101.101 93.0591C101.647 94.1701 101.295 95.5368 100.175 96.1383C99.8451 96.3158 99.4763 96.4011 99.1098 96.4011C98.2916 96.4011 97.4757 95.9793 97.0954 95.2118Z" fill="black"/>
<path d="M102.721 156.976C102.592 155.749 103.509 154.602 104.745 154.477C105.565 154.394 106.383 154.281 107.197 154.148C109.866 153.611 112.505 152.924 115.156 152.302C117.606 151.728 120.076 151.165 122.496 150.465C122.455 150.278 122.406 150.096 122.356 149.911C122.243 149.584 122.123 149.257 121.98 148.939C121.913 148.794 121.849 148.648 121.782 148.503C121.798 148.54 121.816 148.575 121.833 148.612C121.761 148.455 121.69 148.298 121.618 148.144L121.62 148.148C121.611 148.128 121.602 148.107 121.593 148.086C121.618 148.141 121.643 148.197 121.667 148.252C120.648 146.247 119.558 144.276 118.504 142.289C117.476 140.351 116.474 138.399 115.48 136.445C113.567 132.681 111.761 128.862 110.03 125.01C109.523 123.881 110.244 122.498 111.35 122.079C111.899 121.871 112.521 121.885 113.06 122.118C113.646 122.369 114.028 122.83 114.282 123.399C114.402 123.667 114.535 123.929 114.644 124.199C114.646 124.206 114.651 124.213 114.653 124.218C114.75 124.43 114.847 124.642 114.943 124.854C115.181 125.368 115.418 125.886 115.658 126.4C116.128 127.417 116.608 128.428 117.094 129.438C119.189 133.782 121.397 138.072 123.679 142.324C124.405 143.677 125.181 145.014 125.818 146.415C125.776 146.325 125.735 146.233 125.695 146.145C125.781 146.33 125.864 146.516 125.949 146.701C125.907 146.611 125.868 146.521 125.827 146.431C125.907 146.606 125.986 146.781 126.066 146.959C126.834 148.669 127.576 150.785 126.788 152.606C126.569 153.11 126.235 153.525 125.82 153.873C125.386 154.235 124.907 154.454 124.379 154.645C123.858 154.834 123.308 154.959 122.773 155.102C120.844 155.616 118.901 156.088 116.96 156.554C115.084 157.001 113.206 157.444 111.33 157.893C109.308 158.377 107.287 158.794 105.22 159.004C105.143 159.011 105.07 159.015 104.994 159.015C103.853 159.008 102.843 158.135 102.721 156.976Z" fill="black"/>
<path d="M20.1784 210.995C18.9799 210.958 17.9082 210.262 17.1176 209.41C16.092 208.308 15.6264 206.711 15.4259 205.249C15.2346 203.846 15.2853 202.458 15.578 201.073C15.774 200.149 16.0805 199.259 16.3709 198.365C16.8088 197.014 17.4588 195.768 18.1733 194.544C18.973 193.172 19.9295 191.937 21.1741 190.948C21.6973 190.533 22.3265 190.222 22.9557 190.012C23.5618 189.81 24.168 189.761 24.7995 189.754C26.0787 189.741 27.268 190.407 28.2245 191.193C29.6903 192.398 31.117 193.645 32.5828 194.85C34.021 196.035 35.5007 197.155 37.0173 198.234C38.0682 198.916 39.1238 199.575 40.2324 200.16C40.8294 200.453 41.4356 200.721 42.0556 200.965C42.505 201.117 42.9544 201.251 43.4131 201.364C43.7288 201.419 44.0446 201.463 44.3649 201.497C44.5631 201.509 44.7591 201.513 44.9573 201.511C45.2754 201.488 45.5865 201.453 45.9 201.407C46.2065 201.343 46.5084 201.271 46.808 201.188C47.156 201.073 47.4948 200.944 47.8313 200.799C48.0987 200.665 48.3592 200.525 48.6196 200.375C48.8593 200.216 49.0921 200.048 49.3225 199.87C49.7743 199.476 50.2053 199.068 50.6179 198.632C51.1065 198.075 51.5582 197.496 51.9915 196.897C52.9434 195.491 53.7455 194.011 54.5291 192.506C54.8195 191.866 55.1122 191.225 55.4072 190.584C55.6907 189.964 55.912 189.31 56.1586 188.671C56.8915 186.511 57.5276 184.34 58.067 182.125C58.1522 181.715 58.2398 181.307 58.2998 180.892C58.309 179.662 59.413 178.661 60.623 178.689C61.8814 178.717 62.8425 179.777 62.8425 181.015C62.8425 181.625 62.6766 182.241 62.5521 182.835C62.4207 183.483 62.2525 184.124 62.0958 184.767C61.81 185.94 61.4435 187.097 61.0932 188.254C60.7129 189.519 60.222 190.75 59.7403 191.976C59.3139 193.059 58.8045 194.115 58.2675 195.15C57.5691 196.491 56.8408 197.807 56.0019 199.068C55.1168 200.396 54.1027 201.631 52.9434 202.728C51.7772 203.834 50.4381 204.655 48.9515 205.254C47.564 205.814 46.0544 206.049 44.5678 206.056C42.9544 206.063 41.3641 205.581 39.8798 204.998C38.1628 204.325 36.5586 203.362 35.0167 202.359C33.2858 201.232 31.631 199.965 30.0384 198.651C29.211 197.969 28.3904 197.282 27.5722 196.588C27.4478 196.482 27.321 196.374 27.1966 196.268C27.1943 198.524 27.0467 200.799 26.5327 202.995C26.2561 204.18 25.8782 205.337 25.4426 206.471C25.2305 207.017 24.9701 207.538 24.6866 208.05C24.3662 208.635 23.9283 209.145 23.4789 209.633C22.6676 210.521 21.4876 211 20.3006 211C20.2614 210.998 20.2199 210.995 20.1784 210.995ZM20.4158 206.257C20.538 206.107 20.6532 205.95 20.7593 205.786C20.7016 205.869 20.6463 205.952 20.5864 206.035C20.6924 205.876 20.7892 205.713 20.8814 205.547C21.0934 205.102 21.2732 204.65 21.4507 204.189C21.7503 203.284 22.0084 202.373 22.232 201.447C22.3495 200.808 22.4394 200.172 22.5063 199.529C22.5916 198.344 22.6492 197.162 22.6538 195.977C22.1974 196.666 21.7802 197.374 21.3884 198.102C21.1326 198.628 20.9136 199.16 20.7108 199.706C20.4688 200.453 20.2245 201.193 20.0309 201.956C19.9618 202.306 19.9065 202.657 19.865 203.011C19.8512 203.293 19.8465 203.572 19.8488 203.85C19.8696 204.132 19.8973 204.408 19.9341 204.687C19.9895 204.978 20.0517 205.261 20.1231 205.549C20.0955 205.455 20.0655 205.36 20.0355 205.268C20.1093 205.533 20.1969 205.793 20.3006 206.047C20.3329 206.111 20.3675 206.174 20.402 206.236C20.4066 206.245 20.4112 206.25 20.4158 206.257Z" fill="black"/>
<path d="M99.425 198.918C96.7814 197.775 94.6334 195.772 93.0707 193.382C92.4208 192.386 91.8445 191.335 91.3582 190.248C91.107 189.681 90.8212 189.121 90.6022 188.537C90.1482 187.323 89.6965 186.104 89.3969 184.838C89.1226 183.677 88.8184 182.467 88.8184 181.266C88.8184 180.026 89.927 179.019 91.1439 179.046C92.3562 179.074 93.292 180.058 93.3588 181.236C93.3842 181.508 93.4187 181.78 93.4533 182.054C93.5616 182.637 93.6838 183.209 93.822 183.787C93.9511 184.324 94.1171 184.852 94.2784 185.378C94.2784 185.378 94.2784 185.378 94.2784 185.375C94.4858 185.933 94.6932 186.491 94.903 187.049C95.0897 187.546 95.3317 188.03 95.5575 188.517C95.9378 189.289 96.3458 190.042 96.7953 190.778C97.0903 191.225 97.4037 191.658 97.7333 192.078C98.0421 192.435 98.3671 192.774 98.7105 193.101C99.0194 193.366 99.3351 193.617 99.6647 193.859C100.015 194.087 100.37 194.302 100.736 194.505C101.19 194.726 101.649 194.924 102.122 195.101C102.566 195.244 103.011 195.369 103.468 195.475C103.823 195.539 104.178 195.595 104.535 195.638C104.95 195.668 105.362 195.682 105.779 195.678C106.185 195.652 106.586 195.611 106.989 195.556C107.586 195.445 108.172 195.3 108.753 195.129C109.43 194.908 110.092 194.643 110.758 194.385C111.258 194.157 111.756 193.928 112.244 193.672C112.818 193.371 113.369 193.046 113.925 192.714C114.84 192.103 115.722 191.465 116.591 190.789C116.669 190.725 116.748 190.66 116.826 190.598C116.962 190.478 117.105 190.361 117.246 190.243C117.99 189.602 118.677 188.892 119.345 188.176C120.044 187.39 120.694 186.576 121.304 185.719C122.653 183.748 123.893 181.715 125.156 179.689C125.545 179.067 125.909 178.412 126.375 177.843C126.774 177.359 127.331 176.951 127.947 176.806C128.24 176.737 128.516 176.744 128.813 176.771C129.198 176.806 129.546 176.866 129.885 177.046C129.885 177.041 129.888 177.039 129.888 177.034C130.056 176.449 130.461 175.946 130.996 175.658C131.535 175.368 132.114 175.342 132.699 175.476C133.548 175.672 134.389 175.903 135.189 176.251C135.88 176.548 136.528 177 137.12 177.463C138.113 178.235 139.067 179.083 139.886 180.04C139.888 180.042 139.893 180.047 139.895 180.049C139.897 180.051 139.897 180.051 139.9 180.053C139.9 180.051 139.897 180.051 139.895 180.049C139.897 180.051 139.897 180.051 139.9 180.053C139.969 180.127 140.033 180.203 140.091 180.284C140.109 180.307 140.13 180.332 140.151 180.355C141.695 182.208 142.88 184.403 143.036 186.853C143.126 188.272 142.817 189.77 141.859 190.863C140.918 191.937 139.485 192.43 138.083 192.338C136.59 192.241 135.154 191.554 133.923 190.743C132.51 189.812 131.356 188.547 130.374 187.18C129.5 185.965 128.839 184.651 128.258 183.28C127.85 183.953 127.444 184.631 127.027 185.297C125.962 186.998 124.854 188.715 123.559 190.248C122.874 191.059 122.157 191.847 121.394 192.582C121.023 192.94 120.645 193.285 120.263 193.631C120.115 193.762 119.956 193.905 119.79 194.03C119.638 194.161 119.477 194.288 119.32 194.417C119.341 194.398 119.361 194.382 119.382 194.364C117.578 195.851 115.577 197.169 113.454 198.139C111.878 198.858 110.285 199.471 108.593 199.868C107.579 200.108 106.549 200.22 105.523 200.22C103.438 200.223 101.359 199.753 99.425 198.918ZM138.457 187.809C138.459 187.798 138.464 187.786 138.466 187.772C138.48 187.68 138.491 187.588 138.505 187.498C138.512 187.374 138.514 187.247 138.512 187.122C138.503 186.998 138.491 186.873 138.475 186.749C138.42 186.477 138.355 186.212 138.282 185.945C138.233 185.799 138.178 185.656 138.12 185.518C137.966 185.207 137.807 184.903 137.632 184.601C137.38 184.211 137.127 183.817 136.834 183.455C136.705 183.306 136.576 183.156 136.458 182.997C136.426 182.96 136.396 182.925 136.364 182.888C136.405 182.937 136.447 182.987 136.486 183.036C136.159 182.688 135.825 182.347 135.484 182.013C134.983 181.568 134.469 181.151 133.932 180.752C133.776 180.65 133.617 180.551 133.455 180.459C133.315 180.392 133.172 180.33 133.024 180.272C132.637 180.15 132.248 180.04 131.854 179.941C131.911 180.097 131.969 180.254 132.026 180.408C132.275 181.068 132.54 181.718 132.815 182.367C133.073 182.898 133.354 183.412 133.663 183.914C133.985 184.4 134.322 184.875 134.684 185.331C134.974 185.666 135.276 185.981 135.596 186.286C135.845 186.502 136.099 186.707 136.364 186.903C136.585 187.046 136.806 187.18 137.035 187.311C137.274 187.429 137.514 187.537 137.763 187.639C137.931 187.692 138.097 187.74 138.265 187.781C138.318 187.791 138.374 187.798 138.427 187.807C138.434 187.809 138.445 187.809 138.457 187.809Z" fill="black"/>
<path d="M12.8423 34.9921C11.6254 34.6602 10.4616 34.2223 9.29533 33.7406C9.06715 33.6438 8.84586 33.517 8.6246 33.4041C8.32497 33.2543 8.01615 33.1114 7.72344 32.9477C6.31521 32.1618 5.04757 31.2399 3.88826 30.1151C2.74508 29.0019 1.80703 27.6191 1.09715 26.1947C0.387276 24.7703 -0.00456938 23.1293 4.02123e-05 21.5366C0.00234501 20.0132 0.336534 18.5612 0.972657 17.176C1.58573 15.8438 2.55379 14.673 3.55177 13.6128C3.95972 13.1818 4.35842 12.7462 4.78941 12.3405C5.27572 11.8819 5.76435 11.4394 6.27141 11.0084C8.66609 8.96861 11.3212 7.25154 13.9533 5.53446C15.4583 4.55492 16.9703 3.59156 18.4914 2.63968C19.0653 2.28013 19.6461 1.93211 20.2293 1.58639C20.6672 1.32825 21.1005 1.06776 21.5407 0.81423C21.8933 0.609104 22.269 0.380961 22.6539 0.242674C22.8268 0.175834 22.9996 0.11824 23.1771 0.0675349C23.4375 0.00530542 23.7003 0.00755901 23.9653 0.000644623C25.3229 -0.0339273 26.3531 1.32821 26.1595 2.61429C26.0673 3.23658 25.7792 3.74826 25.4703 4.28528C25.2859 4.60565 25.1131 4.92833 24.9379 5.25101C24.0414 7.05566 23.2278 8.88565 22.4925 10.7618C22.0178 12.1216 21.5637 13.4791 21.2387 14.885C21.1304 15.452 21.0474 16.0213 20.9898 16.5952C20.9552 17.1806 20.9438 17.7614 20.9576 18.3491C20.9899 18.8009 21.0405 19.2434 21.112 19.6883C21.1788 20.0109 21.2549 20.3289 21.3425 20.6447C21.4485 20.9489 21.5637 21.244 21.6882 21.5413C21.8357 21.8363 21.9878 22.1244 22.1537 22.4079C22.3358 22.6799 22.5225 22.9449 22.723 23.2053C22.9697 23.4888 23.2231 23.7585 23.4928 24.019C23.7072 24.2011 23.9238 24.3739 24.152 24.5398C24.2972 24.6343 24.447 24.7242 24.5991 24.8095C24.825 24.9201 25.0532 25.0215 25.2883 25.116C25.4635 25.1713 25.6386 25.222 25.8161 25.2635C25.9751 25.2958 26.1364 25.3189 26.3001 25.3396C26.4614 25.3488 26.6251 25.3534 26.7887 25.3534C27.0077 25.3373 27.222 25.312 27.4386 25.2797C27.6115 25.2428 27.7798 25.2036 27.9503 25.1552C28.2016 25.0722 28.4481 24.9824 28.6901 24.8833C28.7524 24.8533 28.8169 24.821 28.8791 24.7887C29.9762 24.2125 31.366 24.6159 31.9583 25.7153C32.3455 26.4344 32.2926 27.3032 31.8938 27.9739C32.2465 28.8175 32.0413 29.8155 31.3729 30.5047C30.3196 31.5925 28.9299 32.33 27.5631 32.9615C27.5816 32.9523 27.6023 32.9431 27.6207 32.9339C27.5839 32.95 27.547 32.9685 27.5078 32.9846C27.4548 33.0099 27.4018 33.033 27.3487 33.0584C27.3626 33.0515 27.3787 33.0445 27.3926 33.0376C27.3534 33.0561 27.3142 33.0745 27.275 33.0906C27.2958 33.0814 27.3142 33.0722 27.335 33.063C25.1108 34.0794 22.8014 34.833 20.4067 35.3194C19.418 35.5176 18.4131 35.6121 17.4059 35.6121C15.8755 35.6167 14.3289 35.3954 12.8423 34.9921ZM18.0766 31.0509C18.4845 31.0209 18.8878 30.9725 19.2912 30.9149C20.1947 30.7305 21.0843 30.5231 21.974 30.2718C22.6907 30.0368 23.3984 29.7832 24.0967 29.509C23.9308 29.4583 23.7694 29.4006 23.6058 29.3384C22.4949 28.9074 21.4969 28.2943 20.5934 27.5176C19.7291 26.7755 18.9985 25.8812 18.3808 24.927C17.6917 23.8668 17.2238 22.7098 16.8665 21.5021C16.5001 20.2483 16.4171 18.9069 16.4079 17.6093C16.401 16.3509 16.5577 15.0763 16.8273 13.8479C17.2837 11.7828 17.9821 9.7845 18.7772 7.82772C15.7026 9.80063 12.6211 11.7805 9.7355 14.0231C9.22614 14.4564 8.71679 14.8919 8.22818 15.3506C7.69116 15.853 7.18868 16.3785 6.68393 16.9109C6.2852 17.3673 5.90725 17.8329 5.54539 18.3215C5.38406 18.5727 5.23652 18.8263 5.09362 19.089C5.01756 19.2457 4.94843 19.4071 4.8862 19.5684C4.7917 19.8611 4.70878 20.1492 4.63502 20.4465C4.60276 20.6286 4.57509 20.8107 4.55435 20.9951C4.54282 21.1864 4.53588 21.3776 4.54049 21.5689C4.55893 21.8686 4.58663 22.1659 4.62581 22.4678C4.68112 22.749 4.74562 23.0255 4.81938 23.3044C4.91387 23.5764 5.01761 23.8415 5.13055 24.1065C5.28958 24.4246 5.4601 24.7334 5.64218 25.04C5.90953 25.4456 6.18616 25.8351 6.48347 26.2177C6.7854 26.568 7.09879 26.9023 7.42838 27.2272C7.81328 27.566 8.20975 27.8864 8.62692 28.186C9.08096 28.4879 9.54424 28.7645 10.019 29.0319C10.367 29.207 10.715 29.3822 11.0654 29.5574C11.4572 29.7556 11.8882 29.8985 12.2961 30.0644C13.1304 30.3433 13.9602 30.6083 14.8176 30.8089C15.2786 30.8988 15.7349 30.9679 16.2004 31.0209C16.8296 31.0601 17.4497 31.0693 18.0766 31.0509Z" fill="black"/>
<path d="M122.026 33.8304C120.668 33.7866 119.329 33.5516 117.999 33.2934C116.768 33.0537 115.577 32.595 114.427 32.1064C113.422 31.68 112.442 31.1615 111.488 30.636C110.433 30.0529 109.414 29.4214 108.434 28.7161C107.911 28.3381 107.632 27.7412 107.591 27.1235C107.144 26.9944 106.703 26.8469 106.272 26.681C105.118 26.2316 104.611 24.7957 105.09 23.6894C105.574 22.5738 106.809 22.1013 107.925 22.4516C107.92 22.4493 107.916 22.4471 107.916 22.4471C107.925 22.4494 107.934 22.454 107.943 22.4563C107.971 22.4655 107.999 22.4747 108.026 22.4839C108.679 22.7029 109.336 22.878 110.002 23.0463C111.092 23.2675 112.177 23.4635 113.286 23.5764C114.159 23.6409 115.033 23.664 115.909 23.6386C116.658 23.5948 117.402 23.5211 118.144 23.4081C118.794 23.286 119.433 23.1362 120.067 22.9541C120.5 22.8089 120.924 22.6499 121.346 22.4724C121.844 22.2373 122.325 21.9791 122.8 21.6957C123.247 21.3983 123.678 21.0849 124.098 20.7507C124.517 20.382 124.914 19.9994 125.296 19.596C125.658 19.1766 125.999 18.7478 126.322 18.2984C126.626 17.8351 126.91 17.3627 127.17 16.8741C127.41 16.3762 127.624 15.8715 127.822 15.3552C128.085 14.5716 128.304 13.7764 128.491 12.9721C128.689 12.0017 128.827 11.0268 128.942 10.0449C128.993 9.22903 129.012 8.42465 128.988 7.61106C128.938 7.04869 128.873 6.49094 128.786 5.93318C128.77 5.86173 128.753 5.78799 128.737 5.71654C128.712 5.6474 128.684 5.57828 128.657 5.51144C128.452 5.08275 128.279 4.64019 128.297 4.15619C128.32 3.54081 128.405 2.98071 128.804 2.48288C129.62 1.45724 130.895 1.28672 132.123 1.27519C133.423 1.26136 134.732 1.43422 136.018 1.60247C137.136 1.74998 138.247 1.96892 139.355 2.17635C140.598 2.41144 141.861 2.63043 143.062 3.02686C144.196 3.40024 145.136 4.0778 145.816 5.05734C146.632 6.23279 146.959 7.73091 147.003 9.14145C147.06 11.0268 146.717 12.8453 146.279 14.6684C146.139 15.2469 145.947 15.8138 145.772 16.3831C145.59 16.9685 145.373 17.5701 145.129 18.1325C144.608 19.3333 144.071 20.5156 143.393 21.638C142.216 23.5925 140.828 25.4594 139.13 26.999C138.696 27.3886 138.263 27.7827 137.832 28.1722C137.339 28.617 136.79 29.0065 136.269 29.4191C135.223 30.2488 134.029 30.9333 132.838 31.528C131.376 32.2586 129.821 32.7748 128.237 33.1736C126.469 33.6161 124.591 33.8397 122.754 33.8397C122.503 33.842 122.263 33.8374 122.026 33.8304ZM123.409 29.2853C124.271 29.2369 125.133 29.1402 125.985 29.0019C126.755 28.8544 127.511 28.6746 128.262 28.458C128.993 28.2229 129.705 27.9555 130.406 27.6513C131.058 27.3401 131.69 26.9967 132.31 26.6233C133.174 26.0586 133.976 25.4318 134.785 24.7934C135.536 24.1111 136.281 23.4335 136.984 22.6983C137.574 22.0437 138.122 21.3638 138.636 20.647C139.058 20.0178 139.443 19.3701 139.833 18.7202C140.125 18.1394 140.411 17.5609 140.669 16.964C140.934 16.3509 141.167 15.7309 141.398 15.1063C141.538 14.6499 141.679 14.189 141.819 13.7326C141.944 13.327 142.027 12.9052 142.121 12.488C142.234 11.8196 142.347 11.1582 142.419 10.4852C142.444 10.068 142.455 9.6554 142.451 9.23823C142.432 9.00314 142.409 8.77271 142.379 8.53993C142.342 8.36015 142.294 8.18039 142.239 8.00523C142.253 8.0375 142.269 8.06976 142.283 8.10433C142.266 8.06746 142.25 8.03057 142.234 7.99369C142.225 7.96373 142.213 7.93144 142.204 7.90148C142.211 7.92683 142.22 7.95216 142.227 7.97752C142.172 7.85767 142.114 7.74016 142.05 7.62492C142.029 7.59495 142.008 7.56499 141.988 7.53503C141.981 7.52811 141.974 7.51887 141.967 7.51196C141.962 7.50965 141.96 7.50505 141.955 7.50274C141.916 7.47969 141.875 7.45663 141.835 7.43128C141.785 7.40823 141.734 7.38752 141.683 7.36678C141.188 7.21005 140.685 7.09251 140.181 6.97958C137.92 6.52323 135.661 6.11064 133.368 5.88246C133.43 6.31346 133.467 6.74907 133.506 7.18468C133.603 8.31172 133.573 9.49412 133.444 10.6166C133.294 11.9142 133.086 13.1863 132.805 14.4632C132.176 17.3073 130.911 19.9555 129.055 22.2027C127.267 24.3646 124.904 25.9826 122.302 26.999C120.541 27.6859 118.647 28.0338 116.745 28.1537C116.826 28.1883 116.904 28.2229 116.985 28.2574C117.259 28.3542 117.534 28.4511 117.806 28.5479C118.149 28.6677 118.518 28.746 118.87 28.8382C119.749 29.0065 120.624 29.1586 121.516 29.2485C122.146 29.2877 122.775 29.3015 123.409 29.2853Z" fill="black"/>
<path d="M59.7337 20.327C58.5629 19.82 58.1043 18.4901 58.5514 17.3354C59.1045 15.9064 59.69 14.489 60.2893 13.0784C60.6258 12.2902 60.9692 11.5089 61.3287 10.7298C61.792 9.71803 62.3036 8.63016 63.4768 8.33515C64.6776 8.03552 65.9314 8.82612 66.2149 10.0223C66.3716 10.6861 66.2126 11.3522 65.8392 11.8684C65.8138 11.9076 65.7908 11.9468 65.7677 11.986C64.6384 14.3184 63.6566 16.7292 62.7208 19.1423C62.3889 20.0043 61.5016 20.5045 60.6165 20.5045C60.3169 20.5068 60.0149 20.4492 59.7337 20.327Z" fill="black"/>
<path d="M71.4366 20.3633C70.2496 20.1836 69.2932 18.9896 69.5306 17.775C69.8256 16.2654 70.1529 14.7627 70.5147 13.2668C70.6968 12.5155 70.8881 11.7687 71.0817 11.0197C71.1693 10.6924 71.2569 10.3628 71.3537 10.0355C71.4943 9.55841 71.6118 9.05831 71.87 8.62962C72.5084 7.56941 73.9235 7.20756 74.9883 7.84599C75.9748 8.43833 76.3573 9.71748 75.8872 10.7454C75.553 11.7895 75.2971 12.8612 75.0321 13.9237C74.7993 14.8549 74.5873 15.7906 74.3799 16.7286C74.3845 16.7056 74.3891 16.6825 74.3937 16.6595C74.3891 16.6848 74.3821 16.7102 74.3775 16.7356C74.3614 16.807 74.3476 16.8762 74.3315 16.9453C74.3476 16.8762 74.3614 16.8093 74.3775 16.7402C74.2577 17.314 74.1379 17.8857 74.0273 18.4619C73.8106 19.5635 72.8933 20.391 71.7824 20.391C71.6671 20.391 71.5518 20.3818 71.4366 20.3633Z" fill="black"/>
<path d="M81.7077 21.212C81.5671 19.3589 81.4519 17.5036 81.339 15.6482C81.2813 14.694 81.226 13.7329 81.2121 12.7764C81.2052 12.2809 81.1868 11.7669 81.2628 11.2783C81.3827 10.497 81.9335 9.71103 82.7126 9.46673C83.2842 9.28695 83.8604 9.26392 84.4227 9.50822C84.9805 9.75023 85.4276 10.2181 85.6443 10.7874C85.7526 11.0755 85.7964 11.3866 85.7803 11.6955C85.7803 11.6886 85.7826 11.6793 85.7826 11.6724C85.7457 12.1956 85.7549 12.7165 85.7618 13.2374C85.8701 15.7404 86.0407 18.2411 86.2297 20.7372C86.3242 21.9703 85.4668 23.1042 84.2061 23.2356C84.1323 23.2425 84.0563 23.2471 83.9826 23.2471C82.8578 23.2448 81.7953 22.3713 81.7077 21.212Z" fill="black"/>
</svg>
