<svg width="185" height="141" viewBox="0 0 185 141" fill="none" xmlns="http://www.w3.org/2000/svg">
<path d="M124.791 36.9029C124.276 36.354 123.082 36.5587 122.964 37.3847C122.552 40.2679 123.835 42.5133 121.335 44.828C119.001 46.9896 115.011 47.1861 112.033 47.1344C106.332 47.0362 97.4686 44.7318 99.6241 37.4663C99.8133 36.8285 98.9252 36.2557 98.4683 36.7943C92.0474 44.3586 105.044 49.2568 110.522 49.876C114.592 50.3361 119.597 49.8615 122.933 47.2532C125.815 45.0027 127.608 39.903 124.791 36.9029Z" fill="black"/>
<path d="M108.519 36.2393C108.117 35.223 107.636 34.2595 107.355 33.1978C107.052 32.0503 107.543 30.7364 106.865 29.7346C106.487 29.1753 105.812 29.102 105.304 29.5341C104.206 30.4676 104.621 32.2126 104.933 33.4501C105.275 34.8075 106.001 36.1183 106.88 37.1945C107.488 37.9409 108.876 37.1407 108.519 36.2393Z" fill="black"/>
<path d="M115.981 27.6961C115.695 27.1689 115.078 26.9817 114.522 27.1017C113.05 27.4211 112.586 29.3264 112.276 30.5763C111.817 32.4278 111.64 34.5109 112.078 36.3779C112.343 37.5058 114.067 37.2391 114.067 36.1091C114.067 34.3207 114.364 32.6045 114.946 30.9122C115.286 29.9198 116.578 28.7971 115.981 27.6961Z" fill="black"/>
<path d="M172.962 88.569C162.756 87.591 152.008 87.0751 141.409 85.7622C141.023 85.0561 140.099 85.0696 139.633 85.5358C134.791 84.8918 129.995 84.0492 125.299 82.9183C122.037 74.1961 118.299 65.6063 114.736 57.0062C114.726 56.9845 114.712 56.9731 114.701 56.9524C120.551 56.143 126.228 53.7807 130.267 50.4674C138.952 43.3425 138.926 34.7795 134.446 27.668C134.675 27.6081 134.899 27.5223 135.138 27.3497C135.315 27.2215 135.459 27.0561 135.621 26.9103C135.748 27.114 135.944 27.2918 136.252 27.39C142.031 29.2415 143.469 36.231 143.976 41.5891C144.035 42.2218 144.47 42.7894 145.162 42.776C160.912 42.4565 164.763 18.305 153.893 9.34504C145.458 2.39276 123.402 5.00207 129.627 19.653C129.975 20.4718 131.211 19.8712 131.016 19.0679C127.88 6.18889 145.664 5.93976 152.765 11.8066C161.419 18.9553 158.007 38.982 146.216 40.3269C145.523 34.4746 143.459 26.41 136.941 25.2697C137.11 24.9203 137.239 24.5502 137.299 24.1666C137.533 22.6697 136.945 21.2058 135.828 20.1958C134.852 19.3129 133.499 18.8219 132.2 19.192C130.751 19.6055 130.137 21.0404 130.065 22.4226C121.018 13.9072 105.565 9.63142 94.9581 17.3053C94.7534 16.7119 94.2758 16.1619 93.7072 15.7071C95.5163 5.82709 85.4337 -4.68561 75.9941 2.22325C70.9844 5.89012 69.7407 13.5898 70.3072 19.3233C71.0061 26.3934 75.9455 31.8611 81.8506 35.2809C82.8265 35.8464 84.1177 34.9171 83.7776 33.7995C82.2724 28.858 82.9671 22.7772 88.3376 20.5132C88.3449 20.5101 88.348 20.5049 88.3552 20.5018C88.838 20.9236 89.42 21.1883 90.0538 21.3154C83.7941 27.4965 88.8762 43.0809 92.7478 48.9053C94.9798 52.2642 98.105 54.4682 101.644 55.779C99.5512 58.1785 98.1266 61.4929 96.5439 64.159C95.0315 66.7063 93.4064 70.0113 92.0014 72.3353C89.2019 71.5827 86.0643 71.4525 83.4343 71.225C78.4421 70.7929 72.9031 70.8291 68.22 68.7811C68.2654 68.2963 68.2603 67.8062 68.1972 67.3183C68.0897 66.4716 67.8127 65.6281 67.4239 64.8341C67.4942 64.8506 67.5635 64.8775 67.6338 64.8754C69.658 64.8082 70.73 62.356 70.8324 60.5769C70.9399 58.7192 69.5546 57.0289 68.1869 55.961C66.1265 54.3524 62.1991 52.3768 59.015 52.3923C61.9262 50.6545 64.4569 48.3657 66.3323 45.225C70.0084 39.0677 68.0132 30.0003 63.7044 24.7197C54.2337 13.1153 35.8157 10.6539 24.907 21.822C12.3485 34.6803 23.9859 56.3052 39.1724 57.7846C39.1465 57.858 39.131 57.9407 39.1352 58.0338C39.2013 59.6062 39.0142 61.1631 38.7423 62.7097C38.6389 63.3 38.4022 63.9233 38.242 64.5436C30.8741 64.0277 23.3925 64.1528 16.1053 65.0512C15.8406 64.9261 15.5357 64.8372 15.1635 64.8144C14.8316 64.7937 14.5039 65.0026 14.2982 65.289C10.0431 65.8906 5.86243 66.7425 1.82753 67.8848C0.874367 68.1546 0.365739 69.3073 0.896076 70.1746C6.28422 78.9753 13.6211 87.6924 22.397 93.3576C22.4414 95.9421 29.0991 97.2436 30.8152 97.7615C31.6763 98.021 32.5881 98.2484 33.5175 98.4531C32.9499 103.064 32.4941 107.657 31.0281 112.084C30.7087 113.047 31.5378 113.764 32.3917 113.874C32.6419 113.907 32.9045 113.94 33.1567 113.973C32.8497 114.204 32.5458 114.431 32.2149 114.695C28.0632 118.002 23.4473 119.373 18.3548 120.425C16.2211 120.866 14.1431 121.23 12.0972 121.233C11.1275 115.36 7.73775 109.781 1.07184 111.448C0.437085 111.606 0.0152679 112.214 0.00286232 112.851C-0.127396 119.915 4.19802 123.538 10.9663 124.244C15.9058 124.759 21.5678 122.852 26.1331 121.275C30.3913 119.805 32.9975 116.882 36.3449 114.381C42.3585 115.139 48.9665 115.823 55.2045 115.427C56.0718 123.207 56.4998 130.844 56.3965 138.694C56.3882 139.36 56.8492 139.888 57.4592 140.09C60.818 141.2 68.098 140.091 69.0336 135.922C69.4099 134.243 67.5645 132.534 66.0645 132.192C63.2805 131.558 61.0527 132.406 59.1588 134.151C58.9241 127.825 58.3793 121.413 56.8978 115.297C59.4999 115.042 62.0193 114.582 64.3784 113.832C68.7389 112.446 67.1035 107.368 65.437 104.134C68.9126 104.509 72.3872 104.908 75.8504 105.442C77.6885 105.725 79.479 106.089 81.2499 106.49C78.4473 113.354 75.1681 119.521 84.5488 122.547C87.37 123.457 90.3722 124.104 93.4095 124.667C92.3757 127.277 92.3798 130.288 92.1244 133.17C89.3466 131.979 85.4203 131.56 84.0732 133.857C81.6035 138.069 91.5269 138.255 93.0859 138.222C93.7268 138.209 94.3678 137.783 94.5177 137.133C94.5818 136.856 94.6107 136.577 94.6572 136.3C94.9147 135.994 94.9829 135.537 94.8299 135.14C95.1659 131.762 94.6345 128.337 95.4212 125.03C98.6156 125.586 101.818 126.086 104.867 126.718C105.485 126.846 106.105 126.964 106.726 127.085C106.272 130.256 105.803 133.589 105.982 136.822C105.942 137.045 105.96 137.269 106.019 137.481C106.064 138.014 106.127 138.545 106.214 139.071C106.285 139.5 106.766 139.99 107.199 140.056C109.571 140.415 117.915 140.838 115.43 135.944C114.309 133.734 111.02 133.407 108.599 134.367C108.55 132.049 108.66 129.739 108.441 127.41C115.01 128.606 121.636 129.31 128.328 128.832C129.263 128.765 130.067 127.926 129.766 126.944C129.027 124.526 128.646 120.692 126.98 118.399C133.952 119.01 141.135 118.816 147.931 120.392C149.167 120.679 150.519 121.062 151.948 121.488C152.169 121.827 152.61 121.992 152.98 121.798C163.411 124.961 177.387 129.737 182.073 117.593C186.242 106.787 188.006 90.0091 172.962 88.569ZM7.85972 116.946C8.62783 118.13 9.00208 119.552 9.25226 120.963C8.1554 120.749 7.06369 120.401 5.97407 119.85C1.55356 115.797 2.18211 114.828 7.85972 116.946ZM63.358 137.013C62.224 137.412 60.9762 137.634 59.7635 137.564C61.7763 135.861 68.2138 135.308 63.358 137.013ZM112.703 137.179C112.773 137.22 112.811 137.231 112.855 137.246C112.821 137.249 112.793 137.247 112.748 137.265C111.715 137.69 110.446 137.644 109.267 137.51C110.341 136.916 111.406 136.415 112.703 137.179ZM131.276 22.9612C131.514 22.1383 131.882 21.2316 132.708 21.0373C133.193 20.9246 133.954 21.3164 134.427 21.7734C134.97 22.2985 135.264 23.0573 135.139 23.7117C135.049 24.1842 134.81 24.5812 134.486 24.9399C134.29 25.157 134.064 25.3503 133.832 25.5271C133.627 25.6821 133.475 25.8579 133.331 26.0367C132.625 25.097 131.829 24.1966 130.981 23.3261C131.113 23.2569 131.224 23.1421 131.276 22.9612ZM87.829 16.0854C87.3793 16.7067 87.2242 17.4624 87.2759 18.2088C82.0067 20.6176 79.996 25.8672 80.5894 31.2533C73.1047 25.4413 70.3951 15.8321 75.3614 6.93426C77.7588 2.63987 82.5101 1.68672 86.668 3.8029C90.8146 5.91391 92.3622 10.5846 92.4542 14.9255C92.0872 14.7549 91.7274 14.6308 91.4101 14.573C89.9648 14.3062 88.6736 14.9172 87.829 16.0854ZM89.5513 18.8436C89.2567 18.3443 89.3797 17.7922 89.7002 17.3001C89.9318 16.9455 90.5076 16.7243 91.0482 16.8494C92.0293 17.0727 92.5752 18.0682 93.3815 18.5924C93.2068 18.7464 93.0218 18.8756 92.8512 19.038C92.6548 19.224 92.5462 19.4236 92.479 19.6272C92.1461 19.773 91.8753 19.9745 91.5776 20.1513C90.7836 19.9156 89.938 19.5001 89.5513 18.8436ZM96.7579 49.2248C90.4114 43.541 86.5884 27.6898 93.5169 21.3743C93.9542 21.5067 94.4494 21.4633 94.8857 21.0725C109.813 7.70136 143.266 24.3951 131.217 44.8777C124.731 55.9031 105.811 57.3329 96.7579 49.2248ZM97.4888 68.2291C99.5719 64.3823 101.712 60.3991 103.479 56.3879C106.474 57.2036 109.702 57.4156 112.923 57.1488C112.913 57.2574 112.91 57.3721 112.939 57.5014C114.831 65.9847 118.805 73.9573 121.96 82.0519C117.392 80.7886 112.936 79.2204 108.669 77.1921C108.586 77.1528 108.506 77.1538 108.423 77.1301C108.687 75.0201 107.622 73.0311 105.949 71.7398C104.311 70.4745 102.083 70.49 100.164 71.1826C97.8372 70.6606 96.271 71.8846 95.4564 73.7702C95.202 73.6089 94.9229 73.4808 94.651 73.3412C95.9671 71.8691 96.9295 69.2629 97.4888 68.2291ZM104.735 78.8864C103.668 80.4961 100.472 82.9131 98.6115 81.1681C97.127 79.7766 96.6245 75.9898 97.7069 73.7495C97.9623 74.3936 98.6177 74.9084 99.3186 74.6169C101.078 73.888 102.728 73.092 104.503 74.2116C106.205 75.2868 105.63 77.5353 104.735 78.8864ZM65.3057 57.001C66.4201 57.7009 67.67 58.7088 68.098 60.0011C68.5642 61.4081 67.0518 62.3726 66.7292 63.6462C65.9198 62.5039 64.8374 61.5724 63.5917 61.0876C63.5658 60.9656 63.4811 60.8622 63.327 60.8798C63.2278 60.8922 63.1368 60.9015 63.0407 60.9119C62.0399 60.6379 60.9565 60.6431 59.838 61.0525C59.5723 61.1496 59.38 61.3264 59.227 61.528C58.4124 59.0872 57.9895 56.573 57.4075 54.0816C60.1543 54.9086 62.7832 55.4172 65.3057 57.001ZM65.3429 68.9672C65.0214 70.7743 63.3467 71.9859 61.2935 71.9538C59.2208 71.9228 59.1515 68.6715 59.3572 67.2842C59.5144 66.2276 60.0395 64.8527 60.8077 63.6855C63.1172 63.7383 64.643 64.8454 65.2778 67.2966C65.3574 67.6057 65.3925 67.9024 65.4039 68.1898C65.2519 68.4193 65.2065 68.7077 65.3429 68.9672ZM40.507 57.857C43.0564 57.9035 45.6832 57.3949 48.2998 56.1544C48.5582 56.2763 48.8559 56.3373 49.2105 56.2484C51.5686 55.6602 53.8502 54.9128 55.9984 53.9606C55.5901 56.7198 56.5908 59.7126 57.0415 62.3995C57.1646 63.1345 57.8479 63.3423 58.4433 63.1872C57.5326 64.403 56.9754 65.8731 56.7345 67.3597C56.7345 67.3617 56.7345 67.3638 56.7345 67.3638C56.6011 67.2852 56.4668 67.2067 56.2858 67.1653C51.1903 66.0106 45.8838 65.1959 40.4998 64.7172C40.568 64.1042 40.5628 63.4695 40.6145 62.9639C40.7779 61.3295 40.9784 59.4594 40.507 57.857ZM28.0611 49.0067C23.0162 43.2898 21.5193 34.3888 24.7023 27.4696C25.4136 25.9251 26.3564 24.6049 27.446 23.4522C27.6549 26.0977 28.8137 29.1247 30.7118 30.7426C31.3279 31.2667 32.2242 30.6164 31.8365 29.8752C31.2514 28.7556 30.4957 27.7425 29.9302 26.6053C29.2365 25.2087 28.9595 23.72 28.7765 22.191C29.8341 21.3102 31.0126 20.5866 32.2614 19.9808C32.7742 23.1194 32.8011 27.3631 35.4766 29.5031C36.0296 29.9455 36.7719 29.408 36.4556 28.7463C35.6988 27.1667 34.8759 25.7338 34.4107 24.027C34.0024 22.5322 33.7801 20.999 33.3325 19.5124C33.3304 19.5052 33.3263 19.5021 33.3242 19.4949C34.7891 18.8901 36.3522 18.4797 37.9504 18.1995C37.8253 18.3618 37.7964 18.61 37.9525 18.8033C38.3267 19.2633 38.3712 20.3074 38.487 20.8677C38.7123 21.9636 38.8498 23.078 39.0297 24.1811C39.252 25.5426 39.3202 27.7167 40.6372 28.5199C41.2462 28.8911 41.8013 28.2842 41.7165 27.6908C41.4519 25.8321 40.7024 23.8978 40.2713 22.0525C39.9725 20.7747 39.7441 18.8508 38.4921 18.1054C38.4766 18.0951 38.4642 18.1044 38.4477 18.0972C40.0635 17.848 41.7165 17.7747 43.3603 17.8284C43.2414 17.9639 43.1814 18.1437 43.3169 18.3504C44.1749 19.653 44.4447 21.4932 44.7135 23.0005C44.91 24.1067 44.8831 25.311 45.4692 26.2962C45.7949 26.8431 46.625 26.7283 46.8007 26.1225C47.1398 24.9564 46.6746 23.6756 46.3831 22.5405C45.9727 20.9412 45.4899 19.0121 44.208 17.8646C45.4754 17.9442 46.7191 18.1365 47.9421 18.3805C48.0041 18.5128 48.1085 18.6234 48.2935 18.6585C49.3677 18.8643 49.6675 21.8323 49.8184 22.6707C49.989 23.6197 49.9114 24.9523 50.6682 25.6811C51.1055 26.1018 51.9387 25.7845 51.9398 25.2077C51.9573 25.1239 51.979 25.0102 51.9842 24.9771C52.0535 24.5636 52.0452 24.2142 51.9615 23.8037C51.7599 22.8165 51.5159 21.8385 51.214 20.8781C51.0414 20.3312 50.7984 19.6303 50.4521 19.0069C51.7919 19.4132 53.0852 19.895 54.2606 20.4977C61.6688 24.2989 66.0521 32.47 64.794 40.6815C63.7436 47.5355 56.8224 50.9626 50.7292 52.8927C50.6113 52.8979 50.4862 52.9247 50.358 52.9795C50.2505 53.025 50.144 53.0623 50.0365 53.1067C49.5052 53.267 48.979 53.421 48.4683 53.5605C48.2108 53.6308 48.0237 53.758 47.8707 53.9058C40.537 56.3021 33.5806 55.2601 28.0611 49.0067ZM37.3374 67.861C43.4461 68.2642 49.5289 69.0406 55.4898 70.0486C55.9653 70.1292 56.3716 70.0062 56.6849 69.7746C56.9909 72.2764 58.4723 74.4195 61.2925 74.7844C64.2729 75.169 66.6879 73.2967 67.7144 70.8011C70.5533 72.449 73.9513 73.0217 77.2161 73.4177C83.2545 74.1496 88.9755 74.9053 94.8392 76.4374C94.6149 79.3207 95.6083 82.5461 97.8485 83.8828C101.211 85.8904 105.552 82.8593 107.461 79.6938C117.527 84.5103 128.774 86.3598 139.853 88.05C140.557 90.7865 140.692 93.4971 140.51 96.1953C140.347 95.9462 140.08 95.7601 139.68 95.7518C119.872 95.3218 98.9816 91.0874 79.6269 87.0876C68.0546 84.6964 56.812 81.0833 45.3421 78.2858C41.117 77.2562 37.0076 76.5139 33.0079 74.805C32.6522 74.652 32.3741 74.5518 32.1157 74.4815C35.2078 73.6968 37.4604 71.1309 37.3374 67.861ZM4.72732 70.3525C7.9693 69.5244 11.2526 68.9072 14.5608 68.4627C14.4801 71.653 12.0766 75.1452 9.4218 76.8313C7.76359 74.7358 6.18394 72.5834 4.72732 70.3525ZM22.4011 90.5363C22.4466 90.0287 21.8883 89.8778 21.5255 90.0856C17.8131 86.4228 14.1835 82.6226 10.8505 78.5939C13.3761 77.2365 15.2627 74.4039 16.343 71.9569C16.7255 71.0895 17.23 69.5533 17.3324 68.1257C23.0286 67.5281 28.7879 67.4496 34.5358 67.7153C34.8067 70.0775 33.1898 71.501 29.6335 71.959C28.3857 71.7822 27.1152 73.2523 28.272 74.2975C31.5347 77.2438 29.9519 81.8958 25.3453 81.7346C24.0583 81.6891 23.6768 83.2067 24.3818 84.0606C28.3165 88.8223 22.644 87.8557 22.4011 90.5363ZM53.6269 112.142C47.0737 112.393 40.4967 111.979 33.9858 111.224C34.5771 107.087 34.9555 102.956 35.1499 98.7726C36.9352 99.0765 38.7465 99.2502 40.4357 99.1923C40.4326 99.1892 40.4295 99.184 40.4264 99.1799C40.4439 99.1799 40.4615 99.1788 40.4791 99.1778C41.1883 102.186 43.0605 105.346 46.4089 105.453C48.4517 105.517 50.1916 104.028 51.459 102.539C55.1652 103.043 58.8817 103.431 62.5982 103.824C62.8876 105.585 63.54 107.148 64.0745 108.848C65.2519 112.597 55.3647 112.075 53.6269 112.142ZM42.6242 97.4648C44.1377 96.5757 45.3462 95.6732 47.1977 95.5337C48.4114 95.4427 50.0624 95.6567 50.784 96.768C51.9666 98.5896 48.1819 102.943 46.1474 102.647C44.6112 102.425 43.1659 99.887 42.6242 97.4648ZM96.9636 121.988C93.0983 121.144 89.2008 120.525 85.3355 119.696C78.745 118.281 81.6345 111.327 82.7851 106.844C89.082 108.382 95.0801 110.495 101.394 112.396C101.444 112.411 101.484 112.403 101.531 112.412C101.432 115.69 102.957 119.165 105.639 121.05C109.449 123.724 114.757 120.188 116.142 116.365C118.473 117.556 121.554 117.829 123.981 118.096C123.915 118.388 123.932 118.7 124.084 118.984C125.214 121.101 125.776 123.552 126.39 125.914C116.423 126.241 106.673 124.111 96.9636 121.988ZM105.635 109.009C105.663 109.478 105.935 109.912 106.468 110.106C107.374 110.436 108.288 110.143 109.239 110.196C110.267 110.254 111.366 110.775 112.165 111.399C114.351 113.108 113.687 115.496 112.018 117.299C110.386 119.061 108.189 119.792 106.348 117.996C104.38 116.075 102.818 110.341 105.635 109.009ZM134.594 116.187C130.101 115.946 121.081 116.791 116.54 114.267C116.582 112.227 115.622 110.342 113.911 108.987C112.379 107.773 109.017 106.456 106.921 107.387C104.552 106.893 102.736 107.961 101.949 110.079C95.7593 105.527 86.4158 104.346 79.0914 103.038C70.4623 101.497 61.2873 100.319 52.5083 101.156C53.6879 99.3856 54.3557 97.3666 53.2878 95.3042C51.5107 91.871 46.1019 91.9195 42.7638 93.8403C43.0429 93.3265 43.4864 92.9926 44.1408 92.9565C44.6453 92.9285 44.7921 92.1749 44.2638 92.0467C43.6456 91.8989 43.3241 91.6559 42.6263 91.8317C41.915 92.0105 41.4137 92.5326 40.997 93.1011C40.3302 94.0119 40.1421 95.2349 40.1472 96.4062C38.0693 95.5967 35.2274 95.7539 33.1712 95.4035C31.117 95.053 29.0608 94.3758 27.0656 93.7897C26.3068 93.5664 25.2016 92.9523 24.1989 92.6969C23.897 92.4075 23.5993 92.1087 23.2984 91.8172C23.8288 91.7572 24.3188 91.6342 24.5865 91.4947C27.3013 90.0784 28.332 87.9456 27.9433 85.6609C34.8966 85.5627 42.0246 86.8426 49.1309 88.5638C51.0869 89.149 53.0645 89.639 55.0515 90.0815C62.2105 91.9961 69.2941 94.0926 76.1016 95.4045C77.8746 95.7456 79.6517 96.065 81.4277 96.3886C84.8403 97.0906 88.2684 97.7222 91.7212 98.2443C97.4898 99.2781 103.251 100.341 108.983 101.604C118.109 103.615 127.265 105.98 136.602 106.738C136.691 107.112 137.075 107.411 137.533 107.317C138.214 107.175 138.483 106.742 138.641 106.224C138.645 106.214 138.648 106.203 138.651 106.193C138.751 105.855 138.807 105.483 138.894 105.13C138.934 104.973 138.88 104.864 138.8 104.779C138.931 104.647 139.076 104.525 139.183 104.379C138.28 108.329 137.169 112.278 136.565 116.267C135.907 116.242 135.242 116.222 134.594 116.187ZM137.695 116.313C140.119 107.198 144.204 97.8163 142.173 88.4036C142.93 88.5183 143.691 88.6331 144.446 88.7499C147.731 97.0637 146.444 108.463 142.703 116.584C141.037 116.44 139.363 116.374 137.695 116.313ZM147.635 117.362C147.434 117.315 147.234 117.258 147.032 117.21C145.999 116.971 144.943 116.804 143.877 116.68C147.653 109.596 150.866 96.5179 146.794 89.118C147.576 89.243 148.358 89.3691 149.136 89.4994C149.426 89.548 149.703 89.5759 149.99 89.6214C152.416 99.0331 150.796 108.265 147.635 117.362ZM152.749 118.731C151.447 118.357 150.142 118 148.833 117.663C151.339 112.704 152.59 107.009 153.322 101.579C153.754 98.3766 154.229 93.2066 152.401 89.9657C152.975 90.0432 153.561 90.1434 154.13 90.2127C156.679 99.8663 156.608 109.421 152.749 118.731ZM181.501 109.161C181.035 112.254 180.02 115.255 178.675 118.069C176.09 123.47 170.285 122.705 165.474 121.936C161.765 121.343 158.144 120.295 154.525 119.244C156.674 114.849 157.755 109.943 158.379 105.122C158.907 101.051 159.336 94.3944 156.767 90.5001C159.885 90.8009 163.004 90.9757 166.283 91.0118C171.115 91.0635 178.845 90.6521 181.171 96.3246C182.741 100.15 182.096 105.215 181.501 109.161Z" fill="black"/>
<path d="M62.6255 36.1545C62.2647 35.0411 60.3202 34.7868 60.1134 36.1545C59.2192 42.0606 56.248 44.3349 50.3813 45.501C45.4469 46.4821 39.5078 45.835 35.2041 43.1513C34.3254 42.6034 33.3288 43.8821 34.0969 44.5872C38.8389 48.9426 46.1768 49.2279 52.1894 48.1548C57.5496 47.1975 64.6973 42.5506 62.6255 36.1545Z" fill="black"/>
<path d="M53.1713 34.9739C52.549 33.4655 51.264 32.4669 49.6213 32.3904C48.9121 32.3584 48.8883 33.3177 49.4652 33.5431C50.4287 33.9204 50.9673 34.8198 51.2247 35.7792C51.4749 36.7096 50.958 37.5377 51.0376 38.4598C51.0986 39.17 51.7809 39.6135 52.4404 39.2651C53.9498 38.466 53.7275 36.3209 53.1713 34.9739Z" fill="black"/>
<path d="M46.1462 40.5916C45.804 38.8135 45.161 37.1481 44.1044 35.6728C43.4655 34.7807 42.0668 35.5508 42.6116 36.5454C43.358 37.9069 43.8387 39.3356 44.0341 40.878C44.1933 42.133 43.6806 43.6217 44.7133 44.5428C45.07 44.8612 45.5631 44.8715 45.9187 44.5428C46.9887 43.5534 46.3912 41.8684 46.1462 40.5916Z" fill="black"/>
</svg>
