<svg width="169" height="126" viewBox="0 0 169 126" fill="none" xmlns="http://www.w3.org/2000/svg">
<path d="M130.455 49.7599C129.703 50.1056 128.705 49.7782 128.38 48.9899C127.563 47.0073 126.708 45.0372 125.845 43.0747C124.957 41.0577 123.984 39.0866 122.957 37.1377C122.247 35.8273 121.513 34.5308 120.76 33.2429C120.013 31.9694 119.177 30.7484 118.342 29.5315C118.059 29.1455 117.775 28.7598 117.492 28.3724C117.176 27.9435 116.83 27.5359 116.5 27.1188C115.898 26.3577 115.225 25.6523 114.567 24.9408C114.188 24.5604 113.809 24.1799 113.43 23.7995C113.048 23.4156 112.628 23.0628 112.226 22.6974C111.939 22.4653 111.649 22.2338 111.361 22.0004C110.879 21.6128 110.374 21.2605 109.855 20.9255C108.832 20.3062 107.758 19.8058 106.671 19.3125C105.83 18.9703 104.99 18.6308 104.143 18.2999C103.335 17.9832 102.515 17.7079 101.695 17.4211C101.212 17.284 100.727 17.1473 100.242 17.0091C99.8127 16.8871 99.3767 16.7966 98.9402 16.6977C98.5084 16.6006 98.0775 16.4947 97.64 16.4232C97.0925 16.3332 96.5451 16.2432 95.9976 16.1532C95.1395 16.0478 94.2815 15.9753 93.4172 15.9457C92.3431 15.9297 91.2772 15.9834 90.2095 16.0932C89.8679 16.1448 89.5249 16.1966 89.1833 16.2482C88.8376 16.3006 88.4836 16.3349 88.1407 16.4067C87.4408 16.5507 86.7399 16.6963 86.0403 16.8416C85.3308 17.0263 84.6211 17.2096 83.9117 17.3943C83.5605 17.4866 83.2151 17.6175 82.8695 17.7286C82.4881 17.8519 82.106 17.9724 81.7232 18.096C81.096 18.3482 80.4679 18.6034 79.8407 18.8556C79.5361 18.9776 79.2414 19.1502 78.9464 19.2957C78.6253 19.4528 78.3046 19.6112 77.9835 19.7682C77.4622 20.0598 76.9412 20.3528 76.4199 20.6443C75.9903 20.8855 75.5806 21.1522 75.1663 21.4172C74.7407 21.6889 74.3085 21.9507 73.8975 22.2435C73.3471 22.6359 72.795 23.0272 72.246 23.4192C72.3002 23.3801 72.3547 23.3422 72.4102 23.3027C71.8097 23.7848 71.2089 24.2656 70.6101 24.7487C70.332 24.9706 70.0792 25.2354 69.8171 25.478C69.562 25.7133 69.3056 25.9489 69.0502 26.1828C68.5425 26.7287 68.0311 27.271 67.5247 27.8166C67.084 28.3618 66.6413 28.9047 66.2006 29.4499C65.9717 29.7323 65.7744 30.0477 65.5645 30.3444C65.3257 30.679 65.0886 31.0147 64.8488 31.351C64.4892 31.9397 64.1293 32.527 63.7701 33.1171C63.5949 33.4033 63.4582 33.721 63.3027 34.0185C63.1328 34.3478 62.9629 34.6771 62.793 35.0065C62.6015 35.4507 62.4116 35.8959 62.2214 36.3398C61.8637 37.1754 61.5648 38.0308 61.2974 38.8992C61.0276 39.8282 60.7983 40.7653 60.6174 41.7146C60.5043 42.3 60.39 42.8857 60.28 43.4719C60.1112 44.6172 59.9458 45.7588 59.8327 46.9103C59.7773 47.4658 59.7077 48.0215 59.6798 48.5781C59.6456 49.2675 59.6084 49.9561 59.5783 50.6447C59.573 51.5221 59.5579 52.4002 59.5772 53.2793C59.6009 54.3776 59.629 55.4762 59.6713 56.5746C59.7132 57.6259 59.7742 58.673 59.8401 59.7233C59.8976 60.6325 59.9985 61.5378 60.0855 62.4448C60.2911 64.143 60.5266 65.8346 60.7545 67.5307C60.8103 67.9429 60.8467 68.3579 60.8896 68.7701C60.9751 69.6059 61.0146 70.4533 60.7356 71.2571C60.2739 72.5832 58.742 72.7718 57.558 73.0404C54.3198 73.7779 51.0731 74.4773 47.8403 75.2394C47.7575 75.2592 47.6757 75.2774 47.5943 75.2969C46.6622 75.5281 45.7171 75.7394 44.8 76.0188C44.0366 76.3727 43.0941 75.9901 42.7494 75.2362C42.3874 74.4489 42.7532 73.5343 43.5195 73.1612C43.9619 72.9458 44.4896 72.8629 44.9644 72.7418C45.5677 72.5878 46.1721 72.4322 46.7774 72.2807C48.0259 71.9677 49.2872 71.7063 50.5439 71.4244C52.959 70.881 55.3764 70.3415 57.7893 69.7815C57.8002 69.779 57.8111 69.7766 57.8217 69.7728C57.8065 69.2473 57.7452 68.7263 57.6917 68.2022C57.4553 66.4679 57.2233 64.7341 57.0063 62.9969C56.798 61.325 56.7012 59.6398 56.5967 57.9591C56.5448 57.133 56.532 56.3025 56.4987 55.4766C56.4675 54.6602 56.4422 53.8381 56.4442 53.0229C56.4471 52.1475 56.4176 51.2678 56.461 50.3948C56.502 49.5752 56.5057 48.7482 56.5886 47.9308C56.6728 47.0802 56.7284 46.223 56.8493 45.3771C56.9777 44.4939 57.0729 43.5965 57.2424 42.7183C57.4644 41.5613 57.6724 40.4058 57.9587 39.2617C58.2331 38.1673 58.5778 37.093 58.9691 36.0355C59.1534 35.5329 59.381 35.045 59.5932 34.5519C59.74 34.2092 59.8737 33.8521 60.0457 33.5195C60.3013 33.0225 60.5572 32.5268 60.8142 32.0295C61.2099 31.2627 61.6872 30.5406 62.1373 29.806C62.5924 29.0618 63.1342 28.3668 63.6385 27.6574C63.8393 27.377 64.0744 27.1161 64.291 26.8493C64.604 26.4625 64.899 26.0468 65.2384 25.6827C65.5329 25.3671 65.8249 25.0536 66.1196 24.7394C66.3991 24.4401 66.6704 24.1297 66.973 23.851C67.3339 23.5193 67.6945 23.1862 68.0567 22.8542C68.2941 22.6357 68.5242 22.4102 68.7767 22.2083C69.4537 21.6649 70.1166 21.1033 70.8237 20.5989C71.5138 20.1084 72.1934 19.6029 72.9084 19.1469C73.6388 18.6831 74.3601 18.2171 75.1137 17.7939C75.5423 17.5544 75.9705 17.3135 76.399 17.074C76.6685 16.9227 76.9459 16.7882 77.2251 16.6547C77.3204 16.6078 77.4161 16.5623 77.5128 16.5151C77.8569 16.3458 78.2 16.1466 78.558 16.0014C79.0553 15.801 79.5511 15.6008 80.0484 15.4004C80.8882 15.0624 81.7504 14.7995 82.6139 14.5234C83.4201 14.2658 84.2484 14.0762 85.0676 13.8643C85.893 13.6481 86.7365 13.5009 87.5716 13.3284C87.9267 13.2538 88.293 13.2168 88.6526 13.1627C89.2573 13.0727 89.8555 12.9857 90.4638 12.9249C91.6112 12.8074 92.7634 12.7946 93.9149 12.8305C94.8289 12.8592 95.7517 12.9402 96.6521 13.0876C97.5022 13.2276 98.3545 13.3514 99.1942 13.5409C99.6697 13.6483 100.144 13.756 100.618 13.8624C101.041 13.9586 101.46 14.1 101.876 14.2191C103.458 14.6683 105.003 15.2472 106.526 15.8682C107.417 16.2307 108.294 16.6121 109.17 17.0095C110.49 17.6068 111.735 18.3596 112.902 19.2183C113.273 19.4919 113.624 19.7998 113.984 20.0886C114.305 20.3463 114.605 20.6197 114.909 20.8983C115.533 21.4714 116.131 22.0648 116.728 22.6657C117.372 23.3132 117.971 24.0119 118.564 24.7051C119.06 25.284 119.548 25.8762 119.998 26.4894C121.033 27.9006 122.031 29.33 122.952 30.818C124.645 33.5568 126.158 36.4012 127.567 39.2946C128.229 40.6555 128.826 42.0497 129.427 43.4385C130.038 44.8495 130.647 46.2595 131.234 47.6801C131.554 48.4568 131.27 49.363 130.498 49.739C130.477 49.7493 130.467 49.7544 130.455 49.7599Z" fill="black"/>
<path d="M156.223 64.338C155.147 62.5615 153.937 60.8648 152.735 59.1706C152.292 58.567 151.844 57.9732 151.385 57.3817C150.923 56.7855 150.407 56.2311 149.894 55.6789C149.611 55.4015 149.33 55.1208 149.045 54.8424C148.756 54.5578 148.439 54.2965 148.135 54.0268C147.841 53.7904 147.548 53.5538 147.254 53.3175C146.924 53.0535 146.56 52.8241 146.213 52.5796C145.905 52.392 145.596 52.2047 145.288 52.0188C144.943 51.8079 144.564 51.6434 144.203 51.4605C143.702 51.2431 143.201 51.0297 142.688 50.8364C142.146 50.6351 141.598 50.4608 141.048 50.2885C140.355 50.1123 139.668 49.936 138.962 49.814C138.411 49.7348 137.859 49.6829 137.303 49.6621C136.552 49.6557 135.808 49.7081 135.061 49.7709C133.847 49.9077 132.619 50.0488 131.426 50.3165C131.469 50.3054 131.513 50.2944 131.555 50.285C131.106 50.3889 130.606 50.3428 130.231 50.0471C129.907 49.7904 129.678 49.4596 129.605 49.047C129.521 48.5738 129.666 48.0499 130.006 47.7044C130.089 47.6186 130.213 47.5068 130.319 47.449C130.441 47.3818 130.568 47.3266 130.696 47.2867C130.692 47.2862 130.686 47.2847 130.681 47.2842C131.418 47.0878 132.192 47.0003 132.944 46.8861C133.808 46.7543 134.681 46.6664 135.552 46.593C136.979 46.4734 138.402 46.5534 139.814 46.7903C140.83 46.9607 141.822 47.2565 142.802 47.5662C143.614 47.8206 144.396 48.1386 145.174 48.4792C145.973 48.8277 146.73 49.2429 147.475 49.695C148.193 50.1301 148.876 50.6161 149.53 51.1413C150.18 51.6643 150.82 52.2013 151.413 52.7885C152.212 53.5762 152.959 54.395 153.68 55.2541C154.335 56.0335 154.93 56.8734 155.519 57.7032C156.676 59.3346 157.839 60.9719 158.875 62.683C159.317 63.4111 159.108 64.3837 158.376 64.8393C158.331 64.8679 158.285 64.8924 158.238 64.9155C157.54 65.2549 156.638 65.0221 156.223 64.338Z" fill="black"/>
<path d="M45.5394 104.489C44.7641 104.731 43.7825 104.289 43.58 103.46C43.172 101.79 42.8821 100.092 42.5796 98.4006C42.2776 96.7123 41.9948 95.0198 41.7204 93.3268C41.5996 92.5832 41.4776 91.8341 41.3874 91.0866C41.2863 90.2385 41.1591 89.3891 41.0886 88.5371C40.9486 86.8314 40.7952 85.123 40.8165 83.4101C40.8195 83.0178 40.8252 82.6249 40.8298 82.2337C40.8321 82.0188 40.8244 81.7975 40.8409 81.5822C40.8871 80.9788 40.9332 80.3753 40.9793 79.7719C41.0232 79.1904 41.1307 78.6062 41.2363 78.0324C41.3559 77.3798 41.5323 76.7388 41.7725 76.1209C42.0523 75.3984 42.5309 74.7275 43.2405 74.3827C44.0068 74.0096 44.9663 74.3912 45.3155 75.1528C45.6394 75.8584 45.38 76.6665 44.7717 77.0945C44.7683 77.0982 44.7661 77.1015 44.7643 77.1062C44.7437 77.1422 44.7248 77.1793 44.7059 77.2164C44.6306 77.4118 44.5622 77.6056 44.5004 77.8037C44.3839 78.2513 44.2924 78.7018 44.215 79.1579C44.0874 80.051 44.0307 80.9484 43.9632 81.8482C43.9572 82.407 43.9512 82.9658 43.9438 83.5249C43.9372 84.0423 43.9689 84.5585 43.9904 85.074C44.0349 86.1948 44.1279 87.3091 44.2215 88.4261C44.373 89.6618 44.5249 90.8931 44.7069 92.1249C44.876 93.2795 45.0757 94.4301 45.2724 95.58C45.6617 97.8807 46.043 100.19 46.5582 102.466C46.557 102.46 46.5558 102.455 46.5543 102.448C46.5604 102.475 46.5681 102.504 46.5741 102.531C46.6749 102.946 46.6659 103.35 46.4596 103.734C46.3043 104.026 46.0574 104.259 45.7621 104.404C45.6864 104.436 45.6142 104.465 45.5394 104.489Z" fill="black"/>
<path d="M162.934 77.282C162.597 77.4197 162.25 77.5239 161.903 77.6325C161.209 77.8494 160.513 78.0653 159.818 78.2812C156.666 79.2597 153.509 80.2222 150.373 81.2529C148.821 81.7619 147.266 82.26 145.698 82.7168C144.042 83.199 142.366 83.6083 140.652 83.83C140.231 83.8835 139.811 83.9167 139.386 83.9254C139.083 83.9313 138.779 83.9144 138.477 83.8827C138.169 83.8512 137.815 83.7954 137.529 83.6673C137.078 83.4672 136.672 83.2414 136.341 82.8704C135.985 82.4706 135.745 82.0007 135.559 81.5018C135.218 80.5868 134.917 79.6573 134.605 78.7332C133.989 76.9103 133.349 75.0983 132.681 73.294C132.308 72.3849 131.931 71.4838 131.476 70.6128C131.299 70.3004 131.116 69.9952 130.914 69.6997C130.893 69.7544 130.873 69.809 130.855 69.8644C130.724 70.3481 130.648 70.8394 130.572 71.3323C130.575 71.3087 130.58 71.2848 130.583 71.2612C130.495 71.9498 130.402 72.6408 130.352 73.3352C130.296 74.0938 130.258 74.8454 130.234 75.6041C130.244 76.0235 130.255 76.4443 130.263 76.8627C130.273 77.3007 130.33 77.7426 130.364 78.181C130.471 79.0234 130.592 79.8615 130.728 80.7004C130.853 81.4787 131.004 82.2529 131.139 83.0277C131.206 83.406 131.249 83.7866 131.28 84.167C131.316 84.585 131.233 84.9837 131.109 85.3799C131.004 85.7177 130.726 86.0354 130.456 86.2567C130.132 86.5217 129.707 86.6862 129.297 86.7586C128.516 86.8977 127.728 86.9997 126.945 87.1249C125.323 87.3822 123.705 87.6528 122.091 87.9469C120.445 88.2465 118.81 88.6095 117.176 88.9667C115.489 89.3354 113.814 89.7588 112.135 90.1629C110.553 90.5428 108.969 90.9231 107.383 91.288C105.704 91.6738 104.025 92.0566 102.341 92.4148C100.671 92.7697 98.9936 93.0878 97.3188 93.4054C93.9872 94.0379 90.6701 94.7358 87.3561 95.4601C85.7409 95.8145 84.1203 96.1314 82.4842 96.366C81.8331 96.4591 81.1824 96.5349 80.5244 96.5524C79.5158 96.5805 78.4457 96.435 77.6814 95.7156C77.2331 95.2934 76.9902 94.7141 76.741 94.1648C76.5793 93.8033 76.4268 93.4384 76.2702 93.0743C75.2983 90.8344 74.3414 88.5911 73.2478 86.4082C72.9777 85.9193 72.6945 85.4419 72.3752 84.9824C72.2479 84.8149 72.1175 84.6523 71.9809 84.4939C71.8474 84.3563 71.711 84.2251 71.5682 84.0967C71.4371 83.9957 71.3046 83.9008 71.1668 83.8084C71.1112 83.7765 71.0544 83.7462 70.9963 83.7162C70.9259 83.689 70.8555 83.6617 70.7852 83.6345C70.8191 83.6455 70.8527 83.6552 70.8863 83.6649C70.899 83.6706 70.9117 83.6764 70.923 83.6825C70.912 83.6778 70.9006 83.6717 70.8896 83.667C70.9232 83.6767 70.9554 83.6867 70.989 83.6964C70.9485 83.6811 70.9071 83.6689 70.8672 83.6563C70.8575 83.6513 70.8468 83.6479 70.8371 83.643C70.8468 83.6479 70.8562 83.6516 70.8655 83.6552C70.8058 83.637 70.7438 83.6222 70.6826 83.6101C70.6667 83.6093 70.6508 83.6086 70.6349 83.6078C70.6237 83.6089 70.6111 83.6102 70.5996 83.6099L70.5969 83.6105C70.5793 83.6216 70.5604 83.6329 70.5425 83.6426C70.511 83.6681 70.4785 83.6954 70.4457 83.7213C70.3851 83.7833 70.3262 83.8464 70.2693 83.912C70.2227 83.9723 70.178 84.0351 70.135 84.099C70.0925 84.1713 70.0532 84.2458 70.0157 84.3213C69.9451 84.4928 69.883 84.6638 69.8249 84.8397C69.7072 85.2689 69.6128 85.7001 69.5389 86.1396C69.4252 87.0053 69.3907 87.8735 69.3642 88.7456C69.3631 89.6035 69.3678 90.4615 69.384 91.3199C69.3987 92.1457 69.4329 92.9757 69.4147 93.8017C69.3835 95.2065 69.3721 96.6357 68.9573 97.9928C68.8125 98.4609 68.6097 98.8804 68.3027 99.2616C68.0415 99.5855 67.7203 99.7869 67.3571 99.979C67.0143 100.161 66.5831 100.221 66.2073 100.299C66.0051 100.341 65.8015 100.383 65.5993 100.425C62.3326 101.099 59.057 101.739 55.7879 102.402C54.2561 102.713 52.7222 103.015 51.1936 103.335C49.6323 103.661 48.0757 104.003 46.5093 104.306C45.6721 104.469 44.8431 103.864 44.6978 103.036C44.5473 102.184 45.1332 101.385 45.9677 101.223C47.5587 100.914 49.1439 100.566 50.73 100.236C52.3825 99.8888 54.0386 99.5641 55.6925 99.2297C58.8741 98.5848 62.0648 97.9679 65.2439 97.3049C65.4771 97.2546 65.7099 97.2086 65.9429 97.1569C65.9491 97.1398 65.9542 97.1243 65.9604 97.1072C66.0196 96.8782 66.0693 96.6513 66.1134 96.4186C66.1947 95.8574 66.2553 95.2936 66.268 94.7262C66.275 94.3844 66.2834 94.0423 66.2904 93.7006C66.2636 92.0155 66.1894 90.3224 66.2381 88.6364C66.2675 87.6936 66.2975 86.7535 66.4256 85.8174C66.5579 84.8489 66.7704 83.8426 67.2001 82.9581C67.3935 82.5607 67.6241 82.1893 67.9126 81.8537C68.2723 81.4393 68.7162 80.992 69.2376 80.7847C69.4532 80.6997 69.6622 80.6047 69.892 80.558C70.1051 80.5135 70.3105 80.4922 70.5283 80.4753C70.9659 80.4439 71.4653 80.5431 71.8715 80.6988C72.8367 81.0734 73.6782 81.6771 74.3583 82.4609C75.3528 83.6052 76.0161 84.9574 76.6896 86.3044C77.4247 87.7736 78.0466 89.3065 78.697 90.8131C79.0685 91.6754 79.4225 92.5488 79.8277 93.3951C79.8459 93.3997 79.8651 93.4025 79.8833 93.4071C79.9653 93.416 80.0484 93.4233 80.1323 93.4276C80.5738 93.4268 81.0089 93.3973 81.4457 93.3561C82.2909 93.2356 83.1289 93.1082 83.9682 92.9547C84.8388 92.7943 85.7046 92.612 86.5723 92.4322C88.1301 92.1092 89.6792 91.7468 91.2373 91.4251C92.9935 91.0624 94.7507 90.7165 96.5121 90.3769C98.0172 90.0871 99.5283 89.8173 101.028 89.4985C104.344 88.7938 107.649 88.033 110.943 87.2401C114.295 86.4344 117.642 85.6283 121.025 84.9687C122.304 84.7206 123.586 84.4987 124.872 84.289C125.943 84.1142 127.021 83.9677 128.091 83.793C127.977 83.0035 127.813 82.2167 127.673 81.433C127.519 80.5767 127.406 79.7141 127.295 78.8495C127.087 77.2105 127.048 75.5339 127.171 73.8857C127.235 72.998 127.319 72.1132 127.431 71.2291C127.596 69.9419 127.755 68.4629 128.652 67.4561C129.234 66.8008 129.967 66.2721 130.872 66.2328C131.252 66.2141 131.69 66.3313 132.018 66.5201C132.208 66.6308 132.377 66.7419 132.55 66.8779C132.794 67.0695 132.997 67.3061 133.199 67.5414C133.524 67.9197 133.781 68.3571 134.033 68.7843C134.229 69.1125 134.41 69.4582 134.573 69.8052C134.756 70.2004 134.952 70.5929 135.117 70.9964C135.761 72.5716 136.347 74.1682 136.9 75.7764C137.436 77.3372 137.932 78.9165 138.505 80.463C138.541 80.5479 138.579 80.6325 138.62 80.7149C138.625 80.7238 138.631 80.7325 138.636 80.7414C138.68 80.7517 138.725 80.7617 138.77 80.7703C138.878 80.7833 138.986 80.7937 139.096 80.7979C139.41 80.7981 139.722 80.7833 140.035 80.7595C140.525 80.6949 141.012 80.6256 141.5 80.5356C142.013 80.4405 142.52 80.3236 143.027 80.2067C146.266 79.3459 149.43 78.2533 152.623 77.2386C155.34 76.3752 158.072 75.5585 160.792 74.7057C160.653 74.2707 160.492 73.8418 160.331 73.413C159.671 71.7298 159.013 70.045 158.313 68.3779C157.678 66.8664 157.019 65.3518 156.253 63.8994C156.183 63.7706 156.111 63.6424 156.038 63.5155C155.611 62.7783 155.795 61.8213 156.536 61.3595C157.241 60.9185 158.265 61.12 158.693 61.8582C159.449 63.1628 160.067 64.5564 160.673 65.9355C161.32 67.4044 161.902 68.9017 162.495 70.3925C162.809 71.1846 163.129 71.9755 163.43 72.7737C163.769 73.6788 164.17 74.6605 164.086 75.6411C164.03 76.2883 163.63 76.9531 163.034 77.244C162.999 77.2546 162.967 77.269 162.934 77.282Z" fill="black"/>
<path d="M126.428 53.6943C126.029 53.8171 125.591 53.7757 125.225 53.5784C124.852 53.3796 124.614 53.0551 124.47 52.6639C124.463 52.6455 124.456 52.6284 124.449 52.6099C123.981 51.396 123.395 50.2253 122.822 49.059C121.982 47.3571 121.125 45.6649 120.244 43.985C119.441 42.5038 118.606 41.0425 117.751 39.5914C117.322 38.8661 116.867 38.1552 116.413 37.4471C116.021 36.8364 115.627 36.2237 115.208 35.6306C114.872 35.1663 114.537 34.7004 114.203 34.2355C113.623 33.4838 113.043 32.7378 112.435 32.0093C111.867 31.328 111.27 30.6743 110.672 30.0166C110.029 29.3745 109.39 28.7347 108.718 28.1233C108.077 27.5396 107.413 26.9908 106.747 26.4382C106.119 25.953 105.479 25.4891 104.81 25.0587C104.108 24.6328 103.39 24.2563 102.646 23.9139C102.158 23.7134 101.673 23.511 101.186 23.3118C100.951 23.2152 100.7 23.1466 100.461 23.0668C100.203 22.9797 99.9447 22.8913 99.687 22.8056C99.1951 22.6761 98.7035 22.5479 98.2116 22.4184C97.7319 22.2919 97.2295 22.2248 96.7414 22.1316C95.6502 21.9808 94.5638 21.8518 93.4604 21.8138C92.6902 21.8147 91.9343 21.8867 91.1693 21.9694C90.464 22.076 89.7651 22.1797 89.0693 22.3356C88.3034 22.5299 87.5527 22.7667 86.811 23.0443C86.1259 23.3193 85.4592 23.626 84.8029 23.9661C84.2944 24.2448 83.8025 24.5527 83.3051 24.849C82.8723 25.108 82.4636 25.4175 82.0476 25.7071C81.6239 26.0327 81.2002 26.3583 80.7751 26.6843C80.3501 27.0102 79.9545 27.3854 79.5491 27.7355C78.9572 28.3015 78.37 28.8693 77.8021 29.4599C77.2019 30.0849 76.6322 30.7316 76.0571 31.3796C75.5387 32.0193 75.0228 32.657 74.5406 33.3244C74.3068 33.6494 74.0658 33.9673 73.8501 34.3025C73.6094 34.6733 73.37 35.0438 73.1309 35.4156C72.869 35.8712 72.6068 36.3253 72.3462 36.7805C72.0882 37.228 71.8794 37.7104 71.6491 38.1732C71.4624 38.6135 71.2743 39.054 71.0873 39.4929C70.8829 39.9757 70.7336 40.4877 70.56 40.9808C70.5641 40.967 70.5679 40.9519 70.5734 40.9378C70.4343 41.4061 70.2953 41.8743 70.1562 42.3426C70.0005 42.8775 69.8635 43.4254 69.7397 43.9688C69.592 44.6234 69.4312 45.2766 69.3013 45.9344C69.171 46.5965 69.0235 47.2583 68.9127 47.9246C68.8001 48.6086 68.6862 49.2929 68.575 49.9765C68.342 51.7536 68.1196 53.5268 67.9977 55.3149C67.8721 57.1438 67.8074 58.9707 67.7541 60.8036C67.7577 61.8306 67.7682 62.8502 67.8186 63.8754C67.8689 64.8877 67.9644 65.8971 68.0684 66.906C68.1019 67.1987 68.1365 67.4898 68.1922 67.7791C68.4654 68.5203 68.0844 69.3925 67.367 69.7218C66.5798 70.0839 65.6652 69.7181 65.2921 68.9518C65.119 68.5972 65.072 68.1731 65.0272 67.7842C64.967 67.2815 64.914 66.7787 64.8637 66.2753C64.7827 65.4728 64.7255 64.6679 64.6842 63.8637C64.5961 62.0894 64.6417 60.3182 64.688 58.544C64.776 55.1354 65.121 51.7254 65.6753 48.3633C65.9082 46.9465 66.1777 45.5401 66.4928 44.1394C66.6603 43.4004 66.8436 42.6678 67.034 41.9352C67.2102 41.2542 67.4226 40.5824 67.623 39.9076C67.6115 39.9459 67.6014 39.9839 67.5898 40.0221C67.8303 39.2255 68.1367 38.4484 68.4627 37.6828C68.6137 37.3262 68.7563 36.9644 68.9297 36.6186C69.1495 36.1795 69.368 35.7408 69.5879 35.3017C69.7965 34.8895 70.0534 34.4951 70.2828 34.0925C70.4893 33.7351 70.7161 33.3917 70.9406 33.0445C71.425 32.2966 71.9431 31.5784 72.4643 30.8551C72.7058 30.5199 72.9853 30.2077 73.2456 29.8869C73.4914 29.5836 73.7357 29.2807 73.994 28.9889C74.6274 28.2751 75.2664 27.58 75.9272 26.893C76.1674 26.6424 76.4162 26.4042 76.6649 26.166C76.9869 25.8587 77.3017 25.5386 77.6402 25.2476C78.0147 24.9257 78.3906 24.6036 78.7662 24.2801C79.105 23.9904 79.4778 23.7319 79.8334 23.4599C80.1165 23.2413 80.41 23.0374 80.7055 22.836C81.0541 22.5971 81.3974 22.3408 81.7621 22.1226C82.1725 21.8785 82.5815 21.6348 82.9918 21.3907C83.8591 20.8737 84.804 20.4623 85.7449 20.1034C86.8213 19.6914 87.9199 19.3732 89.0462 19.1346C89.5719 19.0236 90.1081 18.9603 90.6377 18.8798C91.9349 18.6833 93.2805 18.6147 94.5869 18.7306C94.9906 18.7653 95.3988 18.7819 95.8002 18.8386C96.2529 18.901 96.7069 18.9632 97.1586 19.0273C98.0599 19.1531 98.9489 19.3716 99.8278 19.6025C100.658 19.8198 101.461 20.0974 102.274 20.3715C102.702 20.5152 103.118 20.7202 103.535 20.8921C104.334 21.2234 105.112 21.6083 105.863 22.0389C107.429 22.9349 108.808 24.0782 110.19 25.2264C110.639 25.5999 111.057 26.0158 111.489 26.4088C111.903 26.7858 112.287 27.2009 112.682 27.5963C113.379 28.2936 114.037 29.0379 114.667 29.7944C115.385 30.6554 116.105 31.5219 116.758 32.4347C116.719 32.3805 116.681 32.326 116.641 32.2705C117.168 32.9984 117.693 33.725 118.198 34.4707C118.672 35.1716 119.13 35.8818 119.587 36.5937C120.53 38.0596 121.387 39.5859 122.238 41.1066C123.016 42.5021 123.747 43.9235 124.468 45.35C125.173 46.7473 125.881 48.144 126.543 49.5621C126.874 50.2734 127.189 50.9924 127.461 51.7296C127.73 52.4589 127.304 53.2825 126.635 53.6097C126.566 53.6451 126.498 53.6731 126.428 53.6943Z" fill="black"/>
<path d="M124.79 54.8187C118.546 56.5024 112.302 58.1861 106.056 59.8701C99.4247 61.6584 92.793 63.4453 86.1616 65.2335C83.0517 66.0726 79.9429 66.9101 76.833 67.7492C75.3224 68.1561 73.8093 68.5649 72.2987 68.9717C70.9876 69.3243 69.6805 69.6946 68.366 70.0322C67.9536 70.138 67.5443 70.1231 67.1614 69.918C66.8015 69.7263 66.5273 69.3927 66.4066 69.0035C66.1629 68.2214 66.609 67.2562 67.4353 67.0441C68.8946 66.6701 70.3443 66.2595 71.797 65.8684C73.4341 65.4263 75.0702 64.9859 76.706 64.5441C80.1292 63.6225 83.5505 62.6985 86.9737 61.7769C93.527 60.0103 100.082 58.2434 106.635 56.4755C112.376 54.9264 118.118 53.3783 123.862 51.83C124.687 51.6084 125.56 52.0219 125.822 52.8587C126.044 53.5684 125.702 54.4034 125.035 54.7287C124.957 54.7646 124.875 54.7956 124.79 54.8187Z" fill="black"/>
<path d="M105.755 86.8957C104.944 87.1484 104.043 86.6824 103.795 85.867C102.882 82.8722 101.975 79.876 101.093 76.8726C100.173 73.7392 99.2835 70.6005 98.3811 67.4632C96.5069 60.9467 94.3955 54.5014 92.5335 47.9822C92.0167 46.1758 91.5043 44.3699 91.0048 42.5582C90.5299 40.8312 90.0866 39.0985 89.641 37.3621C89.4376 36.5682 89.2663 35.7643 89.0805 34.9665C88.9168 34.261 88.7522 33.5585 88.6064 32.8504C88.2349 31.0547 87.8877 29.2592 87.5484 27.4606C87.4022 26.6797 87.2696 25.8958 87.1346 25.1139C87.0531 24.6503 86.9771 24.1854 86.8918 23.7241C86.8429 23.4591 86.7935 23.1913 86.7447 22.9263C86.6786 22.5579 86.7442 22.2031 86.9055 21.8671C87.2716 21.0954 88.2978 20.8376 89.0243 21.2252C89.3828 21.4172 89.6583 21.7505 89.7804 22.1394C89.8147 22.249 89.8352 22.3602 89.8438 22.4698C90.2703 24.8608 90.6941 27.2525 91.1397 29.6393C91.5617 31.8941 92.0881 34.13 92.6137 36.3619C93.0255 37.9271 93.4101 39.4984 93.8397 41.0597C94.3479 42.9109 94.8653 44.7586 95.395 46.6036C96.3287 49.8626 97.316 53.1054 98.3125 56.3448C99.3015 59.5501 100.282 62.7572 101.211 65.9815C102.127 69.1588 103.026 72.3397 103.958 75.5134C104.881 78.659 105.828 81.8006 106.785 84.936C107.011 85.6776 106.651 86.4793 105.97 86.8106C105.9 86.8433 105.829 86.8719 105.755 86.8957Z" fill="black"/>
<path d="M94.4608 67.779C92.8209 68.2989 91.1827 68.8328 89.5699 69.4296C89.2467 69.5642 88.9259 69.6969 88.6097 69.85C88.6035 69.8543 88.5984 69.8568 88.5922 69.8611C88.3103 70.1366 87.9546 70.2728 87.565 70.3078C87.0654 70.3558 86.5909 70.0924 86.2677 69.7311C85.7975 69.2037 85.8216 68.385 86.2072 67.8234C86.5015 67.3978 86.9909 67.1619 87.44 66.9379C87.7838 66.7672 88.1495 66.6245 88.5099 66.4902C89.0406 66.2923 89.5725 66.0999 90.1084 65.9194C91.2453 65.5355 92.3845 65.1554 93.5276 64.793C94.3406 64.5338 95.234 65.0102 95.487 65.8216C95.7195 66.5662 95.3483 67.3662 94.6674 67.6989C94.6037 67.7273 94.5342 67.7556 94.4608 67.779Z" fill="black"/>
<path d="M110.09 64.9693C109.386 65.0969 108.683 65.2245 107.979 65.3535C107.295 65.4782 106.613 65.624 105.925 65.7324C105.228 65.8429 104.529 65.4906 104.231 64.8435C103.943 64.2169 104.107 63.4087 104.662 62.9796C104.784 62.8853 104.882 62.8236 105.021 62.7555C105.209 62.6636 105.408 62.6181 105.607 62.6112C106.182 62.5134 106.756 62.3932 107.33 62.2886C108.069 62.1531 108.807 62.0192 109.548 61.8848C110.388 61.7341 111.212 62.32 111.36 63.1564C111.482 63.8554 111.103 64.5384 110.492 64.8371C110.368 64.8988 110.232 64.9433 110.09 64.9693Z" fill="black"/>
<path d="M76.634 113.215C76.2297 113.255 75.8483 113.095 75.4917 112.931C75.3171 112.853 75.1299 112.699 74.9932 112.566C74.8337 112.414 74.69 112.256 74.5468 112.088C74.1665 111.643 73.9189 111.062 73.6909 110.531C73.3558 109.749 73.0656 108.932 72.8033 108.124C72.3809 106.82 71.9821 105.513 71.6674 104.179C71.5202 103.561 71.3807 102.952 71.2709 102.329C71.1489 101.644 71.0388 100.968 70.9545 100.279C70.7775 98.8707 70.6659 97.4603 70.5715 96.0433C70.5355 95.4824 70.507 94.9226 70.4725 94.3614C70.4521 94.0315 70.4331 93.7012 70.413 93.3726C70.388 92.9508 70.3972 92.5028 70.606 92.1234C70.8824 91.6174 71.4063 91.3181 71.9499 91.3004C72.0676 91.1742 72.2033 91.064 72.3537 90.9691C73.0405 90.5408 74.034 90.7276 74.5436 91.3491C74.987 91.8911 75.1962 92.5565 75.4397 93.2028C75.7033 93.9005 75.9518 94.6015 76.1979 95.3044C76.753 96.8965 77.2889 98.4928 77.717 100.124C78.1347 101.71 78.4936 103.32 78.7421 104.941C78.8812 105.851 78.9874 106.761 79.085 107.677C79.1324 108.135 79.137 108.6 79.1347 109.059C79.1305 109.575 79.1009 110.092 79.0092 110.6C78.8488 111.48 78.5068 112.412 77.7095 112.909C77.6606 112.94 77.6109 112.967 77.5608 112.992C77.2692 113.134 76.9557 113.184 76.634 113.215Z" fill="black"/>
<path d="M137.689 99.0165C137.343 99.1746 136.954 99.2438 136.581 99.1594C136.187 99.0711 135.883 98.8613 135.577 98.6077C135.244 98.3328 134.995 97.8735 134.815 97.4889C134.6 97.0305 134.412 96.5621 134.243 96.085C133.963 95.3009 133.682 94.5157 133.412 93.7265C132.852 92.0855 132.345 90.4342 131.914 88.756C131.684 87.8595 131.487 86.9554 131.288 86.0519C131.215 85.725 131.165 85.3945 131.105 85.0649C131.037 84.6812 130.956 84.2975 130.904 83.9088C130.79 83.0692 130.683 82.2325 130.601 81.3887C130.565 81.0166 130.541 80.6459 130.518 80.2722C130.484 79.7151 130.43 79.0853 130.634 78.5541C130.94 77.7571 131.839 77.3317 132.646 77.6313C133.247 77.8552 133.643 78.4392 133.666 79.0573C133.669 79.0581 133.674 79.0599 133.677 79.0606C133.896 79.142 134.079 79.2758 134.258 79.419C134.48 79.5969 134.688 79.7724 134.87 79.9922C135.038 80.195 135.161 80.4464 135.275 80.6827C135.363 80.8689 135.444 81.0596 135.513 81.2544C135.65 81.6444 135.774 82.0384 135.898 82.434C136.887 85.6163 137.786 88.8317 138.397 92.111C138.545 92.9071 138.642 93.7131 138.738 94.5167C138.833 95.3104 138.879 96.0991 138.859 96.8983C138.838 97.7235 138.503 98.6182 137.723 98.9987C137.713 99.0052 137.702 99.0107 137.689 99.0165Z" fill="black"/>
<path d="M159.595 69.8016C158.389 70.2379 157.195 70.7046 155.995 71.1569C154.481 71.7245 152.968 72.285 151.446 72.8273C149.87 73.3871 148.287 73.9147 146.69 74.412C145.134 74.8976 143.584 75.4076 142.017 75.8597C141.109 76.1228 140.2 76.3777 139.292 76.6393C138.853 76.7638 138.418 76.8961 137.982 77.0315C137.65 77.1338 137.323 77.2609 136.984 77.3331C136.15 77.5084 135.317 76.88 135.171 76.0619C135.025 75.2282 135.571 74.4765 136.361 74.2696C136.323 74.2781 136.285 74.2879 136.247 74.2977C136.943 74.0975 137.632 73.8645 138.326 73.6605C139.07 73.4408 139.82 73.2372 140.564 73.022C142.141 72.5661 143.705 72.0645 145.272 71.5765C148.451 70.5849 151.583 69.4748 154.7 68.3054C156.021 67.8106 157.335 67.2959 158.662 66.8154C159.465 66.5256 160.375 67.0582 160.621 67.8455C160.745 68.2425 160.704 68.6805 160.507 69.0487C160.343 69.3552 160.094 69.5734 159.794 69.7188C159.732 69.7483 159.664 69.7763 159.595 69.8016Z" fill="black"/>
<path d="M67.2528 90.3537C65.272 90.832 63.2703 91.235 61.2711 91.6303C58.5888 92.1615 55.8913 92.6303 53.2329 93.2691C53.2424 93.267 53.2506 93.2652 53.2598 93.2617C53.2353 93.2672 53.2111 93.274 53.188 93.2791C53.1474 93.2896 53.1065 93.2986 53.0659 93.309C53.0823 93.3054 53.0987 93.3018 53.115 93.2982C52.688 93.403 52.2596 93.5081 51.831 93.6119C50.8155 93.8731 49.7983 94.1332 48.7904 94.4285C47.7678 94.7284 46.7397 95.0167 45.735 95.3713C44.9305 95.6557 44.0214 95.1342 43.7756 94.3426C43.514 93.5058 44.0008 92.6659 44.8039 92.3818C45.8459 92.0147 46.9132 91.7163 47.9733 91.4051C49.0096 91.1021 50.0566 90.8282 51.1051 90.574C52.556 90.2204 54.0099 89.8733 55.4738 89.5783C56.9994 89.271 58.5272 88.9804 60.0533 88.6816C62.279 88.2446 64.5063 87.8016 66.7126 87.2703C67.5429 87.0702 68.3837 87.7412 68.5244 88.5418C68.5971 88.9531 68.4975 89.3868 68.2529 89.727C68.0976 89.9416 67.9029 90.095 67.6813 90.2042C67.5469 90.2683 67.4034 90.3174 67.2528 90.3537Z" fill="black"/>
<path d="M53.7341 109.562C52.9442 109.783 52.1492 109.975 51.3485 110.154C49.791 110.504 48.2206 110.803 46.651 111.099C45.0552 111.399 43.4573 111.689 41.8553 111.955C41.0146 112.096 40.1914 111.529 40.0438 110.684C39.896 109.851 40.4731 109.012 41.3137 108.872C44.6748 108.314 48.0322 107.694 51.3584 106.947C52.212 106.736 53.0644 106.526 53.896 106.241C53.8 105.763 53.6944 105.288 53.597 104.811C53.5184 104.431 53.4381 104.05 53.3594 103.67C53.2652 103.226 53.1182 102.757 53.1483 102.3C53.1909 101.675 53.6507 101.125 54.2416 100.941C54.8527 100.751 55.5083 100.961 55.9184 101.444C56.0093 101.551 56.0764 101.666 56.1373 101.792C56.2246 101.973 56.2711 102.163 56.2806 102.354C56.4109 103.057 56.5729 103.754 56.7182 104.454C56.7935 104.819 56.8702 105.183 56.9458 105.55C57.0309 105.965 57.1222 106.377 57.1492 106.801C57.2025 107.665 56.598 108.387 55.8837 108.781C55.8047 108.825 55.7253 108.867 55.6441 108.906C55.0387 109.199 54.3802 109.381 53.7341 109.562Z" fill="black"/>
<path d="M60.3197 112.716C59.9189 112.842 59.5162 112.966 59.1141 113.086C57.5978 113.544 56.066 113.946 54.5327 114.341C51.8096 115.042 49.0892 115.775 46.3305 116.329C45.338 116.526 44.3494 116.729 43.3307 116.705C42.7257 116.691 42.0344 116.397 41.6432 115.929C41.4194 115.661 41.2627 115.393 41.1362 115.068C41.0595 114.871 40.9866 114.671 40.9126 114.473C40.6923 113.88 40.4813 113.284 40.2716 112.687C40.1604 112.373 40.0533 112.058 39.95 111.741C39.8274 111.362 39.6839 110.974 39.7153 110.568C39.7839 109.718 40.5649 109.07 41.4103 109.144C42.0984 109.204 42.6479 109.715 42.7991 110.358C42.9689 110.975 43.1947 111.579 43.408 112.179C43.5741 112.644 43.7418 113.11 43.912 113.574C43.9358 113.572 43.9598 113.571 43.9836 113.568C45.8379 113.312 47.6697 112.846 49.4892 112.407C51.2741 111.961 53.0534 111.496 54.8339 111.036C56.5223 110.6 58.2067 110.126 59.861 109.574C59.8637 109.548 59.8648 109.52 59.8672 109.493C59.8641 109.279 59.8547 109.07 59.8373 108.856C59.661 107.424 59.328 106.015 58.9883 104.613C58.7566 103.673 58.4985 102.742 58.217 101.816C57.9688 101 58.4274 100.111 59.2454 99.855C60.0555 99.6022 60.958 100.068 61.2065 100.885C61.4639 101.735 61.7067 102.59 61.9212 103.453C62.2923 104.945 62.6533 106.448 62.8814 107.972C62.9735 108.586 63.0082 109.206 62.9819 109.827C62.9652 110.216 62.8646 110.613 62.7136 110.969C62.5255 111.41 62.2365 111.737 61.872 112.039C61.7346 112.154 61.5794 112.247 61.4168 112.326C61.0698 112.495 60.6789 112.602 60.3197 112.716Z" fill="black"/>
<path d="M33.6335 99.2089C32.2906 99.3799 30.9374 99.4073 29.5891 99.5151C29.3472 99.546 29.1085 99.5847 28.8686 99.6308C28.6813 99.6824 28.5014 99.7409 28.3199 99.8055C27.7771 100.026 27.2367 100.206 26.6599 100.331C25.8678 100.504 25.0653 100.662 24.2501 100.609C23.2334 100.543 22.2059 100.235 21.4161 99.5687C20.679 98.9462 20.1033 98.0334 20.0649 97.0428C20.0465 96.5866 20.0861 96.1532 20.2021 95.7101C20.3252 95.2411 20.5181 94.7966 20.7385 94.366C20.9675 93.9235 21.2906 93.5244 21.6415 93.1735C22.0331 92.7807 22.5007 92.4982 22.9863 92.2388C23.8776 91.7593 24.9289 91.6146 25.9258 91.6877C26.3079 91.7158 26.6822 91.8242 27.0448 91.9381C27.2355 91.9987 27.443 92.077 27.6143 92.179C27.6243 92.1854 27.634 92.1904 27.644 92.1967C27.6664 92.1817 27.6888 92.1668 27.7129 92.1529C28.9637 91.4063 30.2931 90.7695 31.668 90.2855C33.2322 89.7338 35.1945 89.6941 36.4881 90.8849C36.968 91.3273 37.336 91.8516 37.5741 92.4606C37.8353 93.1287 37.8926 93.8179 37.8446 94.5289C37.7713 95.6215 37.4593 96.7657 36.7655 97.6259C36.3888 98.0926 35.9153 98.445 35.3891 98.7019C34.8424 98.9691 34.2395 99.1316 33.6335 99.2089ZM34.0614 95.8763C34.1044 95.8511 34.1471 95.8244 34.1881 95.7967C34.2144 95.7737 34.2411 95.7521 34.2674 95.7291C34.2942 95.7017 34.321 95.6743 34.3478 95.6469C34.3657 95.6244 34.3819 95.6008 34.3981 95.5772C34.4255 95.5268 34.4526 95.475 34.4786 95.4249C34.5025 95.3653 34.5251 95.3059 34.546 95.2456C34.6032 95.027 34.6476 94.8085 34.6884 94.5864C34.7093 94.3974 34.7292 94.21 34.7383 94.0193C34.7369 93.9682 34.7342 93.9173 34.7299 93.8654C34.7235 93.8239 34.7158 93.7828 34.7081 93.7416C34.6928 93.6921 34.6778 93.6439 34.6625 93.5944C34.6447 93.5527 34.6258 93.5126 34.6069 93.4724C34.5864 93.4384 34.566 93.4043 34.5429 93.3709C34.519 93.3405 34.4954 93.3114 34.4704 93.2826C34.4433 93.2572 34.4165 93.2331 34.3894 93.2077C34.3705 93.1933 34.3519 93.1803 34.3333 93.1672C34.3045 93.1536 34.2755 93.1387 34.2464 93.1237C34.2119 93.1099 34.1777 93.0975 34.1432 93.0837C34.0995 93.0734 34.0557 93.0631 34.0123 93.0541C33.9366 93.0481 33.8626 93.0431 33.7886 93.0381C33.7032 93.0399 33.6182 93.043 33.5326 93.0506C33.3964 93.0679 33.2631 93.0918 33.1293 93.1201C32.8786 93.1886 32.6338 93.2644 32.3882 93.349C31.5584 93.6804 30.7495 94.0544 29.9573 94.4719C29.7601 94.5814 29.5651 94.6948 29.3718 94.8092C28.8682 95.1097 28.2534 95.1089 27.7703 94.8388C27.3003 95.1619 26.6623 95.2435 26.1502 94.9455C26.0674 94.9139 25.9852 94.8849 25.9003 94.8566C25.8351 94.8397 25.7691 94.8257 25.7021 94.8134C25.6123 94.8019 25.5235 94.7945 25.4325 94.7904C25.3485 94.7919 25.2651 94.7961 25.181 94.8034C25.0868 94.8171 24.9933 94.8336 24.9006 94.8542C24.8144 94.8776 24.7287 94.9038 24.6436 94.9327C24.4957 94.9941 24.3531 95.06 24.2104 95.1318C24.1542 95.1685 24.0978 95.2039 24.0413 95.2394C23.9705 95.2937 23.8999 95.3494 23.833 95.4085C23.7617 95.4801 23.6951 95.5535 23.6308 95.6307C23.635 95.624 23.6392 95.6174 23.6435 95.6107C23.6379 95.6177 23.6339 95.6257 23.6283 95.6326C23.6059 95.6605 23.5825 95.69 23.5614 95.7176C23.5793 95.695 23.5985 95.6722 23.6167 95.651C23.5966 95.6826 23.5764 95.7142 23.5579 95.7469C23.5791 95.7136 23.599 95.6806 23.6202 95.6473C23.6436 95.6178 23.6687 95.5894 23.6912 95.5615C23.6415 95.634 23.5916 95.7051 23.5402 95.7766C23.4977 95.8489 23.4571 95.9237 23.4185 96.0009C23.3451 96.1787 23.2777 96.358 23.2169 96.5416C23.2078 96.5779 23.2001 96.614 23.1924 96.65C23.1909 96.6818 23.1883 96.7152 23.1868 96.747C23.1884 96.7738 23.1884 96.7995 23.1898 96.8249C23.1919 96.8345 23.1927 96.8443 23.1948 96.8538C23.1995 96.8685 23.2042 96.8832 23.2088 96.8979C23.2175 96.9174 23.2261 96.9369 23.235 96.9578C23.2447 96.9757 23.2554 96.9919 23.2651 97.0098C23.2831 97.0329 23.3008 97.0547 23.3175 97.0782C23.3485 97.1085 23.3809 97.1385 23.4133 97.1684C23.4485 97.1921 23.4841 97.217 23.5194 97.2406C23.5698 97.268 23.6215 97.2951 23.6706 97.3228C23.6404 97.3095 23.6117 97.2959 23.5816 97.2826C23.5852 97.2861 23.5899 97.2879 23.5935 97.2913C23.6889 97.3345 23.7857 97.3716 23.8844 97.404C23.9785 97.4288 24.0734 97.4507 24.1701 97.4678C24.2643 97.4798 24.3589 97.4874 24.4529 97.4922C24.6171 97.4915 24.7788 97.4856 24.9433 97.4734C25.3948 97.4146 25.8368 97.3193 26.2789 97.2183C26.4449 97.1743 26.6067 97.1241 26.7704 97.0692C26.9378 96.9991 27.1066 96.9288 27.2782 96.8649C27.8308 96.6565 28.3927 96.5217 28.9788 96.4444C29.4633 96.3798 29.9526 96.3498 30.4409 96.3214C31.2313 96.276 32.0198 96.2353 32.8078 96.1661C33.1007 96.1268 33.3913 96.0837 33.6807 96.0223C33.7588 96.0007 33.8363 95.9763 33.9132 95.9493C33.9633 95.9238 34.0127 95.9015 34.0614 95.8763Z" fill="black"/>
<path d="M30.5551 74.9177C29.2454 75.4115 27.8167 75.5886 26.4229 75.4593C25.7981 75.4007 25.1713 75.3397 24.552 75.2285C23.9269 75.1172 23.3052 74.9951 22.6803 74.8908C22.4656 74.8642 22.252 74.8416 22.0379 74.8305C21.9786 74.8336 21.919 74.8354 21.861 74.8383C21.8165 74.8439 21.7723 74.8509 21.7278 74.8564C21.7915 74.8409 21.858 74.8247 21.9217 74.8091C21.8254 74.8262 21.732 74.8498 21.6401 74.8802C21.6212 74.8915 21.602 74.9015 21.5817 74.9132C21.5088 74.9708 21.4384 75.0336 21.3733 75.101C21.4219 75.0559 21.4715 75.0091 21.5215 74.9637C20.4471 76.0671 19.2264 77.0585 17.9326 77.8946C17.3236 78.2871 16.6589 78.6348 15.9716 78.8675C15.55 79.0097 15.1295 79.1245 14.6918 79.2002C14.2854 79.269 13.8763 79.2612 13.4669 79.2521C13.0829 79.2415 12.6541 79.1452 12.2965 79.0088C11.9375 78.8726 11.5729 78.7177 11.2618 78.488C10.9586 78.2623 10.6984 78.0171 10.4407 77.7384C10.1961 77.4739 10.0274 77.1326 9.87204 76.8126C9.59456 76.2452 9.4898 75.5224 9.54395 74.8971C9.61388 74.0854 9.86347 73.3425 10.232 72.6203C10.6205 71.8593 11.1896 71.1841 11.7915 70.5859C12.3792 70.0009 13.0499 69.5131 13.7532 69.0754C15.0892 68.2427 16.6145 67.664 18.1545 67.3507C18.4922 67.2814 18.8341 67.2312 19.1793 67.196C19.3346 66.4726 19.617 65.7938 19.937 65.1295C20.1517 64.6802 20.4378 64.2564 20.7341 63.859C21.2905 63.1137 22.0183 62.529 22.8962 62.2083C23.5123 61.9829 24.1754 61.86 24.8275 61.7838C25.666 61.6849 26.5095 61.7691 27.3258 61.9695C27.7355 62.0701 28.1564 62.2083 28.5301 62.404C28.9793 62.6374 29.3749 62.9126 29.7494 63.254C30.0988 63.5723 30.3884 63.9497 30.6395 64.3528C30.7179 64.3454 30.7969 64.3407 30.8735 64.338C31.1863 64.3243 31.4998 64.3391 31.8117 64.3599C32.3402 64.3969 32.9298 64.4961 33.3971 64.7597C33.9032 65.0433 34.2904 65.4033 34.6014 65.896C34.9132 66.3928 35.0363 66.9987 35.0969 67.5742C35.1714 68.2895 35.1184 68.9846 34.9479 69.6842C34.6876 70.7526 34.1864 71.7916 33.5311 72.6704C32.8994 73.521 32.0587 74.2151 31.1082 74.6791C30.9292 74.7675 30.7439 74.8473 30.5551 74.9177ZM29.9269 71.7725C30.0053 71.7265 30.082 71.6794 30.1568 71.6299C30.3102 71.5158 30.4568 71.3975 30.599 71.2716C30.7158 71.1542 30.828 71.0349 30.9363 70.9108C31.0551 70.7572 31.1676 70.6007 31.2745 70.4384C31.382 70.253 31.4804 70.0653 31.5732 69.8717C31.6806 69.6149 31.7728 69.3543 31.865 69.0937C31.9115 68.9233 31.9523 68.7527 31.9864 68.5779C31.9959 68.4986 32.0024 68.4185 32.0073 68.3373C32.0051 68.1663 31.9963 67.9982 31.9815 67.8285C31.9708 67.748 31.9563 67.6697 31.9401 67.5904C31.9345 67.5716 31.9286 67.5515 31.923 67.5327C31.8913 67.5255 31.8597 67.5182 31.827 67.5126C31.6478 67.4909 31.4688 67.4763 31.2887 67.4634C31.1671 67.4633 31.0465 67.4672 30.924 67.4758C30.7197 67.5726 30.5208 67.6811 30.293 67.7174C29.9812 67.768 29.6845 67.771 29.3852 67.6588C29.1016 67.5531 28.832 67.3757 28.6398 67.141C28.426 66.8797 28.2938 66.5675 28.1443 66.2676C28.0658 66.1392 27.9838 66.0145 27.899 65.8904C27.8163 65.7815 27.73 65.6763 27.6414 65.5731C27.5843 65.5157 27.5248 65.4603 27.4643 65.4066C27.3886 65.349 27.3125 65.2959 27.2315 65.2467C27.2252 65.2438 27.2205 65.242 27.2141 65.2391C27.2474 65.2603 27.2804 65.2801 27.312 65.3003C27.2456 65.265 27.1795 65.2311 27.1133 65.1972C26.9844 65.1443 26.855 65.0959 26.7221 65.051C26.5288 64.9982 26.3347 64.9541 26.1365 64.918C25.9763 64.8979 25.8172 64.8832 25.6563 64.8731C25.5134 64.8734 25.3728 64.8775 25.2304 64.8862C24.8832 64.9319 24.5402 64.9966 24.1969 65.0728C24.1297 65.092 24.0628 65.1126 23.9962 65.1345C23.9246 65.1662 23.8533 65.1991 23.783 65.2305C23.8163 65.2131 23.8483 65.196 23.8799 65.1775C23.9049 65.1677 23.9299 65.1578 23.9549 65.148C23.9309 65.1562 23.9087 65.1654 23.8861 65.1732C23.9105 65.1607 23.9346 65.1468 23.9589 65.1342C23.9294 65.1493 23.8999 65.1645 23.8718 65.1793C23.8574 65.1854 23.8416 65.1917 23.8273 65.1978C23.8406 65.1934 23.8536 65.1876 23.8669 65.1833C23.7931 65.224 23.7195 65.266 23.6485 65.3132C23.6014 65.3522 23.5527 65.3902 23.5056 65.4293C23.4597 65.4738 23.4158 65.5207 23.3736 65.5687C23.1987 65.7919 23.0396 66.0216 22.885 66.2589C22.7843 66.4428 22.6894 66.6268 22.5984 66.8157C22.493 67.0621 22.3967 67.3107 22.3117 67.5654C22.2981 67.6199 22.2845 67.6744 22.2708 67.7289C22.4601 67.9699 22.5795 68.2693 22.5943 68.6062C22.6312 69.4357 21.9513 70.2298 21.0999 70.2388C20.5323 70.2447 19.9658 70.2747 19.4 70.3275C19.0365 70.3767 18.6787 70.439 18.3207 70.5199C17.9067 70.6318 17.501 70.7619 17.0996 70.9111C16.6519 71.0963 16.2166 71.2987 15.7858 71.5216C15.462 71.7049 15.1491 71.8988 14.8412 72.1086C14.6032 72.2858 14.3755 72.4707 14.1513 72.6649C13.9169 72.8899 13.696 73.1248 13.4836 73.3721C13.3443 73.5559 13.2124 73.741 13.0865 73.9334C13.0212 74.045 12.9607 74.1585 12.9031 74.2728C12.8395 74.4241 12.7817 74.5756 12.7308 74.7327C12.7126 74.8054 12.6961 74.8791 12.6809 74.9525C12.6765 75.0164 12.6708 75.0805 12.665 75.1447C12.6661 75.1945 12.6685 75.244 12.6712 75.2949C12.6794 75.3445 12.6862 75.3945 12.694 75.4427C12.7005 75.4656 12.7087 75.4895 12.7152 75.5124C12.7312 75.546 12.747 75.5782 12.763 75.6118C12.7851 75.6469 12.8061 75.6837 12.8269 75.7191C12.8547 75.7544 12.8819 75.787 12.9122 75.8203C12.9155 75.8224 12.9175 75.8248 12.9208 75.8269C12.9074 75.8113 12.8928 75.7974 12.8797 75.7832C12.9114 75.8104 12.9419 75.838 12.9723 75.8655C13.0115 75.894 13.0493 75.9228 13.0888 75.9526C13.1198 75.97 13.1509 75.9874 13.1829 76.0031C13.247 76.0275 13.3093 76.0509 13.3736 76.0766C13.4419 76.0943 13.5112 76.1104 13.5813 76.1234C13.7224 76.1407 13.864 76.1478 14.0063 76.1448C13.9386 76.1427 13.8699 76.1422 13.8023 76.1401C13.9205 76.1382 14.0375 76.1307 14.1552 76.1203C14.3367 76.0943 14.5171 76.0571 14.6962 76.0074C14.6298 76.0235 14.5657 76.0378 14.5009 76.055C14.665 76.0086 14.8293 75.9564 14.9899 75.9007C15.2482 75.7962 15.5009 75.6786 15.7503 75.5532C16.0655 75.376 16.3688 75.1843 16.6698 74.9817C17.4023 74.4503 18.1119 73.8868 18.7891 73.2862C18.8844 73.1878 18.9798 73.0894 19.0752 72.9911C19.3937 72.6616 19.726 72.3749 20.1244 72.1478C20.8576 71.7291 21.7385 71.6665 22.5633 71.7306C23.4292 71.8 24.2971 72.0075 25.1539 72.1646C25.8241 72.2602 26.4893 72.3398 27.1657 72.3669C27.4684 72.3655 27.7704 72.3541 28.0737 72.3297C28.3194 72.2966 28.5615 72.2542 28.8043 72.2018C29.0345 72.1378 29.2589 72.0665 29.4824 71.9855C29.6356 71.9157 29.782 71.8475 29.9269 71.7725Z" fill="black"/>
</svg>
