<svg width="366" height="273" viewBox="0 0 366 273" fill="none" xmlns="http://www.w3.org/2000/svg">
<path d="M365.607 176.003C365.241 164.37 362.38 142.726 347.339 128.474C340.651 122.137 332.247 117.981 323.091 116.382C325.906 108.848 326.757 101.682 325.69 94.7185C323.761 82.1261 315.13 71.3358 302.013 65.1134C294.77 61.6791 286.914 59.9374 278.659 59.9374C272.662 59.9374 266.754 60.8598 261.142 62.6302C261.793 56.8428 261.778 51.073 261.037 45.7159C256.933 16.0283 228.221 0.00476323 203.28 0C177.141 0 154.294 14.9852 144.627 36.7293C137.312 31.9248 128.449 29.3193 118.835 29.3193C108.521 29.3193 98.0629 32.4456 89.3811 38.1202C79.0497 44.876 70.6902 55.5298 66.4509 67.3489C63.4739 75.6433 62.6546 84.0298 63.9598 91.905C47.6362 93.6499 31.1982 102.357 18.066 116.39C-9.8132 146.182 -12.7553 190.493 11.0704 221.751C24.9187 239.918 46.9487 250.764 70.0027 250.764C85.696 250.764 100.519 245.856 112.708 236.772C128.657 257.229 153.761 270.731 180.513 272.732C182.89 272.909 185.308 273 187.704 273C201.631 273 215.718 269.955 228.439 264.193C232.95 262.151 243.921 257.181 251.509 247.856C260.597 255.732 273.031 259.974 287.481 259.974C287.481 259.974 287.482 259.974 287.486 259.974C300.851 259.974 314.981 256.284 326.25 249.854C351.505 235.442 366.587 207.144 365.607 176.003Z" fill="#FCD800"/>
<path d="M356.591 176.287C356.134 161.761 352.017 145.334 341.133 135.02C332.375 126.723 320.275 123.4 308.57 125.089C314.068 116.467 318.357 106.422 316.774 96.0856C315.173 85.6335 307.428 77.6662 298.146 73.2649C281.508 65.3739 261.09 68.67 247.275 80.3415C251.933 69.6258 253.511 57.1462 252.103 46.9528C248.836 23.3177 225.942 9.02478 203.288 9.02002C176.698 9.01526 152.556 27.3426 149.138 53.6674C137.244 35.8609 112.042 34.081 94.3179 45.6699C76.9209 57.0461 65.9703 81.7641 76.5113 101.082C75.5412 100.938 74.5631 100.819 73.574 100.741C55.0831 99.2833 36.9637 109.397 24.6508 122.555C0.580555 148.276 -3.45705 187.821 18.2427 216.287C41.4364 246.715 87.3032 250.862 114.422 223.356C128.35 246.688 154.217 261.725 181.185 263.743C196.046 264.855 211.147 262.129 224.716 255.983C235.6 251.054 247.145 243.673 249.804 231.492C250.444 232.752 251.168 233.965 251.986 235.104C267.36 256.478 301.526 253.583 321.777 242.026C345.002 228.769 357.42 202.596 356.591 176.287ZM327.302 234.021C309.738 247.525 282.437 252.963 262.844 240.364C251.682 233.186 244.023 214.65 257.889 205.788C264.846 201.34 274.135 203.809 276.534 212.158C278.877 220.308 266.504 228.986 262.59 219.547C261.75 217.523 258.413 218.363 259.234 220.473C261.93 227.405 270.853 228.764 276.491 224.182C283.096 218.815 280.841 208.676 275.127 203.592C267.877 197.141 257.046 199.905 251.266 206.959C246.497 212.783 245.925 220.449 248.104 227.329C247.394 227.508 246.754 228.048 246.654 228.958C244.99 244.011 226.709 252.242 214.012 256.295C201.524 260.282 188.185 261.409 175.22 259.464C150.611 255.773 130.141 241.072 115.824 221.168C115.749 219.798 113.998 218.632 112.786 219.912C96.3676 237.258 69.9809 243.166 47.6572 234.529C24.6587 225.631 8.71775 201.896 7.40468 177.526C6.04399 152.29 19.6986 127.253 40.8299 113.683C52.314 106.307 66.3672 102.027 79.936 105.399C95.0006 109.143 105.37 122.204 105.354 137.788C105.338 154.646 90.7835 173.287 72.2275 168.291C62.5058 165.675 58.7905 156.923 61.0212 147.551C62.0565 143.197 64.0776 138.394 67.9644 135.863C69.7633 134.692 71.9672 133.655 74.217 133.615C80.9284 133.498 86.9475 148.854 75.2633 146.679C74.0852 146.46 73.5708 148.179 74.7616 148.5C85.6535 151.423 89.164 135.085 78.7722 131.237C64.5333 125.964 55.869 144.015 57.0296 155.623C58.5571 170.9 75.7841 175.347 88.3273 170.389C103.963 164.208 111.337 146.061 108.199 130.178C105.224 115.11 93.4509 104.609 78.9993 101.549C71.1765 82.6136 78.2324 60.9313 95.0641 49.3329C112.917 37.0294 139.348 39.2777 148.957 60.644C149.709 62.319 152.25 61.3886 152.263 59.7485C152.453 34.5033 172.878 15.4948 197.305 12.9148C217.703 10.7602 241.167 20.8075 247.338 41.7562C253.343 62.138 243.407 98.7419 218.148 100.642C205.658 101.581 190.357 87.1418 201.298 75.3624C205.768 70.5499 214.382 68.7653 218.503 75.0591C221.733 79.9906 220.329 87.1402 215.025 89.8235C213.008 90.8444 214.777 93.8088 216.788 92.8418C232.264 85.3889 219.84 60.9059 203.731 69.1098C195.514 73.2935 192.032 82.8819 195.784 91.3081C200.011 100.8 210.339 105.539 220.363 103.943C231.092 102.235 239.087 95.1853 244.433 85.9986C257.29 74.1096 275.948 68.9098 292.832 74.9003C302.654 78.3854 311.496 85.8478 313.171 96.573C314.892 107.587 309.287 118.023 303.17 126.764C302.238 128.098 303.775 129.744 305.185 129.385C317.675 126.21 331.274 129.538 340.169 139.142C348.644 148.294 352.147 161.777 352.892 173.953C354.278 196.625 345.588 219.961 327.302 234.021Z" fill="#1D1D1B"/>
</svg>
