<svg width="163" height="284" viewBox="0 0 163 284" fill="none" xmlns="http://www.w3.org/2000/svg">
<path d="M116.284 125.343C115.876 125.849 115.47 126.351 115.062 126.857C114.683 127.325 114.234 127.747 113.823 128.186C113.386 128.653 112.946 129.122 112.506 129.589C112.103 130.02 111.633 130.406 111.2 130.807C110.768 131.21 110.339 131.612 109.907 132.014C108.642 133.194 107.233 134.248 105.82 135.243C103.158 137.114 100.269 138.683 97.2542 139.91C95.7456 140.523 94.1759 141.003 92.6079 141.445C90.9445 141.916 89.2495 142.258 87.5443 142.528C84.1743 143.065 80.7345 143.077 77.343 142.756C73.9775 142.436 70.6892 141.564 67.6011 140.191C64.5784 138.849 61.9086 136.865 59.5613 134.553C57.1847 132.217 55.3033 129.429 53.7669 126.484C50.6816 120.573 48.9441 113.919 48.554 107.275C48.3913 104.535 48.4487 101.736 48.8504 99.016C49.0388 97.7466 49.182 96.4646 49.4652 95.2119C49.7427 93.9858 49.9848 92.7497 50.3513 91.5478C50.5806 90.7907 50.8102 90.0364 51.0411 89.2805C51.1856 88.8006 51.3736 88.339 51.5497 87.8709C51.8162 87.1658 52.0839 86.4591 52.353 85.7536C52.5372 85.2653 52.7712 84.7932 52.9832 84.3187C53.2364 83.7514 53.4859 83.1859 53.738 82.6202C54.0185 81.9946 54.3545 81.3871 54.6596 80.7731C55.2527 79.5868 55.8911 78.4323 56.5355 77.2728C56.7481 76.8893 56.9686 76.5238 57.202 76.1537C57.6028 75.5235 57.9755 74.8673 58.4139 74.2631C58.7878 73.7508 59.1617 73.2386 59.5329 72.7268C59.8908 72.2358 60.2874 71.7789 60.6715 71.3101C61.3346 70.5056 62.0373 69.7404 62.7989 69.0267C63.2843 68.5722 63.8099 68.1624 64.3473 67.7686C64.4583 67.5327 64.6145 67.3189 64.8205 67.1404C68.3865 64.0549 72.0445 61.0244 76.0127 58.4683C77.9778 57.2045 80.0594 56.1214 82.188 55.1596C83.2694 54.6701 84.3721 54.2253 85.5016 53.8555C86.7078 53.46 87.9165 53.1308 89.1533 52.837C91.6139 52.254 94.1534 52.0569 96.6736 51.9741C98.9595 51.8984 101.296 52.0727 103.55 52.4501C104.818 52.6633 106.077 52.9035 107.319 53.2386C108.573 53.5774 109.783 54.0026 110.986 54.4914C112.086 54.9388 113.14 55.4894 114.153 56.1095C114.798 56.5043 115.405 56.964 116.023 57.3964C116.544 57.7623 117.055 58.1853 117.528 58.6136C117.948 58.9938 118.398 59.3546 118.797 59.7595C119.251 60.2258 119.729 60.6765 120.15 61.1721C120.523 61.6104 120.933 62.034 121.271 62.4978C121.652 63.0234 122.064 63.5364 122.408 64.0863C122.716 64.5801 123.056 65.0653 123.333 65.5743C123.655 66.1747 124.001 66.7665 124.293 67.3795C124.564 67.949 124.837 68.5212 125.109 69.0907C125.654 70.2309 126.071 71.4341 126.503 72.6202C126.893 73.6884 127.22 74.7955 127.463 75.9061C127.604 76.5416 127.771 77.1749 127.876 77.8168C127.991 78.5376 128.108 79.2569 128.223 79.9777C128.397 81.06 128.489 82.1661 128.573 83.2597C128.677 84.6416 128.746 86.0147 128.797 87.3972C128.84 88.5619 128.801 89.7272 128.788 90.8929C128.782 91.4432 128.713 92.0022 128.674 92.5516C128.636 93.1144 128.61 93.6811 128.542 94.2427C128.39 95.5083 128.252 96.7704 128.029 98.0283C127.908 98.7143 127.788 99.403 127.666 100.091C127.556 100.711 127.384 101.325 127.244 101.938C127.109 102.523 126.975 103.108 126.84 103.693C126.699 104.311 126.485 104.921 126.309 105.529C126.151 106.07 125.995 106.613 125.838 107.157C125.656 107.788 125.395 108.407 125.175 109.028C124.978 109.581 124.784 110.133 124.586 110.687C124.367 111.304 124.087 111.899 123.834 112.502C123.567 113.131 123.301 113.76 123.035 114.389C122.826 114.878 122.56 115.348 122.324 115.823C122.004 116.459 121.687 117.1 121.37 117.736C121.118 118.24 120.811 118.714 120.522 119.197C120.158 119.81 119.791 120.42 119.426 121.035C119.144 121.504 118.794 121.946 118.479 122.393C118.079 122.962 117.68 123.529 117.281 124.101C117.238 124.162 117.196 124.22 117.151 124.28C116.877 124.643 116.568 124.99 116.284 125.343ZM113.71 121.364C114.067 120.92 114.376 120.419 114.702 119.951C114.984 119.548 115.267 119.147 115.549 118.744C116.14 117.754 116.732 116.762 117.323 115.772C117.843 114.729 118.363 113.685 118.885 112.641C119.164 112.081 119.377 111.474 119.621 110.898C119.865 110.323 120.108 109.748 120.349 109.174C120.655 108.306 120.964 107.44 121.272 106.572C121.517 105.88 121.718 105.182 121.922 104.475C122.144 103.708 122.396 102.947 122.575 102.168C122.788 101.242 123.002 100.313 123.215 99.3872C123.394 98.3776 123.571 97.371 123.749 96.3614C123.823 95.9403 123.854 95.5077 123.905 95.0817C123.97 94.5463 124.033 94.0125 124.099 93.4757C124.191 92.186 124.284 90.9043 124.297 89.6106C124.306 88.9567 124.329 88.3021 124.304 87.6489C124.276 86.8955 124.25 86.1418 124.221 85.3885C124.137 84.269 124.061 83.1511 123.93 82.0369C123.79 80.8369 123.612 79.6545 123.42 78.4632C123.273 77.8014 123.127 77.1407 122.98 76.4773C122.91 76.1596 122.793 75.8455 122.701 75.5349C122.601 75.1954 122.502 74.8559 122.401 74.5152C122.085 73.6432 121.772 72.7708 121.409 71.9162C121.034 71.0281 120.633 70.1613 120.22 69.2921C119.946 68.7827 119.669 68.2738 119.395 67.7644C119.156 67.3222 118.865 66.8981 118.593 66.474C118.279 66.0423 117.964 65.6094 117.65 65.1776C117.331 64.7371 116.939 64.3341 116.584 63.9191C116.634 63.9786 116.685 64.0381 116.737 64.0961C116.339 63.6897 115.945 63.2856 115.549 62.8776C115.161 62.4823 114.718 62.1272 114.304 61.7558C114.375 61.8218 114.448 61.8837 114.518 61.9486C114.088 61.608 113.658 61.2674 113.228 60.9268C112.89 60.6576 112.522 60.4185 112.162 60.174C111.659 59.8546 111.149 59.5538 110.627 59.2724C109.852 58.8893 109.062 58.5681 108.264 58.2413C107.817 58.0933 107.369 57.9416 106.923 57.7937C106.445 57.6339 105.94 57.5255 105.452 57.3943C104.496 57.1916 103.544 57.0129 102.58 56.8495C101.653 56.6945 100.712 56.6175 99.7727 56.5349C98.3241 56.4737 96.8884 56.465 95.4411 56.5097C94.0877 56.6132 92.7537 56.767 91.412 56.9722C90.6104 57.1312 89.816 57.3029 89.0197 57.4898C88.2515 57.6741 87.4992 57.9228 86.7469 58.1714C85.5696 58.6078 84.4212 59.0849 83.2765 59.5982C81.3745 60.5281 79.5395 61.5466 77.7571 62.6881C74.8926 64.6523 72.1672 66.8023 69.512 69.0362C69.3422 69.7332 68.8444 70.3309 68.1567 70.6139C68.0435 70.6788 67.9318 70.7449 67.8231 70.8132C67.248 71.2191 66.6785 71.627 66.1349 72.0734C65.6351 72.5218 65.1657 72.993 64.7119 73.488C63.7519 74.579 62.8941 75.74 62.0394 76.9127C61.8258 77.2501 61.6111 77.589 61.3949 77.9267C61.1542 78.3033 60.8922 78.6733 60.6762 79.0613C60.1881 79.9404 59.6999 80.8195 59.2118 81.6987C58.8481 82.4284 58.4833 83.1596 58.1197 83.8893C57.7877 84.5547 57.492 85.2354 57.1889 85.9131C56.8894 86.5862 56.5818 87.2509 56.3222 87.9374C56.0216 88.7289 55.7226 89.5216 55.422 90.3131C55.0969 91.3842 54.7725 92.451 54.4474 93.522C54.2928 94.0278 54.2102 94.5711 54.0927 95.088C53.9766 95.5966 53.8621 96.1063 53.7464 96.6176C53.522 98.134 53.2714 99.6473 53.1232 101.173C52.97 103.061 52.938 104.948 53.0194 106.84C53.1344 108.729 53.3625 110.601 53.6938 112.462C54.0824 114.469 54.5937 116.439 55.2207 118.382C55.7943 120.07 56.4524 121.722 57.2127 123.337C57.8798 124.695 58.6133 126.013 59.4265 127.288C60.0552 128.229 60.7232 129.13 61.4527 129.994C62.2024 130.838 62.9906 131.636 63.8227 132.399C64.5545 133.038 65.3119 133.637 66.1075 134.198C66.8605 134.699 67.6304 135.164 68.4274 135.591C69.3519 136.053 70.2971 136.46 71.2659 136.823C72.3654 137.205 73.4787 137.521 74.6127 137.782C75.9401 138.055 77.2731 138.232 78.6214 138.353C80.2192 138.469 81.8167 138.488 83.4171 138.42C84.9666 138.329 86.5006 138.147 88.0295 137.88C89.9451 137.511 91.8232 137.011 93.6807 136.413C95.117 135.924 96.5105 135.352 97.8776 134.699C99.4585 133.913 100.985 133.039 102.464 132.075C103.885 131.116 105.24 130.077 106.545 128.967C107.497 128.137 108.403 127.25 109.325 126.388C109.695 126.042 110.027 125.642 110.374 125.273C110.771 124.85 111.167 124.429 111.566 124.004C112.285 123.132 112.996 122.247 113.71 121.364Z" fill="black"/>
<path d="M81.2848 100.159C80.5391 101.101 79.0652 101.314 78.1238 100.529C75.9651 98.7265 73.898 96.8215 71.8442 94.9051C70.8206 93.9505 69.821 92.9735 68.8332 91.984C68.3262 91.4734 67.8341 90.9526 67.3454 90.4271C67.1292 90.1951 66.9236 89.9521 66.7173 89.7133C66.313 89.2467 65.8835 88.6776 65.8498 88.0324C65.8017 87.1118 66.1629 86.2968 66.9732 85.8129C67.2279 85.6614 67.5301 85.5673 67.8261 85.5351C68.7601 85.4281 69.6449 85.9277 70.0714 86.7161C70.0832 86.7321 70.0965 86.7493 70.1082 86.7653C71.3583 88.1884 72.7102 89.5237 74.0785 90.8309C75.4572 92.1434 76.8583 93.4324 78.2724 94.7072C79.1418 95.4836 80.0208 96.2505 80.9146 96.9977C81.8423 97.7727 82.055 99.1392 81.3161 100.12C81.3069 100.132 81.2951 100.145 81.2848 100.159Z" fill="black"/>
<path d="M86.7329 86.5724C86.3648 87.0389 85.8188 87.3429 85.2287 87.411C84.6162 87.4836 84.0659 87.2932 83.5719 86.9426C81.4906 85.4679 79.4619 83.9233 77.4425 82.3665C76.4268 81.5848 75.412 80.799 74.4136 79.9945C73.8824 79.5635 73.3513 79.1324 72.8209 78.6972C72.3677 78.3272 71.892 77.9713 71.4644 77.5706C70.5673 76.7328 70.6534 75.2195 71.5005 74.3891C71.9283 73.9699 72.5183 73.7373 73.117 73.7495C73.6745 73.7594 74.1619 73.9764 74.5759 74.3287C74.5417 74.2982 74.5071 74.265 74.4729 74.2344C75.3876 75.033 76.3588 75.7788 77.304 76.5432C78.3134 77.3583 79.3454 78.1499 80.3736 78.9434C82.3447 80.4662 84.3307 81.9692 86.3626 83.4114C87.3491 84.1115 87.4603 85.6065 86.7604 86.5359C86.7512 86.5481 86.742 86.5602 86.7329 86.5724Z" fill="black"/>
<path d="M98.8216 109.666C97.9005 110.687 96.7875 111.541 95.6074 112.237C94.6889 112.783 93.6382 113.114 92.6147 113.407C91.0733 113.845 89.5314 114.164 87.9384 114.342C86.388 114.514 84.7922 114.373 83.2513 114.178C81.7478 113.987 80.2499 113.624 78.8289 113.102C77.4913 112.612 75.8434 111.86 75.625 110.27C75.458 109.054 76.3987 107.913 77.5987 107.773C78.3384 107.686 79.0291 107.975 79.4987 108.481C79.5155 108.494 79.5326 108.509 79.5493 108.522C79.5733 108.538 79.5983 108.552 79.6234 108.566C79.9141 108.699 80.2083 108.818 80.507 108.931C81.0794 109.124 81.6557 109.286 82.2426 109.428C83.125 109.611 84.0114 109.744 84.9088 109.841C85.5885 109.888 86.2645 109.909 86.9462 109.902C87.5827 109.855 88.2127 109.781 88.8474 109.692C90.0262 109.459 91.1811 109.154 92.3259 108.786C92.6041 108.686 92.8728 108.576 93.1401 108.455C93.3761 108.325 93.606 108.191 93.8348 108.049C94.1364 107.835 94.4279 107.616 94.7144 107.381C95.0898 107.044 95.4428 106.692 95.7852 106.323C96.0974 105.953 96.3964 105.575 96.6824 105.183C97.0507 104.63 97.3885 104.065 97.7005 103.48C97.9468 102.969 98.1717 102.452 98.3747 101.923C98.5643 101.367 98.7262 100.808 98.8648 100.237C98.9987 99.5754 99.1025 98.9122 99.1748 98.2371C99.2391 97.2939 99.2239 96.3646 99.1893 95.4231C99.0999 94.5954 98.9907 93.7812 98.8588 92.9595C98.6188 91.8729 98.346 90.8044 98.0286 89.7382C97.7701 88.9832 97.4951 88.2374 97.1847 87.5006C96.8712 86.7615 96.5243 86.0353 96.1765 85.3133C95.4972 83.9458 94.7821 82.6038 93.9644 81.3157C93.8558 81.1528 93.7446 80.9903 93.6348 80.829C92.9419 79.8184 93.0684 78.4381 94.0788 77.6758C95.024 76.9622 96.5375 77.1081 97.232 78.1198C98.5743 80.0725 99.6775 82.1621 100.68 84.3068C101.693 86.4716 102.54 88.7115 103.05 91.0505C103.193 91.7089 103.32 92.3601 103.43 93.0245C103.534 93.6515 103.596 94.2793 103.663 94.9089C103.725 95.4971 103.716 96.1007 103.74 96.693C103.768 97.4082 103.708 98.1427 103.636 98.8532C103.546 99.7156 103.416 100.569 103.212 101.414C102.861 102.876 102.35 104.286 101.658 105.619C101.172 106.555 100.616 107.43 99.9914 108.259C99.6202 108.742 99.2334 109.211 98.8216 109.666Z" fill="black"/>
<path d="M187.608 175.689C184.501 179.475 181.328 183.226 177.995 186.816C176.289 188.651 174.546 190.44 172.689 192.126C171.872 192.869 171.024 193.612 170.082 194.189C169.576 194.499 169.01 194.843 168.42 194.968C167.747 195.112 167.104 195.164 166.426 195.007C165.675 194.834 165.014 194.432 164.386 193.999C163.852 193.635 163.342 193.256 162.844 192.847C161.093 191.402 159.402 189.878 157.682 188.399C155.871 186.844 154.062 185.286 152.252 183.725C148.678 180.644 145.141 177.516 141.6 174.393C137.972 171.196 134.329 168.016 130.68 164.843C126.951 161.603 123.228 158.355 119.548 155.059C115.691 151.603 111.851 148.127 108.017 144.643C106.541 143.302 105.065 141.96 103.59 140.618C102.883 139.973 102.176 139.33 101.468 138.688C101.103 138.356 100.741 138.026 100.374 137.697C100.065 137.419 99.737 137.143 99.5248 136.786C98.9528 135.833 99.2297 134.525 100.12 133.853C101.046 133.152 102.316 133.307 103.103 134.102C103.099 134.097 103.094 134.091 103.091 134.086C103.608 134.631 104.215 135.11 104.769 135.615C105.503 136.283 106.236 136.949 106.969 137.615C108.345 138.869 109.722 140.123 111.102 141.374C114.05 144.05 116.999 146.72 119.953 149.388C123.469 152.537 126.992 155.681 130.554 158.776C134.402 162.121 138.253 165.465 142.084 168.826C145.635 171.945 149.163 175.088 152.73 178.185C156.299 181.288 159.895 184.359 163.475 187.449C164.489 188.322 165.478 189.227 166.547 190.029C166.816 190.213 167.088 190.394 167.366 190.563C167.481 190.502 167.595 190.435 167.707 190.366C168.261 189.976 168.788 189.56 169.305 189.122C170.288 188.227 171.271 187.334 172.197 186.377C173.298 185.24 174.383 184.095 175.458 182.933C178.092 179.983 180.664 176.983 183.207 173.952C185.725 170.947 188.063 167.812 190.309 164.602C192.144 161.91 193.961 159.202 195.635 156.408C197.304 153.624 198.887 150.795 200.381 147.913C200.36 147.954 200.339 147.998 200.317 148.039C201.005 146.698 201.75 145.358 202.301 143.952C202.317 143.896 202.334 143.839 202.35 143.782C202.359 143.736 202.366 143.689 202.374 143.643C202.371 143.607 202.366 143.572 202.362 143.536C202.357 143.513 202.351 143.49 202.348 143.466C202.352 143.476 202.355 143.488 202.359 143.498C202.36 143.494 202.358 143.487 202.358 143.487C202.331 143.412 202.301 143.338 202.269 143.263C202.169 143.073 202.061 142.891 201.947 142.71C201.743 142.43 201.533 142.161 201.313 141.893C200.701 141.205 200.04 140.58 199.37 139.95C197.69 138.525 195.973 137.146 194.195 135.842C192.238 134.407 190.26 133.007 188.268 131.623C188.348 131.679 188.426 131.733 188.504 131.787C180.535 126.314 172.458 120.979 164.076 116.156C159.715 113.643 155.313 111.202 150.913 108.758C146.713 106.425 142.551 104.031 138.416 101.584C134.149 99.0573 129.904 96.4935 125.596 94.0337C124.532 93.4248 124.203 91.9781 124.826 90.9454C125.468 89.8773 126.849 89.5659 127.914 90.1748C131.829 92.4111 135.696 94.7344 139.572 97.0361C143.706 99.4919 147.865 101.905 152.063 104.247C156.276 106.6 160.514 108.908 164.696 111.316C168.928 113.753 173.116 116.263 177.23 118.894C181.405 121.565 185.533 124.297 189.619 127.101C193.675 129.884 197.766 132.677 201.517 135.869C202.697 136.875 203.866 137.918 204.857 139.119C205.712 140.152 206.473 141.28 206.764 142.61C206.875 143.13 206.928 143.721 206.837 144.251C206.736 144.821 206.578 145.35 206.374 145.89C206.197 146.357 205.959 146.805 205.741 147.256C205.487 147.78 205.223 148.301 204.961 148.821C204.457 149.812 203.946 150.801 203.422 151.784C201.187 155.977 198.748 160.038 196.13 164.002C194.363 166.673 192.534 169.301 190.609 171.858C189.639 173.158 188.639 174.434 187.608 175.689Z" fill="black"/>
<path d="M110.362 146.603C110.013 146.678 109.674 146.685 109.35 146.62C109.367 146.623 109.385 146.628 109.402 146.631C109.299 146.615 109.196 146.604 109.094 146.594C104.27 146.301 99.4388 146.23 94.606 146.209C89.5782 146.184 84.5504 146.149 79.5232 146.196C74.7977 146.241 70.0728 146.349 65.3479 146.438C60.601 146.524 55.8532 146.614 51.1047 146.709C49.5726 146.74 48.0408 146.773 46.509 146.797C45.0816 146.819 43.6511 146.838 42.2257 146.768C40.8575 146.698 39.4924 146.592 38.1254 146.521C36.8775 146.456 35.6152 146.356 34.3668 146.384C34.0693 146.415 33.7752 146.451 33.4811 146.496C33.4194 146.512 33.3576 146.527 33.2947 146.544C33.0661 146.629 32.8427 146.723 32.619 146.824C31.7589 147.264 30.9436 147.77 30.1245 148.278C27.9649 149.734 25.8979 151.307 23.8445 152.91C21.8869 154.439 19.9605 156.006 18.0759 157.619C18.0893 157.607 18.1026 157.596 18.1159 157.585C17.549 158.078 16.987 158.577 16.4315 159.084C15.5264 159.909 14.1272 159.946 13.2489 159.049C12.412 158.194 12.3801 156.692 13.2847 155.865C15.0391 154.264 16.863 152.741 18.707 151.245C20.4545 149.827 22.2229 148.422 24.0305 147.083C25.0534 146.323 26.0821 145.574 27.1408 144.865C27.6872 144.497 28.2432 144.148 28.8038 143.803C29.8028 143.182 30.8796 142.553 32.0182 142.229C33.2578 141.877 34.5123 141.864 35.7876 141.911C36.7591 141.945 37.7298 141.992 38.7 142.045C40.6909 142.153 42.6754 142.312 44.6703 142.313C46.91 142.315 49.1483 142.248 51.3855 142.203C56.1355 142.109 60.8859 142.018 65.6355 141.932C70.3318 141.843 75.027 141.737 79.7244 141.694C84.7188 141.647 89.7142 141.683 94.7104 141.706C97.3336 141.717 99.9567 141.748 102.579 141.808C103.982 141.84 105.387 141.9 106.789 141.964C107.386 141.99 107.985 142.018 108.58 142.054C109.181 142.092 109.823 142.084 110.406 142.259C110.393 142.258 110.379 142.258 110.366 142.259C110.504 142.294 110.64 142.345 110.771 142.405C110.751 142.393 110.734 142.382 110.713 142.371C110.794 142.406 110.875 142.448 110.953 142.492C111.732 142.946 112.156 143.877 112.019 144.761C111.962 145.128 111.807 145.486 111.58 145.787C111.285 146.192 110.855 146.497 110.362 146.603Z" fill="black"/>
<path d="M30.7752 144.303C27.5645 144.619 24.3634 145.071 21.1811 145.609C21.2817 145.589 21.3812 145.571 21.4817 145.551C19.9692 145.838 18.4369 146.119 16.947 146.517C16.1283 146.835 15.1431 146.656 14.5031 146.002C13.6377 145.119 13.6696 143.684 14.5378 142.82C15.0591 142.302 15.773 142.167 16.4607 142.01C17.1012 141.866 17.7421 141.724 18.3849 141.586C19.7123 141.298 21.0514 141.065 22.3951 140.854C25.0012 140.445 27.6221 140.092 30.2482 139.834C31.4701 139.715 32.601 140.572 32.7451 141.808C32.814 142.394 32.6361 142.975 32.2935 143.43C31.9388 143.904 31.3988 144.241 30.7752 144.303Z" fill="black"/>
<path d="M33.6202 141.848C32.8535 142.815 31.4285 142.969 30.4578 142.217C28.4418 140.655 26.4299 139.085 24.4185 137.518C23.4196 136.739 22.4234 135.96 21.4283 135.18C20.9698 134.82 20.5127 134.462 20.0538 134.099C19.4907 133.654 18.9184 133.211 18.7428 132.466C18.4619 131.272 19.1523 130.033 20.3583 129.723C21.1142 129.529 21.9219 129.761 22.4742 130.275C23.2316 130.912 24.0286 131.503 24.8065 132.113C25.7708 132.868 26.7347 133.62 27.7017 134.374C29.5469 135.814 31.3945 137.251 33.2458 138.686C34.2014 139.427 34.3679 140.852 33.6485 141.807C33.6412 141.823 33.6309 141.837 33.6202 141.848Z" fill="black"/>
<path d="M20.7854 167.407C19.7561 166.789 19.3526 165.353 20.0147 164.319C21.8436 161.46 23.5516 158.525 25.2424 155.583C26.9871 152.552 28.7094 149.505 30.3864 146.437C30.9573 145.334 31.5277 144.238 31.9879 143.083C32.1296 142.679 32.2561 142.274 32.3666 141.861C32.4232 141.577 32.4718 141.295 32.5101 141.006C32.52 140.806 32.5261 140.608 32.5235 140.406C32.5134 140.287 32.4992 140.166 32.4823 140.046C32.4604 139.949 32.4359 139.851 32.409 139.757C32.0311 138.705 31.5011 137.703 31.0145 136.7C30.1495 134.93 29.2706 133.169 28.3728 131.418C27.8542 130.41 27.3425 129.402 26.7988 128.409C26.5256 127.907 26.2472 127.407 25.9549 126.915C25.7458 126.559 25.4924 126.218 25.3298 125.836C24.8435 124.709 25.4499 123.357 26.5679 122.904C27.6496 122.465 28.8574 122.951 29.4018 123.94C29.3924 123.921 29.384 123.9 29.373 123.88C29.5505 124.243 29.8069 124.586 30.0149 124.933C30.3234 125.454 30.6083 125.991 30.8978 126.521C31.4783 127.583 32.02 128.668 32.5685 129.744C33.6181 131.809 34.6508 133.882 35.652 135.971C36.3281 137.384 36.9929 138.783 37.0228 140.386C37.0728 142.943 36.0233 145.302 34.8777 147.529C33.7961 149.63 32.633 151.683 31.4718 153.741C29.0164 158.08 26.5618 162.434 23.8732 166.634C23.8396 166.685 23.806 166.736 23.7693 166.784C23.0774 167.703 21.8044 168.019 20.7854 167.407Z" fill="black"/>
<path d="M141.932 100.101C140.844 100.719 139.498 100.303 138.862 99.2548C138.612 98.8426 138.48 98.3377 138.299 97.894C138.034 97.2365 137.774 96.5756 137.516 95.9143C137.118 94.8948 136.746 93.8608 136.396 92.8223C135.586 90.4153 134.796 87.9987 134.015 85.5823C132.466 80.7965 130.942 76.0059 129.415 71.2156C127.874 66.3838 126.322 61.5604 124.75 56.7411C124.764 56.7799 124.777 56.8188 124.789 56.8565C124.773 56.8112 124.759 56.767 124.744 56.7201C124.729 56.6706 124.711 56.6214 124.696 56.5718C124.708 56.6096 124.721 56.65 124.733 56.6877C121.662 47.5447 118.507 38.4312 115.476 29.2758C114.532 26.4267 113.594 23.5769 112.709 20.71C112.347 19.5386 113.181 18.2641 114.326 17.9682C114.908 17.8197 115.533 17.9098 116.049 18.2193C116.569 18.5323 116.895 19.014 117.071 19.5848C117.781 21.8915 118.531 24.1818 119.283 26.4745C119.274 26.4459 119.263 26.4162 119.254 26.3861C119.281 26.4707 119.311 26.5549 119.338 26.6395C119.342 26.6498 119.345 26.6616 119.349 26.6719C119.348 26.6666 119.345 26.6616 119.344 26.6563C122.353 35.755 125.509 44.8044 128.541 53.8944C131.652 63.2248 134.554 72.6242 137.579 81.9803C138.309 84.2394 139.041 86.4997 139.779 88.7576C140.286 90.2676 140.798 91.7729 141.34 93.2711C141.815 94.5844 142.352 95.8739 142.866 97.1736C143.243 97.9323 143.104 98.8479 142.609 99.505C142.423 99.7461 142.196 99.9494 141.932 100.101Z" fill="black"/>
<path d="M120.2 32.7918C119.027 33.532 117.379 33.3969 116.228 32.6915C115.161 32.0381 114.207 31.2124 113.232 30.4331C112.383 29.7531 111.536 29.0769 110.686 28.3984C109.533 27.4798 108.38 26.5611 107.221 25.6527C106.671 25.2243 106.123 24.7971 105.577 24.3641C105.093 23.9807 104.574 23.6091 104.144 23.1638C103.294 22.28 103.298 20.8435 104.179 19.9812C105.05 19.1284 106.509 19.1351 107.359 20.0136C108.164 20.7011 109.014 21.3388 109.846 21.9941C110.862 22.7932 111.875 23.5943 112.886 24.3957C113.789 25.117 114.69 25.8359 115.592 26.5602C116.467 27.2597 117.333 27.9836 118.238 28.642C118.253 28.6264 118.268 28.612 118.283 28.5949C118.649 28.1599 118.98 27.7055 119.305 27.2423C120.8 24.9051 122.119 22.4609 123.441 20.0216C124.729 17.6444 126.007 15.2645 127.271 12.8743C127.844 11.7901 129.352 11.4976 130.359 12.1037C130.863 12.4067 131.235 12.9022 131.381 13.4718C131.537 14.0754 131.418 14.651 131.131 15.1931C128.98 19.261 126.839 23.348 124.529 27.3295C123.92 28.3779 123.275 29.3987 122.584 30.3962C122.492 30.5274 122.399 30.6575 122.303 30.7853C121.714 31.5671 121.035 32.2622 120.2 32.7918Z" fill="black"/>
<path d="M135.639 23.3752C132.218 26.405 128.795 29.4363 125.42 32.518C124.56 33.3027 123.703 34.095 122.817 34.8507C121.454 36.0079 120.004 37.3352 118.171 37.6068C116.843 37.8033 115.5 37.4281 114.205 37.1467C113.033 36.8929 111.863 36.6388 110.691 36.3877C109.24 36.0767 107.787 35.7713 106.333 35.4702C104.887 35.1679 103.448 34.8347 101.994 34.5743C100.787 34.3609 99.9208 33.2413 100.11 32.0086C100.292 30.8177 101.468 29.911 102.676 30.1245C103.806 30.3244 104.924 30.583 106.048 30.8165C107.369 31.0915 108.689 31.3638 110.008 31.6445C111.206 31.9002 112.4 32.1563 113.596 32.4162C114.823 32.6841 116.052 32.9978 117.297 33.1652C117.341 33.1672 117.383 33.1681 117.428 33.1685C117.439 33.167 117.447 33.1659 117.457 33.1644C117.493 33.1554 117.527 33.1478 117.564 33.1399C117.614 33.1206 117.666 33.0997 117.716 33.0777C117.825 33.0216 117.93 32.9605 118.036 32.8967C118.726 32.4202 119.364 31.883 120.006 31.3412C122.076 29.5079 124.095 27.6246 126.158 25.784C128.268 23.9043 130.382 22.028 132.495 20.156C132.953 19.7502 133.49 19.5033 134.111 19.5137C134.697 19.5237 135.267 19.7712 135.678 20.1906C136.416 20.9447 136.54 22.2463 135.901 23.0935C135.822 23.1958 135.737 23.2893 135.639 23.3752Z" fill="black"/>
</svg>
