<svg width="187" height="132" viewBox="0 0 187 132" fill="none" xmlns="http://www.w3.org/2000/svg">
<path d="M91.61 63.3865C90.0326 63.1869 88.4962 62.775 86.9892 62.2825C86.6182 62.1609 86.2344 62.0586 85.8724 61.9115C85.4912 61.7554 85.1099 61.5993 84.7274 61.4445C84.4588 61.3345 84.176 61.2386 83.9151 61.1093C83.4814 60.8957 83.049 60.6833 82.6153 60.4684C81.8963 60.1141 81.2094 59.7124 80.5134 59.3132C79.8597 58.9371 79.2418 58.5009 78.6124 58.0864C77.0875 57.0796 75.6751 55.8527 74.4202 54.5274C73.0129 53.0421 71.9089 51.3215 71.0722 49.4575C70.233 47.5872 69.8288 45.5685 69.7635 43.5267C69.7315 42.5315 69.8377 41.5234 69.9836 40.5396C70.1422 39.4714 70.3776 38.4109 70.6654 37.3721C71.2232 35.3585 72.0906 33.4587 73.1511 31.6626C73.6794 30.7658 74.2641 29.9061 74.8948 29.0784C75.5754 28.1855 76.3455 27.3705 77.1514 26.5915C77.4342 26.3164 77.7412 26.0644 78.0342 25.8009C78.3002 25.5655 78.5574 25.3186 78.8401 25.1011C79.4516 24.6278 80.0516 24.1416 80.6964 23.7118C81.0763 23.4585 81.4563 23.2065 81.8375 22.9519C82.1599 22.7382 82.5078 22.5617 82.8443 22.3736C83.127 22.215 83.4059 22.0359 83.7001 21.899C84.1402 21.6918 84.5803 21.4845 85.0204 21.2773C85.3184 21.1378 85.6204 21.0189 85.9261 20.8999C86.3074 20.7515 86.6847 20.6005 87.0762 20.4803C87.1837 20.4483 87.2911 20.4138 87.3986 20.3818C87.6161 19.9839 88.0126 19.6884 88.486 19.6475C89.9636 19.5234 91.4475 19.453 92.929 19.485C94.5242 19.517 96.1093 19.6475 97.6931 19.8342C99.1732 20.0095 100.632 20.3344 102.081 20.6735C103.61 21.0329 105.095 21.5447 106.537 22.1587C107.929 22.7523 109.217 23.5864 110.468 24.4269C111.069 24.8312 111.665 25.2674 112.228 25.7228C112.857 26.2333 113.496 26.7399 114.08 27.3027C115.149 28.3287 116.187 29.3842 117.079 30.5713C117.552 31.1982 118.029 31.8315 118.421 32.512C118.603 32.828 118.814 33.1402 118.972 33.4702C119.158 33.8579 119.375 34.2442 119.532 34.6459C119.669 34.999 119.806 35.3508 119.943 35.7026C120.082 36.0633 120.173 36.4497 120.288 36.8207C120.523 37.5908 120.659 38.3942 120.809 39.1848C120.943 39.9038 121.047 40.6266 121.099 41.3558C121.142 41.9532 121.134 42.5468 121.127 43.1442C121.121 43.9297 121.02 44.7178 120.86 45.4866C120.731 46.0994 120.532 46.6892 120.335 47.2815C119.856 48.7271 119.227 50.1177 118.459 51.4328C118.282 51.7321 118.112 52.034 117.919 52.3244C117.681 52.6826 117.456 53.0562 117.195 53.3978C116.957 53.7099 116.72 54.0221 116.482 54.3329C116.239 54.6515 115.954 54.9431 115.691 55.2463C115.173 55.8463 114.582 56.3785 113.989 56.9005C113.304 57.5017 112.579 58.0595 111.851 58.6083C110.171 59.871 108.309 60.8343 106.339 61.5597C105.883 61.7272 105.419 61.8641 104.954 62.0049C104.587 62.1162 104.22 62.2518 103.846 62.34C103.143 62.5089 102.442 62.7021 101.729 62.83C101.266 62.9131 100.802 62.9963 100.34 63.0795C99.9497 63.1498 99.5544 63.1908 99.1604 63.2419C98.3545 63.3455 97.5485 63.4134 96.74 63.4837C96.044 63.5438 95.3468 63.5745 94.6509 63.5745C93.6326 63.5784 92.6168 63.5144 91.61 63.3865ZM91.0906 22.6167C90.8962 22.6167 90.7004 22.618 90.5047 22.6205C90.1951 22.6461 89.8894 22.6858 89.5823 22.7293C89.2907 22.792 88.99 22.8406 88.7073 22.9263C88.3836 23.0261 88.06 23.1259 87.7376 23.2244C87.2873 23.4009 86.837 23.5749 86.3867 23.7514C85.921 23.9715 85.4541 24.1902 84.9884 24.409C84.7121 24.5395 84.4485 24.7109 84.1812 24.8606C83.9291 25.0026 83.6758 25.1433 83.4238 25.2866C82.9274 25.6166 82.4324 25.9454 81.9373 26.2755C81.6904 26.4392 81.4627 26.6426 81.2285 26.823C80.9765 27.0187 80.7245 27.2119 80.4738 27.4064C79.6422 28.1496 78.8132 28.8827 78.0508 29.6976C77.5045 30.3142 76.9966 30.9602 76.5182 31.6332C75.9144 32.5184 75.3617 33.437 74.8602 34.3836C74.4675 35.1614 74.1182 35.9559 73.815 36.7746C73.5067 37.6612 73.2522 38.5618 73.0462 39.4778C72.8645 40.3528 72.7161 41.2317 72.633 42.1208C72.5933 42.6722 72.5767 43.2197 72.5908 43.7724C72.6215 44.3148 72.6778 44.8521 72.7622 45.3881C72.8607 45.9075 72.981 46.4192 73.1306 46.9245C73.3136 47.4862 73.5246 48.0324 73.7626 48.571C74.0376 49.1518 74.3383 49.7134 74.6722 50.2622C75.0329 50.8251 75.4218 51.365 75.8427 51.8831C76.348 52.4728 76.8828 53.0319 77.4482 53.5654C78.2734 54.3112 79.1395 55.002 80.0414 55.6506C80.5761 56.0037 81.1109 56.3555 81.6469 56.7086C81.9232 56.8902 82.2277 57.0412 82.5155 57.2062C82.788 57.3636 83.0605 57.5209 83.3355 57.6783C83.9163 57.9648 84.4971 58.2514 85.0767 58.5367C85.3645 58.6787 85.6779 58.781 85.9734 58.9026C86.2894 59.0331 86.608 59.1623 86.9252 59.2915C87.3321 59.4245 87.7376 59.5576 88.1431 59.6893C88.8378 59.917 89.5363 60.1089 90.2488 60.2752C91.0855 60.4531 91.9247 60.5938 92.778 60.6795C93.7311 60.7537 94.6829 60.7678 95.6385 60.732C97.0278 60.6642 98.4056 60.4953 99.7834 60.3175C100.247 60.2343 100.71 60.1512 101.173 60.068C101.571 59.9964 101.961 59.8915 102.354 59.7968C102.725 59.7085 103.097 59.6254 103.461 59.5153C103.919 59.3759 104.377 59.2365 104.835 59.097C105.557 58.8463 106.267 58.57 106.965 58.2578C107.625 57.9457 108.264 57.6028 108.887 57.2216C109.915 56.5602 110.87 55.808 111.825 55.0455C112.125 54.7832 112.423 54.521 112.721 54.2575C113.007 54.0054 113.266 53.7074 113.531 53.4297C113.778 53.1445 114.024 52.8592 114.27 52.5739C114.527 52.2771 114.752 51.9458 114.99 51.6311C115.327 51.1257 115.657 50.623 115.964 50.0998C116.284 49.5548 116.57 48.9996 116.859 48.4392C116.831 48.4942 116.803 48.548 116.775 48.603C116.931 48.2486 117.086 47.8968 117.241 47.5424C117.365 47.2584 117.465 46.9578 117.568 46.6623C117.757 46.093 117.948 45.5288 118.093 44.9468C118.175 44.5348 118.235 44.1216 118.277 43.702C118.314 43.1404 118.324 42.5737 118.31 42.0095C118.277 41.3353 118.198 40.6688 118.093 40.0023C118.018 39.6108 117.946 39.2181 117.873 38.8279C117.798 38.4403 117.692 38.0552 117.601 37.6701C117.504 37.3542 117.407 37.0382 117.31 36.7196C117.201 36.3678 117.042 36.025 116.907 35.6808C116.763 35.3828 116.621 35.0847 116.478 34.7853C116.325 34.4668 116.124 34.1636 115.943 33.8566C115.74 33.5508 115.535 33.2438 115.333 32.938C115.106 32.5952 114.836 32.2754 114.587 31.9479C114.21 31.5027 113.835 31.0588 113.433 30.6353C112.996 30.176 112.544 29.736 112.089 29.2972C111.572 28.8443 111.051 28.4004 110.517 27.9667C110.014 27.5586 109.486 27.1825 108.96 26.8077C108.064 26.2064 107.153 25.6448 106.207 25.1267C105.834 24.9463 105.465 24.7672 105.084 24.606C104.695 24.4397 104.301 24.2913 103.905 24.1442C103.345 23.9587 102.786 23.786 102.22 23.6197C101.651 23.4546 101.069 23.3293 100.492 23.1937C99.7195 23.0299 98.9468 22.8802 98.1689 22.7485C97.3528 22.6103 96.5276 22.531 95.705 22.4504C94.4795 22.357 93.2565 22.3033 92.0309 22.3033C92.0181 22.3033 92.0053 22.3033 91.9938 22.3033C91.7418 22.5028 91.4271 22.6167 91.0906 22.6167Z" fill="black"/>
<path d="M90.4512 39.9027C90.0802 39.8938 89.7207 39.7364 89.4636 39.4665C89.1975 39.1876 89.0849 38.8396 89.0734 38.4597C89.0325 36.9962 89.0286 35.5327 89.0273 34.0679C89.0273 33.276 89.0299 32.4841 89.0376 31.6922C89.0414 31.3212 89.0491 30.9515 89.0568 30.5818C89.0645 30.2261 89.0529 29.8449 89.1489 29.4995C89.3574 28.7588 90.1595 28.3213 90.8951 28.5324C91.5757 28.7268 91.9966 29.4125 91.8994 30.0957C91.8994 30.0995 91.8994 30.1021 91.8994 30.1059C91.8316 31.5157 91.8482 32.928 91.8482 34.3378C91.8495 35.7335 91.8546 37.1292 91.893 38.5249C91.9134 39.2835 91.2098 39.9027 90.4794 39.9027C90.4717 39.9027 90.4614 39.9027 90.4512 39.9027Z" fill="black"/>
<path d="M97.4863 41.0895C96.7277 41.0716 96.0766 40.4153 96.1086 39.6464C96.1738 38.0307 96.239 36.4149 96.3004 34.7992C96.3606 33.2436 96.4156 31.6892 96.4156 30.1323C96.4156 29.3635 97.1038 28.7366 97.8599 28.7545C98.6415 28.7737 99.2377 29.4287 99.2377 30.1976C99.2377 31.7097 99.184 33.2205 99.1264 34.7327C99.0624 36.3932 98.9959 38.0524 98.9294 39.713C98.8987 40.469 98.2833 41.0907 97.5209 41.0907C97.5094 41.0895 97.4979 41.0895 97.4863 41.0895Z" fill="black"/>
<path d="M89.1648 52.96C88.286 52.5993 87.4711 52.1106 86.6945 51.5682C85.8847 51.0014 85.1939 50.2838 84.5735 49.5187C83.9888 48.7972 83.5257 47.9618 83.1918 47.097C83.0242 46.6621 82.9181 46.2003 82.8016 45.7512C82.6533 45.1819 82.5509 44.6011 82.4549 44.0216C82.3193 43.2054 82.3219 42.3854 82.3373 41.5615C82.3449 41.1688 82.359 40.776 82.3974 40.3859C82.4729 39.6196 83.2737 39.0925 84.0042 39.2038C84.3752 39.2601 84.7155 39.4673 84.9355 39.7718C85.144 40.0596 85.2144 40.3884 85.1927 40.7351C85.1965 40.7095 85.1978 40.6839 85.2003 40.6571C85.1543 41.3696 85.1351 42.0873 85.1555 42.8012C85.1811 43.153 85.2259 43.4997 85.2809 43.8489C85.4063 44.5448 85.5713 45.2331 85.7683 45.9137C85.831 46.1017 85.9014 46.2834 85.9794 46.4651C86.1048 46.7171 86.2391 46.9601 86.3837 47.2019C86.5641 47.4731 86.7547 47.7341 86.9581 47.9874C87.173 48.2343 87.3969 48.471 87.6323 48.7C87.9214 48.9558 88.2207 49.1938 88.5342 49.4189C88.8962 49.6595 89.2685 49.8795 89.6535 50.0829C90.0476 50.2722 90.4454 50.4424 90.8561 50.5946C91.2821 50.7379 91.7119 50.8582 92.1494 50.9592C92.6049 51.0488 93.0603 51.114 93.5221 51.1613C94.0006 51.192 94.4765 51.1997 94.9549 51.1857C95.4526 51.1562 95.9438 51.1038 96.4363 51.0283C96.957 50.9324 97.4687 50.8121 97.9766 50.665C98.4077 50.523 98.8299 50.3643 99.2444 50.1814C99.5719 50.0202 99.8904 49.8475 100.204 49.6595C100.513 49.4561 100.81 49.2411 101.099 49.0096C101.426 48.7281 101.735 48.4339 102.032 48.1217C102.439 47.6638 102.814 47.1866 103.171 46.6889C103.398 46.3435 103.634 46.0032 103.841 45.6463C104.092 45.2152 104.33 44.7841 104.561 44.3453C104.972 43.5086 105.37 42.6681 105.7 41.7969C105.743 41.6664 105.787 41.5385 105.829 41.4067C106.063 40.6737 106.82 40.2247 107.575 40.4396C108.298 40.6456 108.775 41.4528 108.542 42.1845C108.075 43.6545 107.383 45.0348 106.668 46.3973C106.339 47.0216 105.941 47.6049 105.558 48.1934C105.026 49.0083 104.385 49.758 103.705 50.4513C102.97 51.2023 102.107 51.8215 101.2 52.3473C100.36 52.8347 99.4389 53.1673 98.5114 53.4474C97.4368 53.7711 96.3046 53.9349 95.1865 53.9975C94.937 54.0116 94.6876 54.018 94.4394 54.018C92.6279 54.0129 90.8433 53.6457 89.1648 52.96Z" fill="black"/>
<path d="M77.1882 104.169C76.6457 104.116 76.0521 104.016 75.6121 103.665C75.3728 103.475 75.108 103.192 75.0134 102.894C74.9724 102.768 74.934 102.642 74.8957 102.515C74.8509 102.323 74.8407 102.113 74.8445 101.915C74.8534 101.35 74.8969 100.782 74.9315 100.218C74.998 99.1199 75.0722 98.0222 75.1502 96.9246C75.3165 94.5809 75.5519 92.2411 75.7605 89.9026C76.0138 86.8745 76.2428 83.8451 76.473 80.8157C76.7046 77.7544 76.9783 74.6982 77.27 71.6432C77.4965 69.274 77.7267 66.9022 77.9545 64.5329C78.0606 63.4289 78.1604 62.3236 78.2666 61.217C78.2947 60.9189 78.3242 60.6221 78.3523 60.3228C78.3805 60.0208 78.4175 59.7202 78.4572 59.4196C78.5007 59.0806 78.5455 58.6968 78.6862 58.3795C78.7821 58.1646 78.8858 57.9676 79.0585 57.8025C79.2427 57.626 79.4794 57.4968 79.7276 57.4392C80.0704 57.3574 80.4964 57.4034 80.7945 57.6081C81.1117 57.8281 81.351 58.1083 81.4431 58.4921C81.525 58.8375 81.4712 59.2059 81.2985 59.513C81.154 60.4251 81.0836 61.3487 80.9966 62.266C80.9301 62.9491 80.8674 63.6323 80.8034 64.318C80.6947 65.4834 80.5821 66.6476 80.4683 67.813C80.2022 70.5545 79.9425 73.2961 79.6879 76.0389C79.4384 79.0068 79.2171 81.9786 78.9868 84.9491C78.7438 88.077 78.4726 91.201 78.1898 94.3251C78.177 94.4569 78.1655 94.5886 78.154 94.7191C78.0542 95.9012 77.9608 97.0807 77.8815 98.2627C77.8124 99.299 77.7216 100.34 77.6807 101.38C78.2896 101.416 78.8973 101.402 79.5075 101.397C82.6034 101.242 85.6993 101.027 88.7939 100.821C91.8488 100.618 94.9051 100.476 97.9651 100.363C98.5664 100.342 99.1664 100.317 99.7677 100.294C99.7088 100.297 99.6474 100.298 99.5886 100.301C101.939 100.186 104.285 100.042 106.621 99.7416C107.821 99.5868 109.017 99.4077 110.214 99.2248C111.261 99.0649 112.314 98.9305 113.356 98.7642C113.358 98.7617 113.359 98.7604 113.36 98.7578C113.373 98.7143 113.386 98.6734 113.396 98.6299C113.423 98.4777 113.446 98.3267 113.464 98.1745C113.479 97.8866 113.48 97.6013 113.473 97.3135C113.434 96.6969 113.345 96.0931 113.253 95.4841C112.97 94.0398 112.644 92.6083 112.314 91.1742C111.967 89.6595 111.618 88.1448 111.257 86.6327C110.556 83.698 109.864 80.7646 109.268 77.8056C108.725 75.1114 108.192 72.4172 107.629 69.7268C107.364 68.4603 107.101 67.1925 106.822 65.9286C106.549 64.6979 106.27 63.4685 105.915 62.2596C105.787 61.8489 105.65 61.4396 105.507 61.0328C105.251 60.3087 105.594 59.4899 106.325 59.2136C107.03 58.9462 107.889 59.307 108.144 60.0324C109.071 62.6523 109.599 65.3875 110.168 68.1021C110.793 71.0765 111.389 74.0547 111.989 77.0329C112.278 78.4682 112.575 79.9023 112.9 81.3287C113.245 82.846 113.613 84.3568 113.975 85.869C114.336 87.3798 114.686 88.8932 115.032 90.4066C115.374 91.8919 115.713 93.3771 116.007 94.8726C116.253 96.1314 116.368 97.4325 116.242 98.7079C116.171 99.4448 115.898 100.306 115.341 100.821C115.088 101.054 114.817 101.254 114.492 101.377C114.146 101.508 113.773 101.552 113.409 101.604C112.035 101.799 110.665 102.014 109.291 102.216C107.765 102.442 106.237 102.642 104.701 102.79C103.171 102.937 101.638 103.022 100.103 103.096C98.7865 103.16 97.4713 103.201 96.155 103.248C93.1499 103.377 90.1499 103.562 87.1487 103.755C85.6264 103.853 84.1053 103.95 82.5829 104.046C81.7322 104.099 80.8815 104.149 80.0307 104.191C79.56 104.214 79.0866 104.232 78.6133 104.232C78.1374 104.234 77.6615 104.217 77.1882 104.169Z" fill="black"/>
<path d="M48.4835 131.669C46.7283 131.274 44.7774 130.455 43.823 128.831C43.603 128.454 43.4559 128.066 43.3433 127.645C43.2921 127.451 43.2742 127.241 43.2678 127.042C43.2627 126.829 43.255 126.603 43.296 126.393C43.3778 125.986 43.4827 125.586 43.6977 125.225C43.9586 124.785 44.2772 124.396 44.675 124.074C46.1757 122.86 48.2264 122.741 50.0762 122.881C51.7086 123.004 53.3115 123.343 54.8787 123.802C55.1819 123.892 55.4748 123.994 55.7716 124.104C56.0812 124.22 56.3959 124.323 56.6953 124.46C57.0253 124.611 57.3605 124.753 57.6842 124.918C57.656 124.748 57.6253 124.579 57.5984 124.409C57.4744 123.631 57.3477 122.853 57.2249 122.074C56.9818 120.559 56.7452 119.045 56.52 117.528C56.0608 114.462 55.8202 111.37 55.5836 108.283C55.5273 107.545 55.5042 106.803 55.4646 106.065C55.3853 104.558 55.361 103.054 55.4441 101.547C55.5004 100.524 55.6232 99.5049 55.8138 98.4981C55.9021 98.0299 56.0211 97.568 56.1592 97.11C56.3153 96.5919 56.5008 96.0636 56.7682 95.5915C56.9754 95.2231 57.2083 94.879 57.4884 94.563C57.7468 94.2726 58.0641 93.9847 58.4159 93.8095C58.7831 93.6291 59.1694 93.4577 59.5814 93.4129C60.0432 93.3617 60.4909 93.3975 60.9451 93.496C61.6257 93.6432 62.2832 93.9374 62.9037 94.247C63.258 94.4248 63.6175 94.5949 63.9681 94.7817C64.6972 95.1706 65.4239 95.5647 66.1454 95.9676C67.44 96.6943 68.727 97.435 70.0217 98.1616C70.7266 98.5237 71.425 98.8921 72.1504 99.2081C72.5764 99.3936 72.9999 99.6021 73.4374 99.7633C73.8723 99.9245 74.3086 100.086 74.7435 100.247C75.1951 100.398 75.6467 100.551 76.1009 100.692C76.5397 100.83 76.9836 100.957 77.4173 101.11C77.7806 101.24 78.0838 101.451 78.2718 101.799C78.4445 102.121 78.4855 102.505 78.3857 102.857C78.1836 103.562 77.3635 104.08 76.6394 103.824C76.1021 103.634 75.5521 103.477 75.0084 103.308C74.3969 103.118 73.7943 102.901 73.193 102.679C72.8822 102.564 72.5713 102.449 72.2604 102.333C71.9265 102.211 71.6029 102.047 71.2766 101.905C71.0208 101.794 70.7547 101.694 70.5065 101.567C70.1419 101.38 69.776 101.195 69.4102 101.008C68.2358 100.411 67.0934 99.7556 65.951 99.1006C64.829 98.4584 63.6981 97.8316 62.557 97.2239C61.9122 96.9002 61.2726 96.574 60.5946 96.3233C60.5255 96.3003 60.4551 96.2785 60.3848 96.2593C60.276 96.2388 60.1698 96.2222 60.0598 96.2081C60.0406 96.2081 60.0214 96.2081 60.001 96.2081C59.9946 96.2081 59.9895 96.2094 59.9818 96.2107C59.9639 96.2145 59.946 96.2197 59.9293 96.2235C59.9025 96.2325 59.8756 96.2427 59.8487 96.2516C59.8193 96.267 59.7886 96.2823 59.7579 96.2964C59.74 96.3092 59.7221 96.322 59.7042 96.3335C59.6722 96.3642 59.6415 96.3949 59.6095 96.4256C59.5302 96.519 59.456 96.615 59.3831 96.7148C59.3319 96.7928 59.2846 96.8734 59.2398 96.9552C59.1502 97.142 59.0709 97.3301 58.998 97.5232C58.8598 97.9326 58.7409 98.3446 58.6424 98.7629C58.4965 99.4831 58.3929 100.21 58.32 100.94C58.2112 102.307 58.2048 103.668 58.2394 105.035C58.3213 106.587 58.4082 108.135 58.5259 109.683C58.6385 111.152 58.769 112.619 58.9353 114.084C59.282 117.157 59.7835 120.208 60.2747 123.26C60.3553 123.759 60.4359 124.259 60.5165 124.757C60.6176 125.389 60.7429 126.018 60.7583 126.659C60.7711 127.158 60.5383 127.681 60.1801 128.022C60.0483 128.15 59.8884 128.249 59.7157 128.321C59.6504 128.555 59.5251 128.771 59.3332 128.94C57.94 130.17 56.2514 131.078 54.477 131.614C53.5508 131.894 52.5696 131.977 51.6088 131.996C51.532 131.999 51.454 132 51.376 132C50.4024 132.001 49.4238 131.881 48.4835 131.669ZM46.0823 126.928C46.0874 126.958 46.0925 126.99 46.0963 127.022C46.1053 127.056 46.1142 127.089 46.1232 127.122C46.1424 127.17 46.159 127.216 46.1769 127.262C46.1987 127.306 46.223 127.351 46.2486 127.393C46.2921 127.457 46.3368 127.52 46.3842 127.58C46.4405 127.644 46.4993 127.704 46.5607 127.763C46.6579 127.848 46.759 127.929 46.8639 128.006C47.0149 128.106 47.1684 128.199 47.327 128.289C47.5995 128.422 47.8745 128.542 48.1585 128.65C48.486 128.758 48.8148 128.852 49.15 128.93C49.6144 129.022 50.0788 129.091 50.5495 129.138C51.0267 129.173 51.5026 129.183 51.9798 129.168C52.2971 129.147 52.613 129.115 52.929 129.069C53.2668 129.008 53.5981 128.93 53.9282 128.835C54.1943 128.746 54.4565 128.647 54.7175 128.538C55.2663 128.28 55.7972 128 56.3192 127.685C56.4061 127.628 56.4906 127.57 56.5763 127.512C56.4778 127.461 56.378 127.409 56.2782 127.358C56.3319 127.386 56.387 127.414 56.442 127.442C56.1004 127.286 55.7588 127.13 55.4173 126.975C55.1064 126.834 54.7725 126.73 54.4463 126.614C54.0587 126.499 53.6723 126.387 53.2847 126.273C52.9444 126.173 52.5887 126.106 52.2395 126.03C51.4783 125.895 50.7223 125.769 49.9521 125.695C49.5261 125.664 49.1014 125.65 48.6741 125.657C48.3671 125.675 48.0613 125.704 47.7556 125.747C47.5586 125.783 47.3654 125.826 47.1709 125.877C47.0712 125.912 46.9714 125.949 46.8741 125.991C46.8063 126.025 46.7385 126.06 46.672 126.099C46.6029 126.144 46.5377 126.191 46.4724 126.242C46.4162 126.295 46.3612 126.348 46.3049 126.401C46.3304 126.374 46.356 126.346 46.3803 126.318C46.4072 126.297 46.4315 126.275 46.4571 126.254C46.4328 126.274 46.4097 126.292 46.3854 126.312C46.4021 126.295 46.4187 126.277 46.4353 126.259C46.4149 126.279 46.3931 126.302 46.3739 126.324C46.3599 126.335 46.3458 126.347 46.3317 126.36C46.3445 126.35 46.356 126.339 46.3688 126.329C46.3176 126.384 46.2703 126.44 46.2255 126.499C46.2012 126.539 46.1782 126.579 46.1539 126.618C46.1424 126.643 46.1322 126.667 46.1194 126.691C46.1142 126.709 46.1066 126.728 46.1014 126.746C46.0963 126.77 46.0912 126.793 46.0861 126.818C46.0912 126.758 46.0976 126.698 46.1014 126.639C46.0886 126.736 46.0823 126.832 46.0823 126.928Z" fill="black"/>
<path d="M142.386 129.681C141.306 129.429 140.247 129.058 139.223 128.633C138.513 128.337 138.187 127.474 138.489 126.777C138.548 126.64 138.626 126.518 138.718 126.413C138.288 126.43 137.856 126.303 137.512 126.027C136.941 125.57 136.84 124.822 136.773 124.144C136.703 123.425 136.63 122.707 136.553 121.991C136.396 120.535 136.217 119.082 136.025 117.63C135.829 116.137 135.672 114.64 135.53 113.141C135.315 110.883 135.132 108.623 134.913 106.367C134.802 105.217 134.71 104.061 134.559 102.914C134.482 102.328 134.425 101.736 134.327 101.152C134.235 100.603 134.144 100.056 134.052 99.5071C133.871 98.6769 133.699 97.8466 133.46 97.0304C133.319 96.5916 133.162 96.1618 132.983 95.737C132.863 95.4825 132.736 95.233 132.598 94.9887C132.502 94.8441 132.403 94.7047 132.298 94.5665C132.256 94.5204 132.213 94.4744 132.168 94.4296C132.13 94.3976 132.09 94.3656 132.049 94.3349C132.026 94.3234 132.004 94.3094 131.981 94.2978C131.976 94.2953 131.97 94.2927 131.965 94.2914C131.952 94.2863 131.938 94.2838 131.924 94.2799C131.92 94.2799 131.919 94.2799 131.916 94.2786C131.892 94.2786 131.867 94.2774 131.843 94.2774C131.803 94.2812 131.764 94.285 131.723 94.2889C131.604 94.3132 131.487 94.3426 131.367 94.3733C130.61 94.6215 129.875 94.9477 129.142 95.2547C128.438 95.5503 127.733 95.8458 127.029 96.1426C125.591 96.7515 124.156 97.3643 122.723 97.9822C121.277 98.6065 119.829 99.2257 118.378 99.8397C117.668 100.139 116.956 100.433 116.245 100.729C115.638 100.98 115.031 101.244 114.411 101.461C114.021 101.597 113.632 101.728 113.237 101.846C112.819 101.97 112.386 102.103 111.947 102.102C111.328 102.1 110.735 101.627 110.608 101.018C110.607 101.015 110.607 101.014 110.607 101.014C110.493 100.472 110.678 99.864 111.152 99.5455C111.157 99.5417 111.163 99.5365 111.17 99.5327C111.409 99.3817 111.663 99.2832 111.937 99.2717C112.223 99.209 112.503 99.1259 112.783 99.0427C114.227 98.5361 115.633 97.9298 117.047 97.3426C118.404 96.7784 119.752 96.195 121.102 95.6129C123.914 94.3989 126.723 93.1721 129.566 92.0335C130.145 91.8007 130.757 91.5499 131.385 91.4885C131.801 91.4489 132.217 91.4361 132.623 91.5474C133.081 91.6727 133.456 91.8825 133.84 92.155C134.178 92.3942 134.446 92.7358 134.696 93.0595C134.988 93.4394 135.214 93.8718 135.424 94.3004C135.875 95.2215 136.176 96.2117 136.436 97.2005C136.537 97.5831 136.607 97.9771 136.692 98.3634C136.763 98.6884 136.828 99.012 136.882 99.3395C137.017 100.149 137.148 100.957 137.254 101.771C137.651 104.801 137.884 107.852 138.158 110.895C138.361 113.167 138.585 115.438 138.882 117.701C139.028 118.81 139.164 119.92 139.287 121.029C139.354 121.624 139.41 122.221 139.469 122.817C139.773 122.578 140.075 122.336 140.384 122.102C140.948 121.672 141.535 121.261 142.15 120.907C142.814 120.526 143.494 120.154 144.213 119.888C145.46 119.427 146.852 119.055 148.181 119.355C149.032 119.55 149.788 119.987 150.351 120.659C150.875 121.287 151.182 122.056 151.313 122.859C151.466 123.802 151.387 124.731 151.145 125.651C150.903 126.576 150.408 127.415 149.757 128.106C149.24 128.652 148.553 129.084 147.867 129.384C147.078 129.73 146.224 129.901 145.368 129.982C145.173 130 144.98 130.009 144.786 130.009C143.977 130.008 143.166 129.862 142.386 129.681ZM147.141 122.074C146.937 122.089 146.738 122.111 146.537 122.14C146.231 122.203 145.937 122.281 145.64 122.367C145.291 122.497 144.952 122.635 144.61 122.785C144.205 122.992 143.81 123.207 143.414 123.434C142.846 123.802 142.299 124.187 141.761 124.598C141.168 125.049 140.604 125.545 139.973 125.944C140.098 125.959 140.224 125.992 140.345 126.042C140.66 126.174 140.978 126.297 141.301 126.413C141.966 126.64 142.635 126.839 143.317 127.003C143.671 127.067 144.023 127.119 144.381 127.165C144.568 127.178 144.755 127.185 144.943 127.183C145.166 127.167 145.386 127.142 145.606 127.108C145.863 127.062 146.116 127.009 146.367 126.939C146.502 126.892 146.634 126.84 146.767 126.785C146.903 126.718 147.036 126.646 147.168 126.571C147.312 126.475 147.452 126.374 147.589 126.266C147.686 126.178 147.778 126.09 147.869 125.996C147.914 125.945 147.954 125.89 147.995 125.834C148.048 125.756 148.095 125.675 148.141 125.592C148.228 125.406 148.309 125.221 148.383 125.03C148.42 124.919 148.451 124.806 148.48 124.693C148.517 124.497 148.548 124.302 148.57 124.105C148.576 123.989 148.579 123.873 148.576 123.756C148.563 123.591 148.547 123.429 148.524 123.265C148.507 123.182 148.488 123.1 148.465 123.018C148.429 122.913 148.391 122.812 148.348 122.711C148.328 122.67 148.306 122.63 148.283 122.591C148.253 122.547 148.222 122.506 148.191 122.463C148.158 122.427 148.125 122.392 148.09 122.358C148.006 122.286 147.915 122.221 147.821 122.162C147.835 122.172 147.851 122.183 147.866 122.193C147.846 122.185 147.825 122.177 147.806 122.171C147.827 122.179 147.846 122.185 147.866 122.193C147.883 122.204 147.899 122.216 147.915 122.227C147.919 122.23 147.921 122.231 147.926 122.232C147.922 122.231 147.921 122.23 147.919 122.229C147.938 122.241 147.956 122.256 147.976 122.268C147.937 122.247 147.898 122.224 147.86 122.202C147.816 122.183 147.774 122.165 147.731 122.144C147.681 122.129 147.631 122.115 147.58 122.102C147.512 122.093 147.444 122.084 147.376 122.075C147.314 122.071 147.25 122.07 147.186 122.07C147.169 122.073 147.155 122.074 147.141 122.074Z" fill="black"/>
<path d="M78.0857 66.0804C77.7108 65.973 77.4306 65.7209 77.2324 65.3922C74.1684 60.3095 71.1045 55.2282 68.0393 50.1481C64.8693 44.8902 61.6979 39.6336 58.5278 34.3757C55.6392 29.5848 52.7288 24.804 49.8606 20.0003C49.8811 20.0297 49.899 20.0604 49.9182 20.0924C49.5433 19.4592 49.6559 18.6379 50.2764 18.1888C50.8789 17.7526 51.823 17.8639 52.2465 18.5048C52.6264 19.0805 52.9642 19.6881 53.3198 20.2792C53.7138 20.9316 54.1066 21.5841 54.5006 22.2365C55.3654 23.6719 56.2315 25.1072 57.0963 26.5413C58.5803 29.0052 60.0668 31.4679 61.5521 33.9318C64.8027 39.3215 68.0522 44.7111 71.3028 50.1008C74.1096 54.7523 76.9125 59.4038 79.7167 64.0553C80.1146 64.7141 79.7935 65.6161 79.1423 65.9666C78.9364 66.0766 78.7048 66.1329 78.472 66.1329C78.3428 66.1329 78.2136 66.115 78.0857 66.0804Z" fill="black"/>
<path d="M108.33 69.6986C107.641 69.3698 107.33 68.5075 107.665 67.8167C110.28 62.4309 112.887 57.0412 115.495 51.6541C118.279 45.905 121.067 40.1584 123.852 34.4093C126.499 28.9441 129.147 23.4803 131.795 18.0151C132.388 16.787 132.985 15.5589 133.579 14.332C133.915 13.6399 134.764 13.3342 135.461 13.6668C136.151 13.9969 136.46 14.8578 136.127 15.5499C133.65 20.6594 131.174 25.7702 128.698 30.8822C125.92 36.6186 123.14 42.3524 120.362 48.0875C117.694 53.5935 115.027 59.0996 112.359 64.6057C111.643 66.082 110.93 67.5609 110.213 69.0372C109.97 69.5386 109.457 69.8367 108.927 69.8367C108.725 69.8342 108.522 69.7907 108.33 69.6986Z" fill="black"/>
<path d="M39.3196 24.9938C38.8757 24.3887 38.9909 23.4573 39.6254 23.0224C40.8535 22.178 42.1047 21.3516 43.3865 20.5892C44.7144 19.7986 46.082 19.0821 47.47 18.4016C50.2179 17.0545 53.104 15.999 55.9556 14.8937C58.724 13.8204 61.5435 12.82 64.4271 12.0985C67.3925 11.3565 70.3783 10.6874 73.3565 10.0004C74.8904 9.64607 76.4255 9.29043 77.9697 8.98085C79.5752 8.65846 81.1858 8.38086 82.8003 8.1186C84.3175 7.8717 85.8424 7.67085 87.3661 7.46232C88.9306 7.24996 90.5029 7.10156 92.0738 6.94933C93.5565 6.80605 95.0456 6.73952 96.5322 6.68068C98.0341 6.62055 99.5385 6.60519 101.042 6.63462C102.546 6.66276 104.051 6.69859 105.551 6.79837C106.379 6.85338 107.212 6.88664 108.037 6.96212C108.918 7.04399 109.8 7.12587 110.682 7.20519C111.409 7.27299 112.132 7.37661 112.855 7.46872C113.528 7.55443 114.19 7.64782 114.858 7.7668C115.585 7.89728 116.315 8.00858 117.035 8.16849C117.886 8.35911 118.743 8.53181 119.589 8.74162C122.538 9.47465 125.488 10.209 128.419 11.0111C129.869 11.4089 131.321 11.8081 132.753 12.2725C134.236 12.7535 135.702 13.2716 137.164 13.8127C137.88 14.0788 138.593 14.3641 139.29 14.6775C139.625 14.8285 139.976 14.9628 140.301 15.1355C140.679 15.3338 141.057 15.5334 141.435 15.7317C142.116 16.0899 142.752 16.53 143.388 16.9585C143.691 17.1632 143.988 17.3896 144.269 17.6238C144.53 17.8425 144.799 18.06 145.03 18.3094C145.555 18.8723 145.542 19.7704 144.982 20.3039C144.429 20.8297 143.51 20.8169 142.987 20.254C142.962 20.2271 142.935 20.2002 142.909 20.1734C142.557 19.8612 142.188 19.5772 141.811 19.2945C141.565 19.1244 141.32 18.9465 141.063 18.7917C140.748 18.6024 140.435 18.4118 140.122 18.2225C139.808 18.0587 139.496 17.8937 139.184 17.7299C138.878 17.57 138.554 17.4408 138.241 17.3001C137.573 16.9982 136.891 16.7346 136.209 16.4634C134.791 15.9389 133.367 15.4374 131.928 14.9705C130.459 14.4946 128.97 14.0865 127.481 13.6784C124.622 12.8955 121.744 12.1791 118.867 11.4652C118.133 11.3002 117.399 11.1365 116.666 10.9727C116.043 10.8345 115.413 10.7309 114.786 10.6196C114.193 10.5134 113.606 10.4073 113.008 10.3305C112.244 10.2307 111.481 10.1348 110.716 10.0363C108.616 9.84181 106.517 9.65503 104.411 9.5642C103.169 9.51047 101.931 9.47209 100.689 9.44778C99.6383 9.4286 98.5893 9.44651 97.539 9.45674C96.8405 9.48488 96.142 9.51303 95.4435 9.54118C94.8269 9.56548 94.2103 9.61793 93.5949 9.66271C92.3489 9.7497 91.1041 9.8546 89.8645 10.003C87.0833 10.3356 84.3149 10.7258 81.5491 11.1736C80.1419 11.4268 78.7359 11.6814 77.3402 11.9897C75.7629 12.3377 74.1893 12.701 72.6158 13.0682C69.6044 13.7718 66.5788 14.4191 63.5993 15.2494C62.9571 15.4272 62.3213 15.6293 61.6868 15.8263C59.5964 16.5364 57.5291 17.3014 55.4733 18.106C54.3795 18.5333 53.2806 18.9542 52.1919 19.3994C51.1505 19.8254 50.1194 20.2744 49.096 20.7414C48.1199 21.2224 47.1502 21.7175 46.1907 22.233C45.3029 22.7077 44.4483 23.2398 43.5989 23.7771C42.8223 24.2748 42.0509 24.7763 41.2936 25.2982C41.0377 25.4748 40.7422 25.5618 40.4505 25.5618C40.0194 25.5605 39.5972 25.3699 39.3196 24.9938Z" fill="black"/>
<path d="M50.0633 22.4144C49.3853 22.289 48.6689 21.8694 48.2339 21.3334C48.0062 21.0506 47.8271 20.7628 47.6659 20.4379C47.5073 20.118 47.4357 19.7483 47.3858 19.3978C47.2783 18.6584 47.451 17.9138 47.7324 17.2345C48.0075 16.5718 48.4169 15.9271 48.8838 15.3821C49.1448 15.0789 49.4224 14.8026 49.732 14.548C50.007 14.3216 50.3179 14.154 50.6339 13.9953C51.1072 13.7561 51.6432 13.7203 52.1614 13.7599C52.7716 13.8086 53.2667 14.264 53.4112 14.832C53.6773 14.8729 53.9306 14.9279 54.1814 15.0354C54.505 15.1736 54.7724 15.3744 55.0244 15.6188C55.499 16.0755 55.7946 16.7829 55.8432 17.4354C55.8943 18.1287 55.7728 18.7824 55.5067 19.4234C55.2176 20.1206 54.7596 20.7935 54.1826 21.286C53.6146 21.7709 52.9865 22.1048 52.2752 22.3261C51.871 22.4515 51.4526 22.5065 51.0356 22.5065C50.7106 22.5078 50.3844 22.4745 50.0633 22.4144ZM53.007 17.6643C52.9584 17.6887 52.9097 17.7117 52.8611 17.736C52.8048 17.7692 52.7498 17.8025 52.6948 17.8383C52.5643 17.9394 52.439 18.043 52.3149 18.1518C52.1895 18.2758 52.068 18.4025 51.9528 18.5368C52.0744 18.7952 52.1179 19.0805 52.0833 19.353C52.1051 19.3389 52.1281 19.3249 52.1498 19.3082C52.2202 19.2545 52.2893 19.1982 52.3545 19.1394C52.4121 19.0831 52.4684 19.0242 52.5209 18.9628C52.6078 18.8477 52.691 18.7313 52.7703 18.6097C52.8176 18.5266 52.8624 18.4396 52.9021 18.3526C52.9353 18.2695 52.966 18.1876 52.9929 18.1019C53.0095 18.0379 53.0236 17.9752 53.0364 17.91C53.0402 17.8742 53.0428 17.8371 53.0453 17.8C53.0428 17.7641 53.0402 17.7283 53.0377 17.6925C53.0338 17.681 53.0326 17.6682 53.03 17.6567C53.021 17.6592 53.0134 17.6618 53.007 17.6643Z" fill="black"/>
<path d="M134.425 18.2019C133.6 17.8949 132.885 17.268 132.373 16.5644C131.927 15.9517 131.574 15.1751 131.551 14.405C131.529 13.6515 131.678 12.9594 132.059 12.307C132.473 11.5969 133.123 11.0353 133.847 10.6567C135.061 10.0234 136.502 9.80849 137.817 10.2511C138.468 10.4712 138.84 11.1709 138.728 11.8259C139.086 12.1445 139.379 12.5449 139.571 12.9556C139.761 13.3636 139.888 13.7743 139.949 14.2195C140.008 14.6532 139.96 15.0792 139.873 15.5052C139.788 15.9133 139.595 16.3099 139.379 16.6617C139.184 16.9789 138.953 17.2744 138.678 17.5252C137.95 18.1853 136.997 18.4923 136.036 18.4923C135.489 18.4923 134.938 18.3938 134.425 18.2019ZM135.752 15.6613C135.821 15.6689 135.892 15.6753 135.962 15.6792C136.018 15.6766 136.076 15.6741 136.132 15.6728C136.236 15.6587 136.337 15.6408 136.439 15.6203C136.479 15.6088 136.518 15.596 136.559 15.5832C136.58 15.573 136.603 15.564 136.623 15.5538C136.657 15.5333 136.69 15.5129 136.723 15.4924C136.738 15.4796 136.755 15.4655 136.77 15.4527C136.796 15.4259 136.822 15.399 136.847 15.3709C136.898 15.3018 136.948 15.2327 136.996 15.1611C137.016 15.1227 137.038 15.083 137.058 15.0446C137.048 15.0664 137.038 15.0881 137.029 15.1112C137.033 15.1048 137.038 15.0984 137.042 15.0907C137.07 15.0242 137.095 14.9576 137.118 14.8886C137.129 14.8438 137.138 14.7977 137.145 14.753C137.149 14.7248 137.15 14.6954 137.153 14.6672C137.152 14.6353 137.152 14.6033 137.15 14.57C137.145 14.5329 137.139 14.4958 137.135 14.4587C137.149 14.5176 137.163 14.5751 137.177 14.634C137.157 14.5304 137.13 14.428 137.097 14.327L137.094 14.3231C137.011 14.4728 136.914 14.6135 136.791 14.7466C136.552 15.005 136.222 15.2033 135.888 15.3069C135.625 15.3888 135.343 15.4003 135.073 15.3517C135.13 15.3952 135.189 15.4361 135.248 15.4758C135.299 15.5052 135.35 15.5321 135.403 15.5589C135.469 15.5832 135.533 15.6075 135.599 15.6306C135.565 15.6216 135.532 15.6114 135.5 15.6037C135.483 15.5973 135.468 15.5896 135.453 15.5832C135.467 15.5896 135.481 15.596 135.496 15.6024C135.471 15.596 135.446 15.5883 135.421 15.5807C135.449 15.5909 135.48 15.5998 135.508 15.6075C135.522 15.6126 135.535 15.619 135.55 15.6254C135.537 15.6203 135.524 15.6139 135.512 15.6088C135.592 15.628 135.671 15.6459 135.752 15.6613Z" fill="black"/>
<path d="M28.904 57.1768C28.1441 55.8566 27.3791 54.5376 26.6332 53.2084C25.8631 51.837 25.0776 50.4707 24.3407 49.0802C23.7548 47.9748 23.1625 46.8708 22.6009 45.7502C21.9549 44.4568 21.3203 43.1609 20.696 41.8573C19.6163 39.5942 18.543 37.3273 17.453 35.0681C16.807 33.7862 16.1635 32.5018 15.4996 31.2289C14.7013 29.704 13.9004 28.1816 13.0919 26.6605C11.7231 24.0777 10.3402 21.5024 8.99434 18.908C8.27666 17.5264 7.56793 16.1396 6.86304 14.7516C6.46134 13.961 6.05966 13.173 5.649 12.3888C5.47374 12.0536 5.29591 11.7197 5.11809 11.3845C4.95562 11.0813 4.78163 10.7845 4.69336 10.466C4.83792 10.379 4.98375 10.2946 5.12831 10.2076C5.76796 9.83017 6.41528 9.46941 7.06644 9.11377C7.19437 9.25193 7.29289 9.41696 7.35814 9.59734C7.35302 9.57687 7.34662 9.5564 7.34151 9.53593C7.35174 9.56536 7.36196 9.59606 7.37604 9.62421C7.39778 9.68049 7.42593 9.73294 7.45664 9.78667C7.42977 9.73166 7.4029 9.67794 7.37604 9.62421C8.87153 12.4233 10.2826 15.2697 11.7448 18.0867C13.1111 20.7195 14.5209 23.3318 15.9128 25.9544C16.7008 27.4396 17.4812 28.93 18.259 30.4204C18.8922 31.6344 19.5178 32.8574 20.1114 34.0894C21.479 36.9243 22.8222 39.7669 24.1796 42.6057C24.8717 43.986 25.5637 45.3638 26.2865 46.7263C26.9543 47.9864 27.6413 49.2375 28.3398 50.481C29.875 53.2161 31.4498 55.9308 33.0105 58.6544C33.8114 60.0475 34.6084 61.4445 35.3977 62.8428C35.3158 62.8863 35.2352 62.9285 35.1533 62.972C35.1149 62.9925 35.0766 63.0142 35.0369 63.0334C34.5111 63.3084 33.9802 63.5694 33.448 63.8304C33.2561 63.9251 33.063 64.0172 32.8685 64.1042C31.5585 61.7899 30.2332 59.4821 28.904 57.1768Z" fill="black"/>
<path d="M43.6192 57.7347C42.2964 55.0827 40.9672 52.4333 39.6137 49.798C38.2551 47.1486 36.8594 44.5145 35.3806 41.9265C33.8147 39.185 32.2693 36.4332 30.7585 33.6584C29.2834 30.9501 27.8468 28.224 26.3948 25.5016C24.9415 22.7793 23.5253 20.0352 22.1079 17.2924C21.4132 15.9492 20.7019 14.6174 19.9753 13.2908C19.241 11.9488 18.4517 10.6363 17.6457 9.3365C17.1813 8.58811 16.7003 7.84996 16.2167 7.11052C15.7332 6.41331 15.2458 5.72377 14.7148 5.0611C15.5413 4.62486 16.369 4.18734 17.1954 3.74982C17.2146 3.73959 17.2312 3.73063 17.2504 3.72168C18.0551 4.76942 18.7728 5.87345 19.4943 6.98004C20.3489 8.29131 21.1343 9.6448 21.9262 10.9945C22.6964 12.3096 23.3936 13.672 24.101 15.0204C24.7995 16.3521 25.4852 17.6903 26.176 19.0271C27.5909 21.7712 29.0557 24.4923 30.5039 27.221C31.9495 29.9485 33.422 32.6606 34.9059 35.3675C36.3387 37.9811 37.8713 40.5397 39.2952 43.1584C40.76 45.8514 42.1685 48.5737 43.5412 51.3165C44.1181 52.4679 44.7002 53.6192 45.281 54.7693C45.6443 55.4883 46.0102 56.206 46.3633 56.9288C45.6302 57.2639 44.901 57.6068 44.1718 57.9522C44.0529 58.0123 43.9326 58.0737 43.8149 58.1351C43.751 57.9995 43.6844 57.8665 43.6192 57.7347Z" fill="black"/>
<path d="M5.6451 12.3903C5.46983 12.0551 5.292 11.7212 5.11418 11.3873C4.95171 11.0828 4.77772 10.7873 4.68945 10.4675C4.83401 10.3818 4.97985 10.2961 5.12441 10.2091C6.50988 9.39291 7.93247 8.64452 9.35248 7.89357C11.9674 6.51194 14.5809 5.13158 17.1933 3.7461C17.2125 3.73715 17.2304 3.72691 17.247 3.71924C17.8239 4.47018 18.3574 5.25056 18.8781 6.03988C18.1399 6.4339 17.4018 6.82792 16.6636 7.21938C15.4035 7.88718 14.1434 8.55881 12.8821 9.22276C11.5234 9.93788 10.1559 10.6428 8.80878 11.3771C8.12692 11.7494 7.44378 12.1191 6.77471 12.5118C6.50478 12.673 6.22332 12.824 5.95723 12.9928C5.85489 12.7933 5.75128 12.5924 5.6451 12.3903Z" fill="black"/>
<path d="M31.4648 61.6386C32.0636 61.3853 32.6444 61.0923 33.2264 60.8006C34.3931 60.1904 35.5599 59.57 36.7023 58.9098C37.9752 58.173 39.2429 57.4259 40.5184 56.6928C41.6518 56.0404 42.8262 55.4532 44.0147 54.9057C44.3767 54.7394 44.7362 54.573 45.0996 54.4067C45.1597 54.527 45.2211 54.6472 45.2812 54.7675C45.6433 55.4865 46.0104 56.2041 46.3635 56.9282C45.6305 57.2621 44.9013 57.605 44.1721 57.9517C43.2011 58.4442 42.2416 58.9585 41.2962 59.5022C40.2715 60.0919 39.2545 60.697 38.2285 61.2893C37.2153 61.8752 36.188 62.4356 35.1518 62.9767C35.1134 62.9972 35.0737 63.0189 35.0354 63.0381C34.5083 63.3132 33.9774 63.5742 33.4465 63.8351C33.2546 63.9298 33.0627 64.0219 32.867 64.1089C32.4026 63.2825 31.9343 62.4612 31.4648 61.6386Z" fill="black"/>
<path d="M18.4707 10.6834C18.6472 10.5747 18.8519 10.5069 19.0438 10.4327C19.2575 10.3508 19.4711 10.2715 19.686 10.1896C20.2016 9.99002 20.7184 9.78789 21.2327 9.5832C22.3278 9.15208 23.419 8.72096 24.5064 8.27704C26.5546 7.44038 28.5451 6.47324 30.6035 5.66473C30.7596 5.60332 30.9208 5.57006 31.082 5.56494C31.2739 5.9692 31.4658 6.37346 31.6589 6.77771C31.8444 7.14871 32.0287 7.52226 32.2116 7.89453C32.1029 8.02502 31.9685 8.13376 31.8137 8.21436C31.7728 8.23482 31.7319 8.25402 31.6896 8.27065C29.7003 9.05358 27.7789 9.99002 25.8011 10.7985C24.7162 11.2412 23.6301 11.6748 22.5401 12.1021C22.0988 12.2774 21.6587 12.4514 21.2148 12.6241C20.9653 12.72 20.7172 12.8198 20.4664 12.9132C20.2758 12.9874 20.0788 13.0526 19.8882 13.132C19.4327 12.3043 18.9568 11.4893 18.4707 10.6834Z" fill="black"/>
<path d="M40.6289 51.7843C40.7376 51.7178 40.8464 51.6462 40.9538 51.5745C41.7317 51.0462 42.5107 50.5179 43.3052 50.0113C44.1303 49.4855 44.9632 48.9712 45.796 48.4582C47.4834 47.4194 49.1618 46.3691 50.8709 45.3661C51.2573 45.1371 51.7191 45.1282 52.1106 45.2881C52.3946 45.8126 52.676 46.3384 52.9511 46.868C52.8717 47.2505 52.6363 47.6011 52.2794 47.8109C50.917 48.613 49.5737 49.4445 48.2279 50.2748C46.8987 51.0935 45.5721 51.9136 44.2544 52.7515C43.7619 53.0816 43.2706 53.409 42.7794 53.7417C42.5184 53.9195 42.2575 54.1024 41.9862 54.2598C41.9581 54.2751 41.9299 54.2918 41.9018 54.3084C41.4809 53.4641 41.0549 52.6223 40.6289 51.7843Z" fill="black"/>
<path d="M50.6173 48.4841C49.2382 45.8398 47.744 43.2633 46.2702 40.6701C44.744 37.9849 43.3125 35.2434 41.8375 32.53C40.4405 29.9612 39.0384 27.3949 37.6926 24.7992C36.206 21.9311 34.7387 19.0552 33.2662 16.1806C31.8795 13.4711 30.4902 10.7615 29.1405 8.03281C28.9 7.54924 28.6646 7.06055 28.4395 6.5693C29.0574 6.29937 29.6778 6.03456 30.3034 5.78254C30.2688 5.82348 30.2305 5.86186 30.1908 5.89768C30.2113 5.88105 30.2305 5.86313 30.2497 5.84778C30.2701 5.82475 30.2906 5.803 30.3111 5.77998C30.4083 5.74032 30.5068 5.70194 30.6053 5.66356C30.7614 5.60216 30.9226 5.5689 31.0825 5.5625C31.2744 5.96804 31.4676 6.37101 31.6595 6.77655C31.9972 7.45713 32.3336 8.13771 32.6688 8.8183C34.0453 11.5905 35.4858 14.3321 36.8956 17.0877C38.2567 19.7511 39.6179 22.4133 41.0162 25.0564C42.4285 27.7263 43.878 30.3769 45.3197 33.0315C46.7717 35.7014 48.1994 38.3828 49.7154 41.0168C50.8271 42.9486 51.9183 44.8918 52.952 46.8683C52.8727 47.2508 52.6373 47.6014 52.2804 47.8112C51.775 48.1092 51.2723 48.4111 50.7708 48.7143C50.712 48.644 50.6595 48.5685 50.6173 48.4841Z" fill="black"/>
<path d="M0.631975 21.9299C0.500208 21.6152 0.38379 21.2953 0.263536 20.9768C0.177823 20.7516 0.0818748 20.5226 0 20.2873C0.333895 20.1043 0.675469 19.929 1.00936 19.7499C2.10444 19.1627 3.188 18.5538 4.25749 17.9218C6.15212 16.805 8.02372 15.6485 9.90812 14.5164C10.3354 15.3569 10.764 16.1961 11.1951 17.0353C9.44503 18.083 7.70263 19.1448 5.95384 20.1964C4.98158 20.7823 3.99396 21.3427 2.99483 21.8825C2.34495 22.233 1.69507 22.581 1.05542 22.9469C0.9147 22.6079 0.772697 22.2702 0.631975 21.9299Z" fill="black"/>
<path d="M20.6992 61.3525C20.8092 61.2603 20.9346 61.1836 21.0676 61.1196C21.1009 61.103 21.1329 61.0876 21.1661 61.0723C22.645 60.3277 24.1584 59.674 25.7064 59.0779C27.184 58.5111 28.6551 57.947 30.079 57.2574C30.6099 56.9824 31.1331 56.6958 31.6448 56.385C31.6602 56.376 31.6755 56.3671 31.6922 56.3594C32.1322 57.1244 32.5723 57.8907 33.0111 58.657C33.038 58.7056 33.0674 58.7555 33.0943 58.8041C33.0828 58.8131 33.0674 58.822 33.0546 58.8297C32.6222 59.0907 32.1834 59.335 31.7382 59.5666C30.5267 60.196 29.2705 60.7294 27.9937 61.2194C26.2501 61.891 24.5179 62.5691 22.8369 63.3814C22.6552 63.4735 22.4749 63.5631 22.2919 63.6526C21.7585 62.8889 21.225 62.1226 20.6992 61.3525Z" fill="black"/>
<path d="M20.1585 60.5591C19.2988 59.2823 18.4801 57.9826 17.6703 56.6726C16.9168 55.4521 16.1952 54.2048 15.5236 52.937C13.4217 48.9763 11.568 44.8877 9.60433 40.8592C8.24444 38.1701 6.86537 35.4887 5.57072 32.7664C4.20955 29.9059 2.85862 27.0416 1.57805 24.1427C1.25438 23.4097 0.942238 22.6728 0.633928 21.9321C0.502161 21.6187 0.385743 21.2976 0.265489 20.979C0.179777 20.7539 0.0838279 20.5236 0.00195312 20.2882C0.335849 20.1053 0.677422 19.9313 1.01132 19.7509C1.52815 19.4733 2.04242 19.1918 2.55286 18.9053C2.56821 18.9628 2.57973 19.023 2.58741 19.0857C2.58741 19.0805 2.58741 19.0767 2.58741 19.0716L2.58997 19.078C2.61811 19.1906 2.65392 19.3031 2.69102 19.4131C3.14134 20.695 3.6876 21.9398 4.23642 23.1832C4.75198 24.3487 5.27648 25.5115 5.81506 26.668C7.01248 29.2407 8.23164 31.8005 9.4764 34.3527C10.684 36.745 11.8968 39.136 13.0712 41.5475C14.2008 43.8668 15.2985 46.2028 16.4255 48.5273C16.849 49.3755 17.2737 50.2236 17.7189 51.0603C18.1884 51.9469 18.6809 52.8168 19.1747 53.688C20.1713 55.4444 21.2779 57.1433 22.387 58.8282C23.2122 60.0473 24.0552 61.2524 24.8996 62.4601C24.2062 62.7518 23.5179 63.0588 22.8399 63.3876C22.6582 63.4797 22.4766 63.5692 22.2949 63.6588C21.576 62.6264 20.8596 61.5978 20.1585 60.5591Z" fill="black"/>
<path d="M145.685 21.5791C144.926 21.0572 144.155 20.5557 143.379 20.058C142.53 19.5207 141.674 18.9886 140.787 18.5139C139.828 17.9997 138.858 17.5046 137.882 17.0223C137.822 16.9954 137.759 16.9673 137.699 16.9391L137.749 16.7869L137.983 16.1025L138.23 15.4193L138.489 14.7362L138.669 14.2808C138.95 14.4112 139.229 14.5456 139.508 14.6812C140.896 15.3618 142.264 16.0782 143.592 16.8688C144.873 17.6312 146.125 18.4576 147.353 19.302C147.986 19.7369 148.102 20.6683 147.658 21.2734C147.382 21.6508 146.959 21.8414 146.529 21.8414C146.236 21.8427 145.94 21.7557 145.685 21.5791Z" fill="black"/>
<path d="M137.313 18.1609L137.524 17.4726L137.746 16.7882L137.98 16.1038L138.227 15.4207L138.486 14.7375L138.754 14.0582L139.029 13.3994L139.11 13.219C139.157 13.3188 139.202 13.4173 139.243 13.5171C139.526 14.1977 139.697 14.9409 139.59 15.6803C139.54 16.0309 139.468 16.4019 139.31 16.7204C139.148 17.0454 138.971 17.3345 138.742 17.6159C138.363 18.0841 137.768 18.4641 137.172 18.6355L137.313 18.1609Z" fill="black"/>
<path d="M153.53 60.1155C152.999 59.8545 152.467 59.5935 151.941 59.3198C151.902 59.2993 151.863 59.2788 151.824 59.2584C151.743 59.2149 151.661 59.1739 151.58 59.1292C152.372 57.7309 153.168 56.3326 153.967 54.9408C155.529 52.2184 157.103 49.5038 158.639 46.7674C159.338 45.5226 160.025 44.2727 160.692 43.0126C161.414 41.6489 162.107 40.2724 162.798 38.8908C164.156 36.0533 165.5 33.2107 166.866 30.3758C167.46 29.1438 168.086 27.9195 168.719 26.7068C169.498 25.2164 170.278 23.726 171.065 22.2395C172.456 19.6169 173.865 17.0059 175.233 14.3731C176.695 11.5561 178.106 8.70968 179.602 5.9093C179.575 5.96303 179.549 6.01676 179.521 6.07177C179.552 6.01932 179.581 5.96559 179.602 5.9093C179.615 5.88116 179.626 5.85173 179.638 5.82231C179.631 5.84278 179.626 5.86197 179.62 5.88244C179.685 5.70334 179.783 5.53703 179.911 5.40015C180.561 5.75451 181.21 6.11527 181.848 6.49266C181.994 6.57837 182.14 6.66409 182.284 6.75108C182.195 7.0709 182.022 7.36642 181.86 7.67089C181.682 8.00606 181.505 8.33868 181.329 8.67385C180.919 9.45934 180.516 10.2474 180.115 11.038C179.41 12.426 178.701 13.8128 177.982 15.1944C176.636 17.7875 175.253 20.3628 173.885 22.9456C173.077 24.4667 172.275 25.9891 171.478 27.5153C170.813 28.7882 170.169 30.0726 169.523 31.3532C168.436 33.6124 167.36 35.8793 166.28 38.1424C165.656 39.446 165.023 40.7432 164.376 42.0353C163.814 43.1546 163.222 44.2587 162.636 45.3653C161.899 46.7546 161.113 48.1221 160.343 49.4935C159.597 50.8227 158.834 52.1417 158.072 53.4606C156.743 55.7659 155.418 58.0738 154.109 60.3906C153.913 60.3023 153.72 60.2102 153.53 60.1155Z" fill="black"/>
<path d="M142.807 54.2318C142.077 53.8864 141.348 53.5435 140.615 53.2084C140.968 52.4855 141.335 51.7679 141.698 51.0476C142.28 49.8975 142.86 48.7475 143.439 47.5948C144.811 44.8533 146.22 42.1297 147.685 39.438C149.108 36.8193 150.64 34.2595 152.073 31.6459C153.557 28.9389 155.03 26.2268 156.476 23.5006C157.922 20.7719 159.388 18.0508 160.804 15.3067C161.493 13.9699 162.18 12.6317 162.879 11.2987C163.586 9.95034 164.283 8.58789 165.054 7.27278C165.844 5.92184 166.631 4.56963 167.484 3.25708C168.207 2.15049 168.925 1.04646 169.729 0C169.749 0.00895505 169.765 0.0191886 169.784 0.0281436C170.61 0.465662 171.437 0.903177 172.264 1.33942C171.733 2.00209 171.247 2.69163 170.762 3.38885C170.279 4.127 169.798 4.86643 169.334 5.61482C168.527 6.91586 167.739 8.22713 167.004 9.56911C166.278 10.8957 165.567 12.2275 164.872 13.5707C163.454 16.3135 162.038 19.0576 160.585 21.78C159.133 24.4997 157.695 27.2285 156.221 29.9367C154.712 32.7115 153.166 35.462 151.599 38.2048C150.123 40.7903 148.727 43.4256 147.366 46.0763C146.013 48.7116 144.683 51.3611 143.362 54.013C143.297 54.1448 143.23 54.2791 143.166 54.4109C143.045 54.3533 142.926 54.2919 142.807 54.2318Z" fill="black"/>
<path d="M180.2 8.79502C179.531 8.401 178.848 8.03256 178.166 7.66029C176.819 6.9247 175.453 6.22108 174.093 5.50596C172.832 4.84073 171.572 4.1691 170.31 3.50131C169.573 3.10984 168.834 2.7171 168.096 2.32308C168.618 1.53247 169.151 0.752107 169.727 0.00244141C169.746 0.0113965 169.764 0.02163 169.782 0.030585C172.393 1.41478 175.008 2.79514 177.621 4.17678C179.043 4.929 180.464 5.67738 181.849 6.49229C181.995 6.57801 182.141 6.66372 182.286 6.75071C182.196 7.07054 182.023 7.36605 181.861 7.67052C181.683 8.0057 181.507 8.33832 181.33 8.67349C181.225 8.87562 181.121 9.07647 181.018 9.27732C180.752 9.10717 180.472 8.95621 180.2 8.79502Z" fill="black"/>
<path d="M153.532 60.1153C153.001 59.8544 152.47 59.5934 151.943 59.3196C151.905 59.2991 151.865 59.2787 151.827 59.2582C150.791 58.7158 149.763 58.1555 148.75 57.5708C147.726 56.9772 146.707 56.3721 145.683 55.7836C144.738 55.2399 143.778 54.7244 142.807 54.2319C142.077 53.8865 141.348 53.5436 140.615 53.2084C140.968 52.4856 141.335 51.768 141.698 51.0477C141.758 50.9287 141.819 50.8072 141.879 50.6882C142.243 50.8533 142.602 51.0196 142.964 51.1872C144.152 51.7334 145.327 52.3219 146.46 52.9743C147.736 53.7086 149.004 54.4557 150.276 55.1926C151.419 55.8527 152.586 56.4719 153.752 57.0834C154.334 57.3738 154.915 57.6681 155.514 57.9214C155.044 58.7427 154.577 59.5652 154.112 60.3878C153.915 60.3021 153.723 60.21 153.532 60.1153Z" fill="black"/>
<path d="M166.512 9.19298C166.261 9.0996 166.012 9.00109 165.762 8.90387C165.321 8.73244 164.88 8.55718 164.438 8.38319C163.348 7.95463 162.261 7.52095 161.177 7.07831C159.2 6.2698 157.277 5.33336 155.288 4.55043C155.245 4.5338 155.204 4.51461 155.165 4.49415C155.009 4.41355 154.876 4.30481 154.766 4.17432C154.95 3.80205 155.133 3.42849 155.318 3.0575C155.511 2.65324 155.705 2.24898 155.895 1.84473C156.056 1.84984 156.218 1.88311 156.374 1.94452C158.432 2.75303 160.423 3.72145 162.47 4.55683C163.557 5.00075 164.649 5.43187 165.743 5.86299C166.259 6.0664 166.774 6.2698 167.291 6.46937C167.505 6.55253 167.72 6.63184 167.933 6.71244C168.125 6.78664 168.329 6.85316 168.507 6.96318C168.019 7.76913 167.544 8.58404 167.089 9.41047C166.898 9.33115 166.703 9.26718 166.512 9.19298Z" fill="black"/>
<path d="M144.992 50.54C144.72 50.3826 144.459 50.1984 144.199 50.0218C143.708 49.6905 143.216 49.3604 142.724 49.0317C141.408 48.1925 140.078 47.3737 138.749 46.5537C137.405 45.7234 136.06 44.8932 134.699 44.091C134.342 43.88 134.105 43.5307 134.027 43.1482C134.302 42.6199 134.584 42.0928 134.868 41.5683C135.261 41.4071 135.721 41.4173 136.107 41.645C137.815 42.6506 139.495 43.6996 141.182 44.7384C142.015 45.2514 142.848 45.7669 143.673 46.2927C144.466 46.7993 145.245 47.3264 146.025 47.8547C146.132 47.9251 146.239 47.998 146.349 48.0658C145.923 48.905 145.497 49.7455 145.075 50.586C145.047 50.5719 145.02 50.5566 144.992 50.54Z" fill="black"/>
<path d="M134.697 44.0919C134.34 43.8821 134.103 43.5316 134.025 43.1491C135.059 41.1713 136.15 39.2293 137.262 37.2976C138.778 34.6635 140.204 31.9821 141.658 29.3122C143.098 26.6564 144.548 24.007 145.96 21.3371C147.358 18.6941 148.719 16.0306 150.081 13.3684C151.489 10.6141 152.931 7.87129 154.306 5.09906C154.642 4.41848 154.979 3.7379 155.315 3.05731C155.509 2.65306 155.702 2.2488 155.892 1.84326C156.054 1.84966 156.215 1.88292 156.371 1.94433C156.469 1.98271 156.567 2.02109 156.665 2.06074C156.686 2.08377 156.706 2.1068 156.725 2.12854C156.744 2.1439 156.765 2.16181 156.785 2.17844C156.746 2.14262 156.707 2.10296 156.673 2.0633C157.298 2.31532 157.919 2.58014 158.535 2.85007C158.31 3.34132 158.076 3.83 157.836 4.3123C156.486 7.04103 155.097 9.75057 153.709 12.4614C152.236 15.336 150.769 18.2118 149.284 21.0787C147.938 23.6757 146.534 26.2419 145.139 28.8095C143.662 31.5229 142.232 34.2657 140.707 36.9509C139.233 39.5427 137.739 42.1205 136.36 44.7648C136.315 44.848 136.264 44.9235 136.204 44.9925C135.705 44.6906 135.202 44.39 134.697 44.0919Z" fill="black"/>
<path d="M183.98 18.1633C182.981 17.6234 181.995 17.0631 181.021 16.4785C179.274 15.4256 177.531 14.3651 175.781 13.316C176.212 12.4768 176.64 11.6376 177.068 10.7971C178.953 11.9293 180.824 13.0858 182.718 14.2026C183.788 14.8346 184.871 15.4422 185.967 16.0294C186.3 16.2085 186.641 16.3838 186.976 16.5667C186.893 16.8021 186.798 17.0324 186.713 17.2575C186.591 17.5748 186.475 17.8959 186.343 18.2106C186.202 18.5484 186.062 18.8874 185.917 19.2264C185.279 18.8631 184.63 18.5151 183.98 18.1633Z" fill="black"/>
<path d="M164.14 59.6662C162.459 58.8526 160.728 58.1733 158.983 57.5042C157.707 57.0142 156.45 56.4808 155.239 55.8501C154.795 55.6185 154.355 55.3742 153.922 55.1132C153.91 55.1055 153.896 55.0966 153.883 55.0863C153.911 55.0377 153.939 54.9878 153.967 54.9392C154.406 54.1729 154.846 53.4066 155.286 52.6416C155.303 52.6493 155.318 52.6582 155.334 52.6672C155.847 52.9755 156.37 53.2633 156.899 53.5384C158.323 54.2292 159.794 54.7934 161.272 55.3601C162.82 55.955 164.333 56.6087 165.812 57.3545C165.845 57.3699 165.877 57.3852 165.911 57.4006C166.044 57.4658 166.169 57.5426 166.279 57.6347C165.752 58.4048 165.219 59.1711 164.684 59.9361C164.501 59.8491 164.322 59.7583 164.14 59.6662Z" fill="black"/>
<path d="M164.14 59.6663C163.46 59.3375 162.773 59.0305 162.08 58.7388C162.923 57.5325 163.767 56.3274 164.593 55.1082C165.703 53.4234 166.81 51.7245 167.806 49.968C168.3 49.0968 168.793 48.2269 169.262 47.3403C169.707 46.5037 170.132 45.6555 170.557 44.8073C171.682 42.4841 172.78 40.1469 173.91 37.8288C175.084 35.4173 176.296 33.0276 177.505 30.634C178.751 28.0819 179.97 25.522 181.167 22.9481C181.704 21.7929 182.23 20.63 182.746 19.4633C183.295 18.2211 183.841 16.975 184.291 15.6945C184.328 15.5844 184.363 15.4719 184.391 15.3593C184.391 15.3555 184.394 15.3529 184.394 15.3529C184.395 15.3567 184.395 15.358 184.395 15.3606C184.402 15.3004 184.415 15.2429 184.429 15.1853C184.94 15.4719 185.454 15.7546 185.971 16.0309C186.303 16.21 186.645 16.3853 186.98 16.5682C186.897 16.8036 186.802 17.0339 186.717 17.259C186.595 17.5763 186.479 17.8974 186.347 18.2121C186.04 18.9528 185.729 19.6897 185.404 20.4227C184.122 23.3216 182.771 26.186 181.411 29.0465C180.117 31.7688 178.738 34.4502 177.378 37.1405C175.414 41.169 173.56 45.2589 171.459 49.2183C170.786 50.4848 170.065 51.7334 169.312 52.9539C168.502 54.2626 167.683 55.5636 166.824 56.8404C166.123 57.8804 165.406 58.9077 164.687 59.935C164.5 59.8493 164.321 59.7584 164.14 59.6663Z" fill="black"/>
</svg>
