<svg width="77" height="57" viewBox="0 0 77 57" fill="none" xmlns="http://www.w3.org/2000/svg">
<path d="M2.81417 55.0815C2.15135 54.6345 1.937 53.6631 2.41435 52.9988C6.20577 47.713 9.99719 42.4272 13.7901 37.1414C17.6469 31.7674 21.5007 26.3935 25.356 21.018C29.1443 15.7367 32.9342 10.4555 36.7226 5.17423C37.4493 4.16025 38.1759 3.14478 38.9041 2.13231C39.3815 1.4695 40.2951 1.26426 40.9868 1.73096C41.6481 2.17791 41.8655 3.15084 41.3881 3.81365C37.6682 8.98391 33.9588 14.1633 30.248 19.3411C26.4094 24.6969 22.5679 30.0496 18.7263 35.4038C14.9045 40.7291 11.0826 46.0544 7.26384 51.3828C6.47485 52.4834 5.68585 53.5825 4.89686 54.6816C4.59585 55.1012 4.12154 55.3369 3.63811 55.3369C3.35383 55.3353 3.06956 55.2548 2.81417 55.0815Z" fill="black"/>
<path d="M1.85453 55.8492C1.29661 55.2639 1.30571 54.2848 1.90315 53.73C6.73745 49.2408 11.5839 44.7637 16.4228 40.2791C21.2236 35.8309 26.0245 31.3828 30.8253 26.9361C35.4878 22.6187 40.1488 18.3013 44.8098 13.9808C47.4914 11.4968 50.1746 9.01126 52.8578 6.52571C53.4568 5.97083 54.4069 5.97693 54.977 6.57437C55.5364 7.15814 55.5288 8.13866 54.9283 8.69506C50.4255 12.8635 45.9256 17.0335 41.4227 21.2049C36.6827 25.5938 31.9457 29.9842 27.2072 34.373C22.4003 38.8258 17.5933 43.2785 12.7879 47.7297C9.84934 50.4539 6.90774 53.1706 3.97221 55.8963C3.68032 56.1669 3.30483 56.3052 2.93086 56.3052C2.53864 56.3067 2.14642 56.1563 1.85453 55.8492Z" fill="black"/>
<path d="M1.08929 56.1743C0.315496 55.9524 -0.180087 55.0996 0.0616273 54.3182C0.947914 51.4419 2.11697 48.6645 3.24041 45.8749C4.41857 42.9515 5.62413 40.0372 6.78862 37.1063C9.18144 31.0801 11.3113 24.9521 13.6038 18.8865C14.7819 15.767 16.0209 12.6764 17.4012 9.63898C17.7509 8.87127 18.1234 8.12029 18.4989 7.36626C18.6478 7.06982 18.8044 6.7825 18.9686 6.49518C19.1708 6.14249 19.3593 5.77763 19.5843 5.43862C19.8199 5.08593 20.0555 4.73326 20.2912 4.38057C20.5663 3.96859 20.8856 3.58245 21.1835 3.1872C21.6715 2.5411 22.2173 1.93451 22.833 1.40699C23.5916 0.757859 24.4581 0.312465 25.4371 0.107236C26.3325 -0.0797509 27.2735 0.0235942 28.1811 0.0768018C28.8348 0.114807 29.49 0.154362 30.1437 0.192368C31.3203 0.260777 32.497 0.323114 33.6737 0.390003C34.8214 0.453852 35.9707 0.52377 37.12 0.538972C37.8117 0.546573 38.5049 0.53442 39.1951 0.566344C39.6861 0.589148 40.1711 0.712247 40.5207 1.07862C40.7989 1.37202 40.9372 1.75667 40.9372 2.15801C40.9372 2.97436 40.206 3.64019 39.4033 3.62195C39.2665 3.61891 39.1358 3.59765 39.0126 3.55964C38.5003 3.53988 37.9865 3.54749 37.4727 3.54141C36.8919 3.53381 36.3128 3.51553 35.732 3.49729C34.7332 3.46385 33.7345 3.39544 32.7357 3.34071C31.8251 3.28903 30.916 3.23888 30.0069 3.1872C29.4337 3.15375 28.8621 3.1203 28.2905 3.08838C27.6444 3.05037 26.9984 2.99867 26.3507 3.01387C26.2474 3.01995 26.144 3.03058 26.0406 3.04426C25.9418 3.06402 25.843 3.08839 25.7457 3.11575C25.6712 3.14007 25.5968 3.16895 25.5238 3.19935C25.425 3.24648 25.3292 3.29967 25.2349 3.3544C25.089 3.45169 24.9491 3.55354 24.8093 3.66148C24.6147 3.83326 24.4307 4.00963 24.2483 4.19509C23.7269 4.78646 23.2602 5.41736 22.7843 6.04521C22.5472 6.39942 22.31 6.75211 22.0744 7.10632C21.93 7.32371 21.8114 7.56387 21.6837 7.78886C21.5591 8.00625 21.4359 8.22366 21.3112 8.43953C21.0102 9.04001 20.6971 9.63747 20.4174 10.2501C20.0738 11.0026 19.7257 11.7551 19.3973 12.5152C18.7497 14.0218 18.1112 15.5314 17.5153 17.0592C16.2945 20.1847 15.1407 23.3346 13.9747 26.4815C12.8801 29.4353 11.8251 32.4073 10.6941 35.3489C9.52045 38.4045 8.26472 41.4267 7.04095 44.4626C6.44654 45.9387 5.84909 47.4133 5.25773 48.891C4.69677 50.2881 4.13125 51.6867 3.62046 53.1035C3.38179 53.78 3.15526 54.4611 2.94395 55.1482C2.74328 55.7958 2.1474 56.2336 1.49523 56.2336C1.36297 56.2321 1.22611 56.2139 1.08929 56.1743Z" fill="black"/>
<path d="M1.39174 56.8038C0.631634 56.5073 0.292639 55.5648 0.607324 54.8336C0.867281 54.2301 1.46168 53.9093 2.07433 53.9412C2.05305 53.9367 2.0333 53.9321 2.01202 53.9275C2.01962 53.9275 2.02567 53.9275 2.03327 53.926C1.97398 53.929 1.9132 53.9321 1.85391 53.9351C1.81591 53.9427 1.77943 53.9488 1.74294 53.9564C1.99378 53.9002 2.24003 53.8317 2.4863 53.7618C3.09895 53.5505 3.70099 53.3225 4.30603 53.0854C4.9126 52.8467 5.50394 52.5579 6.09835 52.2873C6.83565 51.9011 7.57295 51.5165 8.31177 51.1319C8.53677 51.0148 8.75263 50.8795 8.97307 50.7518C9.50514 50.4447 10.0357 50.1376 10.5678 49.8305C11.8569 49.0872 13.1324 48.3256 14.4155 47.5746C17.3845 45.837 20.3489 44.0918 23.2951 42.3131C25.9676 40.7001 28.5809 38.9914 31.223 37.3329C33.97 35.6089 36.7444 33.9306 39.4854 32.2006C41.7566 30.767 44.0156 29.3137 46.2564 27.8345C46.2017 27.871 46.147 27.906 46.0922 27.9425C48.9107 26.065 51.7231 24.183 54.5887 22.38C55.8718 21.5743 57.1761 20.802 58.4653 20.0039C59.9186 19.1024 61.3659 18.1933 62.807 17.2705C63.6538 16.7278 64.496 16.176 65.3351 15.6226C66.8356 14.6117 68.3269 13.5871 69.7863 12.5184C70.5176 11.9832 71.2427 11.442 71.9648 10.8947C72.2871 10.6515 72.6109 10.4113 72.9332 10.1681C72.9088 10.162 72.883 10.1559 72.8587 10.1498C71.6273 9.89597 70.3914 9.68923 69.1433 9.53569C67.8222 9.37455 66.4966 9.2423 65.171 9.11156C62.6398 8.86225 60.1102 8.59771 57.5775 8.38184C57.5836 8.38184 57.5896 8.38337 57.5972 8.38337C56.8098 8.31952 56.0071 8.21766 55.215 8.24503C54.3972 8.27239 53.7283 7.50316 53.742 6.71873C53.7495 6.33108 53.9122 5.95251 54.1874 5.67887C54.4823 5.38547 54.8593 5.25933 55.2682 5.24565C55.7045 5.23045 56.1439 5.26841 56.5787 5.29882C57.3114 5.35051 58.0442 5.41438 58.7754 5.47975C60.2515 5.61049 61.7246 5.76706 63.1992 5.90996C66.34 6.214 69.496 6.46331 72.6002 7.03643C72.9529 7.1018 73.3056 7.17629 73.6537 7.25838C74.353 7.42408 75.0569 7.57155 75.7167 7.86799C76.4054 8.17659 77.0119 8.87743 76.9998 9.66643C76.9922 10.0845 76.8797 10.4721 76.6668 10.8324C76.4662 11.1699 76.1682 11.4329 75.8702 11.6807C75.3214 12.1383 74.7377 12.5609 74.1676 12.9911C73.5078 13.4882 72.8481 13.9854 72.1837 14.4779C69.6814 16.3387 67.091 18.0824 64.4656 19.7652C62.3859 21.0985 60.2895 22.4028 58.1825 23.6935C56.1849 24.9142 54.2086 26.1653 52.246 27.4408C49.4823 29.2833 46.7216 31.1319 43.929 32.9303C41.1318 34.7303 38.2966 36.4709 35.4674 38.2161C32.8146 39.8519 30.2014 41.5469 27.5577 43.1979C24.7925 44.9264 22.0013 46.6092 19.1889 48.2556C16.2458 49.978 13.3118 51.7141 10.3595 53.4167C9.7408 53.774 9.10688 54.0993 8.47294 54.4307C8.14762 54.601 7.82228 54.7698 7.49544 54.94C7.05001 55.1726 6.57722 55.3611 6.11811 55.5663C5.43705 55.8734 4.74231 56.1577 4.03389 56.3994C3.62495 56.5393 3.21908 56.6716 2.80558 56.7886C2.5365 56.8646 2.27349 56.9193 2.01049 56.9193C1.80374 56.9178 1.59849 56.8844 1.39174 56.8038Z" fill="black"/>
<path d="M44.7293 15.0401C44.3401 14.9292 44.0573 14.6753 43.8384 14.3439C43.7639 14.2298 43.6925 14.1173 43.6165 14.0033C43.653 14.0581 43.6895 14.1128 43.726 14.1675C42.9035 12.927 42.1936 11.6242 41.5095 10.3031C41.0078 9.33324 40.5137 8.3603 40.0425 7.3752C39.5636 6.37642 39.1121 5.36395 38.6408 4.36061C38.6378 4.35605 38.6363 4.35148 38.6332 4.34692C38.6104 4.33172 38.5876 4.31345 38.5648 4.29673C37.9278 3.80114 37.791 2.82819 38.3033 2.19274C38.4751 1.97991 38.6834 1.82182 38.9358 1.7154C39.3477 1.54058 39.7795 1.59076 40.1838 1.75038C40.6612 1.93889 40.982 2.40102 41.2222 2.82972C41.362 3.08056 41.4806 3.35118 41.5992 3.61266C42.0035 4.5111 42.4171 5.40194 42.8412 6.29127C43.4797 7.5941 44.1379 8.8893 44.8266 10.1678C45.2553 10.9614 45.7068 11.7412 46.2054 12.4937C46.1856 12.4618 46.1644 12.4314 46.1446 12.401C46.2434 12.5515 46.3422 12.7035 46.441 12.8556C46.888 13.5397 46.5627 14.5141 45.8862 14.9018C45.6566 15.0325 45.3967 15.0994 45.1352 15.0994C44.9999 15.0979 44.8615 15.0781 44.7293 15.0401Z" fill="black"/>
<path d="M3.6607 54.0569C3.34602 53.2861 3.7337 52.4287 4.48317 52.1019C7.34269 50.8538 10.2843 49.782 13.235 48.7741C14.7537 48.2542 16.2694 47.7267 17.7744 47.1733C19.2885 46.6169 20.7905 46.0317 22.3001 45.4646C25.2615 44.3518 28.2563 43.3333 31.2177 42.225C34.2764 41.0803 37.3214 39.9082 40.3983 38.8182C42.744 37.9867 45.0836 37.146 47.3913 36.2126C48.5117 35.7596 49.626 35.2898 50.7464 34.8322C51.8394 34.3853 52.9401 33.9642 54.0224 33.4899C54.3447 33.3257 54.6579 33.1508 54.9635 32.9578C55.0501 32.897 55.1337 32.8316 55.2158 32.7632C55.2462 32.7358 55.2751 32.7069 55.304 32.6765C55.3268 32.6492 55.3496 32.6218 55.3724 32.5945C55.38 32.5838 55.3876 32.5717 55.3952 32.561C55.4013 32.5489 55.4074 32.5367 55.4119 32.5245C55.4089 32.5321 55.4074 32.5397 55.4044 32.5473L55.4058 32.5443C55.4165 32.5139 55.4241 32.482 55.4332 32.4516C55.4423 32.3984 55.4515 32.3436 55.4575 32.2889C55.4606 32.2144 55.4621 32.1399 55.4621 32.0654C55.38 30.8721 55.2219 29.6817 55.0821 28.4959C54.9316 27.2281 54.7461 25.9663 54.5545 24.7045C54.4314 23.8958 55.0821 23.1342 55.8726 23.043C56.7056 22.9457 57.4111 23.5537 57.5342 24.3609C57.782 25.9967 58.007 27.634 58.1924 29.2789C58.2791 30.0466 58.3642 30.8127 58.4326 31.582C58.504 32.377 58.4311 33.1661 58.083 33.8912C57.6771 34.738 56.9002 35.302 56.1158 35.7732C55.231 36.3053 54.2398 36.6717 53.2821 37.0532C52.5661 37.339 51.8501 37.6233 51.1371 37.9152C49.623 38.5355 48.1134 39.1679 46.5871 39.7562C45.1277 40.3187 43.6546 40.8416 42.18 41.3661C40.5625 41.9407 38.948 42.526 37.3381 43.1235C35.8057 43.6936 34.2809 44.2819 32.7501 44.855C31.2587 45.4114 29.7583 45.9404 28.2593 46.4771C25.2295 47.5595 22.2241 48.7057 19.211 49.8383C16.3089 50.9298 13.3491 51.8541 10.45 52.9501C8.82641 53.5628 7.20586 54.1876 5.61419 54.8824C5.43632 54.9599 5.24933 54.9964 5.06234 54.9964C4.46945 54.9933 3.89026 54.6224 3.6607 54.0569Z" fill="black"/>
</svg>
