<svg width="174" height="395" viewBox="0 0 174 395" fill="none" xmlns="http://www.w3.org/2000/svg">
<path d="M119.482 169.233C118.811 169.862 118.142 170.485 117.471 171.114C116.848 171.696 116.135 172.199 115.472 172.732C114.767 173.3 114.06 173.87 113.349 174.44C112.699 174.964 111.965 175.412 111.279 175.889C110.593 176.369 109.912 176.847 109.228 177.326C107.221 178.73 105.039 179.929 102.862 181.046C98.761 183.142 94.4022 184.772 89.9348 185.896C87.6992 186.459 85.4045 186.821 83.1194 187.131C80.6951 187.463 78.2517 187.608 75.8064 187.652C70.9769 187.739 66.1531 187.078 61.4627 185.959C56.8085 184.846 52.3716 182.975 48.314 180.442C44.3421 177.964 40.9916 174.655 38.1575 170.952C35.2872 167.209 33.2003 162.93 31.6279 158.499C28.4698 149.604 27.3473 139.936 28.1116 130.546C28.4241 126.673 29.0568 122.762 30.1565 119.028C30.6711 117.286 31.1228 115.52 31.767 113.819C32.3979 112.156 32.9811 110.471 33.7321 108.858C34.2028 107.843 34.6736 106.831 35.1462 105.817C35.4417 105.174 35.798 104.563 36.1373 103.941C36.65 103.005 37.1645 102.068 37.681 101.132C38.0355 100.484 38.4567 99.8683 38.8474 99.2451C39.3143 98.4999 39.7756 97.7566 40.2406 97.0133C40.7571 96.1918 41.3479 95.4067 41.8968 94.6062C42.9622 93.0605 44.0848 91.5682 45.2169 90.0702C45.5904 89.5746 45.9735 89.1039 46.3738 88.6312C47.0599 87.8269 47.7118 86.9807 48.4455 86.2202C49.0688 85.578 49.6958 84.9319 50.3171 84.2877C50.9155 83.6702 51.5617 83.108 52.1925 82.5267C53.2808 81.5299 54.4185 80.5941 55.6249 79.746C56.3949 79.2047 57.2126 78.7339 58.0436 78.288C58.2456 77.9792 58.5067 77.7105 58.8307 77.5008C64.4379 73.8796 70.1631 70.3538 76.2295 67.554C79.2332 66.1703 82.3647 65.063 85.538 64.1348C87.1503 63.6622 88.7837 63.2562 90.4399 62.9608C92.2086 62.6444 93.9677 62.4214 95.7592 62.2537C99.3232 61.9221 102.922 62.147 106.47 62.5281C109.687 62.875 112.929 63.5783 116.015 64.5522C117.749 65.1011 119.467 65.6862 121.142 66.4009C122.832 67.1232 124.445 67.958 126.034 68.8805C127.488 69.7248 128.857 70.7044 130.155 71.7736C130.98 72.454 131.74 73.2183 132.522 73.9464C133.179 74.562 133.81 75.2576 134.392 75.9494C134.904 76.5651 135.465 77.1597 135.943 77.8058C136.488 78.5491 137.067 79.2771 137.561 80.0528C137.997 80.7408 138.489 81.4155 138.87 82.1321C139.301 82.944 139.778 83.7445 140.151 84.5831C140.485 85.336 140.866 86.083 141.152 86.853C141.485 87.7583 141.853 88.656 142.141 89.5727C142.41 90.4246 142.678 91.2804 142.947 92.1323C143.485 93.84 143.833 95.6068 144.205 97.3545C144.54 98.9287 144.781 100.545 144.903 102.15C144.975 103.068 145.084 103.989 145.105 104.909C145.124 105.942 145.145 106.973 145.164 108.006C145.194 109.558 145.105 111.126 145.007 112.676C144.88 114.633 144.706 116.572 144.504 118.519C144.335 120.16 144.051 121.786 143.803 123.417C143.685 124.187 143.479 124.958 143.315 125.72C143.151 126.501 143.002 127.29 142.797 128.064C142.333 129.808 141.891 131.55 141.331 133.269C141.026 134.207 140.721 135.148 140.414 136.088C140.138 136.936 139.776 137.763 139.459 138.594C139.154 139.387 138.851 140.182 138.546 140.975C138.226 141.813 137.807 142.625 137.439 143.443C137.111 144.171 136.785 144.901 136.458 145.633C136.078 146.481 135.59 147.296 135.162 148.122C134.777 148.857 134.395 149.593 134.008 150.331C133.58 151.152 133.071 151.931 132.596 152.726C132.099 153.555 131.601 154.384 131.106 155.212C130.717 155.856 130.252 156.462 129.827 157.081C129.253 157.91 128.682 158.745 128.112 159.574C127.66 160.232 127.136 160.836 126.635 161.455C126.004 162.242 125.369 163.026 124.736 163.815C124.248 164.417 123.671 164.968 123.141 165.532C122.468 166.25 121.797 166.967 121.125 167.689C121.052 167.766 120.982 167.84 120.907 167.914C120.452 168.37 119.951 168.795 119.482 169.233ZM116.659 163.148C117.248 162.597 117.78 161.955 118.329 161.364C118.803 160.855 119.28 160.348 119.754 159.839C120.778 158.568 121.803 157.295 122.827 156.023C123.762 154.665 124.696 153.304 125.634 151.943C126.135 151.213 126.556 150.403 127.01 149.644C127.466 148.888 127.919 148.129 128.371 147.373C128.971 146.216 129.575 145.063 130.178 143.908C130.658 142.985 131.077 142.048 131.502 141.097C131.965 140.065 132.469 139.048 132.873 137.992C133.355 136.736 133.837 135.476 134.319 134.22C134.771 132.842 135.215 131.464 135.665 130.084C135.852 129.509 135.981 128.906 136.135 128.321C136.332 127.584 136.526 126.848 136.724 126.109C137.107 124.319 137.492 122.539 137.767 120.728C137.908 119.813 138.07 118.901 138.163 117.98C138.272 116.918 138.384 115.857 138.493 114.795C138.596 113.21 138.71 111.628 138.747 110.04C138.787 108.331 138.771 106.638 138.737 104.93C138.661 103.974 138.586 103.019 138.512 102.06C138.476 101.601 138.375 101.138 138.306 100.684C138.234 100.188 138.161 99.693 138.087 99.1956C137.816 97.911 137.55 96.6264 137.21 95.3571C136.86 94.0382 136.469 92.7441 136.061 91.4443C135.775 90.6781 135.489 89.9082 135.205 89.1401C134.958 88.473 134.634 87.8212 134.336 87.1732C133.982 86.5061 133.625 85.8372 133.271 85.1701C132.911 84.4897 132.44 83.8475 132.024 83.1956C132.084 83.289 132.143 83.3824 132.204 83.4738C131.727 82.8258 131.254 82.1817 130.78 81.5318C130.313 80.9009 129.762 80.3158 129.257 79.7117C129.345 79.8184 129.434 79.9194 129.52 80.0242C128.985 79.462 128.449 78.8998 127.913 78.3375C127.492 77.8934 127.023 77.4856 126.568 77.072C125.926 76.525 125.27 76.0028 124.593 75.5053C123.583 74.8154 122.539 74.2093 121.485 73.5937C120.888 73.2983 120.29 72.9972 119.693 72.7018C119.055 72.3835 118.369 72.132 117.711 71.8518C116.411 71.3791 115.112 70.9407 113.793 70.5214C112.522 70.1231 111.22 69.8277 109.92 69.5266C107.902 69.1549 105.891 68.8595 103.854 68.6365C101.936 68.5146 100.036 68.4669 98.1149 68.4898C96.9599 68.5546 95.8126 68.6384 94.6595 68.7433C93.5484 68.8481 92.443 69.0501 91.3414 69.2483C89.6051 69.6276 87.9012 70.0697 86.1954 70.5634C83.3461 71.4915 80.5731 72.557 77.8496 73.8053C73.4469 75.9933 69.2025 78.469 65.0401 81.0763C64.6646 82.0197 63.8489 82.7592 62.8292 83.0203C62.6577 83.0889 62.4881 83.1594 62.3223 83.2337C61.436 83.6892 60.5574 84.1485 59.7074 84.6669C58.9184 85.1968 58.1675 85.7647 57.4337 86.3689C55.8728 87.7087 54.4414 89.1668 53.012 90.6419C52.6461 91.0727 52.2782 91.5053 51.9085 91.936C51.4968 92.4163 51.0566 92.8832 50.6773 93.3845C49.8197 94.5204 48.962 95.6563 48.1043 96.7922C47.4506 97.7432 46.795 98.6962 46.1413 99.6473C45.5447 100.514 44.9958 101.41 44.4374 102.3C43.8847 103.185 43.3225 104.056 42.8231 104.967C42.2456 106.017 41.6701 107.069 41.0926 108.119C40.4255 109.556 39.7604 110.987 39.0933 112.424C38.7769 113.103 38.5539 113.848 38.2871 114.549C38.0241 115.239 37.763 115.931 37.5 116.625C36.8863 118.706 36.2363 120.778 35.7275 122.888C35.1404 125.503 34.7231 128.142 34.4639 130.81C34.2523 133.481 34.2028 136.149 34.3 138.823C34.4486 141.712 34.7765 144.575 35.272 147.422C35.7427 149.902 36.3393 152.347 37.0864 154.76C37.7554 156.793 38.5216 158.787 39.4097 160.735C40.1054 162.178 40.8639 163.573 41.7158 164.928C42.6002 166.258 43.5474 167.533 44.5632 168.766C45.4628 169.807 46.4062 170.796 47.4106 171.739C48.3655 172.591 49.3546 173.394 50.3876 174.148C51.5921 174.979 52.8367 175.736 54.1232 176.436C55.5888 177.188 57.0868 177.852 58.6248 178.441C60.4316 179.085 62.2652 179.596 64.131 180.032C66.3476 180.51 68.5832 180.851 70.8397 181.073C73.0296 181.25 75.2156 181.297 77.4112 181.225C80.1691 181.086 82.9002 180.756 85.6218 180.284C87.7316 179.881 89.7975 179.355 91.8426 178.709C94.2135 177.92 96.5254 176.996 98.7896 175.936C100.97 174.873 103.074 173.683 105.123 172.386C106.621 171.41 108.066 170.346 109.527 169.319C110.114 168.907 110.659 168.412 111.218 167.964C111.856 167.451 112.497 166.937 113.137 166.422C114.313 165.345 115.487 164.244 116.659 163.148Z" fill="black"/>
<path d="M75.3924 127.027C74.1612 128.201 72.0533 128.209 70.8888 126.922C68.2186 123.97 65.6971 120.892 63.1966 117.801C61.9521 116.259 60.7418 114.694 59.5506 113.11C58.9388 112.296 58.3537 111.467 57.7724 110.634C57.5151 110.267 57.275 109.885 57.0329 109.51C56.5584 108.776 56.0685 107.894 56.1486 106.983C56.2629 105.683 56.93 104.612 58.1612 104.093C58.5481 103.931 58.9903 103.859 59.4115 103.872C60.7418 103.907 61.8834 104.781 62.3256 105.971C62.3389 105.996 62.3542 106.022 62.3675 106.047C63.8389 108.288 65.4703 110.427 67.1303 112.529C68.8037 114.641 70.5133 116.724 72.2438 118.79C73.3092 120.05 74.3899 121.298 75.4953 122.521C76.6427 123.791 76.6712 125.748 75.4419 126.977C75.4286 126.995 75.4095 127.01 75.3924 127.027Z" fill="black"/>
<path d="M85.7124 109.059C85.1044 109.64 84.2792 109.958 83.4387 109.937C82.5658 109.918 81.832 109.543 81.2088 108.954C78.5825 106.476 76.0438 103.911 73.5204 101.33C72.2511 100.034 70.9837 98.7325 69.743 97.4079C69.0835 96.6989 68.4241 95.9899 67.7666 95.2752C67.2043 94.6672 66.6078 94.0745 66.0875 93.4284C64.9955 92.0771 65.4147 89.973 66.7659 88.9762C67.4483 88.4731 68.3212 88.2634 69.1579 88.3987C69.9374 88.5226 70.5758 88.9247 71.0885 89.4984C71.0466 89.4489 71.0027 89.3974 70.9627 89.346C72.0872 90.6458 73.3013 91.8828 74.4753 93.1406C75.7294 94.4824 77.0197 95.7955 78.3042 97.1106C80.7666 99.634 83.2538 102.133 85.8172 104.555C87.0618 105.731 86.9227 107.848 85.7582 109.013C85.7429 109.028 85.7277 109.043 85.7124 109.059Z" fill="black"/>
<path d="M209.52 253.874C204.417 258.568 199.23 263.199 193.849 267.573C191.095 269.809 188.299 271.972 185.364 273.969C184.072 274.85 182.738 275.723 181.303 276.346C180.533 276.682 179.671 277.051 178.82 277.11C177.848 277.179 176.937 277.126 176.018 276.771C174.998 276.38 174.152 275.687 173.355 274.959C172.679 274.343 172.036 273.712 171.421 273.039C169.252 270.669 167.182 268.198 165.065 265.784C162.833 263.247 160.605 260.706 158.377 258.162C153.974 253.138 149.635 248.055 145.285 242.982C140.831 237.784 136.352 232.608 131.864 227.441C127.277 222.164 122.701 216.875 118.191 211.531C113.467 205.925 108.772 200.294 104.084 194.656C102.279 192.485 100.476 190.312 98.6731 188.14C97.8097 187.097 96.9444 186.057 96.0791 185.016C95.6331 184.478 95.191 183.945 94.7412 183.411C94.3638 182.961 93.9579 182.51 93.7311 181.966C93.1174 180.518 93.7654 178.738 95.1433 177.974C96.5804 177.173 98.33 177.642 99.2734 178.913C99.2696 178.906 99.2639 178.896 99.26 178.888C99.8776 179.754 100.634 180.545 101.311 181.362C102.208 182.443 103.104 183.522 104 184.6C105.681 186.628 107.364 188.658 109.049 190.686C112.653 195.018 116.261 199.342 119.874 203.665C124.181 208.773 128.498 213.875 132.88 218.916C137.616 224.361 142.352 229.81 147.058 235.278C151.42 240.35 155.745 245.452 160.134 250.497C164.523 255.549 168.958 260.563 173.367 265.601C174.615 267.024 175.823 268.488 177.163 269.824C177.504 270.135 177.849 270.442 178.206 270.733C178.379 270.67 178.553 270.6 178.722 270.526C179.576 270.087 180.398 269.609 181.208 269.096C182.763 268.036 184.316 266.979 185.803 265.82C187.569 264.446 189.317 263.053 191.053 261.637C195.328 258.021 199.525 254.324 203.686 250.579C207.808 246.864 211.704 242.93 215.485 238.874C218.586 235.465 221.67 232.027 224.567 228.44C227.456 224.868 230.233 221.214 232.895 217.469C232.857 217.523 232.819 217.58 232.781 217.633C234.01 215.889 235.318 214.159 236.368 212.297C236.402 212.221 236.436 212.144 236.471 212.068C236.492 212.005 236.511 211.94 236.532 211.877C236.532 211.828 236.534 211.776 236.534 211.727C236.532 211.695 236.528 211.66 236.528 211.626C236.532 211.641 236.534 211.658 236.537 211.674V211.658C236.515 211.548 236.488 211.437 236.457 211.327C236.353 211.043 236.238 210.764 236.114 210.488C235.884 210.055 235.644 209.636 235.388 209.217C234.666 208.132 233.862 207.126 233.048 206.11C230.974 203.781 228.84 201.509 226.604 199.331C224.145 196.933 221.651 194.58 219.129 192.249C219.23 192.342 219.329 192.434 219.428 192.525C209.338 183.282 199.07 174.21 188.273 165.795C182.656 161.413 176.967 157.123 171.282 152.829C165.856 148.73 160.494 144.554 155.181 140.308C149.699 135.924 144.254 131.493 138.702 127.195C137.33 126.132 137.155 124.039 138.232 122.714C139.343 121.344 141.34 121.18 142.712 122.244C147.759 126.151 152.72 130.17 157.698 134.161C163.008 138.419 168.362 142.621 173.784 146.732C179.225 150.862 184.711 154.933 190.097 159.134C195.548 163.384 200.922 167.729 206.169 172.229C211.494 176.796 216.741 181.44 221.915 186.177C227.052 190.878 232.232 195.601 236.861 200.814C238.318 202.457 239.751 204.149 240.902 206.028C241.897 207.645 242.741 209.377 242.886 211.298C242.939 212.049 242.897 212.888 242.665 213.612C242.411 214.391 242.086 215.102 241.693 215.819C241.352 216.438 240.931 217.02 240.536 217.609C240.077 218.293 239.604 218.971 239.133 219.648C238.232 220.938 237.319 222.225 236.393 223.498C232.432 228.933 228.213 234.144 223.76 239.183C220.757 242.58 217.675 245.901 214.471 249.105C212.864 250.727 211.212 252.319 209.52 253.874Z" fill="black"/>
<path d="M107.854 155.581C106.413 156.553 104.499 156.95 102.786 156.849C100.621 156.719 98.6139 155.989 96.708 154.983C94.0284 153.565 91.7509 151.386 89.8393 149.063C87.9048 146.713 86.3763 143.953 85.3052 141.11C84.2531 138.32 83.6222 135.28 83.8243 132.284C84.0034 129.6 84.8286 126.656 86.6888 124.639C86.9327 124.376 87.2167 124.165 87.5217 124.008C87.758 123.101 88.3736 122.295 89.2789 121.908C90.7655 121.271 92.3531 120.846 93.9826 120.856C95.7475 120.867 97.4095 121.275 99.0733 121.838C100.678 122.379 102.201 123.143 103.657 123.997C106.171 125.47 108.223 127.812 109.6 130.37C110.444 131.939 111.3 133.522 111.898 135.207C112.327 136.414 112.742 137.607 113.013 138.865C113.501 141.133 113.59 143.387 113.27 145.686C113.001 147.598 112.468 149.515 111.612 151.247C111.202 152.08 110.716 152.844 110.135 153.563C109.952 153.792 109.756 154.007 109.554 154.209C109.037 154.726 108.466 155.168 107.854 155.581ZM105.189 149.562C105.298 149.427 105.401 149.29 105.5 149.149C105.66 148.886 105.805 148.619 105.946 148.345C106.135 147.912 106.302 147.477 106.455 147.031C106.624 146.443 106.767 145.854 106.891 145.253C106.998 144.579 107.07 143.908 107.11 143.227C107.11 142.777 107.095 142.332 107.065 141.882C106.988 141.272 106.887 140.671 106.762 140.069C106.514 139.12 106.205 138.201 105.875 137.277C105.483 136.366 105.077 135.476 104.64 134.586C104.124 133.643 103.581 132.733 102.977 131.843C102.801 131.611 102.618 131.386 102.43 131.167C102.125 130.85 101.812 130.549 101.484 130.256C101.151 129.999 100.815 129.751 100.466 129.513C99.9366 129.204 99.405 128.912 98.8561 128.63C98.0232 128.266 97.1884 127.931 96.3288 127.631C95.9095 127.513 95.4921 127.408 95.0633 127.319C94.7774 127.281 94.4915 127.25 94.2018 127.227C93.9788 127.229 93.7577 127.237 93.5347 127.25C93.3384 127.279 93.146 127.315 92.9516 127.353C92.6924 127.426 92.437 127.506 92.1854 127.593C92.1416 127.61 92.0958 127.629 92.0539 127.649C91.9262 128.138 91.6822 128.607 91.3239 129.004C91.2668 129.08 91.2115 129.154 91.1543 129.23C91.0952 129.328 91.0419 129.427 90.9904 129.528C90.8265 129.909 90.6779 130.29 90.5387 130.681C90.4396 131.028 90.3519 131.371 90.2814 131.723C90.23 132.095 90.188 132.465 90.1632 132.84C90.1556 133.454 90.1804 134.062 90.2319 134.677C90.3176 135.335 90.4262 135.985 90.5577 136.635C90.7598 137.409 90.998 138.165 91.2705 138.918C91.6441 139.837 92.052 140.729 92.5075 141.603C93.0068 142.495 93.5481 143.353 94.1275 144.192C94.6325 144.868 95.1643 145.518 95.7265 146.149C96.2983 146.744 96.893 147.304 97.5143 147.845C98.0155 148.244 98.5301 148.617 99.0618 148.977C99.5212 149.254 99.9843 149.511 100.461 149.747C100.846 149.911 101.231 150.064 101.623 150.205C101.951 150.296 102.277 150.374 102.611 150.441C102.767 150.464 102.925 150.481 103.085 150.492C103.219 150.489 103.354 150.487 103.489 150.485C103.626 150.466 103.764 150.443 103.903 150.414C103.977 150.393 104.053 150.371 104.126 150.348C104.21 150.31 104.295 150.27 104.381 150.23C104.457 150.184 104.534 150.138 104.61 150.088C104.703 150.014 104.799 149.938 104.896 149.864C105.001 149.77 105.096 149.667 105.189 149.562Z" fill="black"/>
<path d="M142.442 117.196C141.07 118.31 139.088 118.046 137.961 116.726C137.75 116.476 137.538 116.23 137.323 115.984C137.075 115.729 136.822 115.487 136.559 115.243C136.065 114.845 135.56 114.469 135.034 114.111C133.974 113.459 132.878 112.885 131.773 112.31C130.138 111.563 128.485 110.897 126.781 110.31C125.707 109.986 124.63 109.699 123.524 109.493C121.815 109.178 120.795 107.252 121.19 105.641C121.384 104.833 121.904 104.126 122.611 103.689C123.364 103.222 124.191 103.146 125.043 103.304C126.471 103.566 127.866 103.954 129.238 104.419C130.443 104.827 131.666 105.247 132.821 105.78C134.249 106.438 135.663 107.112 137.037 107.88C138.588 108.753 140.027 109.777 141.342 110.978C141.916 111.502 142.414 112.117 142.917 112.708C143.971 113.949 143.799 115.862 142.68 116.981C142.602 117.059 142.524 117.13 142.442 117.196Z" fill="black"/>
<path d="M139.057 113.606C137.494 114.315 135.529 113.608 134.839 112.015C134.559 111.369 134.258 110.732 133.945 110.099C133.143 108.63 132.264 107.229 131.334 105.838C130.53 104.736 129.726 103.65 128.822 102.62C128.291 102.066 127.744 101.534 127.166 101.029C126.631 100.596 126.084 100.19 125.51 99.8112C125.079 99.552 124.641 99.3118 124.193 99.0774C123.922 98.9516 123.652 98.8297 123.375 98.721C121.74 98.2979 120.745 96.5178 121.142 94.894C121.559 93.1768 123.301 92.1857 124.993 92.5593C125.639 92.7022 126.234 93.0148 126.833 93.2892C128.376 94.0021 129.791 94.9511 131.104 96.028C133.187 97.7376 134.822 99.815 136.393 101.976C138.068 104.277 139.514 106.779 140.645 109.392C141.182 110.635 140.889 112.06 139.978 112.971C139.72 113.229 139.411 113.446 139.057 113.606Z" fill="black"/>
<path d="M140.446 116.783C138.718 116.834 137.206 115.437 137.161 113.703C137.126 112.434 137.029 111.17 136.917 109.906C136.486 105.58 136.03 101.206 135.062 96.9596C134.74 95.6807 134.365 94.4248 133.913 93.184C133.614 92.4388 133.288 91.7089 132.928 90.9904C132.548 90.3023 132.14 89.6353 131.698 88.9834C131.289 88.4403 130.873 87.9028 130.433 87.3787C129.314 86.0503 129.575 83.9747 130.902 82.8998C132.268 81.7887 134.262 82.0402 135.382 83.3667C136.084 84.1977 136.732 85.063 137.345 85.9588C138.828 88.1239 139.817 90.5996 140.61 93.0887C141.479 95.818 141.935 98.6825 142.335 101.515C142.611 103.464 142.838 105.414 143.052 107.37C143.277 109.405 143.479 111.448 143.53 113.497C143.555 114.402 143.187 115.243 142.581 115.849C142.028 116.402 141.279 116.758 140.446 116.783Z" fill="black"/>
<path d="M199.275 155.531C197.378 155.865 195.402 155.596 193.53 155.238C191.811 154.914 190.127 154.384 188.474 153.81C186.664 153.181 184.876 152.522 183.09 151.834C176.64 149.349 170.33 146.431 164.285 143.084C161.247 141.403 158.228 139.673 155.314 137.784C152.209 135.769 149.131 133.724 146.08 131.634C145.376 131.151 144.671 130.667 143.966 130.183C143.047 129.55 142.144 128.944 141.509 128.009C140.533 126.571 141.117 124.509 142.546 123.625C143.909 122.785 145.557 123.129 146.588 124.233C147.57 124.967 148.599 125.641 149.609 126.335C150.701 127.08 151.791 127.824 152.885 128.567C154.988 129.991 157.118 131.374 159.245 132.758C160.652 133.608 162.059 134.462 163.471 135.314C164.567 135.975 165.689 136.583 166.806 137.201C167.95 137.833 169.082 138.489 170.252 139.076C171.784 139.842 173.322 140.603 174.851 141.376C180.256 143.888 185.764 146.164 191.403 148.091C192.701 148.489 194.001 148.844 195.335 149.111C195.892 149.194 196.445 149.255 197.005 149.297C197.338 149.303 197.67 149.295 198.004 149.278C198.261 149.246 198.516 149.204 198.772 149.151C198.636 149.183 198.499 149.213 198.368 149.246C198.667 149.187 198.958 149.109 199.246 149.008C199.391 148.947 199.536 148.882 199.679 148.811C199.812 148.731 199.944 148.649 200.079 148.567C200.016 148.611 199.955 148.657 199.892 148.701C199.862 148.716 199.833 148.733 199.803 148.748C199.831 148.735 199.858 148.72 199.885 148.705C199.837 148.737 199.791 148.771 199.746 148.806C199.803 148.767 199.862 148.728 199.917 148.687C199.942 148.674 199.965 148.663 199.99 148.649C199.967 148.661 199.944 148.672 199.923 148.686C200.066 148.585 200.205 148.476 200.34 148.36C200.506 148.198 200.666 148.026 200.815 147.847C200.79 147.883 200.769 147.919 200.744 147.956C200.771 147.914 200.8 147.874 200.826 147.832C200.86 147.79 200.897 147.746 200.931 147.704C200.901 147.738 200.872 147.775 200.841 147.809C200.88 147.752 200.916 147.693 200.948 147.634C200.908 147.696 200.868 147.759 200.828 147.822C200.775 147.887 200.718 147.952 200.666 148.015C200.763 147.883 200.862 147.75 200.958 147.616C201.038 147.483 201.112 147.348 201.181 147.207C201.257 147.031 201.329 146.852 201.396 146.671C201.491 146.336 201.57 146.006 201.636 145.665C201.663 145.459 201.684 145.255 201.695 145.049C201.693 144.616 201.676 144.195 201.644 143.766C201.583 143.359 201.512 142.956 201.428 142.556C201.24 141.834 201.022 141.129 200.773 140.425C200.392 139.48 199.969 138.561 199.5 137.658C198.96 136.699 198.375 135.775 197.752 134.866C196.912 133.705 196.018 132.598 195.067 131.529C194.114 130.519 193.113 129.568 192.061 128.664C190.626 127.496 189.12 126.451 187.603 125.399C186.751 124.868 185.901 124.334 185.049 123.802C184.167 123.255 183.244 122.767 182.343 122.255C180.713 121.319 179.013 120.507 177.329 119.684C173.805 118.123 170.237 116.682 166.638 115.302C162.876 113.861 159.099 112.477 155.268 111.239C151.938 110.223 148.572 109.27 145.146 108.649C144.469 108.54 143.791 108.448 143.108 108.387C141.38 108.237 140.093 106.592 140.272 104.888C140.455 103.139 142.045 101.9 143.771 102.052C146.83 102.321 149.827 103.11 152.786 103.886C156.137 104.766 159.421 105.889 162.691 107.032C165.863 108.142 168.986 109.386 172.118 110.596C175.369 111.854 178.581 113.213 181.712 114.74C184.855 116.278 187.851 118.05 190.815 119.905C192.882 121.195 194.847 122.687 196.702 124.26C200.306 127.315 203.258 131.163 205.463 135.327C206.454 137.199 207.22 139.242 207.672 141.31C208.156 143.521 208.191 145.735 207.665 147.942C207.219 149.806 206.193 151.491 204.857 152.842C204.846 152.854 204.836 152.863 204.825 152.875C203.336 154.375 201.322 155.173 199.275 155.531Z" fill="black"/>
<path d="M75.0007 185.557C73.4703 185.814 71.9685 185.056 70.6877 184.309C68.6351 183.114 66.8283 181.497 65.1321 179.851C61.7396 176.557 58.8617 172.677 56.9634 168.331C55.839 165.758 55.149 163.006 54.5486 160.275C54.1693 158.547 53.9788 156.751 54.0073 154.981C54.0226 154.115 54.2819 153.315 54.8879 152.682C55.4616 152.082 56.262 151.72 57.0911 151.695C58.7626 151.644 60.4054 153.042 60.3749 154.777C60.3654 155.438 60.3921 156.086 60.4398 156.74C60.5999 157.944 60.8172 159.126 61.0745 160.313C61.4747 161.811 61.873 163.308 62.3971 164.769C62.763 165.699 63.1652 166.605 63.6188 167.497C64.2382 168.619 64.9148 169.704 65.6467 170.756C66.4166 171.8 67.238 172.797 68.1052 173.763C69.1954 174.93 70.3332 176.037 71.5415 177.085C72.1648 177.594 72.8032 178.076 73.4665 178.538C73.8648 178.783 74.2651 179.012 74.6844 179.222C74.692 179.226 74.7015 179.227 74.7091 179.231C76.1309 179.342 77.3812 180.428 77.6232 181.886C77.7966 182.932 77.4212 183.956 76.7123 184.665C76.2606 185.12 75.6716 185.443 75.0007 185.557Z" fill="black"/>
<path d="M75.3135 180.259C73.8517 181.164 71.8219 180.708 70.93 179.222C68.6448 175.416 67.3011 171.156 66.1652 166.887C65.5973 164.748 65.1036 162.589 64.711 160.413C64.5185 159.351 64.3222 158.293 64.1602 157.224C63.8991 155.514 63.6457 153.828 63.7505 152.088C63.8553 150.355 65.5839 149.076 67.2496 149.252C68.0863 149.337 68.864 149.761 69.3938 150.412C69.9351 151.083 70.1333 151.884 70.0856 152.728C70.0799 153.18 70.1028 153.629 70.1371 154.083C70.5125 157.375 71.2177 160.641 71.9534 163.87C72.6319 166.424 73.3523 168.955 74.2328 171.448C74.7245 172.633 75.2391 173.803 75.8166 174.953C75.9881 175.261 76.1654 175.568 76.3484 175.873C77.1184 177.15 76.8992 178.787 75.8795 179.807C75.7137 179.976 75.5231 180.129 75.3135 180.259Z" fill="black"/>
<path d="M79.971 185.908C78.2748 185.961 76.689 184.562 76.6852 182.824C76.6833 180.863 76.9254 178.886 77.0912 176.929C77.2532 175.006 77.4152 173.083 77.5791 171.158C77.7297 169.368 77.8821 167.577 78.0384 165.789C78.1223 164.855 78.2195 163.919 78.351 162.991C78.4768 162.103 78.5606 161.158 78.8846 160.319C79.5098 158.699 81.4062 157.885 83.0128 158.512C84.5471 159.113 85.3513 160.82 84.9073 162.374C84.8615 162.572 84.8215 162.772 84.7834 162.97C84.3393 166.208 84.1125 169.477 83.8361 172.734C83.5712 175.919 83.272 179.104 83.0528 182.296C83.0528 182.403 83.0528 182.513 83.0528 182.62C83.0566 183.535 82.6907 184.385 82.0847 184.991C81.5434 185.536 80.8077 185.883 79.971 185.908Z" fill="black"/>
<path d="M85.4115 184.488C84.571 184.627 83.6904 184.418 83.0062 183.913C81.6549 182.92 81.2318 180.812 82.322 179.459C84.2831 177.029 86.2005 174.559 88.0759 172.062C89.1356 170.655 90.1666 169.232 91.1901 167.796C92.0192 166.636 92.8235 165.435 93.7726 164.368C94.9295 163.074 97.0545 163.091 98.2781 164.261C99.5608 165.483 99.5398 167.455 98.3963 168.751C97.5539 169.807 96.7839 170.924 96.0006 172.02C95.0419 173.367 94.0623 174.698 93.0693 176.018C91.2416 178.452 89.37 180.858 87.4584 183.227C87.3631 183.345 87.264 183.455 87.1592 183.56C86.6827 184.04 86.1033 184.372 85.4115 184.488Z" fill="black"/>
<path d="M106.574 243.374C105.731 243.885 104.878 244.278 103.921 244.518C102.869 244.781 101.794 244.796 100.725 244.642C96.4936 244.024 93.5908 240.401 91.3762 237.062C90.3279 235.484 89.3998 233.812 88.525 232.129C88.0962 231.304 87.6673 230.479 87.2385 229.654C86.7754 228.764 86.3961 227.824 85.9825 226.915C84.4921 223.675 83.3333 220.29 82.1422 216.934C80.9548 213.585 79.9961 210.168 79.0394 206.749C78.5839 205.123 78.2198 203.459 77.8634 201.811C77.4613 199.952 77.0421 198.096 76.6876 196.224C76.1024 193.131 75.4849 190.066 75.3706 186.907C75.2962 184.881 75.3954 182.544 76.6532 180.863C77.1888 180.152 78.0407 179.651 78.9231 179.504C79.5978 179.393 80.2192 179.531 80.8595 179.733C82.5139 180.263 83.2648 182.325 82.6644 183.863C82.4776 184.339 82.1746 184.764 81.7915 185.098C81.7686 185.334 81.7515 185.572 81.7362 185.813C81.7305 186.642 81.7686 187.469 81.8315 188.298C82.287 192.535 83.2934 196.705 84.1739 200.867C84.1682 200.842 84.1605 200.816 84.1548 200.791C84.4578 202.112 84.7323 203.446 85.0944 204.749C85.5556 206.389 85.954 208.064 86.48 209.684C87.0518 211.441 87.6235 213.202 88.1934 214.961C88.6718 216.423 89.2207 217.868 89.741 219.318C90.4424 221.075 91.117 222.84 91.908 224.561C92.3254 225.467 92.7122 226.395 93.1696 227.279C93.6576 228.217 94.1455 229.151 94.6315 230.086C95.5044 231.592 96.3696 233.098 97.3512 234.537C97.8238 235.185 98.3098 235.815 98.8358 236.422C99.1598 236.761 99.4953 237.085 99.846 237.397C100.038 237.552 100.239 237.698 100.443 237.838C100.605 237.935 100.77 238.028 100.94 238.114C101.077 238.175 101.216 238.226 101.357 238.276C101.485 238.305 101.611 238.335 101.739 238.364C101.807 238.371 101.876 238.379 101.943 238.385C102.019 238.381 102.099 238.377 102.177 238.371C102.266 238.358 102.36 238.345 102.449 238.331C102.518 238.312 102.585 238.291 102.653 238.268C102.743 238.224 102.831 238.183 102.92 238.139C103.006 238.087 103.094 238.034 103.179 237.982C103.261 237.92 103.343 237.853 103.421 237.786C103.559 237.653 103.69 237.517 103.816 237.373C103.949 237.205 104.081 237.031 104.201 236.854C104.432 236.471 104.645 236.082 104.851 235.682C105.081 235.15 105.287 234.613 105.478 234.064C105.741 233.183 105.947 232.295 106.114 231.396C106.271 230.317 106.372 229.24 106.433 228.154C106.467 226.74 106.421 225.337 106.301 223.925C106.13 222.324 105.884 220.732 105.535 219.16C105.32 218.194 105.104 217.231 104.889 216.265C103.711 211.794 102.497 207.336 101.051 202.943C99.6364 198.647 98.0411 194.406 96.4459 190.173C96.4554 190.202 96.4687 190.23 96.4783 190.259C96.4459 190.173 96.4135 190.087 96.3792 190C96.364 189.958 96.3468 189.914 96.3316 189.872C96.3373 189.889 96.3449 189.904 96.3506 189.922C96.2382 189.626 96.1276 189.333 96.0171 189.039C95.5635 187.846 95.1041 186.651 94.6391 185.462C94.3208 184.652 94.2523 183.813 94.5743 182.988C94.8736 182.22 95.4777 181.589 96.2267 181.248C97.7457 180.56 99.8116 181.223 100.444 182.839C100.97 184.181 101.485 185.523 101.992 186.868C101.986 186.855 101.981 186.842 101.977 186.826C104.374 193.165 106.793 199.51 108.676 206.028C109.644 209.375 110.618 212.728 111.375 216.13C111.573 217.01 111.769 217.885 111.966 218.767C112.474 221.052 112.701 223.437 112.798 225.775C112.991 230.305 112.307 234.996 110.273 239.076C109.732 240.163 108.983 241.27 108.077 242.175C107.618 242.639 107.113 243.048 106.574 243.374Z" fill="black"/>
</svg>
