<svg width="197" height="311" viewBox="0 0 197 311" fill="none" xmlns="http://www.w3.org/2000/svg">
<path d="M61.4889 170.335C63.2066 170.31 64.9268 170.107 66.6297 169.884C68.1761 169.68 69.7176 169.414 71.2467 169.107C74.2378 168.501 77.2115 167.831 80.0041 166.555C80.8927 166.148 81.8062 165.773 82.67 165.316C83.5314 164.859 84.3902 164.408 85.2541 163.951C85.8846 163.618 86.4803 163.224 87.0885 162.854C88.2228 162.164 89.3374 161.464 90.4296 160.707C94.1852 158.09 97.4966 154.886 100.058 151.08C100.875 149.869 101.575 148.591 102.24 147.287C102.856 146.079 103.469 144.872 104.022 143.634C104.901 141.668 105.656 139.655 106.16 137.562C106.706 135.301 107.028 132.933 107.12 130.612C107.212 128.313 107.086 126.039 106.852 123.753C106.609 121.355 106.256 118.995 105.668 116.659C105.11 114.432 104.31 112.27 103.442 110.15C102.555 107.986 101.553 105.893 100.309 103.91C97.9037 100.07 94.6569 96.7859 91.0352 94.0877C89.9555 93.2834 88.8136 92.5685 87.6569 91.8785C86.7434 91.3348 85.8399 90.7714 84.9016 90.2675C78.8821 87.0331 72.1105 84.9157 65.2669 84.531C64.5098 84.4888 63.7502 84.4515 62.9907 84.4292C62.4197 83.1856 61.0694 82.4732 59.6619 82.6271C56.3382 82.992 53.0194 83.404 49.7155 83.9203C48.1145 84.171 46.5233 84.4714 44.9372 84.7842C43.3584 85.0969 41.7673 85.4593 40.2308 85.9359C38.59 86.4448 36.9964 87.0554 35.4674 87.8423C34.0922 88.5473 32.7741 89.3242 31.4908 90.188C28.6535 92.0944 25.9404 94.1423 23.3837 96.416C20.8766 98.6451 18.5061 101.043 16.4433 103.697C15.4206 105.015 14.3905 106.328 13.4795 107.73C12.494 109.247 11.5806 110.781 10.7837 112.407C9.26957 115.485 8.14261 118.734 7.38801 122.078C6.67063 125.27 6.46957 128.494 6.75256 131.749C6.87667 133.193 7.05042 134.608 7.36317 136.03C7.82487 138.125 8.50005 140.141 9.4309 142.077C10.6 144.51 12.1564 146.674 13.7178 148.864C14.2564 149.616 14.9068 150.311 15.4951 151.026C16.0288 151.676 16.6171 152.269 17.1979 152.875C17.6919 153.391 18.1709 153.937 18.7021 154.417C19.4667 155.107 20.2337 155.799 20.9982 156.489C21.6387 157.065 22.3436 157.581 23.0163 158.12C23.5997 158.589 24.1805 159.039 24.7887 159.473C25.6177 160.066 26.4369 160.672 27.2858 161.23C29.3635 162.598 31.5404 163.814 33.8167 164.83C35.1943 165.448 36.5918 166.001 38.0191 166.48C38.9847 166.806 39.9429 167.168 40.9234 167.448C42.4648 167.888 43.9964 168.344 45.5602 168.702C46.4588 168.908 47.3599 169.146 48.2709 169.295C49.2265 169.452 50.1847 169.605 51.1403 169.764C51.7907 169.871 52.4361 169.936 53.0939 170C54.0049 170.09 54.9183 170.204 55.8343 170.238C56.8148 170.278 57.7953 170.318 58.7758 170.355C58.9942 170.363 59.2151 170.368 59.4336 170.368C60.1187 170.377 60.8063 170.345 61.4889 170.335ZM59.9176 164.08C58.4581 164.1 57.0084 164.025 55.5513 163.968C55.6829 163.973 55.8194 163.978 55.951 163.983C54.7893 163.871 53.6251 163.755 52.4634 163.641C51.8726 163.581 51.2793 163.447 50.696 163.353C50.2169 163.273 49.7379 163.196 49.2588 163.117C48.1194 162.856 46.9776 162.598 45.8382 162.34C44.7659 162.097 43.706 161.742 42.6485 161.431C40.4592 160.692 38.2872 159.964 36.1698 159.029C34.6507 158.311 33.1762 157.522 31.739 156.651C30.3812 155.784 29.083 154.841 27.7723 153.905C26.906 153.285 26.0919 152.577 25.2653 151.902C24.4511 151.167 23.6394 150.433 22.8252 149.7C22.438 149.353 22.0979 148.941 21.738 148.566C21.3706 148.181 21.0032 147.799 20.6358 147.414C19.9731 146.607 19.3128 145.801 18.65 144.994C18.0791 144.299 17.5851 143.527 17.0688 142.785C16.4334 141.812 15.8401 140.824 15.294 139.799C14.9068 139.014 14.5568 138.217 14.2465 137.398C13.9337 136.477 13.6756 135.544 13.4571 134.596C13.1816 133.171 13.0351 131.753 12.9086 130.314C12.8763 129.475 12.8688 128.641 12.8937 127.804C12.9582 126.796 13.0699 125.801 13.2238 124.803C13.5142 123.237 13.9313 121.715 14.3781 120.189C14.6362 119.466 14.8919 118.749 15.15 118.027C15.3809 117.374 15.6813 116.741 15.9568 116.103C16.2646 115.48 16.5724 114.854 16.8752 114.231C17.1805 113.611 17.5628 113.022 17.9078 112.422C18.65 111.29 19.4071 110.188 20.199 109.088C20.9784 108.011 21.8422 106.99 22.6961 105.97C22.6911 105.978 22.6837 105.985 22.6787 105.993C24.0018 104.523 25.3645 103.123 26.7993 101.768C27.9461 100.753 29.0979 99.7547 30.2918 98.7916C31.4734 97.8384 32.7096 96.9572 33.9532 96.0884C35.4053 95.1029 36.8773 94.1869 38.4262 93.3678C39.3347 92.9458 40.2432 92.5636 41.179 92.216C42.7404 91.732 44.3141 91.3423 45.9077 90.9873C48.606 90.4536 51.3141 90.0168 54.0347 89.6395C54.7148 90.5281 55.8467 91.0519 57.0034 90.8583C57.2119 90.8235 57.4254 90.8111 57.6364 90.7937C57.5297 90.8036 57.4229 90.8111 57.3187 90.821C59.3939 90.7019 61.4591 90.6894 63.5392 90.7118C64.279 90.7441 65.0311 90.7465 65.7633 90.8433C66.7612 90.9749 67.7616 91.104 68.7594 91.2355C70.5342 91.5557 72.2818 91.9678 74.0144 92.4792C75.9083 93.0824 77.7502 93.8072 79.5647 94.6214C80.8108 95.2072 82.0296 95.8277 83.2136 96.5302C83.9136 96.9472 84.6136 97.3642 85.3161 97.7813C86.5697 98.6004 87.781 99.4643 88.9452 100.408C89.9927 101.306 90.9831 102.254 91.9289 103.26C92.8125 104.248 93.6416 105.273 94.4111 106.353C95.0615 107.326 95.6622 108.318 96.2108 109.351C97.1416 111.235 97.9409 113.186 98.6583 115.162C99.1324 116.562 99.5444 117.977 99.887 119.414C100.309 121.465 100.545 123.547 100.741 125.63C100.865 127.236 100.907 128.837 100.855 130.445C100.776 131.714 100.622 132.965 100.423 134.218C100.235 135.291 100.009 136.348 99.7107 137.396C99.2838 138.701 98.7849 139.977 98.2288 141.233C97.3005 143.239 96.3026 145.225 95.1558 147.116C94.5501 148.042 93.9097 148.933 93.2196 149.795C92.3111 150.854 91.3455 151.847 90.3278 152.798C89.2009 153.798 88.0267 154.727 86.7955 155.598C85.403 156.541 83.9633 157.403 82.5285 158.279C81.6449 158.818 80.7041 159.274 79.7832 159.751C78.4551 160.357 77.1395 160.97 75.7768 161.489C74.5977 161.896 73.4013 162.221 72.1874 162.514C70.9612 162.764 69.735 163.023 68.5013 163.231C67.0442 163.474 65.5871 163.683 64.1251 163.876C62.7201 163.983 61.3275 164.063 59.9176 164.08Z" fill="black"/>
<path d="M67.446 118.034C69.0743 117.788 70.4197 116.135 70.0772 114.46C69.5335 111.794 68.908 109.14 68.275 106.492C67.6371 103.831 66.9867 101.167 66.2421 98.5335C65.7754 96.8878 63.9956 95.9147 62.3598 96.3839C60.7141 96.8555 59.746 98.6204 60.2102 100.266C61.491 104.794 62.5658 109.396 63.5786 113.993C63.6779 114.462 63.7772 114.934 63.874 115.403C64.0453 116.239 64.435 116.964 65.135 117.473C65.6711 117.86 66.3215 118.066 66.9793 118.066C67.1332 118.069 67.2896 118.059 67.446 118.034Z" fill="black"/>
<path d="M56.8586 124.972C57.6852 124.848 58.4398 124.386 58.9288 123.711C59.4253 123.023 59.5717 122.231 59.4873 121.4C59.1026 117.533 58.6682 113.668 58.2363 109.803C58.0178 107.844 57.777 105.888 57.5238 103.932C57.4121 103.076 57.2707 102.222 57.1242 101.368C57.0199 100.78 56.9157 100.179 56.593 99.6652C56.0866 98.8585 55.2029 98.2131 54.2249 98.1585C53.3934 98.1088 52.604 98.295 51.9437 98.8237C51.2884 99.345 50.8639 100.119 50.7771 100.951C50.7349 101.343 50.7771 101.74 50.8863 102.118C51.4522 105.384 51.8072 108.686 52.1721 111.977C52.5593 115.433 52.9416 118.888 53.2841 122.348C53.438 123.897 54.9274 125.009 56.4192 125.009C56.5657 125.004 56.7121 124.994 56.8586 124.972Z" fill="black"/>
<path d="M65.1162 146.431C66.7372 145.967 67.7648 144.185 67.2659 142.551C66.6925 140.677 65.3793 139.034 64.0911 137.602C63.2074 136.616 62.2393 135.73 61.2737 134.822C60.7772 134.355 60.2361 133.928 59.7099 133.498C58.7741 132.734 57.7811 132.002 56.7336 131.396C54.651 130.19 52.422 129.408 50.0812 128.869C48.2716 128.45 46.4049 128.214 44.5606 127.98C42.7486 127.75 40.9092 127.598 39.0798 127.668C37.372 127.732 35.977 129.15 36.0167 130.875C36.0564 132.565 37.516 134.002 39.2263 133.938C39.683 133.92 40.1372 133.92 40.594 133.928C42.7833 134.045 44.9503 134.345 47.1174 134.685C48.1897 134.889 49.2471 135.104 50.3021 135.4C50.9996 135.626 51.6822 135.874 52.3524 136.164C52.8017 136.388 53.2411 136.624 53.678 136.874C54.584 137.463 55.4428 138.108 56.2819 138.788C57.3467 139.699 58.3719 140.667 59.335 141.685C59.767 142.174 60.179 142.675 60.5712 143.199C60.7946 143.537 61.0006 143.877 61.1992 144.232C61.2216 144.281 61.2439 144.331 61.2638 144.383C61.2886 144.455 61.3159 144.525 61.3457 144.594C61.3357 144.569 61.3283 144.545 61.3184 144.517C61.3283 144.545 61.3382 144.567 61.3457 144.594C61.8471 145.776 63.0063 146.553 64.2623 146.553C64.5478 146.553 64.8333 146.513 65.1162 146.431Z" fill="black"/>
<path d="M57.4466 251.153C64.1834 250.818 70.9228 250.324 77.6025 249.351C79.4667 249.078 81.3309 248.8 83.1901 248.499C85.2256 248.174 87.2734 247.812 89.2543 247.241C90.1181 246.99 91.0117 246.665 91.7986 246.221C92.4713 245.841 93.2681 245.362 93.6926 244.689C94.1046 244.034 94.462 243.393 94.5415 242.607C94.5812 242.202 94.5936 241.792 94.5986 241.385C94.6209 240.037 94.5837 238.69 94.5613 237.344C94.4596 230.865 94.1542 224.392 93.6082 217.938C93.0174 210.953 91.8855 204.007 90.7213 197.099C89.8401 191.862 88.8422 186.642 87.8642 181.421C87.3429 178.631 86.8142 175.846 86.2979 173.056C85.7965 170.363 85.3298 167.66 84.7465 164.984C84.7465 164.979 84.7465 164.976 84.744 164.971C84.7341 164.919 84.7217 164.865 84.7092 164.813C84.6944 164.743 84.6795 164.674 84.6646 164.607C84.6795 164.669 84.6919 164.731 84.7043 164.793C84.3046 163.209 82.85 162.089 81.172 162.345C79.5362 162.593 78.2107 164.242 78.5408 165.92C78.5681 166.059 78.5979 166.2 78.6302 166.339C79.2706 169.415 79.8117 172.51 80.3926 175.595C81.0479 179.09 81.7032 182.588 82.3536 186.086C83.5749 192.666 84.8185 199.251 85.7816 205.877C86.3897 210.054 86.9482 214.232 87.3653 218.434C87.7053 222.503 87.9362 226.574 88.095 230.655C88.1745 232.705 88.239 234.75 88.2762 236.798C88.3011 238.168 88.3433 239.541 88.3333 240.914C88.1844 240.976 88.0355 241.035 87.8841 241.092C87.2188 241.303 86.5461 241.477 85.866 241.634C79.9656 242.753 74.0256 243.528 68.0558 244.158C64.2157 244.481 60.3756 244.786 56.5232 244.9C52.4523 245.022 48.3888 245.057 44.3154 244.947C41.2622 244.821 38.219 244.627 35.1782 244.319C32.3137 244.026 29.4492 243.617 26.6045 243.153C26.6318 243.158 26.6566 243.163 26.6839 243.168C26.0509 243.058 25.418 242.949 24.7899 242.815C24.7626 242.753 24.7353 242.689 24.7105 242.626C24.5442 242.115 24.4002 241.606 24.2786 241.087C24.0899 240.095 23.9633 239.099 23.8591 238.091C23.7449 236.431 23.6233 234.775 23.5736 233.112C23.5141 231.203 23.4917 229.304 23.4917 227.393C23.4917 223.945 23.6233 220.5 23.7399 217.057C24.0254 210.402 24.3382 203.747 24.8321 197.104C25.3236 190.482 25.8399 183.839 26.7211 177.254C26.947 175.563 27.2002 173.88 27.4733 172.197C28.074 168.66 28.6772 165.125 29.6651 161.67C30.1367 160.027 28.9452 158.272 27.3392 157.892C26.5474 157.703 25.696 157.832 25.0009 158.252C24.2562 158.699 23.7945 159.396 23.5587 160.218C22.7917 162.901 22.2555 165.629 21.774 168.375C21.2055 171.634 20.6892 174.895 20.2846 178.18C19.8726 181.476 19.5697 184.787 19.2669 188.096C18.9815 191.246 18.7183 194.401 18.5098 197.556C18.0531 204.454 17.6634 211.357 17.43 218.268C17.1818 225.491 16.9584 232.769 17.7552 239.97C17.9712 241.924 18.3683 243.937 19.2272 245.717C19.6119 246.509 20.1531 247.226 20.8382 247.782C21.5878 248.393 22.4442 248.715 23.38 248.929C24.8768 249.271 26.4208 249.475 27.9399 249.701C31.1594 250.175 34.3864 250.57 37.6282 250.845C40.87 251.123 44.1367 251.242 47.3884 251.285C48.4012 251.297 49.4165 251.307 50.4317 251.307C52.77 251.312 55.1132 251.267 57.4466 251.153Z" fill="black"/>
<path d="M98.5896 168.802C99.873 168.69 101.117 168.141 102.127 167.359C103.075 166.627 103.795 165.666 104.386 164.634C104.964 163.619 105.242 162.469 105.475 161.337C105.751 160.019 105.84 158.666 105.838 157.321C105.838 155.896 105.811 154.466 105.624 153.049C105.438 151.612 105.24 150.17 104.9 148.76C104.676 147.841 104.435 146.945 104.095 146.062C103.678 144.974 102.596 144.15 101.447 144.038C99.7464 143.875 98.1776 145.118 97.9988 146.831C97.9318 147.484 98.0783 148.122 98.3836 148.67C98.3935 148.695 98.401 148.72 98.4109 148.745C98.5673 149.264 98.6964 149.785 98.8254 150.314C99.1332 151.89 99.3666 153.464 99.5205 155.062C99.5602 156.162 99.5676 157.257 99.5478 158.356C99.5031 158.877 99.4435 159.386 99.3691 159.9C99.2822 160.317 99.1928 160.729 99.0811 161.139C99.0389 161.26 98.9918 161.382 98.9396 161.504C98.8751 161.635 98.8056 161.762 98.7311 161.888C98.6939 161.941 98.6591 161.993 98.6194 162.045C98.5102 162.166 98.3985 162.283 98.2843 162.397C98.2471 162.427 98.2098 162.459 98.1726 162.489C98.1254 162.504 98.0758 162.516 98.0262 162.531C97.8971 162.556 97.7655 162.576 97.6364 162.593C97.6191 162.593 97.5992 162.593 97.5818 162.593C97.4974 162.586 97.4155 162.576 97.3311 162.566C97.1375 162.526 96.9439 162.479 96.7552 162.425C95.3379 161.955 93.9677 161.375 92.6049 160.769C91.7783 160.387 90.9617 159.989 90.1475 159.585C88.6209 158.818 86.7244 159.322 85.8978 160.861C85.106 162.333 85.6471 164.346 87.1737 165.11C89.5865 166.317 92.0464 167.478 94.613 168.317C95.6506 168.658 96.6733 168.839 97.7357 168.839C98.0187 168.839 98.3017 168.826 98.5896 168.802Z" fill="black"/>
<path d="M18.1446 218.563C18.9736 218.544 19.7704 218.191 20.3414 217.593C21.4782 216.404 21.5353 214.274 20.2396 213.159C17.1715 210.513 14.374 207.592 11.6311 204.616C10.2013 203.017 8.82864 201.389 7.57759 199.649C7.32688 199.251 7.08857 198.849 6.86517 198.437C6.74602 198.184 6.63431 197.928 6.53502 197.668C6.47545 197.482 6.42085 197.293 6.37369 197.104C6.34638 196.958 6.32404 196.811 6.30667 196.662C6.26943 196.052 6.2595 195.441 6.27191 194.828C6.28681 194.592 6.31163 194.356 6.3439 194.123C6.45063 193.547 6.58219 192.976 6.73609 192.41C7.02403 191.536 7.33679 190.685 7.67438 189.831C8.17828 188.759 8.68715 187.689 9.24566 186.644C9.94317 185.343 10.668 184.067 11.4176 182.794C12.4254 181.233 13.4332 179.666 14.5552 178.187C15.1708 177.378 15.7591 176.541 16.4045 175.757C17.0176 175.012 17.6332 174.267 18.2488 173.525C18.9836 172.709 19.7208 171.894 20.4531 171.078C21.1307 170.328 21.8555 169.618 22.5407 168.873C23.3399 168.005 24.1343 167.138 24.9112 166.247C25.8123 165.212 26.7555 164.165 27.458 162.981C28.163 161.787 27.8353 160.158 26.8598 159.225C25.8247 158.237 24.3055 158.123 23.0793 158.803C22.8187 158.944 22.6027 159.138 22.3818 159.327C21.9524 159.689 21.6346 160.143 21.4385 160.637C21.1853 160.953 20.9247 161.265 20.6665 161.576C18.4052 164.17 16.0098 166.637 13.7038 169.194C13.1229 169.842 12.5917 170.537 12.0382 171.207C11.5517 171.793 11.0825 172.381 10.6208 172.987C9.58325 174.357 8.52332 175.724 7.58999 177.172C6.58716 178.721 5.61908 180.279 4.68327 181.873C3.85916 183.278 3.12938 184.765 2.43682 186.242C1.61023 188.002 0.922642 189.787 0.443565 191.673C0.0712261 193.145 -0.0255871 194.642 0.00419998 196.154C0.0389519 198.03 0.500654 199.815 1.37938 201.478C2.38717 203.389 3.75986 205.127 5.16979 206.763C6.36376 208.145 7.59496 209.496 8.84851 210.824C11.1049 213.217 13.4159 215.55 15.908 217.7C16.5286 218.236 17.246 218.568 18.0751 218.568C18.0974 218.566 18.1197 218.566 18.1446 218.563Z" fill="black"/>
<path d="M111.346 218.486C113.119 218.439 114.953 217.89 116.385 216.831C117.17 216.252 117.825 215.599 118.391 214.807C118.979 213.986 119.334 213.008 119.56 212.032C120.069 209.818 119.704 207.435 119.289 205.233C118.649 201.833 117.14 198.698 115.606 195.62C114.03 192.457 112.27 189.394 110.453 186.363C109.557 184.864 108.611 183.392 107.673 181.915C106.789 180.515 105.855 179.125 104.892 177.78C103.979 176.499 103.098 175.183 102.142 173.935C101.137 172.616 100.166 171.266 99.1087 169.985C96.9268 167.344 94.663 164.76 92.5506 162.064C91.8928 161.225 91.2672 160.262 90.4282 159.6C89.0853 158.537 87.0176 158.964 86.0471 160.302C85.5655 160.965 85.3669 161.804 85.4885 162.613C85.6102 163.407 86.0272 164.065 86.6229 164.576C86.5609 164.524 86.4988 164.472 86.4343 164.418C86.3449 164.318 86.2556 164.224 86.1662 164.125C86.7694 164.815 87.318 165.559 87.8839 166.282C88.435 166.984 89.0084 167.672 89.5719 168.364C90.7584 169.826 92.0094 171.236 93.2059 172.688C95.5442 175.523 97.6963 178.487 99.831 181.476C101.487 183.943 103.157 186.403 104.684 188.952C106.372 191.767 107.99 194.607 109.537 197.504C110.512 199.46 111.446 201.418 112.282 203.439C112.429 203.878 112.575 204.317 112.721 204.757C112.865 205.189 112.96 205.641 113.064 206.087C113.205 206.854 113.33 207.614 113.436 208.383C113.474 208.887 113.503 209.386 113.506 209.895C113.486 210.166 113.456 210.434 113.419 210.704C113.402 210.779 113.384 210.856 113.364 210.93C113.347 210.98 113.327 211.027 113.31 211.077C113.272 211.141 113.235 211.208 113.198 211.273C113.171 211.31 113.146 211.347 113.119 211.384C113.066 211.439 113.017 211.496 112.965 211.551C112.898 211.608 112.831 211.662 112.761 211.715C112.644 211.784 112.53 211.854 112.416 211.923C112.285 211.983 112.151 212.037 112.016 212.089C112.004 212.092 111.992 212.094 111.982 212.097C112.019 212.084 112.056 212.07 112.093 212.057C112.002 212.079 111.91 212.104 111.818 212.129C111.681 212.154 111.545 212.176 111.406 212.194C111.096 212.211 110.79 212.219 110.48 212.219C109.991 212.184 109.507 212.129 109.023 212.055C108.313 211.911 107.615 211.729 106.915 211.546C105.813 211.186 104.738 210.786 103.664 210.339C101.943 209.538 100.283 208.656 98.6644 207.659C97.3389 206.81 96.053 205.911 94.7821 204.978C93.4045 203.965 91.3963 204.305 90.4009 205.68C89.3906 207.073 89.7257 209.051 91.1034 210.064C93.6303 211.921 96.2566 213.715 99.0764 215.103C102.765 216.915 106.764 218.494 110.932 218.494C111.073 218.491 111.21 218.489 111.346 218.486Z" fill="black"/>
<path d="M101.45 152.049C103.103 151.575 104.059 149.815 103.6 148.169C103.357 147.298 102.729 146.687 102.073 146.111C101.572 145.672 101.043 145.26 100.504 144.865C99.4817 144.115 98.4292 143.408 97.3544 142.733C96.647 142.283 95.8899 142.043 95.0434 142.172C94.2168 142.296 93.4647 142.758 92.9757 143.438C92.02 144.756 92.2335 146.903 93.6782 147.816C95.098 148.715 96.5005 149.653 97.8087 150.708C97.9353 150.82 98.0619 150.932 98.186 151.048C98.7842 151.746 99.6828 152.165 100.611 152.165C100.892 152.165 101.172 152.128 101.45 152.049Z" fill="black"/>
<path d="M83.6615 310.69C85.347 310.308 86.9977 309.488 88.3729 308.446C89.0455 307.939 89.6661 307.391 90.2048 306.743C90.8601 305.949 91.3243 305.11 91.7264 304.169C92.3618 302.687 92.3842 300.87 91.8629 299.358C91.6395 298.701 91.292 298.149 90.8973 297.583C90.4381 296.923 89.7307 296.417 89.1076 295.923C87.6629 294.776 85.9378 294.113 84.1381 293.793C80.6803 293.177 77.235 294.054 73.874 294.92C73.8814 294.007 73.8963 293.091 73.8963 292.177C73.8963 290.499 73.8715 288.816 73.8516 287.138C73.8119 283.973 73.7598 280.806 73.7077 277.643C73.5885 270.708 73.514 263.768 73.4048 256.832C73.3825 255.499 73.3626 254.166 73.313 252.836C73.2857 252.089 73.2683 251.341 73.2261 250.592C73.1665 249.517 73.2236 248.318 72.7892 247.313C72.3573 246.315 71.3445 245.513 70.2375 245.441C68.5321 245.329 66.9708 246.484 66.7896 248.234C66.7524 248.576 66.7797 248.919 66.8566 249.249C66.8616 249.279 66.8665 249.308 66.869 249.338C67.1123 252.801 67.1172 256.286 67.1743 259.759C67.224 262.934 67.2513 266.103 67.2935 269.276C67.3903 275.988 67.5293 282.692 67.5988 289.404C67.6261 291.8 67.6212 294.19 67.6013 296.586C67.5939 297.415 67.6559 298.306 67.9439 299.103C67.0229 299.88 66.5786 301.163 66.9261 302.377C67.0775 302.903 67.2488 303.414 67.4499 303.921C67.6981 304.546 68.1102 305.105 68.5073 305.638C69.0633 306.388 69.808 307.021 70.5676 307.552C71.8211 308.433 73.1417 309.106 74.5814 309.625C75.9615 310.121 77.3665 310.481 78.8062 310.732C79.6055 310.871 80.4222 310.953 81.2388 310.953C82.0605 310.95 82.8722 310.871 83.6615 310.69ZM81.1073 304.673C80.7126 304.648 80.3204 304.611 79.9282 304.561C79.1388 304.412 78.3644 304.233 77.5899 304.013C76.9495 303.797 76.3215 303.573 75.6984 303.32C75.3981 303.166 75.1002 303.007 74.8048 302.838C74.4648 302.615 74.1346 302.382 73.8094 302.133C73.7399 302.071 73.6729 302.007 73.6059 301.94C73.5066 301.821 73.4098 301.699 73.313 301.577C73.3055 301.565 73.2956 301.553 73.2882 301.538C73.5935 301.468 73.8938 301.386 74.1843 301.314C74.6062 301.213 75.0282 301.088 75.4477 300.977C76.031 300.823 76.6169 300.681 77.2027 300.542C78.4264 300.279 79.6527 300.024 80.9012 299.882C81.3232 299.86 81.7378 299.855 82.1598 299.862C82.4204 299.88 82.681 299.907 82.9392 299.944C83.2892 300.011 83.6317 300.091 83.9768 300.187C84.1332 300.242 84.2895 300.302 84.4459 300.369C84.5576 300.423 84.6693 300.483 84.7785 300.545C85.131 300.788 85.4711 301.041 85.8012 301.307C85.8484 301.352 85.898 301.399 85.9452 301.443C85.9452 301.456 85.9452 301.471 85.9477 301.483C85.9427 301.53 85.9403 301.577 85.9353 301.627C85.9229 301.689 85.9104 301.754 85.898 301.818C85.9303 301.714 85.9626 301.607 85.9948 301.501L85.9973 301.503C85.9427 301.704 85.8757 301.903 85.7988 302.096C85.7342 302.215 85.6672 302.337 85.6002 302.456C85.4984 302.605 85.3892 302.747 85.2725 302.886C85.2874 302.873 85.3023 302.858 85.3172 302.846C85.3023 302.861 85.2874 302.873 85.2725 302.886C85.2229 302.945 85.1707 303.005 85.1186 303.064C85.1608 303.012 85.2055 302.96 85.2477 302.908C85.2949 302.851 85.342 302.794 85.3892 302.737C85.28 302.846 85.1707 302.958 85.0615 303.069C84.92 303.191 84.7736 303.308 84.6246 303.417C84.2324 303.677 83.8328 303.916 83.4208 304.142C83.1477 304.268 82.8796 304.382 82.6016 304.489C82.4924 304.521 82.3856 304.554 82.2764 304.581C82.1076 304.613 81.9388 304.638 81.77 304.658C81.5516 304.67 81.3282 304.678 81.1073 304.673Z" fill="black"/>
<path d="M30.6189 307.009C32.3068 306.842 33.9749 306.43 35.5784 305.887C36.3876 305.611 37.0653 305.122 37.4774 304.358C37.7157 303.916 37.8423 303.417 37.8497 302.918C37.9788 302.898 38.1103 302.868 38.2419 302.831C39.0188 302.61 39.7437 302.193 40.2227 301.533C40.682 300.902 40.9128 300.175 41.0642 299.421C41.2181 298.641 41.2678 297.834 41.3522 297.045C41.4961 295.633 41.5781 294.215 41.6798 292.803C42.1539 286.185 42.71 279.577 43.4174 272.982C43.8096 269.355 44.2341 265.726 44.6536 262.102C45.0681 258.51 45.5 254.926 46.0337 251.352C46.1404 250.783 46.2372 250.21 46.3911 249.649C46.3787 249.693 46.3638 249.736 46.3514 249.78C46.756 248.236 45.9965 246.576 44.4525 245.99C42.8837 245.397 40.9699 246.196 40.4039 247.812C40.1557 248.517 40.0515 249.274 39.91 250.006C39.7263 250.972 39.6071 251.952 39.4607 252.923C39.2348 254.427 39.0635 255.944 38.8848 257.458C38.4703 260.95 38.0681 264.445 37.671 267.943C36.9263 274.486 36.2884 281.037 35.7795 287.602C35.6107 289.794 35.4816 291.994 35.3079 294.185C34.9653 293.873 34.6228 293.562 34.2752 293.257C32.977 292.108 31.6565 290.991 30.2987 289.911C28.9731 288.856 27.6476 287.818 26.193 286.94C24.7508 286.071 22.909 285.532 21.2409 285.979C19.6622 286.404 18.4608 287.364 17.4554 288.623C16.5494 289.762 15.9462 291.264 15.6359 292.674C15.3678 293.895 15.1941 295.106 15.2388 296.36C15.2884 297.807 15.8221 299.18 16.3682 300.498C16.8324 301.607 17.3983 302.697 18.2498 303.561C19.3866 304.713 20.8264 305.462 22.3331 306.018C23.3136 306.383 24.3536 306.557 25.3813 306.733C26.61 306.947 27.8512 307.083 29.0972 307.083C29.6036 307.083 30.1125 307.058 30.6189 307.009ZM28.8589 300.818C28.0721 300.771 27.2976 300.686 26.5182 300.572C25.91 300.466 25.3093 300.349 24.7111 300.195C24.4207 300.096 24.1377 299.989 23.8547 299.872C23.6015 299.748 23.3533 299.617 23.1051 299.475C23.0256 299.421 22.9462 299.363 22.8668 299.304C22.8196 299.262 22.7749 299.217 22.7302 299.175C22.698 299.135 22.6657 299.098 22.6359 299.056C22.5912 298.984 22.5466 298.909 22.5044 298.835C22.2388 298.276 21.998 297.708 21.7721 297.129C21.6877 296.871 21.6108 296.613 21.5412 296.35C21.5264 296.258 21.5115 296.169 21.5015 296.077C21.4966 295.973 21.4966 295.871 21.4966 295.767C21.5239 295.397 21.5685 295.032 21.6207 294.662C21.6877 294.352 21.7572 294.044 21.8366 293.736C21.9161 293.503 22.0029 293.272 22.0973 293.044C22.1966 292.85 22.2983 292.661 22.41 292.475C22.4622 292.401 22.5143 292.329 22.5689 292.259C22.5962 292.229 22.626 292.197 22.6533 292.167C22.6607 292.17 22.6707 292.175 22.6781 292.177C22.899 292.291 23.115 292.408 23.3285 292.532C25.0139 293.657 26.5877 294.95 28.154 296.236C29.3703 297.281 30.5667 298.346 31.7533 299.423C32.0487 299.691 32.3416 299.962 32.6345 300.232C32.2596 300.339 31.8823 300.436 31.5001 300.525C30.9292 300.639 30.3607 300.729 29.7848 300.793C29.4721 300.811 29.1667 300.816 28.8589 300.818Z" fill="black"/>
<path d="M137.314 108.927C138.592 108.914 139.813 108.743 141.062 108.465C142.129 108.229 143.169 107.792 144.15 107.323C145.108 106.867 146.022 106.313 146.883 105.692C148.675 104.404 150.187 102.838 151.492 101.061C152.86 99.1964 153.826 97.0766 154.436 94.8549C155.082 92.5067 155.005 89.9401 154.491 87.5794C154.004 85.3454 153.173 83.2305 151.845 81.3589C151.142 80.361 150.343 79.4599 149.437 78.6408C148.615 77.8986 147.704 77.288 146.766 76.7046C144.82 75.4958 142.601 74.6468 140.379 74.1206C139.151 73.8327 137.895 73.783 136.639 73.8054C135.747 73.8227 134.941 74.2323 134.38 74.8628C133.846 74.7312 133.29 74.7536 132.731 74.8827C131.175 75.2376 129.604 75.6249 128.124 76.228C126.667 76.8213 125.349 77.5983 124.071 78.5092C123.408 78.9809 122.817 79.5642 122.246 80.1376C121.348 81.0412 120.712 82.1284 120.094 83.2305C119.253 84.7273 118.627 86.3606 118.141 88.0039C117.848 88.9968 117.649 90.0071 117.515 91.0323C117.292 92.7401 117.51 94.4727 118.084 96.0886C118.374 96.9053 118.682 97.7021 119.064 98.4815C119.928 100.251 121.065 101.775 122.51 103.113C123.502 104.032 124.679 104.826 125.826 105.539C127.462 106.554 129.219 107.306 131.076 107.802C132.238 108.113 133.394 108.433 134.583 108.649C135.445 108.805 136.333 108.929 137.214 108.929C137.249 108.927 137.281 108.927 137.314 108.927ZM137.284 102.657C136.78 102.624 136.284 102.567 135.782 102.495C134.588 102.267 133.407 101.954 132.24 101.614C131.689 101.435 131.15 101.237 130.614 101.013C130.075 100.753 129.554 100.47 129.043 100.162C128.358 99.7077 127.685 99.2361 127.035 98.7322C126.729 98.4666 126.436 98.1961 126.149 97.9056C125.908 97.6301 125.679 97.3496 125.458 97.0592C125.255 96.7464 125.066 96.4312 124.883 96.106C124.637 95.5947 124.406 95.0808 124.188 94.5521C124.046 94.145 123.91 93.7404 123.793 93.3234C123.771 93.2067 123.753 93.0925 123.738 92.9759C123.721 92.673 123.718 92.3727 123.723 92.0674C123.743 91.8067 123.771 91.5461 123.81 91.2854C123.944 90.5879 124.121 89.9078 124.317 89.2276C124.53 88.6418 124.751 88.066 124.989 87.4925C125.357 86.7181 125.746 85.9585 126.186 85.2188C126.297 85.0575 126.414 84.9011 126.536 84.7447C126.722 84.5387 126.918 84.3401 127.114 84.144C127.501 83.8089 127.896 83.4936 128.311 83.1908C128.74 82.9202 129.174 82.6646 129.619 82.4263C130.09 82.2128 130.562 82.0167 131.046 81.8355C132.173 81.4756 133.312 81.1802 134.462 80.917C135.065 80.778 135.574 80.438 135.953 79.9862C136.219 80.0557 136.497 80.0904 136.783 80.0855C137.142 80.078 137.502 80.0756 137.862 80.0855C138.066 80.1004 138.269 80.1227 138.47 80.15C138.957 80.2443 139.431 80.356 139.91 80.4826C140.588 80.706 141.248 80.9617 141.906 81.2447C142.611 81.5798 143.296 81.9447 143.966 82.3493C144.309 82.5826 144.641 82.8234 144.969 83.0766C145.326 83.3894 145.667 83.7121 145.997 84.0546C146.265 84.3748 146.518 84.695 146.761 85.0301C146.98 85.3702 147.186 85.7128 147.384 86.0652C147.585 86.4847 147.767 86.9067 147.933 87.3386C148.107 87.8847 148.256 88.4333 148.385 88.9893C148.467 89.4585 148.534 89.9252 148.583 90.3993C148.606 90.8535 148.611 91.2978 148.603 91.7496C148.586 91.9978 148.561 92.2461 148.526 92.4943C148.442 92.9262 148.342 93.3532 148.228 93.7801C148.064 94.2766 147.878 94.7581 147.67 95.2372C147.412 95.756 147.136 96.2549 146.838 96.7514C146.478 97.295 146.098 97.8138 145.691 98.3227C145.277 98.7968 144.845 99.246 144.388 99.678C143.976 100.03 143.557 100.363 143.122 100.683C142.616 101.016 142.102 101.324 141.571 101.612C141.129 101.82 140.685 102.009 140.23 102.183C139.833 102.304 139.439 102.411 139.036 102.505C138.731 102.562 138.423 102.607 138.113 102.637C137.838 102.649 137.559 102.657 137.284 102.657Z" fill="black"/>
<path d="M166.048 96.5998C168.279 96.4359 170.469 96.1306 172.651 95.6342C177.139 94.6115 181.411 92.576 184.935 89.6122C186.663 88.1601 188.214 86.4945 189.681 84.7842C191.315 82.8803 192.499 80.7083 193.591 78.4718C193.976 77.6824 194.306 76.8683 194.641 76.0566C195.157 74.7956 195.48 73.4949 195.753 72.1669C196.441 68.8183 196.848 65.3704 196.937 61.9524C197.031 58.4846 197.049 55.012 196.781 51.5517C196.508 48.0244 196.004 44.5443 195.227 41.0939C194.301 36.9883 193.167 32.9 191.476 29.0351C190.039 25.7461 188.165 22.6234 185.918 19.8234C185.295 19.0465 184.685 18.2571 184.029 17.5099C182.451 15.7078 180.728 14.0397 178.886 12.5082C177.737 11.55 176.558 10.6366 175.307 9.80997C174.455 9.24898 173.626 8.62097 172.735 8.11955C171.921 7.66281 171.107 7.20608 170.295 6.74686C169.657 6.38693 169.009 6.08161 168.341 5.77381C167.52 5.39155 166.703 4.94722 165.859 4.62205C164.961 4.27453 164.06 3.92701 163.161 3.57701C159.552 2.1795 155.764 1.32312 151.934 0.791915C150.774 0.63305 149.615 0.526316 148.451 0.424543C147.582 0.347593 146.709 0.235889 145.837 0.196173C144.162 0.121705 142.479 7.28976e-05 140.803 7.28976e-05C139.053 7.28976e-05 137.313 -0.00489056 135.566 0.067095C133.756 0.141563 131.964 0.250784 130.157 0.392273C128.317 0.536244 126.495 0.759646 124.666 0.980567C122.986 1.18163 121.32 1.49688 119.652 1.77738C118.031 2.04794 116.432 2.46992 114.829 2.82737C113.722 3.07559 112.627 3.44545 111.55 3.79793C110.517 4.13552 109.502 4.52276 108.492 4.92488C107.313 5.39651 106.183 5.95006 105.044 6.5036C100.447 8.74508 96.1052 11.4805 92.3619 14.988C88.8272 18.2968 85.3371 21.8415 83.319 26.312C82.3013 28.5709 81.5616 30.9142 80.9758 33.3195C80.5662 35.0049 80.3403 36.74 80.102 38.4602C79.8885 39.9868 79.6949 41.5184 79.5956 43.0549C79.4864 44.7155 79.3772 46.401 79.5212 48.0666C79.5981 48.9453 79.6627 49.824 79.7893 50.7003C79.9183 51.6237 80.0722 52.5347 80.2435 53.4531C80.5538 55.1435 80.9807 56.8066 81.4325 58.4648C81.8545 60.0212 82.3832 61.58 82.9492 63.0867C83.5797 64.7573 84.2598 66.3857 85.0169 68.0016C86.4591 71.0747 88.358 73.9119 90.4382 76.5828C92.5133 79.2487 94.9608 81.5771 97.5275 83.7615C100.109 85.9583 102.964 87.8051 105.992 89.3243C109.705 91.1909 113.672 92.5785 117.597 93.9239C119.213 94.4774 121.022 93.7402 121.643 92.1019C122.233 90.5431 121.439 88.6094 119.821 88.0558C116.552 86.9338 113.29 85.7597 110.13 84.3573C108.718 83.687 107.342 82.9647 105.992 82.1753C104.508 81.2147 103.09 80.187 101.703 79.0899C100.901 78.4097 100.089 77.7321 99.3346 76.9998C98.5005 76.1906 97.6888 75.3665 96.8895 74.525C96.3037 73.8399 95.7254 73.1598 95.1693 72.4498C94.6084 71.7275 94.0722 70.9878 93.5385 70.2456C93.0247 69.4537 92.5133 68.6669 92.0367 67.8502C91.6172 67.1303 91.23 66.3981 90.8453 65.6584C90.0807 64.03 89.3857 62.3868 88.7477 60.7038C88.3158 59.4453 87.9062 58.1868 87.5091 56.9158C87.1144 55.6598 86.8364 54.369 86.5484 53.0832C86.3002 51.7379 86.0793 50.4024 85.8882 49.0471C85.9006 49.1786 85.913 49.3152 85.9229 49.4467C85.8584 48.6971 85.7814 47.9499 85.7566 47.1978C85.7343 46.4283 85.7392 45.6662 85.7541 44.8992C85.9204 42.3897 86.2258 39.9124 86.5758 37.4202C86.7446 36.4397 86.9109 35.4641 87.1467 34.4961C87.4098 33.4212 87.7226 32.3737 88.0453 31.3113C88.0055 31.4404 87.9658 31.572 87.9286 31.701C88.2687 30.7205 88.6435 29.7649 89.0605 28.8166C89.4105 28.0918 89.7903 27.3893 90.2073 26.7018C90.6392 26.0514 91.1034 25.4333 91.5899 24.8227C92.5332 23.7379 93.4839 22.683 94.4818 21.6429C95.4101 20.6723 96.4055 19.7713 97.391 18.8553C98.5179 17.8922 99.6747 16.9713 100.884 16.1124C102.599 14.9557 104.386 13.9454 106.181 12.9178C106.901 12.5653 107.62 12.2153 108.343 11.8653C109.725 11.1926 111.135 10.6018 112.575 10.0681C114.171 9.5121 115.787 9.02557 117.44 8.6582C118.381 8.44721 119.322 8.2387 120.263 8.03019C121.762 7.77948 123.259 7.52877 124.755 7.28055C125.413 7.17133 126.083 7.1192 126.744 7.03977C127.58 6.94048 128.417 6.8387 129.251 6.73941C131.204 6.58551 133.155 6.4341 135.114 6.35467C137.259 6.26779 139.393 6.26282 141.543 6.26282C142.844 6.31495 144.152 6.33481 145.445 6.44899C147.97 6.6724 150.474 6.88091 152.979 7.27559C154.87 7.61565 156.734 8.05998 158.579 8.60856C160.279 9.15466 161.93 9.81742 163.595 10.4628C164.616 10.9369 165.633 11.4135 166.654 11.8876C167.145 12.1185 167.614 12.4263 168.088 12.6919C168.61 12.9873 169.131 13.2802 169.655 13.5756C170.312 14.0124 170.973 14.4493 171.628 14.8837C172.785 15.6507 173.879 16.4873 174.949 17.3709C176.322 18.55 177.623 19.7936 178.856 21.1192C180.105 22.5216 181.289 24.0035 182.376 25.5376C183.292 26.8929 184.119 28.2954 184.873 29.7475C185.588 31.1897 186.216 32.6592 186.772 34.1709C187.343 35.8017 187.842 37.4574 188.291 39.1255C188.703 40.6471 189.048 42.1811 189.396 43.7226C189.595 44.8396 189.793 45.9567 189.992 47.0737C190.178 48.1286 190.265 49.2084 190.396 50.2708C190.545 52.202 190.697 54.1307 190.714 56.0694C190.729 58.1495 190.712 60.2197 190.659 62.3023C190.573 63.5286 190.498 64.7523 190.357 65.9736C190.203 67.2991 190.012 68.6147 189.806 69.9353C189.619 70.8388 189.446 71.7424 189.202 72.6335C188.875 73.6339 188.458 74.5995 188.028 75.5626C187.482 76.6821 186.924 77.7842 186.278 78.8491C185.886 79.4374 185.476 80.0058 185.047 80.5644C184.657 81.0285 184.278 81.5051 183.853 81.9346C183.019 82.781 182.19 83.625 181.324 84.4367C180.683 85.0002 180.018 85.5289 179.328 86.0353C178.628 86.5044 177.913 86.9314 177.168 87.331C176.101 87.8572 175.019 88.3289 173.907 88.7459C172.819 89.1108 171.72 89.4136 170.603 89.6718C169.334 89.9299 168.058 90.0938 166.773 90.2625C165.43 90.3594 164.094 90.4487 162.749 90.5033C161.361 90.5604 159.984 90.553 158.596 90.548C157.069 90.4611 155.548 90.3743 154.036 90.1459C153.761 90.0913 153.49 90.0317 153.217 89.9622C153.152 89.9374 153.088 89.915 153.023 89.8902C152.994 89.8753 152.966 89.8604 152.939 89.843C151.462 88.9842 149.479 89.6544 148.689 91.1214C147.86 92.6629 148.491 94.5147 149.97 95.371C151.698 96.3764 153.85 96.4583 155.794 96.6618C157.591 96.853 159.418 96.8182 161.222 96.8257C161.269 96.8257 161.317 96.8257 161.364 96.8257C162.925 96.8306 164.494 96.7139 166.048 96.5998Z" fill="black"/>
<path d="M133.371 51.9837C132.693 51.4451 132.331 50.6979 132.204 49.8564C131.973 48.3298 131.708 46.7859 131.601 45.2444C131.494 43.6806 131.976 42.0994 133.291 41.1437C133.917 40.6894 134.684 40.4685 135.449 40.4511C135.794 40.4412 136.139 40.4487 136.484 40.4387C137.042 40.4089 137.593 40.3618 138.147 40.2823C138.663 40.188 139.169 40.0738 139.678 39.9348C140.309 39.7362 140.927 39.5178 141.542 39.2721C141.955 39.0685 142.359 38.8575 142.764 38.6341C143.148 38.376 143.518 38.1104 143.888 37.8324C144.628 37.1621 145.333 36.4646 146.028 35.7473C146.321 35.4022 146.599 35.0522 146.864 34.6898C147.095 34.3249 147.311 33.9575 147.515 33.5778C147.646 33.3047 147.765 33.0267 147.875 32.7437C148.053 32.2125 148.205 31.6788 148.339 31.1327C148.446 30.5171 148.542 29.909 148.607 29.2909C148.622 29.0203 148.629 28.7498 148.627 28.4767C148.604 28.1069 148.567 27.7444 148.518 27.3746C148.376 26.6249 148.21 25.8852 148.006 25.1505C147.919 24.8923 147.82 24.6342 147.713 24.3835C147.624 24.2023 147.53 24.0235 147.428 23.8523C147.348 23.7331 147.264 23.6164 147.177 23.5047C147.065 23.3806 146.949 23.259 146.827 23.1423C146.683 23.0182 146.534 22.8966 146.38 22.7824C146.259 22.7005 146.132 22.626 146.006 22.5516C145.673 22.3977 145.338 22.2586 144.995 22.1271C144.774 22.0551 144.551 21.9906 144.325 21.936C143.394 21.7548 142.463 21.6232 141.525 21.504C141.076 21.4767 140.631 21.4643 140.182 21.4668C139.77 21.4941 139.366 21.5363 138.953 21.5909C138.348 21.6977 137.75 21.8168 137.159 21.9806C136.881 22.0799 136.61 22.1891 136.34 22.3058C136.116 22.415 135.895 22.5342 135.677 22.6583C134.82 23.2069 133.986 23.7828 133.19 24.4182C132.922 24.6565 132.661 24.8998 132.403 25.1555C132.164 25.431 131.936 25.7115 131.718 26.0044C131.616 26.1632 131.519 26.3246 131.43 26.4884C131.134 27.0842 130.866 27.6898 130.618 28.3104C130.526 28.5909 130.447 28.8689 130.375 29.1544C130.375 29.1668 130.372 29.1767 130.37 29.1891C130.352 30.887 128.831 32.2622 127.163 32.2249C125.425 32.1852 124.1 30.7256 124.1 29.0154C124.1 27.7891 124.559 26.5877 124.998 25.4632C125.572 23.9987 126.354 22.6285 127.346 21.4048C128.344 20.176 129.628 19.1881 130.921 18.287C131.971 17.5548 133.056 16.9168 134.222 16.3856C135.461 15.8221 136.861 15.5491 138.209 15.3629C139.859 15.1321 141.485 15.1768 143.139 15.3803C144.216 15.5119 145.283 15.7154 146.338 15.9736C148.354 16.4651 150.119 17.5821 151.581 19.0168C152.963 20.3721 153.693 22.2438 154.219 24.0633C154.629 25.4806 154.907 27.042 154.897 28.509C154.892 29.8767 154.738 31.242 154.435 32.5749C154.192 33.6448 153.864 34.665 153.45 35.6778C152.986 36.8072 152.311 37.8348 151.606 38.8277C151.015 39.6593 150.26 40.4338 149.525 41.1437C148.853 41.794 148.18 42.4394 147.438 43.0079C146.107 44.0306 144.655 44.7777 143.104 45.4057C141.91 45.8873 140.622 46.2075 139.356 46.4259C138.919 46.5029 138.487 46.555 138.052 46.5947C138.172 47.4635 138.313 48.3323 138.442 49.1961C138.698 50.8866 137.293 52.4727 135.65 52.644C135.54 52.6564 135.434 52.6614 135.324 52.6614C134.622 52.6663 133.927 52.4281 133.371 51.9837Z" fill="black"/>
<path d="M145.023 56.819C144.981 55.0814 143.523 53.7559 141.811 53.7559C140.103 53.7559 138.71 55.2849 138.748 56.9654C138.79 58.703 140.247 60.0285 141.96 60.0285C143.667 60.0285 145.06 58.4995 145.023 56.819Z" fill="black"/>
<path d="M134.812 138.547C135.795 138.324 136.668 137.972 137.552 137.492C138.411 137.028 139.208 136.333 139.898 135.653C141.288 134.288 142.581 132.736 143.326 130.914C143.708 129.976 144.008 128.996 144.137 127.985C144.291 126.739 144.269 125.528 144.15 124.279C143.966 122.338 143.152 120.462 141.98 118.925C141.069 117.724 139.734 116.977 138.475 116.192C137.031 115.291 135.427 114.76 133.744 114.544C133.022 114.45 132.21 114.477 131.458 114.661C130.795 114.137 129.931 113.871 129.053 114.015C128.204 114.152 127.367 114.328 126.561 114.626C125.813 114.904 125.108 115.246 124.413 115.641C123.453 116.19 122.579 116.895 121.832 117.706C120.809 118.813 120.253 120.171 119.801 121.586C119.28 123.234 119.014 124.92 119.089 126.648C119.166 128.407 119.819 130.063 120.658 131.587C121.626 133.34 123.058 134.797 124.6 136.045C126.072 137.237 127.834 138.034 129.661 138.493C130.517 138.709 131.428 138.816 132.339 138.816C133.181 138.818 134.02 138.726 134.812 138.547ZM132.208 132.525C131.93 132.506 131.654 132.478 131.376 132.439C131.101 132.379 130.83 132.312 130.559 132.238C130.373 132.173 130.19 132.104 130.008 132.029C129.703 131.88 129.408 131.721 129.112 131.552C128.777 131.329 128.452 131.093 128.134 130.843C127.807 130.55 127.494 130.249 127.186 129.934C126.93 129.634 126.69 129.328 126.454 129.013C126.26 128.718 126.079 128.417 125.905 128.11C125.784 127.849 125.669 127.588 125.565 127.32C125.516 127.164 125.471 127.005 125.431 126.844C125.399 126.68 125.374 126.513 125.354 126.347C125.344 126.178 125.342 126.012 125.342 125.843C125.369 125.466 125.409 125.096 125.463 124.721C125.54 124.361 125.627 124.006 125.727 123.651C125.866 123.219 126.007 122.793 126.181 122.373C126.216 122.306 126.25 122.241 126.288 122.174C126.337 122.102 126.387 122.033 126.439 121.963C126.511 121.884 126.583 121.807 126.66 121.73C126.819 121.594 126.983 121.465 127.149 121.338C127.395 121.182 127.64 121.03 127.891 120.884C128.184 120.745 128.477 120.613 128.78 120.494C128.983 120.434 129.187 120.377 129.395 120.328C129.557 120.298 129.718 120.268 129.882 120.241C130.703 120.909 131.83 121.122 132.851 120.799C132.858 120.797 132.868 120.797 132.875 120.794C132.952 120.792 133.029 120.789 133.106 120.789C133.228 120.804 133.352 120.822 133.474 120.837C133.6 120.864 133.727 120.894 133.853 120.928C134.05 120.995 134.243 121.067 134.434 121.147C135.057 121.457 135.646 121.81 136.234 122.177C136.44 122.306 136.636 122.445 136.827 122.591C136.897 122.661 136.969 122.728 137.041 122.8C137.1 122.872 137.16 122.944 137.217 123.021C137.296 123.145 137.371 123.272 137.443 123.401C137.559 123.649 137.664 123.902 137.751 124.16C137.746 124.14 137.741 124.118 137.738 124.098C137.743 124.121 137.748 124.143 137.753 124.163C137.773 124.217 137.79 124.274 137.808 124.329C137.793 124.284 137.775 124.237 137.761 124.193C137.763 124.207 137.765 124.222 137.77 124.237C137.768 124.222 137.763 124.207 137.761 124.193C137.731 124.113 137.703 124.029 137.674 123.949C137.716 124.108 137.763 124.267 137.808 124.428C137.882 124.808 137.937 125.188 137.979 125.573C137.996 125.866 137.999 126.163 137.994 126.459C137.976 126.717 137.952 126.973 137.917 127.226C137.867 127.484 137.808 127.737 137.738 127.993C137.679 128.172 137.612 128.348 137.537 128.524C137.433 128.74 137.321 128.951 137.202 129.16C136.976 129.5 136.738 129.825 136.485 130.147C136.147 130.532 135.797 130.897 135.432 131.257C135.139 131.513 134.844 131.754 134.531 131.989C134.422 132.059 134.313 132.123 134.201 132.188C134.084 132.238 133.965 132.285 133.846 132.334C133.652 132.394 133.454 132.446 133.253 132.486C133.243 132.486 133.233 132.488 133.223 132.488C133.307 132.471 133.389 132.453 133.474 132.434C133.31 132.456 133.144 132.481 132.98 132.506C132.724 132.516 132.468 132.525 132.208 132.525Z" fill="black"/>
</svg>
