<svg width="138" height="160" viewBox="0 0 138 160" fill="none" xmlns="http://www.w3.org/2000/svg">
<path d="M16.2308 69.3605C15.7599 68.8045 15.7973 67.8813 16.3885 67.4164C17.413 66.6117 18.4566 65.828 19.4899 65.0342C20.8256 64.0084 22.1629 62.9817 23.4986 61.9558C25.9388 60.0825 28.3775 58.2101 30.8167 56.3354C35.4636 52.7653 40.1114 49.1968 44.7591 45.6283C49.5689 41.933 54.3772 38.2387 59.1877 34.5461C64.0437 30.8164 68.8991 27.084 73.756 23.3558C77.8495 20.2143 81.94 17.0696 86.0326 13.9266C86.3292 13.6982 86.6687 13.5699 87.0478 13.6029C87.4054 13.6357 87.7443 13.8096 87.9759 14.0828C88.444 14.6343 88.4151 15.5697 87.8182 16.0269C83.5564 19.3 79.2959 22.5734 75.0326 25.8473C70.1473 29.599 65.2616 33.3519 60.3763 37.1037C55.5499 40.8101 50.7244 44.518 45.8968 48.2242C41.2567 51.787 36.6173 55.3525 31.9754 58.9174C29.6511 60.7034 27.3256 62.4892 25.0001 64.2749C23.7339 65.2479 22.4678 66.221 21.2019 67.1928C20.1923 67.9669 19.1734 68.7325 18.1735 69.5191C17.8133 69.8018 17.3557 69.9004 16.9396 69.8004C16.6744 69.7353 16.4258 69.5908 16.2308 69.3605Z" fill="black"/>
<path d="M117.656 96.3438C115.565 90.8777 113.476 85.4107 111.385 79.9444C109.12 74.0291 106.861 68.1138 104.599 62.1992C102.446 56.5714 100.295 50.9427 98.1422 45.3149C96.0304 39.7906 93.915 34.2654 91.8046 28.7401C90.0908 24.2538 88.382 19.7674 86.6595 15.2854C86.3893 14.5842 86.75 13.7729 87.4513 13.5026C88.1525 13.2324 88.965 13.5934 89.234 14.2944C91.3847 19.8888 93.5154 25.4923 95.6565 31.0895C97.7579 36.5784 99.8551 42.0689 101.954 47.5573C104.213 53.4636 106.469 59.3705 108.729 65.2757C110.888 70.9177 113.043 76.5613 115.202 82.2045C116.879 86.5871 118.556 90.9708 120.231 95.3543C120.5 96.0576 120.141 96.8656 119.439 97.1371C119.175 97.2391 118.893 97.2511 118.632 97.1881C118.2 97.0843 117.823 96.7799 117.656 96.3438Z" fill="black"/>
<path d="M20.5707 138.096C19.8564 137.805 19.5572 137.003 19.8152 136.299C19.8787 136.125 19.9386 135.949 19.9984 135.774C19.9799 135.83 19.9601 135.886 19.9418 135.941C20.3501 134.706 20.7093 133.454 21.08 132.208C21.4796 130.862 21.8815 129.517 22.2778 128.169C22.7004 126.732 23.1266 125.297 23.5113 123.85C23.9144 122.337 24.2826 120.816 24.6406 119.291C25.5511 115.416 26.3645 111.518 27.1525 107.616C27.4326 106.151 27.7091 104.686 27.9772 103.219C28.2544 101.698 28.4919 100.169 28.7374 98.6432C29.2129 95.6827 29.5912 92.7052 29.9789 89.7311C30.2926 87.3223 30.5881 84.9105 30.8818 82.5007C31.1693 80.1325 31.3866 77.7562 31.5866 75.3783C31.5827 75.4368 31.5784 75.4965 31.5757 75.5552C31.6818 73.92 31.7921 72.2832 31.821 70.6433C31.8383 69.6773 31.8413 68.713 31.8359 67.7466C31.8313 66.9612 31.7906 66.1786 31.7579 65.3941C31.7033 64.7321 31.6621 64.067 31.5766 63.4077C31.4712 62.5994 31.3522 61.7954 31.2194 60.9907C31.1177 60.4615 31.022 59.9287 30.8682 59.4111C30.6498 59.0411 30.6011 58.5652 30.7648 58.1631C30.9035 57.8234 31.1769 57.5488 31.5169 57.408C31.8598 57.2653 32.217 57.2842 32.562 57.4064C33.0914 57.5932 33.3559 58.1235 33.5102 58.6235C33.6806 59.1717 33.7784 59.7379 33.89 60.2998C34.0293 61.0087 34.1408 61.7236 34.2331 62.4389C34.3372 63.2419 34.4091 64.0421 34.4784 64.8481C34.5432 65.62 34.5561 66.3972 34.5866 67.1698C34.6158 67.8738 34.5974 68.5815 34.6028 69.2848C34.608 69.9627 34.5939 70.6474 34.5648 71.326C34.4986 72.8266 34.4386 74.3275 34.3137 75.8254C33.8015 81.952 32.9956 88.0483 32.1765 94.1415C31.7764 97.1252 31.3094 100.098 30.7994 103.065C30.2917 106.023 29.6979 108.965 29.0898 111.904C28.4873 114.809 27.8439 117.705 27.1644 120.594C26.8236 122.042 26.4616 123.484 26.0778 124.922C25.7012 126.336 25.2767 127.738 24.8621 129.141C24.4175 130.648 23.9707 132.153 23.5213 133.659C23.1544 134.89 22.8076 136.132 22.3665 137.34C22.1312 137.982 21.3959 138.31 20.755 138.155C20.6941 138.141 20.6318 138.121 20.5707 138.096Z" fill="black"/>
<path d="M101.188 101.67C100.522 101.293 100.314 100.453 100.667 99.7902C102.15 97.0136 103.661 94.2541 105.174 91.4951C105.866 90.2335 106.572 88.9753 107.358 87.7703C107.797 87.0932 108.233 86.4163 108.69 85.7507C109.139 85.0949 109.602 84.4509 110.067 83.8052C110.528 83.166 111.021 82.542 111.524 81.9332C111.795 81.6039 112.068 81.2736 112.348 80.9513C112.482 80.7989 112.611 80.6376 112.773 80.512C113.074 80.2773 113.43 80.2034 113.805 80.2305C114.555 80.2843 115.087 81.0661 114.993 81.7784C114.95 82.1033 114.79 82.4051 114.548 82.6226C114.483 82.6903 114.421 82.7627 114.359 82.8352C114.375 82.8174 114.389 82.8006 114.404 82.7841C113.694 83.6238 113.015 84.4851 112.349 85.3608C111.707 86.2033 111.117 87.0846 110.519 87.9589C110.551 87.9085 110.583 87.8592 110.616 87.8088C109.975 88.7956 109.321 89.7781 108.735 90.7996C108.1 91.9092 107.479 93.0247 106.865 94.1469C105.591 96.4766 104.317 98.8075 103.066 101.149C102.773 101.699 102.113 101.944 101.532 101.805C101.414 101.777 101.297 101.733 101.188 101.67Z" fill="black"/>
<path d="M88.0459 153.613C88.0225 152.432 88.1198 151.244 88.2006 150.067C88.2946 148.708 88.4214 147.35 88.5652 145.994C88.8577 143.211 89.2556 140.447 89.7365 137.69C90.2455 134.774 90.8047 131.871 91.455 128.983C92.0991 126.131 92.8523 123.299 93.6617 120.491C94.4488 117.76 95.2847 115.047 96.1873 112.351C96.1813 112.371 96.174 112.39 96.1682 112.409C97.406 108.709 98.7704 105.045 100.206 101.417C100.483 100.718 101.313 100.381 102.004 100.662C102.704 100.947 103.036 101.761 102.759 102.459C101.34 106.046 100.023 109.671 98.7651 113.318C98.7837 113.262 98.8035 113.206 98.8206 113.151C98.6309 113.719 98.4412 114.287 98.2501 114.855C97.338 117.596 96.5331 120.38 95.7754 123.167C94.9984 126.025 94.2506 128.897 93.6505 131.797C93.5848 132.118 93.5182 132.437 93.4515 132.756C93.4589 132.72 93.4652 132.684 93.4726 132.648C92.9155 135.485 92.3897 138.328 91.9527 141.187C91.5337 143.923 91.235 146.68 91.0083 149.437C90.9745 149.856 90.9442 150.276 90.9149 150.698C90.9189 150.64 90.9231 150.58 90.9271 150.521C90.8593 151.55 90.7818 152.587 90.803 153.62C90.8175 154.369 90.1579 154.998 89.4197 154.996C89.3111 154.995 89.2066 154.982 89.1061 154.958C88.5011 154.813 88.0589 154.259 88.0459 153.613Z" fill="black"/>
<path d="M87.874 155.561C82.3209 154.169 76.7663 152.777 71.2133 151.385C65.3095 149.904 59.4043 148.425 53.5006 146.944C47.7517 145.503 42.0028 144.062 36.2555 142.621C31.1879 141.35 26.1226 140.07 21.0525 138.81C20.3222 138.628 19.8826 137.842 20.0721 137.122C20.2678 136.388 21.029 135.962 21.7597 136.143C27.5422 137.581 33.3202 139.042 39.1002 140.491C45.058 141.983 51.0156 143.476 56.9716 144.971C62.6903 146.406 68.4096 147.838 74.1283 149.273C78.9468 150.48 83.7635 151.689 88.5809 152.895C89.3109 153.079 89.7511 153.862 89.5615 154.582C89.3673 155.311 88.6129 155.739 87.8883 155.565C87.8836 155.564 87.8787 155.562 87.874 155.561Z" fill="black"/>
<path d="M39.6839 141.769C39.7637 141.148 39.9243 140.528 40.0539 139.915C40.1993 139.227 40.3494 138.539 40.5031 137.853C40.8324 136.384 41.1533 134.913 41.505 133.451C42.2256 130.454 43.009 127.475 43.8475 124.51C44.6267 121.754 45.4952 119.021 46.3842 116.297C47.3245 113.413 48.2973 110.536 49.3801 107.701C50.4721 104.843 51.6474 102.023 52.8892 99.2266C53.4938 97.8643 54.1491 96.523 54.8136 95.1903C55.4618 93.889 56.1222 92.5895 56.8533 91.3323C57.2346 90.6777 57.6319 90.0409 58.0396 89.4028C58.4611 88.744 58.9544 88.134 59.448 87.528C60.5216 86.2089 61.893 85.0614 63.44 84.3406C63.8273 84.1605 64.2231 83.9926 64.6322 83.8696C65.0712 83.7374 65.514 83.6478 65.965 83.5818C66.9781 83.4346 68.0439 83.505 69.05 83.666C69.855 83.7951 70.6703 84.0342 71.3911 84.4187C71.7675 84.6206 72.1233 84.8504 72.4598 85.1134C72.8689 85.4319 73.2195 85.8147 73.5601 86.2027C74.4644 87.2335 74.9837 88.5246 75.4779 89.7831C75.7468 90.4688 75.9313 91.1849 76.1086 91.8991C76.1839 92.2069 76.2504 92.5138 76.3066 92.8271C76.377 93.2235 76.465 93.6203 76.5196 94.0192C76.6265 94.795 76.7315 95.5678 76.811 96.3471C76.8874 97.0864 76.9435 97.826 77.0056 98.567C77.1315 100.095 77.1838 101.634 77.2124 103.166C77.2676 106.098 77.1925 109.039 76.9762 111.964C76.8634 113.49 76.7414 115.012 76.582 116.532C76.4183 118.107 76.2382 119.681 76.0561 121.254C75.7176 124.165 75.3849 127.079 75.0597 129.994C74.7331 132.898 74.4478 135.809 74.0869 138.709C73.9108 140.125 73.7227 141.538 73.5087 142.949C73.3203 144.195 73.1151 145.437 72.9318 146.683C72.8384 147.313 72.7564 147.944 72.7 148.578C72.6337 149.327 71.873 149.86 71.1521 149.765C70.3846 149.664 69.8985 148.966 69.9648 148.217C70.0686 147.044 70.2598 145.881 70.442 144.718C70.6477 143.4 70.8569 142.083 71.0383 140.761C71.4283 137.914 71.7237 135.055 72.0387 132.199C72.3646 129.251 72.6878 126.303 73.033 123.358C73.3901 120.327 73.7555 117.298 74.0298 114.259C74.1131 113.339 74.1791 112.418 74.2487 111.497C74.3532 109.638 74.4264 107.782 74.4628 105.922C74.4993 104.071 74.435 102.219 74.3584 100.37C74.2803 99.1435 74.1993 97.9186 74.0747 96.6958C74.0039 96.0173 73.9179 95.3439 73.8238 94.6674C73.7472 94.1076 73.6379 93.5526 73.5365 92.9957C73.4396 92.5993 73.3415 92.2026 73.2443 91.8073C73.1681 91.4981 73.0542 91.1936 72.95 90.8903C72.9507 90.893 72.9522 90.8972 72.9528 90.8998C72.7452 90.3693 72.5409 89.8407 72.3007 89.3251C72.1377 89.0089 71.9622 88.7023 71.7701 88.4019C71.6254 88.1989 71.4722 88.0051 71.3115 87.816C71.1672 87.6637 71.0201 87.5183 70.866 87.375C70.7413 87.2729 70.6158 87.1744 70.4843 87.0795C70.3457 86.993 70.2045 86.9123 70.06 86.8345C69.8743 86.7494 69.6863 86.6738 69.4945 86.6037C69.266 86.5335 69.037 86.4759 68.8042 86.4237C68.4695 86.3635 68.1357 86.3211 67.7963 86.2914C67.4379 86.2722 67.0817 86.27 66.7221 86.2822C66.4627 86.3033 66.2062 86.3339 65.9489 86.3783C65.7563 86.4218 65.5664 86.4697 65.3769 86.5266C65.0957 86.6284 64.8205 86.7419 64.549 86.8663C64.2215 87.0342 63.9066 87.2178 63.6006 87.4174C63.2683 87.6524 62.9514 87.9025 62.643 88.1699C62.312 88.4786 61.9981 88.8003 61.6956 89.1373C61.48 89.403 61.2634 89.6671 61.0478 89.9327C60.8038 90.232 60.592 90.5655 60.3681 90.881C60.0784 91.3338 59.7868 91.7835 59.5159 92.2471C59.1731 92.8363 58.8425 93.4271 58.5177 94.0257C57.9422 95.0826 57.412 96.1618 56.8752 97.2368C56.2363 98.5732 55.6058 99.9116 55.0056 101.266C54.4085 102.612 53.8417 103.97 53.2773 105.328C52.1134 108.122 51.0998 110.979 50.1077 113.837C49.8989 114.437 49.7003 115.042 49.4975 115.643C49.5053 115.621 49.5123 115.598 49.5201 115.575C49.5117 115.6 49.5047 115.624 49.4963 115.648C49.4862 115.68 49.4748 115.711 49.4647 115.743C49.4742 115.714 49.485 115.685 49.4949 115.654C47.6622 121.249 45.9245 126.881 44.5474 132.608C43.8204 135.63 43.1138 138.663 42.4971 141.711C42.47 141.85 42.4415 141.99 42.423 142.13C42.3274 142.874 41.6178 143.416 40.8751 143.317C40.8285 143.311 40.7813 143.302 40.7359 143.291C40.0588 143.129 39.593 142.468 39.6839 141.769Z" fill="black"/>
<path d="M67.7948 120.855C67.9913 120.117 68.7506 119.7 69.4824 119.876C70.213 120.052 70.6511 120.849 70.4616 121.563C70.2651 122.302 69.5058 122.719 68.774 122.543C68.0449 122.366 67.6056 121.568 67.7948 120.855Z" fill="black"/>
<path d="M73.4505 56.1247C71.8823 55.1138 70.5471 53.8074 69.554 52.2252C68.5587 50.6362 68.0644 48.763 67.9964 46.8999C67.9241 44.9233 68.6017 42.984 69.5561 41.2821C70.5004 39.6018 71.8532 38.1108 73.5389 37.1603C75.1504 36.2501 77.0694 35.8654 78.902 36.124C79.0232 36.1405 79.1445 36.1621 79.2664 36.1864C79.5932 35.7426 80.1767 35.5097 80.7334 35.6614C82.1498 36.0463 83.5585 36.4951 84.8662 37.1688C85.5078 37.499 86.1031 37.9217 86.6646 38.3742C87.2457 38.8403 87.7975 39.3803 88.2755 39.9544C88.7649 40.5438 89.1994 41.167 89.5838 41.8299C89.948 42.4563 90.2251 43.1237 90.465 43.8038C90.9404 45.1513 91.1611 46.5793 91.212 48.0032C91.237 48.6985 91.1571 49.399 91.0526 50.086C90.9402 50.8318 90.7193 51.5717 90.4368 52.2678C89.9495 53.4736 89.2819 54.5767 88.3731 55.5155C87.1691 56.7564 85.507 57.5924 83.8203 57.9318C83.2064 58.0548 82.5986 58.1679 81.974 58.2302C80.9842 58.3273 79.9889 58.3005 79.0026 58.1784C78.5418 58.122 78.0841 58.0372 77.6322 57.9285C76.151 57.571 74.7228 56.9455 73.4505 56.1247ZM78.7341 55.34C79.1428 55.413 79.5528 55.4698 79.9678 55.5063C80.4423 55.5319 80.9127 55.5325 81.3861 55.5098C81.7847 55.4778 82.1789 55.4323 82.5729 55.3715C83.0636 55.2719 83.5483 55.1709 84.0278 55.0232C84.302 54.9247 84.5694 54.817 84.8341 54.6947C85.0743 54.569 85.3076 54.4354 85.5371 54.2908C85.7491 54.1406 85.9523 53.9846 86.1515 53.8188C86.337 53.6471 86.5138 53.4695 86.6854 53.2818C86.8483 53.0832 87.0019 52.8811 87.1486 52.671C87.2844 52.4532 87.4131 52.2337 87.5357 52.0077C87.6412 51.7902 87.7442 51.5722 87.8364 51.3464C87.9336 51.1054 88.0209 50.8633 88.104 50.6177C88.1846 50.3196 88.2562 50.0218 88.32 49.7197C88.3642 49.4255 88.4019 49.1323 88.4326 48.8361C88.4505 48.4407 88.4539 48.0481 88.4429 47.6521C88.4052 47.2092 88.3518 46.7739 88.2816 46.3346C88.1722 45.801 88.0389 45.2769 87.8797 44.7555C87.743 44.3773 87.595 44.0091 87.4289 43.6428C87.2383 43.2833 87.0372 42.9363 86.8211 42.5935C86.5997 42.2784 86.3691 41.975 86.1242 41.6783C85.7603 41.2822 85.3808 40.9089 84.9768 40.5536C84.7412 40.3655 84.5037 40.1856 84.2567 40.0136C83.9348 39.811 83.6056 39.6231 83.2672 39.4468C82.924 39.2909 82.577 39.1505 82.2254 39.0192C82.0922 39.4729 81.7276 39.8532 81.2509 39.9788C80.6161 40.1462 79.9666 39.8281 79.6746 39.2696C79.6683 39.2643 79.6617 39.2602 79.6554 39.2549C79.5993 39.2199 79.5414 39.187 79.483 39.1565C79.347 39.096 79.2114 39.0393 79.0708 38.9878C78.9472 38.9492 78.8223 38.9167 78.6952 38.8874C78.5058 38.8545 78.3176 38.8269 78.1266 38.8062C77.8816 38.7941 77.6397 38.7954 77.3943 38.8059C77.1842 38.8275 76.9765 38.8547 76.7698 38.8885C76.4805 38.9504 76.1969 39.0252 75.9149 39.1142C75.628 39.2185 75.3498 39.3337 75.0754 39.465C74.8548 39.5828 74.6415 39.7073 74.4312 39.8401C74.2086 39.9978 73.9953 40.164 73.786 40.3401C73.5227 40.5829 73.2756 40.8371 73.0379 41.105C72.7741 41.4236 72.5271 41.7512 72.2945 42.0925C72.0453 42.4816 71.818 42.8797 71.6087 43.2923C71.4443 43.6449 71.2953 44.0012 71.162 44.3663C71.0529 44.7043 70.9587 45.0434 70.8815 45.3904C70.8322 45.6796 70.7936 45.9663 70.7664 46.2583C70.7538 46.5423 70.7518 46.8239 70.7618 47.1084C70.7911 47.481 70.8382 47.8477 70.9044 48.214C70.9793 48.5445 71.0654 48.87 71.1671 49.1942C71.2836 49.5195 71.4133 49.8378 71.559 50.1524C71.732 50.49 71.9207 50.8149 72.1264 51.1325C72.3521 51.4512 72.5914 51.7553 72.8469 52.0495C73.1303 52.3492 73.4248 52.6338 73.7321 52.9075C74.1045 53.2159 74.488 53.5042 74.8892 53.7765C75.2591 54.0109 75.6348 54.2265 76.0246 54.4252C76.4407 54.6202 76.8614 54.7959 77.2932 54.9517C77.7697 55.1055 78.2469 55.2355 78.7341 55.34Z" fill="black"/>
<path d="M76.7908 57.0671C76.4389 56.9736 76.1341 56.7422 75.952 56.4265C75.7623 56.1 75.7341 55.7441 75.8114 55.3807C76.3881 52.6672 77.0231 49.9638 77.6443 47.2597C77.9891 45.7577 78.3432 44.2593 78.7166 42.7642C79.0659 41.3645 79.4373 39.9676 79.8789 38.594C80.0057 38.1982 80.1379 37.7961 80.374 37.4507C80.7138 36.9531 81.4518 36.7612 81.9971 37.0024C82.6476 37.2904 82.9793 37.9672 82.8154 38.6488C82.7803 38.7946 82.7204 38.9282 82.6422 39.0485C82.6063 39.1398 82.5728 39.2317 82.5378 39.3245C81.6596 42.0769 81.0135 44.9053 80.367 47.7197C79.7388 50.4525 79.1011 53.1831 78.5115 55.9239C78.4995 55.9792 78.4892 56.0323 78.4772 56.0876C78.3229 56.8132 77.5127 57.242 76.8204 57.0755C76.8099 57.0717 76.8004 57.0694 76.7908 57.0671ZM80.1565 38.6443C80.1083 38.4607 80.0961 38.2642 80.1254 38.0689C80.1216 38.0844 80.1188 38.1014 80.1151 38.117L80.1157 38.1146C80.1117 38.1731 80.1075 38.2328 80.1035 38.2913L80.1041 38.2889C80.1076 38.3479 80.1108 38.4081 80.1144 38.4672C80.1149 38.4648 80.1146 38.4609 80.1146 38.4609C80.1259 38.5192 80.1371 38.5776 80.1475 38.6345C80.1505 38.6378 80.1535 38.641 80.1565 38.6443Z" fill="black"/>
<path d="M69.1992 45.6966C69.1036 44.9425 69.6484 44.2602 70.3937 44.1536C70.7197 44.108 71.0572 44.193 71.3766 44.2534C71.7166 44.3174 72.0581 44.3806 72.3999 44.4476C73.1813 44.6014 73.9637 44.7617 74.7434 44.9278C76.1175 45.2203 77.4879 45.5334 78.8615 45.8284C81.637 46.4263 84.4193 46.9905 87.1893 47.6061C87.9939 47.7844 88.8111 47.9367 89.5851 48.2316C90.2869 48.5003 90.619 49.3442 90.3406 50.0285C90.0528 50.736 89.244 51.0537 88.5434 50.7853C88.4808 50.7614 88.418 50.7387 88.3539 50.7157C88.0692 50.6269 87.7787 50.5621 87.487 50.497C86.8996 50.3621 86.3111 50.232 85.7224 50.103C84.3637 49.8041 83.0048 49.5114 81.6424 49.228C80.2399 48.9375 78.8381 48.6447 77.4394 48.3386C76.0272 48.0306 74.6176 47.7068 73.2012 47.4167C72.9445 47.3639 72.6878 47.311 72.4308 47.2593C72.1227 47.1991 71.8135 47.1386 71.5039 47.0794C71.1953 47.0216 70.882 46.9412 70.5684 46.9037C70.462 46.9047 70.3574 46.8922 70.257 46.868C69.7144 46.7362 69.2718 46.2681 69.1992 45.6966Z" fill="black"/>
<path d="M42.3563 86.8037C41.9754 86.7045 41.6063 86.5563 41.2689 86.355C40.9327 86.154 40.6906 85.8567 40.4863 85.528C40.1476 84.9849 40.1739 84.3183 40.2343 83.7093C40.2738 83.3191 40.3195 82.9291 40.3679 82.5385C40.7265 79.5802 41.103 76.6262 41.5401 73.678C41.9679 70.7894 42.4349 67.9065 42.8749 65.0197C43.0102 64.1365 43.1403 63.2533 43.2744 62.3698C43.3482 61.8841 43.4208 61.3981 43.4994 60.9136C43.5353 60.6908 43.5679 60.4659 43.6076 60.2427C43.6565 59.9712 43.6834 59.6753 43.7657 59.4118C43.9322 58.8776 44.3544 58.4681 44.9241 58.3977C45.0728 58.379 45.2169 58.3846 45.3535 58.4112C45.5273 57.7674 46.1845 57.2753 46.8671 57.3927C48.1424 57.6121 49.4023 57.9062 50.6608 58.2064C52.0218 58.5324 53.3825 58.8597 54.7478 59.1678C56.1708 59.4885 57.6208 59.7652 59.004 60.2408C59.6862 60.4757 60.3582 60.8055 60.7028 61.4766C60.8588 61.7797 60.9341 62.1191 60.8924 62.4607C60.8671 62.6658 60.8148 62.862 60.7534 63.0597C60.5757 63.6355 60.3872 64.2087 60.2024 64.7827C59.3446 67.4502 58.5307 70.1295 57.7327 72.8164C57.3024 74.2637 56.87 75.7091 56.4332 77.1523C56.0056 78.5673 55.5831 79.9873 55.1035 81.3873C54.8378 82.1658 54.5632 82.9396 54.2814 83.7117C53.9049 84.7405 53.4947 85.7941 52.9136 86.7219C52.718 87.0354 52.4893 87.3131 52.2376 87.5814C51.9891 87.8467 51.6769 88.0246 51.3526 88.1793C51.1812 88.2608 50.9602 88.3013 50.7713 88.3241C50.5911 88.3478 50.3918 88.3454 50.2117 88.3211C50.0057 88.2943 49.8019 88.2579 49.5973 88.2201C48.9447 88.0986 48.2905 87.9842 47.6365 87.8687C46.2156 87.618 44.7922 87.3832 43.3865 87.0591C43.2941 87.0381 43.202 87.016 43.11 86.9938C42.8565 86.9329 42.6074 86.8692 42.3563 86.8037ZM44.9625 84.582C45.8798 84.7596 46.7982 84.9223 47.718 85.0841C48.19 85.1673 48.6606 85.2514 49.1324 85.3357C49.5387 85.4081 49.9457 85.4934 50.3546 85.555L50.3579 85.552C50.4286 85.4628 50.497 85.373 50.5624 85.2799C50.6926 85.0646 50.8123 84.8455 50.9261 84.6199C51.5655 83.2179 52.0664 81.756 52.5646 80.2998C53.4553 77.5378 54.2777 74.7543 55.1071 71.9737C55.9205 69.2437 56.7498 66.5213 57.621 63.809C57.7283 63.4731 57.847 63.1373 57.9561 62.7993C56.1559 62.2538 54.3016 61.9014 52.472 61.4727C51.9342 61.3472 51.3988 61.2172 50.862 61.0881C49.6845 60.8036 48.5067 60.5204 47.3204 60.2781C47.05 60.2244 46.7763 60.1738 46.5041 60.1273C46.4787 60.1225 46.4533 60.1176 46.4279 60.1128C46.4274 60.1151 46.4265 60.1187 46.4265 60.1187L46.4292 60.1181C46.4274 60.1253 46.4245 60.1322 46.4228 60.1393C46.1708 61.5763 45.9627 63.0201 45.7475 64.4621C45.5426 65.8295 45.3305 67.1951 45.1193 68.5623C44.6558 71.5573 44.1752 74.5495 43.7738 77.5544C43.6203 78.7027 43.4785 79.85 43.3355 80.9969C43.2066 82.0322 43.0539 83.0668 42.9633 84.1063C43.6213 84.2999 44.2924 84.4386 44.9625 84.582Z" fill="black"/>
<path d="M45.5447 84.1515C45.9124 81.413 46.4369 78.6906 46.9767 75.9834C47.5498 73.1058 48.1386 70.2319 48.7622 67.3652C49.096 65.8303 49.456 64.3016 49.7766 62.7635C49.8738 62.2594 49.9689 61.7536 50.0601 61.248C50.145 60.7688 50.1805 60.274 50.2944 59.8005C50.4701 59.0699 51.2671 58.6329 51.9808 58.821C52.6798 59.0068 53.0896 59.6961 52.9836 60.3891C52.9842 60.3867 52.9845 60.3855 52.9851 60.3831C52.7719 61.7636 52.5164 63.1314 52.2303 64.4995C51.9469 65.8569 51.6195 67.2024 51.3241 68.5568C50.7357 71.2613 50.1855 73.9749 49.644 76.6893C49.6551 76.6326 49.668 76.5737 49.6791 76.517C49.1585 79.1707 48.6401 81.8312 48.2823 84.5127C48.1819 85.2563 47.4798 85.7983 46.7344 85.7C46.6879 85.6938 46.6418 85.6853 46.5976 85.6747C45.9232 85.5125 45.4513 84.85 45.5447 84.1515Z" fill="black"/>
<path d="M48.8788 74.9948C47.1227 74.5447 45.378 74.0467 43.6668 73.4517C42.9487 73.2664 42.5211 72.478 42.7089 71.7705C42.9042 71.032 43.6647 70.6154 44.3953 70.7911C44.5268 70.8227 44.6603 70.8826 44.7887 70.9274C45.0296 71.0145 45.2719 71.0955 45.5152 71.178C45.4589 71.1595 45.403 71.1397 45.3468 71.1211C47.6282 71.838 49.9474 72.4818 52.292 72.9622C53.0456 73.1106 53.7987 73.2613 54.5599 73.3672C55.3033 73.4689 55.8464 74.1661 55.7473 74.9151C55.6486 75.6566 54.9442 76.2031 54.1993 76.1024C53.3216 75.9811 52.4523 75.8037 51.586 75.6295C51.0625 75.5238 50.543 75.4065 50.0241 75.2817C49.6418 75.1884 49.26 75.0928 48.8788 74.9948Z" fill="black"/>
<path d="M92.116 101.972C90.7534 101.632 89.389 101.294 88.0289 100.943C86.6058 100.575 85.1888 100.192 83.8104 99.6813C83.1588 99.4399 82.4291 99.0557 82.1504 98.379C81.9763 97.9564 82.0181 97.5301 82.0607 97.0901C82.1186 96.4918 82.1943 95.8927 82.2782 95.2969C82.6895 92.3614 83.2651 89.4629 83.9426 86.5775C84.6075 83.7448 85.3506 80.9283 86.0358 78.1004C86.2161 77.3558 86.3914 76.6112 86.5658 75.8651C86.5771 75.7236 86.6098 75.5822 86.6575 75.4419C86.6647 75.4222 86.6705 75.4033 86.6778 75.3836C86.8932 74.4614 87.1084 73.5405 87.3298 72.6198C87.4227 72.2336 87.6896 71.9285 88.026 71.7551C88.2472 71.2037 88.4716 70.6492 88.735 70.1168C89.1979 69.1809 89.7857 68.2041 90.8857 67.964C91.6865 67.7898 92.4713 68.2239 93.2005 68.5106C93.7599 68.7299 94.3227 68.9461 94.8845 69.1609C96.0889 69.6226 97.2997 70.0682 98.5213 70.4847C99.9037 70.9322 101.299 71.3424 102.689 71.7627C103.405 71.9791 104.119 72.2078 104.819 72.4723C105.898 72.8797 107.178 73.4129 107.501 74.6338C107.652 75.2103 107.453 75.7859 107.239 76.3164C107.112 76.6325 106.983 76.9492 106.854 77.266C106.587 77.9228 106.318 78.5791 106.05 79.2356C105.533 80.5014 105.008 81.7651 104.47 83.0221C103.27 85.826 102 88.5956 100.666 91.3368C100.059 92.5822 99.4344 93.8209 98.8068 95.0575C98.1189 96.4137 97.4322 97.7702 96.7041 99.1041C96.5233 99.435 96.3452 99.7653 96.1558 100.09C95.8273 100.651 95.5028 101.217 95.0341 101.677C94.7574 101.95 94.419 102.105 94.054 102.218C93.7423 102.315 93.3815 102.264 93.0701 102.197C92.9102 102.162 92.7521 102.125 92.593 102.087C92.434 102.049 92.2744 102.013 92.116 101.972ZM89.7631 98.539C90.9479 98.8404 92.1329 99.1621 93.3263 99.4326C93.3531 99.3948 93.3799 99.357 93.407 99.3179C93.9537 98.4489 94.4225 97.5308 94.9023 96.6242C95.3585 95.7637 95.799 94.8945 96.2392 94.0264C97.1024 92.3253 97.9522 90.6172 98.7884 88.9021C99.9051 86.5359 100.982 84.1576 102.012 81.7529C102.509 80.5938 102.99 79.4268 103.468 78.2604C103.697 77.7009 103.925 77.141 104.154 76.5812C104.316 76.1863 104.485 75.7931 104.641 75.3956C104.614 75.3815 104.588 75.3678 104.561 75.3537C103.991 75.1041 103.415 74.8932 102.825 74.6933C100.807 74.0611 98.7661 73.5008 96.7711 72.7971C95.7547 72.4375 94.7473 72.0612 93.7419 71.6764C93.2971 71.5062 92.8541 71.3339 92.4108 71.1628C92.1043 71.0436 91.8007 70.9174 91.4954 70.7985C91.3867 70.9823 91.2885 71.1699 91.1932 71.3608C90.4993 72.9103 89.9089 74.5024 89.3455 76.1036C89.2579 76.4784 89.1706 76.8521 89.0817 77.2266C88.7371 78.6805 88.3758 80.1304 88.0135 81.5788C87.2917 84.4751 86.5582 87.3672 85.9356 90.2873C85.8806 90.5422 85.8307 90.7971 85.779 91.0541C85.5502 92.2475 85.3413 93.4419 85.1585 94.6438C85.0343 95.4652 84.9149 96.2877 84.8278 97.113C85.1774 97.2527 85.5343 97.3727 85.8912 97.4927C85.835 97.4741 85.7791 97.4544 85.724 97.4361C87.0601 97.8447 88.4085 98.1968 89.7631 98.539Z" fill="black"/>
<path d="M89.1534 98.6969C88.4481 98.5109 87.9528 97.7302 88.1739 97.0106C88.9837 94.3695 89.8392 91.7432 90.6669 89.1064C91.5552 86.2806 92.3831 83.4377 93.2152 80.5933C93.6146 79.2322 94.0248 77.8737 94.415 76.5092C94.6064 75.8393 94.7955 75.1689 94.9798 74.4973C95.0823 74.1235 95.1842 73.7471 95.2858 73.3718C95.3785 73.0285 95.4592 72.6774 95.5719 72.3402C95.6884 71.9875 95.8835 71.6916 96.2114 71.501C96.5274 71.3178 96.9063 71.2672 97.2583 71.3607C97.9516 71.5439 98.4753 72.3327 98.2377 73.0471C98.1404 73.3412 98.0683 73.6464 97.9884 73.9471C97.8737 74.3661 97.7603 74.7853 97.6453 75.2054C97.453 75.9105 97.2546 76.6141 97.0527 77.3169C96.6657 78.6683 96.2557 80.0154 95.8625 81.3666C95.012 84.2875 94.1522 87.205 93.2402 90.1085C92.4426 92.6463 91.6194 95.1754 90.8395 97.7186C90.6224 98.4266 89.9208 98.8827 89.1854 98.7059C89.1749 98.7021 89.1642 98.6995 89.1534 98.6969Z" fill="black"/>
<path d="M100.122 89.0166C97.8459 88.2719 95.5976 87.4592 93.351 86.6343C92.0028 86.1393 90.6509 85.6548 89.3006 85.1682C88.6348 84.9284 87.9743 84.6772 87.3169 84.4179C86.6757 84.165 86.0638 83.8484 85.4633 83.5155C85.5146 83.5392 85.5643 83.5638 85.614 83.5884L85.6095 83.5861C85.2704 83.4236 85.0007 83.188 84.8544 82.834C84.7169 82.5012 84.7171 82.1217 84.8516 81.7886C85.1228 81.1239 85.9718 80.7071 86.6489 81.0318C87.0017 81.2002 87.3405 81.3955 87.6887 81.5728C88.7096 82.0195 89.7519 82.403 90.7996 82.7802C91.8577 83.1611 92.9147 83.5418 93.9705 83.9273C95.9112 84.6356 97.8484 85.3583 99.8087 86.0169C100.147 86.1287 100.487 86.2396 100.828 86.3505C101.18 86.467 101.476 86.6633 101.666 86.9912C101.849 87.3057 101.9 87.6862 101.807 88.0381C101.63 88.7039 100.898 89.2083 100.209 89.0427C100.181 89.0346 100.151 89.0262 100.122 89.0166Z" fill="black"/>
<path d="M42.5134 47.2764C42.4791 46.7458 42.5074 46.2074 42.5191 45.6752C42.5339 44.9667 42.5415 44.2564 42.5438 43.5473C42.5484 42.2292 42.525 40.9119 42.5004 39.5943C42.4744 38.1929 42.4526 36.79 42.4343 35.3879C42.4217 34.4097 42.4245 33.4301 42.402 32.4507C42.377 32.4548 42.3508 32.4586 42.3258 32.4627C41.7416 32.5777 41.1583 32.6993 40.5798 32.8435C39.9628 32.9999 39.3545 33.1787 38.748 33.3705C38.1093 33.5964 37.4746 33.8321 36.8432 34.0799C36.2482 34.3137 35.6161 34.6171 34.9549 34.4897C34.6456 34.4292 34.3637 34.3551 34.097 34.1809C33.9557 34.09 33.8391 33.9962 33.7241 33.8749C33.5404 33.6815 33.4382 33.4697 33.3337 33.2258C33.175 32.8549 33.1513 32.4065 33.1352 32.0105C33.1261 31.7908 33.123 31.5725 33.1186 31.3539C33.1137 30.9429 33.1137 30.5331 33.1142 30.1208C33.1162 29.3864 33.1183 28.652 33.1204 27.9177C33.1239 26.4146 33.1501 24.9119 33.1927 23.4094C33.2111 22.7282 33.2381 22.0479 33.2639 21.3673C33.277 21.034 33.2907 20.6983 33.3038 20.365C33.3113 20.1708 33.3224 19.9723 33.3412 19.7783C33.3801 19.3854 33.4441 18.9403 33.6534 18.596C33.813 18.3321 33.9835 18.0911 34.2195 17.8885C34.5013 17.6477 34.8062 17.4528 35.1345 17.2814C35.459 17.1102 35.7962 16.9599 36.1288 16.8021C36.6715 16.5443 37.2291 16.3191 37.783 16.0881C38.407 15.8284 39.0289 15.5567 39.6771 15.3597C39.927 15.2832 40.2265 15.2528 40.4857 15.2847C40.767 15.3195 40.9953 15.401 41.2411 15.541C41.842 15.8829 42.1587 16.6066 42.2427 17.2669C42.3502 18.1086 42.3149 18.9602 42.2651 19.8033C42.226 20.4554 42.1796 21.1057 42.1291 21.7576C42.05 22.7594 41.9621 23.7615 41.8852 24.765C41.9653 24.7527 42.0466 24.7406 42.1273 24.7259C42.7975 24.5797 43.4596 24.4088 44.1225 24.2292C44.4118 24.1521 44.6992 24.072 44.9897 23.9951C45.2235 23.9324 45.4577 23.8686 45.6965 23.8223C45.8612 23.7898 46.0214 23.7601 46.1902 23.7576C46.3348 23.7507 46.4786 23.7524 46.6228 23.7681C46.759 23.7907 46.8941 23.8232 47.0267 23.8665C47.7018 24.0516 48.165 24.6766 48.3747 25.3139C48.6299 26.0886 48.6607 26.9384 48.6531 27.7486C48.6471 28.4783 48.6387 29.2074 48.6053 29.9355C48.4701 32.9222 48.3017 35.9047 48.2253 38.8942C48.1679 41.1154 48.1565 43.3401 47.9837 45.5576C47.9251 46.3062 47.152 46.8387 46.4358 46.7449C46.0802 46.6986 45.7501 46.5091 45.5286 46.2257C45.3991 46.0592 45.3178 45.8765 45.2767 45.6845C45.2607 46.1562 45.2343 46.6343 45.2605 47.1036C45.257 47.0445 45.2535 46.9855 45.25 46.9265C45.2723 47.2911 45.208 47.6323 44.9846 47.9302C44.7617 48.2257 44.4219 48.4235 44.0555 48.4694C43.8964 48.4894 43.7331 48.4792 43.5753 48.4412C43.031 48.3116 42.5503 47.8595 42.5134 47.2764ZM44.0693 29.7097C44.4483 29.8641 44.7718 30.176 44.9365 30.5482C45.1426 31.0114 45.1385 31.5176 45.1516 32.0153C45.1584 32.3446 45.1611 32.6753 45.1664 33.0055C45.175 33.6956 45.1833 34.387 45.1919 35.0771C45.211 36.5857 45.2341 38.0939 45.2622 39.6021C45.2862 40.8853 45.31 42.1698 45.306 43.454C45.3049 43.8003 45.3027 44.1463 45.3004 44.4923C45.4567 41.8598 45.4404 39.2186 45.5377 36.5845C45.6482 33.6109 45.8754 30.6412 45.8977 27.6666C45.8992 27.4658 45.8896 27.2637 45.8813 27.0618C45.871 26.9151 45.8583 26.7679 45.8415 26.6222C45.5273 26.7035 45.2155 26.7954 44.903 26.8796C44.4903 26.9916 44.0773 27.1048 43.6619 27.2072C43.0446 27.3598 42.4233 27.4975 41.7888 27.5587C40.8152 27.6521 39.6637 27.4119 39.249 26.4065C38.9957 25.7929 39.0981 25.1041 39.149 24.4611C39.1879 23.9734 39.2289 23.4874 39.2689 23C39.3418 22.1131 39.412 21.2269 39.4772 20.3407C39.5171 19.6749 39.5628 19.0066 39.5565 18.3385C39.1612 18.499 38.7708 18.6707 38.3785 18.8344C37.7767 19.0856 37.1847 19.3543 36.5966 19.6327C36.4437 19.7111 36.294 19.7915 36.1463 19.8799C36.1979 19.8442 36.2492 19.8098 36.3016 19.7756C36.2337 19.8162 36.1688 19.86 36.1069 19.9071C36.099 19.9608 36.092 20.0161 36.0866 20.0704C35.9708 22.0031 35.9328 23.9444 35.8997 25.8805C35.8845 26.8167 35.8846 27.7527 35.8831 28.6896C35.8814 29.6277 35.8612 30.569 35.8833 31.5078C36.372 31.3167 36.8585 31.1187 37.3535 30.9431C38.0419 30.7001 38.7389 30.463 39.4485 30.2845C40.2157 30.0921 40.9846 29.9191 41.7609 29.768C42.1804 29.6855 42.6131 29.6062 43.0415 29.5865C43.3129 29.5734 43.5861 29.5733 43.8492 29.6366C43.9203 29.6562 43.9954 29.6806 44.0693 29.7097Z" fill="black"/>
<path d="M30.3992 21.0222C30.036 20.3973 30.232 19.5716 30.8328 19.1773C30.7863 18.9182 30.8201 18.6569 30.9097 18.4002C31.0013 18.1401 31.0905 17.8795 31.1774 17.6184C31.176 17.6243 31.1736 17.6288 31.1722 17.6348C31.5829 16.4055 31.9996 15.1776 32.4663 13.9681C32.7273 13.2934 33.008 12.626 33.3 11.9639C33.7095 11.029 34.1847 10.0631 34.8945 9.32056C35.3877 8.80548 36.1362 8.45426 36.8573 8.53281C37.1789 8.5684 37.4881 8.6605 37.772 8.82112C38.0247 8.96412 38.2522 9.15417 38.482 9.32959C39.0055 9.72996 39.5316 10.1246 40.0601 10.5199C41.2171 11.3838 42.3615 12.2636 43.5191 13.1251C43.8881 13.3998 44.2643 13.6661 44.6389 13.9333C44.9626 14.1654 45.3716 14.4105 45.5557 14.7761C45.6513 14.9673 45.7394 15.1479 45.767 15.3645C45.8062 15.6699 45.7329 15.9482 45.5981 16.2194C45.3242 16.7745 44.7567 16.9303 44.2111 17.0849C43.8216 17.1949 43.4353 17.3182 43.0495 17.4443C41.265 18.0485 39.517 18.7526 37.7557 19.4231C36.9079 19.7454 36.0528 20.0457 35.2 20.3516C34.2643 20.6869 33.3212 21.0166 32.4251 21.45C32.481 21.4229 32.5371 21.3947 32.5929 21.3676C32.4899 21.4175 32.3847 21.4655 32.2847 21.5237C31.9677 21.7055 31.6036 21.747 31.27 21.6667C30.9155 21.5789 30.5955 21.3578 30.3992 21.0222ZM33.9914 17.8828C33.9951 17.8723 33.9986 17.863 34.0012 17.8523C34.0509 17.8351 34.1008 17.8168 34.1508 17.7985C35.2562 17.4041 36.3623 17.0073 37.4583 16.584C38.8042 16.0628 40.1481 15.5398 41.5091 15.0665C40.9511 14.6515 40.3985 14.2302 39.8456 13.8101C39.2597 13.3643 38.669 12.9225 38.078 12.4819C37.618 12.1385 37.1685 11.7774 36.7052 11.4371C36.6642 11.4917 36.6245 11.5467 36.5859 11.6019C36.4134 11.888 36.2576 12.1832 36.1019 12.4784C35.2959 14.2046 34.63 15.9848 34.0212 17.79C34.0291 17.7679 34.0357 17.7455 34.0421 17.7242C34.0282 17.7664 34.0151 17.8101 34.0012 17.8523C33.998 17.8604 33.9948 17.8684 33.9916 17.8765C33.9937 17.8783 33.9919 17.8804 33.9914 17.8828Z" fill="black"/>
<path d="M35.3319 10.8284C34.9435 10.4555 34.8754 9.88128 34.7975 9.3743C34.7285 8.93018 34.6607 8.48637 34.5919 8.04105C34.4462 7.11679 34.3001 6.19371 34.1605 5.26969C34.0495 4.52707 34.623 3.82008 35.3551 3.72672C36.113 3.63075 36.7858 4.17834 36.8981 4.92125C37.1144 6.3621 37.3179 7.80873 37.5712 9.24328C37.5837 9.307 37.5977 9.36981 37.6129 9.43291C37.754 9.90323 37.6419 10.4429 37.2819 10.8092C36.9316 11.1664 36.428 11.2881 35.9701 11.178C35.7372 11.1207 35.516 11.0042 35.3319 10.8284Z" fill="black"/>
<path d="M61.7634 110.36C61.0163 110.133 60.4124 109.646 59.9164 109.057C59.318 108.348 59.0264 107.399 58.8603 106.506C58.7014 105.652 58.7468 104.754 58.8259 103.894C58.8689 103.436 58.9555 102.981 59.0266 102.528C59.1634 101.649 59.3977 100.764 59.695 99.9273C60.0427 98.9497 60.5028 98.0358 61.0953 97.1816C61.7293 96.2653 62.5922 95.4963 63.5497 94.9335C64.2713 94.51 65.1196 94.2018 65.9617 94.3765C66.2136 94.4282 66.4284 94.5608 66.5952 94.7401C66.8879 94.6486 67.2056 94.6529 67.4938 94.7905C68.2379 95.1466 68.9711 95.5796 69.4874 96.2414C69.9084 96.784 70.2171 97.3781 70.3773 98.0478C70.4672 98.4262 70.5162 98.806 70.5405 99.1939C70.5772 99.9249 70.5583 100.64 70.4861 101.372C70.4144 102.096 70.2114 102.808 69.9969 103.5C69.7797 104.198 69.4815 104.865 69.1769 105.527C68.9797 105.957 68.7463 106.376 68.5047 106.78C68.0057 107.614 67.3768 108.331 66.6481 108.967C66.3039 109.268 65.9178 109.522 65.5308 109.764C65.1603 109.995 64.7411 110.186 64.3253 110.316C63.5582 110.555 62.7721 110.61 61.9973 110.424C61.9183 110.405 61.8412 110.384 61.7634 110.36ZM62.697 107.762C62.7547 107.769 62.8108 107.778 62.8673 107.785C62.9186 107.787 62.9717 107.787 63.0227 107.786C63.0912 107.779 63.1603 107.771 63.2285 107.76C63.3208 107.74 63.4128 107.715 63.5041 107.688C63.6025 107.652 63.6994 107.612 63.7945 107.569C64.0142 107.455 64.2237 107.331 64.4307 107.196C64.6393 107.044 64.8389 106.887 65.0349 106.719C65.2132 106.55 65.3817 106.376 65.5456 106.194C65.7099 105.989 65.864 105.78 66.0121 105.564C66.2491 105.183 66.4568 104.793 66.6639 104.395C66.9146 103.847 67.142 103.296 67.3499 102.731C67.4803 102.304 67.594 101.879 67.6862 101.443C67.7258 101.173 67.7601 100.904 67.7875 100.633C67.8051 100.265 67.8105 99.9008 67.8018 99.5319C67.7976 99.4652 67.7931 99.3996 67.7902 99.3331C67.7719 99.1617 67.7507 98.9922 67.7244 98.8227C67.7018 98.7274 67.678 98.6319 67.6515 98.537C67.6209 98.4537 67.5876 98.3711 67.552 98.2879C67.5241 98.2357 67.4935 98.1841 67.4614 98.1333C67.421 98.0806 67.3803 98.0291 67.3395 97.9775C67.2748 97.9101 67.2086 97.8436 67.1409 97.778C67.0655 97.7181 66.991 97.6597 66.9135 97.6031C66.7723 97.5173 66.6286 97.436 66.4812 97.36C66.471 97.3551 66.462 97.3504 66.4516 97.3466C66.2781 97.2631 66.1233 97.1601 65.9933 97.0327C65.832 97.0774 65.6657 97.0905 65.4964 97.0789L65.495 97.0798C65.5149 97.0809 65.535 97.0818 65.5547 97.0841C65.5335 97.0828 65.5123 97.0815 65.4896 97.0811C65.4652 97.0879 65.4408 97.0946 65.4167 97.1002C65.2996 97.1454 65.1852 97.1951 65.0714 97.2474C64.9316 97.3238 64.7951 97.4023 64.661 97.4864C64.4764 97.6178 64.2998 97.7575 64.1276 97.9058C63.9684 98.0573 63.8147 98.2126 63.6658 98.3741C63.4982 98.5766 63.3405 98.7853 63.1898 99.002C63.0051 99.2966 62.8354 99.5973 62.678 99.9098C62.5253 100.245 62.3881 100.584 62.2627 100.932C62.0703 101.532 61.9141 102.139 61.7857 102.757C61.6698 103.371 61.5796 103.993 61.5288 104.614C61.5167 104.901 61.5142 105.185 61.5222 105.473C61.5406 105.733 61.5683 105.991 61.6124 106.25C61.6372 106.362 61.6665 106.472 61.6995 106.582C61.7573 106.741 61.8201 106.896 61.8904 107.05C61.9316 107.126 61.9755 107.201 62.0224 107.274C62.0614 107.328 62.1006 107.38 62.144 107.431C62.1826 107.471 62.2214 107.509 62.2629 107.547C62.3037 107.577 62.3446 107.607 62.3854 107.637C62.4175 107.656 62.4499 107.674 62.4822 107.692C62.5226 107.708 62.5628 107.726 62.602 107.741C62.6339 107.745 62.6659 107.754 62.697 107.762Z" fill="black"/>
<path d="M61.9333 108.882C61.2223 108.694 60.7402 107.916 60.9538 107.196C61.6236 104.942 62.3475 102.706 63.1273 100.489C63.5121 99.3935 63.9352 98.3126 64.3595 97.232C64.5512 96.7456 64.7419 96.2577 64.9287 95.7701C65.0831 95.3646 65.2796 94.9843 65.668 94.7577C65.9912 94.571 66.3622 94.5325 66.7197 94.6185C67.4515 94.7945 67.8884 95.5915 67.7003 96.3051C67.6614 96.4514 67.6002 96.5846 67.5226 96.7025C67.3163 97.1918 67.1404 97.6972 66.9462 98.1893C66.7318 98.7335 66.5151 99.2771 66.3091 99.8233C65.8747 100.977 65.4651 102.139 65.069 103.307C65.0818 103.27 65.0946 103.232 65.1071 103.196C64.5851 104.757 64.0876 106.325 63.6197 107.903C63.4086 108.612 62.695 109.065 61.9632 108.889C61.9537 108.887 61.9441 108.885 61.9333 108.882Z" fill="black"/>
<path d="M66.3775 105.818C65.4992 105.604 64.6331 105.345 63.7661 105.09C62.8282 104.813 61.8953 104.527 60.9807 104.186C60.2782 103.988 59.8632 103.21 60.0488 102.512C60.2444 101.772 61.0045 101.357 61.7351 101.533C61.893 101.571 62.046 101.644 62.1981 101.701C62.3851 101.77 62.5733 101.834 62.7615 101.898C64.1884 102.355 65.6304 102.797 67.0844 103.152C67.8159 103.329 68.2537 104.122 68.0638 104.838C67.8691 105.574 67.1105 105.994 66.3811 105.819C66.3811 105.819 66.3799 105.818 66.3775 105.818Z" fill="black"/>
<path d="M95.457 37.218C94.8708 36.7785 94.712 35.8713 95.1829 35.2863C96.2587 33.9476 97.308 32.5771 98.2754 31.1579C98.3913 30.9707 98.5015 30.7809 98.6038 30.5867C98.3485 30.3912 98.0867 30.2018 97.8317 30.0051C97.4635 29.7218 97.1029 29.4276 96.7432 29.1349C96.0245 28.5522 95.328 27.9458 94.6577 27.309C94.0058 26.6906 93.4026 26.0219 92.8176 25.341C92.2159 24.6398 91.6391 23.9142 91.1168 23.1511C91.1159 23.1496 91.1147 23.1493 91.115 23.1481C91.1087 23.1377 91.102 23.1286 91.0945 23.1179C91.086 23.1057 91.0787 23.0938 91.0703 23.0817C91.0842 23.1027 91.0993 23.1241 91.1132 23.1452C91.0755 23.0969 91.0422 23.0459 91.0116 22.9942C91.0125 22.9957 91.0137 22.996 91.0146 22.9975C91.0137 22.996 91.0128 22.9945 91.0116 22.9942C91.0119 22.993 91.0107 22.9927 91.0098 22.9913C90.995 22.9687 90.9802 22.9462 90.9651 22.9249C90.9705 22.9338 90.9772 22.9429 90.9826 22.9518C90.9128 22.8478 90.8417 22.7434 90.7719 22.6393C90.7429 22.5969 90.7127 22.5543 90.6837 22.5119C90.5896 22.4033 90.5089 22.2814 90.4427 22.1516C89.8497 21.2513 89.346 20.3005 88.87 19.3347C88.5379 18.6591 88.9622 17.8049 89.6204 17.5344C89.9533 17.3969 90.3327 17.3971 90.6656 17.5328C91.023 17.677 91.2539 17.9475 91.4207 18.2849C91.4292 18.3021 91.4377 18.3193 91.4462 18.3365C91.8462 19.1297 92.2649 19.9185 92.7557 20.6601C92.7825 20.6956 92.8067 20.7318 92.8291 20.7701C92.8439 20.7926 92.8599 20.8154 92.8748 20.838C92.8908 20.8608 92.9056 20.8833 92.9201 20.9071C93.0042 21.031 93.0879 21.1561 93.1731 21.2804C93.2518 21.3739 93.3201 21.4738 93.3768 21.5798C93.6843 22.0003 93.9908 22.4193 94.3154 22.8262C94.6261 23.2172 94.9489 23.5946 95.2751 23.9741C95.6359 24.3669 96.0009 24.7532 96.3751 25.1329C96.73 25.4927 97.1094 25.8294 97.4865 26.1654C98.1535 26.7319 98.826 27.2908 99.5199 27.8244C99.9896 28.1853 100.518 28.5162 100.913 28.9589C101.056 29.121 101.182 29.3031 101.267 29.5019C101.356 29.7093 101.402 29.9126 101.442 30.1335C101.542 30.666 101.328 31.2608 101.107 31.7338C100.828 32.3245 100.459 32.8746 100.077 33.4024C99.7702 33.8257 99.4592 34.2455 99.1474 34.6638C98.5717 35.4323 97.9871 36.196 97.3871 36.9447C97.0337 37.3834 96.4696 37.5779 95.9507 37.4531C95.78 37.4107 95.6114 37.3335 95.457 37.218Z" fill="black"/>
<path d="M101.634 49.4813C101.053 49.0457 100.883 48.1309 101.361 47.55C101.991 46.782 102.642 46.0304 103.285 45.2718C103.955 44.4819 104.64 43.6928 105.227 42.8374C105.25 42.7999 105.273 42.7624 105.295 42.7247C105.305 42.7308 105.316 42.7385 105.326 42.7447C105.326 42.7447 105.326 42.7447 105.324 42.7444C105.315 42.7382 105.305 42.7308 105.295 42.7247C105.258 42.7005 105.22 42.6749 105.181 42.6505C105.215 42.6726 105.249 42.6959 105.282 42.7176C104.452 42.1765 103.643 41.609 102.851 41.015C101.95 40.3365 101.091 39.6214 100.256 38.8653C99.5194 38.1975 98.8482 37.4542 98.1608 36.7362C97.7898 36.3484 97.4183 35.9631 97.045 35.5799C96.818 35.3457 96.5927 35.1093 96.3867 34.8561C96.0954 34.5002 95.9963 34.0286 96.103 33.585C96.279 32.8533 97.076 32.4163 97.7894 32.6056C98.1365 32.6979 98.4123 32.9135 98.5893 33.1926C98.6037 33.2113 98.6185 33.2287 98.6342 33.2477C99.3149 33.978 100.019 34.6876 100.708 35.4098C101.386 36.1205 102.087 36.8 102.814 37.4592C103.985 38.4367 105.205 39.3459 106.468 40.2026C106.792 40.4094 107.124 40.6108 107.419 40.8551C108.004 41.3384 108.31 42.0358 108.209 42.7931C108.159 43.1694 107.999 43.5079 107.836 43.8455C107.646 44.2323 107.379 44.5983 107.118 44.9389C106.904 45.2176 106.69 45.4963 106.466 45.7674C105.51 46.9226 104.518 48.0488 103.567 49.209C103.21 49.6441 102.65 49.8421 102.132 49.7176C101.958 49.6756 101.789 49.5984 101.634 49.4813Z" fill="black"/>
<path d="M106.125 61.2808C105.572 60.7393 105.6 59.886 106.106 59.3296C107.069 58.2723 108.069 57.2506 109.022 56.1832C109.168 56.0083 109.311 55.8328 109.449 55.6523C109.298 55.5376 109.146 55.4227 108.998 55.3047C108.627 55.0094 108.26 54.7061 107.897 54.4012C107.182 53.8042 106.499 53.1732 105.84 52.5163C105.19 51.868 104.6 51.1646 104.012 50.4602C103.716 50.107 103.433 49.7429 103.148 49.381C102.884 49.0481 102.598 48.7124 102.387 48.3417C102.016 47.6882 102.233 46.8374 102.888 46.4572C103.533 46.0812 104.401 46.3026 104.773 46.9575C104.786 46.9795 104.798 47.0003 104.812 47.0213C105.544 47.9916 106.316 48.9311 107.111 49.8496C107.78 50.5645 108.476 51.2429 109.205 51.8964C109.808 52.4106 110.415 52.9186 111.045 53.4C111.562 53.7951 112.171 54.2123 112.351 54.874C112.416 55.1175 112.479 55.3564 112.439 55.6124C112.399 55.8722 112.349 56.1006 112.254 56.3457C112.115 56.7019 111.874 57.0209 111.645 57.3239C111.115 58.026 110.5 58.6687 109.899 59.3109C109.291 59.9615 108.674 60.6024 108.075 61.2616C107.743 61.627 107.228 61.741 106.767 61.63C106.528 61.5737 106.302 61.4561 106.125 61.2808Z" fill="black"/>
<path d="M111.776 73.9288C111.241 73.403 111.23 72.5148 111.757 71.9777C113.076 70.6391 114.399 69.299 115.662 67.9078C115.578 67.8522 115.494 67.7966 115.411 67.7412C115.031 67.4854 114.655 67.2242 114.28 66.9609C113.439 66.3677 112.613 65.7517 111.799 65.1195C111.016 64.5126 110.268 63.8595 109.527 63.2007C109.164 62.8782 108.801 62.5569 108.44 62.2348C108.231 62.0466 108.022 61.8585 107.815 61.6683C107.614 61.4834 107.412 61.2942 107.268 61.0587C106.877 60.417 107.129 59.5441 107.769 59.1729C108.352 58.8339 109.071 58.9841 109.501 59.4656C109.483 59.4448 109.464 59.4238 109.446 59.4031C109.857 59.8307 110.316 60.2132 110.758 60.6078C111.194 60.9961 111.634 61.3838 112.072 61.77C113.059 62.6083 114.074 63.4063 115.123 64.1683C115.63 64.5357 116.14 64.9049 116.658 65.2573C117.159 65.5979 117.684 65.9112 118.149 66.3025C118.371 66.4888 118.605 66.6969 118.705 66.9815C118.824 67.3187 118.904 67.6339 118.809 67.9918C118.706 68.3745 118.55 68.7479 118.303 69.063C118.139 69.2714 117.965 69.4699 117.788 69.6677C117.368 70.1383 116.934 70.5944 116.498 71.0511C115.582 72.0108 114.658 72.9649 113.727 73.9111C113.377 74.2659 112.87 74.3906 112.411 74.2802C112.177 74.2226 111.956 74.1062 111.776 73.9288Z" fill="black"/>
<path d="M115.098 86.9732C114.549 86.4337 114.572 85.5754 115.081 85.0223C116.181 83.8223 117.329 82.6651 118.403 81.4424C118.597 81.2032 118.787 80.9655 118.964 80.7146C118.999 80.6561 119.034 80.5961 119.066 80.5356C119.076 80.5125 119.085 80.4895 119.094 80.4664C119.09 80.4602 119.084 80.4552 119.081 80.4493C119.008 80.3724 118.934 80.2987 118.856 80.2282C117.827 79.3583 116.722 78.5727 115.652 77.754C114.453 76.8344 113.321 75.8349 112.176 74.8474C112.222 74.8875 112.267 74.9262 112.313 74.9651C112.057 74.7568 111.804 74.5453 111.535 74.3541C111.526 74.3482 111.517 74.3423 111.509 74.3352C110.939 73.9869 110.671 73.271 110.932 72.6294C111.213 71.943 112.039 71.5776 112.731 71.8742C112.998 71.9878 113.228 72.1722 113.46 72.3455C113.683 72.5117 113.898 72.6951 114.11 72.8763C114.514 73.2252 114.917 73.5751 115.319 73.9247C116.261 74.7231 117.227 75.4879 118.21 76.234C118.666 76.5816 119.124 76.9232 119.579 77.2741C120.217 77.7665 120.891 78.2562 121.374 78.9087C121.721 79.378 121.891 79.9462 121.875 80.5268C121.855 81.2721 121.471 81.9336 121.06 82.5291C120.656 83.1137 120.148 83.6441 119.664 84.1627C118.796 85.0961 117.911 86.0141 117.05 86.9542C116.714 87.3187 116.199 87.434 115.739 87.3233C115.501 87.2649 115.277 87.1475 115.098 86.9732Z" fill="black"/>
<path d="M71.3336 24.0165C71.1346 23.0503 71.0081 22.0776 70.9232 21.0946C70.8702 20.4785 70.8255 19.8442 70.8829 19.2268C70.9318 18.6871 71.0459 18.0758 71.3954 17.6375C71.5783 17.4082 71.7736 17.1959 72.026 17.0403C72.2826 16.8832 72.5439 16.7804 72.8315 16.694C73.2135 16.5784 73.6336 16.5618 74.0285 16.5188C74.2597 16.4935 74.491 16.4682 74.7216 16.4402C75.263 16.3768 75.8041 16.3097 76.3457 16.2401C77.3426 16.1131 78.3315 15.9512 79.3186 15.7648C79.8354 15.6463 80.3503 15.5247 80.8624 15.3835C81.3649 15.2451 81.8605 15.0885 82.3563 14.9308C83.044 14.6851 83.7287 14.4362 84.407 14.1616C84.7505 14.0216 85.0956 13.8807 85.4391 13.7407C85.8909 13.5559 86.3263 13.3811 86.8213 13.5002C87.5531 13.6761 87.99 14.4731 87.8007 15.1865C87.6701 15.6825 87.2848 16.0326 86.826 16.1575C85.8317 16.5369 84.8562 16.9638 83.8518 17.3218C82.7184 17.7272 81.5699 18.0745 80.3965 18.3464C79.2874 18.6033 78.1641 18.7771 77.0386 18.9339C76.5348 19.0038 76.0298 19.0632 75.5256 19.1241C74.8984 19.1971 74.2668 19.2514 73.6413 19.3438C73.6359 19.3817 73.6318 19.4199 73.6277 19.4582C73.6164 19.7944 73.6244 20.129 73.64 20.4642C73.7077 21.3659 73.8043 22.2631 73.9674 23.1523C73.9649 23.1416 73.9636 23.1312 73.9612 23.1205C73.9743 23.1869 73.9874 23.2532 74.002 23.3187C74.0744 23.6751 74.0507 24.0261 73.8669 24.3487C73.686 24.6695 73.3756 24.9086 73.0176 25.0033C72.8 25.0611 72.5691 25.0586 72.3503 25.006C71.8672 24.8848 71.4392 24.5238 71.3336 24.0165ZM86.4214 16.2044C86.4348 16.2064 86.4482 16.2083 86.4632 16.2094C86.5183 16.2062 86.5735 16.203 86.6286 16.1999C86.6739 16.1905 86.7188 16.1824 86.7653 16.1733C86.7751 16.1693 86.7846 16.1665 86.7956 16.1629C86.6733 16.1929 86.5473 16.2069 86.4214 16.2044Z" fill="black"/>
<path d="M61.9125 32.7449C61.803 32.0697 61.7244 31.3918 61.659 30.712C61.588 29.9866 61.5305 29.2531 61.5338 28.524C61.5354 28.1702 61.548 27.8179 61.566 27.4642C61.5849 27.0805 61.6355 26.6967 61.7181 26.3219C61.8138 25.8871 61.961 25.4014 62.2445 25.0483C62.3669 24.8969 62.4841 24.7619 62.6285 24.6297C62.769 24.5029 62.9176 24.4058 63.0765 24.3024C63.3867 24.1012 63.7673 24.0283 64.1247 23.9675C64.3859 23.9228 64.6606 23.9269 64.9254 23.9147C65.0611 23.9081 65.1958 23.9001 65.3303 23.8932C67.2057 23.7738 69.0688 23.5742 70.9231 23.2638C71.1655 23.2133 71.4057 23.1611 71.6465 23.1013C71.8268 23.0562 71.995 22.9878 72.1801 22.9653C72.9258 22.8727 73.6283 23.4123 73.723 24.1598C73.8129 24.8746 73.3135 25.5577 72.6113 25.6898C72.3985 25.7436 72.1898 25.8174 71.973 25.8614C71.5738 25.9437 71.1765 26.0177 70.7745 26.0854C70.1219 26.1953 69.4634 26.2773 68.8055 26.3569C67.4099 26.5221 66.0129 26.6086 64.6108 26.69C64.5643 26.694 64.5175 26.6992 64.4717 26.7059C64.4623 26.729 64.4533 26.7508 64.4451 26.7742C64.4315 26.8202 64.4206 26.8657 64.4094 26.9123C64.3708 27.1358 64.3415 27.3576 64.3202 27.5827C64.2909 28.2359 64.2964 28.8811 64.3293 29.5328C64.4024 30.4915 64.4965 31.4463 64.65 32.3964C64.7703 33.1375 64.1813 33.8458 63.4558 33.9382C63.2862 33.9594 63.123 33.9493 62.9688 33.9122C62.4256 33.7828 62.0051 33.3225 61.9125 32.7449Z" fill="black"/>
<path d="M48.6862 41.9269C48.8273 40.5252 48.9874 39.123 49.1386 37.7212C49.1747 37.3922 49.2124 37.0623 49.2583 36.7343C49.329 36.2302 49.4079 35.7129 49.5811 35.2346C49.8221 34.5742 50.2411 33.9944 50.8971 33.7019C51.376 33.4882 51.893 33.4368 52.4098 33.3865C53.8433 33.2481 55.2789 33.1165 56.7108 32.9638C58.1996 32.8058 59.6931 32.6388 61.1691 32.3816C61.6879 32.2913 62.2058 32.1996 62.7242 32.1004C63.1643 32.0165 63.5896 31.9101 64.0373 32.0051C64.7725 32.1616 65.2014 32.9921 65.0168 33.6914C64.9233 34.0434 64.6906 34.3479 64.3761 34.5303C64.1924 34.6366 63.9993 34.6926 63.7999 34.7066C63.3456 34.7656 62.894 34.8708 62.4444 34.9574C61.979 35.0466 61.5107 35.1212 61.0421 35.1919C59.9841 35.3523 58.9243 35.4883 57.8618 35.6147C56.9232 35.7255 55.982 35.8102 55.0424 35.9043C54.0833 36 53.1202 36.0656 52.1644 36.1899C52.1401 36.27 52.1196 36.3499 52.1015 36.4303C51.9346 37.3767 51.8451 38.3329 51.7412 39.2907C51.6326 40.2892 51.5178 41.2873 51.419 42.2869C51.3431 43.0339 50.598 43.5706 49.8711 43.4742C49.8234 43.4678 49.775 43.4586 49.7295 43.4477C49.0492 43.2841 48.6153 42.627 48.6862 41.9269Z" fill="black"/>
<path d="M34.4025 53.1211C34.279 51.7886 34.2282 50.4483 34.2467 49.1094C34.2658 47.6519 34.3228 46.1895 34.5518 44.7482C34.6591 44.0707 34.8211 43.4077 35.1812 42.8151C35.6062 42.1154 36.3236 41.72 37.1169 41.6034C37.5482 41.5402 38.0112 41.5769 38.4487 41.5721C38.7732 41.5692 39.0971 41.5636 39.4216 41.5607C40.8281 41.5397 42.2359 41.5242 43.6428 41.4755C44.8087 41.4346 45.9724 41.3818 47.1357 41.315C47.5414 41.2899 47.9487 41.2689 48.3543 41.2286C48.7885 41.185 49.2424 41.0804 49.6741 41.1843C50.4059 41.3602 50.8428 42.1572 50.6535 42.8706C50.4966 43.4653 49.9727 43.8503 49.3946 43.8871C49.4009 43.8874 49.4063 43.8861 49.4125 43.8864C48.4251 44.0005 47.4352 44.0559 46.4452 44.1125C45.4703 44.169 44.495 44.2114 43.521 44.2377C42.5077 44.2647 41.4958 44.2857 40.4836 44.3028C39.4839 44.3204 38.4829 44.3175 37.4842 44.3416L37.4839 44.3428C37.4391 44.4446 37.4016 44.5482 37.3706 44.6559C37.3889 44.6008 37.4075 44.5446 37.4261 44.4883C37.3853 44.6316 37.3508 44.775 37.3187 44.9191C37.2044 45.6467 37.1283 46.3734 37.0719 47.1074C36.9889 48.6571 36.9778 50.2128 37.063 51.7625C37.0842 52.1002 37.1108 52.4368 37.1412 52.773C37.2108 53.5195 36.7112 54.219 35.9467 54.3159C35.7849 54.3365 35.6205 54.326 35.4638 54.2884C34.9186 54.1572 34.4561 53.7032 34.4025 53.1211Z" fill="black"/>
<path d="M23.5786 62.0105C23.4754 60.5514 23.3809 59.093 23.3043 57.6339C23.2649 56.8984 23.2476 56.1657 23.2628 55.4294C23.2788 54.6477 23.3427 53.8612 23.539 53.1027C23.6327 52.7344 23.7957 52.3827 23.9881 52.0559C24.0745 51.9072 24.1858 51.7492 24.3097 51.6285C24.4019 51.5343 24.4995 51.444 24.6002 51.3569C24.7105 51.2822 24.8217 51.2091 24.9344 51.135C25.0773 51.0403 25.2784 50.9774 25.4429 50.9347C25.6132 50.8897 25.7904 50.8678 25.9657 50.8543C26.2414 50.8333 26.5157 50.855 26.7909 50.868C27.1469 50.8866 27.5026 50.9013 27.8588 50.9137C28.5689 50.9377 29.2781 50.9552 29.9879 50.9704C31.456 50.9984 32.921 50.9814 34.3869 50.9659C34.6237 50.9646 34.8615 50.9699 35.0979 50.9863C35.1498 50.9861 35.2035 50.9889 35.2552 50.995C35.5743 50.9883 35.9023 51.0495 36.2026 51.1103C36.9395 51.2597 37.3656 52.1021 37.1821 52.7967C37.0889 53.1474 36.856 53.4532 36.5415 53.6356C36.2228 53.8195 35.8818 53.8488 35.5295 53.783C35.574 53.7925 35.6189 53.8007 35.6649 53.8092C35.5053 53.7784 35.3408 53.768 35.1793 53.7507C35.1316 53.7493 35.0841 53.7467 35.0364 53.7403C35.0164 53.7393 34.9967 53.7371 34.9767 53.7361C34.8553 53.7359 34.7314 53.7302 34.6067 53.7281C34.0324 53.7177 33.4569 53.7336 32.8828 53.7435C31.8327 53.7604 30.7823 53.7468 29.7319 53.7231C29.1844 53.7116 28.636 53.6986 28.0888 53.6809C27.4879 53.6603 26.8838 53.6111 26.2836 53.6034C26.2625 53.654 26.2427 53.7049 26.2229 53.7558C26.1994 53.8323 26.1795 53.9097 26.1608 53.9875C26.1111 54.2677 26.0785 54.5508 26.0506 54.835C25.9683 56.266 26.0642 57.6918 26.1495 59.1201C26.146 59.0611 26.1428 59.0009 26.139 58.943C26.1943 59.8493 26.2531 60.7564 26.317 61.6635C26.3423 62.0263 26.2744 62.3718 26.0515 62.6673C25.8299 62.9631 25.4901 63.1609 25.1225 63.2065C24.9622 63.2262 24.7989 63.216 24.6411 63.178C24.0964 63.0445 23.6208 62.5924 23.5786 62.0105Z" fill="black"/>
</svg>
