<svg width="61" height="58" viewBox="0 0 61 58" fill="none" xmlns="http://www.w3.org/2000/svg">
<path d="M0.260171 36.9545C-0.582328 41.446 0.63374 45.8958 3.68309 49.483C6.49356 52.7897 10.5938 54.611 15.2296 54.611C18.9812 54.611 22.764 53.4446 25.9456 51.4334C29.193 55.2394 34.5846 57.2002 39.7639 57.2002C42.6104 57.2002 45.3239 56.6278 47.6101 55.5449C53.3529 52.825 57.9542 47.2609 59.6183 41.0236C61.0092 35.8066 60.1827 30.6402 57.2889 26.475C55.5686 23.9996 52.6026 21.9026 49.36 20.6721C49.9941 16.7955 49.2382 13.003 47.1083 9.65708C43.3744 3.79165 35.832 0.00080216 27.8927 1.83641e-07L27.8911 1.83463e-07C25.8911 -4.07869e-08 23.948 0.250896 22.1163 0.744689C14.8737 2.69823 9.09081 7.62258 6.64828 13.9177C5.0202 18.1149 5.122 22.5086 6.73405 26.075C3.37287 29.0554 1.01129 32.9448 0.260171 36.9545Z" fill="#FCD800"/>
<path d="M7.15111 46.5353C12.461 52.7823 23.1257 49.9838 27.5034 43.8843C28.1887 51.8676 39.3224 54.432 45.66 51.4308C53.4629 47.7353 58.9765 36.887 53.5487 29.0736C51.6737 26.3746 47.1606 24.0475 43.3658 24.0499C43.4892 23.9754 43.599 23.8607 43.6792 23.6892C49.6769 10.8497 34.3484 2.16095 23.3013 5.14137C17.9705 6.57947 12.9332 10.3054 10.8931 15.5648C9.36198 19.5111 9.80126 24.4411 13.1119 27.1313C6.28697 30.8196 1.25842 39.6029 7.15111 46.5353ZM15.3332 28.0131C15.9481 27.7526 15.8735 26.7698 15.3332 26.486C10.8738 24.1421 11.2297 18.2735 13.4254 14.4562C15.6202 10.6413 19.585 8.00874 23.7799 6.87846C33.1179 4.36379 47.4669 11.3306 42.1185 22.7761C41.8491 23.3525 42.2002 23.8872 42.6515 24.0788C39.9893 24.3 37.8106 25.7982 37.3785 29.3125C36.9993 32.3947 39.4435 35.5435 42.658 35.6084C44.8848 35.6533 46.8552 33.7487 44.9698 31.8216C44.674 31.5194 44.0992 31.9298 44.3662 32.2873C44.0014 32.7106 43.6552 33.0569 43.3249 33.331C42.2034 33.6589 40.8759 33.2998 40.0671 32.3955C39.3665 31.6132 39.1204 30.6929 39.0755 29.7358C39.1685 29.545 39.2783 29.3502 39.4218 29.149C40.1248 26.6399 41.599 25.666 44.1987 25.6403C46.6773 25.6163 49.1542 26.7834 50.8897 28.5229C54.9716 32.612 54.7046 39.0313 51.8084 43.724C49.1687 48.0014 44.3646 51.478 39.1517 51.3474C33.1932 51.1983 29.873 47.1229 28.5495 41.7609C28.3996 41.1524 27.6012 41.3576 27.5362 41.8979C27.5202 42.035 27.5162 42.1656 27.505 42.3003C23.3678 48.1385 11.9664 51.6696 7.63209 44.3108C3.59354 37.4554 9.15035 30.6328 15.3332 28.0131Z" fill="#1D1D1B"/>
</svg>
