<svg width="160" height="315" viewBox="0 0 160 315" fill="none" xmlns="http://www.w3.org/2000/svg">
<path d="M133.192 128.094C133.646 127.605 134.096 127.117 134.55 126.629C134.969 126.174 135.326 125.649 135.707 125.162C136.113 124.645 136.522 124.125 136.928 123.605C137.303 123.128 137.617 122.585 137.954 122.079C138.295 121.573 138.633 121.071 138.972 120.567C139.967 119.087 140.799 117.466 141.569 115.846C143.013 112.793 144.092 109.526 144.783 106.158C145.128 104.473 145.319 102.735 145.471 101.002C145.634 99.1639 145.654 97.3044 145.596 95.441C145.484 91.7582 144.803 88.052 143.778 84.4307C142.759 80.8373 141.171 77.3817 139.093 74.191C137.061 71.0679 134.419 68.3884 131.496 66.0884C128.542 63.7593 125.208 62.0082 121.778 60.6443C114.892 57.9051 107.492 56.6909 100.374 56.9271C97.4384 57.0225 94.4854 57.3608 91.6846 58.0621C90.3778 58.3905 89.0486 58.6713 87.7785 59.1001C86.5356 59.5201 85.2749 59.903 84.0755 60.4165C83.3198 60.7383 82.567 61.0602 81.8128 61.3834C81.3335 61.5865 80.8825 61.8346 80.4221 62.0705C79.7289 62.4272 79.0343 62.7853 78.3412 63.145C77.8611 63.3916 77.4081 63.6902 76.9482 63.9654C76.3983 64.2942 75.8497 64.6188 75.3012 64.9463C74.6951 65.3101 74.1193 65.732 73.5304 66.1214C72.3934 66.8774 71.2991 67.679 70.2009 68.4877C69.8375 68.7545 69.4948 69.0281 69.1499 69.3161C68.5631 69.81 67.9432 70.2763 67.3915 70.8082C66.9243 71.2615 66.4572 71.7148 65.9899 72.1652C65.542 72.5992 65.138 73.0715 64.7189 73.5315C64.0005 74.3253 63.3317 75.1577 62.7294 76.0485C62.3459 76.6162 62.0178 77.2229 61.7091 77.8406C61.4816 77.9834 61.2867 78.1727 61.1391 78.4123C58.5902 82.558 56.1183 86.7974 54.2115 91.3241C53.2694 93.5655 52.5423 95.9146 51.9531 98.3023C51.6529 99.5154 51.4043 100.747 51.2406 102C51.0651 103.338 50.9603 104.673 50.8988 106.034C50.7781 108.742 51.0821 111.497 51.5032 114.219C51.8846 116.689 52.5409 119.188 53.396 121.579C53.8778 122.923 54.3865 124.255 54.9923 125.56C55.6044 126.877 56.2992 128.139 57.0599 129.386C57.7562 130.527 58.5522 131.608 59.4139 132.638C59.9622 133.293 60.5719 133.902 61.1548 134.525C61.6476 135.05 62.1989 135.558 62.7483 136.026C63.2357 136.44 63.709 136.89 64.2183 137.279C64.8041 137.723 65.3782 138.193 65.9881 138.597C66.5279 138.956 67.0595 139.356 67.619 139.673C68.2528 140.032 68.8796 140.425 69.5315 140.741C70.1168 141.024 70.6995 141.342 71.2946 141.59C71.9959 141.878 72.6926 142.192 73.4009 142.446C74.0592 142.683 74.7204 142.919 75.3787 143.156C76.6968 143.631 78.0556 143.961 79.3994 144.309C80.6099 144.623 81.8488 144.866 83.0746 145.019C83.7764 145.108 84.4809 145.225 85.1823 145.275C85.9691 145.328 86.7546 145.382 87.5415 145.434C88.7233 145.515 89.9137 145.505 91.0894 145.488C92.5743 145.463 94.043 145.402 95.5179 145.32C96.7605 145.251 97.9872 145.094 99.2197 144.966C99.8013 144.904 100.38 144.775 100.954 144.678C101.542 144.582 102.137 144.498 102.719 144.369C104.029 144.08 105.338 143.807 106.626 143.443C107.328 143.245 108.034 143.047 108.737 142.848C109.373 142.668 109.989 142.422 110.609 142.211C111.202 142.008 111.795 141.806 112.387 141.603C113.014 141.389 113.616 141.099 114.225 140.849C114.767 140.626 115.31 140.404 115.855 140.181C116.487 139.922 117.089 139.58 117.703 139.282C118.249 139.015 118.794 138.752 119.341 138.484C119.951 138.187 120.525 137.827 121.113 137.494C121.725 137.145 122.338 136.796 122.95 136.447C123.426 136.174 123.87 135.842 124.326 135.54C124.936 135.133 125.55 134.728 126.16 134.323C126.644 134.003 127.084 133.625 127.537 133.265C128.113 132.813 128.685 132.358 129.263 131.904C129.703 131.554 130.101 131.133 130.51 130.75C131.032 130.263 131.553 129.777 132.078 129.291C132.133 129.238 132.187 129.187 132.241 129.133C132.571 128.802 132.876 128.435 133.192 128.094ZM128.457 125.714C128.059 126.143 127.59 126.526 127.161 126.923C126.791 127.266 126.423 127.611 126.053 127.954C125.123 128.689 124.192 129.424 123.263 130.158C122.263 130.822 121.262 131.485 120.261 132.15C119.724 132.506 119.124 132.796 118.562 133.115C118.003 133.435 117.443 133.753 116.884 134.07C116.025 134.485 115.17 134.904 114.313 135.321C113.629 135.653 112.931 135.939 112.223 136.228C111.455 136.543 110.699 136.89 109.911 137.159C108.973 137.481 108.032 137.802 107.094 138.124C106.06 138.416 105.029 138.706 103.996 138.998C103.565 139.119 103.112 139.194 102.671 139.292C102.117 139.415 101.565 139.536 101.009 139.66C99.6613 139.886 98.3222 140.113 96.9543 140.255C96.2633 140.329 95.5745 140.419 94.8774 140.456C94.0735 140.5 93.2698 140.546 92.4659 140.59C91.2629 140.61 90.0632 140.639 88.8563 140.608C87.5567 140.575 86.2682 140.501 84.9673 140.412C84.2363 140.318 83.5069 140.226 82.7746 140.134C82.4237 140.089 82.0675 139.995 81.7197 139.926C81.3399 139.852 80.9601 139.779 80.5788 139.703C79.5912 139.449 78.6037 139.198 77.6252 138.892C76.6085 138.576 75.6092 138.23 74.605 137.871C74.0099 137.625 73.4148 137.377 72.8198 137.132C72.303 136.919 71.7949 136.647 71.2908 136.396C70.77 136.101 70.2478 135.804 69.727 135.509C69.1959 135.209 68.6897 134.826 68.1783 134.485C68.2516 134.533 68.3248 134.582 68.3967 134.632C67.8859 134.244 67.3782 133.86 66.8661 133.473C66.3688 133.094 65.9031 132.652 65.4261 132.242C65.5105 132.313 65.5907 132.385 65.6737 132.455C65.226 132.025 64.7783 131.596 64.3307 131.166C63.9772 130.828 63.6495 130.455 63.3179 130.092C62.8779 129.582 62.4562 129.062 62.0527 128.527C61.4903 127.731 60.9905 126.911 60.4831 126.084C60.2363 125.618 59.985 125.15 59.7381 124.684C59.4723 124.185 59.2556 123.652 59.0181 123.139C58.6104 122.13 58.2287 121.122 57.8609 120.099C57.5095 119.116 57.238 118.11 56.9608 117.107C56.6034 115.553 56.3044 114.007 56.0595 112.444C55.8958 110.976 55.7894 109.524 55.7359 108.058C55.7426 107.179 55.764 106.307 55.8012 105.43C55.8413 104.585 55.9529 103.75 56.0645 102.915C56.289 101.604 56.5626 100.32 56.8753 99.0362C57.4764 96.8958 58.1849 94.8187 59.0344 92.7861C60.537 89.5068 62.2644 86.3588 64.0949 83.2782C64.7991 83.0265 65.3317 82.4312 65.4928 81.6626C65.5387 81.5343 65.5861 81.4074 65.6365 81.2836C65.9505 80.624 66.2676 79.9704 66.6307 79.3408C67.0048 78.7581 67.4094 78.206 67.8421 77.6683C68.8041 76.5265 69.8609 75.4879 70.9307 74.4515C71.245 74.1881 71.5607 73.9233 71.8748 73.657C72.2252 73.3606 72.5643 73.0418 72.9317 72.7709C73.7646 72.1583 74.5974 71.5457 75.4302 70.9331C76.1298 70.4693 76.8309 70.0041 77.5305 69.5403C78.1684 69.1171 78.8299 68.7313 79.4866 68.3379C80.1392 67.9488 80.7813 67.5519 81.4562 67.2044C82.2341 66.8025 83.0135 66.4021 83.7914 66.0002C84.8604 65.5442 85.9252 65.0894 86.9942 64.6334C87.4989 64.417 88.0578 64.2743 88.5817 64.0966C89.0971 63.9214 89.614 63.7477 90.1322 63.5726C91.6935 63.1811 93.2461 62.7616 94.833 62.4513C96.8013 62.0999 98.7948 61.8789 100.816 61.7797C102.84 61.717 104.869 61.7778 106.908 61.9508C109.112 62.1711 111.303 62.5271 113.488 63.0106C115.392 63.4616 117.275 64.0073 119.139 64.6667C120.713 65.2511 122.257 65.911 123.772 66.6608C124.896 67.2451 125.986 67.8756 127.048 68.576C128.094 69.3001 129.099 70.0702 130.075 70.8911C130.9 71.6162 131.688 72.3728 132.443 73.1743C133.125 73.936 133.773 74.7192 134.386 75.5355C135.063 76.4856 135.685 77.4635 136.265 78.4712C136.892 79.6177 137.452 80.7855 137.957 81.9812C138.514 83.384 138.97 84.8024 139.371 86.2426C139.817 87.952 140.159 89.671 140.411 91.4015C140.626 93.0794 140.743 94.7497 140.769 96.4228C140.765 98.5225 140.615 100.595 140.356 102.655C140.128 104.25 139.804 105.807 139.388 107.344C138.875 109.125 138.256 110.855 137.534 112.544C136.805 114.169 135.977 115.731 135.065 117.247C134.378 118.354 133.622 119.417 132.894 120.495C132.602 120.928 132.245 121.326 131.925 121.735C131.557 122.205 131.191 122.673 130.821 123.144C130.042 124.005 129.249 124.859 128.457 125.714Z" fill="black"/>
<path d="M99.4465 92.8819C100.294 91.9856 100.222 90.3772 99.2004 89.4409C96.8551 87.2938 94.4196 85.2555 91.9747 83.2328C90.7567 82.2246 89.5199 81.2444 88.2721 80.2782C87.6288 79.7826 86.9777 79.304 86.3224 78.8295C86.033 78.6196 85.734 78.4222 85.4393 78.2236C84.8634 77.8342 84.1738 77.4278 83.4835 77.4552C82.4986 77.4944 81.7081 77.9638 81.3591 78.8843C81.2501 79.1736 81.2113 79.5084 81.237 79.8303C81.3123 80.8469 82.0202 81.7505 82.9416 82.132C82.9609 82.1431 82.9818 82.1557 83.0011 82.1668C84.7611 83.3727 86.4487 84.6968 88.1098 86.0415C89.7786 87.3968 91.4271 88.7786 93.0632 90.1757C94.0612 91.0354 95.0512 91.9064 96.0231 92.7953C97.0315 93.7179 98.5221 93.8121 99.4121 92.9194C99.4232 92.9083 99.4341 92.8943 99.4465 92.8819Z" fill="black"/>
<path d="M88.9734 103.663C89.3933 103.221 89.605 102.603 89.558 101.961C89.5112 101.294 89.1983 100.72 88.7271 100.222C86.7446 98.1263 84.6987 96.0939 82.6416 94.0726C81.6085 93.0559 80.5711 92.0405 79.5172 91.0446C78.9533 90.5151 78.3894 89.9856 77.8212 89.4573C77.3378 89.0057 76.8647 88.5285 76.3538 88.1075C75.2852 87.2241 73.6995 87.4662 72.9909 88.4606C72.6332 88.9627 72.5059 89.6211 72.6398 90.2646C72.7629 90.8641 73.0911 91.3676 73.548 91.7788C73.5088 91.7449 73.4666 91.711 73.4273 91.6771C74.458 92.5834 75.4442 93.5557 76.4448 94.4983C77.5122 95.505 78.5592 96.5383 79.6074 97.5673C81.6186 99.54 83.6119 101.531 85.5501 103.577C86.4909 104.57 88.0971 104.542 88.9403 103.696C88.9513 103.685 88.9623 103.674 88.9734 103.663Z" fill="black"/>
<path d="M116.288 116.909C117.183 115.816 117.864 114.533 118.363 113.193C118.756 112.15 118.895 110.986 118.998 109.854C119.151 108.151 119.178 106.458 119.045 104.725C118.914 103.038 118.442 101.333 117.924 99.6927C117.418 98.0921 116.731 96.5146 115.892 95.0356C115.102 93.6432 113.972 91.9426 112.243 91.8644C110.922 91.8046 109.903 92.9306 109.997 94.2369C110.054 95.0423 110.5 95.7576 111.131 96.2135C111.148 96.2303 111.168 96.2472 111.184 96.264C111.206 96.2882 111.226 96.3139 111.246 96.3395C111.446 96.6395 111.631 96.9446 111.811 97.2552C112.131 97.8527 112.419 98.4573 112.688 99.0755C113.06 100.008 113.38 100.949 113.664 101.906C113.851 102.634 114.009 103.36 114.14 104.095C114.219 104.785 114.268 105.471 114.301 106.163C114.293 107.456 114.203 108.73 114.044 110C113.994 110.309 113.932 110.61 113.858 110.909C113.768 111.176 113.672 111.437 113.568 111.698C113.402 112.044 113.229 112.379 113.038 112.711C112.757 113.149 112.455 113.564 112.133 113.969C111.804 114.342 111.464 114.701 111.106 115.048C110.595 115.499 110.064 115.919 109.508 116.313C109.016 116.629 108.514 116.922 107.994 117.193C107.444 117.452 106.884 117.682 106.308 117.887C105.633 118.097 104.952 118.274 104.251 118.419C103.265 118.581 102.277 118.657 101.273 118.712C100.378 118.698 99.493 118.661 98.5958 118.6C97.3961 118.449 96.209 118.26 95.0153 118.024C94.1633 117.82 93.3175 117.597 92.4743 117.336C91.6279 117.071 90.7885 116.769 89.9534 116.466C88.3674 115.869 86.8012 115.232 85.2714 114.478C85.077 114.377 84.8824 114.273 84.6893 114.171C83.4787 113.525 82.0419 113.797 81.4383 114.961C80.8731 116.049 81.3333 117.665 82.5454 118.313C84.8852 119.566 87.3218 120.548 89.7963 121.416C92.2944 122.293 94.8386 122.984 97.4196 123.303C98.146 123.392 98.8615 123.464 99.5876 123.517C100.273 123.568 100.95 123.571 101.631 123.581C102.267 123.59 102.905 123.521 103.537 123.488C104.3 123.448 105.066 123.311 105.804 123.163C106.7 122.981 107.578 122.757 108.431 122.453C109.91 121.931 111.3 121.241 112.573 120.364C113.467 119.749 114.281 119.063 115.034 118.308C115.471 117.861 115.89 117.398 116.288 116.909Z" fill="black"/>
<path d="M200.926 199.942C204.31 196.222 207.643 192.433 210.773 188.489C212.373 186.469 213.916 184.415 215.327 182.249C215.95 181.296 216.565 180.31 216.986 179.237C217.213 178.662 217.462 178.018 217.476 177.37C217.492 176.631 217.418 175.934 217.114 175.219C216.779 174.427 216.22 173.755 215.635 173.122C215.142 172.582 214.637 172.07 214.103 171.574C212.219 169.831 210.263 168.16 208.348 166.453C206.335 164.656 204.319 162.862 202.301 161.067C198.315 157.521 194.286 154.021 190.263 150.516C186.144 146.924 182.039 143.314 177.941 139.698C173.755 136.001 169.563 132.312 165.328 128.674C160.888 124.861 156.43 121.068 151.965 117.283C150.246 115.825 148.526 114.369 146.806 112.912C145.981 112.215 145.157 111.516 144.333 110.817C143.908 110.457 143.485 110.1 143.062 109.737C142.706 109.432 142.347 109.105 141.926 108.912C140.801 108.39 139.471 108.818 138.939 109.843C138.383 110.91 138.804 112.262 139.805 113.031C139.799 113.028 139.792 113.023 139.786 113.02C140.467 113.523 141.097 114.13 141.744 114.676C142.6 115.401 143.454 116.125 144.308 116.849C145.913 118.207 147.52 119.566 149.124 120.928C152.554 123.839 155.978 126.753 159.401 129.67C163.448 133.147 167.49 136.63 171.488 140.161C175.808 143.975 180.128 147.793 184.463 151.586C188.484 155.104 192.527 158.593 196.528 162.129C200.535 165.666 204.515 169.236 208.511 172.787C209.641 173.793 210.799 174.769 211.866 175.841C212.115 176.113 212.361 176.387 212.596 176.67C212.554 176.8 212.507 176.93 212.457 177.057C212.155 177.692 211.821 178.301 211.461 178.901C210.712 180.048 209.964 181.195 209.137 182.287C208.155 183.586 207.161 184.867 206.147 186.139C203.554 189.269 200.895 192.335 198.197 195.373C195.522 198.382 192.673 201.21 189.726 203.946C187.244 206.188 184.743 208.413 182.12 210.492C179.508 212.565 176.83 214.549 174.079 216.443C174.118 216.416 174.16 216.389 174.199 216.361C172.917 217.235 171.649 218.169 170.27 218.902C170.214 218.925 170.157 218.949 170.1 218.972C170.053 218.986 170.005 218.998 169.957 219.011C169.918 219.011 169.881 219.009 169.842 219.009C169.817 219.006 169.791 219.002 169.764 219.001C169.776 219.004 169.789 219.006 169.801 219.01C169.797 219.011 169.789 219.009 169.789 219.009C169.704 218.987 169.619 218.963 169.534 218.936C169.313 218.847 169.098 218.748 168.883 218.643C168.545 218.451 168.218 218.252 167.889 218.042C167.037 217.45 166.242 216.799 165.438 216.14C163.589 214.472 161.782 212.759 160.041 210.972C158.126 209.007 156.244 207.014 154.375 205.005C154.45 205.085 154.524 205.164 154.597 205.244C147.19 197.201 139.906 189.028 133.104 180.477C129.562 176.028 126.087 171.527 122.609 167.029C119.289 162.736 115.913 158.49 112.486 154.278C108.947 149.932 105.374 145.612 101.898 141.216C101.038 140.13 99.4391 139.918 98.4708 140.691C97.469 141.489 97.418 143.007 98.278 144.094C101.438 148.09 104.68 152.025 107.901 155.972C111.337 160.182 114.733 164.423 118.062 168.714C121.406 173.019 124.707 177.356 128.102 181.622C131.538 185.94 135.043 190.202 138.662 194.373C142.333 198.606 146.062 202.783 149.857 206.907C153.625 211.001 157.409 215.131 161.548 218.855C162.853 220.027 164.193 221.184 165.666 222.132C166.933 222.951 168.282 223.66 169.75 223.841C170.323 223.91 170.96 223.909 171.502 223.758C172.086 223.593 172.615 223.371 173.146 223.098C173.605 222.86 174.032 222.56 174.465 222.281C174.969 221.956 175.468 221.62 175.966 221.286C176.914 220.645 177.858 219.997 178.794 219.336C182.785 216.514 186.594 213.487 190.265 210.275C192.739 208.108 195.153 205.879 197.473 203.552C198.655 202.379 199.805 201.176 200.926 199.942Z" fill="black"/>
<path d="M154.521 119.612C154.53 119.228 154.469 118.862 154.335 118.52C154.341 118.538 154.35 118.557 154.356 118.575C154.319 118.466 154.286 118.356 154.255 118.247C152.97 113.08 151.92 107.883 150.922 102.68C149.88 97.2671 148.828 91.8551 147.863 86.4358C146.956 81.3415 146.117 76.2417 145.256 71.1439C144.389 66.0225 143.526 60.8998 142.668 55.7759C142.391 54.1226 142.117 52.4694 141.833 50.8172C141.568 49.2776 141.299 47.7349 140.937 46.2066C140.587 44.7398 140.2 43.2799 139.848 41.8145C139.527 40.4769 139.167 39.1272 138.944 37.7797C138.917 37.4563 138.895 37.136 138.884 36.8147C138.888 36.7467 138.892 36.6786 138.897 36.6092C138.941 36.3545 138.996 36.1047 139.058 35.8537C139.349 34.8839 139.721 33.9558 140.094 33.0234C141.2 30.5534 142.45 28.1717 143.733 25.8017C144.958 23.5422 146.229 21.3125 147.557 19.1232C147.548 19.1387 147.538 19.1542 147.529 19.1697C147.937 18.5104 148.352 17.8557 148.777 17.2073C149.468 16.151 149.226 14.6402 148.097 13.7828C147.023 12.9659 145.426 13.0798 144.731 14.136C143.389 16.1838 142.144 18.2986 140.932 20.4326C139.783 22.4549 138.651 24.4984 137.597 26.5776C136.999 27.7545 136.413 28.9364 135.876 30.1467C135.596 30.7717 135.339 31.405 135.086 32.0428C134.63 33.1802 134.182 34.4022 134.067 35.6606C133.946 37.0305 134.185 38.383 134.493 39.752C134.724 40.795 134.97 41.8359 135.222 42.8756C135.738 45.0093 136.308 47.1311 136.712 49.2797C137.165 51.6919 137.547 54.1093 137.951 56.5234C138.811 61.6489 139.674 66.7744 140.541 71.8987C141.395 76.9658 142.231 82.0335 143.134 87.0971C144.092 92.4813 145.139 97.8582 146.172 103.237C146.714 106.062 147.276 108.884 147.87 111.702C148.187 113.211 148.533 114.718 148.884 116.221C149.032 116.862 149.183 117.504 149.342 118.141C149.503 118.785 149.625 119.477 149.928 120.088C149.924 120.074 149.921 120.059 149.92 120.045C149.985 120.19 150.065 120.332 150.156 120.467C150.139 120.447 150.124 120.429 150.108 120.408C150.161 120.492 150.222 120.574 150.285 120.654C150.923 121.449 151.995 121.813 152.904 121.578C153.281 121.481 153.629 121.278 153.902 121.004C154.271 120.646 154.508 120.153 154.521 119.612Z" fill="black"/>
<path d="M136.014 34.1144C135.701 30.6249 135.533 27.1324 135.461 23.6517C135.46 23.7619 135.461 23.8708 135.461 23.9811C135.458 22.3237 135.447 20.6455 135.568 19.0013C135.74 18.0881 135.351 17.0447 134.529 16.4199C133.419 15.5751 131.905 15.7512 131.164 16.7717C130.721 17.3843 130.722 18.1666 130.695 18.9228C130.671 19.627 130.651 20.3313 130.634 21.0372C130.597 22.4954 130.621 23.9608 130.668 25.4288C130.761 28.2763 130.917 31.1341 131.174 33.9881C131.294 35.316 132.43 36.4494 133.769 36.4825C134.403 36.4988 134.983 36.2498 135.396 35.8359C135.827 35.407 136.075 34.7921 136.014 34.1144Z" fill="black"/>
<path d="M133.988 37.4232C134.858 36.5019 134.734 34.9519 133.741 33.9807C131.679 31.9636 129.61 29.9518 127.543 27.9402C126.517 26.9412 125.49 25.9452 124.463 24.9505C123.989 24.4922 123.517 24.0353 123.04 23.5768C122.455 23.0143 121.87 22.4417 121.045 22.3262C119.724 22.1415 118.55 23.0073 118.466 24.3368C118.413 25.1701 118.822 26.0171 119.478 26.5613C120.306 27.314 121.092 28.1141 121.896 28.8918C122.89 29.8558 123.882 30.8197 124.876 31.7866C126.774 33.6318 128.669 35.4798 130.563 37.3321C131.541 38.2881 133.084 38.3268 133.951 37.4576C133.966 37.4482 133.979 37.4358 133.988 37.4232Z" fill="black"/>
<path d="M158.475 21.0727C157.613 20.0251 156.009 19.7324 155.048 20.5478C152.388 22.8001 149.623 24.9297 146.849 27.0414C143.989 29.2202 141.109 31.3762 138.197 33.4856C137.144 34.2094 136.098 34.9321 134.967 35.5418C134.568 35.7344 134.164 35.9107 133.749 36.0705C133.46 36.1595 133.17 36.2397 132.873 36.3094C132.663 36.3399 132.454 36.366 132.239 36.3831C132.111 36.3841 131.98 36.3807 131.85 36.3744C131.742 36.3604 131.634 36.3436 131.529 36.324C130.338 36.0208 129.169 35.549 128.008 35.124C125.958 34.367 123.915 33.5944 121.879 32.8003C120.706 32.3413 119.535 31.8897 118.373 31.4022C117.786 31.1575 117.2 30.907 116.62 30.6408C116.201 30.4506 115.789 30.2114 115.351 30.074C114.059 29.6615 112.748 30.4483 112.495 31.6971C112.248 32.9057 113.006 34.1586 114.164 34.6474C114.142 34.639 114.118 34.6321 114.095 34.6222C114.515 34.7776 114.93 35.0198 115.34 35.2096C115.954 35.4905 116.58 35.7443 117.2 36.0038C118.443 36.5242 119.701 37.0004 120.952 37.4849C123.353 38.4113 125.757 39.319 128.172 40.191C129.805 40.7798 131.422 41.3575 133.127 41.2314C135.846 41.0326 138.133 39.6692 140.261 38.2154C142.268 36.8428 144.209 35.3871 146.155 33.9331C150.256 30.8598 154.373 27.7858 158.279 24.4751C158.326 24.4339 158.374 24.3926 158.418 24.3483C159.251 23.5123 159.33 22.1098 158.475 21.0727Z" fill="black"/>
<path d="M111.627 158.213C112.062 156.98 111.35 155.572 110.111 154.99C109.624 154.762 109.062 154.669 108.556 154.519C107.805 154.298 107.053 154.083 106.3 153.871C105.14 153.543 103.969 153.244 102.798 152.969C100.085 152.335 97.3649 151.723 94.6472 151.12C89.2643 149.924 83.8813 148.756 78.4981 147.584C73.0681 146.402 67.6447 145.207 62.2217 143.99C62.2657 144.001 62.3096 144.012 62.352 144.021C62.3007 144.008 62.251 143.997 62.1984 143.986C62.1429 143.975 62.0871 143.96 62.0316 143.949C62.074 143.958 62.1193 143.968 62.1618 143.977C51.8555 141.572 41.5635 139.074 31.2521 136.714C28.0432 135.979 24.8347 135.25 21.6188 134.58C20.3047 134.306 19.1227 135.33 19.0406 136.592C19.0007 137.233 19.2224 137.899 19.6544 138.423C20.091 138.952 20.6671 139.256 21.3074 139.389C23.8946 139.927 26.4723 140.508 29.0531 141.091C29.021 141.084 28.9873 141.075 28.9537 141.069C29.0488 141.09 29.1439 141.113 29.239 141.134C29.2507 141.137 29.2638 141.139 29.2756 141.143C29.2698 141.143 29.2638 141.139 29.258 141.139C39.5049 143.481 49.7292 145.987 59.9715 148.355C70.4844 150.784 81.0281 152.981 91.5509 155.315C94.0917 155.878 96.6339 156.443 99.1751 157.015C100.877 157.412 102.575 157.814 104.272 158.251C105.759 158.632 107.234 159.084 108.714 159.508C109.594 159.84 110.536 159.6 111.132 159.002C111.35 158.777 111.52 158.513 111.627 158.213Z" fill="black"/>
<path d="M35.9314 141.458C36.4789 140.121 36.003 138.36 35.0231 137.189C34.1154 136.104 33.0481 135.158 32.0257 134.186C31.1338 133.338 30.2464 132.493 29.3559 131.644C28.1498 130.493 26.9437 129.341 25.7474 128.183C25.1825 127.633 24.6191 127.085 24.0501 126.539C23.5463 126.056 23.0478 125.534 22.4893 125.115C21.3812 124.286 19.8603 124.433 19.1245 125.467C18.3969 126.49 18.6986 128.06 19.8008 128.888C20.6918 129.688 21.5391 130.54 22.4012 131.372C23.4532 132.388 24.5064 133.4 25.5594 134.409C26.5061 135.311 27.4496 136.21 28.399 137.109C29.3167 137.983 30.2584 138.844 31.1389 139.755C31.1252 139.771 31.1131 139.79 31.098 139.808C30.7111 140.245 30.2964 140.645 29.8713 141.041C27.6972 142.883 25.374 144.545 23.0568 146.21C20.7983 147.832 18.5349 149.443 16.2578 151.041C15.2249 151.766 15.2195 153.418 16.065 154.443C16.4877 154.956 17.0879 155.309 17.7208 155.409C18.3917 155.517 18.9775 155.332 19.4939 154.97C23.3693 152.251 27.2668 149.541 31.0185 146.66C32.0063 145.901 32.9576 145.105 33.8748 144.262C33.9953 144.15 34.1142 144.037 34.2302 143.92C34.9395 143.209 35.539 142.409 35.9314 141.458Z" fill="black"/>
<path d="M29.0745 159.018C31.5935 155.034 34.1139 151.047 36.6973 147.108C37.3549 146.104 38.0213 145.103 38.643 144.074C39.5939 142.492 40.7072 140.798 40.6249 138.797C40.5649 137.348 39.8962 135.938 39.3366 134.571C38.831 133.333 38.3256 132.099 37.823 130.861C37.2004 129.329 36.5835 127.794 35.9709 126.258C35.3587 124.73 34.7151 123.213 34.1457 121.673C33.6758 120.393 32.3148 119.571 31.047 119.897C29.8221 120.21 29.099 121.567 29.569 122.847C30.0089 124.044 30.5088 125.223 30.983 126.41C31.541 127.806 32.0962 129.201 32.6599 130.594C33.1726 131.858 33.6851 133.12 34.202 134.383C34.7335 135.677 35.3141 136.971 35.7428 138.295C35.7538 138.342 35.7632 138.387 35.7728 138.435C35.7733 138.447 35.7738 138.456 35.7743 138.467C35.7719 138.507 35.7708 138.544 35.7699 138.585C35.7596 138.641 35.7479 138.698 35.7347 138.754C35.6972 138.877 35.6538 138.997 35.6075 139.117C35.242 139.907 34.8017 140.648 34.3573 141.393C32.833 143.803 31.2455 146.164 29.7121 148.568C28.1466 151.026 26.5857 153.488 25.0291 155.95C24.6917 156.483 24.5385 157.085 24.675 157.754C24.8039 158.384 25.1811 158.973 25.7084 159.374C26.6564 160.095 28.0603 160.099 28.829 159.328C28.9213 159.233 29.0033 159.132 29.0745 159.018Z" fill="black"/>
</svg>
