<svg width="94" height="99" viewBox="0 0 94 99" fill="none" xmlns="http://www.w3.org/2000/svg">
<mask id="mask0_1195_7321" style="mask-type:luminance" maskUnits="userSpaceOnUse" x="13" y="1" width="32" height="46">
<path d="M44.6504 7.29907L30.9501 46.507L13.1005 40.2354L26.8008 1.02746L44.6504 7.29907Z" fill="white"/>
</mask>
<g mask="url(#mask0_1195_7321)">
<mask id="mask1_1195_7321" style="mask-type:luminance" maskUnits="userSpaceOnUse" x="-1" y="2" width="99" height="99">
<path d="M97.5813 33.6823L64.7762 100.815L-0.796817 69.8313L32.0083 2.69882L97.5813 33.6823Z" fill="white"/>
</mask>
<g mask="url(#mask1_1195_7321)">
<mask id="mask2_1195_7321" style="mask-type:luminance" maskUnits="userSpaceOnUse" x="-1" y="2" width="99" height="99">
<path d="M97.5737 33.6786L64.7707 100.808L-0.804878 69.8228L31.9981 2.69304L97.5737 33.6786Z" fill="white"/>
</mask>
<g mask="url(#mask2_1195_7321)">
<mask id="mask3_1195_7321" style="mask-type:luminance" maskUnits="userSpaceOnUse" x="-1" y="2" width="99" height="99">
<path d="M97.5757 33.6774L64.7729 100.807L-0.802939 69.821L31.9998 2.69158L97.5757 33.6774Z" fill="white"/>
</mask>
<g mask="url(#mask3_1195_7321)">
<path d="M38.0318 7.58812C38.1995 7.75451 38.338 7.84616 38.5508 7.64584C38.7689 7.4302 38.9317 7.49172 39.0635 7.80027C39.1177 7.93537 39.1882 8.06332 39.2383 8.19698C39.2856 8.32538 39.3138 8.45565 39.3628 8.63193C39.7148 8.62669 40.0343 8.46386 40.3302 8.24977C40.3628 8.22253 40.3664 8.15933 40.4004 8.14118C40.8014 7.92963 41.1941 7.68935 41.6159 7.52379C41.9847 7.37828 42.2328 7.55149 42.3583 7.93089C42.3988 8.05257 42.4909 8.15804 42.5903 8.32194C42.4918 8.28733 42.4289 8.25659 42.3674 8.24789C42.3182 8.24351 42.2433 8.26016 42.2231 8.29173C42.2015 8.32713 42.2102 8.40759 42.2364 8.43827C42.5075 8.77 42.5089 8.76617 42.5616 9.08993C42.6077 9.03733 42.6495 8.97035 42.7065 8.9259C42.8001 8.85565 42.9075 8.79882 43.0081 8.73528C43.017 8.84159 43.0738 8.96904 43.0349 9.05422C42.6788 9.83611 42.3145 10.6151 41.9352 11.3845C41.658 11.9405 41.3617 12.4855 41.0613 13.029C41.002 13.1328 40.8811 13.215 40.7683 13.2742C40.5317 13.3974 40.3731 13.3503 40.3952 12.9969C40.2659 13.0504 40.1789 13.0885 40.0374 13.1506C40.2433 13.3261 40.397 13.4532 40.5604 13.5923C40.4178 13.8818 40.2594 14.256 40.0504 14.6038C39.9816 14.7215 39.7883 14.7739 39.6537 14.8556C39.6181 14.8388 39.5812 14.8258 39.5484 14.8143C39.5741 14.9781 39.6094 15.1409 39.6296 15.3071C39.6355 15.3564 39.6237 15.4297 39.5911 15.4569C39.3551 15.6577 39.1903 15.8921 39.0777 16.1749C39.0133 16.3328 38.9396 16.5175 38.8052 16.6122C38.4291 16.8841 38.3627 17.3379 38.0922 17.6641C37.6808 18.1557 37.2914 18.6637 36.8911 19.1635C36.7531 19.3342 36.6234 19.5078 36.4826 19.6733C36.0562 20.1554 35.627 20.6321 35.2006 21.1142C34.9556 21.3935 34.7175 21.6795 34.4738 21.9549C34.4007 22.0324 34.2974 22.0906 34.2202 22.1667C34.0834 22.3077 33.9521 22.4593 33.8208 22.6109C33.7653 22.6774 33.7236 22.7573 33.6612 22.8171C33.2153 23.2364 32.7584 23.6475 32.3234 24.0749C32.0578 24.3341 31.8279 24.623 31.5691 24.8888C31.0259 25.4416 30.473 25.9823 29.9311 26.5312C29.2388 27.2337 28.5575 27.9442 27.8652 28.6466C27.5211 28.9985 27.1454 29.3222 26.8054 29.6755C26.5521 29.939 26.3469 30.2495 26.0881 30.5024C25.775 30.805 25.4248 31.0689 25.0545 31.3772C25.017 31.4714 24.987 31.6629 24.8759 31.783C24.4278 32.2875 23.9385 32.7517 23.4905 33.2562C22.9517 33.8621 22.4912 34.5472 21.8975 35.0993C21.1533 35.7921 20.6712 36.6973 19.8734 37.3455C19.7391 37.453 19.6103 37.5711 19.4964 37.673C19.3815 37.6326 19.2171 37.5361 19.1737 37.5681C19.0339 37.678 18.8129 37.8755 18.8518 37.9751C19.0148 38.4451 18.6386 38.5063 18.3723 38.662C18.2337 38.7423 18.1116 38.8412 17.9839 38.9296C17.6418 39.1705 17.301 39.4075 16.967 39.6512C16.6711 39.8653 16.4715 40.1992 16.053 40.2628C15.8308 40.2922 15.6185 40.3723 15.3962 40.3887C15.2885 40.3939 15.1215 40.318 15.0718 40.236C15.0289 40.1608 15.0727 39.9827 15.1459 39.9182C15.3561 39.7255 15.3361 39.5981 15.0988 39.4201C14.8916 39.2613 14.9232 38.9071 15.1375 38.7288C15.3803 38.5218 15.4181 38.2685 15.3996 37.9654C15.3192 37.9845 15.2919 37.9835 15.2784 37.9959C15.186 38.0623 15.0937 38.1287 15.0055 38.1966C14.9992 38.0826 14.9561 37.9557 14.9908 37.8561C15.0617 37.6532 15.1736 37.4647 15.3014 37.2044C15.5201 37.6467 15.8281 37.5959 16.1768 37.5078C16.0453 37.2381 16.1438 37.0878 16.376 36.9244C16.6381 36.7414 16.8258 36.4678 17.0356 36.2234C17.0667 36.1871 17.058 36.1195 17.0737 36.0219C16.7152 36.2699 16.5866 36.5986 16.2003 36.5832C16.1635 36.5832 16.0798 36.7171 16.0953 36.7785C16.1603 37.0936 15.8492 37.1004 15.6973 37.2318C15.696 37.2356 15.5439 37.1435 15.5435 37.0918C15.5237 36.8054 15.5546 36.5325 15.8013 36.4989C15.9836 36.2276 16.1241 36.0363 16.2414 35.8325C16.3263 35.6818 16.3564 35.5032 16.4427 35.3616C17.0227 34.4005 17.6095 33.4461 18.1963 32.4917C18.4256 32.1123 18.6425 31.7286 18.8718 31.3492C19.2953 30.6512 19.7065 29.9489 20.1492 29.2619C20.4678 28.7721 20.8288 28.3057 21.1666 27.8269C21.3787 27.5361 21.5909 27.2453 21.8003 26.9492C22.2313 26.3484 22.6473 25.738 23.0893 25.1454C23.5124 24.5805 23.9684 24.0401 24.4065 23.4848C24.7135 23.094 25.0095 22.6951 25.3288 22.3087C25.4587 22.148 25.6188 22.0194 25.7665 21.8736C25.7949 21.8449 25.8534 21.8224 25.8641 21.7918C26.017 21.2222 26.4894 20.8724 26.8397 20.4367C27.2604 19.9183 27.666 19.3902 28.0936 18.8785C28.5996 18.274 29.1112 17.68 29.6323 17.0851C29.723 16.9837 29.8768 16.926 29.9524 16.815C30.0794 16.6361 30.1338 16.4145 30.2704 16.2476C30.4815 15.9864 30.7501 15.7714 30.968 15.5169C31.2238 15.2199 31.448 14.8947 31.6859 14.5828C31.9577 14.227 32.2404 13.8793 32.4943 13.5085C32.9913 12.7848 33.4705 12.0462 33.9647 11.3171C34.0444 11.1947 34.1706 11.0972 34.2584 10.9776C34.3882 10.804 34.4974 10.6231 34.619 10.4466C34.7892 10.1969 34.9566 9.94194 35.1377 9.70039C35.3783 9.38088 35.6176 9.0652 35.8761 8.76056C36.0696 8.53627 36.2919 8.335 36.5047 8.12175C36.5114 8.11553 36.5319 8.10981 36.5332 8.10598C36.5462 7.62048 36.9677 7.41614 37.2356 7.09763C37.4548 6.83938 37.5698 6.49718 37.7752 6.2255C37.9051 6.0648 38.1089 5.94299 38.3047 5.84416C38.4828 5.75631 38.5424 5.88903 38.5572 6.04466C38.5736 6.24819 38.5996 6.45077 38.612 6.65285C38.6192 6.71127 38.5938 6.78402 38.5628 6.83329C38.3926 7.083 38.2142 7.32981 38.0318 7.58812ZM32.6822 14.9888C32.5778 15.0897 32.4678 15.1671 32.3921 15.2652C32.1663 15.5555 31.9514 15.854 31.7379 16.1486C31.6852 16.2204 31.6298 16.2869 31.5894 16.3629C31.471 16.6094 31.4144 16.9033 31.0367 16.9296C30.9753 16.9338 30.912 17.0491 30.8798 17.128C30.7938 17.3214 30.781 17.4372 31.1017 17.4425C31.421 17.4515 31.5316 17.2669 31.6641 17.0856C31.9979 16.6312 32.3194 16.1725 32.6491 15.7166C32.668 15.6889 32.7006 15.6745 32.7292 15.6588C33.1038 15.3778 33.1024 15.3687 32.678 14.9874L32.6822 14.9888ZM30.7539 17.4621C30.5301 17.6543 30.3347 17.8048 30.1558 17.9741C30.1273 18.0027 30.1445 18.1249 30.1817 18.1637C30.3026 18.2922 30.7797 18.2191 30.9601 18.0719C31.1908 17.8865 30.9813 17.7871 30.8685 17.6614C30.8314 17.6226 30.8133 17.5689 30.7525 17.4659L30.7539 17.4621ZM32.8643 14.6918C32.8412 14.7181 32.8141 14.7429 32.7911 14.7692C32.8669 14.8689 32.9197 15.0079 33.0196 15.0516C33.0839 15.0785 33.2512 14.9954 33.3052 14.9198C33.4254 14.7342 33.5071 14.5265 33.6389 14.2547C33.4468 14.2904 33.2694 14.2839 33.1471 14.357C33.0886 14.3923 33.1309 14.5748 33.125 14.7103C33.0622 14.7054 32.9626 14.7005 32.8643 14.6918ZM16.7979 37.537C16.7691 37.5139 16.7348 37.4933 16.706 37.4703C16.5084 37.706 16.3109 37.9418 16.0849 38.2063C16.4984 38.2098 16.7625 37.9415 16.7979 37.537ZM37.7926 7.71897C37.6752 7.89693 37.5873 8.01651 37.5187 8.14713C37.4904 8.20168 37.5046 8.27974 37.4996 8.34677C37.5856 8.35121 37.7183 8.39353 37.7494 8.35718C37.8792 8.19648 37.9816 8.00893 38.1003 7.81422C37.9635 7.77045 37.8596 7.73822 37.7926 7.71897ZM17.3755 35.6723C17.4447 35.4215 17.4966 35.2334 17.5525 35.0338C17.0877 35.1112 17.0288 35.2667 17.3755 35.6723ZM38.6844 14.9663C38.6781 15.0371 38.6758 15.1094 38.6736 15.1817C38.8184 15.2025 38.9632 15.2233 39.1066 15.2479C39.1169 15.1527 39.1326 15.055 39.1428 14.9597C38.9859 14.9605 38.8372 14.9641 38.6803 14.9648L38.6844 14.9663ZM33.7919 16.402C34.2057 16.4442 34.3534 16.2984 34.3321 15.8052C34.1277 16.0343 33.9788 16.1968 33.7919 16.402ZM32.248 18.6191C32.3906 18.5274 32.5211 18.4572 32.6364 18.3645C32.6758 18.331 32.6916 18.2592 32.6967 18.2051C32.6993 18.1845 32.6308 18.1432 32.5953 18.1394C32.3973 18.1257 32.1879 18.4218 32.2466 18.623L32.248 18.6191ZM36.0131 13.8684C35.9774 13.8386 35.9377 13.8074 35.902 13.7777C35.6745 13.8353 35.4402 13.8862 35.6357 14.3289C35.794 14.1395 35.9008 14.0051 36.0131 13.8684ZM30.0737 18.5255C30.0337 18.4685 29.9978 18.4129 29.9579 18.3559C29.8724 18.429 29.7555 18.4868 29.7234 18.5787C29.6952 18.6461 29.7576 18.7841 29.8262 18.8383C29.866 18.8695 30.0212 18.8209 30.0727 18.7659C30.1119 18.7195 30.077 18.6084 30.0737 18.5255ZM34.0671 13.8335C33.8547 13.8878 33.6735 13.9316 33.491 13.9792L33.5425 14.122C33.7181 14.0676 33.8896 14.0118 34.0612 13.9561C34.0666 13.9537 34.0638 13.9355 34.0671 13.8335ZM33.0147 17.2551C33.3882 17.3864 33.5813 17.2952 33.6514 16.9888C33.4419 17.0742 33.2474 17.1563 33.0147 17.2551ZM15.4703 39.0951C15.6025 38.875 15.7185 38.6879 15.8615 38.4502C15.4379 38.5549 15.3739 38.7775 15.4703 39.0951Z" fill="black"/>
</g>
</g>
</g>
</g>
<mask id="mask4_1195_7321" style="mask-type:luminance" maskUnits="userSpaceOnUse" x="26" y="32" width="47" height="41">
<path d="M72.3594 45.6704L63.1268 72.102L26.4317 59.2042L35.6643 32.7726L72.3594 45.6704Z" fill="white"/>
</mask>
<g mask="url(#mask4_1195_7321)">
<mask id="mask5_1195_7321" style="mask-type:luminance" maskUnits="userSpaceOnUse" x="-1" y="2" width="99" height="99">
<path d="M97.5715 33.6793L64.7664 100.812L-0.806582 69.8283L31.9985 2.69589L97.5715 33.6793Z" fill="white"/>
</mask>
<g mask="url(#mask5_1195_7321)">
<mask id="mask6_1195_7321" style="mask-type:luminance" maskUnits="userSpaceOnUse" x="-1" y="2" width="99" height="99">
<path d="M97.5718 33.6781L64.7688 100.808L-0.806831 69.8223L31.9962 2.69255L97.5718 33.6781Z" fill="white"/>
</mask>
<g mask="url(#mask6_1195_7321)">
<mask id="mask7_1195_7321" style="mask-type:luminance" maskUnits="userSpaceOnUse" x="-1" y="2" width="99" height="99">
<path d="M97.5698 33.6756L64.7671 100.805L-0.808798 69.8193L31.994 2.68987L97.5698 33.6756Z" fill="white"/>
</mask>
<g mask="url(#mask7_1195_7321)">
<path d="M39.4759 52.6129C39.2476 52.1206 39.5991 52.1283 39.8831 52.0393C40.6142 51.8158 41.3314 51.553 42.0681 51.3399C42.5968 51.1825 43.1476 51.08 43.6889 50.9656C44.3743 50.8204 45.0697 50.7388 45.7188 50.4735C46.0406 50.342 46.4273 50.3278 46.7881 50.3087C47.0182 50.2952 47.2813 50.3319 47.3627 50.6653C47.2837 50.6676 47.2183 50.6574 47.1639 50.6683C47.0945 50.6826 47.0225 50.7044 46.9642 50.7397C46.9492 50.7431 46.969 50.8444 46.9854 50.8502C47.0604 50.8723 47.1409 50.892 47.2131 50.8831C47.447 50.8452 47.6796 50.7982 47.9094 50.746C47.9584 50.7374 48.0357 50.7003 48.041 50.6721C48.0419 50.6166 48.0115 50.5458 47.9703 50.5056C47.8853 50.4199 47.7799 50.3528 47.6786 50.2742C47.4797 50.4618 47.3705 50.432 47.247 50.1139C47.566 49.9643 47.8124 50.1281 48.0507 50.3149C48.152 50.3935 48.2561 50.4773 48.3575 50.5559C48.4466 50.4456 48.5357 50.3353 48.6383 50.2126C48.3941 50.1481 48.2085 50.1001 47.9519 50.0313C48.1726 49.8471 48.2939 49.658 48.5737 49.7521C48.6078 49.7598 48.6622 49.7489 48.6962 49.7308C48.9609 49.6179 49.2229 49.4997 49.4877 49.3868C49.8231 49.2429 50.1472 49.0522 50.5021 48.971C50.857 48.8898 51.2024 48.625 51.6293 48.891C51.7346 48.9581 52.019 48.9207 52.0973 48.8281C52.3933 48.5073 52.7643 48.3931 53.1857 48.2795C53.5214 48.1872 53.8181 47.9697 54.2039 48.0109C54.6989 47.5283 55.4454 47.5505 56.0371 47.2521C56.3262 47.1092 56.6276 46.9834 56.9388 46.8825C57.1168 46.8207 57.3894 46.6719 57.391 47.0759C57.3939 47.107 57.4827 47.1425 57.5306 47.1765C57.5493 47.123 57.6033 47.0604 57.5881 47.025C57.4127 46.6844 57.6299 46.5891 57.9033 46.5307C58.4595 46.413 59.0213 46.3187 59.5692 46.1852C60.0831 46.0569 60.5858 45.8818 61.0996 45.7405C61.2681 45.6925 61.4492 45.6875 61.622 45.6668C61.686 45.6549 61.7665 45.6746 61.8139 45.6441C62.2708 45.3498 62.7625 45.1665 63.3348 45.2004C63.3838 45.2048 63.4572 45.1791 63.4828 45.1452C63.6392 44.9212 63.8065 44.8899 64.0141 45.1646C64.1535 45.042 64.263 44.9259 64.3931 44.8301C64.4554 44.7833 64.5465 44.7595 64.6295 44.7458C64.6444 44.7425 64.7187 44.8458 64.7053 44.8712C64.6745 44.9462 64.6082 45.0044 64.5339 45.0985C64.573 45.2238 64.6273 45.3974 64.7054 45.648C64.8903 45.4083 65.0184 45.2388 65.1601 45.0569C65.1162 45.0114 65.0629 44.9798 65.0367 44.9362C65.0063 44.8783 64.9949 44.8056 64.9713 44.7415C65.0504 44.7522 65.1674 44.7332 65.2113 44.7787C65.6874 45.2723 66.3055 45.2408 66.9105 45.2732C67.0235 45.2787 67.1421 45.2946 67.2553 45.313C67.5566 45.3588 67.8579 45.3918 68.1566 45.4582C68.4854 45.5309 68.815 45.7198 69.1322 45.7069C69.5189 45.6927 69.8159 45.8958 70.1609 45.9485C70.3667 45.9779 70.5881 45.897 70.7832 45.9441C70.9442 45.9836 71.1481 46.1111 71.2063 46.2474C71.2948 46.4416 71.4138 46.6938 71.0662 46.8462C70.8503 46.9377 70.6807 47.0283 70.4123 47.0197C70.144 47.0112 69.8713 47.1599 69.6009 47.2494C69.5642 47.2623 69.5224 47.3162 69.524 47.3511C69.5592 47.8957 69.0365 47.9437 68.7264 48.1865C68.4934 48.3664 68.2484 48.5807 68.1331 48.832C67.9212 49.294 67.1792 49.5223 66.7438 49.2018C66.6877 49.1649 66.6114 49.1595 66.5282 49.1345C66.5875 49.6232 66.5524 49.671 66.0944 49.7974C66.0386 49.8122 65.961 49.8106 65.9354 49.8445C65.5711 50.3345 65.0634 49.9971 64.6181 50.0079C64.5705 50.0126 64.5184 49.9643 64.4096 49.9861C64.5017 50.1043 64.5925 50.2264 64.7189 50.391C64.5728 50.3354 64.484 50.2998 64.4349 50.2826C64.2904 50.4592 64.1649 50.6211 64.0421 50.7753C63.8529 50.6058 63.7296 50.498 63.6117 50.3879C63.5764 50.4098 63.5452 50.4332 63.51 50.4552C63.5572 50.5834 63.6003 50.7101 63.6698 50.9062C63.5012 50.9413 63.3148 50.9616 63.1518 51.0202C62.8665 51.1259 62.595 51.2579 62.3139 51.365C61.9906 51.4874 61.6988 51.6251 61.3064 51.4185C60.9428 51.2348 61.1962 51.6287 61.0575 51.6571C60.7874 51.7853 60.5298 51.9436 60.2417 52.0312C60.0501 52.0926 59.8155 52.053 59.6004 52.0632C59.5147 52.0717 59.3717 52.0729 59.357 52.1149C59.1913 52.5631 58.7385 52.4768 58.3865 52.5762C58.3145 52.5981 58.2439 52.6291 58.1774 52.6615C57.8164 52.8392 57.4553 53.017 57.0984 53.1962C56.9247 53.2854 56.7608 53.4123 56.5747 53.4713C55.951 53.6769 55.3275 53.9082 54.6815 54.033C54.2027 54.1264 53.7778 54.3161 53.3281 54.4712C53.2289 54.505 53.102 54.4733 52.996 54.5004C52.584 54.6001 52.0868 54.5884 51.7653 54.7586C51.4518 54.9187 51.1247 55.0784 50.7933 55.1979C50.3178 55.374 49.8134 55.4885 49.3158 55.6225C48.8808 55.7357 48.4417 55.8473 47.9997 55.9408C47.7658 55.9916 47.5207 55.9956 47.2867 56.0335C47.1357 56.0576 46.9903 56.1052 46.8422 56.1475C46.7865 56.1623 46.7269 56.2143 46.6887 56.2051C46.2588 56.0797 45.8692 56.2603 45.4651 56.3113C45.2283 56.3439 45.0029 56.4363 44.7677 56.491C44.2537 56.6063 43.7327 56.7021 43.2161 56.8252C42.18 57.066 41.1468 57.3378 40.1052 57.5681C39.1941 57.767 38.2746 57.9373 37.3537 58.0984C37.113 58.1425 36.8581 58.1087 36.6075 58.115C36.5476 58.1154 36.4837 58.1401 36.4294 58.1639C36.348 58.1997 36.279 58.2655 36.1933 58.2869C35.7093 58.3957 35.221 58.4901 34.7356 58.6026C34.6064 58.6302 34.4898 58.7007 34.3592 58.7321C34.0438 58.8057 33.7283 58.8664 33.4114 58.9309C33.3828 58.9338 33.3322 58.9074 33.3133 58.9222C32.8177 59.3273 32.161 59.2981 31.5677 59.3771C30.9704 59.4545 30.3339 59.3938 29.7205 59.3197C29.3089 59.2737 29.2128 58.9824 29.4132 58.6323C29.6944 58.1432 29.6139 57.9389 29.0566 57.7172C28.9515 57.6759 28.8355 57.6523 28.7344 57.5996C28.6319 57.5506 28.5171 57.4974 28.4498 57.4136C28.2326 57.1398 28.3768 56.3579 28.6904 56.2107C29.669 55.7394 30.6545 55.2876 31.6387 54.8268C31.9943 54.6644 32.3403 54.477 32.707 54.3356C32.9623 54.2365 33.244 54.1939 33.6178 54.0979C33.8103 53.7837 34.8809 53.4176 35.201 53.6075C35.3324 53.5077 35.4309 53.3836 35.56 53.3431C36.1023 53.1862 36.6544 53.0671 37.1967 52.9101C37.5922 52.7917 37.9613 52.6039 38.3624 52.5089C38.6085 52.4495 38.888 52.492 39.155 52.5044C39.2368 52.5073 39.3202 52.5581 39.4718 52.6114L39.4759 52.6129ZM48.7615 54.8525C48.6422 54.3642 48.5943 54.3302 48.1622 54.4744C48.0481 54.5115 47.9631 54.6232 47.8532 54.6876C47.7745 54.7286 47.6808 54.76 47.5855 54.7694C47.218 54.8076 46.8284 54.7907 46.479 54.8825C46.1908 54.9571 45.934 55.0341 45.6243 54.9725C45.237 54.8963 45.0228 55.0356 44.9299 55.3806C44.7349 55.3464 44.5315 55.2706 44.3354 55.2789C44.0549 55.2918 43.7734 55.3473 43.5015 55.4148C43.4444 55.4334 43.4251 55.5811 43.3903 55.6675C43.483 55.6916 43.5747 55.7453 43.6604 55.7368C44.0088 55.7005 44.3489 55.6484 44.6932 55.5978C44.8197 55.5779 44.9458 55.5064 45.0671 55.5147C45.3846 55.5405 45.7122 55.6429 45.9154 55.298C45.9451 55.2526 46.0854 55.2591 46.1767 55.2611C46.3347 55.2695 46.4928 55.2908 46.6536 55.3044C46.9739 55.3355 47.2516 55.3043 47.2726 55.007C47.5193 55.038 47.7442 55.0656 47.9828 55.0937C48.0435 54.4455 48.4773 54.9156 48.7574 54.851L48.7615 54.8525ZM47.5917 53.5527C47.3123 53.3257 46.1936 53.4473 46.0634 53.7148C46.591 53.7845 47.077 53.7494 47.5917 53.5527ZM43.5769 54.3426C43.6941 54.3495 43.7405 54.3615 43.784 54.3553C44.0533 54.3084 44.324 54.2577 44.5932 54.1979C44.6327 54.1903 44.6866 54.1148 44.6782 54.0861C44.6602 54.0325 44.5901 53.9435 44.556 53.9487C44.2512 53.9789 43.9518 54.0195 43.654 54.0822C43.6091 54.0921 43.6047 54.2365 43.5769 54.3426ZM62.1524 46.3211C62.0777 46.1532 62.0504 45.9547 61.974 45.9365C61.8007 45.8927 61.6021 45.9215 61.4184 45.9471C61.3694 45.9556 61.3143 46.0607 61.3107 46.1238C61.3069 46.1611 61.3837 46.231 61.4315 46.2521C61.5707 46.3011 61.7154 46.3348 61.8626 46.3608C61.9376 46.37 62.0164 46.3419 62.1524 46.3211ZM54.3515 48.6551C54.1166 48.5639 53.9294 48.4809 53.7383 48.4223C53.6932 48.4065 53.5941 48.4403 53.5725 48.4756C53.5537 48.5162 53.5816 48.6076 53.6228 48.6478C53.7572 48.7766 53.9092 48.8944 54.0723 49.0333C54.1532 48.9201 54.2193 48.8361 54.3515 48.6551ZM48.8381 49.9566C49.0594 50.0602 49.2781 50.1715 49.5035 50.2636C49.5473 50.2833 49.6478 50.2457 49.6706 50.2065C49.6976 50.1688 49.6752 50.0879 49.6476 50.0353C49.4394 49.6702 49.1424 49.8491 48.8381 49.9566ZM47.7495 53.3249C48.2024 53.6215 48.3597 53.5266 48.7989 53.2304C48.4772 53.2032 48.191 53.1669 47.8967 53.1535C47.8504 53.1544 47.8062 53.2547 47.7454 53.3235L47.7495 53.3249ZM56.3636 47.397C56.4087 47.6103 56.4466 47.7653 56.4973 47.9891C56.6488 47.8449 56.7245 47.7729 56.78 47.7194C56.9261 47.7751 57.0449 47.8169 57.1637 47.8586C57.1825 47.818 57.1971 47.776 57.2159 47.7354C56.9701 47.636 56.727 47.542 56.3636 47.397ZM45.697 53.895C45.4931 53.5701 45.2266 53.8197 45.0124 53.7744C44.9483 53.7605 44.8621 53.8889 44.7876 53.9572C44.8054 53.972 44.8274 53.9883 44.8452 54.0032C45.1146 53.9692 45.3881 53.9366 45.697 53.895ZM50.0401 49.6884C49.9995 49.7256 49.9603 49.759 49.9169 49.791C49.9979 49.8752 50.0707 49.9695 50.1679 50.0337C50.2089 50.061 50.304 50.0258 50.3707 50.0192C50.261 49.912 50.1485 49.7994 50.0401 49.6884ZM51.105 49.4705C51.1554 49.4711 51.2003 49.474 51.2507 49.4746C51.3498 49.4279 51.4502 49.3774 51.5397 49.3187C51.5465 49.3125 51.4664 49.1599 51.446 49.1656C51.3358 49.1783 51.2161 49.2049 51.128 49.2597C51.086 49.2879 51.1072 49.3984 51.105 49.4705ZM34.0162 58.1866C34.1259 58.0964 34.2003 58.0281 34.3438 57.9069C34.0808 57.8831 33.9022 57.8675 33.6651 57.8485C33.8064 57.984 33.8955 58.0712 34.0162 58.1866Z" fill="black"/>
</g>
</g>
</g>
</g>
<mask id="mask8_1195_7321" style="mask-type:luminance" maskUnits="userSpaceOnUse" x="22" y="72" width="50" height="27">
<path d="M71.5137 88.3115L68.0952 98.0856L22.0065 81.9067L25.4249 72.1326L71.5137 88.3115Z" fill="white"/>
</mask>
<g mask="url(#mask8_1195_7321)">
<mask id="mask9_1195_7321" style="mask-type:luminance" maskUnits="userSpaceOnUse" x="-1" y="2" width="99" height="99">
<path d="M97.5735 33.6776L64.7684 100.81L-0.804629 69.8266L32.0005 2.69418L97.5735 33.6776Z" fill="white"/>
</mask>
<g mask="url(#mask9_1195_7321)">
<mask id="mask10_1195_7321" style="mask-type:luminance" maskUnits="userSpaceOnUse" x="-1" y="2" width="99" height="99">
<path d="M97.5718 33.6801L64.7688 100.81L-0.806831 69.8243L31.9962 2.69451L97.5718 33.6801Z" fill="white"/>
</mask>
<g mask="url(#mask10_1195_7321)">
<mask id="mask11_1195_7321" style="mask-type:luminance" maskUnits="userSpaceOnUse" x="-1" y="2" width="99" height="99">
<path d="M97.5679 33.6796L64.7651 100.809L-0.810751 69.8232L31.992 2.69378L97.5679 33.6796Z" fill="white"/>
</mask>
<g mask="url(#mask11_1195_7321)">
<path d="M35.701 79.7674C36.1643 79.8744 36.621 80.0005 37.0828 80.0855C37.5501 80.1681 38.0239 80.2188 38.5224 80.291C38.5322 80.1316 38.5398 80.0443 38.5484 79.9145C38.8003 79.943 39.0464 79.9094 39.1615 80.224C39.2266 80.3925 39.8551 80.5789 40.116 80.5291C40.0967 80.4924 40.0774 80.4556 40.0622 80.4203C40.0372 80.3472 40.0122 80.2742 40.0022 80.1978C40.0021 80.1849 40.0957 80.1406 40.1107 80.1502C40.1737 80.2066 40.2394 80.2682 40.278 80.3418C40.3317 80.4378 40.3548 80.6215 40.4147 80.634C40.6028 80.6743 40.8206 80.6951 40.9985 80.6461C41.3625 80.5511 41.7049 80.4785 42.0789 80.657C42.1813 80.7058 42.3174 80.7107 42.4358 80.7137C42.6916 80.7178 42.9553 80.6733 43.1978 80.7156C43.3054 80.7362 43.3802 80.9296 43.4694 81.0423C43.5731 81.0873 43.7122 81.1233 43.8242 81.1969C44.1167 81.3853 44.4432 81.3713 44.6838 81.143C44.842 80.9929 45.3468 80.9945 45.6215 81.168C45.5034 81.2166 45.3947 81.2384 45.3094 81.2984C45.2606 81.3327 45.2531 81.42 45.2263 81.4835C45.2944 81.4988 45.4009 81.5491 45.428 81.5243C45.5348 81.429 45.7952 81.4989 45.7784 81.2446C45.7769 81.2226 46.0581 81.1542 46.1916 81.1797C46.787 81.2902 47.3758 81.4326 47.9685 81.5507C48.2614 81.6064 48.3915 81.7335 48.4481 82.0576C48.7674 82.1825 49.0825 82.306 49.3977 82.4295C49.7579 82.5688 49.8802 82.5475 50.2605 82.2483C50.2821 82.62 50.5548 82.7072 50.8777 82.7692C50.9835 82.5192 51.143 82.5753 51.3427 82.7268C51.8283 83.0986 52.4009 83.2611 52.9948 83.3625C53.3408 83.424 53.683 83.5227 54.029 83.5713C54.251 83.6064 54.4794 83.5838 54.7571 83.5913C55.2652 84.2796 56.0337 84.4337 56.9373 84.2668C56.8067 84.8636 57.3867 84.7159 57.6599 84.8675C57.9412 85.022 58.2886 85.0797 58.6141 85.134C58.689 85.1431 58.7886 84.9767 58.8994 84.8699C58.8994 84.8699 58.9721 84.9511 58.9808 85.0313C58.9987 85.2561 59.0818 85.2681 59.2675 85.1705C59.3909 85.1067 59.5446 85.1007 59.7361 85.0523C59.6854 85.1973 59.6493 85.2874 59.6319 85.337C60.0254 85.3681 60.4174 85.39 60.8082 85.4287C60.8885 85.4354 61.0058 85.4809 61.043 85.5454C61.1532 85.7426 61.3208 85.7757 61.529 85.7846C61.9496 85.8037 62.2983 86.0546 62.6759 86.1701C63.0972 86.2923 63.4997 86.6521 63.9938 86.4742C64.0766 86.4476 64.199 86.4392 64.2632 86.4788C64.6334 86.6945 65.0363 86.7117 65.4394 86.7675C65.7254 86.8037 66.0052 86.9362 66.2808 87.0415C66.4841 87.1172 66.6553 87.2844 66.8988 87.0742C66.9718 87.0099 67.2339 87.1405 67.4125 87.1817C67.7014 87.2489 67.9889 87.307 68.2751 87.3818C68.5368 87.4479 68.8432 87.4784 68.8365 87.8916C69.021 87.8107 69.1566 87.7512 69.2923 87.6917C69.3073 87.7013 69.3251 87.7161 69.3442 87.7271C69.2943 87.791 69.2321 87.8506 69.1932 87.9226C69.1018 88.0919 68.82 88.2672 69.2212 88.4337C69.2485 88.4476 69.2698 88.5836 69.2509 88.5984C68.8904 88.8146 69.1427 89.0917 69.1798 89.3533C69.194 89.4311 69.1689 89.5422 69.1148 89.5918C68.9052 89.7839 68.6971 89.985 68.4477 90.1331C68.3136 90.2146 68.108 90.1981 67.934 90.2227C68.1045 90.681 68.26 90.7356 68.7543 90.5964C69.1318 90.489 69.274 90.7788 69.4351 91.0668C69.3168 91.0767 69.2257 91.0875 69.1305 91.097C69.1538 91.1223 69.1785 91.1438 69.2018 91.1691C68.9855 91.3802 68.7734 91.5928 68.5544 91.7987C68.5138 91.8359 68.4311 91.8754 68.401 91.8563C68.0158 91.6439 67.6669 91.9456 67.2826 91.8621C66.9229 91.7872 66.5381 91.8364 66.1758 91.7691C65.5586 91.6553 64.952 91.4852 64.3361 91.3546C63.8646 91.2577 63.388 91.2017 62.922 91.1024C62.4219 90.9954 61.9271 90.8602 61.4336 90.7341C61.311 90.7039 61.1911 90.6789 61.0671 90.6526C60.7904 90.5897 60.5084 90.5421 60.2345 90.4716C59.7301 90.3374 59.219 90.2094 58.724 90.0485C58.274 89.9033 57.844 89.7009 57.394 89.5558C57.1199 89.4724 56.8205 89.4616 56.5344 89.3997C56.4049 89.3757 56.2605 89.3421 56.1593 89.2637C55.8898 89.062 55.6288 88.9018 55.2561 88.9166C55.0466 88.9245 54.8225 88.7773 54.5292 88.67C54.4502 88.6594 54.2625 88.6706 54.1137 88.597C53.6796 88.3803 53.2365 88.2547 52.7475 88.1816C52.1863 88.0917 51.6471 87.8338 51.0989 87.6542C50.8835 87.5871 50.6653 87.5277 50.4405 87.4745C49.9745 87.3751 49.5124 87.2514 49.0412 87.1931C48.5387 87.1324 48.0805 86.9844 47.6083 86.7844C47.2972 86.6494 46.8978 86.7406 46.5396 86.6876C46.2154 86.6424 45.9005 86.5447 45.5829 86.4674C45.4466 86.4367 45.317 86.387 45.1835 86.3615C44.5855 86.2587 43.9848 86.1635 43.3854 86.0644C43.3595 86.0596 43.331 86.0625 43.3173 86.0491C42.7854 85.4681 41.993 85.7898 41.3663 85.4798C41.0769 85.3353 40.7029 85.3669 40.3664 85.3044C40.1198 85.2607 39.8786 85.2017 39.636 85.1466C39.602 85.1389 39.5705 85.1107 39.5392 85.1083C38.7935 85.0993 38.1362 84.6928 37.4117 84.597C37.3545 84.5898 37.2864 84.5744 37.2429 84.5935C36.9651 84.7444 36.7583 84.5604 36.5168 84.4628C36.2071 84.3369 35.8745 84.2501 35.5475 84.1867C34.9345 84.0743 34.3149 84.0068 33.7045 83.8868C33.4729 83.8397 33.2828 83.7001 33.0013 83.717C32.6953 83.7381 32.3714 83.5344 32.0498 83.4686C31.8155 83.4163 31.572 83.4294 31.3324 83.4053C31.0178 83.372 30.7006 83.3463 30.3872 83.2834C29.789 83.1548 29.1974 82.9942 28.5992 82.8656C28.4153 82.8267 28.2195 82.848 28.029 82.8539C27.2958 82.875 26.6405 82.555 25.956 82.3447C25.8019 82.2991 25.6453 82.2741 25.4871 82.2272C25.4026 82.2061 25.2801 82.1888 25.2402 82.1319C24.9623 81.6916 24.534 81.5241 24.0486 81.3751C23.7459 81.2816 23.4898 81.0418 23.2204 80.853C23.1863 80.8324 23.1772 80.7007 23.2016 80.6835C23.2856 80.6273 23.4197 80.5459 23.4879 80.5741C23.7009 80.6746 23.8695 80.6652 24.0619 80.5485C24.127 80.5071 24.2579 80.5531 24.3574 80.5709C24.514 80.5959 24.6666 80.6323 24.8342 80.6654C24.8374 80.538 24.8052 80.4067 24.8446 80.3863C25.1564 80.2301 25.1275 79.9714 25.1078 79.686C25.0911 79.4317 25.2234 79.2767 25.5321 79.248C25.7265 79.2306 25.9066 79.0967 26.0938 79.021C26.1589 78.9925 26.2296 78.9744 26.3016 78.9654C26.3641 78.9574 26.4391 78.9794 26.5002 78.9623C26.9758 78.8637 27.4401 78.7182 27.9215 78.6686C28.4177 78.6158 28.9322 78.6422 29.437 78.6437C29.8221 78.6461 30.21 78.6666 30.5965 78.6781C30.9245 78.6861 31.2497 78.6889 31.5764 78.7136C31.8773 78.7335 32.1836 78.7639 32.478 78.8287C32.572 78.8489 32.6505 78.9921 32.7274 79.0877C32.7864 79.1684 32.8279 79.2601 32.8802 79.347C32.9613 79.2726 33.0739 79.2136 33.1195 79.1225C33.251 78.8516 33.5011 79.0165 33.686 79.0001C33.8275 78.9897 33.975 79.0672 34.1181 79.1046C34.1172 79.567 34.1211 79.5427 34.6286 79.5495C34.9035 79.5517 35.1792 79.6699 35.4626 79.7266C35.5471 79.7477 35.6342 79.7483 35.7186 79.7565L35.7131 79.7589L35.701 79.7674Z" fill="black"/>
</g>
</g>
</g>
</g>
</svg>
