<svg width="72" height="78" viewBox="0 0 72 78" fill="none" xmlns="http://www.w3.org/2000/svg">
<mask id="mask0_273_3552" style="mask-type:luminance" maskUnits="userSpaceOnUse" x="52" y="0" width="20" height="42">
<path d="M52.1641 0L52.1641 41.5999L71.0329 41.5999L71.0329 -1.04125e-06L52.1641 0Z" fill="white"/>
</mask>
<g mask="url(#mask0_273_3552)">
<mask id="mask1_273_3552" style="mask-type:luminance" maskUnits="userSpaceOnUse" x="-7" y="-1" width="82" height="83">
<path d="M-6.48828 7.30829L2.33913 81.7291L74.3198 74.2338L65.4924 -0.187017L-6.48828 7.30829Z" fill="white"/>
</mask>
<g mask="url(#mask1_273_3552)">
<mask id="mask2_273_3552" style="mask-type:luminance" maskUnits="userSpaceOnUse" x="-7" y="-1" width="82" height="83">
<path d="M-6.48242 7.30756L2.34499 81.7284L74.3256 74.2331L65.4982 -0.187749L-6.48242 7.30756Z" fill="white"/>
</mask>
<g mask="url(#mask2_273_3552)">
<mask id="mask3_273_3552" style="mask-type:luminance" maskUnits="userSpaceOnUse" x="-7" y="-1" width="82" height="83">
<path d="M-6.48242 7.30756L2.34499 81.7284L74.3256 74.2331L65.4982 -0.187749L-6.48242 7.30756Z" fill="white"/>
</mask>
<g mask="url(#mask3_273_3552)">
<path d="M58.3017 2.47315C58.0892 2.57471 57.9288 2.61533 57.7944 2.35534C57.66 2.07909 57.4866 2.08315 57.2611 2.33096C57.1657 2.44065 57.0573 2.53815 56.9663 2.64783C56.8796 2.75346 56.8102 2.86721 56.7061 3.01752C56.3766 2.89565 56.1295 2.63565 55.9214 2.33502C55.8997 2.29846 55.9171 2.23752 55.891 2.20909C55.5832 1.87596 55.2927 1.51846 54.9502 1.2219C54.651 0.9619 54.3606 1.04315 54.1178 1.36002C54.0397 1.46159 53.9183 1.53065 53.7709 1.65252C53.875 1.65252 53.9443 1.6444 54.005 1.65659C54.0527 1.66877 54.1178 1.7094 54.1264 1.74596C54.1351 1.78659 54.1004 1.85971 54.0657 1.88002C53.7015 2.10346 53.7015 2.0994 53.5454 2.38784C53.5194 2.32284 53.5021 2.24565 53.4631 2.18471C53.398 2.08721 53.3157 1.99784 53.242 1.9044C53.1986 2.0019 53.1032 2.10346 53.1119 2.1969C53.1899 3.05409 53.2766 3.91127 53.3807 4.76439C53.4587 5.38189 53.5585 5.99533 53.6625 6.60877C53.6842 6.72658 53.7709 6.84439 53.8576 6.93783C54.0397 7.13283 54.2045 7.14096 54.2999 6.7997C54.4039 6.89314 54.4733 6.95814 54.586 7.06377C54.3345 7.16127 54.1481 7.23033 53.9487 7.30752C53.9877 7.62845 54.0137 8.0347 54.0961 8.43283C54.1221 8.56689 54.2868 8.68064 54.3866 8.80251C54.4256 8.79845 54.4646 8.79845 54.4993 8.79845C54.4213 8.9447 54.3345 9.08689 54.2608 9.2372C54.2392 9.28189 54.2261 9.35501 54.2478 9.39158C54.4039 9.6597 54.482 9.93595 54.495 10.2406C54.5036 10.4113 54.5123 10.6103 54.6077 10.7444C54.8722 11.1263 54.7854 11.5772 54.9329 11.9753C55.1583 12.5766 55.3578 13.1859 55.5702 13.7913C55.6439 13.9984 55.7089 14.2056 55.787 14.4088C56.0298 15.0059 56.2769 15.5991 56.5197 16.1963C56.6585 16.5416 56.7885 16.8909 56.9273 17.2322C56.9706 17.3297 57.0487 17.4191 57.0964 17.5166C57.1787 17.6953 57.2524 17.8822 57.3261 18.0691C57.3565 18.1503 57.3695 18.2397 57.4085 18.3169C57.6903 18.8612 57.9852 19.4016 58.254 19.95C58.4187 20.2831 58.5401 20.6325 58.6962 20.9697C59.0257 21.6725 59.3682 22.3672 59.6978 23.0659C60.1183 23.9597 60.5259 24.8575 60.9464 25.7512C61.1545 26.1981 61.4017 26.6287 61.6054 27.0756C61.7572 27.4087 61.8482 27.7703 62.0087 28.0953C62.2038 28.4853 62.4466 28.8509 62.6937 29.2653C62.698 29.3669 62.6633 29.5578 62.7284 29.7081C62.9842 30.3337 63.292 30.935 63.5478 31.5606C63.8556 32.3122 64.0638 33.1125 64.441 33.8315C64.9136 34.7334 65.0696 35.749 65.6073 36.6265C65.6983 36.7728 65.7807 36.9272 65.8544 37.0612C65.9758 37.0612 66.1622 37.0247 66.1926 37.0693C66.288 37.2197 66.431 37.4797 66.3617 37.5609C66.0538 37.9509 66.3877 38.1337 66.5871 38.3693C66.6912 38.4912 66.7735 38.6253 66.8646 38.7512C67.1074 39.0925 67.3502 39.4297 67.5843 39.7709C67.7924 40.0715 67.8705 40.4534 68.2433 40.6525C68.4428 40.754 68.6162 40.9003 68.82 40.9897C68.9197 41.0303 69.1018 41.014 69.1755 40.9531C69.2405 40.8962 69.2579 40.7134 69.2102 40.6281C69.0758 40.3762 69.1365 40.2625 69.4183 40.1731C69.6654 40.0918 69.7521 39.7465 69.6091 39.5068C69.4487 39.2306 69.4963 38.9787 69.6134 38.6984C69.6828 38.7431 69.7088 38.7512 69.7175 38.7675C69.7825 38.8609 69.8475 38.9543 69.9082 39.0478C69.9516 38.9422 70.034 38.8365 70.034 38.7309C70.034 38.5156 69.9906 38.3003 69.9559 38.0118C69.6047 38.3572 69.3316 38.2068 69.0324 38.0078C69.2449 37.7965 69.2015 37.6218 69.0368 37.3903C68.8503 37.1303 68.7636 36.8093 68.6466 36.5087C68.6292 36.464 68.6596 36.4031 68.6769 36.3056C68.9327 36.659 68.9457 37.0125 69.3142 37.1262C69.3489 37.1384 69.3836 37.2928 69.3489 37.3456C69.1842 37.6218 69.4747 37.7315 69.5744 37.9062C69.5744 37.9103 69.7478 37.8737 69.7652 37.825C69.8779 37.5609 69.9386 37.2928 69.7175 37.179C69.6351 36.8622 69.5657 36.6347 69.5224 36.4031C69.492 36.2325 69.5224 36.0537 69.4877 35.8912C69.2579 34.7903 69.0194 33.6934 68.781 32.5965C68.6899 32.1619 68.6119 31.7272 68.5208 31.2925C68.3517 30.4922 68.1956 29.6919 68.0049 28.8956C67.8661 28.3269 67.6797 27.7662 67.5193 27.2015C67.4152 26.8562 67.3112 26.5109 67.2115 26.1616C67.0033 25.4506 66.8126 24.7356 66.5915 24.0287C66.379 23.3544 66.1275 22.6922 65.8977 22.0219C65.7373 21.5506 65.5899 21.0753 65.4165 20.6041C65.3471 20.4091 65.2387 20.2344 65.1477 20.0475C65.1303 20.0109 65.0826 19.9703 65.0826 19.9378C65.126 19.3487 64.7965 18.8612 64.6101 18.3331C64.3846 17.7034 64.1765 17.0697 63.9424 16.4441C63.6649 15.7047 63.3787 14.9734 63.0839 14.2381C63.0319 14.1122 62.9061 14.0066 62.8715 13.8766C62.8108 13.6653 62.8324 13.4378 62.7587 13.2347C62.646 12.9178 62.4639 12.6253 62.3425 12.3125C62.1994 11.9469 62.0954 11.565 61.974 11.1913C61.8352 10.7647 61.6835 10.3422 61.5664 9.90751C61.3366 9.05845 61.1285 8.20127 60.9031 7.34814C60.8684 7.20595 60.7817 7.07189 60.7383 6.9297C60.6733 6.72252 60.6299 6.51533 60.5736 6.30814C60.4955 6.01564 60.4218 5.71908 60.3308 5.43064C60.2094 5.04877 60.088 4.67096 59.9449 4.29721C59.8365 4.02096 59.6934 3.7569 59.5633 3.48471C59.559 3.47658 59.5417 3.4644 59.5417 3.46033C59.6891 2.99721 59.3596 2.66408 59.2122 2.27409C59.0908 1.95721 59.0951 1.59565 58.991 1.27065C58.9217 1.07565 58.7699 0.892838 58.6182 0.7344C58.4794 0.592213 58.3797 0.697837 58.3147 0.840025C58.2323 1.0269 58.1412 1.20971 58.0632 1.39659C58.0372 1.4494 58.0372 1.52659 58.0502 1.58346C58.1282 1.87596 58.215 2.16846 58.3017 2.47315ZM60.9031 11.2441C60.9681 11.3741 61.0461 11.4838 61.0852 11.6016C61.2022 11.9509 61.3063 12.3044 61.4103 12.6538C61.4364 12.7391 61.4667 12.8203 61.4797 12.9056C61.5101 13.1778 61.4667 13.4744 61.8136 13.6247C61.8699 13.6491 61.8916 13.7791 61.8959 13.8644C61.9133 14.0756 61.8873 14.1894 61.5838 14.0878C61.2803 13.9903 61.2369 13.7791 61.1719 13.5638C61.0071 13.0234 60.8554 12.4831 60.695 11.9428C60.6863 11.9103 60.6603 11.8859 60.6386 11.8616C60.3784 11.4716 60.3828 11.4634 60.9074 11.2441L60.9031 11.2441ZM61.9046 14.2219C62.052 14.4778 62.1864 14.685 62.2991 14.9044C62.3165 14.9409 62.2601 15.0506 62.2124 15.075C62.0564 15.1563 61.6315 14.9288 61.5101 14.7297C61.354 14.4778 61.5838 14.4534 61.7312 14.3722C61.7789 14.3478 61.8136 14.3031 61.9046 14.2259L61.9046 14.2219ZM60.8294 10.9028C60.8424 10.9353 60.8597 10.9678 60.8727 11.0003C60.7687 11.0694 60.6733 11.1831 60.5649 11.1913C60.4955 11.1953 60.3654 11.0613 60.3394 10.9719C60.2874 10.7566 60.2787 10.5331 60.244 10.2325C60.4131 10.33 60.5822 10.3828 60.6733 10.4925C60.7166 10.5453 60.6169 10.7038 60.5779 10.8338C60.6386 10.85 60.734 10.8784 60.8294 10.9028ZM68.4384 37.829C68.4731 37.8168 68.5121 37.8087 68.5468 37.7965C68.6552 38.085 68.7636 38.3734 68.8894 38.6984C68.4991 38.5643 68.3387 38.2231 68.4384 37.829ZM58.4838 2.67627C58.5358 2.88346 58.5791 3.02565 58.6008 3.1719C58.6095 3.23283 58.5705 3.3019 58.5531 3.3669C58.4708 3.34252 58.332 3.33846 58.3147 3.29377C58.2453 3.09877 58.2106 2.88752 58.1629 2.66408C58.306 2.66815 58.4144 2.67221 58.4838 2.67627ZM68.5078 35.875C68.5252 35.615 68.5382 35.42 68.5512 35.2128C68.9631 35.4403 68.9674 35.6068 68.5078 35.875ZM55.2624 9.22908C55.245 9.29814 55.2233 9.3672 55.2017 9.43626C55.0586 9.40783 54.9155 9.37939 54.7724 9.35501C54.7941 9.26158 54.8115 9.16408 54.8331 9.07064C54.9806 9.12345 55.1193 9.17626 55.2667 9.22908L55.2624 9.22908ZM59.3943 12.2109C58.991 12.1134 58.9 11.9266 59.0821 11.4675C59.1991 11.7519 59.2859 11.955 59.3943 12.2109ZM60.1183 14.8191C60.0143 14.685 59.9145 14.5753 59.8365 14.4494C59.8105 14.4047 59.8191 14.3316 59.8322 14.2788C59.8365 14.2584 59.9145 14.2422 59.9492 14.2503C60.14 14.3031 60.2397 14.6525 60.1183 14.8231L60.1183 14.8191ZM58.1369 9.07876C58.1803 9.06251 58.228 9.04626 58.2713 9.03001C58.4664 9.16001 58.6702 9.28595 58.3407 9.63939C58.254 9.40783 58.1976 9.24532 58.1369 9.07876ZM62.1951 15.4528C62.2515 15.4122 62.3035 15.3716 62.3598 15.3309C62.4162 15.4284 62.5073 15.5219 62.5073 15.6194C62.5116 15.6925 62.4075 15.8022 62.3252 15.8306C62.2775 15.8469 62.1474 15.7494 62.117 15.6803C62.0954 15.6234 62.1647 15.53 62.1951 15.4528ZM59.9796 9.6922C60.1617 9.81407 60.3178 9.91564 60.4738 10.0213L60.3784 10.1391C60.231 10.0294 60.088 9.9197 59.9449 9.81001C59.9405 9.80595 59.9492 9.7897 59.9796 9.6922ZM59.8452 13.2753C59.4506 13.2753 59.2989 13.125 59.3336 12.8122C59.5026 12.9625 59.6587 13.1047 59.8452 13.2753ZM69.1755 39.7425C69.1235 39.4906 69.0758 39.2753 69.0194 39.0031C69.3836 39.2428 69.3706 39.4743 69.1755 39.7425Z" fill="black"/>
</g>
</g>
</g>
</g>
<mask id="mask4_273_3552" style="mask-type:luminance" maskUnits="userSpaceOnUse" x="13" y="27" width="40" height="29">
<path d="M13.3164 27.04L13.3164 55.12L52.1639 55.12L52.1639 27.04L13.3164 27.04Z" fill="white"/>
</mask>
<g mask="url(#mask4_273_3552)">
<mask id="mask5_273_3552" style="mask-type:luminance" maskUnits="userSpaceOnUse" x="-7" y="-1" width="82" height="83">
<path d="M-6.48242 7.30829L2.34499 81.7291L74.3256 74.2338L65.4982 -0.187017L-6.48242 7.30829Z" fill="white"/>
</mask>
<g mask="url(#mask5_273_3552)">
<mask id="mask6_273_3552" style="mask-type:luminance" maskUnits="userSpaceOnUse" x="-7" y="-1" width="82" height="83">
<path d="M-6.48242 7.30756L2.34499 81.7284L74.3256 74.2331L65.4982 -0.187749L-6.48242 7.30756Z" fill="white"/>
</mask>
<g mask="url(#mask6_273_3552)">
<mask id="mask7_273_3552" style="mask-type:luminance" maskUnits="userSpaceOnUse" x="-7" y="-1" width="82" height="83">
<path d="M-6.47852 7.30756L2.34889 81.7284L74.3295 74.2331L65.5021 -0.187749L-6.47852 7.30756Z" fill="white"/>
</mask>
<g mask="url(#mask7_273_3552)">
<path d="M42.0307 44.5525C42.4079 44.1625 42.0741 44.0528 41.8356 43.874C41.2199 43.419 40.6303 42.9315 40.006 42.4847C39.5594 42.1597 39.0738 41.8793 38.6012 41.5909C38.0029 41.2253 37.3742 40.9165 36.8496 40.4493C36.5895 40.2178 36.2296 40.0756 35.8958 39.9375C35.6833 39.8481 35.4232 39.7953 35.2367 40.0837C35.3104 40.1122 35.3755 40.1243 35.4232 40.1528C35.4839 40.1893 35.5446 40.234 35.5879 40.2868C35.6009 40.295 35.5489 40.3843 35.5316 40.3843C35.4535 40.3803 35.3711 40.3722 35.3061 40.3397C35.098 40.2259 34.8942 40.104 34.6948 39.9781C34.6514 39.9537 34.5907 39.8928 34.5951 39.8643C34.6124 39.8115 34.6644 39.7547 34.7165 39.7303C34.8248 39.6775 34.9462 39.649 35.0676 39.6084C35.1934 39.8522 35.3061 39.8603 35.5272 39.6003C35.2758 39.3525 34.9896 39.4256 34.7034 39.5231C34.5821 39.5637 34.4563 39.6084 34.3349 39.649C34.2872 39.515 34.2395 39.3809 34.1832 39.2306C34.4346 39.2509 34.6254 39.2672 34.8899 39.2875C34.7425 39.0397 34.6904 38.8203 34.3956 38.8162C34.3609 38.8122 34.3132 38.7837 34.2872 38.7553C34.0748 38.5603 33.8667 38.3612 33.6542 38.1662C33.3854 37.9184 33.1426 37.63 32.8348 37.435C32.5269 37.24 32.2885 36.8743 31.7986 36.984C31.6772 37.0125 31.4214 36.8825 31.378 36.7687C31.2046 36.3665 30.8924 36.135 30.5325 35.8872C30.2464 35.6881 30.0383 35.3834 29.6611 35.294C29.3532 34.6725 28.6422 34.445 28.1826 33.9656C27.9572 33.734 27.7144 33.5147 27.4542 33.3156C27.3068 33.1978 27.0987 32.9662 26.9643 33.3481C26.9513 33.3765 26.8559 33.3806 26.7995 33.3969C26.7995 33.34 26.7692 33.2628 26.7952 33.2344C27.0727 32.9703 26.8993 32.8078 26.6608 32.6615C26.1752 32.365 25.6766 32.0887 25.204 31.78C24.7618 31.4875 24.3456 31.1544 23.9077 30.8497C23.7646 30.7481 23.5955 30.6831 23.4394 30.6059C23.383 30.5734 23.3007 30.5653 23.266 30.5206C22.9321 30.09 22.5289 29.7528 21.9783 29.5944C21.9306 29.5822 21.8699 29.5334 21.8569 29.4928C21.7832 29.2287 21.6358 29.1434 21.3496 29.3344C21.2586 29.1719 21.1935 29.0256 21.1025 28.8915C21.0591 28.8265 20.9811 28.7737 20.9074 28.7331C20.8944 28.725 20.7903 28.7981 20.7947 28.8265C20.799 28.9078 20.8423 28.985 20.8814 29.0987C20.8033 29.2044 20.6949 29.3506 20.5388 29.5619C20.4435 29.2734 20.3784 29.0703 20.3047 28.8509C20.3611 28.8225 20.4218 28.8103 20.4608 28.7778C20.5085 28.7331 20.5432 28.6681 20.5865 28.6153C20.5085 28.599 20.4044 28.5422 20.3481 28.5706C19.7367 28.8794 19.1644 28.6437 18.5835 28.4731C18.4751 28.4406 18.358 28.4162 18.2453 28.3959C17.9461 28.339 17.6513 28.27 17.3478 28.2334C17.014 28.1928 16.6411 28.2619 16.3463 28.144C15.9864 28.0019 15.6395 28.0953 15.297 28.0303C15.0933 27.9897 14.9112 27.8394 14.7117 27.819C14.547 27.8028 14.3128 27.8556 14.2131 27.9653C14.0657 28.1197 13.8706 28.3187 14.1481 28.5787C14.3215 28.7372 14.4516 28.8794 14.7074 28.9606C14.9632 29.0419 15.1713 29.2734 15.3968 29.4481C15.4271 29.4725 15.4488 29.5375 15.4358 29.57C15.2233 30.0737 15.7002 30.2931 15.9127 30.6262C16.0731 30.874 16.2335 31.1584 16.2595 31.4347C16.3072 31.9425 16.9316 32.4056 17.4475 32.2472C17.5126 32.2309 17.5863 32.2512 17.673 32.2553C17.4562 32.6981 17.4735 32.755 17.8637 33.0272C17.9114 33.0597 17.9851 33.084 17.9981 33.1247C18.1802 33.7097 18.7699 33.5594 19.1861 33.7178C19.2295 33.7381 19.2945 33.7097 19.3899 33.7665C19.2642 33.8478 19.1384 33.9331 18.965 34.0469C19.1211 34.0428 19.2165 34.0387 19.2685 34.0387C19.3465 34.254 19.4116 34.449 19.4766 34.6359C19.7107 34.5384 19.8625 34.4775 20.0099 34.4125C20.0359 34.445 20.0576 34.4775 20.0836 34.51C19.9969 34.6156 19.9145 34.7212 19.7844 34.8837C19.9319 34.9731 20.1009 35.0544 20.2354 35.164C20.4695 35.359 20.6819 35.5743 20.9117 35.7693C21.1762 35.9928 21.406 36.2203 21.8439 36.1553C22.2471 36.1025 21.8786 36.3909 22 36.464C22.2124 36.6753 22.4032 36.9109 22.646 37.0897C22.8064 37.2115 23.0405 37.2522 23.24 37.3334C23.318 37.37 23.4524 37.4187 23.4524 37.4634C23.4611 37.9428 23.9163 38.0118 24.2155 38.2231C24.2762 38.2678 24.3325 38.3206 24.3846 38.3734C24.6664 38.6618 24.9482 38.9503 25.2257 39.2387C25.3601 39.3809 25.4728 39.5556 25.6289 39.6734C26.1492 40.0756 26.6608 40.5022 27.2288 40.8353C27.6493 41.0831 27.9875 41.404 28.3604 41.7006C28.4428 41.7656 28.5728 41.7778 28.6639 41.8387C29.0194 42.0703 29.492 42.2247 29.7391 42.4928C29.9819 42.7487 30.2377 43.0087 30.5109 43.2322C30.9011 43.5571 31.339 43.8334 31.7639 44.1259C32.1367 44.3778 32.5139 44.6296 32.8998 44.8653C33.1036 44.9912 33.3334 45.0765 33.5415 45.1903C33.6759 45.2634 33.7973 45.3568 33.923 45.4462C33.9707 45.4787 34.0097 45.5478 34.0488 45.5518C34.4953 45.5762 34.8032 45.8768 35.1674 46.0596C35.3798 46.1693 35.5619 46.3318 35.7657 46.4618C36.2123 46.7421 36.6718 47.0062 37.1184 47.2946C38.0159 47.8675 38.9004 48.4687 39.8065 49.0334C40.5999 49.525 41.4107 49.9921 42.2258 50.4512C42.4383 50.5731 42.6897 50.6259 42.9239 50.7153C42.9802 50.7356 43.0323 50.7803 43.0756 50.8209C43.1406 50.8818 43.184 50.9671 43.2577 51.0159C43.6783 51.2799 44.1075 51.5318 44.5281 51.7999C44.6408 51.869 44.7275 51.9746 44.8402 52.0478C45.1134 52.2224 45.3909 52.3849 45.6683 52.5515C45.6943 52.5637 45.7507 52.5556 45.7637 52.5759C46.0976 53.1243 46.7262 53.3153 47.2595 53.5874C47.7971 53.8596 48.4171 54.014 49.0198 54.1481C49.423 54.2415 49.6094 53.9978 49.5357 53.5996C49.4317 53.0431 49.5748 52.8765 50.1731 52.8521C50.2858 52.8481 50.4029 52.8643 50.5156 52.8481C50.6283 52.8359 50.7541 52.8237 50.8451 52.7668C51.1399 52.5799 51.2613 51.7918 51.0142 51.5481C50.2468 50.7762 49.4664 50.0206 48.6903 49.2568C48.4085 48.9846 48.144 48.6921 47.8448 48.4362C47.6367 48.2575 47.3853 48.1234 47.0644 47.9081C46.9864 47.5465 46.0976 46.8437 45.7334 46.9168C45.6423 46.7787 45.5903 46.6284 45.4819 46.5471C45.0223 46.2181 44.5411 45.9215 44.0815 45.5925C43.7476 45.3487 43.4615 45.0481 43.1146 44.8246C42.9022 44.6865 42.6247 44.6337 42.3689 44.5565C42.2909 44.5321 42.1955 44.5525 42.035 44.5525L42.0307 44.5525ZM32.54 43.5815C32.8131 43.159 32.8695 43.1428 33.2293 43.4231C33.3247 43.4962 33.3681 43.6303 33.4504 43.7278C33.5111 43.7928 33.5892 43.8537 33.6759 43.8943C34.0097 44.0528 34.3826 44.1665 34.6818 44.3696C34.9289 44.5362 35.1457 44.6946 35.4579 44.7393C35.8481 44.7962 36.0041 44.9993 35.9781 45.3568C36.1732 45.3893 36.39 45.3853 36.5721 45.4584C36.8323 45.564 37.0794 45.7103 37.3135 45.8646C37.3612 45.9012 37.3309 46.0475 37.3352 46.1409C37.2398 46.1328 37.1358 46.1531 37.0577 46.1165C36.7412 45.9662 36.4377 45.8037 36.1299 45.6412C36.0172 45.5803 35.9218 45.4706 35.8047 45.4381C35.4969 45.3568 35.1544 45.3446 35.0763 44.9506C35.0633 44.8978 34.9289 44.8571 34.8422 44.8287C34.6904 44.784 34.5344 44.7515 34.3783 44.7109C34.0661 44.6337 33.8146 44.5118 33.8927 44.2234C33.6499 44.1706 33.4288 44.1218 33.1946 44.069C33.3507 43.4353 32.7871 43.7359 32.5443 43.5815L32.54 43.5815ZM34.0704 42.7406C34.4086 42.6187 35.4232 43.1062 35.4579 43.4028C34.9376 43.2931 34.491 43.0981 34.0704 42.7406ZM37.5953 44.8246C37.4826 44.7921 37.4349 44.7881 37.3959 44.7678C37.1574 44.6337 36.919 44.4956 36.6848 44.3493C36.6502 44.329 36.6241 44.2396 36.6415 44.2153C36.6762 44.1706 36.7716 44.1096 36.8019 44.1259C37.0794 44.2559 37.3482 44.394 37.6083 44.5525C37.6474 44.5768 37.604 44.715 37.5953 44.8246ZM22.724 31.0487C22.8498 30.9147 22.9408 30.7359 23.0188 30.744C23.1966 30.7603 23.3744 30.8537 23.5391 30.939C23.5825 30.9634 23.5998 31.0812 23.5825 31.1422C23.5738 31.1787 23.4784 31.2194 23.4264 31.2234C23.279 31.2234 23.1316 31.2072 22.9842 31.1828C22.9105 31.1665 22.8454 31.1137 22.724 31.0487ZM29.3099 35.8547C29.5614 35.8465 29.7651 35.8303 29.9646 35.8384C30.0123 35.8384 30.0946 35.9034 30.1033 35.944C30.1077 35.9887 30.0513 36.0659 29.9993 36.0903C29.8302 36.1675 29.6481 36.2284 29.4486 36.3056C29.4096 36.1715 29.3749 36.07 29.3099 35.8547ZM34.0791 38.9218C33.8363 38.9462 33.5935 38.9787 33.3507 38.9909C33.303 38.995 33.2207 38.9259 33.212 38.8812C33.199 38.8365 33.2467 38.7675 33.29 38.7268C33.6065 38.4506 33.8276 38.7187 34.0791 38.9218ZM33.9967 42.4725C33.4721 42.6025 33.3551 42.4603 33.0386 42.0337C33.3507 42.115 33.6325 42.1759 33.9144 42.2612C33.9577 42.2775 33.9664 42.3872 34.0011 42.4725L33.9967 42.4725ZM27.8271 33.994C27.7144 34.1809 27.6277 34.315 27.5063 34.51C27.4109 34.3231 27.3632 34.2297 27.3285 34.1606C27.1724 34.1647 27.0467 34.1647 26.9209 34.1647C26.9166 34.12 26.9166 34.0753 26.9123 34.0306C27.1767 34.0184 27.4369 34.0103 27.8271 33.994ZM35.744 43.6953C36.0432 43.4556 36.2123 43.7806 36.429 43.809C36.4941 43.8171 36.5331 43.9675 36.5808 44.0568C36.5591 44.065 36.5331 44.0731 36.5114 44.0812C36.2686 43.9593 36.0215 43.8375 35.744 43.6953ZM33.0342 38.2678C33.0602 38.3165 33.0862 38.3612 33.1166 38.4059C33.0125 38.4587 32.9128 38.5237 32.8001 38.5522C32.7524 38.5643 32.6744 38.4993 32.6137 38.4709C32.7524 38.4059 32.8955 38.3368 33.0342 38.2678ZM32.1021 37.7072C32.0544 37.6909 32.011 37.6787 31.9633 37.6625C31.8853 37.5853 31.8072 37.504 31.7422 37.4187C31.7379 37.4106 31.8636 37.2928 31.8809 37.305C31.9807 37.3537 32.0847 37.4187 32.1497 37.5C32.1801 37.5406 32.1237 37.6381 32.1021 37.7072ZM45.3432 51.6456C45.2695 51.5237 45.2218 51.4343 45.1264 51.2718C45.3822 51.3368 45.5556 51.3815 45.7854 51.4424C45.6076 51.5237 45.4949 51.5765 45.3432 51.6456Z" fill="black"/>
</g>
</g>
</g>
</g>
<mask id="mask8_273_3552" style="mask-type:luminance" maskUnits="userSpaceOnUse" x="0" y="67" width="49" height="11">
<path d="M0 67.6001L3.5052e-07 78.0001L48.8369 78.0001L48.8369 67.6001L0 67.6001Z" fill="white"/>
</mask>
<g mask="url(#mask8_273_3552)">
<mask id="mask9_273_3552" style="mask-type:luminance" maskUnits="userSpaceOnUse" x="-7" y="-1" width="82" height="83">
<path d="M-6.48242 7.30829L2.34499 81.7291L74.3256 74.2338L65.4982 -0.187017L-6.48242 7.30829Z" fill="white"/>
</mask>
<g mask="url(#mask9_273_3552)">
<mask id="mask10_273_3552" style="mask-type:luminance" maskUnits="userSpaceOnUse" x="-7" y="-1" width="82" height="83">
<path d="M-6.48242 7.30756L2.34499 81.7284L74.3256 74.2331L65.4982 -0.187749L-6.48242 7.30756Z" fill="white"/>
</mask>
<g mask="url(#mask10_273_3552)">
<mask id="mask11_273_3552" style="mask-type:luminance" maskUnits="userSpaceOnUse" x="-7" y="-1" width="82" height="83">
<path d="M-6.47852 7.30756L2.34889 81.7284L74.3295 74.2331L65.5021 -0.187749L-6.47852 7.30756Z" fill="white"/>
</mask>
<g mask="url(#mask11_273_3552)">
<path d="M36.6201 71.4177C36.1475 71.3649 35.6749 71.3324 35.211 71.2593C34.7428 71.1821 34.2789 71.0724 33.7846 70.9749C33.8279 70.8205 33.8496 70.7352 33.8843 70.6093C33.6372 70.5524 33.4161 70.4386 33.2036 70.6986C33.0865 70.8368 32.4319 70.8043 32.2021 70.6702C32.2324 70.6418 32.2628 70.6133 32.2888 70.5849C32.3365 70.5239 32.3842 70.463 32.4189 70.3939C32.4232 70.3818 32.3495 70.3086 32.3321 70.3127C32.2541 70.3452 32.1717 70.3818 32.111 70.4386C32.0286 70.5118 31.9463 70.6783 31.8856 70.6702C31.6948 70.6458 31.4824 70.593 31.3306 70.4874C31.0184 70.2761 30.7193 70.0933 30.3074 70.138C30.1947 70.1502 30.0646 70.1096 29.9519 70.073C29.7091 69.9918 29.4749 69.8618 29.2321 69.8211C29.1238 69.8049 28.9893 69.9633 28.868 70.0405C28.7552 70.0486 28.6121 70.0364 28.4821 70.0689C28.1439 70.1502 27.8404 70.0283 27.6887 69.7318C27.5889 69.5368 27.112 69.3702 26.7955 69.4433C26.8909 69.5286 26.9863 69.5855 27.047 69.6708C27.0817 69.7196 27.06 69.8049 27.0643 69.8739C26.9949 69.8658 26.8779 69.878 26.8605 69.8455C26.7912 69.7196 26.5224 69.6993 26.6221 69.4636C26.6307 69.4433 26.388 69.2849 26.2535 69.2646C25.6552 69.1711 25.0526 69.1102 24.4542 69.0249C24.1594 68.9802 23.9947 69.0574 23.8342 69.3458C23.4917 69.358 23.1535 69.3702 22.8154 69.3824C22.4295 69.3946 22.3211 69.3336 22.061 68.9233C21.9179 69.2686 21.6317 69.2605 21.3066 69.2118C21.2892 68.9396 21.1201 68.9396 20.8817 69.0168C20.3007 69.2077 19.7067 69.1711 19.1127 69.0696C18.7659 69.0127 18.4103 68.9924 18.0678 68.9233C17.8467 68.8827 17.6386 68.7852 17.3741 68.6999C16.6674 69.1833 15.8913 69.0736 15.0936 68.6146C15.0198 69.224 14.5212 68.8908 14.2134 68.9436C13.8969 68.9965 13.5501 68.9355 13.2249 68.8786C13.1512 68.8624 13.1122 68.6715 13.0428 68.5333C13.0428 68.5333 12.9474 68.5861 12.9127 68.6593C12.8217 68.8665 12.7393 68.8502 12.5962 68.6958C12.5008 68.5943 12.3578 68.5374 12.193 68.4277C12.193 68.5821 12.1973 68.6796 12.1973 68.7324C11.8158 68.6308 11.4386 68.5211 11.0571 68.4277C10.979 68.4074 10.8533 68.4115 10.7969 68.4602C10.6278 68.6105 10.4587 68.5861 10.2593 68.5252C9.85608 68.4033 9.44419 68.5252 9.04965 68.509C8.61174 68.4846 8.11314 68.6918 7.70559 68.3586C7.63622 68.3058 7.52349 68.2571 7.44979 68.2733C7.02923 68.3546 6.64335 68.2368 6.24447 68.1555C5.96265 68.0946 5.65482 68.1271 5.36 68.1352C5.14322 68.1393 4.92643 68.2408 4.76601 67.9605C4.71832 67.8752 4.42783 67.9118 4.24573 67.8915C3.95091 67.859 3.66042 67.8183 3.36559 67.794C3.09678 67.7696 2.79762 67.6965 2.66755 68.0905C2.52014 67.9524 2.41175 67.8508 2.30336 67.7493C2.28602 67.7533 2.26434 67.7615 2.24266 67.7655C2.26867 67.8427 2.30769 67.9199 2.3207 68.0011C2.35105 68.1921 2.55916 68.4521 2.1256 68.4765C2.09525 68.4805 2.03021 68.6024 2.04322 68.6227C2.31203 68.9477 1.98252 69.1265 1.86112 69.3621C1.8221 69.4311 1.80909 69.5449 1.84378 69.6099C1.97818 69.8618 2.10825 70.1218 2.29469 70.3452C2.39441 70.4671 2.59385 70.5199 2.74993 70.6011C2.43776 70.9789 2.27301 70.9789 1.85245 70.6824C1.53161 70.4549 1.30182 70.6824 1.05469 70.9018C1.16308 70.9505 1.24546 70.9911 1.33217 71.0318C1.30182 71.048 1.27147 71.0602 1.24112 71.0765C1.37553 71.3486 1.5056 71.6208 1.64434 71.8889C1.67035 71.9377 1.73539 72.0027 1.77007 71.9946C2.20364 71.9214 2.43343 72.3236 2.82364 72.3724C3.18783 72.4211 3.53469 72.5958 3.89888 72.6527C4.51888 72.7502 5.14755 72.7908 5.77189 72.8721C6.24881 72.9371 6.71706 73.0427 7.18965 73.1036C7.69692 73.1686 8.20853 73.2052 8.7158 73.2499C8.84153 73.2621 8.96293 73.2783 9.08867 73.2946C9.37048 73.3271 9.6523 73.3758 9.93412 73.4002C10.4544 73.4408 10.979 73.4896 11.4993 73.5018C11.9719 73.5139 12.4445 73.4652 12.9171 73.4774C13.2032 73.4896 13.4894 73.5789 13.7799 73.6155C13.9099 73.6358 14.0573 73.6521 14.1787 73.6114C14.4996 73.5099 14.7987 73.4449 15.1456 73.583C15.3407 73.6602 15.6008 73.5952 15.913 73.5911C15.991 73.6074 16.1645 73.6805 16.3292 73.6602C16.8105 73.5993 17.2701 73.6277 17.7557 73.7211C18.315 73.8227 18.9089 73.7577 19.4856 73.7699C19.711 73.778 19.9365 73.7943 20.1663 73.8186C20.6389 73.8796 21.1158 73.9161 21.5797 74.0177C22.074 74.1274 22.5552 74.1396 23.0668 74.1071C23.405 74.0827 23.7519 74.3021 24.1074 74.3711C24.4282 74.4361 24.7577 74.4483 25.0829 74.4808C25.2217 74.4971 25.3604 74.493 25.4948 74.5133C26.0931 74.6149 26.6914 74.7246 27.2898 74.8302C27.3158 74.8343 27.3418 74.8464 27.3591 74.8383C28.0528 74.4646 28.6945 75.0333 29.3882 74.948C29.7091 74.9074 30.0516 75.0618 30.3898 75.1146C30.6369 75.1552 30.884 75.1796 31.1312 75.208C31.1658 75.2121 31.2049 75.1958 31.2352 75.2039C31.9419 75.4436 32.6963 75.2771 33.4117 75.4274C33.4681 75.4396 33.5375 75.4477 33.5721 75.4802C33.7846 75.7158 34.0404 75.6102 34.3005 75.598C34.6344 75.5818 34.9769 75.6102 35.3064 75.6589C35.9221 75.7564 36.5291 75.8986 37.1447 75.988C37.3789 76.0205 37.6043 75.9514 37.8644 76.0611C38.1463 76.183 38.5191 76.0977 38.8443 76.1424C39.0828 76.1708 39.3082 76.2643 39.5423 76.3211C39.8502 76.3943 40.158 76.4755 40.4745 76.5202C41.0815 76.5974 41.6928 76.6421 42.2998 76.7192C42.4863 76.7436 42.664 76.8289 42.8418 76.898C43.5268 77.1621 44.2509 77.0767 44.9663 77.1052C45.1267 77.1133 45.2828 77.1417 45.4475 77.1499C45.5342 77.158 45.6556 77.1824 45.712 77.1417C46.1195 76.8167 46.5791 76.8005 47.0864 76.8208C47.4029 76.833 47.7237 76.6908 48.0402 76.6014C48.0793 76.5933 48.1313 76.4714 48.1139 76.4471C48.0532 76.3658 47.9535 76.2439 47.8798 76.248C47.6457 76.2724 47.4896 76.2074 47.3465 76.0327C47.2988 75.9718 47.1601 75.9718 47.0604 75.9555C46.9043 75.9271 46.7482 75.9108 46.5791 75.8864C46.6181 75.7646 46.6918 75.6508 46.6615 75.6183C46.4187 75.3664 46.5314 75.1308 46.6442 74.8668C46.7439 74.6311 46.6702 74.4402 46.3884 74.3102C46.2106 74.2289 46.0849 74.0421 45.9331 73.908C45.8811 73.8593 45.8204 73.8186 45.7553 73.7861C45.699 73.7577 45.6209 73.7536 45.5689 73.7171C45.1527 73.4652 44.7625 73.1727 44.3246 72.9655C43.8737 72.7502 43.3794 72.6039 42.9025 72.4374C42.5383 72.3114 42.1654 72.2018 41.7969 72.0839C41.4847 71.9824 41.1769 71.8768 40.8604 71.7914C40.5699 71.7102 40.2707 71.6371 39.9716 71.6005C39.8762 71.5883 39.7548 71.698 39.6507 71.763C39.5684 71.8199 39.499 71.893 39.4209 71.958C39.3689 71.8605 39.2822 71.7671 39.2692 71.6655C39.2345 71.3649 38.944 71.438 38.7749 71.3608C38.6449 71.3039 38.4801 71.3283 38.3327 71.3161C38.1809 71.7549 38.1853 71.7305 37.704 71.568C37.4439 71.4786 37.1447 71.4989 36.8586 71.4583C36.7719 71.4502 36.6895 71.4218 36.6071 71.4014L36.6114 71.4055L36.6201 71.4177Z" fill="black"/>
</g>
</g>
</g>
</g>
</svg>
