<svg width="256" height="80" viewBox="0 0 256 80" fill="none" xmlns="http://www.w3.org/2000/svg">
<mask id="path-1-outside-1_745_5636" maskUnits="userSpaceOnUse" x="84" y="11" width="172" height="48" fill="black">
<rect fill="white" x="84" y="11" width="172" height="48"/>
<path d="M85.1016 13.3594L92.3203 11.8828L100.219 34.2656L109.43 23.6016L116.859 33.0469L122.273 12.3516L130.875 14.6719L119.25 47.2734L108.047 35.0391L97.7344 47.9062L85.1016 13.3594ZM139.969 48.2812H132.844L133.641 27.375L139.688 26.9062L139.875 28.9922C141.203 28.0859 143.516 27.6875 146.812 27.7969L146.531 33.6328C143.844 33.1172 142.094 33.2734 141.281 34.1016C140.469 34.9297 140.031 35.9531 139.969 37.1719C139.953 37.3594 139.953 41.0625 139.969 48.2812ZM157.078 27.6797V48.9375L150.586 49.6406L149.648 27.6797H157.078ZM152.32 18.375C153.633 18.2188 154.797 18.4219 155.812 18.9844C156.828 19.5469 157.391 20.3047 157.5 21.2578C157.609 22.2109 157.234 23.0781 156.375 23.8594C155.516 24.6406 154.43 25.1094 153.117 25.2656C151.789 25.4219 150.617 25.2188 149.602 24.6562C148.602 24.0938 148.047 23.3359 147.938 22.3828C147.828 21.4297 148.195 20.5625 149.039 19.7812C149.898 19 150.992 18.5312 152.32 18.375ZM160.734 27H164.461L163.969 17.7656L171.586 17.4609L171.516 27H174.961V30.4688L171.469 30.5156L171.328 47.9766L165.609 48.4453L164.648 30.6328L160.734 30.7031V27ZM190.734 35.0391C190.547 34.6797 190.312 34.3281 190.031 33.9844C189.172 33 188.133 32.5078 186.914 32.5078C185.695 32.5078 184.656 33 183.797 33.9844C183.172 34.7188 182.773 35.5625 182.602 36.5156L190.734 35.0391ZM190.945 39.7031L195.305 40.6172C194.898 42.1328 194.102 43.4844 192.914 44.6719C191.102 46.5 188.914 47.4141 186.352 47.4141C183.789 47.4141 181.602 46.5 179.789 44.6719C177.992 42.8438 177.094 40.6328 177.094 38.0391C177.094 35.4453 177.992 33.2344 179.789 31.4062C181.602 29.5781 183.789 28.6641 186.352 28.6641C188.914 28.6641 191.102 29.5781 192.914 31.4062C194.602 33.1094 195.5 35.1484 195.609 37.5234L183.422 40.7109C183.547 40.8828 183.672 41.0391 183.797 41.1797C184.656 42.1797 185.695 42.6797 186.914 42.6797C188.133 42.6797 189.172 42.1797 190.031 41.1797C190.422 40.7266 190.727 40.2344 190.945 39.7031ZM207 36.0938C206.125 36.0938 205.375 36.4375 204.75 37.125C204.125 37.7969 203.812 38.6172 203.812 39.5859C203.812 40.5547 204.125 41.3828 204.75 42.0703C205.375 42.7578 206.125 43.1016 207 43.1016C207.891 43.1016 208.641 42.7578 209.25 42.0703C209.875 41.3828 210.188 40.5547 210.188 39.5859C210.188 38.6172 209.875 37.7969 209.25 37.125C208.641 36.4375 207.891 36.0938 207 36.0938ZM211.148 45.4219C209.758 46.625 208.125 47.2266 206.25 47.2266C204.109 47.2266 202.281 46.4531 200.766 44.9062C199.266 43.3594 198.516 41.4922 198.516 39.3047C198.516 37.1016 199.266 35.2266 200.766 33.6797C202.281 32.1328 204.109 31.3594 206.25 31.3594C207.375 31.3594 208.414 31.5781 209.367 32.0156L209.227 30.8672L216.047 29.8594L215.273 47.5078L211.5 48.0703L211.148 45.4219ZM225.422 38.2031C223.594 36.9062 222.492 36.0781 222.117 35.7188C220.992 34.6406 220.469 33.3906 220.547 31.9688C220.625 30.5469 221.289 29.3672 222.539 28.4297C223.789 27.4922 225.25 27.0781 226.922 27.1875C228.609 27.2812 230.016 27.8672 231.141 28.9453C232.281 30.0234 232.812 31.4609 232.734 33.2578L229.242 33.6562C228.977 32.6406 228.727 31.9922 228.492 31.7109C228.102 31.2578 227.688 31.0156 227.25 30.9844C226.812 30.9375 226.492 31 226.289 31.1719C226.086 31.3438 225.969 31.7266 225.938 32.3203C225.891 32.9297 226.062 33.4062 226.453 33.75C226.781 34.2031 227.586 34.9062 228.867 35.8594C230.164 36.8125 231.227 37.75 232.055 38.6719C232.883 39.5938 233.297 40.9219 233.297 42.6562C233.203 44.375 232.461 45.8125 231.07 46.9688C229.68 48.1094 228.047 48.625 226.172 48.5156C224.312 48.4062 222.758 47.7031 221.508 46.4062C220.258 45.0938 219.688 43.5781 219.797 41.8594V41.5781L223.992 41.9297C224.023 42.7422 224.328 43.4609 224.906 44.0859C225.406 44.6484 226 44.9609 226.688 45.0234C227.375 45.0859 227.938 44.8359 228.375 44.2734C228.812 43.6953 228.984 42.9219 228.891 41.9531C228.406 40.7344 227.25 39.4844 225.422 38.2031ZM236.742 28.9922L243.141 28.0312L246.094 39.375L250.148 26.8594L254.836 28.3125L244.781 57.4453L240.188 55.3125L243.609 46.5234L236.742 28.9922Z"/>
</mask>
<path d="M85.1016 13.3594L92.3203 11.8828L100.219 34.2656L109.43 23.6016L116.859 33.0469L122.273 12.3516L130.875 14.6719L119.25 47.2734L108.047 35.0391L97.7344 47.9062L85.1016 13.3594ZM139.969 48.2812H132.844L133.641 27.375L139.688 26.9062L139.875 28.9922C141.203 28.0859 143.516 27.6875 146.812 27.7969L146.531 33.6328C143.844 33.1172 142.094 33.2734 141.281 34.1016C140.469 34.9297 140.031 35.9531 139.969 37.1719C139.953 37.3594 139.953 41.0625 139.969 48.2812ZM157.078 27.6797V48.9375L150.586 49.6406L149.648 27.6797H157.078ZM152.32 18.375C153.633 18.2188 154.797 18.4219 155.812 18.9844C156.828 19.5469 157.391 20.3047 157.5 21.2578C157.609 22.2109 157.234 23.0781 156.375 23.8594C155.516 24.6406 154.43 25.1094 153.117 25.2656C151.789 25.4219 150.617 25.2188 149.602 24.6562C148.602 24.0938 148.047 23.3359 147.938 22.3828C147.828 21.4297 148.195 20.5625 149.039 19.7812C149.898 19 150.992 18.5312 152.32 18.375ZM160.734 27H164.461L163.969 17.7656L171.586 17.4609L171.516 27H174.961V30.4688L171.469 30.5156L171.328 47.9766L165.609 48.4453L164.648 30.6328L160.734 30.7031V27ZM190.734 35.0391C190.547 34.6797 190.312 34.3281 190.031 33.9844C189.172 33 188.133 32.5078 186.914 32.5078C185.695 32.5078 184.656 33 183.797 33.9844C183.172 34.7188 182.773 35.5625 182.602 36.5156L190.734 35.0391ZM190.945 39.7031L195.305 40.6172C194.898 42.1328 194.102 43.4844 192.914 44.6719C191.102 46.5 188.914 47.4141 186.352 47.4141C183.789 47.4141 181.602 46.5 179.789 44.6719C177.992 42.8438 177.094 40.6328 177.094 38.0391C177.094 35.4453 177.992 33.2344 179.789 31.4062C181.602 29.5781 183.789 28.6641 186.352 28.6641C188.914 28.6641 191.102 29.5781 192.914 31.4062C194.602 33.1094 195.5 35.1484 195.609 37.5234L183.422 40.7109C183.547 40.8828 183.672 41.0391 183.797 41.1797C184.656 42.1797 185.695 42.6797 186.914 42.6797C188.133 42.6797 189.172 42.1797 190.031 41.1797C190.422 40.7266 190.727 40.2344 190.945 39.7031ZM207 36.0938C206.125 36.0938 205.375 36.4375 204.75 37.125C204.125 37.7969 203.812 38.6172 203.812 39.5859C203.812 40.5547 204.125 41.3828 204.75 42.0703C205.375 42.7578 206.125 43.1016 207 43.1016C207.891 43.1016 208.641 42.7578 209.25 42.0703C209.875 41.3828 210.188 40.5547 210.188 39.5859C210.188 38.6172 209.875 37.7969 209.25 37.125C208.641 36.4375 207.891 36.0938 207 36.0938ZM211.148 45.4219C209.758 46.625 208.125 47.2266 206.25 47.2266C204.109 47.2266 202.281 46.4531 200.766 44.9062C199.266 43.3594 198.516 41.4922 198.516 39.3047C198.516 37.1016 199.266 35.2266 200.766 33.6797C202.281 32.1328 204.109 31.3594 206.25 31.3594C207.375 31.3594 208.414 31.5781 209.367 32.0156L209.227 30.8672L216.047 29.8594L215.273 47.5078L211.5 48.0703L211.148 45.4219ZM225.422 38.2031C223.594 36.9062 222.492 36.0781 222.117 35.7188C220.992 34.6406 220.469 33.3906 220.547 31.9688C220.625 30.5469 221.289 29.3672 222.539 28.4297C223.789 27.4922 225.25 27.0781 226.922 27.1875C228.609 27.2812 230.016 27.8672 231.141 28.9453C232.281 30.0234 232.812 31.4609 232.734 33.2578L229.242 33.6562C228.977 32.6406 228.727 31.9922 228.492 31.7109C228.102 31.2578 227.688 31.0156 227.25 30.9844C226.812 30.9375 226.492 31 226.289 31.1719C226.086 31.3438 225.969 31.7266 225.938 32.3203C225.891 32.9297 226.062 33.4062 226.453 33.75C226.781 34.2031 227.586 34.9062 228.867 35.8594C230.164 36.8125 231.227 37.75 232.055 38.6719C232.883 39.5938 233.297 40.9219 233.297 42.6562C233.203 44.375 232.461 45.8125 231.07 46.9688C229.68 48.1094 228.047 48.625 226.172 48.5156C224.312 48.4062 222.758 47.7031 221.508 46.4062C220.258 45.0938 219.688 43.5781 219.797 41.8594V41.5781L223.992 41.9297C224.023 42.7422 224.328 43.4609 224.906 44.0859C225.406 44.6484 226 44.9609 226.688 45.0234C227.375 45.0859 227.938 44.8359 228.375 44.2734C228.812 43.6953 228.984 42.9219 228.891 41.9531C228.406 40.7344 227.25 39.4844 225.422 38.2031ZM236.742 28.9922L243.141 28.0312L246.094 39.375L250.148 26.8594L254.836 28.3125L244.781 57.4453L240.188 55.3125L243.609 46.5234L236.742 28.9922Z" fill="black"/>
<path d="M85.1016 13.3594L85.0014 12.8695L84.4326 12.9859L84.632 13.5311L85.1016 13.3594ZM92.3203 11.8828L92.7918 11.7164L92.6469 11.3057L92.2201 11.393L92.3203 11.8828ZM100.219 34.2656L99.7472 34.432L100.034 35.2445L100.597 34.5925L100.219 34.2656ZM109.43 23.6016L109.823 23.2924L109.448 22.8158L109.051 23.2747L109.43 23.6016ZM116.859 33.0469L116.466 33.356L117.088 34.1468L117.343 33.1734L116.859 33.0469ZM122.273 12.3516L122.404 11.8688L121.917 11.7376L121.79 12.225L122.273 12.3516ZM130.875 14.6719L131.346 14.8398L131.528 14.3301L131.005 14.1891L130.875 14.6719ZM119.25 47.2734L118.881 47.6111L119.442 48.2235L119.721 47.4414L119.25 47.2734ZM108.047 35.0391L108.416 34.7014L108.022 34.2711L107.657 34.7264L108.047 35.0391ZM97.7344 47.9062L97.2648 48.078L97.5696 48.9114L98.1245 48.2189L97.7344 47.9062ZM85.2018 13.8492L92.4205 12.3727L92.2201 11.393L85.0014 12.8695L85.2018 13.8492ZM91.8488 12.0492L99.7472 34.432L100.69 34.0992L92.7918 11.7164L91.8488 12.0492ZM100.597 34.5925L109.808 23.9284L109.051 23.2747L99.8404 33.9388L100.597 34.5925ZM109.037 23.9107L116.466 33.356L117.252 32.7377L109.823 23.2924L109.037 23.9107ZM117.343 33.1734L122.757 12.4781L121.79 12.225L116.376 32.9203L117.343 33.1734ZM122.143 12.8343L130.745 15.1546L131.005 14.1891L122.404 11.8688L122.143 12.8343ZM130.404 14.5039L118.779 47.1055L119.721 47.4414L131.346 14.8398L130.404 14.5039ZM119.619 46.9358L108.416 34.7014L107.678 35.3767L118.881 47.6111L119.619 46.9358ZM107.657 34.7264L97.3442 47.5936L98.1245 48.2189L108.437 35.3518L107.657 34.7264ZM98.204 47.7345L85.5712 13.1877L84.632 13.5311L97.2648 48.078L98.204 47.7345ZM139.969 48.2812V48.7812H140.47L140.469 48.2802L139.969 48.2812ZM132.844 48.2812L132.344 48.2622L132.324 48.7812H132.844V48.2812ZM133.641 27.375L133.602 26.8765L133.158 26.9109L133.141 27.356L133.641 27.375ZM139.688 26.9062L140.185 26.8615L140.141 26.3696L139.649 26.4077L139.688 26.9062ZM139.875 28.9922L139.377 29.037L139.453 29.8853L140.157 29.4052L139.875 28.9922ZM146.812 27.7969L147.312 27.8209L147.336 27.314L146.829 27.2971L146.812 27.7969ZM146.531 33.6328L146.437 34.1239L147.003 34.2324L147.031 33.6569L146.531 33.6328ZM139.969 37.1719L140.467 37.2134L140.468 37.2054L140.468 37.1975L139.969 37.1719ZM139.969 47.7812H132.844V48.7812H139.969V47.7812ZM133.343 48.3003L134.14 27.394L133.141 27.356L132.344 48.2622L133.343 48.3003ZM133.679 27.8735L139.726 27.4048L139.649 26.4077L133.602 26.8765L133.679 27.8735ZM139.19 26.951L139.377 29.037L140.373 28.9474L140.185 26.8615L139.19 26.951ZM140.157 29.4052C141.343 28.5955 143.513 28.1877 146.796 28.2966L146.829 27.2971C143.518 27.1873 141.063 27.5764 139.593 28.5792L140.157 29.4052ZM146.313 27.7728L146.032 33.6087L147.031 33.6569L147.312 27.8209L146.313 27.7728ZM146.625 33.1418C145.258 32.8795 144.098 32.7814 143.159 32.8653C142.224 32.9487 141.447 33.2183 140.924 33.7514L141.638 34.4517C141.928 34.1567 142.432 33.9341 143.248 33.8613C144.058 33.7889 145.117 33.8705 146.437 34.1239L146.625 33.1418ZM140.924 33.7514C140.022 34.6715 139.538 35.8125 139.469 37.1463L140.468 37.1975C140.525 36.0938 140.916 35.1879 141.638 34.4517L140.924 33.7514ZM139.47 37.1304C139.464 37.2031 139.462 37.5008 139.46 37.9697C139.458 38.457 139.457 39.1639 139.457 40.0898C139.457 41.942 139.461 44.6729 139.469 48.2823L140.469 48.2802C140.461 44.6709 140.457 41.9408 140.457 40.0898C140.457 39.1642 140.458 38.459 140.46 37.9737C140.461 37.7309 140.462 37.544 140.464 37.4125C140.464 37.3466 140.465 37.2957 140.466 37.2591C140.467 37.2162 140.468 37.2069 140.467 37.2134L139.47 37.1304ZM157.078 27.6797H157.578V27.1797H157.078V27.6797ZM157.078 48.9375L157.132 49.4346L157.578 49.3863V48.9375H157.078ZM150.586 49.6406L150.086 49.6619L150.109 50.1952L150.64 50.1377L150.586 49.6406ZM149.648 27.6797V27.1797H149.127L149.149 27.701L149.648 27.6797ZM152.32 18.375L152.379 18.8716L152.379 18.8715L152.32 18.375ZM153.117 25.2656L153.176 25.7622L153.176 25.7621L153.117 25.2656ZM149.602 24.6562L149.356 25.092L149.359 25.0936L149.602 24.6562ZM149.039 19.7812L148.703 19.4113L148.699 19.4144L149.039 19.7812ZM156.578 27.6797V48.9375H157.578V27.6797H156.578ZM157.024 48.4404L150.532 49.1435L150.64 50.1377L157.132 49.4346L157.024 48.4404ZM151.085 49.6193L150.148 27.6584L149.149 27.701L150.086 49.6619L151.085 49.6193ZM149.648 28.1797H157.078V27.1797H149.648V28.1797ZM152.379 18.8715C153.603 18.7259 154.659 18.917 155.57 19.4218L156.055 18.547C154.935 17.9268 153.663 17.7116 152.261 17.8785L152.379 18.8715ZM155.57 19.4218C156.478 19.9246 156.916 20.5568 157.003 21.3148L157.997 21.2008C157.865 20.0525 157.178 19.1691 156.055 18.547L155.57 19.4218ZM157.003 21.3148C157.09 22.0735 156.807 22.7906 156.039 23.4894L156.711 24.2293C157.661 23.3656 158.128 22.3483 157.997 21.2008L157.003 21.3148ZM156.039 23.4894C155.267 24.1912 154.282 24.6234 153.058 24.7691L153.176 25.7621C154.577 25.5953 155.765 25.09 156.711 24.2293L156.039 23.4894ZM153.059 24.7691C151.818 24.915 150.754 24.7232 149.844 24.2189L149.359 25.0936C150.48 25.7143 151.76 25.9288 153.176 25.7622L153.059 24.7691ZM149.847 24.2205C148.955 23.7191 148.522 23.0873 148.434 22.3258L147.441 22.4398C147.572 23.5846 148.248 24.4684 149.356 25.092L149.847 24.2205ZM148.434 22.3258C148.347 21.5633 148.626 20.8454 149.379 20.1481L148.699 19.4144C147.765 20.2796 147.31 21.296 147.441 22.4398L148.434 22.3258ZM149.375 20.1512C150.146 19.4504 151.138 19.0176 152.379 18.8716L152.262 17.8784C150.846 18.0449 149.651 18.5496 148.703 19.4113L149.375 20.1512ZM160.734 27V26.5H160.234V27H160.734ZM164.461 27V27.5H164.988L164.96 26.9734L164.461 27ZM163.969 17.7656L163.949 17.266L163.442 17.2863L163.469 17.7922L163.969 17.7656ZM171.586 17.4609L172.086 17.4646L172.09 16.9404L171.566 16.9613L171.586 17.4609ZM171.516 27L171.016 26.9963L171.012 27.5H171.516V27ZM174.961 27H175.461V26.5H174.961V27ZM174.961 30.4688L174.968 30.9687L175.461 30.9621V30.4688H174.961ZM171.469 30.5156L171.462 30.0157L170.973 30.0222L170.969 30.5116L171.469 30.5156ZM171.328 47.9766L171.369 48.4749L171.824 48.4376L171.828 47.9806L171.328 47.9766ZM165.609 48.4453L165.11 48.4722L165.138 48.9856L165.65 48.9436L165.609 48.4453ZM164.648 30.6328L165.148 30.6059L165.122 30.1242L164.639 30.1329L164.648 30.6328ZM160.734 30.7031H160.234V31.2122L160.743 31.203L160.734 30.7031ZM160.734 27.5H164.461V26.5H160.734V27.5ZM164.96 26.9734L164.468 17.739L163.469 17.7922L163.962 27.0266L164.96 26.9734ZM163.989 18.2652L171.606 17.9605L171.566 16.9613L163.949 17.266L163.989 18.2652ZM171.086 17.4573L171.016 26.9963L172.016 27.0037L172.086 17.4646L171.086 17.4573ZM171.516 27.5H174.961V26.5H171.516V27.5ZM174.461 27V30.4688H175.461V27H174.461ZM174.954 29.9688L171.462 30.0157L171.475 31.0156L174.968 30.9687L174.954 29.9688ZM170.969 30.5116L170.828 47.9725L171.828 47.9806L171.969 30.5197L170.969 30.5116ZM171.287 47.4782L165.569 47.947L165.65 48.9436L171.369 48.4749L171.287 47.4782ZM166.109 48.4184L165.148 30.6059L164.149 30.6597L165.11 48.4722L166.109 48.4184ZM164.639 30.1329L160.725 30.2032L160.743 31.203L164.657 31.1327L164.639 30.1329ZM161.234 30.7031V27H160.234V30.7031H161.234ZM190.734 35.0391L190.824 35.531L191.492 35.4097L191.178 34.8078L190.734 35.0391ZM190.031 33.9844L190.418 33.6678L190.413 33.6616L190.408 33.6555L190.031 33.9844ZM183.797 33.9844L183.42 33.6555L183.416 33.6603L183.797 33.9844ZM182.602 36.5156L182.109 36.4269L181.982 37.1364L182.691 37.0076L182.602 36.5156ZM190.945 39.7031L191.048 39.2138L190.641 39.1285L190.483 39.5127L190.945 39.7031ZM195.305 40.6172L195.788 40.7466L195.924 40.2363L195.407 40.1278L195.305 40.6172ZM192.914 44.6719L192.561 44.3183L192.559 44.3198L192.914 44.6719ZM179.789 44.6719L179.432 45.0224L179.434 45.0239L179.789 44.6719ZM179.789 31.4062L179.434 31.0542L179.432 31.0558L179.789 31.4062ZM192.914 31.4062L193.269 31.0543L193.269 31.0542L192.914 31.4062ZM195.609 37.5234L195.736 38.0072L196.127 37.9048L196.109 37.5004L195.609 37.5234ZM183.422 40.7109L183.295 40.2272L182.587 40.4126L183.018 41.005L183.422 40.7109ZM183.797 41.1797L184.176 40.8538L184.171 40.8475L183.797 41.1797ZM190.031 41.1797L189.653 40.8532L189.652 40.8538L190.031 41.1797ZM191.178 34.8078C190.973 34.4154 190.719 34.0355 190.418 33.6678L189.644 34.301C189.906 34.6208 190.121 34.944 190.291 35.2703L191.178 34.8078ZM190.408 33.6555C189.461 32.5713 188.289 32.0078 186.914 32.0078V33.0078C187.977 33.0078 188.882 33.4287 189.655 34.3132L190.408 33.6555ZM186.914 32.0078C185.54 32.0078 184.367 32.5713 183.42 33.6555L184.174 34.3132C184.946 33.4287 185.851 33.0078 186.914 33.0078V32.0078ZM183.416 33.6603C182.734 34.4622 182.297 35.3873 182.109 36.4269L183.094 36.6044C183.25 35.7377 183.61 34.9753 184.178 34.3084L183.416 33.6603ZM182.691 37.0076L190.824 35.531L190.645 34.5471L182.512 36.0237L182.691 37.0076ZM190.843 40.1925L195.202 41.1065L195.407 40.1278L191.048 39.2138L190.843 40.1925ZM194.822 40.4877C194.44 41.9126 193.69 43.1884 192.561 44.3183L193.268 45.0254C194.513 43.7804 195.357 42.353 195.788 40.7466L194.822 40.4877ZM192.559 44.3198C190.84 46.0538 188.78 46.9141 186.352 46.9141V47.9141C189.048 47.9141 191.363 46.9462 193.269 45.0239L192.559 44.3198ZM186.352 46.9141C183.923 46.9141 181.863 46.0538 180.144 44.3198L179.434 45.0239C181.34 46.9462 183.655 47.9141 186.352 47.9141V46.9141ZM180.146 44.3214C178.442 42.588 177.594 40.5034 177.594 38.0391H176.594C176.594 40.7622 177.542 43.0995 179.432 45.0224L180.146 44.3214ZM177.594 38.0391C177.594 35.5747 178.442 33.4901 180.146 31.7567L179.432 31.0558C177.542 32.9786 176.594 35.3159 176.594 38.0391H177.594ZM180.144 31.7583C181.863 30.0244 183.923 29.1641 186.352 29.1641V28.1641C183.655 28.1641 181.34 29.1319 179.434 31.0542L180.144 31.7583ZM186.352 29.1641C188.78 29.1641 190.84 30.0244 192.559 31.7583L193.269 31.0542C191.363 29.1319 189.048 28.1641 186.352 28.1641V29.1641ZM192.559 31.7582C194.16 33.3741 195.006 35.2963 195.11 37.5464L196.109 37.5004C195.994 35.0006 195.043 32.8446 193.269 31.0543L192.559 31.7582ZM195.483 37.0397L183.295 40.2272L183.548 41.1947L195.736 38.0072L195.483 37.0397ZM183.018 41.005C183.151 41.1884 183.286 41.3576 183.423 41.5119L184.171 40.8475C184.058 40.7205 183.943 40.5772 183.826 40.4169L183.018 41.005ZM183.418 41.5056C184.363 42.6059 185.537 43.1797 186.914 43.1797V42.1797C185.854 42.1797 184.949 41.7535 184.176 40.8538L183.418 41.5056ZM186.914 43.1797C188.292 43.1797 189.465 42.6059 190.41 41.5056L189.652 40.8538C188.879 41.7535 187.974 42.1797 186.914 42.1797V43.1797ZM190.41 41.5062C190.834 41.0141 191.168 40.4763 191.408 39.8935L190.483 39.5127C190.285 39.9924 190.01 40.439 189.653 40.8532L190.41 41.5062ZM204.75 37.125L205.116 37.4656L205.12 37.4613L204.75 37.125ZM209.25 42.0703L208.88 41.7339L208.876 41.7387L209.25 42.0703ZM209.25 37.125L208.876 37.4567L208.884 37.4656L209.25 37.125ZM211.148 45.4219L211.644 45.3561L211.522 44.4374L210.821 45.0438L211.148 45.4219ZM200.766 44.9062L200.407 45.2543L200.408 45.2562L200.766 44.9062ZM200.766 33.6797L200.408 33.3298L200.407 33.3316L200.766 33.6797ZM209.367 32.0156L209.159 32.47L209.972 32.8435L209.863 31.9549L209.367 32.0156ZM209.227 30.8672L209.153 30.3726L208.671 30.4439L208.73 30.928L209.227 30.8672ZM216.047 29.8594L216.546 29.8813L216.573 29.2762L215.974 29.3647L216.047 29.8594ZM215.273 47.5078L215.347 48.0023L215.755 47.9416L215.773 47.5297L215.273 47.5078ZM211.5 48.0703L211.004 48.1361L211.071 48.6398L211.574 48.5648L211.5 48.0703ZM207 35.5938C205.975 35.5938 205.093 36.0042 204.38 36.7887L205.12 37.4613C205.657 36.8708 206.275 36.5938 207 36.5938V35.5938ZM204.384 36.7844C203.668 37.5544 203.312 38.4986 203.312 39.5859H204.312C204.312 38.7358 204.582 38.0394 205.116 37.4656L204.384 36.7844ZM203.312 39.5859C203.312 40.6732 203.668 41.6229 204.38 42.4067L205.12 41.734C204.582 41.1427 204.312 40.4361 204.312 39.5859H203.312ZM204.38 42.4067C205.093 43.1911 205.975 43.6016 207 43.6016V42.6016C206.275 42.6016 205.657 42.3245 205.12 41.734L204.38 42.4067ZM207 43.6016C208.039 43.6016 208.923 43.1927 209.624 42.402L208.876 41.7387C208.358 42.3229 207.743 42.6016 207 42.6016V43.6016ZM209.62 42.4067C210.332 41.6229 210.688 40.6732 210.688 39.5859H209.688C209.688 40.4361 209.418 41.1427 208.88 41.734L209.62 42.4067ZM210.688 39.5859C210.688 38.4986 210.332 37.5544 209.616 36.7844L208.884 37.4656C209.418 38.0394 209.688 38.7358 209.688 39.5859H210.688ZM209.624 36.7933C208.923 36.0026 208.039 35.5938 207 35.5938V36.5938C207.743 36.5938 208.358 36.8724 208.876 37.4567L209.624 36.7933ZM210.821 45.0438C209.523 46.1666 208.007 46.7266 206.25 46.7266V47.7266C208.243 47.7266 209.992 47.0834 211.476 45.8L210.821 45.0438ZM206.25 46.7266C204.246 46.7266 202.546 46.0085 201.123 44.5563L200.408 45.2562C202.017 46.8978 203.973 47.7266 206.25 47.7266V46.7266ZM201.125 44.5582C199.717 43.1062 199.016 41.3645 199.016 39.3047H198.016C198.016 41.6199 198.815 43.6126 200.407 45.2543L201.125 44.5582ZM199.016 39.3047C199.016 37.2283 199.717 35.479 201.125 34.0278L200.407 33.3316C198.814 34.9741 198.016 36.9749 198.016 39.3047H199.016ZM201.123 34.0296C202.546 32.5775 204.246 31.8594 206.25 31.8594V30.8594C203.973 30.8594 202.017 31.6882 200.408 33.3298L201.123 34.0296ZM206.25 31.8594C207.308 31.8594 208.276 32.0647 209.159 32.47L209.576 31.5612C208.553 31.0915 207.442 30.8594 206.25 30.8594V31.8594ZM209.863 31.9549L209.723 30.8064L208.73 30.928L208.871 32.0764L209.863 31.9549ZM209.3 31.3618L216.12 30.354L215.974 29.3647L209.153 30.3726L209.3 31.3618ZM215.547 29.8375L214.774 47.4859L215.773 47.5297L216.546 29.8813L215.547 29.8375ZM215.2 47.0133L211.426 47.5758L211.574 48.5648L215.347 48.0023L215.2 47.0133ZM211.996 48.0045L211.644 45.3561L210.653 45.4877L211.004 48.1361L211.996 48.0045ZM225.422 38.2031L225.133 38.6109L225.135 38.6126L225.422 38.2031ZM226.922 27.1875L226.889 27.6865L226.894 27.6867L226.922 27.1875ZM231.141 28.9453L230.795 29.3063L230.797 29.3087L231.141 28.9453ZM232.734 33.2578L232.791 33.7546L233.215 33.7062L233.234 33.2795L232.734 33.2578ZM229.242 33.6562L228.758 33.7828L228.868 34.2022L229.299 34.153L229.242 33.6562ZM228.492 31.7109L228.876 31.3908L228.871 31.3845L228.492 31.7109ZM227.25 30.9844L227.197 31.4815L227.206 31.4825L227.214 31.4831L227.25 30.9844ZM225.938 32.3203L226.436 32.3587L226.437 32.3466L225.938 32.3203ZM226.453 33.75L226.858 33.4567L226.825 33.4115L226.783 33.3746L226.453 33.75ZM228.867 35.8594L228.569 36.2606L228.571 36.2623L228.867 35.8594ZM233.297 42.6562L233.796 42.6835L233.797 42.6699V42.6562H233.297ZM231.07 46.9688L231.387 47.3554L231.39 47.3532L231.07 46.9688ZM226.172 48.5156L226.143 49.0148L226.143 49.0148L226.172 48.5156ZM221.508 46.4062L221.146 46.7511L221.148 46.7532L221.508 46.4062ZM219.797 41.8594L220.296 41.8911L220.297 41.8753V41.8594H219.797ZM219.797 41.5781L219.839 41.0799L219.297 41.0345V41.5781H219.797ZM223.992 41.9297L224.492 41.9105L224.475 41.4684L224.034 41.4314L223.992 41.9297ZM224.906 44.0859L225.28 43.7537L225.273 43.7464L224.906 44.0859ZM228.375 44.2734L228.77 44.5804L228.774 44.5752L228.375 44.2734ZM228.891 41.9531L229.388 41.905L229.381 41.8344L229.355 41.7685L228.891 41.9531ZM225.711 37.7953C223.87 36.4893 222.805 35.6855 222.463 35.3578L221.771 36.0797C222.179 36.4707 223.317 37.3232 225.133 38.6109L225.711 37.7953ZM222.463 35.3578C221.432 34.3698 220.977 33.2576 221.046 31.9962L220.048 31.9413C219.961 33.5236 220.552 34.9114 221.771 36.0797L222.463 35.3578ZM221.046 31.9962C221.115 30.7373 221.694 29.6883 222.839 28.8297L222.239 28.0297C220.884 29.0461 220.135 30.3564 220.048 31.9413L221.046 31.9962ZM222.839 28.8297C223.986 27.9692 225.327 27.5842 226.889 27.6864L226.955 26.6886C225.173 26.572 223.592 27.0151 222.239 28.0297L222.839 28.8297ZM226.894 27.6867C228.473 27.7745 229.763 28.318 230.795 29.3063L231.487 28.5843C230.268 27.4164 228.745 26.788 226.95 26.6883L226.894 27.6867ZM230.797 29.3087C231.816 30.2721 232.308 31.5606 232.235 33.2361L233.234 33.2795C233.317 31.3612 232.746 29.7748 231.484 28.5819L230.797 29.3087ZM232.678 32.761L229.186 33.1595L229.299 34.153L232.791 33.7546L232.678 32.761ZM229.726 33.5297C229.59 33.012 229.456 32.5764 229.322 32.2283C229.192 31.8903 229.047 31.5958 228.876 31.3908L228.108 32.031C228.172 32.1073 228.269 32.2776 228.389 32.5881C228.505 32.8885 228.628 33.2849 228.758 33.7828L229.726 33.5297ZM228.871 31.3845C228.426 30.8682 227.898 30.5294 227.286 30.4856L227.214 31.4831C227.477 31.5018 227.777 31.6474 228.113 32.0374L228.871 31.3845ZM227.303 30.4872C226.815 30.4349 226.324 30.4869 225.966 30.7902L226.612 31.5536C226.66 31.5131 226.81 31.4401 227.197 31.4815L227.303 30.4872ZM225.966 30.7902C225.763 30.9619 225.644 31.2016 225.571 31.4415C225.496 31.6858 225.455 31.9741 225.438 32.294L226.437 32.3466C226.451 32.0728 226.485 31.8727 226.527 31.7342C226.548 31.6661 226.569 31.62 226.586 31.5904C226.603 31.5611 226.613 31.5526 226.612 31.5536L225.966 30.7902ZM225.439 32.282C225.382 33.0171 225.593 33.6589 226.123 34.1254L226.783 33.3746C226.532 33.1536 226.399 32.8423 226.436 32.3587L225.439 32.282ZM226.048 34.0433C226.428 34.5681 227.296 35.3138 228.569 36.2605L229.166 35.4582C227.876 34.4987 227.134 33.8381 226.858 33.4567L226.048 34.0433ZM228.571 36.2623C229.848 37.2008 230.883 38.1158 231.683 39.006L232.427 38.3377C231.57 37.3842 230.48 36.4242 229.163 35.4565L228.571 36.2623ZM231.683 39.006C232.401 39.8051 232.797 40.996 232.797 42.6562H233.797C233.797 40.8478 233.365 39.3824 232.427 38.3377L231.683 39.006ZM232.798 42.629C232.712 44.2012 232.04 45.5119 230.751 46.5843L231.39 47.3532C232.881 46.1131 233.694 44.5488 233.796 42.6835L232.798 42.629ZM230.753 46.5822C229.464 47.6393 227.957 48.1189 226.201 48.0165L226.143 49.0148C228.137 49.1311 229.895 48.5795 231.387 47.3553L230.753 46.5822ZM226.201 48.0165C224.463 47.9142 223.027 47.2623 221.868 46.0593L221.148 46.7532C222.488 48.1439 224.162 48.8983 226.143 49.0148L226.201 48.0165ZM221.87 46.0614C220.71 44.8439 220.196 43.4627 220.296 41.8911L219.298 41.8276C219.179 43.6935 219.805 45.3436 221.146 46.7511L221.87 46.0614ZM220.297 41.8594V41.5781H219.297V41.8594H220.297ZM219.755 42.0764L223.95 42.4279L224.034 41.4314L219.839 41.0799L219.755 42.0764ZM223.493 41.9489C223.529 42.8865 223.884 43.7174 224.539 44.4255L225.273 43.7464C224.772 43.2045 224.518 42.5978 224.492 41.9105L223.493 41.9489ZM224.533 44.4181C225.109 45.0663 225.816 45.4463 226.642 45.5214L226.733 44.5255C226.184 44.4756 225.704 44.2306 225.28 43.7538L224.533 44.4181ZM226.642 45.5214C227.506 45.5999 228.232 45.2721 228.77 44.5804L227.98 43.9665C227.643 44.3998 227.244 44.572 226.733 44.5255L226.642 45.5214ZM228.774 44.5752C229.31 43.8668 229.49 42.9551 229.388 41.905L228.393 42.0013C228.479 42.8887 228.315 43.5238 227.976 43.9717L228.774 44.5752ZM229.355 41.7685C228.818 40.4154 227.567 39.096 225.709 37.7937L225.135 38.6126C226.933 39.8728 227.995 41.0533 228.426 42.1378L229.355 41.7685ZM236.742 28.9922L236.668 28.4977L236.048 28.5908L236.277 29.1746L236.742 28.9922ZM243.141 28.0312L243.624 27.9053L243.511 27.47L243.066 27.5368L243.141 28.0312ZM246.094 39.375L245.61 39.501L246.041 41.1588L246.569 39.5291L246.094 39.375ZM250.148 26.8594L250.296 26.3818L249.825 26.2356L249.673 26.7053L250.148 26.8594ZM254.836 28.3125L255.309 28.4756L255.477 27.9877L254.984 27.8349L254.836 28.3125ZM244.781 57.4453L244.571 57.8988L245.073 58.1321L245.254 57.6084L244.781 57.4453ZM240.188 55.3125L239.722 55.1311L239.551 55.5684L239.977 55.766L240.188 55.3125ZM243.609 46.5234L244.075 46.7048L244.146 46.5229L244.075 46.3411L243.609 46.5234ZM236.816 29.4866L243.215 28.5257L243.066 27.5368L236.668 28.4977L236.816 29.4866ZM242.657 28.1572L245.61 39.501L246.578 39.249L243.624 27.9053L242.657 28.1572ZM246.569 39.5291L250.624 27.0135L249.673 26.7053L245.618 39.2209L246.569 39.5291ZM250 27.337L254.688 28.7901L254.984 27.8349L250.296 26.3818L250 27.337ZM254.363 28.1494L244.309 57.2822L245.254 57.6084L255.309 28.4756L254.363 28.1494ZM244.992 56.9918L240.398 54.859L239.977 55.766L244.571 57.8988L244.992 56.9918ZM240.653 55.4939L244.075 46.7048L243.143 46.342L239.722 55.1311L240.653 55.4939ZM244.075 46.3411L237.208 28.8098L236.277 29.1746L243.144 46.7058L244.075 46.3411Z" fill="black" mask="url(#path-1-outside-1_745_5636)"/>
<path d="M93.7275 75.6562C93.5179 75.6562 93.3333 75.597 93.1738 75.4785C92.9915 75.3418 92.9004 75.1732 92.9004 74.9727C92.6908 74.4212 92.5586 73.9723 92.5039 73.626C92.4492 73.2796 92.2692 72.2975 91.9639 70.6797C91.7314 69.4538 91.5765 68.4694 91.499 67.7266C91.0934 69.2305 90.6582 70.5042 90.1934 71.5479C89.6556 72.7555 89.307 73.7012 89.1475 74.3848C89.2021 74.4896 89.2295 74.5921 89.2295 74.6924C89.2295 74.8975 89.1383 75.0661 88.9561 75.1982C88.792 75.3213 88.6051 75.3828 88.3955 75.3828C87.7803 75.3828 87.4727 75.1071 87.4727 74.5557L87.2607 73.6875L86.5156 70.3379C86.2194 69.2077 85.7135 67.5876 84.998 65.4775C84.9661 65.3773 84.9502 65.2861 84.9502 65.2041C84.9502 64.7803 85.1895 64.5684 85.668 64.5684C85.9642 64.5684 86.1921 64.7301 86.3516 65.0537C86.4336 65.2178 86.5999 65.6895 86.8506 66.4688C87.1195 67.2936 87.3883 68.2871 87.6572 69.4492L88.3203 72.4707C88.8079 71.3405 89.2933 69.9642 89.7764 68.3418C90.0726 67.3529 90.2982 66.667 90.4531 66.2842C90.8633 65.277 91.262 64.7734 91.6494 64.7734C91.9684 64.7734 92.194 64.9352 92.3262 65.2588C92.4902 65.6507 92.6566 66.585 92.8252 68.0615C92.9163 68.8089 93.0713 69.7067 93.29 70.7549L93.8779 73.4414C94.4886 71.974 95.252 69.9893 96.168 67.4873C96.2181 67.3506 96.332 66.9199 96.5098 66.1953C96.6419 65.6621 96.8037 65.2474 96.9951 64.9512C97.1592 64.7005 97.3734 64.5752 97.6377 64.5752C98.098 64.5752 98.3281 64.8031 98.3281 65.2588C98.3281 65.3363 98.2552 65.5641 98.1094 65.9424L97.8359 66.6807L97.46 67.8975L95.4297 72.833C95.2428 73.3753 94.9215 74.1637 94.4658 75.1982C94.3018 75.5036 94.0557 75.6562 93.7275 75.6562ZM102.703 75.3145C101.673 75.3145 100.839 75.057 100.201 74.542C99.5039 73.9723 99.1553 73.1748 99.1553 72.1494C99.1553 70.9645 99.4424 69.971 100.017 69.1689C100.641 68.2939 101.475 67.8564 102.519 67.8564C103.275 67.8564 103.893 67.984 104.371 68.2393C104.959 68.5537 105.253 69.0368 105.253 69.6885C105.253 70.1442 104.995 70.5589 104.48 70.9326C104.253 71.0967 103.77 71.3519 103.031 71.6982L100.42 72.9355C100.675 73.3138 100.992 73.5986 101.37 73.79C101.753 73.9814 102.197 74.0771 102.703 74.0771C103.018 74.0771 103.387 74.0179 103.811 73.8994C104.348 73.749 104.695 73.5531 104.85 73.3115C105.005 73.0654 105.171 72.9424 105.349 72.9424C105.508 72.9424 105.649 73.0039 105.772 73.127C105.9 73.2454 105.964 73.3844 105.964 73.5439C105.964 74.0498 105.556 74.485 104.74 74.8496C104.043 75.1595 103.364 75.3145 102.703 75.3145ZM102.519 69.0869C101.963 69.0869 101.5 69.3034 101.131 69.7363C100.762 70.1647 100.486 70.8118 100.304 71.6777L102.402 70.6797C103.227 70.2786 103.815 69.93 104.166 69.6338C103.774 69.2692 103.225 69.0869 102.519 69.0869ZM117.086 75.4238C116.762 75.4238 116.55 75.2507 116.45 74.9043C116.345 74.5306 116.25 73.9997 116.163 73.3115C116.081 72.6507 116.04 72.1084 116.04 71.6846C116.04 71.5661 116.045 71.3861 116.054 71.1445C116.067 70.903 116.074 70.723 116.074 70.6045C116.074 69.7477 115.86 69.3193 115.432 69.3193C114.853 69.3193 114.336 69.5814 113.88 70.1055C113.647 70.3743 113.328 70.887 112.923 71.6436C112.923 73.3799 112.85 74.4076 112.704 74.7266C112.576 75.0091 112.378 75.1504 112.109 75.1504C111.923 75.1504 111.758 75.0866 111.617 74.959C111.476 74.8314 111.405 74.6764 111.405 74.4941C111.405 74.4303 111.426 74.3301 111.467 74.1934C111.503 74.0794 111.528 73.7467 111.542 73.1953L111.562 72.1836L111.583 67.1592C111.615 66.5941 111.631 66.2135 111.631 66.0176C111.631 65.7852 111.608 65.5664 111.562 65.3613C111.521 65.1517 111.501 64.9352 111.501 64.7119C111.501 64.5205 111.567 64.3633 111.699 64.2402C111.831 64.1126 111.993 64.0488 112.185 64.0488C112.558 64.0488 112.777 64.2493 112.841 64.6504C112.914 65.0924 112.95 65.4912 112.95 65.8467C112.95 66.3252 112.934 66.8242 112.902 67.3438C112.875 67.8405 112.864 68.3395 112.868 68.8408L112.875 69.4424C113.249 68.9411 113.647 68.5674 114.071 68.3213C114.5 68.0706 114.953 67.9453 115.432 67.9453C116.188 67.9453 116.708 68.1914 116.99 68.6836C117.191 69.0299 117.305 69.6133 117.332 70.4336L117.387 71.7393L117.523 73.1611C117.587 73.6943 117.665 74.1637 117.756 74.5693C117.774 74.6468 117.783 74.7129 117.783 74.7676C117.783 74.9544 117.715 75.1094 117.578 75.2324C117.441 75.36 117.277 75.4238 117.086 75.4238ZM122.65 75.3145C121.62 75.3145 120.786 75.057 120.148 74.542C119.451 73.9723 119.103 73.1748 119.103 72.1494C119.103 70.9645 119.39 69.971 119.964 69.1689C120.588 68.2939 121.422 67.8564 122.466 67.8564C123.222 67.8564 123.84 67.984 124.318 68.2393C124.906 68.5537 125.2 69.0368 125.2 69.6885C125.2 70.1442 124.943 70.5589 124.428 70.9326C124.2 71.0967 123.717 71.3519 122.979 71.6982L120.367 72.9355C120.622 73.3138 120.939 73.5986 121.317 73.79C121.7 73.9814 122.145 74.0771 122.65 74.0771C122.965 74.0771 123.334 74.0179 123.758 73.8994C124.296 73.749 124.642 73.5531 124.797 73.3115C124.952 73.0654 125.118 72.9424 125.296 72.9424C125.455 72.9424 125.597 73.0039 125.72 73.127C125.847 73.2454 125.911 73.3844 125.911 73.5439C125.911 74.0498 125.503 74.485 124.688 74.8496C123.99 75.1595 123.311 75.3145 122.65 75.3145ZM122.466 69.0869C121.91 69.0869 121.447 69.3034 121.078 69.7363C120.709 70.1647 120.433 70.8118 120.251 71.6777L122.35 70.6797C123.174 70.2786 123.762 69.93 124.113 69.6338C123.721 69.2692 123.172 69.0869 122.466 69.0869ZM128.864 69.627L128.762 73.0244C128.762 73.3844 128.743 73.9131 128.707 74.6104C128.661 75.0661 128.438 75.2939 128.037 75.2939C127.59 75.2939 127.367 75.0615 127.367 74.5967C127.367 74.0452 127.392 73.2181 127.442 72.1152C127.493 71.0078 127.518 70.1784 127.518 69.627C127.518 68.9069 127.529 68.0843 127.552 67.1592C127.575 66.2295 127.586 65.4046 127.586 64.6846C127.586 64.2288 127.809 64.001 128.256 64.001C128.707 64.001 128.933 64.2288 128.933 64.6846C128.933 65.4046 128.921 66.2295 128.898 67.1592C128.876 68.0843 128.864 68.9069 128.864 69.627ZM133.875 75.2393C133.419 75.2393 132.918 75.1663 132.371 75.0205L132.357 78.2881C132.357 78.4886 132.294 78.6527 132.166 78.7803C132.043 78.9079 131.883 78.9717 131.688 78.9717C131.492 78.9717 131.33 78.9079 131.202 78.7803C131.079 78.6527 131.018 78.4886 131.018 78.2881L131.038 75.5537V72.8262C131.024 71.8281 130.99 70.9189 130.936 70.0986L130.833 68.7109C130.833 68.3874 130.892 68.1139 131.011 67.8906C131.147 67.6217 131.346 67.4873 131.605 67.4873C131.783 67.4873 131.931 67.5511 132.05 67.6787C132.173 67.8018 132.234 67.9544 132.234 68.1367C132.234 68.1777 132.228 68.2529 132.214 68.3623C132.191 68.5036 132.175 68.6335 132.166 68.752C132.558 68.4831 132.936 68.2826 133.301 68.1504C133.665 68.0137 134.014 67.9453 134.347 67.9453C135.281 67.9453 135.965 68.36 136.397 69.1895C136.739 69.8457 136.91 70.7139 136.91 71.7939C136.91 72.7783 136.646 73.5895 136.117 74.2275C135.557 74.902 134.809 75.2393 133.875 75.2393ZM134.347 69.3125C133.927 69.3125 133.549 69.4059 133.212 69.5928C132.97 69.7249 132.665 69.9665 132.296 70.3174C132.355 71.3519 132.385 72.4388 132.385 73.5781C132.882 73.7695 133.378 73.8652 133.875 73.8652C134.445 73.8652 134.88 73.6533 135.181 73.2295C135.44 72.8604 135.57 72.3818 135.57 71.7939C135.57 70.9645 135.468 70.3447 135.263 69.9346C135.062 69.5199 134.757 69.3125 134.347 69.3125ZM148.34 75.2803C148.089 75.2803 147.896 75.1481 147.759 74.8838C147.522 74.4235 147.164 73.8789 146.686 73.25L145.476 71.6025C145.211 71.8122 144.801 72.1061 144.245 72.4844C144.195 73.1908 144.17 73.8789 144.17 74.5488C144.17 74.7539 144.106 74.9202 143.979 75.0479C143.855 75.1755 143.696 75.2393 143.5 75.2393C143.04 75.2393 142.81 74.9294 142.81 74.3096C142.81 73.9313 142.835 73.3662 142.885 72.6143C142.939 71.8577 142.967 71.2904 142.967 70.9121C142.967 70.2194 142.976 69.4287 142.994 68.54C143.017 67.6468 143.028 66.8584 143.028 66.1748C143.028 65.9697 143.017 65.7282 142.994 65.4502C142.976 65.1722 142.967 64.9307 142.967 64.7256C142.967 64.5205 143.028 64.3542 143.151 64.2266C143.279 64.099 143.441 64.0352 143.637 64.0352C143.833 64.0352 143.992 64.099 144.115 64.2266C144.243 64.3542 144.307 64.5205 144.307 64.7256C144.307 64.9352 144.318 65.1836 144.341 65.4707C144.364 65.7533 144.375 65.9993 144.375 66.209L144.327 68.4102C144.304 69.2031 144.298 69.9961 144.307 70.7891C144.926 70.3151 145.523 69.7956 146.098 69.2305L147.602 67.6787C147.752 67.5238 147.914 67.4463 148.087 67.4463C148.265 67.4463 148.424 67.5169 148.565 67.6582C148.711 67.7995 148.784 67.9635 148.784 68.1504C148.784 68.3053 148.718 68.458 148.586 68.6084C148.025 69.2646 147.335 69.9688 146.515 70.7207L148.005 72.751C148.702 73.7035 149.051 74.3232 149.051 74.6104C149.051 74.7926 148.978 74.9499 148.832 75.082C148.691 75.2142 148.527 75.2803 148.34 75.2803ZM151.512 66.3457C151.293 66.3457 151.104 66.2682 150.944 66.1133C150.785 65.9583 150.705 65.7715 150.705 65.5527C150.705 65.334 150.785 65.1471 150.944 64.9922C151.104 64.8372 151.293 64.7598 151.512 64.7598C151.73 64.7598 151.917 64.8372 152.072 64.9922C152.232 65.1471 152.312 65.334 152.312 65.5527C152.312 65.7715 152.232 65.9583 152.072 66.1133C151.917 66.2682 151.73 66.3457 151.512 66.3457ZM151.819 71.8965C151.819 72.1699 151.826 72.5801 151.84 73.127C151.858 73.6693 151.867 74.0771 151.867 74.3506C151.867 74.5511 151.806 74.7152 151.683 74.8428C151.56 74.9704 151.398 75.0342 151.197 75.0342C151.001 75.0342 150.84 74.9704 150.712 74.8428C150.589 74.7152 150.527 74.5511 150.527 74.3506C150.527 74.0771 150.518 73.6693 150.5 73.127C150.486 72.5801 150.479 72.1699 150.479 71.8965C150.479 71.4681 150.502 70.9349 150.548 70.2969C150.593 69.6543 150.616 69.1188 150.616 68.6904C150.616 68.4854 150.678 68.319 150.801 68.1914C150.928 68.0638 151.09 68 151.286 68C151.482 68 151.642 68.0638 151.765 68.1914C151.892 68.319 151.956 68.4854 151.956 68.6904C151.956 69.1188 151.933 69.6543 151.888 70.2969C151.842 70.9349 151.819 71.4681 151.819 71.8965ZM160.426 68.9639C160.371 69.6338 160.344 70.3037 160.344 70.9736C160.344 72.4912 160.414 73.6374 160.556 74.4121C160.565 74.4759 160.569 74.5283 160.569 74.5693C160.569 74.7516 160.506 74.902 160.378 75.0205C160.25 75.139 160.102 75.1982 159.934 75.1982C159.651 75.1982 159.444 74.9932 159.312 74.583C158.983 74.8245 158.642 75.0068 158.286 75.1299C157.935 75.2529 157.568 75.3145 157.186 75.3145C156.242 75.3145 155.461 75 154.841 74.3711C154.203 73.7285 153.884 72.9036 153.884 71.8965C153.884 70.6797 154.205 69.7044 154.848 68.9707C155.495 68.237 156.333 67.8701 157.363 67.8701C157.892 67.8701 158.3 67.9521 158.587 68.1162L159.229 68.5879C159.293 66.6693 159.368 65.3773 159.455 64.7119C159.514 64.3063 159.722 64.1035 160.077 64.1035C160.492 64.1035 160.699 64.3245 160.699 64.7666C160.699 65.4001 160.608 66.7992 160.426 68.9639ZM157.391 69.1416C156.625 69.1416 156.051 69.3695 155.668 69.8252C155.285 70.2764 155.094 70.9577 155.094 71.8691C155.094 72.457 155.301 72.9629 155.716 73.3867C156.135 73.8105 156.625 74.0225 157.186 74.0225C157.568 74.0225 157.892 73.9518 158.156 73.8105C158.311 73.7285 158.564 73.5394 158.915 73.2432C158.983 73.1839 159.049 73.1133 159.113 73.0312L159.093 71.8486L159.1 71.0557L159.113 70.249C158.94 69.8799 158.71 69.6042 158.423 69.4219C158.136 69.235 157.792 69.1416 157.391 69.1416ZM166.975 69.7363C166.724 69.7363 166.549 69.652 166.448 69.4834C166.38 69.3649 166.321 69.1188 166.271 68.7451C165.929 68.8317 165.402 68.9912 164.691 69.2236C163.958 69.5153 163.589 69.8753 163.584 70.3037C163.721 70.3538 163.855 70.3903 163.987 70.4131C165.035 70.5999 165.815 70.8574 166.325 71.1855C167.068 71.6641 167.439 72.3568 167.439 73.2637C167.439 74.0065 167.118 74.5671 166.476 74.9453C165.942 75.2552 165.268 75.4102 164.452 75.4102C163.855 75.4102 163.285 75.3099 162.743 75.1094C162.041 74.8542 161.69 74.4987 161.69 74.043C161.69 73.8607 161.761 73.7012 161.902 73.5645C162.048 73.4277 162.212 73.3594 162.395 73.3594C162.536 73.3594 162.718 73.4688 162.941 73.6875C163.051 73.7923 163.297 73.8789 163.68 73.9473C163.985 74.002 164.243 74.0293 164.452 74.0293C164.835 74.0293 165.172 73.9837 165.464 73.8926C165.888 73.7604 166.1 73.5508 166.1 73.2637C166.1 72.6439 165.667 72.2246 164.801 72.0059L164.09 71.8486C163.484 71.7165 163.053 71.5615 162.798 71.3838C162.429 71.1286 162.244 70.7435 162.244 70.2285C162.244 69.276 162.693 68.597 163.591 68.1914C163.864 68.0684 164.302 67.9225 164.903 67.7539C165.505 67.5807 165.936 67.4349 166.195 67.3164C166.382 67.2344 166.585 67.1934 166.804 67.1934C167 67.1934 167.159 67.2572 167.282 67.3848C167.41 67.5124 167.474 67.6787 167.474 67.8838C167.474 68.016 167.501 68.2096 167.556 68.4648C167.615 68.7201 167.645 68.9137 167.645 69.0459C167.645 69.251 167.581 69.4173 167.453 69.5449C167.33 69.6725 167.171 69.7363 166.975 69.7363ZM181.549 68.8818C181.193 70.3675 180.729 72.0469 180.154 73.9199C180.027 74.3346 179.815 74.7607 179.519 75.1982C179.359 75.4398 179.143 75.5583 178.869 75.5537C178.372 75.5446 177.985 74.9271 177.707 73.7012C177.616 73.3092 177.522 72.776 177.427 72.1016L177.201 70.5771L176.641 71.8828L175.602 74.7061C175.542 74.8792 175.456 75.0114 175.342 75.1025C175.205 75.3669 174.986 75.5036 174.686 75.5127C174.339 75.5264 174.004 74.8473 173.681 73.4756C173.517 72.7692 173.353 71.8122 173.188 70.6045L173.024 69.5791C172.965 69.1689 172.936 68.8249 172.936 68.5469C172.936 68.3555 173.002 68.1982 173.134 68.0752C173.271 67.9476 173.435 67.8838 173.626 67.8838C173.972 67.8838 174.187 68.0729 174.269 68.4512C174.328 68.7201 174.376 69.0527 174.412 69.4492L174.515 70.4541L174.918 73.5234C175.424 72.1198 175.948 70.502 176.49 68.6699C176.641 68.1641 176.903 67.9111 177.276 67.9111C177.636 67.9111 177.88 68.1937 178.008 68.7588C178.126 69.292 178.274 70.1123 178.452 71.2197C178.634 72.3682 178.796 73.2637 178.938 73.9062L179.437 72.0469L180.318 68.3213C180.387 68.0433 180.583 67.9043 180.906 67.9043C181.098 67.9043 181.264 67.9704 181.405 68.1025C181.547 68.2301 181.617 68.3851 181.617 68.5674C181.617 68.5902 181.594 68.695 181.549 68.8818ZM188.269 69.9482C188.237 70.5179 188.009 70.8027 187.585 70.8027C187.193 70.8027 186.997 70.5771 186.997 70.126C186.997 70.0394 186.99 69.8799 186.977 69.6475L186.956 69.0732C186.236 69.1598 185.66 69.3626 185.227 69.6816C184.821 69.9779 184.484 70.4245 184.215 71.0215L184.229 74.7676C184.229 75.2279 184.003 75.458 183.552 75.458C183.151 75.458 182.95 75.2279 182.95 74.7676V69.9688C182.95 69.8184 182.955 69.5928 182.964 69.292C182.978 68.9912 182.984 68.7656 182.984 68.6152C182.984 68.1549 183.185 67.9248 183.586 67.9248C184.033 67.9248 184.258 68.3031 184.263 69.0596C185.138 68.2165 186.108 67.7949 187.175 67.7949C187.544 67.7949 187.82 67.9339 188.002 68.2119C188.184 68.4899 188.275 68.9092 188.275 69.4697C188.275 69.7067 188.273 69.8662 188.269 69.9482ZM190.982 66.3457C190.764 66.3457 190.575 66.2682 190.415 66.1133C190.256 65.9583 190.176 65.7715 190.176 65.5527C190.176 65.334 190.256 65.1471 190.415 64.9922C190.575 64.8372 190.764 64.7598 190.982 64.7598C191.201 64.7598 191.388 64.8372 191.543 64.9922C191.702 65.1471 191.782 65.334 191.782 65.5527C191.782 65.7715 191.702 65.9583 191.543 66.1133C191.388 66.2682 191.201 66.3457 190.982 66.3457ZM191.29 71.8965C191.29 72.1699 191.297 72.5801 191.311 73.127C191.329 73.6693 191.338 74.0771 191.338 74.3506C191.338 74.5511 191.276 74.7152 191.153 74.8428C191.03 74.9704 190.868 75.0342 190.668 75.0342C190.472 75.0342 190.31 74.9704 190.183 74.8428C190.06 74.7152 189.998 74.5511 189.998 74.3506C189.998 74.0771 189.989 73.6693 189.971 73.127C189.957 72.5801 189.95 72.1699 189.95 71.8965C189.95 71.4681 189.973 70.9349 190.019 70.2969C190.064 69.6543 190.087 69.1188 190.087 68.6904C190.087 68.4854 190.148 68.319 190.271 68.1914C190.399 68.0638 190.561 68 190.757 68C190.953 68 191.112 68.0638 191.235 68.1914C191.363 68.319 191.427 68.4854 191.427 68.6904C191.427 69.1188 191.404 69.6543 191.358 70.2969C191.313 70.9349 191.29 71.4681 191.29 71.8965ZM198.174 69.1758C198.078 69.1758 197.964 69.1712 197.832 69.1621C197.704 69.153 197.593 69.1484 197.497 69.1484C197.392 69.1484 197.082 69.1826 196.567 69.251L196.697 73.291L196.704 73.5918L196.711 73.9404C196.729 74.9385 196.49 75.4375 195.993 75.4375C195.811 75.4375 195.651 75.3783 195.515 75.2598C195.382 75.1413 195.316 74.9932 195.316 74.8154C195.316 74.6423 195.323 74.3825 195.337 74.0361C195.351 73.6898 195.357 73.43 195.357 73.2568L195.221 69.2646C194.888 69.251 194.382 69.2122 193.703 69.1484C193.298 69.0938 193.095 68.8682 193.095 68.4717C193.095 68.2712 193.156 68.1048 193.279 67.9727C193.402 67.8405 193.56 67.7744 193.751 67.7744L195.187 67.8906C195.187 67.6582 195.175 67.3483 195.152 66.9609C195.134 66.569 195.125 66.2865 195.125 66.1133C195.125 65.9219 195.191 65.7646 195.323 65.6416C195.455 65.514 195.617 65.4502 195.809 65.4502C196.219 65.4502 196.458 65.7852 196.526 66.4551C196.54 66.6237 196.547 66.8265 196.547 67.0635L196.533 67.46L196.526 67.8838C197.091 67.8109 197.415 67.7744 197.497 67.7744C197.971 67.7744 198.281 67.7972 198.427 67.8428C198.705 67.9339 198.844 68.1481 198.844 68.4854C198.844 68.6859 198.78 68.8522 198.652 68.9844C198.529 69.112 198.37 69.1758 198.174 69.1758ZM203.396 75.3145C202.367 75.3145 201.533 75.057 200.895 74.542C200.197 73.9723 199.849 73.1748 199.849 72.1494C199.849 70.9645 200.136 69.971 200.71 69.1689C201.334 68.2939 202.168 67.8564 203.212 67.8564C203.968 67.8564 204.586 67.984 205.064 68.2393C205.652 68.5537 205.946 69.0368 205.946 69.6885C205.946 70.1442 205.689 70.5589 205.174 70.9326C204.946 71.0967 204.463 71.3519 203.725 71.6982L201.113 72.9355C201.368 73.3138 201.685 73.5986 202.063 73.79C202.446 73.9814 202.891 74.0771 203.396 74.0771C203.711 74.0771 204.08 74.0179 204.504 73.8994C205.042 73.749 205.388 73.5531 205.543 73.3115C205.698 73.0654 205.864 72.9424 206.042 72.9424C206.201 72.9424 206.343 73.0039 206.466 73.127C206.593 73.2454 206.657 73.3844 206.657 73.5439C206.657 74.0498 206.249 74.485 205.434 74.8496C204.736 75.1595 204.057 75.3145 203.396 75.3145ZM203.212 69.0869C202.656 69.0869 202.193 69.3034 201.824 69.7363C201.455 70.1647 201.179 70.8118 200.997 71.6777L203.096 70.6797C203.921 70.2786 204.508 69.93 204.859 69.6338C204.467 69.2692 203.918 69.0869 203.212 69.0869ZM215.25 75.2871C214.553 75.2871 213.919 75.1504 213.35 74.877C213.204 75.0957 213.026 75.2051 212.816 75.2051C212.643 75.2051 212.495 75.1436 212.372 75.0205C212.254 74.902 212.194 74.7516 212.194 74.5693C212.194 74.4508 212.199 74.2754 212.208 74.043C212.222 73.8105 212.229 73.6351 212.229 73.5166C212.229 73.0335 212.215 72.3112 212.188 71.3496C212.165 70.3835 212.153 69.6589 212.153 69.1758C212.153 68.8431 212.156 68.2142 212.16 67.2891C212.165 66.3594 212.167 65.7259 212.167 65.3887C212.167 65.1152 212.224 64.8691 212.338 64.6504C212.488 64.3724 212.696 64.2334 212.96 64.2334C213.302 64.2334 213.473 64.4316 213.473 64.8281C213.473 64.8919 213.461 64.9854 213.438 65.1084C213.416 65.2314 213.404 65.3249 213.404 65.3887L213.384 66.8857L213.37 68.6289C213.767 68.36 214.143 68.1595 214.498 68.0273C214.858 67.8906 215.195 67.8223 215.51 67.8223C216.49 67.8223 217.285 68.1982 217.896 68.9502C218.47 69.6566 218.757 70.5247 218.757 71.5547C218.757 72.5938 218.422 73.4756 217.752 74.2002C217.082 74.9248 216.248 75.2871 215.25 75.2871ZM215.51 69.1143C215.136 69.1143 214.753 69.2191 214.361 69.4287C214.17 69.5335 213.842 69.7591 213.377 70.1055L213.363 71.2881L213.37 72.3545L213.377 73.4756C213.596 73.5758 213.903 73.7035 214.3 73.8584C214.582 73.945 214.899 73.9883 215.25 73.9883C215.911 73.9883 216.453 73.7559 216.877 73.291C217.301 72.8262 217.513 72.2474 217.513 71.5547C217.513 70.8757 217.342 70.3083 217 69.8525C216.631 69.3604 216.134 69.1143 215.51 69.1143ZM223.562 75.3145C222.533 75.3145 221.699 75.057 221.061 74.542C220.363 73.9723 220.015 73.1748 220.015 72.1494C220.015 70.9645 220.302 69.971 220.876 69.1689C221.5 68.2939 222.334 67.8564 223.378 67.8564C224.134 67.8564 224.752 67.984 225.23 68.2393C225.818 68.5537 226.112 69.0368 226.112 69.6885C226.112 70.1442 225.855 70.5589 225.34 70.9326C225.112 71.0967 224.629 71.3519 223.891 71.6982L221.279 72.9355C221.535 73.3138 221.851 73.5986 222.229 73.79C222.612 73.9814 223.057 74.0771 223.562 74.0771C223.877 74.0771 224.246 74.0179 224.67 73.8994C225.208 73.749 225.554 73.5531 225.709 73.3115C225.864 73.0654 226.03 72.9424 226.208 72.9424C226.368 72.9424 226.509 73.0039 226.632 73.127C226.759 73.2454 226.823 73.3844 226.823 73.5439C226.823 74.0498 226.415 74.485 225.6 74.8496C224.902 75.1595 224.223 75.3145 223.562 75.3145ZM223.378 69.0869C222.822 69.0869 222.359 69.3034 221.99 69.7363C221.621 70.1647 221.345 70.8118 221.163 71.6777L223.262 70.6797C224.087 70.2786 224.674 69.93 225.025 69.6338C224.633 69.2692 224.084 69.0869 223.378 69.0869ZM232.613 69.1758C232.518 69.1758 232.404 69.1712 232.271 69.1621C232.144 69.153 232.032 69.1484 231.937 69.1484C231.832 69.1484 231.522 69.1826 231.007 69.251L231.137 73.291L231.144 73.5918L231.15 73.9404C231.169 74.9385 230.929 75.4375 230.433 75.4375C230.25 75.4375 230.091 75.3783 229.954 75.2598C229.822 75.1413 229.756 74.9932 229.756 74.8154C229.756 74.6423 229.763 74.3825 229.776 74.0361C229.79 73.6898 229.797 73.43 229.797 73.2568L229.66 69.2646C229.327 69.251 228.822 69.2122 228.143 69.1484C227.737 69.0938 227.534 68.8682 227.534 68.4717C227.534 68.2712 227.596 68.1048 227.719 67.9727C227.842 67.8405 227.999 67.7744 228.19 67.7744L229.626 67.8906C229.626 67.6582 229.615 67.3483 229.592 66.9609C229.574 66.569 229.564 66.2865 229.564 66.1133C229.564 65.9219 229.631 65.7646 229.763 65.6416C229.895 65.514 230.057 65.4502 230.248 65.4502C230.658 65.4502 230.897 65.7852 230.966 66.4551C230.979 66.6237 230.986 66.8265 230.986 67.0635L230.973 67.46L230.966 67.8838C231.531 67.8109 231.854 67.7744 231.937 67.7744C232.41 67.7744 232.72 67.7972 232.866 67.8428C233.144 67.9339 233.283 68.1481 233.283 68.4854C233.283 68.6859 233.219 68.8522 233.092 68.9844C232.969 69.112 232.809 69.1758 232.613 69.1758ZM239.217 69.1758C239.121 69.1758 239.007 69.1712 238.875 69.1621C238.747 69.153 238.636 69.1484 238.54 69.1484C238.435 69.1484 238.125 69.1826 237.61 69.251L237.74 73.291L237.747 73.5918L237.754 73.9404C237.772 74.9385 237.533 75.4375 237.036 75.4375C236.854 75.4375 236.694 75.3783 236.558 75.2598C236.425 75.1413 236.359 74.9932 236.359 74.8154C236.359 74.6423 236.366 74.3825 236.38 74.0361C236.394 73.6898 236.4 73.43 236.4 73.2568L236.264 69.2646C235.931 69.251 235.425 69.2122 234.746 69.1484C234.34 69.0938 234.138 68.8682 234.138 68.4717C234.138 68.2712 234.199 68.1048 234.322 67.9727C234.445 67.8405 234.603 67.7744 234.794 67.7744L236.229 67.8906C236.229 67.6582 236.218 67.3483 236.195 66.9609C236.177 66.569 236.168 66.2865 236.168 66.1133C236.168 65.9219 236.234 65.7646 236.366 65.6416C236.498 65.514 236.66 65.4502 236.852 65.4502C237.262 65.4502 237.501 65.7852 237.569 66.4551C237.583 66.6237 237.59 66.8265 237.59 67.0635L237.576 67.46L237.569 67.8838C238.134 67.8109 238.458 67.7744 238.54 67.7744C239.014 67.7744 239.324 67.7972 239.47 67.8428C239.748 67.9339 239.887 68.1481 239.887 68.4854C239.887 68.6859 239.823 68.8522 239.695 68.9844C239.572 69.112 239.413 69.1758 239.217 69.1758ZM244.439 75.3145C243.41 75.3145 242.576 75.057 241.938 74.542C241.24 73.9723 240.892 73.1748 240.892 72.1494C240.892 70.9645 241.179 69.971 241.753 69.1689C242.377 68.2939 243.211 67.8564 244.255 67.8564C245.011 67.8564 245.629 67.984 246.107 68.2393C246.695 68.5537 246.989 69.0368 246.989 69.6885C246.989 70.1442 246.732 70.5589 246.217 70.9326C245.989 71.0967 245.506 71.3519 244.768 71.6982L242.156 72.9355C242.411 73.3138 242.728 73.5986 243.106 73.79C243.489 73.9814 243.934 74.0771 244.439 74.0771C244.754 74.0771 245.123 74.0179 245.547 73.8994C246.085 73.749 246.431 73.5531 246.586 73.3115C246.741 73.0654 246.907 72.9424 247.085 72.9424C247.244 72.9424 247.386 73.0039 247.509 73.127C247.636 73.2454 247.7 73.3844 247.7 73.5439C247.7 74.0498 247.292 74.485 246.477 74.8496C245.779 75.1595 245.1 75.3145 244.439 75.3145ZM244.255 69.0869C243.699 69.0869 243.236 69.3034 242.867 69.7363C242.498 70.1647 242.222 70.8118 242.04 71.6777L244.139 70.6797C244.964 70.2786 245.551 69.93 245.902 69.6338C245.51 69.2692 244.961 69.0869 244.255 69.0869ZM254.235 69.9482C254.203 70.5179 253.976 70.8027 253.552 70.8027C253.16 70.8027 252.964 70.5771 252.964 70.126C252.964 70.0394 252.957 69.8799 252.943 69.6475L252.923 69.0732C252.203 69.1598 251.626 69.3626 251.193 69.6816C250.788 69.9779 250.451 70.4245 250.182 71.0215L250.195 74.7676C250.195 75.2279 249.97 75.458 249.519 75.458C249.118 75.458 248.917 75.2279 248.917 74.7676V69.9688C248.917 69.8184 248.922 69.5928 248.931 69.292C248.944 68.9912 248.951 68.7656 248.951 68.6152C248.951 68.1549 249.152 67.9248 249.553 67.9248C249.999 67.9248 250.225 68.3031 250.229 69.0596C251.104 68.2165 252.075 67.7949 253.142 67.7949C253.511 67.7949 253.786 67.9339 253.969 68.2119C254.151 68.4899 254.242 68.9092 254.242 69.4697C254.242 69.7067 254.24 69.8662 254.235 69.9482Z" fill="black"/>
<mask id="mask0_745_5636" style="mask-type:luminance" maskUnits="userSpaceOnUse" x="27" y="37" width="26" height="44">
<path d="M27.3652 37.4385H52.5691V80.0001H27.3652V37.4385Z" fill="white"/>
</mask>
<g mask="url(#mask0_745_5636)">
<path d="M49.9605 65.1881L48.1555 63.9854C47.7356 63.7038 47.1903 63.7038 46.7704 63.9854L43.7155 66.0195L40.6615 63.9854C40.2416 63.7038 39.6963 63.7038 39.2764 63.9854L36.2215 66.0195L33.1675 63.9854C32.7486 63.7038 32.2023 63.7038 31.7824 63.9854L29.9765 65.1881V37.5667H27.4785V67.5193C27.4785 67.855 27.6165 68.1694 27.8472 68.399L27.8443 68.4019L39.0853 79.6345C39.3285 79.8775 39.649 80 39.9685 80C40.288 80 40.6084 79.8775 40.8517 79.6345L52.0926 68.4019L52.0897 68.399C52.3204 68.1694 52.4585 67.855 52.4585 67.5193V43.807H49.9605V65.1881ZM32.4745 66.523L35.5285 68.5581C35.9483 68.8388 36.4937 68.8388 36.9136 68.5581L39.9685 66.523L43.0224 68.5581C43.4423 68.8388 43.9877 68.8388 44.4075 68.5581L47.4625 66.523L49.2481 67.7132L44.4471 72.5116H35.4899L30.6888 67.7142L32.4745 66.523ZM39.9685 76.9869L37.9879 75.0077H41.9491L39.9685 76.9869Z" fill="black"/>
</g>
<path d="M23.8466 26.6914C23.6989 26.24 23.308 25.9101 22.837 25.8416L19.2174 25.315L17.5978 22.0367C17.1779 21.1831 15.7783 21.1831 15.3585 22.0367L13.7379 25.316L10.1192 25.8426C9.64821 25.9111 9.25826 26.24 9.10962 26.6923C8.96387 27.1437 9.08452 27.6404 9.42524 27.9713L12.0458 30.5233L11.4281 34.1277C11.348 34.5955 11.54 35.0681 11.9232 35.3478C12.3103 35.6304 12.8199 35.6651 13.2398 35.4433L16.4781 33.7419L19.7174 35.4433C19.8998 35.5388 20.1006 35.586 20.2994 35.586C20.5581 35.586 20.8149 35.5069 21.034 35.3478C21.4181 35.0681 21.6102 34.5955 21.5291 34.1277L20.9114 30.5233L23.532 27.9713C23.8698 27.6385 23.9924 27.1418 23.8466 26.6914ZM18.6972 29.1923C18.4028 29.4788 18.2686 29.8926 18.3381 30.2967L18.6393 32.0559L17.0592 31.2255C16.8768 31.13 16.677 31.0818 16.4772 31.0818C16.2774 31.0818 16.0785 31.13 15.8951 31.2255L14.3151 32.0559L14.6162 30.2967C14.6867 29.8926 14.5515 29.4798 14.2581 29.1923L12.9802 27.9481L14.7465 27.6916C15.1538 27.6327 15.5042 27.3771 15.6866 27.0087L16.4772 25.4095L17.2677 27.0087C17.4501 27.3771 17.8014 27.6327 18.2088 27.6916L19.9742 27.9481L18.6972 29.1923Z" fill="black"/>
<path d="M22.5625 10.8982L21.7893 15.4054C21.7092 15.8731 21.9013 16.3458 22.2855 16.6274C22.6725 16.9061 23.1812 16.9428 23.602 16.7209L27.6511 14.5923L31.7002 16.7209C31.8827 16.8164 32.0834 16.8637 32.2823 16.8637C32.541 16.8637 32.7977 16.7846 33.0168 16.6274C33.401 16.3458 33.593 15.8731 33.512 15.4054L32.7388 10.8982L36.0167 7.70572C36.3565 7.37393 36.4791 6.87817 36.3323 6.42775C36.1847 5.97636 35.7938 5.6465 35.3237 5.57802L30.7968 4.92023L28.7708 0.820121C28.3519 -0.033465 26.9514 -0.033465 26.5315 0.820121L24.5074 4.92023L19.9786 5.57802C19.5076 5.6465 19.1176 5.97443 18.969 6.42775C18.8232 6.87817 18.9439 7.37489 19.2856 7.70572L22.5625 10.8982ZM25.5161 7.29484C25.9234 7.23697 26.2747 6.98041 26.4572 6.61294L27.6521 4.19299L28.849 6.61294C29.0314 6.98041 29.3818 7.23697 29.7891 7.29484L32.4618 7.6845L30.5275 9.56914C30.2341 9.85464 30.0989 10.2694 30.1684 10.6735L30.625 13.3355L28.2341 12.0788C28.0517 11.9833 27.8519 11.9351 27.6521 11.9351C27.4523 11.9351 27.2535 11.9833 27.0701 12.0788L24.6792 13.3355L25.1358 10.6735C25.2053 10.2694 25.0701 9.85656 24.7767 9.56914L22.8424 7.6845L25.5161 7.29484Z" fill="black"/>
<path d="M57.0951 18.9235L62.2465 13.9071C62.5862 13.5743 62.7079 13.0795 62.5621 12.6291C62.4144 12.1767 62.0235 11.8478 61.5525 11.7784L54.4359 10.7454L51.2526 4.30157C50.8327 3.44798 49.4332 3.44798 49.0133 4.30157L45.83 10.7454L38.7124 11.7803C38.2424 11.8488 37.8524 12.1767 37.7038 12.6301C37.5571 13.0805 37.6787 13.5772 38.0194 13.908L43.1708 18.9254L41.9537 26.0087C41.8735 26.4774 42.0666 26.9501 42.4498 27.2298C42.8368 27.5104 43.3465 27.5471 43.7663 27.3243L50.132 23.9794L56.4986 27.3243C56.681 27.4207 56.8818 27.468 57.0806 27.468C57.3393 27.468 57.596 27.3879 57.8151 27.2298C58.1993 26.9501 58.3914 26.4774 58.3103 26.0087L57.0951 18.9235ZM54.8809 17.5944C54.5874 17.8808 54.4523 18.2946 54.5228 18.6997L55.4214 23.9369L50.714 21.4649C50.5316 21.3685 50.3318 21.3212 50.132 21.3212C49.9322 21.3212 49.7333 21.3685 49.55 21.4649L44.8426 23.9369L45.7422 18.6997C45.8116 18.2946 45.6775 17.8818 45.3841 17.5944L41.5753 13.8858L46.8377 13.12C47.245 13.0622 47.5954 12.8056 47.7778 12.4381L50.132 7.67444L52.4862 12.4381C52.6686 12.8056 53.0199 13.0622 53.4272 13.12L58.6887 13.8858L54.8809 17.5944Z" fill="black"/>
<path d="M71.3538 32.8537L68.1879 32.3936L66.77 29.5262C66.3501 28.6726 64.9505 28.6726 64.5307 29.5262L63.1147 32.3936L59.9468 32.8537C59.4758 32.9222 59.0868 33.2501 58.9382 33.7015C58.7914 34.1539 58.9131 34.6506 59.2538 34.9814L61.5472 37.2142L61.0047 40.3662C60.9246 40.835 61.1176 41.3076 61.5008 41.5873C61.719 41.7455 61.9767 41.8255 62.2354 41.8255C62.4332 41.8255 62.633 41.7783 62.8174 41.6818L65.6493 40.1946L68.4823 41.6818C68.9031 41.9037 69.4127 41.867 69.7988 41.5883C70.184 41.3076 70.376 40.835 70.295 40.3662L69.7535 37.2142L72.0459 34.9814C72.3856 34.6496 72.5082 34.1539 72.3615 33.7015C72.2148 33.2501 71.8248 32.9203 71.3538 32.8537ZM67.5402 35.8852C67.2468 36.1706 67.1126 36.5854 67.1821 36.9895L67.4061 38.2964L66.2333 37.6791C66.0509 37.5836 65.8511 37.5364 65.6513 37.5364C65.4515 37.5364 65.2526 37.5836 65.0693 37.6791L63.8965 38.2964L64.1214 36.9895C64.1909 36.5854 64.0558 36.1716 63.7623 35.8852L62.8116 34.9583L64.1243 34.7692C64.5316 34.7104 64.883 34.4548 65.0654 34.0864L65.6522 32.8981L66.2401 34.0864C66.4225 34.4558 66.7738 34.7104 67.1812 34.7692L68.4939 34.9583L67.5402 35.8852Z" fill="black"/>
<path d="M36.2204 46.3023H38.7184C38.7184 37.3565 31.9957 30.0784 23.7305 30.0784V32.5745C30.6173 32.5745 36.2204 38.7329 36.2204 46.3023Z" fill="black"/>
<path d="M43.7148 52.5426H46.2128C46.2128 43.7482 50.2166 36.3186 54.9558 36.3186V33.8225C48.652 33.8225 43.7148 42.0459 43.7148 52.5426Z" fill="black"/>
<path d="M33.7285 31.3258H36.2265C36.2265 28.5722 37.9079 26.3335 39.9735 26.3335V23.8374C36.5296 23.8374 33.7285 27.1958 33.7285 31.3258Z" fill="black"/>
<path d="M24.9805 20.0935C27.046 20.0935 28.7275 22.3322 28.7275 25.0858H31.2255C31.2255 20.9558 28.4244 17.5974 24.9805 17.5974V20.0935Z" fill="black"/>
<path d="M51.2058 30.0782V27.582C45.0072 27.582 39.9648 33.181 39.9648 40.0627H42.4628C42.4628 34.5573 46.3855 30.0782 51.2058 30.0782Z" fill="black"/>
<path d="M43.7148 55.0383H46.2128V57.5345H43.7148V55.0383Z" fill="black"/>
<path d="M39.9648 42.5586H42.4628V45.0538H39.9648V42.5586Z" fill="black"/>
<path d="M36.2207 48.7981H38.7187V51.2942H36.2207V48.7981Z" fill="black"/>
<path d="M36.2207 53.79H38.7187V56.2862H36.2207V53.79Z" fill="black"/>
<path d="M36.2207 58.7822H38.7187V61.2784H36.2207V58.7822Z" fill="black"/>
<path d="M14.9863 37.5664H17.4843V40.0625H14.9863V37.5664Z" fill="black"/>
<path d="M0 20.0933H2.49799V22.5895H0V20.0933Z" fill="black"/>
<path d="M9.99414 15.1013H12.4912V17.5975H9.99414V15.1013Z" fill="black"/>
<path d="M61.1992 21.3413H63.6972V23.8374H61.1992V21.3413Z" fill="black"/>
<path d="M74.9395 12.6052H77.4374V15.1014H74.9395V12.6052Z" fill="black"/>
<path d="M4.99805 6.3645H7.49604V8.86064H4.99805V6.3645Z" fill="black"/>
<path d="M13.7363 5.11694H16.2343V7.61308H13.7363V5.11694Z" fill="black"/>
<path d="M59.9512 3.86865H62.4492V6.36479H59.9512V3.86865Z" fill="black"/>
<path d="M67.4434 13.853H69.9404V16.3492H67.4434V13.853Z" fill="black"/>
<path d="M4.99599 30.0783H2.49799V32.5744H0V35.0706H2.49799V37.5667H4.99599V35.0706H7.49398V32.5744H4.99599V30.0783Z" fill="black"/>
<path d="M76.1893 20.0933H73.6914V22.5894H71.1934V25.0855H73.6914V27.5817H76.1893V25.0855H78.6873V22.5894H76.1893V20.0933Z" fill="black"/>
<mask id="mask1_745_5636" style="mask-type:luminance" maskUnits="userSpaceOnUse" x="72" y="0" width="8" height="8">
<path d="M72.3398 0H79.9998V7.80863H72.3398V0Z" fill="white"/>
</mask>
<g mask="url(#mask1_745_5636)">
<path d="M76.1884 0.124756C74.1228 0.124756 72.4414 1.80492 72.4414 3.86896C72.4414 5.933 74.1228 7.61317 76.1884 7.61317C78.2549 7.61317 79.9354 5.933 79.9354 3.86896C79.9354 1.80492 78.2549 0.124756 76.1884 0.124756ZM76.1884 5.11703C75.4992 5.11703 74.9394 4.55762 74.9394 3.86896C74.9394 3.18031 75.4992 2.62089 76.1884 2.62089C76.8785 2.62089 77.4374 3.18031 77.4374 3.86896C77.4374 4.55762 76.8785 5.11703 76.1884 5.11703Z" fill="black"/>
</g>
</svg>
