<svg width="278" height="80" viewBox="0 0 278 80" fill="none" xmlns="http://www.w3.org/2000/svg">
<mask id="path-1-outside-1_1806_1980" maskUnits="userSpaceOnUse" x="86" y="11" width="172" height="48" fill="black">
<rect fill="white" x="86" y="11" width="172" height="48"/>
<path d="M87.1016 13.3594L94.3203 11.8828L102.219 34.2656L111.43 23.6016L118.859 33.0469L124.273 12.3516L132.875 14.6719L121.25 47.2734L110.047 35.0391L99.7344 47.9062L87.1016 13.3594ZM141.969 48.2812H134.844L135.641 27.375L141.688 26.9062L141.875 28.9922C143.203 28.0859 145.516 27.6875 148.812 27.7969L148.531 33.6328C145.844 33.1172 144.094 33.2734 143.281 34.1016C142.469 34.9297 142.031 35.9531 141.969 37.1719C141.953 37.3594 141.953 41.0625 141.969 48.2812ZM159.078 27.6797V48.9375L152.586 49.6406L151.648 27.6797H159.078ZM154.32 18.375C155.633 18.2188 156.797 18.4219 157.812 18.9844C158.828 19.5469 159.391 20.3047 159.5 21.2578C159.609 22.2109 159.234 23.0781 158.375 23.8594C157.516 24.6406 156.43 25.1094 155.117 25.2656C153.789 25.4219 152.617 25.2188 151.602 24.6562C150.602 24.0938 150.047 23.3359 149.938 22.3828C149.828 21.4297 150.195 20.5625 151.039 19.7812C151.898 19 152.992 18.5312 154.32 18.375ZM162.734 27H166.461L165.969 17.7656L173.586 17.4609L173.516 27H176.961V30.4688L173.469 30.5156L173.328 47.9766L167.609 48.4453L166.648 30.6328L162.734 30.7031V27ZM192.734 35.0391C192.547 34.6797 192.312 34.3281 192.031 33.9844C191.172 33 190.133 32.5078 188.914 32.5078C187.695 32.5078 186.656 33 185.797 33.9844C185.172 34.7188 184.773 35.5625 184.602 36.5156L192.734 35.0391ZM192.945 39.7031L197.305 40.6172C196.898 42.1328 196.102 43.4844 194.914 44.6719C193.102 46.5 190.914 47.4141 188.352 47.4141C185.789 47.4141 183.602 46.5 181.789 44.6719C179.992 42.8438 179.094 40.6328 179.094 38.0391C179.094 35.4453 179.992 33.2344 181.789 31.4062C183.602 29.5781 185.789 28.6641 188.352 28.6641C190.914 28.6641 193.102 29.5781 194.914 31.4062C196.602 33.1094 197.5 35.1484 197.609 37.5234L185.422 40.7109C185.547 40.8828 185.672 41.0391 185.797 41.1797C186.656 42.1797 187.695 42.6797 188.914 42.6797C190.133 42.6797 191.172 42.1797 192.031 41.1797C192.422 40.7266 192.727 40.2344 192.945 39.7031ZM209 36.0938C208.125 36.0938 207.375 36.4375 206.75 37.125C206.125 37.7969 205.812 38.6172 205.812 39.5859C205.812 40.5547 206.125 41.3828 206.75 42.0703C207.375 42.7578 208.125 43.1016 209 43.1016C209.891 43.1016 210.641 42.7578 211.25 42.0703C211.875 41.3828 212.188 40.5547 212.188 39.5859C212.188 38.6172 211.875 37.7969 211.25 37.125C210.641 36.4375 209.891 36.0938 209 36.0938ZM213.148 45.4219C211.758 46.625 210.125 47.2266 208.25 47.2266C206.109 47.2266 204.281 46.4531 202.766 44.9062C201.266 43.3594 200.516 41.4922 200.516 39.3047C200.516 37.1016 201.266 35.2266 202.766 33.6797C204.281 32.1328 206.109 31.3594 208.25 31.3594C209.375 31.3594 210.414 31.5781 211.367 32.0156L211.227 30.8672L218.047 29.8594L217.273 47.5078L213.5 48.0703L213.148 45.4219ZM227.422 38.2031C225.594 36.9062 224.492 36.0781 224.117 35.7188C222.992 34.6406 222.469 33.3906 222.547 31.9688C222.625 30.5469 223.289 29.3672 224.539 28.4297C225.789 27.4922 227.25 27.0781 228.922 27.1875C230.609 27.2812 232.016 27.8672 233.141 28.9453C234.281 30.0234 234.812 31.4609 234.734 33.2578L231.242 33.6562C230.977 32.6406 230.727 31.9922 230.492 31.7109C230.102 31.2578 229.688 31.0156 229.25 30.9844C228.812 30.9375 228.492 31 228.289 31.1719C228.086 31.3438 227.969 31.7266 227.938 32.3203C227.891 32.9297 228.062 33.4062 228.453 33.75C228.781 34.2031 229.586 34.9062 230.867 35.8594C232.164 36.8125 233.227 37.75 234.055 38.6719C234.883 39.5938 235.297 40.9219 235.297 42.6562C235.203 44.375 234.461 45.8125 233.07 46.9688C231.68 48.1094 230.047 48.625 228.172 48.5156C226.312 48.4062 224.758 47.7031 223.508 46.4062C222.258 45.0938 221.688 43.5781 221.797 41.8594V41.5781L225.992 41.9297C226.023 42.7422 226.328 43.4609 226.906 44.0859C227.406 44.6484 228 44.9609 228.688 45.0234C229.375 45.0859 229.938 44.8359 230.375 44.2734C230.812 43.6953 230.984 42.9219 230.891 41.9531C230.406 40.7344 229.25 39.4844 227.422 38.2031ZM238.742 28.9922L245.141 28.0312L248.094 39.375L252.148 26.8594L256.836 28.3125L246.781 57.4453L242.188 55.3125L245.609 46.5234L238.742 28.9922Z"/>
</mask>
<path d="M87.1016 13.3594L94.3203 11.8828L102.219 34.2656L111.43 23.6016L118.859 33.0469L124.273 12.3516L132.875 14.6719L121.25 47.2734L110.047 35.0391L99.7344 47.9062L87.1016 13.3594ZM141.969 48.2812H134.844L135.641 27.375L141.688 26.9062L141.875 28.9922C143.203 28.0859 145.516 27.6875 148.812 27.7969L148.531 33.6328C145.844 33.1172 144.094 33.2734 143.281 34.1016C142.469 34.9297 142.031 35.9531 141.969 37.1719C141.953 37.3594 141.953 41.0625 141.969 48.2812ZM159.078 27.6797V48.9375L152.586 49.6406L151.648 27.6797H159.078ZM154.32 18.375C155.633 18.2188 156.797 18.4219 157.812 18.9844C158.828 19.5469 159.391 20.3047 159.5 21.2578C159.609 22.2109 159.234 23.0781 158.375 23.8594C157.516 24.6406 156.43 25.1094 155.117 25.2656C153.789 25.4219 152.617 25.2188 151.602 24.6562C150.602 24.0938 150.047 23.3359 149.938 22.3828C149.828 21.4297 150.195 20.5625 151.039 19.7812C151.898 19 152.992 18.5312 154.32 18.375ZM162.734 27H166.461L165.969 17.7656L173.586 17.4609L173.516 27H176.961V30.4688L173.469 30.5156L173.328 47.9766L167.609 48.4453L166.648 30.6328L162.734 30.7031V27ZM192.734 35.0391C192.547 34.6797 192.312 34.3281 192.031 33.9844C191.172 33 190.133 32.5078 188.914 32.5078C187.695 32.5078 186.656 33 185.797 33.9844C185.172 34.7188 184.773 35.5625 184.602 36.5156L192.734 35.0391ZM192.945 39.7031L197.305 40.6172C196.898 42.1328 196.102 43.4844 194.914 44.6719C193.102 46.5 190.914 47.4141 188.352 47.4141C185.789 47.4141 183.602 46.5 181.789 44.6719C179.992 42.8438 179.094 40.6328 179.094 38.0391C179.094 35.4453 179.992 33.2344 181.789 31.4062C183.602 29.5781 185.789 28.6641 188.352 28.6641C190.914 28.6641 193.102 29.5781 194.914 31.4062C196.602 33.1094 197.5 35.1484 197.609 37.5234L185.422 40.7109C185.547 40.8828 185.672 41.0391 185.797 41.1797C186.656 42.1797 187.695 42.6797 188.914 42.6797C190.133 42.6797 191.172 42.1797 192.031 41.1797C192.422 40.7266 192.727 40.2344 192.945 39.7031ZM209 36.0938C208.125 36.0938 207.375 36.4375 206.75 37.125C206.125 37.7969 205.812 38.6172 205.812 39.5859C205.812 40.5547 206.125 41.3828 206.75 42.0703C207.375 42.7578 208.125 43.1016 209 43.1016C209.891 43.1016 210.641 42.7578 211.25 42.0703C211.875 41.3828 212.188 40.5547 212.188 39.5859C212.188 38.6172 211.875 37.7969 211.25 37.125C210.641 36.4375 209.891 36.0938 209 36.0938ZM213.148 45.4219C211.758 46.625 210.125 47.2266 208.25 47.2266C206.109 47.2266 204.281 46.4531 202.766 44.9062C201.266 43.3594 200.516 41.4922 200.516 39.3047C200.516 37.1016 201.266 35.2266 202.766 33.6797C204.281 32.1328 206.109 31.3594 208.25 31.3594C209.375 31.3594 210.414 31.5781 211.367 32.0156L211.227 30.8672L218.047 29.8594L217.273 47.5078L213.5 48.0703L213.148 45.4219ZM227.422 38.2031C225.594 36.9062 224.492 36.0781 224.117 35.7188C222.992 34.6406 222.469 33.3906 222.547 31.9688C222.625 30.5469 223.289 29.3672 224.539 28.4297C225.789 27.4922 227.25 27.0781 228.922 27.1875C230.609 27.2812 232.016 27.8672 233.141 28.9453C234.281 30.0234 234.812 31.4609 234.734 33.2578L231.242 33.6562C230.977 32.6406 230.727 31.9922 230.492 31.7109C230.102 31.2578 229.688 31.0156 229.25 30.9844C228.812 30.9375 228.492 31 228.289 31.1719C228.086 31.3438 227.969 31.7266 227.938 32.3203C227.891 32.9297 228.062 33.4062 228.453 33.75C228.781 34.2031 229.586 34.9062 230.867 35.8594C232.164 36.8125 233.227 37.75 234.055 38.6719C234.883 39.5938 235.297 40.9219 235.297 42.6562C235.203 44.375 234.461 45.8125 233.07 46.9688C231.68 48.1094 230.047 48.625 228.172 48.5156C226.312 48.4062 224.758 47.7031 223.508 46.4062C222.258 45.0938 221.688 43.5781 221.797 41.8594V41.5781L225.992 41.9297C226.023 42.7422 226.328 43.4609 226.906 44.0859C227.406 44.6484 228 44.9609 228.688 45.0234C229.375 45.0859 229.938 44.8359 230.375 44.2734C230.812 43.6953 230.984 42.9219 230.891 41.9531C230.406 40.7344 229.25 39.4844 227.422 38.2031ZM238.742 28.9922L245.141 28.0312L248.094 39.375L252.148 26.8594L256.836 28.3125L246.781 57.4453L242.188 55.3125L245.609 46.5234L238.742 28.9922Z" fill="black"/>
<path d="M87.1016 13.3594L87.0014 12.8695L86.4326 12.9859L86.632 13.5311L87.1016 13.3594ZM94.3203 11.8828L94.7918 11.7164L94.6469 11.3057L94.2201 11.393L94.3203 11.8828ZM102.219 34.2656L101.747 34.432L102.034 35.2445L102.597 34.5925L102.219 34.2656ZM111.43 23.6016L111.823 23.2924L111.448 22.8158L111.051 23.2747L111.43 23.6016ZM118.859 33.0469L118.466 33.356L119.088 34.1468L119.343 33.1734L118.859 33.0469ZM124.273 12.3516L124.404 11.8688L123.917 11.7376L123.79 12.225L124.273 12.3516ZM132.875 14.6719L133.346 14.8398L133.528 14.3301L133.005 14.1891L132.875 14.6719ZM121.25 47.2734L120.881 47.6111L121.442 48.2235L121.721 47.4414L121.25 47.2734ZM110.047 35.0391L110.416 34.7014L110.022 34.2711L109.657 34.7264L110.047 35.0391ZM99.7344 47.9062L99.2648 48.078L99.5696 48.9114L100.125 48.2189L99.7344 47.9062ZM87.2018 13.8492L94.4205 12.3727L94.2201 11.393L87.0014 12.8695L87.2018 13.8492ZM93.8488 12.0492L101.747 34.432L102.69 34.0992L94.7918 11.7164L93.8488 12.0492ZM102.597 34.5925L111.808 23.9284L111.051 23.2747L101.84 33.9388L102.597 34.5925ZM111.037 23.9107L118.466 33.356L119.252 32.7377L111.823 23.2924L111.037 23.9107ZM119.343 33.1734L124.757 12.4781L123.79 12.225L118.376 32.9203L119.343 33.1734ZM124.143 12.8343L132.745 15.1546L133.005 14.1891L124.404 11.8688L124.143 12.8343ZM132.404 14.5039L120.779 47.1055L121.721 47.4414L133.346 14.8398L132.404 14.5039ZM121.619 46.9358L110.416 34.7014L109.678 35.3767L120.881 47.6111L121.619 46.9358ZM109.657 34.7264L99.3442 47.5936L100.125 48.2189L110.437 35.3518L109.657 34.7264ZM100.204 47.7345L87.5712 13.1877L86.632 13.5311L99.2648 48.078L100.204 47.7345ZM141.969 48.2812V48.7812H142.47L142.469 48.2802L141.969 48.2812ZM134.844 48.2812L134.344 48.2622L134.324 48.7812H134.844V48.2812ZM135.641 27.375L135.602 26.8765L135.158 26.9109L135.141 27.356L135.641 27.375ZM141.688 26.9062L142.185 26.8615L142.141 26.3696L141.649 26.4077L141.688 26.9062ZM141.875 28.9922L141.377 29.037L141.453 29.8853L142.157 29.4052L141.875 28.9922ZM148.812 27.7969L149.312 27.8209L149.336 27.314L148.829 27.2971L148.812 27.7969ZM148.531 33.6328L148.437 34.1239L149.003 34.2324L149.031 33.6569L148.531 33.6328ZM141.969 37.1719L142.467 37.2134L142.468 37.2054L142.468 37.1975L141.969 37.1719ZM141.969 47.7812H134.844V48.7812H141.969V47.7812ZM135.343 48.3003L136.14 27.394L135.141 27.356L134.344 48.2622L135.343 48.3003ZM135.679 27.8735L141.726 27.4048L141.649 26.4077L135.602 26.8765L135.679 27.8735ZM141.19 26.951L141.377 29.037L142.373 28.9474L142.185 26.8615L141.19 26.951ZM142.157 29.4052C143.343 28.5955 145.513 28.1877 148.796 28.2966L148.829 27.2971C145.518 27.1873 143.063 27.5764 141.593 28.5792L142.157 29.4052ZM148.313 27.7728L148.032 33.6087L149.031 33.6569L149.312 27.8209L148.313 27.7728ZM148.625 33.1418C147.258 32.8795 146.098 32.7814 145.159 32.8653C144.224 32.9487 143.447 33.2183 142.924 33.7514L143.638 34.4517C143.928 34.1567 144.432 33.9341 145.248 33.8613C146.058 33.7889 147.117 33.8705 148.437 34.1239L148.625 33.1418ZM142.924 33.7514C142.022 34.6715 141.538 35.8125 141.469 37.1463L142.468 37.1975C142.525 36.0938 142.916 35.1879 143.638 34.4517L142.924 33.7514ZM141.47 37.1304C141.464 37.2031 141.462 37.5008 141.46 37.9697C141.458 38.457 141.457 39.1639 141.457 40.0898C141.457 41.942 141.461 44.6729 141.469 48.2823L142.469 48.2802C142.461 44.6709 142.457 41.9409 142.457 40.0898C142.457 39.1643 142.458 38.459 142.46 37.9737C142.461 37.7309 142.462 37.544 142.464 37.4125C142.464 37.3466 142.465 37.2957 142.466 37.2591C142.467 37.2162 142.468 37.2069 142.467 37.2134L141.47 37.1304ZM159.078 27.6797H159.578V27.1797H159.078V27.6797ZM159.078 48.9375L159.132 49.4346L159.578 49.3863V48.9375H159.078ZM152.586 49.6406L152.086 49.662L152.109 50.1952L152.64 50.1377L152.586 49.6406ZM151.648 27.6797V27.1797H151.127L151.149 27.701L151.648 27.6797ZM154.32 18.375L154.379 18.8716L154.379 18.8715L154.32 18.375ZM155.117 25.2656L155.176 25.7622L155.176 25.7621L155.117 25.2656ZM151.602 24.6562L151.356 25.092L151.359 25.0936L151.602 24.6562ZM151.039 19.7812L150.703 19.4113L150.699 19.4144L151.039 19.7812ZM158.578 27.6797V48.9375H159.578V27.6797H158.578ZM159.024 48.4404L152.532 49.1435L152.64 50.1377L159.132 49.4346L159.024 48.4404ZM153.085 49.6193L152.148 27.6584L151.149 27.701L152.086 49.662L153.085 49.6193ZM151.648 28.1797H159.078V27.1797H151.648V28.1797ZM154.379 18.8715C155.603 18.7259 156.659 18.917 157.57 19.4218L158.055 18.547C156.935 17.9268 155.663 17.7116 154.261 17.8785L154.379 18.8715ZM157.57 19.4218C158.478 19.9246 158.916 20.5568 159.003 21.3148L159.997 21.2008C159.865 20.0525 159.178 19.1691 158.055 18.547L157.57 19.4218ZM159.003 21.3148C159.09 22.0735 158.807 22.7906 158.039 23.4894L158.711 24.2293C159.661 23.3656 160.128 22.3483 159.997 21.2008L159.003 21.3148ZM158.039 23.4894C157.267 24.1912 156.282 24.6234 155.058 24.7691L155.176 25.7621C156.577 25.5953 157.765 25.09 158.711 24.2293L158.039 23.4894ZM155.059 24.769C153.818 24.915 152.754 24.7232 151.844 24.2189L151.359 25.0936C152.48 25.7143 153.76 25.9288 155.176 25.7622L155.059 24.769ZM151.847 24.2205C150.955 23.7191 150.522 23.0873 150.434 22.3258L149.441 22.4398C149.572 23.5846 150.248 24.4684 151.356 25.092L151.847 24.2205ZM150.434 22.3258C150.347 21.5633 150.626 20.8454 151.379 20.1481L150.699 19.4144C149.765 20.2796 149.31 21.296 149.441 22.4398L150.434 22.3258ZM151.375 20.1512C152.146 19.4504 153.138 19.0176 154.379 18.8716L154.262 17.8784C152.846 18.0449 151.651 18.5496 150.703 19.4113L151.375 20.1512ZM162.734 27V26.5H162.234V27H162.734ZM166.461 27V27.5H166.988L166.96 26.9734L166.461 27ZM165.969 17.7656L165.949 17.266L165.442 17.2863L165.469 17.7922L165.969 17.7656ZM173.586 17.4609L174.086 17.4646L174.09 16.9404L173.566 16.9613L173.586 17.4609ZM173.516 27L173.016 26.9963L173.012 27.5H173.516V27ZM176.961 27H177.461V26.5H176.961V27ZM176.961 30.4688L176.968 30.9687L177.461 30.9621V30.4688H176.961ZM173.469 30.5156L173.462 30.0157L172.973 30.0222L172.969 30.5116L173.469 30.5156ZM173.328 47.9766L173.369 48.4749L173.824 48.4376L173.828 47.9806L173.328 47.9766ZM167.609 48.4453L167.11 48.4722L167.138 48.9856L167.65 48.9436L167.609 48.4453ZM166.648 30.6328L167.148 30.6059L167.122 30.1242L166.639 30.1329L166.648 30.6328ZM162.734 30.7031H162.234V31.2122L162.743 31.203L162.734 30.7031ZM162.734 27.5H166.461V26.5H162.734V27.5ZM166.96 26.9734L166.468 17.739L165.469 17.7922L165.962 27.0266L166.96 26.9734ZM165.989 18.2652L173.606 17.9605L173.566 16.9613L165.949 17.266L165.989 18.2652ZM173.086 17.4573L173.016 26.9963L174.016 27.0037L174.086 17.4646L173.086 17.4573ZM173.516 27.5H176.961V26.5H173.516V27.5ZM176.461 27V30.4688H177.461V27H176.461ZM176.954 29.9688L173.462 30.0157L173.475 31.0156L176.968 30.9687L176.954 29.9688ZM172.969 30.5116L172.828 47.9725L173.828 47.9806L173.969 30.5197L172.969 30.5116ZM173.287 47.4782L167.569 47.947L167.65 48.9436L173.369 48.4749L173.287 47.4782ZM168.109 48.4184L167.148 30.6059L166.149 30.6597L167.11 48.4722L168.109 48.4184ZM166.639 30.1329L162.725 30.2032L162.743 31.203L166.657 31.1327L166.639 30.1329ZM163.234 30.7031V27H162.234V30.7031H163.234ZM192.734 35.0391L192.824 35.531L193.492 35.4097L193.178 34.8078L192.734 35.0391ZM192.031 33.9844L192.418 33.6678L192.413 33.6616L192.408 33.6555L192.031 33.9844ZM185.797 33.9844L185.42 33.6555L185.416 33.6603L185.797 33.9844ZM184.602 36.5156L184.109 36.4269L183.982 37.1364L184.691 37.0076L184.602 36.5156ZM192.945 39.7031L193.048 39.2138L192.641 39.1285L192.483 39.5128L192.945 39.7031ZM197.305 40.6172L197.788 40.7466L197.924 40.2363L197.407 40.1278L197.305 40.6172ZM194.914 44.6719L194.561 44.3183L194.559 44.3198L194.914 44.6719ZM181.789 44.6719L181.432 45.0224L181.434 45.0239L181.789 44.6719ZM181.789 31.4062L181.434 31.0542L181.432 31.0558L181.789 31.4062ZM194.914 31.4062L195.269 31.0543L195.269 31.0542L194.914 31.4062ZM197.609 37.5234L197.736 38.0072L198.127 37.9048L198.109 37.5004L197.609 37.5234ZM185.422 40.7109L185.295 40.2272L184.587 40.4126L185.018 41.005L185.422 40.7109ZM185.797 41.1797L186.176 40.8538L186.171 40.8475L185.797 41.1797ZM192.031 41.1797L191.653 40.8532L191.652 40.8538L192.031 41.1797ZM193.178 34.8078C192.973 34.4154 192.719 34.0355 192.418 33.6678L191.644 34.301C191.906 34.6208 192.121 34.944 192.291 35.2703L193.178 34.8078ZM192.408 33.6555C191.461 32.5713 190.289 32.0078 188.914 32.0078V33.0078C189.977 33.0078 190.882 33.4287 191.655 34.3132L192.408 33.6555ZM188.914 32.0078C187.54 32.0078 186.367 32.5713 185.42 33.6555L186.174 34.3132C186.946 33.4287 187.851 33.0078 188.914 33.0078V32.0078ZM185.416 33.6603C184.734 34.4622 184.297 35.3873 184.109 36.4269L185.094 36.6044C185.25 35.7377 185.61 34.9753 186.178 34.3084L185.416 33.6603ZM184.691 37.0076L192.824 35.531L192.645 34.5471L184.512 36.0237L184.691 37.0076ZM192.843 40.1925L197.202 41.1065L197.407 40.1278L193.048 39.2138L192.843 40.1925ZM196.822 40.4877C196.44 41.9126 195.69 43.1884 194.561 44.3183L195.268 45.0254C196.513 43.7804 197.357 42.353 197.788 40.7466L196.822 40.4877ZM194.559 44.3198C192.84 46.0538 190.78 46.9141 188.352 46.9141V47.9141C191.048 47.9141 193.363 46.9462 195.269 45.0239L194.559 44.3198ZM188.352 46.9141C185.923 46.9141 183.863 46.0538 182.144 44.3198L181.434 45.0239C183.34 46.9462 185.655 47.9141 188.352 47.9141V46.9141ZM182.146 44.3214C180.442 42.588 179.594 40.5034 179.594 38.0391H178.594C178.594 40.7622 179.542 43.0995 181.432 45.0224L182.146 44.3214ZM179.594 38.0391C179.594 35.5747 180.442 33.4901 182.146 31.7567L181.432 31.0558C179.542 32.9786 178.594 35.3159 178.594 38.0391H179.594ZM182.144 31.7583C183.863 30.0244 185.923 29.1641 188.352 29.1641V28.1641C185.655 28.1641 183.34 29.1319 181.434 31.0542L182.144 31.7583ZM188.352 29.1641C190.78 29.1641 192.84 30.0244 194.559 31.7583L195.269 31.0542C193.363 29.1319 191.048 28.1641 188.352 28.1641V29.1641ZM194.559 31.7582C196.16 33.3741 197.006 35.2963 197.11 37.5464L198.109 37.5004C197.994 35.0006 197.043 32.8446 195.269 31.0543L194.559 31.7582ZM197.483 37.0397L185.295 40.2272L185.548 41.1947L197.736 38.0072L197.483 37.0397ZM185.018 41.005C185.151 41.1884 185.286 41.3576 185.423 41.5119L186.171 40.8475C186.058 40.7205 185.943 40.5772 185.826 40.4169L185.018 41.005ZM185.418 41.5056C186.363 42.6059 187.537 43.1797 188.914 43.1797V42.1797C187.854 42.1797 186.949 41.7535 186.176 40.8538L185.418 41.5056ZM188.914 43.1797C190.292 43.1797 191.465 42.6059 192.41 41.5056L191.652 40.8538C190.879 41.7535 189.974 42.1797 188.914 42.1797V43.1797ZM192.41 41.5062C192.834 41.0141 193.168 40.4763 193.408 39.8935L192.483 39.5128C192.285 39.9924 192.01 40.439 191.653 40.8532L192.41 41.5062ZM206.75 37.125L207.116 37.4656L207.12 37.4613L206.75 37.125ZM211.25 42.0703L210.88 41.7339L210.876 41.7387L211.25 42.0703ZM211.25 37.125L210.876 37.4567L210.884 37.4656L211.25 37.125ZM213.148 45.4219L213.644 45.3561L213.522 44.4374L212.821 45.0438L213.148 45.4219ZM202.766 44.9062L202.407 45.2543L202.408 45.2562L202.766 44.9062ZM202.766 33.6797L202.408 33.3298L202.407 33.3316L202.766 33.6797ZM211.367 32.0156L211.159 32.47L211.972 32.8435L211.863 31.9549L211.367 32.0156ZM211.227 30.8672L211.153 30.3726L210.671 30.4439L210.73 30.928L211.227 30.8672ZM218.047 29.8594L218.546 29.8813L218.573 29.2762L217.974 29.3647L218.047 29.8594ZM217.273 47.5078L217.347 48.0023L217.755 47.9416L217.773 47.5297L217.273 47.5078ZM213.5 48.0703L213.004 48.1361L213.071 48.6398L213.574 48.5648L213.5 48.0703ZM209 35.5938C207.975 35.5938 207.093 36.0042 206.38 36.7887L207.12 37.4613C207.657 36.8708 208.275 36.5938 209 36.5938V35.5938ZM206.384 36.7844C205.668 37.5544 205.312 38.4986 205.312 39.5859H206.312C206.312 38.7358 206.582 38.0394 207.116 37.4656L206.384 36.7844ZM205.312 39.5859C205.312 40.6732 205.668 41.6229 206.38 42.4066L207.12 41.734C206.582 41.1427 206.312 40.4361 206.312 39.5859H205.312ZM206.38 42.4066C207.093 43.1911 207.975 43.6016 209 43.6016V42.6016C208.275 42.6016 207.657 42.3245 207.12 41.734L206.38 42.4066ZM209 43.6016C210.039 43.6016 210.923 43.1927 211.624 42.402L210.876 41.7387C210.358 42.3229 209.742 42.6016 209 42.6016V43.6016ZM211.62 42.4066C212.332 41.6229 212.688 40.6732 212.688 39.5859H211.688C211.688 40.4361 211.418 41.1427 210.88 41.734L211.62 42.4066ZM212.688 39.5859C212.688 38.4986 212.332 37.5544 211.616 36.7844L210.884 37.4656C211.418 38.0394 211.688 38.7358 211.688 39.5859H212.688ZM211.624 36.7933C210.923 36.0026 210.039 35.5938 209 35.5938V36.5938C209.742 36.5938 210.358 36.8724 210.876 37.4567L211.624 36.7933ZM212.821 45.0438C211.523 46.1666 210.007 46.7266 208.25 46.7266V47.7266C210.243 47.7266 211.992 47.0834 213.476 45.8L212.821 45.0438ZM208.25 46.7266C206.246 46.7266 204.546 46.0085 203.123 44.5563L202.408 45.2562C204.017 46.8978 205.973 47.7266 208.25 47.7266V46.7266ZM203.125 44.5582C201.717 43.1062 201.016 41.3645 201.016 39.3047H200.016C200.016 41.6199 200.815 43.6126 202.407 45.2543L203.125 44.5582ZM201.016 39.3047C201.016 37.2283 201.717 35.479 203.125 34.0278L202.407 33.3316C200.814 34.9741 200.016 36.9749 200.016 39.3047H201.016ZM203.123 34.0296C204.546 32.5775 206.246 31.8594 208.25 31.8594V30.8594C205.973 30.8594 204.017 31.6882 202.408 33.3298L203.123 34.0296ZM208.25 31.8594C209.308 31.8594 210.276 32.0647 211.159 32.47L211.576 31.5612C210.553 31.0915 209.442 30.8594 208.25 30.8594V31.8594ZM211.863 31.9549L211.723 30.8064L210.73 30.928L210.871 32.0764L211.863 31.9549ZM211.3 31.3618L218.12 30.354L217.974 29.3647L211.153 30.3726L211.3 31.3618ZM217.547 29.8375L216.774 47.4859L217.773 47.5297L218.546 29.8813L217.547 29.8375ZM217.2 47.0133L213.426 47.5758L213.574 48.5648L217.347 48.0023L217.2 47.0133ZM213.996 48.0045L213.644 45.3561L212.653 45.4877L213.004 48.1361L213.996 48.0045ZM227.422 38.2031L227.133 38.6109L227.135 38.6126L227.422 38.2031ZM228.922 27.1875L228.889 27.6865L228.894 27.6867L228.922 27.1875ZM233.141 28.9453L232.795 29.3063L232.797 29.3087L233.141 28.9453ZM234.734 33.2578L234.791 33.7546L235.215 33.7062L235.234 33.2795L234.734 33.2578ZM231.242 33.6562L230.758 33.7828L230.868 34.2022L231.299 34.153L231.242 33.6562ZM230.492 31.7109L230.876 31.3908L230.871 31.3845L230.492 31.7109ZM229.25 30.9844L229.197 31.4815L229.206 31.4825L229.214 31.4831L229.25 30.9844ZM227.938 32.3203L228.436 32.3587L228.437 32.3466L227.938 32.3203ZM228.453 33.75L228.858 33.4567L228.825 33.4115L228.783 33.3746L228.453 33.75ZM230.867 35.8594L230.569 36.2606L230.571 36.2623L230.867 35.8594ZM235.297 42.6562L235.796 42.6835L235.797 42.6699V42.6562H235.297ZM233.07 46.9688L233.387 47.3553L233.39 47.3532L233.07 46.9688ZM228.172 48.5156L228.143 49.0148L228.143 49.0148L228.172 48.5156ZM223.508 46.4062L223.146 46.7511L223.148 46.7532L223.508 46.4062ZM221.797 41.8594L222.296 41.8911L222.297 41.8753V41.8594H221.797ZM221.797 41.5781L221.839 41.0799L221.297 41.0345V41.5781H221.797ZM225.992 41.9297L226.492 41.9105L226.475 41.4684L226.034 41.4314L225.992 41.9297ZM226.906 44.0859L227.28 43.7537L227.273 43.7464L226.906 44.0859ZM230.375 44.2734L230.77 44.5804L230.774 44.5752L230.375 44.2734ZM230.891 41.9531L231.388 41.905L231.381 41.8344L231.355 41.7685L230.891 41.9531ZM227.711 37.7953C225.87 36.4893 224.805 35.6855 224.463 35.3578L223.771 36.0797C224.179 36.4707 225.317 37.3232 227.133 38.6109L227.711 37.7953ZM224.463 35.3578C223.432 34.3698 222.977 33.2576 223.046 31.9962L222.048 31.9413C221.961 33.5236 222.552 34.9114 223.771 36.0797L224.463 35.3578ZM223.046 31.9962C223.115 30.7373 223.694 29.6883 224.839 28.8297L224.239 28.0297C222.884 29.0461 222.135 30.3564 222.048 31.9413L223.046 31.9962ZM224.839 28.8297C225.986 27.9692 227.327 27.5842 228.889 27.6864L228.955 26.6886C227.173 26.572 225.592 27.0151 224.239 28.0297L224.839 28.8297ZM228.894 27.6867C230.473 27.7745 231.763 28.318 232.795 29.3063L233.487 28.5843C232.268 27.4164 230.745 26.788 228.95 26.6883L228.894 27.6867ZM232.797 29.3087C233.816 30.2721 234.308 31.5606 234.235 33.2361L235.234 33.2795C235.317 31.3612 234.746 29.7748 233.484 28.5819L232.797 29.3087ZM234.678 32.761L231.186 33.1595L231.299 34.153L234.791 33.7546L234.678 32.761ZM231.726 33.5297C231.59 33.012 231.456 32.5764 231.322 32.2283C231.192 31.8903 231.047 31.5958 230.876 31.3908L230.108 32.031C230.172 32.1073 230.269 32.2776 230.389 32.5881C230.505 32.8884 230.628 33.2849 230.758 33.7828L231.726 33.5297ZM230.871 31.3845C230.426 30.8682 229.898 30.5294 229.286 30.4856L229.214 31.4831C229.477 31.5018 229.777 31.6474 230.113 32.0374L230.871 31.3845ZM229.303 30.4872C228.815 30.4349 228.324 30.4869 227.966 30.7902L228.612 31.5536C228.66 31.5131 228.81 31.4401 229.197 31.4815L229.303 30.4872ZM227.966 30.7902C227.763 30.9619 227.644 31.2016 227.571 31.4415C227.496 31.6858 227.455 31.9741 227.438 32.294L228.437 32.3466C228.451 32.0728 228.485 31.8727 228.527 31.7342C228.548 31.6661 228.569 31.62 228.586 31.5904C228.603 31.5611 228.613 31.5526 228.612 31.5536L227.966 30.7902ZM227.439 32.282C227.382 33.0171 227.593 33.6589 228.123 34.1254L228.783 33.3746C228.532 33.1536 228.399 32.8423 228.436 32.3587L227.439 32.282ZM228.048 34.0433C228.428 34.5681 229.296 35.3138 230.569 36.2605L231.166 35.4582C229.876 34.4987 229.134 33.8381 228.858 33.4567L228.048 34.0433ZM230.571 36.2623C231.848 37.2008 232.883 38.1158 233.683 39.006L234.427 38.3377C233.57 37.3842 232.48 36.4242 231.163 35.4565L230.571 36.2623ZM233.683 39.006C234.401 39.8051 234.797 40.996 234.797 42.6562H235.797C235.797 40.8478 235.365 39.3824 234.427 38.3377L233.683 39.006ZM234.798 42.629C234.712 44.2012 234.04 45.5119 232.751 46.5843L233.39 47.3532C234.881 46.1131 235.694 44.5488 235.796 42.6835L234.798 42.629ZM232.753 46.5822C231.464 47.6393 229.957 48.1189 228.201 48.0165L228.143 49.0148C230.137 49.1311 231.895 48.5795 233.387 47.3553L232.753 46.5822ZM228.201 48.0165C226.463 47.9142 225.027 47.2623 223.868 46.0593L223.148 46.7532C224.488 48.1439 226.162 48.8983 228.143 49.0148L228.201 48.0165ZM223.87 46.0614C222.71 44.8439 222.196 43.4627 222.296 41.8911L221.298 41.8276C221.179 43.6935 221.805 45.3436 223.146 46.7511L223.87 46.0614ZM222.297 41.8594V41.5781H221.297V41.8594H222.297ZM221.755 42.0764L225.95 42.4279L226.034 41.4314L221.839 41.0799L221.755 42.0764ZM225.493 41.9489C225.529 42.8865 225.884 43.7174 226.539 44.4255L227.273 43.7464C226.772 43.2045 226.518 42.5978 226.492 41.9105L225.493 41.9489ZM226.533 44.4181C227.109 45.0663 227.816 45.4463 228.642 45.5214L228.733 44.5255C228.184 44.4756 227.704 44.2306 227.28 43.7538L226.533 44.4181ZM228.642 45.5214C229.506 45.5999 230.232 45.2721 230.77 44.5804L229.98 43.9665C229.643 44.3998 229.244 44.572 228.733 44.5255L228.642 45.5214ZM230.774 44.5752C231.31 43.8668 231.49 42.9551 231.388 41.905L230.393 42.0013C230.479 42.8887 230.315 43.5238 229.976 43.9717L230.774 44.5752ZM231.355 41.7685C230.818 40.4154 229.567 39.096 227.709 37.7937L227.135 38.6126C228.933 39.8728 229.995 41.0533 230.426 42.1378L231.355 41.7685ZM238.742 28.9922L238.668 28.4977L238.048 28.5908L238.277 29.1746L238.742 28.9922ZM245.141 28.0312L245.624 27.9053L245.511 27.47L245.066 27.5368L245.141 28.0312ZM248.094 39.375L247.61 39.501L248.041 41.1588L248.569 39.5291L248.094 39.375ZM252.148 26.8594L252.296 26.3818L251.825 26.2356L251.673 26.7053L252.148 26.8594ZM256.836 28.3125L257.309 28.4756L257.477 27.9877L256.984 27.8349L256.836 28.3125ZM246.781 57.4453L246.571 57.8988L247.073 58.1321L247.254 57.6084L246.781 57.4453ZM242.188 55.3125L241.722 55.1311L241.551 55.5684L241.977 55.766L242.188 55.3125ZM245.609 46.5234L246.075 46.7048L246.146 46.5229L246.075 46.3411L245.609 46.5234ZM238.816 29.4866L245.215 28.5257L245.066 27.5368L238.668 28.4977L238.816 29.4866ZM244.657 28.1572L247.61 39.501L248.578 39.249L245.624 27.9053L244.657 28.1572ZM248.569 39.5291L252.624 27.0135L251.673 26.7053L247.618 39.2209L248.569 39.5291ZM252 27.337L256.688 28.7901L256.984 27.8349L252.296 26.3818L252 27.337ZM256.363 28.1494L246.309 57.2822L247.254 57.6084L257.309 28.4756L256.363 28.1494ZM246.992 56.9918L242.398 54.859L241.977 55.766L246.571 57.8988L246.992 56.9918ZM242.653 55.4939L246.075 46.7048L245.143 46.342L241.722 55.1311L242.653 55.4939ZM246.075 46.3411L239.208 28.8098L238.277 29.1746L245.144 46.7058L246.075 46.3411Z" fill="black" mask="url(#path-1-outside-1_1806_1980)"/>
<mask id="mask0_1806_1980" style="mask-type:luminance" maskUnits="userSpaceOnUse" x="27" y="37" width="26" height="43">
<path d="M27.3657 37.4385H52.5696V80.0001H27.3657V37.4385Z" fill="white"/>
</mask>
<g mask="url(#mask0_1806_1980)">
<path d="M49.9612 65.1879L48.1562 63.9851C47.7364 63.7035 47.191 63.7035 46.7711 63.9851L43.7162 66.0193L40.6622 63.9851C40.2424 63.7035 39.697 63.7035 39.2772 63.9851L36.2222 66.0193L33.1683 63.9851C32.7494 63.7035 32.203 63.7035 31.7832 63.9851L29.9772 65.1879V37.5664H27.4792V67.5191C27.4792 67.8547 27.6173 68.1692 27.848 68.3987L27.8451 68.4016L39.086 79.6342C39.3293 79.8773 39.6497 79.9998 39.9692 79.9998C40.2887 79.9998 40.6092 79.8773 40.8524 79.6342L52.0934 68.4016L52.0905 68.3987C52.3212 68.1692 52.4592 67.8547 52.4592 67.5191V43.8067H49.9612V65.1879ZM32.4752 66.5228L35.5292 68.5579C35.9491 68.8385 36.4944 68.8385 36.9143 68.5579L39.9692 66.5228L43.0232 68.5579C43.4431 68.8385 43.9884 68.8385 44.4083 68.5579L47.4632 66.5228L49.2489 67.713L44.4478 72.5114H35.4906L30.6896 67.7139L32.4752 66.5228ZM39.9692 76.9867L37.9886 75.0075H41.9499L39.9692 76.9867Z" fill="black"/>
</g>
<path d="M23.8476 26.6914C23.6999 26.24 23.309 25.9101 22.838 25.8416L19.2184 25.315L17.5988 22.0367C17.1789 21.1831 15.7793 21.1831 15.3594 22.0367L13.7388 25.316L10.1202 25.8426C9.64919 25.9111 9.25924 26.24 9.11059 26.6923C8.96484 27.1437 9.0855 27.6404 9.42622 27.9713L12.0468 30.5233L11.4291 34.1277C11.3489 34.5955 11.541 35.0681 11.9242 35.3478C12.3113 35.6304 12.8209 35.6651 13.2408 35.4433L16.4791 33.7419L19.7184 35.4433C19.9008 35.5388 20.1016 35.586 20.3004 35.586C20.5591 35.586 20.8158 35.5069 21.0349 35.3478C21.4191 35.0681 21.6112 34.5955 21.5301 34.1277L20.9124 30.5233L23.5329 27.9713C23.8708 27.6385 23.9933 27.1418 23.8476 26.6914ZM18.6981 29.1923C18.4037 29.4788 18.2696 29.8926 18.3391 30.2967L18.6402 32.0559L17.0602 31.2255C16.8777 31.13 16.6779 31.0818 16.4781 31.0818C16.2783 31.0818 16.0795 31.13 15.8961 31.2255L14.316 32.0559L14.6172 30.2967C14.6876 29.8926 14.5525 29.4798 14.2591 29.1923L12.9811 27.9481L14.7475 27.6916C15.1548 27.6327 15.5052 27.3771 15.6876 27.0087L16.4781 25.4095L17.2686 27.0087C17.4511 27.3771 17.8024 27.6327 18.2097 27.6916L19.9751 27.9481L18.6981 29.1923Z" fill="black"/>
<path d="M22.563 10.898L21.7898 15.4051C21.7097 15.8729 21.9018 16.3455 22.286 16.6271C22.673 16.9059 23.1817 16.9425 23.6025 16.7207L27.6516 14.592L31.7007 16.7207C31.8832 16.8162 32.0839 16.8634 32.2828 16.8634C32.5414 16.8634 32.7982 16.7844 33.0173 16.6271C33.4015 16.3455 33.5935 15.8729 33.5125 15.4051L32.7393 10.898L36.0172 7.70547C36.357 7.37369 36.4795 6.87793 36.3328 6.42751C36.1852 5.97612 35.7942 5.64626 35.3242 5.57778L30.7973 4.91999L28.7713 0.819877C28.3524 -0.0337091 26.9518 -0.0337091 26.532 0.819877L24.5079 4.91999L19.9791 5.57778C19.5081 5.64626 19.1181 5.97419 18.9695 6.42751C18.8237 6.87793 18.9444 7.37465 19.2861 7.70547L22.563 10.898ZM25.5166 7.2946C25.9239 7.23673 26.2752 6.98017 26.4576 6.61269L27.6526 4.19275L28.8495 6.61269C29.0319 6.98017 29.3823 7.23673 29.7896 7.2946L32.4623 7.68426L30.528 9.5689C30.2346 9.85439 30.0994 10.2691 30.1689 10.6733L30.6255 13.3353L28.2346 12.0785C28.0522 11.9831 27.8524 11.9348 27.6526 11.9348C27.4528 11.9348 27.254 11.9831 27.0706 12.0785L24.6797 13.3353L25.1363 10.6733C25.2058 10.2691 25.0706 9.85632 24.7772 9.5689L22.8429 7.68426L25.5166 7.2946Z" fill="black"/>
<path d="M57.0958 18.9232L62.2472 13.9068C62.587 13.5741 62.7086 13.0793 62.5628 12.6289C62.4152 12.1765 62.0242 11.8476 61.5532 11.7782L54.4366 10.7452L51.2533 4.30132C50.8335 3.44774 49.4339 3.44774 49.014 4.30132L45.8307 10.7452L38.7132 11.7801C38.2431 11.8486 37.8532 12.1765 37.7045 12.6298C37.5578 13.0802 37.6794 13.577 38.0201 13.9078L43.1715 18.9251L41.9544 26.0085C41.8743 26.4772 42.0673 26.9498 42.4505 27.2295C42.8376 27.5102 43.3472 27.5468 43.7671 27.324L50.1327 23.9791L56.4993 27.324C56.6817 27.4205 56.8825 27.4678 57.0813 27.4678C57.34 27.4678 57.5968 27.3877 57.8159 27.2295C58.2 26.9498 58.3921 26.4772 58.311 26.0085L57.0958 18.9232ZM54.8816 17.5941C54.5882 17.8806 54.453 18.2944 54.5235 18.6994L55.4221 23.9367L50.7147 21.4647C50.5323 21.3682 50.3325 21.321 50.1327 21.321C49.9329 21.321 49.7341 21.3682 49.5507 21.4647L44.8433 23.9367L45.7429 18.6994C45.8124 18.2944 45.6782 17.8815 45.3848 17.5941L41.576 13.8856L46.8384 13.1198C47.2457 13.0619 47.5961 12.8054 47.7785 12.4379L50.1327 7.67419L52.4869 12.4379C52.6693 12.8054 53.0207 13.0619 53.428 13.1198L58.6894 13.8856L54.8816 17.5941Z" fill="black"/>
<path d="M71.3545 32.8535L68.1886 32.3934L66.7707 29.5259C66.3508 28.6723 64.9513 28.6723 64.5314 29.5259L63.1154 32.3934L59.9476 32.8535C59.4765 32.922 59.0875 33.2499 58.9389 33.7013C58.7922 34.1536 58.9138 34.6503 59.2545 34.9812L61.5479 37.214L61.0054 40.366C60.9253 40.8347 61.1184 41.3074 61.5016 41.5871C61.7197 41.7452 61.9774 41.8253 62.2361 41.8253C62.434 41.8253 62.6338 41.778 62.8181 41.6816L65.6501 40.1943L68.483 41.6816C68.9038 41.9034 69.4135 41.8668 69.7996 41.588C70.1847 41.3074 70.3768 40.8347 70.2957 40.366L69.7542 37.214L72.0466 34.9812C72.3864 34.6494 72.5089 34.1536 72.3622 33.7013C72.2155 33.2499 71.8256 32.92 71.3545 32.8535ZM67.541 35.8849C67.2475 36.1704 67.1134 36.5851 67.1829 36.9893L67.4068 38.2962L66.234 37.6789C66.0516 37.5834 65.8518 37.5361 65.652 37.5361C65.4522 37.5361 65.2534 37.5834 65.07 37.6789L63.8972 38.2962L64.1221 36.9893C64.1916 36.5851 64.0565 36.1714 63.7631 35.8849L62.8123 34.958L64.125 34.769C64.5324 34.7101 64.8837 34.4545 65.0661 34.0861L65.653 32.8978L66.2408 34.0861C66.4232 34.4555 66.7746 34.7101 67.1819 34.769L68.4946 34.958L67.541 35.8849Z" fill="black"/>
<path d="M36.2204 46.3021H38.7184C38.7184 37.3563 31.9957 30.0781 23.7305 30.0781V32.5743C30.6173 32.5743 36.2204 38.7326 36.2204 46.3021Z" fill="black"/>
<path d="M43.7141 52.5423H46.2121C46.2121 43.748 50.2158 36.3184 54.9551 36.3184V33.8223C48.6512 33.8223 43.7141 42.0456 43.7141 52.5423Z" fill="black"/>
<path d="M33.7283 31.3258H36.2263C36.2263 28.5722 37.9077 26.3335 39.9733 26.3335V23.8374C36.5293 23.8374 33.7283 27.1958 33.7283 31.3258Z" fill="black"/>
<path d="M24.9795 20.0938C27.0451 20.0938 28.7265 22.3324 28.7265 25.0861H31.2245C31.2245 20.9561 28.4234 17.5977 24.9795 17.5977V20.0938Z" fill="black"/>
<path d="M51.2063 30.0782V27.582C45.0077 27.582 39.9653 33.181 39.9653 40.0627H42.4633C42.4633 34.5573 46.386 30.0782 51.2063 30.0782Z" fill="black"/>
<path d="M43.7141 55.0381H46.2121V57.5342H43.7141V55.0381Z" fill="black"/>
<path d="M39.9653 42.5586H42.4633V45.0538H39.9653V42.5586Z" fill="black"/>
<path d="M36.2202 48.7979H38.7182V51.294H36.2202V48.7979Z" fill="black"/>
<path d="M36.2202 53.79H38.7182V56.2862H36.2202V53.79Z" fill="black"/>
<path d="M36.2202 58.7822H38.7182V61.2784H36.2202V58.7822Z" fill="black"/>
<path d="M14.9858 37.5664H17.4838V40.0625H14.9858V37.5664Z" fill="black"/>
<path d="M0 20.0933H2.49799V22.5894H0V20.0933Z" fill="black"/>
<path d="M9.99365 15.1016H12.4907V17.5977H9.99365V15.1016Z" fill="black"/>
<path d="M61.1997 21.3413H63.6977V23.8374H61.1997V21.3413Z" fill="black"/>
<path d="M74.9385 12.6055H77.4365V15.1016H74.9385V12.6055Z" fill="black"/>
<path d="M4.9978 6.36426H7.4958V8.86039H4.9978V6.36426Z" fill="black"/>
<path d="M13.7368 5.11719H16.2348V7.61332H13.7368V5.11719Z" fill="black"/>
<path d="M59.9507 3.86865H62.4487V6.36479H59.9507V3.86865Z" fill="black"/>
<path d="M67.4426 13.853H69.9397V16.3492H67.4426V13.853Z" fill="black"/>
<path d="M4.99599 30.0781H2.49799V32.5743H0V35.0704H2.49799V37.5665H4.99599V35.0704H7.49398V32.5743H4.99599V30.0781Z" fill="black"/>
<path d="M76.1896 20.0933H73.6916V22.5894H71.1936V25.0855H73.6916V27.5817H76.1896V25.0855H78.6876V22.5894H76.1896V20.0933Z" fill="black"/>
<mask id="mask1_1806_1980" style="mask-type:luminance" maskUnits="userSpaceOnUse" x="72" y="0" width="8" height="8">
<path d="M72.3391 0H79.9991V7.80863H72.3391V0Z" fill="white"/>
</mask>
<g mask="url(#mask1_1806_1980)">
<path d="M76.1879 0.125C74.1223 0.125 72.4409 1.80517 72.4409 3.86921C72.4409 5.93325 74.1223 7.61341 76.1879 7.61341C78.2544 7.61341 79.9349 5.93325 79.9349 3.86921C79.9349 1.80517 78.2544 0.125 76.1879 0.125ZM76.1879 5.11727C75.4987 5.11727 74.9389 4.55786 74.9389 3.86921C74.9389 3.18055 75.4987 2.62114 76.1879 2.62114C76.878 2.62114 77.4369 3.18055 77.4369 3.86921C77.4369 4.55786 76.878 5.11727 76.1879 5.11727Z" fill="black"/>
</g>
<path d="M95.75 73.084C95.5633 73.084 95.4 73.0187 95.26 72.888C95.12 72.7573 95.05 72.594 95.05 72.398V64.404C95.05 64.1427 95.0827 63.956 95.148 63.844C95.2133 63.7227 95.3347 63.6433 95.512 63.606C95.6987 63.5593 95.9973 63.536 96.408 63.536C98.144 63.536 99.4413 63.7927 100.3 64.306C101.168 64.8193 101.602 65.5613 101.602 66.532C101.602 67.316 101.327 67.96 100.776 68.464C100.225 68.968 99.558 69.3367 98.774 69.57C97.99 69.8033 97.2107 69.934 96.436 69.962V72.398C96.436 72.594 96.3707 72.7573 96.24 72.888C96.1093 73.0187 95.946 73.084 95.75 73.084ZM96.436 68.59C97.3507 68.534 98.2093 68.352 99.012 68.044C99.8147 67.7267 100.216 67.2227 100.216 66.532C100.216 66.0187 99.9033 65.622 99.278 65.342C98.662 65.062 97.78 64.922 96.632 64.922H96.436V68.59ZM107.198 73.224C107.012 73.224 106.858 73.1727 106.736 73.07C106.624 72.9673 106.568 72.832 106.568 72.664V72.468C106.186 72.8787 105.654 73.084 104.972 73.084C104.459 73.084 103.997 72.958 103.586 72.706C103.176 72.454 102.854 72.0993 102.62 71.642C102.387 71.1753 102.27 70.648 102.27 70.06C102.27 69.4067 102.41 68.7767 102.69 68.17C102.97 67.554 103.362 67.0547 103.866 66.672C104.38 66.2893 104.968 66.098 105.63 66.098C106.06 66.098 106.447 66.1587 106.792 66.28C107.138 66.392 107.497 66.532 107.87 66.7V72.524C107.87 72.7107 107.805 72.874 107.674 73.014C107.544 73.154 107.385 73.224 107.198 73.224ZM105.07 71.782C105.341 71.782 105.602 71.726 105.854 71.614C106.116 71.502 106.33 71.3667 106.498 71.208L106.54 67.554C106.27 67.442 105.976 67.386 105.658 67.386C105.257 67.386 104.902 67.512 104.594 67.764C104.286 68.0067 104.048 68.3333 103.88 68.744C103.712 69.1453 103.628 69.5747 103.628 70.032C103.628 70.6013 103.754 71.0353 104.006 71.334C104.258 71.6327 104.613 71.782 105.07 71.782ZM110.584 65.51C110.406 65.51 110.248 65.44 110.108 65.3C109.977 65.16 109.916 65.0013 109.926 64.824L109.94 64.306C109.949 64.1287 110.019 63.9747 110.15 63.844C110.28 63.7133 110.434 63.648 110.612 63.648C110.789 63.648 110.943 63.718 111.074 63.858C111.214 63.998 111.279 64.152 111.27 64.32L111.256 64.852C111.246 65.0387 111.176 65.1973 111.046 65.328C110.924 65.4493 110.77 65.51 110.584 65.51ZM110.514 73.084C110.327 73.084 110.164 73.0187 110.024 72.888C109.893 72.748 109.828 72.5847 109.828 72.398L109.898 66.826C109.898 66.6393 109.963 66.4807 110.094 66.35C110.234 66.21 110.397 66.14 110.584 66.14C110.78 66.14 110.943 66.21 111.074 66.35C111.204 66.4807 111.27 66.6393 111.27 66.826L111.2 72.398C111.2 72.5847 111.13 72.748 110.99 72.888C110.859 73.0187 110.7 73.084 110.514 73.084ZM113.904 73.084C113.727 73.084 113.568 73.0187 113.428 72.888C113.297 72.7573 113.232 72.608 113.232 72.44V66.756C113.232 66.5693 113.302 66.4107 113.442 66.28C113.582 66.1493 113.745 66.084 113.932 66.084C114.109 66.084 114.259 66.1493 114.38 66.28C114.511 66.4107 114.576 66.5693 114.576 66.756V67.82C114.837 67.26 115.169 66.8353 115.57 66.546C115.971 66.2473 116.41 66.098 116.886 66.098C117.409 66.098 117.824 66.2193 118.132 66.462C118.44 66.7047 118.664 67.106 118.804 67.666C118.944 68.2167 119.014 68.982 119.014 69.962L119 72.412C119 72.5893 118.939 72.748 118.818 72.888C118.697 73.0187 118.543 73.084 118.356 73.084C118.179 73.084 118.02 73.0187 117.88 72.888C117.749 72.748 117.684 72.594 117.684 72.426V70.102C117.684 69.374 117.651 68.814 117.586 68.422C117.521 68.03 117.423 67.764 117.292 67.624C117.161 67.4747 116.984 67.4 116.76 67.4C116.48 67.4 116.2 67.5213 115.92 67.764C115.64 67.9973 115.379 68.3333 115.136 68.772C114.921 69.1547 114.772 69.528 114.688 69.892C114.604 70.256 114.562 70.6947 114.562 71.208V72.384C114.562 72.5893 114.501 72.7573 114.38 72.888C114.268 73.0187 114.109 73.084 113.904 73.084ZM122.052 73.098C121.874 73.098 121.716 73.0327 121.576 72.902C121.445 72.7713 121.38 72.6173 121.38 72.44V67.442H120.274C120.087 67.442 119.928 67.3767 119.798 67.246C119.667 67.106 119.602 66.9473 119.602 66.77C119.602 66.5647 119.672 66.4013 119.812 66.28C119.952 66.1493 120.115 66.084 120.302 66.084H121.38V64.586C121.38 64.4087 121.445 64.25 121.576 64.11C121.706 63.97 121.865 63.9 122.052 63.9C122.248 63.9 122.406 63.97 122.528 64.11C122.658 64.2407 122.724 64.3993 122.724 64.586V66.084H123.914C124.1 66.084 124.259 66.1493 124.39 66.28C124.52 66.4107 124.586 66.574 124.586 66.77C124.586 66.9473 124.52 67.106 124.39 67.246C124.259 67.3767 124.1 67.442 123.914 67.442H122.724V72.44C122.724 72.6173 122.658 72.7713 122.528 72.902C122.397 73.0327 122.238 73.098 122.052 73.098ZM132.07 73.084C131.883 73.084 131.72 73.014 131.58 72.874C131.449 72.734 131.384 72.5753 131.384 72.398C131.384 72.3233 131.388 72.2627 131.398 72.216C131.416 72.16 131.449 72.09 131.495 72.006L132.714 69.962L129.606 64.642C129.531 64.502 129.494 64.3667 129.494 64.236C129.494 64.0493 129.559 63.8907 129.69 63.76C129.83 63.62 129.998 63.55 130.194 63.55C130.306 63.55 130.413 63.5827 130.516 63.648C130.628 63.704 130.716 63.788 130.782 63.9L133.526 68.59L136.312 63.886C136.377 63.774 136.461 63.69 136.564 63.634C136.676 63.578 136.792 63.55 136.914 63.55C137.091 63.55 137.25 63.62 137.39 63.76C137.53 63.8907 137.6 64.0493 137.6 64.236C137.6 64.32 137.59 64.39 137.572 64.446C137.553 64.502 137.516 64.5813 137.46 64.684L132.672 72.734C132.606 72.846 132.518 72.9347 132.406 73C132.303 73.056 132.191 73.084 132.07 73.084ZM140.168 73.084C139.636 73.084 139.146 72.9393 138.698 72.65C138.259 72.3607 137.914 71.9687 137.662 71.474C137.41 70.97 137.284 70.424 137.284 69.836C137.284 69.1733 137.433 68.5573 137.732 67.988C138.031 67.4093 138.432 66.952 138.936 66.616C139.44 66.2707 139.981 66.098 140.56 66.098C141.092 66.098 141.577 66.2473 142.016 66.546C142.464 66.8447 142.814 67.2413 143.066 67.736C143.327 68.2307 143.458 68.7627 143.458 69.332C143.458 70.004 143.309 70.6293 143.01 71.208C142.711 71.7773 142.305 72.2347 141.792 72.58C141.288 72.916 140.747 73.084 140.168 73.084ZM140.168 71.824C140.495 71.824 140.807 71.712 141.106 71.488C141.405 71.264 141.643 70.9653 141.82 70.592C141.997 70.2187 142.086 69.822 142.086 69.402C142.086 69.0473 142.016 68.716 141.876 68.408C141.736 68.0907 141.545 67.8387 141.302 67.652C141.059 67.456 140.793 67.358 140.504 67.358C140.177 67.358 139.869 67.4747 139.58 67.708C139.3 67.932 139.076 68.2353 138.908 68.618C138.74 68.9913 138.656 69.3927 138.656 69.822C138.656 70.242 138.726 70.6013 138.866 70.9C139.015 71.1987 139.202 71.4273 139.426 71.586C139.659 71.7447 139.907 71.824 140.168 71.824ZM146.882 73.126C146.378 73.126 145.977 73.0187 145.678 72.804C145.38 72.58 145.156 72.1787 145.006 71.6C144.857 71.0213 144.782 70.1907 144.782 69.108C144.782 68.744 144.796 68.3427 144.824 67.904C144.852 67.4653 144.89 67.0967 144.936 66.798C144.974 66.5647 145.044 66.3873 145.146 66.266C145.249 66.1447 145.398 66.084 145.594 66.084C145.781 66.084 145.94 66.14 146.07 66.252C146.201 66.364 146.266 66.5273 146.266 66.742L146.238 67.134C146.145 67.9273 146.098 68.688 146.098 69.416C146.098 70.368 146.178 71.0167 146.336 71.362C146.504 71.698 146.733 71.866 147.022 71.866C147.358 71.866 147.704 71.7773 148.058 71.6C148.413 71.4133 148.665 71.236 148.814 71.068C148.87 71.012 148.898 70.8953 148.898 70.718L148.926 66.728C148.926 66.5413 148.992 66.3873 149.122 66.266C149.262 66.1447 149.416 66.084 149.584 66.084C149.762 66.084 149.916 66.1447 150.046 66.266C150.186 66.3873 150.256 66.5413 150.256 66.728V72.412C150.256 72.5893 150.186 72.748 150.046 72.888C149.916 73.0187 149.762 73.084 149.584 73.084C149.398 73.084 149.23 73.028 149.08 72.916C148.94 72.7947 148.87 72.6453 148.87 72.468V72.314C148.516 72.566 148.184 72.7667 147.876 72.916C147.578 73.056 147.246 73.126 146.882 73.126ZM152.896 73.084C152.719 73.084 152.56 73.0187 152.42 72.888C152.28 72.7573 152.21 72.608 152.21 72.44V66.77C152.21 66.5833 152.276 66.4247 152.406 66.294C152.546 66.1633 152.71 66.098 152.896 66.098C153.083 66.098 153.242 66.1633 153.372 66.294C153.512 66.4247 153.582 66.5833 153.582 66.77V67.19C154.04 66.4433 154.665 66.07 155.458 66.07C155.934 66.07 156.275 66.2007 156.48 66.462C156.695 66.7233 156.802 67.036 156.802 67.4V67.82C156.802 68.0067 156.737 68.1653 156.606 68.296C156.485 68.4173 156.331 68.478 156.144 68.478C155.92 68.478 155.752 68.4127 155.64 68.282C155.538 68.1513 155.486 67.9927 155.486 67.806V67.624C155.486 67.4747 155.384 67.4 155.178 67.4C155.01 67.4 154.814 67.484 154.59 67.652C154.376 67.82 154.198 67.9973 154.058 68.184C153.862 68.4267 153.732 68.6693 153.666 68.912C153.61 69.1547 153.582 69.444 153.582 69.78L153.568 72.44C153.568 72.608 153.498 72.7573 153.358 72.888C153.218 73.0187 153.064 73.084 152.896 73.084ZM165.129 73.168C164.803 73.168 164.471 73.1353 164.135 73.07C163.799 73.014 163.571 72.9673 163.449 72.93C163.3 72.8833 163.174 72.7947 163.071 72.664C162.969 72.5333 162.917 72.3933 162.917 72.244V64.306C162.917 64.11 162.983 63.9467 163.113 63.816C163.253 63.6853 163.421 63.62 163.617 63.62C164.56 63.62 165.512 63.76 166.473 64.04C167.435 64.32 168.265 64.8427 168.965 65.608C169.675 66.3733 170.029 67.4327 170.029 68.786C170.029 69.766 169.815 70.5873 169.385 71.25C168.956 71.9033 168.373 72.3887 167.635 72.706C166.898 73.014 166.063 73.168 165.129 73.168ZM165.129 71.768C166.221 71.768 167.075 71.516 167.691 71.012C168.317 70.508 168.629 69.766 168.629 68.786C168.629 67.5727 168.233 66.672 167.439 66.084C166.655 65.496 165.615 65.1507 164.317 65.048V71.684C164.635 71.74 164.905 71.768 165.129 71.768ZM172.256 73.084C172.079 73.084 171.92 73.0187 171.78 72.888C171.64 72.7573 171.57 72.608 171.57 72.44V66.77C171.57 66.5833 171.635 66.4247 171.766 66.294C171.906 66.1633 172.069 66.098 172.256 66.098C172.443 66.098 172.601 66.1633 172.732 66.294C172.872 66.4247 172.942 66.5833 172.942 66.77V67.19C173.399 66.4433 174.025 66.07 174.818 66.07C175.294 66.07 175.635 66.2007 175.84 66.462C176.055 66.7233 176.162 67.036 176.162 67.4V67.82C176.162 68.0067 176.097 68.1653 175.966 68.296C175.845 68.4173 175.691 68.478 175.504 68.478C175.28 68.478 175.112 68.4127 175 68.282C174.897 68.1513 174.846 67.9927 174.846 67.806V67.624C174.846 67.4747 174.743 67.4 174.538 67.4C174.37 67.4 174.174 67.484 173.95 67.652C173.735 67.82 173.558 67.9973 173.418 68.184C173.222 68.4267 173.091 68.6693 173.026 68.912C172.97 69.1547 172.942 69.444 172.942 69.78L172.928 72.44C172.928 72.608 172.858 72.7573 172.718 72.888C172.578 73.0187 172.424 73.084 172.256 73.084ZM179.817 73.084C179.154 73.084 178.557 72.944 178.025 72.664C177.502 72.3747 177.091 71.9687 176.793 71.446C176.494 70.914 176.345 70.2887 176.345 69.57C176.345 68.982 176.475 68.422 176.736 67.89C177.007 67.3487 177.381 66.9147 177.857 66.588C178.342 66.2613 178.893 66.098 179.508 66.098C180.078 66.098 180.563 66.2147 180.965 66.448C181.375 66.672 181.683 66.9427 181.889 67.26C182.094 67.5773 182.197 67.862 182.197 68.114C182.197 68.2353 182.159 68.352 182.085 68.464C182.01 68.576 181.903 68.674 181.763 68.758L178.011 70.914C178.141 71.2033 178.37 71.4273 178.697 71.586C179.033 71.7447 179.406 71.824 179.817 71.824C180.358 71.824 180.82 71.6233 181.203 71.222C181.352 71.0727 181.506 70.998 181.665 70.998C181.851 70.998 182.005 71.0587 182.127 71.18C182.257 71.3013 182.323 71.4507 182.323 71.628C182.323 71.7773 182.267 71.9173 182.155 72.048C181.893 72.3373 181.543 72.5847 181.105 72.79C180.675 72.986 180.246 73.084 179.817 73.084ZM180.811 67.946C180.699 67.75 180.54 67.6053 180.335 67.512C180.129 67.4093 179.887 67.358 179.607 67.358C179.075 67.358 178.627 67.54 178.263 67.904C177.908 68.268 177.703 68.716 177.647 69.248C177.628 69.388 177.619 69.556 177.619 69.752L180.811 67.946ZM188.149 73.224C187.963 73.224 187.809 73.1727 187.687 73.07C187.575 72.9673 187.519 72.832 187.519 72.664V72.468C187.137 72.8787 186.605 73.084 185.923 73.084C185.41 73.084 184.948 72.958 184.537 72.706C184.127 72.454 183.805 72.0993 183.571 71.642C183.338 71.1753 183.221 70.648 183.221 70.06C183.221 69.4067 183.361 68.7767 183.641 68.17C183.921 67.554 184.313 67.0547 184.817 66.672C185.331 66.2893 185.919 66.098 186.581 66.098C187.011 66.098 187.398 66.1587 187.743 66.28C188.089 66.392 188.448 66.532 188.821 66.7V72.524C188.821 72.7107 188.756 72.874 188.625 73.014C188.495 73.154 188.336 73.224 188.149 73.224ZM186.021 71.782C186.292 71.782 186.553 71.726 186.805 71.614C187.067 71.502 187.281 71.3667 187.449 71.208L187.491 67.554C187.221 67.442 186.927 67.386 186.609 67.386C186.208 67.386 185.853 67.512 185.545 67.764C185.237 68.0067 184.999 68.3333 184.831 68.744C184.663 69.1453 184.579 69.5747 184.579 70.032C184.579 70.6013 184.705 71.0353 184.957 71.334C185.209 71.6327 185.564 71.782 186.021 71.782ZM191.451 73.084C191.273 73.084 191.115 73.0187 190.975 72.888C190.844 72.7573 190.779 72.6033 190.779 72.426V66.77C190.779 66.5927 190.844 66.4387 190.975 66.308C191.115 66.168 191.273 66.098 191.451 66.098C191.637 66.098 191.796 66.168 191.927 66.308C192.057 66.4387 192.123 66.5927 192.123 66.77V67.75C192.701 66.6487 193.471 66.098 194.433 66.098C194.815 66.098 195.147 66.21 195.427 66.434C195.716 66.658 195.921 66.994 196.043 67.442C196.64 66.546 197.368 66.098 198.227 66.098C198.805 66.098 199.263 66.322 199.599 66.77C199.935 67.2087 200.103 67.8713 200.103 68.758V72.426C200.103 72.6033 200.033 72.7573 199.893 72.888C199.762 73.0187 199.608 73.084 199.431 73.084C199.244 73.084 199.085 73.0187 198.955 72.888C198.824 72.7573 198.759 72.6033 198.759 72.426V68.674C198.759 68.2447 198.698 67.9227 198.577 67.708C198.455 67.4933 198.264 67.386 198.003 67.386C197.732 67.386 197.461 67.4933 197.191 67.708C196.92 67.9227 196.696 68.2167 196.519 68.59C196.351 68.9633 196.267 69.374 196.267 69.822V72.426C196.267 72.6127 196.201 72.7713 196.071 72.902C195.94 73.0233 195.781 73.084 195.595 73.084C195.417 73.084 195.259 73.0187 195.119 72.888C194.988 72.7573 194.923 72.6033 194.923 72.426V68.674C194.923 68.226 194.867 67.8993 194.755 67.694C194.652 67.4887 194.479 67.386 194.237 67.386C193.938 67.386 193.644 67.5073 193.355 67.75C193.065 67.9833 192.813 68.268 192.599 68.604C192.431 68.884 192.305 69.164 192.221 69.444C192.146 69.724 192.109 70.032 192.109 70.368L192.123 72.426C192.123 72.6033 192.057 72.7573 191.927 72.888C191.796 73.0187 191.637 73.084 191.451 73.084ZM203.937 73.084C203.396 73.084 202.925 72.9673 202.523 72.734C202.131 72.4913 201.828 72.216 201.613 71.908C201.408 71.5907 201.305 71.334 201.305 71.138C201.305 70.9513 201.371 70.7973 201.501 70.676C201.632 70.5453 201.786 70.48 201.963 70.48C202.122 70.48 202.253 70.522 202.355 70.606C202.467 70.69 202.547 70.802 202.593 70.942C202.696 71.2313 202.864 71.46 203.097 71.628C203.331 71.796 203.62 71.88 203.965 71.88C204.329 71.88 204.614 71.7913 204.819 71.614C205.025 71.4367 205.127 71.236 205.127 71.012C205.127 70.7973 205.039 70.6293 204.861 70.508C204.693 70.3773 204.348 70.2327 203.825 70.074C203.06 69.8407 202.509 69.5653 202.173 69.248C201.837 68.9213 201.669 68.4967 201.669 67.974C201.669 67.4233 201.889 66.9753 202.327 66.63C202.766 66.2753 203.377 66.098 204.161 66.098C204.889 66.098 205.454 66.2567 205.855 66.574C206.266 66.8913 206.471 67.316 206.471 67.848C206.471 68.1373 206.411 68.3613 206.289 68.52C206.168 68.6693 205.995 68.744 205.771 68.744C205.575 68.744 205.417 68.6833 205.295 68.562C205.174 68.4407 205.113 68.31 205.113 68.17C205.113 68.1233 205.123 68.0673 205.141 68.002C205.169 67.9273 205.183 67.8713 205.183 67.834C205.183 67.666 205.099 67.5307 204.931 67.428C204.773 67.3253 204.525 67.274 204.189 67.274C203.769 67.274 203.457 67.3347 203.251 67.456C203.055 67.5773 202.957 67.7407 202.957 67.946C202.957 68.1607 203.06 68.338 203.265 68.478C203.471 68.6087 203.839 68.758 204.371 68.926C205.146 69.1687 205.683 69.4347 205.981 69.724C206.289 70.0133 206.443 70.4193 206.443 70.942C206.443 71.2967 206.336 71.642 206.121 71.978C205.916 72.3047 205.622 72.5707 205.239 72.776C204.866 72.9813 204.432 73.084 203.937 73.084ZM213.937 73.084C213.75 73.084 213.601 73.0373 213.489 72.944C213.377 72.8413 213.302 72.706 213.265 72.538L212.103 67.008C212.075 66.868 212.061 66.756 212.061 66.672C212.061 66.5227 212.126 66.3873 212.257 66.266C212.388 66.1447 212.542 66.084 212.719 66.084C212.896 66.084 213.041 66.1353 213.153 66.238C213.265 66.3407 213.34 66.476 213.377 66.644L214.091 70.186L215.351 66.574C215.398 66.4247 215.482 66.308 215.603 66.224C215.734 66.1307 215.874 66.084 216.023 66.084C216.387 66.084 216.611 66.2473 216.695 66.574L217.563 70.256L218.669 66.616C218.716 66.476 218.8 66.3547 218.921 66.252C219.052 66.1493 219.187 66.098 219.327 66.098C219.504 66.098 219.658 66.1587 219.789 66.28C219.929 66.4013 219.999 66.5507 219.999 66.728C219.999 66.8213 219.985 66.91 219.957 66.994L218.165 72.58C218.053 72.916 217.838 73.084 217.521 73.084C217.176 73.084 216.956 72.9113 216.863 72.566L215.925 68.898L214.581 72.594C214.525 72.7527 214.436 72.874 214.315 72.958C214.203 73.042 214.077 73.084 213.937 73.084ZM222.297 65.51C222.119 65.51 221.961 65.44 221.821 65.3C221.69 65.16 221.629 65.0013 221.639 64.824L221.653 64.306C221.662 64.1287 221.732 63.9747 221.863 63.844C221.993 63.7133 222.147 63.648 222.325 63.648C222.502 63.648 222.656 63.718 222.787 63.858C222.927 63.998 222.992 64.152 222.983 64.32L222.969 64.852C222.959 65.0387 222.889 65.1973 222.759 65.328C222.637 65.4493 222.483 65.51 222.297 65.51ZM222.227 73.084C222.04 73.084 221.877 73.0187 221.737 72.888C221.606 72.748 221.541 72.5847 221.541 72.398L221.611 66.826C221.611 66.6393 221.676 66.4807 221.807 66.35C221.947 66.21 222.11 66.14 222.297 66.14C222.493 66.14 222.656 66.21 222.787 66.35C222.917 66.4807 222.983 66.6393 222.983 66.826L222.913 72.398C222.913 72.5847 222.843 72.748 222.703 72.888C222.572 73.0187 222.413 73.084 222.227 73.084ZM226.163 73.098C225.986 73.098 225.827 73.0327 225.687 72.902C225.556 72.7713 225.491 72.6173 225.491 72.44V67.442H224.385C224.198 67.442 224.04 67.3767 223.909 67.246C223.778 67.106 223.713 66.9473 223.713 66.77C223.713 66.5647 223.783 66.4013 223.923 66.28C224.063 66.1493 224.226 66.084 224.413 66.084H225.491V64.586C225.491 64.4087 225.556 64.25 225.687 64.11C225.818 63.97 225.976 63.9 226.163 63.9C226.359 63.9 226.518 63.97 226.639 64.11C226.77 64.2407 226.835 64.3993 226.835 64.586V66.084H228.025C228.212 66.084 228.37 66.1493 228.501 66.28C228.632 66.4107 228.697 66.574 228.697 66.77C228.697 66.9473 228.632 67.106 228.501 67.246C228.37 67.3767 228.212 67.442 228.025 67.442H226.835V72.44C226.835 72.6173 226.77 72.7713 226.639 72.902C226.508 73.0327 226.35 73.098 226.163 73.098ZM230.211 73.098C230.033 73.098 229.875 73.0327 229.735 72.902C229.604 72.762 229.539 72.6033 229.539 72.426V64.362C229.539 64.1753 229.604 64.0167 229.735 63.886C229.875 63.746 230.043 63.676 230.239 63.676C230.425 63.676 230.579 63.746 230.701 63.886C230.822 64.0167 230.883 64.1753 230.883 64.362V67.372C231.191 66.98 231.541 66.6673 231.933 66.434C232.325 66.1913 232.717 66.07 233.109 66.07C233.846 66.07 234.364 66.4433 234.663 67.19C234.961 67.9273 235.111 69.0987 235.111 70.704C235.111 71.6093 235.097 72.1927 235.069 72.454C235.059 72.6313 234.989 72.7807 234.859 72.902C234.737 73.0233 234.588 73.084 234.411 73.084C234.215 73.084 234.056 73.0233 233.935 72.902C233.813 72.7713 233.753 72.6127 233.753 72.426C233.753 72.2393 233.757 72.0853 233.767 71.964L233.781 70.802C233.781 69.4487 233.706 68.5433 233.557 68.086C233.417 67.6287 233.239 67.4 233.025 67.4C232.754 67.4 232.479 67.526 232.199 67.778C231.919 68.0207 231.676 68.296 231.471 68.604C231.275 68.9027 231.135 69.1407 231.051 69.318C230.939 69.57 230.883 69.9013 230.883 70.312V72.398C230.883 72.6127 230.817 72.7853 230.687 72.916C230.556 73.0373 230.397 73.098 230.211 73.098ZM244.207 73.084C243.881 73.084 243.666 72.9253 243.563 72.608L241.127 64.614C241.081 64.446 241.057 64.2967 241.057 64.166C241.057 63.9887 241.123 63.844 241.253 63.732C241.384 63.6107 241.543 63.55 241.729 63.55C242.075 63.55 242.299 63.7133 242.401 64.04L244.235 70.074L246.195 64.026C246.298 63.7087 246.522 63.55 246.867 63.55C247.203 63.55 247.418 63.7133 247.511 64.04L249.177 70.088L251.417 63.886C251.539 63.5593 251.763 63.396 252.089 63.396C252.276 63.396 252.435 63.4567 252.565 63.578C252.696 63.69 252.761 63.8347 252.761 64.012C252.761 64.1707 252.738 64.32 252.691 64.46L249.737 72.636C249.691 72.776 249.611 72.888 249.499 72.972C249.387 73.0467 249.257 73.084 249.107 73.084C248.743 73.084 248.519 72.916 248.435 72.58L246.797 66.672L244.879 72.608C244.823 72.7853 244.739 72.9113 244.627 72.986C244.525 73.0513 244.385 73.084 244.207 73.084ZM255.654 73.084C255.122 73.084 254.632 72.9393 254.184 72.65C253.746 72.3607 253.4 71.9687 253.148 71.474C252.896 70.97 252.77 70.424 252.77 69.836C252.77 69.1733 252.92 68.5573 253.218 67.988C253.517 67.4093 253.918 66.952 254.422 66.616C254.926 66.2707 255.468 66.098 256.046 66.098C256.578 66.098 257.064 66.2473 257.502 66.546C257.95 66.8447 258.3 67.2413 258.552 67.736C258.814 68.2307 258.944 68.7627 258.944 69.332C258.944 70.004 258.795 70.6293 258.496 71.208C258.198 71.7773 257.792 72.2347 257.278 72.58C256.774 72.916 256.233 73.084 255.654 73.084ZM255.654 71.824C255.981 71.824 256.294 71.712 256.592 71.488C256.891 71.264 257.129 70.9653 257.306 70.592C257.484 70.2187 257.572 69.822 257.572 69.402C257.572 69.0473 257.502 68.716 257.362 68.408C257.222 68.0907 257.031 67.8387 256.788 67.652C256.546 67.456 256.28 67.358 255.99 67.358C255.664 67.358 255.356 67.4747 255.066 67.708C254.786 67.932 254.562 68.2353 254.394 68.618C254.226 68.9913 254.142 69.3927 254.142 69.822C254.142 70.242 254.212 70.6013 254.352 70.9C254.502 71.1987 254.688 71.4273 254.912 71.586C255.146 71.7447 255.393 71.824 255.654 71.824ZM261.137 73.084C260.959 73.084 260.801 73.0187 260.661 72.888C260.521 72.7573 260.451 72.608 260.451 72.44V66.77C260.451 66.5833 260.516 66.4247 260.647 66.294C260.787 66.1633 260.95 66.098 261.137 66.098C261.323 66.098 261.482 66.1633 261.613 66.294C261.753 66.4247 261.823 66.5833 261.823 66.77V67.19C262.28 66.4433 262.905 66.07 263.699 66.07C264.175 66.07 264.515 66.2007 264.721 66.462C264.935 66.7233 265.043 67.036 265.043 67.4V67.82C265.043 68.0067 264.977 68.1653 264.847 68.296C264.725 68.4173 264.571 68.478 264.385 68.478C264.161 68.478 263.993 68.4127 263.881 68.282C263.778 68.1513 263.727 67.9927 263.727 67.806V67.624C263.727 67.4747 263.624 67.4 263.419 67.4C263.251 67.4 263.055 67.484 262.831 67.652C262.616 67.82 262.439 67.9973 262.299 68.184C262.103 68.4267 261.972 68.6693 261.907 68.912C261.851 69.1547 261.823 69.444 261.823 69.78L261.809 72.44C261.809 72.608 261.739 72.7573 261.599 72.888C261.459 73.0187 261.305 73.084 261.137 73.084ZM267.731 73.07C267.255 73.07 266.826 72.9487 266.443 72.706C266.07 72.454 265.771 72.09 265.547 71.614C265.333 71.138 265.225 70.5687 265.225 69.906C265.225 69.1033 265.351 68.4173 265.603 67.848C265.855 67.2787 266.205 66.8493 266.653 66.56C267.101 66.2613 267.619 66.112 268.207 66.112C268.674 66.112 269.173 66.2193 269.705 66.434L269.775 64.264C269.785 64.0773 269.855 63.9187 269.985 63.788C270.125 63.648 270.289 63.578 270.475 63.578C270.653 63.578 270.807 63.648 270.937 63.788C271.077 63.9187 271.143 64.0867 271.133 64.292L270.937 72.44C270.928 72.6267 270.858 72.7807 270.727 72.902C270.597 73.0233 270.438 73.084 270.251 73.084C270.074 73.084 269.92 73.0327 269.789 72.93C269.668 72.8273 269.607 72.692 269.607 72.524V72.272C269.365 72.496 269.08 72.6873 268.753 72.846C268.427 72.9953 268.086 73.07 267.731 73.07ZM267.843 71.81C268.161 71.81 268.455 71.7447 268.725 71.614C269.005 71.474 269.225 71.306 269.383 71.11C269.542 70.914 269.626 70.732 269.635 70.564L269.691 67.806C269.523 67.694 269.309 67.596 269.047 67.512C268.786 67.4187 268.534 67.372 268.291 67.372C267.722 67.372 267.293 67.5867 267.003 68.016C266.714 68.436 266.569 69.052 266.569 69.864C266.569 70.536 266.681 71.0307 266.905 71.348C267.139 71.656 267.451 71.81 267.843 71.81ZM275.004 73.084C274.462 73.084 273.991 72.9673 273.59 72.734C273.198 72.4913 272.894 72.216 272.68 71.908C272.474 71.5907 272.372 71.334 272.372 71.138C272.372 70.9513 272.437 70.7973 272.568 70.676C272.698 70.5453 272.852 70.48 273.03 70.48C273.188 70.48 273.319 70.522 273.422 70.606C273.534 70.69 273.613 70.802 273.66 70.942C273.762 71.2313 273.93 71.46 274.164 71.628C274.397 71.796 274.686 71.88 275.032 71.88C275.396 71.88 275.68 71.7913 275.886 71.614C276.091 71.4367 276.194 71.236 276.194 71.012C276.194 70.7973 276.105 70.6293 275.928 70.508C275.76 70.3773 275.414 70.2327 274.892 70.074C274.126 69.8407 273.576 69.5653 273.24 69.248C272.904 68.9213 272.736 68.4967 272.736 67.974C272.736 67.4233 272.955 66.9753 273.394 66.63C273.832 66.2753 274.444 66.098 275.228 66.098C275.956 66.098 276.52 66.2567 276.922 66.574C277.332 66.8913 277.538 67.316 277.538 67.848C277.538 68.1373 277.477 68.3613 277.356 68.52C277.234 68.6693 277.062 68.744 276.838 68.744C276.642 68.744 276.483 68.6833 276.362 68.562C276.24 68.4407 276.18 68.31 276.18 68.17C276.18 68.1233 276.189 68.0673 276.208 68.002C276.236 67.9273 276.25 67.8713 276.25 67.834C276.25 67.666 276.166 67.5307 275.998 67.428C275.839 67.3253 275.592 67.274 275.256 67.274C274.836 67.274 274.523 67.3347 274.318 67.456C274.122 67.5773 274.024 67.7407 274.024 67.946C274.024 68.1607 274.126 68.338 274.332 68.478C274.537 68.6087 274.906 68.758 275.438 68.926C276.212 69.1687 276.749 69.4347 277.048 69.724C277.356 70.0133 277.51 70.4193 277.51 70.942C277.51 71.2967 277.402 71.642 277.188 71.978C276.982 72.3047 276.688 72.5707 276.306 72.776C275.932 72.9813 275.498 73.084 275.004 73.084Z" fill="black"/>
</svg>
