<svg width="267" height="102" viewBox="0 0 267 102" fill="none" xmlns="http://www.w3.org/2000/svg">
<path d="M50.344 17.576L45.136 56.202L30.318 56.946L24.862 43.306L19.902 57.566L6.448 56.574L0.31 17.824L15.686 16.15L17.856 36.052L24.738 23.342L32.116 37.602L34.162 16.956L50.344 17.576ZM81.5828 36.672C81.5828 38.656 81.4588 40.64 81.3968 42.624L68.8728 43.058C68.9968 42.004 69.2448 40.888 69.2448 39.772C69.2448 37.912 67.9428 36.486 66.0208 36.486C65.3388 36.486 64.7188 36.672 64.0988 36.982L64.4088 57.69L51.2648 57.814L50.3968 27.744L63.9748 26.876L64.0368 30.162C66.5788 28.736 69.4308 27.744 72.3448 27.744C78.1108 27.744 81.5828 30.72 81.5828 36.672ZM100.815 22.598C100.815 27.558 95.6694 30.286 91.2674 30.286C86.3694 30.286 82.5254 27.744 82.5254 22.536C82.5254 17.39 86.4934 14.166 91.4534 14.166C96.9094 14.166 100.815 16.77 100.815 22.598ZM98.9554 33.014L98.8314 57.504L86.3694 58.372L83.2074 31.154L98.9554 33.014ZM129.323 27.31L129.013 38.222L122.503 38.408L122.689 59.674L108.553 59.86L108.119 38.842L101.919 39.028L101.733 28.116L107.871 27.93L107.561 12.864L122.379 12.554L122.441 27.496L129.323 27.31ZM163.195 48.7C160.157 55.272 154.639 59.922 147.137 59.922C138.581 59.922 129.653 53.412 129.653 44.298C129.653 34.75 137.031 26.318 146.827 26.318C156.437 26.318 162.017 32.89 163.195 40.888L143.417 46.53C144.409 48.018 146.083 48.7 147.757 48.7C149.679 48.7 151.477 47.77 152.345 46.096L163.195 48.7ZM150.919 39.152C150.113 37.044 148.377 36.982 146.889 36.982C144.037 36.982 142.239 39.338 142.239 41.88L150.919 39.152ZM199.187 58.186L186.477 58.062L186.415 56.76C184.369 57.814 181.889 58.186 179.533 58.186C171.101 58.186 164.467 52.234 164.467 43.058C164.467 35.556 169.117 28.116 178.479 28.116C180.897 28.116 183.067 28.612 185.113 29.232L184.989 26.69H199.187V58.186ZM185.547 47.274V38.656C185.547 38.656 185.051 38.594 184.741 38.594C182.013 38.594 177.797 39.586 177.797 43.554C177.797 46.778 180.525 47.522 183.191 47.522C184.121 47.522 185.051 47.46 185.547 47.274ZM230.371 29.418L227.829 40.516C225.287 39.648 220.389 38.036 216.855 38.036C216.049 38.036 214.685 38.284 214.685 39.338C214.685 42.066 229.751 40.206 229.751 50.126C229.751 59.922 219.521 59.798 214.747 59.798C208.237 59.798 202.781 57.752 200.425 57.008L201.851 45.848C204.641 47.026 208.981 48.638 212.143 48.638C213.073 48.638 214.871 48.638 214.871 47.274C214.871 44.174 201.479 47.398 201.479 36.982C201.479 29.48 208.299 26.132 215.925 26.132C220.203 26.132 226.527 27.372 230.371 29.418ZM265.79 29.294L250.724 74.058L235.658 71.826L241.3 56.45L230.388 31.526L244.71 27.868L248.368 42.066L251.778 28.426L265.79 29.294Z" fill="black"/>
<path d="M20.56 79.96L16.9 94H12.76L10.52 84.76L8.2 94H4.06L0.5 79.96H4.16L6.18 90.18L8.68 79.96H12.44L14.84 90.18L16.88 79.96H20.56ZM32.7952 88.24C32.7952 88.56 32.7752 88.8933 32.7352 89.24H24.9952C25.0485 89.9333 25.2685 90.4667 25.6552 90.84C26.0552 91.2 26.5418 91.38 27.1152 91.38C27.9685 91.38 28.5618 91.02 28.8952 90.3H32.5352C32.3485 91.0333 32.0085 91.6933 31.5152 92.28C31.0352 92.8667 30.4285 93.3267 29.6952 93.66C28.9618 93.9933 28.1418 94.16 27.2352 94.16C26.1418 94.16 25.1685 93.9267 24.3152 93.46C23.4618 92.9933 22.7952 92.3267 22.3152 91.46C21.8352 90.5933 21.5952 89.58 21.5952 88.42C21.5952 87.26 21.8285 86.2467 22.2952 85.38C22.7752 84.5133 23.4418 83.8467 24.2952 83.38C25.1485 82.9133 26.1285 82.68 27.2352 82.68C28.3152 82.68 29.2752 82.9067 30.1152 83.36C30.9552 83.8133 31.6085 84.46 32.0752 85.3C32.5552 86.14 32.7952 87.12 32.7952 88.24ZM29.2952 87.34C29.2952 86.7533 29.0952 86.2867 28.6952 85.94C28.2952 85.5933 27.7952 85.42 27.1952 85.42C26.6218 85.42 26.1352 85.5867 25.7352 85.92C25.3485 86.2533 25.1085 86.7267 25.0152 87.34H29.2952ZM45.6977 82.72C46.9777 82.72 48.0043 83.1467 48.7777 84C49.551 84.84 49.9377 86 49.9377 87.48V94H46.5377V87.94C46.5377 87.1933 46.3443 86.6133 45.9577 86.2C45.571 85.7867 45.051 85.58 44.3977 85.58C43.7443 85.58 43.2243 85.7867 42.8377 86.2C42.451 86.6133 42.2577 87.1933 42.2577 87.94V94H38.8377V79.2H42.2577V84.34C42.6043 83.8467 43.0777 83.4533 43.6777 83.16C44.2777 82.8667 44.951 82.72 45.6977 82.72ZM62.8342 88.24C62.8342 88.56 62.8142 88.8933 62.7742 89.24H55.0342C55.0876 89.9333 55.3076 90.4667 55.6942 90.84C56.0942 91.2 56.5809 91.38 57.1542 91.38C58.0076 91.38 58.6009 91.02 58.9342 90.3H62.5742C62.3876 91.0333 62.0476 91.6933 61.5542 92.28C61.0742 92.8667 60.4676 93.3267 59.7342 93.66C59.0009 93.9933 58.1809 94.16 57.2742 94.16C56.1809 94.16 55.2076 93.9267 54.3542 93.46C53.5009 92.9933 52.8342 92.3267 52.3542 91.46C51.8742 90.5933 51.6342 89.58 51.6342 88.42C51.6342 87.26 51.8676 86.2467 52.3342 85.38C52.8142 84.5133 53.4809 83.8467 54.3342 83.38C55.1876 82.9133 56.1676 82.68 57.2742 82.68C58.3542 82.68 59.3142 82.9067 60.1542 83.36C60.9942 83.8133 61.6476 84.46 62.1142 85.3C62.5942 86.14 62.8342 87.12 62.8342 88.24ZM59.3342 87.34C59.3342 86.7533 59.1342 86.2867 58.7342 85.94C58.3342 85.5933 57.8342 85.42 57.2342 85.42C56.6609 85.42 56.1742 85.5867 55.7742 85.92C55.3876 86.2533 55.1476 86.7267 55.0542 87.34H59.3342ZM68.0584 79.2V94H64.6384V79.2H68.0584ZM73.9569 84.42C74.2902 83.9 74.7502 83.48 75.3369 83.16C75.9235 82.84 76.6102 82.68 77.3969 82.68C78.3169 82.68 79.1502 82.9133 79.8969 83.38C80.6435 83.8467 81.2302 84.5133 81.6569 85.38C82.0969 86.2467 82.3169 87.2533 82.3169 88.4C82.3169 89.5467 82.0969 90.56 81.6569 91.44C81.2302 92.3067 80.6435 92.98 79.8969 93.46C79.1502 93.9267 78.3169 94.16 77.3969 94.16C76.6235 94.16 75.9369 94 75.3369 93.68C74.7502 93.36 74.2902 92.9467 73.9569 92.44V99.32H70.5369V82.84H73.9569V84.42ZM78.8369 88.4C78.8369 87.5467 78.5969 86.88 78.1169 86.4C77.6502 85.9067 77.0702 85.66 76.3769 85.66C75.6969 85.66 75.1169 85.9067 74.6369 86.4C74.1702 86.8933 73.9369 87.5667 73.9369 88.42C73.9369 89.2733 74.1702 89.9467 74.6369 90.44C75.1169 90.9333 75.6969 91.18 76.3769 91.18C77.0569 91.18 77.6369 90.9333 78.1169 90.44C78.5969 89.9333 78.8369 89.2533 78.8369 88.4ZM95.1694 94L91.7694 89.32V94H88.3494V79.2H91.7694V87.38L95.1494 82.84H99.3694L94.7294 88.44L99.4094 94H95.1694ZM102.433 81.68C101.833 81.68 101.339 81.5067 100.953 81.16C100.579 80.8 100.393 80.36 100.393 79.84C100.393 79.3067 100.579 78.8667 100.953 78.52C101.339 78.16 101.833 77.98 102.433 77.98C103.019 77.98 103.499 78.16 103.873 78.52C104.259 78.8667 104.453 79.3067 104.453 79.84C104.453 80.36 104.259 80.8 103.873 81.16C103.499 81.5067 103.019 81.68 102.433 81.68ZM104.133 82.84V94H100.713V82.84H104.133ZM105.931 88.4C105.931 87.2533 106.144 86.2467 106.571 85.38C107.011 84.5133 107.604 83.8467 108.351 83.38C109.098 82.9133 109.931 82.68 110.851 82.68C111.584 82.68 112.251 82.8333 112.851 83.14C113.464 83.4467 113.944 83.86 114.291 84.38V79.2H117.711V94H114.291V92.4C113.971 92.9333 113.511 93.36 112.911 93.68C112.324 94 111.638 94.16 110.851 94.16C109.931 94.16 109.098 93.9267 108.351 93.46C107.604 92.98 107.011 92.3067 106.571 91.44C106.144 90.56 105.931 89.5467 105.931 88.4ZM114.291 88.42C114.291 87.5667 114.051 86.8933 113.571 86.4C113.104 85.9067 112.531 85.66 111.851 85.66C111.171 85.66 110.591 85.9067 110.111 86.4C109.644 86.88 109.411 87.5467 109.411 88.4C109.411 89.2533 109.644 89.9333 110.111 90.44C110.591 90.9333 111.171 91.18 111.851 91.18C112.531 91.18 113.104 90.9333 113.571 90.44C114.051 89.9467 114.291 89.2733 114.291 88.42ZM124.725 94.16C123.752 94.16 122.885 93.9933 122.125 93.66C121.365 93.3267 120.765 92.8733 120.325 92.3C119.885 91.7133 119.639 91.06 119.585 90.34H122.965C123.005 90.7267 123.185 91.04 123.505 91.28C123.825 91.52 124.219 91.64 124.685 91.64C125.112 91.64 125.439 91.56 125.665 91.4C125.905 91.2267 126.025 91.0067 126.025 90.74C126.025 90.42 125.859 90.1867 125.525 90.04C125.192 89.88 124.652 89.7067 123.905 89.52C123.105 89.3333 122.439 89.14 121.905 88.94C121.372 88.7267 120.912 88.4 120.525 87.96C120.139 87.5067 119.945 86.9 119.945 86.14C119.945 85.5 120.119 84.92 120.465 84.4C120.825 83.8667 121.345 83.4467 122.025 83.14C122.719 82.8333 123.539 82.68 124.485 82.68C125.885 82.68 126.985 83.0267 127.785 83.72C128.599 84.4133 129.065 85.3333 129.185 86.48H126.025C125.972 86.0933 125.799 85.7867 125.505 85.56C125.225 85.3333 124.852 85.22 124.385 85.22C123.985 85.22 123.679 85.3 123.465 85.46C123.252 85.6067 123.145 85.8133 123.145 86.08C123.145 86.4 123.312 86.64 123.645 86.8C123.992 86.96 124.525 87.12 125.245 87.28C126.072 87.4933 126.745 87.7067 127.265 87.92C127.785 88.12 128.239 88.4533 128.625 88.92C129.025 89.3733 129.232 89.9867 129.245 90.76C129.245 91.4133 129.059 92 128.685 92.52C128.325 93.0267 127.799 93.4267 127.105 93.72C126.425 94.0133 125.632 94.16 124.725 94.16ZM151.596 82.84L148.576 94H144.796L143.036 86.76L141.216 94H137.456L134.416 82.84H137.836L139.416 90.82L141.296 82.84H144.916L146.816 90.78L148.376 82.84H151.596ZM156.32 84.7C156.72 84.0867 157.22 83.6067 157.82 83.26C158.42 82.9 159.087 82.72 159.82 82.72V86.34H158.88C158.027 86.34 157.387 86.5267 156.96 86.9C156.533 87.26 156.32 87.9 156.32 88.82V94H152.9V82.84H156.32V84.7ZM163.175 81.68C162.575 81.68 162.082 81.5067 161.695 81.16C161.322 80.8 161.135 80.36 161.135 79.84C161.135 79.3067 161.322 78.8667 161.695 78.52C162.082 78.16 162.575 77.98 163.175 77.98C163.762 77.98 164.242 78.16 164.615 78.52C165.002 78.8667 165.195 79.3067 165.195 79.84C165.195 80.36 165.002 80.8 164.615 81.16C164.242 81.5067 163.762 81.68 163.175 81.68ZM164.875 82.84V94H161.455V82.84H164.875ZM173.573 91.1V94H171.833C170.593 94 169.627 93.7 168.933 93.1C168.24 92.4867 167.893 91.4933 167.893 90.12V85.68H166.533V82.84H167.893V80.12H171.313V82.84H173.553V85.68H171.313V90.16C171.313 90.4933 171.393 90.7333 171.553 90.88C171.713 91.0267 171.98 91.1 172.353 91.1H173.573ZM185.998 88.24C185.998 88.56 185.978 88.8933 185.938 89.24H178.198C178.252 89.9333 178.472 90.4667 178.858 90.84C179.258 91.2 179.745 91.38 180.318 91.38C181.172 91.38 181.765 91.02 182.098 90.3H185.738C185.552 91.0333 185.212 91.6933 184.718 92.28C184.238 92.8667 183.632 93.3267 182.898 93.66C182.165 93.9933 181.345 94.16 180.438 94.16C179.345 94.16 178.372 93.9267 177.518 93.46C176.665 92.9933 175.998 92.3267 175.518 91.46C175.038 90.5933 174.798 89.58 174.798 88.42C174.798 87.26 175.032 86.2467 175.498 85.38C175.978 84.5133 176.645 83.8467 177.498 83.38C178.352 82.9133 179.332 82.68 180.438 82.68C181.518 82.68 182.478 82.9067 183.318 83.36C184.158 83.8133 184.812 84.46 185.278 85.3C185.758 86.14 185.998 87.12 185.998 88.24ZM182.498 87.34C182.498 86.7533 182.298 86.2867 181.898 85.94C181.498 85.5933 180.998 85.42 180.398 85.42C179.825 85.42 179.338 85.5867 178.938 85.92C178.552 86.2533 178.312 86.7267 178.218 87.34H182.498ZM195.461 84.42C195.781 83.9 196.241 83.48 196.841 83.16C197.441 82.84 198.127 82.68 198.901 82.68C199.821 82.68 200.654 82.9133 201.401 83.38C202.147 83.8467 202.734 84.5133 203.161 85.38C203.601 86.2467 203.821 87.2533 203.821 88.4C203.821 89.5467 203.601 90.56 203.161 91.44C202.734 92.3067 202.147 92.98 201.401 93.46C200.654 93.9267 199.821 94.16 198.901 94.16C198.114 94.16 197.427 94.0067 196.841 93.7C196.254 93.38 195.794 92.96 195.461 92.44V94H192.041V79.2H195.461V84.42ZM200.341 88.4C200.341 87.5467 200.101 86.88 199.621 86.4C199.154 85.9067 198.574 85.66 197.881 85.66C197.201 85.66 196.621 85.9067 196.141 86.4C195.674 86.8933 195.441 87.5667 195.441 88.42C195.441 89.2733 195.674 89.9467 196.141 90.44C196.621 90.9333 197.201 91.18 197.881 91.18C198.561 91.18 199.141 90.9333 199.621 90.44C200.101 89.9333 200.341 89.2533 200.341 88.4ZM216.135 88.24C216.135 88.56 216.115 88.8933 216.075 89.24H208.335C208.388 89.9333 208.608 90.4667 208.995 90.84C209.395 91.2 209.882 91.38 210.455 91.38C211.308 91.38 211.902 91.02 212.235 90.3H215.875C215.688 91.0333 215.348 91.6933 214.855 92.28C214.375 92.8667 213.768 93.3267 213.035 93.66C212.302 93.9933 211.482 94.16 210.575 94.16C209.482 94.16 208.508 93.9267 207.655 93.46C206.802 92.9933 206.135 92.3267 205.655 91.46C205.175 90.5933 204.935 89.58 204.935 88.42C204.935 87.26 205.168 86.2467 205.635 85.38C206.115 84.5133 206.782 83.8467 207.635 83.38C208.488 82.9133 209.468 82.68 210.575 82.68C211.655 82.68 212.615 82.9067 213.455 83.36C214.295 83.8133 214.948 84.46 215.415 85.3C215.895 86.14 216.135 87.12 216.135 88.24ZM212.635 87.34C212.635 86.7533 212.435 86.2867 212.035 85.94C211.635 85.5933 211.135 85.42 210.535 85.42C209.962 85.42 209.475 85.5867 209.075 85.92C208.688 86.2533 208.448 86.7267 208.355 87.34H212.635ZM224.159 91.1V94H222.419C221.179 94 220.213 93.7 219.519 93.1C218.826 92.4867 218.479 91.4933 218.479 90.12V85.68H217.119V82.84H218.479V80.12H221.899V82.84H224.139V85.68H221.899V90.16C221.899 90.4933 221.979 90.7333 222.139 90.88C222.299 91.0267 222.566 91.1 222.939 91.1H224.159ZM232.284 91.1V94H230.544C229.304 94 228.338 93.7 227.644 93.1C226.951 92.4867 226.604 91.4933 226.604 90.12V85.68H225.244V82.84H226.604V80.12H230.024V82.84H232.264V85.68H230.024V90.16C230.024 90.4933 230.104 90.7333 230.264 90.88C230.424 91.0267 230.691 91.1 231.064 91.1H232.284ZM244.709 88.24C244.709 88.56 244.689 88.8933 244.649 89.24H236.909C236.963 89.9333 237.183 90.4667 237.569 90.84C237.969 91.2 238.456 91.38 239.029 91.38C239.883 91.38 240.476 91.02 240.809 90.3H244.449C244.263 91.0333 243.923 91.6933 243.429 92.28C242.949 92.8667 242.343 93.3267 241.609 93.66C240.876 93.9933 240.056 94.16 239.149 94.16C238.056 94.16 237.083 93.9267 236.229 93.46C235.376 92.9933 234.709 92.3267 234.229 91.46C233.749 90.5933 233.509 89.58 233.509 88.42C233.509 87.26 233.743 86.2467 234.209 85.38C234.689 84.5133 235.356 83.8467 236.209 83.38C237.063 82.9133 238.043 82.68 239.149 82.68C240.229 82.68 241.189 82.9067 242.029 83.36C242.869 83.8133 243.523 84.46 243.989 85.3C244.469 86.14 244.709 87.12 244.709 88.24ZM241.209 87.34C241.209 86.7533 241.009 86.2867 240.609 85.94C240.209 85.5933 239.709 85.42 239.109 85.42C238.536 85.42 238.049 85.5867 237.649 85.92C237.263 86.2533 237.023 86.7267 236.929 87.34H241.209ZM249.933 84.7C250.333 84.0867 250.833 83.6067 251.433 83.26C252.033 82.9 252.7 82.72 253.433 82.72V86.34H252.493C251.64 86.34 251 86.5267 250.573 86.9C250.147 87.26 249.933 87.9 249.933 88.82V94H246.513V82.84H249.933V84.7Z" fill="black"/>
</svg>
