<svg width="140" height="188" viewBox="0 0 140 188" fill="none" xmlns="http://www.w3.org/2000/svg">
<path d="M170.975 93.7809C170.426 88.6157 170.118 83.408 169.283 78.2961C166.507 61.3267 159.422 46.5188 148.338 33.9711C143.906 28.9569 139.447 23.6004 134.055 19.9814C115.866 7.776 95.9815 3.34906 74.5263 7.25662C29.8832 15.3872 -1.06656 61.3002 8.0737 109.748C16.7844 155.933 58.168 187.14 103.124 178.706C142.654 171.291 170.412 135.159 170.975 93.7809ZM88.7343 187.395C48.7681 188.402 9.61732 158.617 1.53768 111.36C-7.61716 57.8094 25.2426 12.2927 69.8979 2.2399C93.7388 -3.12874 116.116 1.13072 136.763 15.2634C141.549 18.5424 146.547 21.343 150.709 25.6272C165.888 41.2552 174.931 60.0838 177.336 82.352C180.307 109.851 173.31 134.305 156.306 155.299C141.476 173.609 122.402 184.016 99.9011 187.319C96.2459 187.856 92.4598 187.395 88.7343 187.395Z" fill="#26224D"/>
<path d="M57.2162 26.5874C65.2983 26.559 68.8685 31.3714 67.4001 37.9293C66.3419 42.6448 64.3129 46.9387 61.5946 50.8247C57.2259 57.0688 52.6121 63.108 46.4911 67.5514C43.5422 69.6923 40.4769 71.7629 36.6712 71.8454C32.8316 71.9279 30.9677 70.7457 29.5503 67.032C27.9994 62.9818 27.6717 58.7582 29.0915 54.6567C29.7444 52.7663 31.0744 51.0135 32.4603 49.5913C33.084 48.9486 34.8679 48.776 35.6373 49.2585C37.0668 50.1592 36.0645 51.4363 35.3242 52.4574C33.3996 55.1157 32.2297 58.0347 32.5501 61.4649C32.6156 62.1636 32.6496 62.8794 32.8171 63.5546C33.6495 66.9371 35.4577 68.1053 38.426 66.6073C41.1613 65.2268 43.9257 63.6029 46.1585 61.4763C51.1097 56.7634 55.6265 51.5358 59.0025 45.4029C60.2549 43.1256 61.2475 40.5648 61.7766 38.0004C62.631 33.8686 60.7305 32.0806 56.8812 33.0779C54.9469 33.5776 53.1096 34.5435 51.1656 34.9275C50.1511 35.1287 48.9958 34.522 47.906 34.2793C48.2701 33.1851 48.3284 31.7211 49.0468 31.0556C51.9058 28.423 55.1969 26.6292 57.2162 26.5874Z" fill="#26224D"/>
<path d="M130.501 135.869C128.472 136.087 126.834 135.93 125.441 136.471C119.441 138.803 113.725 141.774 108.599 145.873C106.641 147.436 105.16 149.403 104.692 152.035C104.158 155.024 105.447 157.179 108.318 157.327C110.524 157.439 112.764 156.799 114.99 156.494C116.429 156.297 117.88 155.88 119.31 155.95C121.184 156.04 121.902 157.929 120.426 159.149C118.587 160.671 116.446 162.134 114.225 162.705C111.713 163.351 108.934 163.287 106.328 162.979C102.457 162.52 99.7431 159.072 99.4689 154.9C99.1364 149.834 100.556 145.392 104.129 141.971C110.327 136.034 117.606 132.034 125.54 129.372C126.771 128.957 128.166 128.991 129.484 128.996C133.149 129.01 135.809 130.663 136.79 133.677C137.921 137.162 137.124 140.386 134.918 143.108C134.343 143.818 133.062 144.294 132.159 144.211C130.681 144.073 130.537 142.582 130.508 141.279C130.474 139.755 130.501 138.231 130.501 135.869Z" fill="#26224D"/>
<path d="M30.4731 99.7612C28.9343 104.724 28.0072 109.305 28.8639 114.122C29.0047 114.923 29.4197 115.721 29.8687 116.399C31.2085 118.425 32.7084 118.362 33.803 116.114C35.565 112.496 36.0892 108.591 35.2422 104.625C34.7568 102.353 33.3758 100.664 30.4731 99.7612ZM42.0307 108.797C41.1375 112.284 40.6497 115.967 39.2638 119.221C36.2689 126.267 29.3129 126.736 25.0898 120.398C22.8254 116.998 22.4565 113.093 22.7745 109.101C22.9978 106.31 23.3254 103.514 23.8254 100.766C24.3933 97.6329 25.5461 94.7345 28.7304 93.6423C31.9608 92.5332 34.667 93.7448 37.1232 96.0619C40.7225 99.4597 41.788 103.763 42.0307 108.797Z" fill="#26224D"/>
<path d="M138.986 118.367C134.488 118.35 131.35 115.11 131.389 110.523C131.438 104.662 135.748 99.3337 140.333 99.4701C144.58 99.5934 148.437 103.863 148.335 108.331C148.211 113.801 143.939 118.389 138.986 118.367Z" fill="#26224D"/>
<path d="M83.6919 31.7869C80.7479 31.7869 78.0296 29.2309 77.9811 26.4209C77.9325 23.348 80.7697 20.6926 84.1919 20.6176C87.1723 20.5494 89.9028 23.0201 89.9392 25.8141C89.978 28.6705 86.716 31.7869 83.6919 31.7869Z" fill="#26224D"/>
<path d="M82.0126 160.632C81.9689 163.156 80.4957 164.803 78.423 164.646C76.5008 164.5 75.2218 162.826 75.3067 160.571C75.3917 158.343 76.8091 156.783 78.7531 156.777C80.7482 156.77 82.0515 158.311 82.0126 160.632Z" fill="#26224D"/>
<path d="M79.4028 43.6939C80.9998 43.7621 82.189 45.3008 82.0895 47.1694C81.9924 49.0067 80.9464 49.968 79.3445 50.167C77.8106 50.3588 76.3568 48.6625 76.3932 46.9267C76.4297 45.1916 77.881 43.6312 79.4028 43.6939Z" fill="#26224D"/>
</svg>
