<svg width="275" height="166" viewBox="0 0 275 166" fill="none" xmlns="http://www.w3.org/2000/svg">
<path d="M43.7529 41.5743C50.6785 33.078 60.0833 26.273 70.9504 21.8945C79.1436 18.5929 88.0053 16.8047 96.5787 16.7232C118.165 16.5177 136.585 28.127 143.5 45.9301C155.701 42.6782 169.341 48.1392 176.833 56.586C186.528 56.4854 195.697 54.7159 204.146 51.3125C214.655 47.0777 223.669 40.4602 230.942 31.6446C231.992 30.3712 233.369 29.367 234.923 28.7396C239.006 27.0946 243.872 28.2393 246.754 31.5239C247.697 32.5978 248.362 33.8065 248.747 35.0725C250.103 37.5467 250.296 40.4876 249.196 43.1534C231.556 85.84 196.699 121.717 155.955 139.124C155.184 139.454 154.405 139.777 153.628 140.09L153.624 140.091C137.846 146.45 113.62 152.378 87.7972 144.52C66.7619 138.118 49.0287 122.035 39.142 100.393C29.2492 78.7363 30.9311 57.2983 43.7529 41.5743Z" fill="#FCD800"/>
<path d="M51.1934 47.0315C61.824 33.9933 79.327 25.7427 96.7921 25.5774C114.367 25.4105 130.642 34.8364 135.625 51.4234C136.512 54.3752 136.946 57.4852 136.95 60.6044C146.613 48.0103 166.242 54.8641 171.92 65.3378C198.11 66.4545 221.999 56.8446 238.238 37.1559C238.906 36.3448 240.199 37.2628 239.602 38.1122C239.484 38.2774 239.352 38.431 239.235 38.5947C239.95 38.4581 240.804 39.0471 240.456 39.8881C224.477 78.5581 192.37 113.816 152.046 131.043C132.902 139.222 111.033 142.306 90.5912 136.085C70.8143 130.064 55.8754 114.757 47.7353 96.943C40.2719 80.6063 39.363 61.542 51.1934 47.0315ZM172.836 116.17C201.772 97.2334 223.807 70.5758 238.019 40.1932C223.477 59.1642 198.102 70.6179 173.104 68.2818C174.236 72.5386 172.974 77.1176 167.884 81.1107C160.942 86.5568 147.553 84.4835 147.366 74.301C147.208 65.6688 159.792 61.8291 163.535 70.3605C164.066 71.5698 162.188 72.7652 161.379 71.579C157.476 65.8597 149.124 68.8095 150.41 75.3949C151.265 79.7673 156.223 81.9866 160.474 81.3927C167.61 80.3959 171.94 73.2857 169.822 67.1369C169.814 67.1107 169.806 67.0876 169.801 67.0619C169.486 66.1671 169.035 65.2938 168.433 64.4633C160.771 53.8888 144.912 53.7936 136.821 63.5747C135.828 74.8748 129.098 85.6806 116.973 88.9036C101.493 93.0176 81.7989 78.5639 91.1772 62.9296C94.9636 56.6153 103.92 53.1196 111.22 55.9141C117.486 58.3134 121.118 65.0414 117.975 70.8752C117.113 72.4771 114.361 71.4892 115.174 69.8035C118.157 63.6146 112.094 58.2243 105.785 58.1645C100.45 58.115 95.1408 61.4338 93.244 66.2047C89.4402 75.77 98.2483 85.6203 108.178 86.6082C129.234 88.6995 137.945 64.997 131.486 49.3129C118.957 18.8909 76.1114 26.5485 57.1899 45.4694C32.8865 69.7717 50.8308 109.979 77.2634 126.434C107.49 145.253 145.801 133.863 172.836 116.17Z" fill="#1D1D1B"/>
</svg>
