<svg width="240" height="118" viewBox="0 0 240 118" fill="none" xmlns="http://www.w3.org/2000/svg">
<mask id="mask0_273_3604" style="mask-type:luminance" maskUnits="userSpaceOnUse" x="154" y="46" width="86" height="72">
<path d="M154.404 46.4465H239.766V118H154.404V46.4465Z" fill="white"/>
</mask>
<g mask="url(#mask0_273_3604)">
<mask id="mask1_273_3604" style="mask-type:luminance" maskUnits="userSpaceOnUse" x="-24" y="-72" width="265" height="250">
<path d="M62.4866 -71.75L240.757 67.0906L154.562 177.765L-23.709 38.9292L62.4866 -71.75Z" fill="white"/>
</mask>
<g mask="url(#mask1_273_3604)">
<mask id="mask2_273_3604" style="mask-type:luminance" maskUnits="userSpaceOnUse" x="-24" y="-72" width="265" height="250">
<path d="M62.4866 -71.75L240.757 67.0906L154.562 177.765L-23.709 38.9292L62.4866 -71.75Z" fill="white"/>
</mask>
<g mask="url(#mask2_273_3604)">
<mask id="mask3_273_3604" style="mask-type:luminance" maskUnits="userSpaceOnUse" x="-24" y="-72" width="265" height="250">
<path d="M62.4866 -71.75L240.757 67.0906L154.562 177.765L-23.709 38.9292L62.4866 -71.75Z" fill="white"/>
</mask>
<g mask="url(#mask3_273_3604)">
<path d="M220.482 93.1438C214.396 100.96 208.311 108.776 202.226 116.588C200.823 118.388 199.48 118.319 198.337 116.362C194.086 109.061 189.82 101.764 185.598 94.4433C185.151 93.6734 184.73 93.5263 183.872 93.7175C177.198 95.2278 170.495 96.6793 163.791 98.1602C162.948 98.3416 162.109 98.474 161.447 97.7483C160.717 96.9539 160.913 96.0663 161.276 95.1739C164.355 87.6076 167.395 80.0267 170.514 72.4751C170.857 71.6562 170.691 71.156 170.254 70.5235C165.444 63.7712 160.663 56.9944 155.857 50.2373C155.244 49.3693 154.774 48.5504 155.475 47.5305C156.176 46.5154 157.122 46.6625 158.142 46.9126C184.578 53.3069 211.033 59.6865 237.473 66.0563C239.302 66.4976 239.939 68.2188 238.807 69.6506C232.667 77.4376 226.587 85.3029 220.482 93.1438ZM200.495 112.533C211.312 98.6506 222.022 84.8959 232.893 70.9354C216.064 74.667 199.504 78.3447 182.768 82.0518C188.731 92.3102 194.591 102.392 200.495 112.533ZM222.87 66.6791C222.875 66.5908 222.885 66.5074 222.89 66.4241C202.53 61.5058 182.165 56.5923 161.707 51.6495C161.8 51.9339 161.81 52.0565 161.874 52.1546C165.635 57.4603 169.411 62.7513 173.152 68.0717C173.613 68.7337 174.089 68.8906 174.859 68.8612C186.745 68.3021 198.626 67.7873 210.513 67.2479C214.622 67.0713 218.751 66.8703 222.87 66.6791ZM214.607 71.1119C214.607 71.0335 214.588 70.9599 214.588 70.8863C214.259 70.8863 213.921 70.8765 213.582 70.8863C200.858 71.4503 188.128 72.0289 175.408 72.5683C174.643 72.6026 174.344 72.9704 174.094 73.5784C171.495 80.012 168.891 86.4602 166.292 92.8937C166.194 93.134 166.15 93.3988 166.062 93.7666C171.765 92.5063 177.32 91.2755 182.999 90.0251C181.439 87.3183 179.954 84.7635 178.482 82.2039C177.448 80.4189 177.904 79.2715 179.87 78.8253C187.186 77.1826 194.512 75.5693 201.833 73.9413C206.104 73.0047 210.361 72.0632 214.607 71.1119Z" fill="black"/>
</g>
</g>
</g>
</g>
<mask id="mask4_273_3604" style="mask-type:luminance" maskUnits="userSpaceOnUse" x="0" y="0" width="141" height="111">
<path d="M0 0H140.596V110.468H0V0Z" fill="white"/>
</mask>
<g mask="url(#mask4_273_3604)">
<mask id="mask5_273_3604" style="mask-type:luminance" maskUnits="userSpaceOnUse" x="-24" y="-72" width="265" height="250">
<path d="M62.4866 -71.7498L240.757 67.0909L154.562 177.765L-23.709 38.9295L62.4866 -71.7498Z" fill="white"/>
</mask>
<g mask="url(#mask5_273_3604)">
<mask id="mask6_273_3604" style="mask-type:luminance" maskUnits="userSpaceOnUse" x="-24" y="-72" width="265" height="250">
<path d="M62.4866 -71.7498L240.757 67.0909L154.562 177.765L-23.709 38.9295L62.4866 -71.7498Z" fill="white"/>
</mask>
<g mask="url(#mask6_273_3604)">
<mask id="mask7_273_3604" style="mask-type:luminance" maskUnits="userSpaceOnUse" x="-24" y="-72" width="265" height="250">
<path d="M62.4866 -71.7498L240.757 67.0909L154.562 177.765L-23.709 38.9295L62.4866 -71.7498Z" fill="white"/>
</mask>
<g mask="url(#mask7_273_3604)">
<path d="M36.0998 85.112C35.1975 84.4108 34.3051 83.6851 33.4224 82.9544C32.427 82.1159 32.2946 80.6154 33.1331 79.6102C33.9716 78.6098 35.4721 78.4971 36.4725 79.3062C39.444 81.8021 42.5725 84.1019 46.0002 86.3379C47.0937 87.049 47.3977 88.5249 46.6818 89.6184C45.9609 90.7168 44.4898 91.0307 43.3963 90.3148C40.8269 88.6279 38.38 86.8871 36.0998 85.112ZM24.8264 74.5399C24.7038 74.4467 24.591 74.3437 24.488 74.2211C21.5802 70.8523 19.1676 67.3512 17.3092 63.8255C16.6962 62.6731 17.1572 61.2364 18.3144 60.6185C19.4766 60.0056 20.8986 60.4518 21.5116 61.6041C23.2082 64.8209 25.4099 68.0132 28.0873 71.122C28.9356 72.1126 28.8277 73.6131 27.8372 74.4614C26.9595 75.2067 25.6992 75.2215 24.8264 74.5399ZM53.6743 96.3462C52.7867 95.6548 52.4876 94.3995 53.0368 93.3697C53.6547 92.2075 55.0865 91.7564 56.2438 92.3694C60.7453 94.7476 64.5848 96.459 67.0121 97.4593C68.2233 97.9644 68.7872 99.357 68.2772 100.553C67.7673 101.765 66.3746 102.338 65.1831 101.828C62.6724 100.779 58.6858 99.0137 54.0274 96.5472C53.9048 96.508 53.7822 96.4295 53.6743 96.3462ZM76.0985 105.501C75.358 104.927 75.0148 103.947 75.2747 102.995C75.6277 101.735 76.937 100.995 78.1972 101.338C81.9632 102.392 85.8616 103.216 89.7648 103.805C91.0545 103.996 91.9469 105.202 91.741 106.502C91.5448 107.791 90.3385 108.689 89.0391 108.492C84.9348 107.87 80.855 107.007 76.9076 105.903C76.6085 105.825 76.3289 105.683 76.0985 105.501ZM19.3147 57.5587C17.824 56.3965 16.3481 55.1167 14.9456 53.7388C14.9064 53.6897 14.8623 53.6554 14.8329 53.6162C13.9698 53.3955 13.2735 52.6894 13.1019 51.7577C12.7635 49.8992 12.5576 48.0114 12.5085 46.1333C12.4301 43.7845 12.5723 41.3523 12.9155 38.9103C13.1068 37.6108 14.3033 36.7086 15.5978 36.89C16.8973 37.0714 17.7946 38.2679 17.6083 39.5674C17.2994 41.7347 17.1719 43.8972 17.2405 45.9666C17.2797 47.2758 17.4023 48.59 17.5936 49.8992C17.8339 50.012 18.0643 50.1591 18.2654 50.3602C21.1242 53.1601 24.2183 55.4943 27.4008 57.2792C28.5335 57.9215 28.9454 59.3583 28.308 60.5008C27.6705 61.6434 26.2288 62.0553 25.0863 61.4227C23.1003 60.2998 21.1732 59.0052 19.3147 57.5587ZM7.42841 44.569C7.23226 44.417 7.06064 44.2356 6.92334 44.0247C5.21198 41.4749 4.05963 39.3908 3.44668 38.2777C2.51009 36.5713 1.64706 34.8109 0.887001 33.0161C0.36722 31.8148 0.931134 30.4172 2.13252 29.8925C3.3339 29.3728 4.73143 29.9318 5.2463 31.1332C5.94752 32.7759 6.737 34.399 7.60003 35.9583C8.18847 37.0175 9.27216 38.9936 10.8707 41.367C11.6014 42.4458 11.3072 43.9218 10.2235 44.6573C9.34572 45.2506 8.21299 45.182 7.42841 44.569ZM36.1096 65.3603C35.4329 64.8258 35.07 63.9432 35.2466 63.0458C35.4966 61.7611 36.7422 60.9127 38.022 61.153C41.5722 61.8297 45.4362 62.0062 49.4817 61.6826C50.7861 61.5845 51.9237 62.5456 52.0267 63.8598C52.1199 65.1642 51.1538 66.3067 49.8397 66.4146C45.3676 66.7725 41.0867 66.5715 37.1197 65.8114C36.7323 65.7379 36.3891 65.5761 36.1096 65.3603ZM100.023 109.125C99.4445 108.679 99.0866 107.963 99.116 107.173C99.1601 105.864 100.268 104.829 101.573 104.883C105.461 105.011 109.453 104.927 113.454 104.623C114.758 104.525 115.891 105.496 115.979 106.806C116.073 108.11 115.097 109.248 113.792 109.346C109.634 109.659 105.471 109.758 101.411 109.62C100.876 109.596 100.396 109.419 100.023 109.125ZM60.0931 63.5656C59.7302 63.2812 59.4458 62.8938 59.2938 62.4132C58.8966 61.1726 59.5978 59.8339 60.8385 59.4319C64.6878 58.201 68.1792 56.5534 71.2243 54.5479C72.3276 53.8221 73.7889 54.1213 74.5048 55.2197C75.2207 56.3181 74.9216 57.7842 73.8183 58.51C70.4103 60.746 66.5266 62.58 62.2654 63.9481C61.4955 64.208 60.6913 64.0314 60.0931 63.5656ZM17.1474 29.4414C16.3088 28.7843 15.995 27.6271 16.4363 26.6169C17.9663 23.1697 19.8885 19.9529 22.149 17.05C22.4923 16.6087 22.8453 16.1772 23.1984 15.7604C24.0369 14.76 25.5325 14.6276 26.5329 15.4661C27.5283 16.2998 27.6607 17.8052 26.8124 18.8006C26.4887 19.1782 26.1798 19.5705 25.8758 19.9627C23.8457 22.5715 22.1294 25.445 20.7564 28.5342C20.2317 29.7307 18.8293 30.2799 17.6328 29.7601C17.471 29.6621 17.2945 29.5542 17.1474 29.4414ZM124.198 107.316C123.752 106.967 123.428 106.462 123.325 105.854C123.104 104.57 123.972 103.334 125.252 103.113C129.121 102.422 133.029 101.539 136.884 100.46C138.149 100.102 139.448 100.843 139.796 102.108C140.144 103.373 139.399 104.677 138.134 105.03C134.142 106.134 130.077 107.065 126.071 107.781C125.375 107.904 124.703 107.708 124.198 107.316ZM79.7713 50.0169C78.8004 49.2618 78.5699 47.8643 79.2711 46.8296C81.0756 44.1669 82.2182 41.2542 82.6987 38.1796C82.7772 37.6697 82.8409 37.145 82.8851 36.6252C82.9978 35.3257 84.1355 34.345 85.4497 34.4529C86.7442 34.5559 87.72 35.6935 87.6121 37.0077C87.5582 37.6304 87.4846 38.263 87.3915 38.8857C86.808 42.6566 85.4006 46.2313 83.1989 49.4824C82.4634 50.5661 80.9874 50.8604 79.9086 50.1248C79.8595 50.0758 79.8154 50.0562 79.7713 50.0169ZM32.6084 11.048C32.4221 10.9009 32.2505 10.7195 32.1131 10.5086C31.3825 9.4298 31.6571 7.95872 32.7506 7.21338C36.497 4.64879 40.3855 2.756 44.2986 1.57913C45.5539 1.19665 46.873 1.90768 47.2457 3.163C47.6183 4.41832 46.9024 5.74229 45.6471 6.11987C42.1901 7.15453 38.7526 8.83156 35.4133 11.1215C34.5306 11.7149 33.393 11.656 32.6084 11.048ZM82.1299 26.7444C81.7818 26.4796 81.5219 26.1217 81.3551 25.6803C80.1243 22.238 78.1776 18.8692 75.7356 15.9418C74.8971 14.9415 75.0344 13.441 76.0445 12.6024C77.0449 11.7541 78.5405 11.8816 79.379 12.8967C82.1789 16.2507 84.4052 20.1049 85.8174 24.0671C86.2538 25.293 85.6115 26.6611 84.3856 27.1024C83.5912 27.3917 82.7429 27.225 82.1299 26.7444ZM55.5033 4.60956C54.8659 4.1143 54.5079 3.31011 54.606 2.45198C54.7678 1.14762 55.9545 0.220835 57.249 0.387559C58.215 0.510148 59.1908 0.662161 60.1372 0.873015C63.3785 1.57913 66.5463 2.82465 69.5424 4.57524C70.68 5.23232 71.0478 6.67888 70.3956 7.81161C69.7385 8.93944 68.2821 9.32683 67.1592 8.67465C64.575 7.17905 61.8731 6.11006 59.1075 5.50692C58.2984 5.33039 57.4795 5.18819 56.6655 5.09502C56.2389 5.03127 55.8368 4.86945 55.5033 4.60956Z" fill="black"/>
</g>
</g>
</g>
</g>
</svg>
