<svg width="75" height="109" viewBox="0 0 75 109" fill="none" xmlns="http://www.w3.org/2000/svg">
<path d="M31.393 32.4825C31.2604 34.5114 31.1476 36.582 30.9782 38.6466C30.8991 39.6003 30.8213 40.5763 30.5456 41.4828C30.1711 42.7176 29.1248 43.3303 27.8065 43.3627C26.5248 43.394 25.6828 42.579 25.2747 41.5292C24.9283 40.6361 24.7553 39.6457 24.7223 38.6965C24.6085 35.6047 24.5715 32.5117 24.5591 29.4217C24.5557 28.5586 24.7312 27.6999 24.8513 26.8444C25.2606 23.9456 27.1174 22.304 30.0763 22.1837C33.6042 22.0377 37.1611 22.2377 40.7056 22.3689C42.0187 22.417 43.3388 22.6361 44.6375 22.8804C45.6299 23.0663 46.6575 23.2908 47.5581 23.7176C48.6202 24.2205 49.2933 25.1229 49.1643 26.3307C49.0292 27.575 48.1065 28.2555 46.9473 28.3323C45.3507 28.4392 43.7228 28.2832 42.1096 28.1874C40.5406 28.0962 38.974 27.942 37.281 27.8048C37.2083 29.4133 38.301 29.999 38.9298 30.8223C41.1658 33.746 43.5989 36.5588 45.5819 39.6258C48.9136 44.7802 48.8676 50.2537 46.4359 55.5137C44.167 60.4244 39.4959 62.4341 34.182 63.2584C30.4376 63.8394 26.8392 62.9116 23.5456 61.2397C11.4503 55.1012 3.74588 45.7447 1.33004 32.8888C-0.325677 24.0726 1.7818 16.0173 7.10228 8.82125C8.86331 6.43741 11.0895 4.49656 13.8658 3.27238C22.1628 -0.383198 30.7227 -1.39463 39.3662 2.73302C43.2845 4.6051 47.0514 6.89316 50.5916 9.38238C56.5891 13.5959 61.6763 18.7497 66.0967 24.4706C72.2202 32.3958 74.3954 41.3511 74.311 50.8779C74.2563 57.144 73.0324 63.1568 70.0309 68.6842C65.9396 76.2206 58.9981 80.4922 50.9298 83.5725C42.578 86.7605 33.8117 87.8566 24.869 88.3216C24.0594 88.3629 23.2519 88.4303 22.4463 88.5109C14.7602 89.2689 9.18329 93.9463 7.70284 101.134C7.36407 102.779 7.7707 104.574 7.7477 106.296C7.74028 106.914 7.47734 107.522 7.33106 108.136C6.61765 107.907 5.74831 107.852 5.21737 107.417C3.33576 105.872 2.8736 103.728 3.06847 101.568C3.94147 91.8542 10.9868 83.8688 21.2815 83.2186C24.8192 82.9951 28.3363 82.577 31.8648 82.2655C39.9431 81.5508 47.5042 79.3114 54.5378 75.6465C62.3982 71.5501 66.5347 65.0263 67.8277 56.5946C68.567 51.7725 68.3799 46.9858 67.6525 42.1654C67.019 37.9722 65.6404 33.9667 63.1835 30.4145C56.2595 20.3995 47.4297 12.324 35.9471 7.17732C25.5901 2.53414 12.9454 7.36574 8.52796 17.1247C3.13222 29.0481 8.21554 43.55 18.3552 51.5837C21.4561 54.0425 24.645 56.3358 28.5939 57.4084C36.9057 59.6647 43.7585 53.8777 41.8764 45.8994C40.576 40.387 36.7492 36.2113 32.385 32.4936C32.2753 32.4006 32.0024 32.4821 31.393 32.4825Z" fill="#26224D"/>
</svg>
