<svg width="48" height="72" viewBox="0 0 48 72" fill="none" xmlns="http://www.w3.org/2000/svg">
<path d="M7.32751 61.5113C7.5098 60.4109 7.59021 59.7169 7.74436 59.0451C8.0121 57.8849 8.40954 56.754 8.59438 55.5771C8.75493 54.5698 8.50156 53.6015 7.40842 53.0758C6.42857 52.6056 5.50654 52.8984 4.71942 53.9554C4.54659 54.1879 4.40203 54.4526 4.29253 54.7241C3.16611 57.5414 1.95131 60.325 0.956289 63.1945C-0.15213 66.3895 0.705666 67.9304 3.90014 69.2538C6.90035 70.497 9.98433 71.201 13.1544 71.3392C14.5391 71.3992 16.0193 71.5079 17.0578 70.0496C15.3385 67.0241 11.9119 67.8881 9.34794 66.2978C9.76842 65.8627 10.0238 65.4202 10.4106 65.2248C17.6625 61.5637 24.0545 56.6836 29.9258 51.1816C35.2571 46.1858 40.1463 40.7447 43.2554 33.8941C47.5198 24.4956 48.1417 14.6443 45.3656 4.35603C45.1275 3.47738 44.7262 2.62729 44.3351 1.79373C43.9506 0.976524 43.3909 0.372225 42.1046 0.730715C42.1699 1.61791 42.2085 2.56069 42.3122 3.50059C42.6897 6.89697 43.299 10.2935 43.4402 13.6844C43.8778 24.2403 40.2898 33.1951 33.6855 40.8602C29.8579 45.3023 25.7934 49.5225 21.0574 52.9779C17.4066 55.6431 13.5413 58.0213 9.74693 60.4897C9.16058 60.8706 8.44061 61.0499 7.32751 61.5113Z" fill="#26224D"/>
</svg>
