<svg width="404" height="90" viewBox="0 0 404 90" fill="none" xmlns="http://www.w3.org/2000/svg">
<path d="M403.421 35.2308C402.842 35.0127 402.17 35.3044 401.599 35.0392C401.088 35.0349 400.66 34.6474 400.106 34.8322C400.008 34.81 399.911 34.7875 399.816 34.7654C399.04 34.6027 398.23 34.6006 397.451 34.4626C397.324 34.4669 397.221 34.4958 397.135 34.5537C397.132 34.5537 397.126 34.547 397.126 34.547C397.126 34.547 397.126 34.547 397.126 34.5494C396.918 34.2177 396.066 34.4268 396.144 33.8523L396.236 33.8767C396.204 33.8055 396.204 33.7319 396.228 33.6586C396.523 33.6386 396.818 33.6207 397.113 33.6007C397.305 33.4402 397.919 33.6183 397.724 33.1463C397.508 32.8568 397.135 32.9748 396.821 32.9415C396.509 32.7943 396.198 32.6474 395.89 32.5026L395.744 32.4915L395.603 32.5115C395.524 32.4826 395.446 32.4671 395.359 32.4625C395.357 32.3199 395.351 32.1776 395.349 32.0328C395.538 32.0128 395.73 31.9949 395.922 31.9749C395.944 31.9549 395.968 31.937 395.993 31.9192C396.001 31.9771 396.014 32.0393 396.041 32.1129C396.504 32.1129 396.969 32.1752 397.424 32.0618C397.522 32.035 397.616 32.006 397.714 31.9792C397.822 31.8234 397.927 31.6653 398.036 31.5095C397.925 31.2865 397.641 31.3379 397.424 31.28C397.31 31.3044 397.197 31.3268 397.086 31.3512C396.986 31.1999 396.891 31.0492 396.794 30.8987C396.834 30.8841 396.872 30.8673 396.91 30.8465C397.116 30.6381 397.148 30.403 397.091 30.154C397.07 29.8778 396.783 29.7806 396.531 29.6607C396.434 29.5809 396.339 29.5011 396.242 29.421C396.128 29.3601 396.001 29.3309 395.86 29.336C395.855 29.3363 395.849 29.3371 395.841 29.3376C395.771 29.2343 395.698 29.1312 395.625 29.0281C396.22 28.6628 396.983 29.0443 397.605 28.7954C397.662 28.8679 397.73 28.9317 397.814 28.9851C397.873 29.0026 397.933 29.0197 397.99 29.0365C398.182 29.0297 398.371 29.0229 398.563 29.0156C399.294 29.3106 400.022 29.3171 400.753 29.0118C400.937 29.0145 401.121 29.0173 401.302 29.02C401.305 29.0833 401.323 29.1442 401.356 29.2021C401.461 29.3149 401.548 29.3136 401.616 29.1791C402.536 28.6793 401.172 28.6265 401.321 28.2782C401.229 28.0401 400.931 28.0685 400.712 27.9928C400.671 28.0277 400.639 28.0653 400.606 28.1037C400.558 28.0921 400.512 28.0804 400.463 28.0688C400.479 28.0512 400.495 28.0363 400.509 28.0171C400.42 27.6775 400.03 27.6902 399.716 27.6166C399.183 27.5896 398.734 27.402 398.309 27.1677C398.114 27.1536 397.917 27.1393 397.716 27.1252C397.324 27.0356 396.956 26.8592 396.518 26.9366C396.515 26.9371 396.512 26.938 396.507 26.9385C396.507 26.8633 396.501 26.7883 396.496 26.7134C396.309 26.6904 396.122 26.6676 395.936 26.6446C395.662 26.554 395.392 26.5177 395.132 26.6181C395.11 26.6046 395.091 26.5927 395.073 26.5778C394.867 26.4617 394.669 26.3253 394.393 26.361C394.388 26.3372 394.38 26.3131 394.374 26.2893C394.621 26.2314 394.821 26.117 394.983 25.9608C395.089 25.8815 395.192 25.802 395.297 25.7224C395.592 25.6718 395.89 25.6212 396.185 25.5706C396.393 25.5503 396.599 25.53 396.807 25.5097C397.002 25.4215 397.197 25.3336 397.394 25.2454C397.811 24.9323 398.368 25.1247 398.837 24.9975C399.048 24.8681 399.261 24.7391 399.475 24.6097C399.21 24.0942 399.73 24.1751 400.084 24.131C400.198 24.2111 400.301 24.2098 400.395 24.1145C400.349 23.8693 400.084 23.8951 399.868 23.8612C399.589 23.7189 399.364 23.4101 398.964 23.6377C398.774 23.5438 398.482 23.5687 398.368 23.392L398.322 23.4172C398.304 23.3401 398.285 23.2627 398.268 23.1858C398.398 23.0299 398.528 22.8741 398.658 22.7185C398.106 22.4149 397.446 22.4008 396.818 22.2991C396.515 22.2233 396.212 22.1473 395.909 22.0712C395.6 21.9113 395.297 21.7516 394.991 21.592C394.778 21.359 394.502 21.1928 394.15 21.1046C394.174 21.0851 394.199 21.0657 394.223 21.0464C394.472 21.1241 394.723 21.2088 394.991 21.0646C395.408 20.719 394.778 20.61 394.729 20.3691C394.604 20.1662 394.353 20.1943 394.131 20.1673C393.628 19.8988 392.975 20.2466 392.483 19.931C392.391 19.687 392.188 19.5598 391.85 19.5746C391.674 19.5868 391.536 19.6464 391.414 19.7227C391.517 19.5977 391.625 19.4751 391.777 19.3766C391.917 19.2794 392.039 19.1704 392.118 19.038C392.153 18.9377 392.118 18.8513 392.026 18.7788C391.815 18.6311 391.609 18.4836 391.398 18.3361C391.317 18.2631 391.219 18.2379 391.108 18.2547C391.057 18.1502 390.97 18.0888 390.802 18.1288L390.824 18.0468C390.275 18.0206 389.909 17.5587 389.303 17.6612C389.211 17.6412 389.119 17.6266 389.022 17.6177C388.906 17.4786 388.789 17.3395 388.67 17.2001C388.383 17.1084 388.096 17.0164 387.81 16.9244C387.796 16.9136 387.785 16.9049 387.777 16.8946C387.85 16.8724 387.918 16.8262 387.986 16.7534C388.178 16.3946 388.167 16.0644 387.766 15.7881C386.689 15.5408 385.612 15.2932 384.535 15.0456C384.286 14.9054 384.018 14.8535 383.724 14.956C383.707 15.0023 383.696 15.0464 383.688 15.09C383.664 15.0756 383.64 15.0621 383.61 15.0513C383.293 14.7517 382.828 14.8676 382.43 14.7926C382.362 14.4449 382.63 14.3729 382.996 14.3794L382.977 14.4048C383.575 14.3818 384.173 14.3583 384.768 14.335C385.169 13.9554 385.924 14.3507 386.3 13.9161C386.367 13.544 385.899 13.4501 385.696 13.2191C385.696 13.1503 385.696 13.0816 385.685 13.0129C385.615 12.9836 385.542 12.9636 385.461 12.9528C384.865 12.8188 385.347 12.0262 384.522 12.0341C384.522 12.016 384.519 11.9978 384.519 11.98C384.69 11.9107 384.814 11.8152 384.784 11.6312C384.69 11.547 384.592 11.4629 384.497 11.3787C384.002 11.3714 383.512 11.3619 383.288 10.926C382.741 10.6118 382.192 10.3028 381.51 10.1786C381.009 9.9521 380.509 9.72588 380.008 9.49938C379.248 8.94086 378.228 8.85508 377.302 8.59828C375.911 7.9483 374.174 8.0579 372.802 7.37084C372.696 7.39601 372.596 7.42145 372.491 7.44688C372.069 7.14084 371.53 7.17764 371.013 7.14868C370.886 6.89838 370.634 6.94167 370.38 6.9901C368.8 6.29141 366.946 6.47704 365.285 6.04868L365.139 6.0219L364.995 6.05329C364.489 5.99078 364.051 5.66633 363.485 5.82355C363.201 5.80623 362.92 5.78944 362.635 5.7724C362.614 5.71287 362.589 5.65361 362.568 5.59408C362.013 5.33322 361.442 5.40681 360.866 5.534C360.893 5.4566 360.863 5.39005 360.763 5.33646C360.668 5.32726 360.579 5.30779 360.492 5.27856C359.597 5.12025 358.777 4.64915 357.784 4.88863C357.386 4.89052 356.985 4.8924 356.588 4.89403C356.29 4.87833 355.995 4.86237 355.697 4.84614C355.689 4.78336 355.681 4.72058 355.676 4.65753C355.481 4.64238 355.289 4.62749 355.094 4.61234C354.81 4.20834 354.277 4.48975 353.895 4.35554C353.273 4.4259 352.731 3.97102 352.087 4.19129C351.893 4.17641 351.692 4.16151 351.495 4.14717C351.094 3.72855 350.485 4.03191 350.007 3.89309C349.511 3.89444 349.016 3.89606 348.521 3.89741C348.502 3.84193 348.483 3.78648 348.459 3.73181C348.364 3.72153 348.272 3.70014 348.185 3.66794C347.785 3.68742 347.384 3.70691 346.984 3.72639C346.878 3.64954 346.775 3.57269 346.673 3.49612C346.061 3.21632 345.409 3.12051 344.708 3.22713C344.63 3.25608 344.546 3.27827 344.467 3.29749C344.256 3.16219 343.942 3.25528 343.693 3.20143C343.017 2.96817 342.248 3.29858 341.58 3.00119C340.906 2.81474 340.208 2.73463 339.491 2.73437C339.285 2.63695 339.071 2.65048 338.858 2.7203C338.833 2.74979 338.814 2.77875 338.806 2.80716C338.338 2.74194 337.851 2.81339 337.386 2.72328C337.267 2.67512 337.156 2.61855 337.05 2.55225C336.555 2.53927 336.062 2.52628 335.564 2.51357C335.491 2.51843 335.416 2.52357 335.343 2.52844C334.631 2.54765 333.925 2.53711 333.216 2.53846C333.132 2.46458 333.026 2.42615 332.891 2.42777C331.974 2.37041 331.045 2.53278 330.139 2.32874C330.047 2.31982 329.96 2.30195 329.874 2.27543C329.295 2.05273 328.624 2.34931 328.053 2.08115C327.947 2.08683 327.839 2.09251 327.733 2.09819C327.701 2.08682 327.668 2.07735 327.633 2.06355C327.503 2.00076 327.36 1.97913 327.206 1.9978C326.286 2.13581 325.355 2.07248 324.429 2.04704C324.232 2.00456 324.031 1.9591 323.823 1.96424C323.69 1.9729 323.561 1.99536 323.433 2.03054C323.049 2.0917 322.662 2.09089 322.275 2.03677C322.097 1.98698 321.915 1.94205 321.748 1.8698C321.453 1.87495 321.158 1.87981 320.86 1.88468C320.673 1.86222 320.484 1.83978 320.294 1.81731C319.577 1.73261 318.863 1.672 318.151 1.7272C317.97 1.7134 317.791 1.70094 317.613 1.69093C317.415 1.61327 317.215 1.54292 317.009 1.48284C316.866 1.44794 316.72 1.43088 316.571 1.42655C316.419 1.42899 316.273 1.44524 316.127 1.4723C316.049 1.47961 315.967 1.48555 315.889 1.49178C315.548 1.46147 315.185 1.54021 314.847 1.49611C314.355 1.54211 313.851 1.45227 313.359 1.49286C313.172 1.47175 312.988 1.44685 312.807 1.41276C312.65 1.38245 312.493 1.37217 312.333 1.3784C311.776 1.38408 311.216 1.36784 310.656 1.39301C310.656 1.39301 310.656 1.39246 310.653 1.39246L310.685 1.34754C309.979 1.20521 309.27 1.23471 308.564 1.33023C308.366 1.36243 308.169 1.39435 307.974 1.42655C307.776 1.40274 307.579 1.37867 307.384 1.35458C305.511 1.15163 303.631 1.31426 301.753 1.26393C301.755 1.22037 301.72 1.18518 301.642 1.15948C301.553 1.14351 301.463 1.12727 301.371 1.11158C299.274 0.859924 297.144 1.22253 295.047 0.924332C294.46 0.932724 293.87 0.941093 293.283 0.949486C293.185 0.978439 293.139 1.01146 293.145 1.04799C293.134 1.04528 293.126 1.04313 293.112 1.04042C292.698 1.02744 292.282 1.03121 291.868 1.03175C291.865 1.02229 291.86 1.01254 291.851 1.00361C291.816 0.964912 291.778 0.945709 291.74 0.945709C291.648 0.930016 291.556 0.909164 291.467 0.882919C289.462 0.90403 287.454 0.924866 285.449 0.945976C285.246 0.921623 285.046 0.897255 284.843 0.872902C284.643 0.890221 284.442 0.907272 284.242 0.924591L284.275 0.859108C283.576 0.680244 282.821 0.95031 282.137 0.692154C281.95 0.695946 281.763 0.699448 281.577 0.703239C280.892 0.947861 280.129 0.662117 279.439 0.881035L279.474 0.944084C279.258 0.943001 279.044 0.94191 278.827 0.941101L278.879 0.869125C278.365 0.766838 277.85 0.753571 277.339 0.879669C277.244 0.904564 277.15 0.929466 277.055 0.954361C276.752 0.930275 276.449 0.906464 276.146 0.882378C276.062 0.88887 275.978 0.895103 275.897 0.901329C275.469 0.882385 275.044 0.869659 274.619 0.859375C274.514 0.827713 274.414 0.78064 274.319 0.709198C274.13 0.709198 273.94 0.709198 273.751 0.709198C273.036 0.885361 272.309 0.792007 271.586 0.764946C271.137 0.650482 270.661 0.642097 270.203 0.558479C270.079 0.529793 269.952 0.505165 269.824 0.482704C269.63 0.487572 269.437 0.492447 269.243 0.497314C268.582 0.856674 267.863 0.650742 267.162 0.630447C265.657 0.639648 264.155 0.649124 262.653 0.658325C262.042 0.651558 261.43 0.645065 260.819 0.638031C260.729 0.659142 260.637 0.680779 260.548 0.702698C258.759 0.689713 256.974 0.676727 255.188 0.663467C255.185 0.663467 255.185 0.663193 255.185 0.663193C255.163 0.606369 255.142 0.549011 255.12 0.491371C254.232 0.471344 253.342 0.451584 252.452 0.431831C251.951 0.432098 251.453 0.432373 250.953 0.43264C250.844 0.441841 250.739 0.451317 250.631 0.460785C250.449 0.461052 250.265 0.46106 250.081 0.461601C249.927 0.290581 249.608 0.374184 249.432 0.236992C249.234 0.239967 249.034 0.242676 248.834 0.245926C248.238 0.439949 247.684 0.343338 247.145 0.107918C246.75 0.100067 246.352 0.104668 245.955 0.103859C245.27 0.164742 244.564 -0.00221252 243.893 0.180176C243.863 0.171249 243.833 0.163933 243.801 0.152298C243.473 0.0938492 243.148 0.0713882 242.826 0.174759C242.537 0.257835 242.247 0.340645 241.961 0.423721C240.645 0.445099 239.33 0.466194 238.015 0.487839L238.029 0.435349C237.377 0.0400009 236.594 0.312225 235.891 0.186668C235.683 0.136063 235.474 0.0919571 235.287 -4.57764e-05C235.101 0.00726318 234.914 0.0145645 234.727 0.0215988C234.827 0.235374 234.93 0.44915 235.03 0.662651C233.929 0.671043 232.832 0.679703 231.732 0.688095C230.932 0.56768 230.053 0.92215 229.318 0.439941C229.316 0.439941 229.173 0.432373 229.173 0.432373L229.03 0.448616C228.295 0.696213 227.525 0.520592 226.772 0.553337C225.812 0.451324 224.846 0.277046 223.921 0.678345C223.619 0.686737 223.313 0.694847 223.008 0.703239C222.322 1.21468 221.296 0.603661 220.616 1.1362C219.307 1.25256 217.957 0.942993 216.668 1.29342C216.554 1.22334 216.432 1.16679 216.291 1.13242C214.781 1.00064 213.278 1.00388 211.788 1.26961C211.559 1.30099 211.332 1.32536 211.102 1.34944C210.136 1.32184 209.178 1.42467 208.218 1.51072C207.091 1.52939 205.96 1.51477 204.833 1.51937C204.686 1.48419 204.541 1.43494 204.403 1.36432C204.343 1.42277 204.252 1.46958 204.178 1.52235C203.646 1.52857 203.113 1.54237 202.592 1.42412C202.301 1.3773 202.002 1.38245 201.706 1.37217C201.514 1.38678 201.323 1.40166 201.131 1.41655C200.998 1.51856 200.926 1.64223 200.917 1.78809C200.926 1.8763 200.96 1.95071 201.004 2.01836C200.913 1.98805 200.817 1.98698 200.713 2.01593C200.679 2.03027 200.65 2.04705 200.619 2.06329C197.281 1.88117 193.942 2.11983 190.606 2.07221C189.907 1.97804 189.136 2.28463 188.501 1.8422C188.403 1.84274 188.305 1.84113 188.207 1.83815C187.853 1.39653 187.058 1.81515 186.702 1.37867C186.477 1.21928 186.209 1.1887 185.922 1.22604C183.315 1.80161 180.621 1.26582 177.996 1.60029C176.599 1.6011 175.202 1.6019 173.806 1.60298C172.001 1.35187 170.197 1.47986 168.393 1.60677C168.39 1.68146 168.388 1.75642 168.388 1.83084C167.184 1.75318 165.981 1.67578 164.776 1.59812C164.475 1.61409 164.174 1.63032 163.872 1.64683C162.78 2.06464 161.615 1.7318 160.494 1.8422C159.921 1.89876 159.284 1.67335 158.788 2.07167C157.793 2.19209 156.808 2.39477 155.786 2.30331C155.285 2.38178 154.784 2.46025 154.283 2.53873C154.348 2.57201 154.414 2.60556 154.479 2.63885C154.391 2.6264 154.318 2.59988 154.283 2.53873C153.096 2.33199 151.83 2.93245 150.681 2.32874C150.289 2.32874 149.896 2.32874 149.504 2.32874C149.537 2.48407 150.253 2.74871 149.403 2.7636C148.332 2.78254 147.259 2.77279 146.187 2.7755C144.184 3.41574 142.006 3.06126 139.951 3.42116C139.753 3.4558 139.498 3.29911 139.269 3.23092C138.969 3.24147 138.668 3.25149 138.367 3.26231C138.169 3.40655 137.971 3.55077 137.774 3.69473C137.055 3.68959 136.336 3.68418 135.617 3.67877C135.338 3.70069 135.061 3.72234 134.782 3.74426C134.78 3.80622 134.776 3.86819 134.772 3.92989C133.819 4.54875 132.465 4.3163 131.476 4.85777C130.875 4.85777 130.273 4.85777 129.672 4.85777C128.174 4.85804 126.675 4.85805 125.177 4.85831C125.174 4.93462 125.171 5.01093 125.168 5.08751C124.97 5.08751 124.771 5.08778 124.573 5.08805C123.67 5.15029 122.798 5.43361 121.869 5.32077C121.359 5.03691 120.85 5.01823 120.341 5.31806C119.211 5.10374 118.191 5.57622 117.105 5.6371C117.015 5.69934 116.92 5.74994 116.822 5.79107C116.523 5.78106 116.219 5.75455 115.976 5.92422C115.915 5.92124 115.853 5.91637 115.791 5.9096C115.682 5.92421 115.591 5.95966 115.513 6.0127C114.733 5.92638 113.89 6.23756 113.166 5.79189C113.068 5.78188 112.97 5.77647 112.871 5.77592C112.564 5.63765 112.262 5.61979 111.967 5.79622C111.951 5.80244 111.935 5.81082 111.92 5.81813C111.359 5.29235 110.463 5.73209 109.814 5.46095C108.869 5.40845 107.922 5.47529 106.977 5.42198C106.007 5.26503 105.01 5.291 104.034 5.17356C103.875 5.15787 103.716 5.16653 103.561 5.19846C102.97 5.14298 102.32 5.39572 101.796 4.99496C101.159 4.73708 100.452 4.94328 99.7957 4.81285C99.6517 4.76929 99.5072 4.76901 99.3624 4.81068C99.1625 4.82367 98.9622 4.83666 98.7622 4.84965C97.9734 4.55767 97.1332 4.41832 96.267 4.40154C95.7645 4.39153 95.2877 4.36339 94.8723 4.12093C94.7086 4.12662 94.5446 4.13229 94.3807 4.13798C94.3785 3.92772 94.1734 3.8092 93.9361 3.70556C93.7485 3.69798 93.5613 3.69041 93.3735 3.68283C92.4085 3.22714 91.3583 3.54888 90.3506 3.48556C90.0543 3.47744 89.7577 3.46933 89.4614 3.46121C88.6398 3.06992 87.7265 2.97873 86.7873 2.97305C86.3013 2.7709 85.7298 3.01337 85.2468 2.79607C84.9599 2.77903 84.6731 2.7617 84.3862 2.74466C83.4405 2.5528 82.478 2.70299 81.5246 2.65861C81.3425 2.70271 81.2345 2.79769 81.1994 2.943C81.3347 3.54346 81.5503 4.09738 82.2831 4.34958C82.1944 4.43915 82.1703 4.53115 82.2436 4.62695C82.1446 4.70352 82.0453 4.78011 81.946 4.85669C80.3448 4.77903 78.7442 4.70109 77.1433 4.62289L77.1447 4.62263C74.7412 4.65429 72.3377 4.67917 69.9418 4.85696C69.9418 4.93381 69.9399 5.01039 69.9374 5.08724C68.5355 5.09022 67.1335 5.09347 65.7312 5.09698C65.0398 5.09888 64.3482 5.10078 63.6568 5.10294C63.6519 5.09455 63.647 5.0859 63.6422 5.07751C63.3394 5.08536 63.0363 5.09346 62.7337 5.10104C59.532 5.0572 56.3226 5.19683 53.1331 4.86075C52.9334 4.85858 52.7334 4.85643 52.5334 4.85426C52.4988 4.85967 52.4639 4.86211 52.4292 4.86617C52.5818 4.61721 52.9777 4.57391 53.2326 4.4102C53.2362 4.40614 53.2389 4.40154 53.2421 4.39721C54.8056 4.47352 56.3692 4.54983 57.9322 4.6264C57.9019 4.22213 57.5428 4.18587 57.1234 4.15259C56.8316 4.12932 56.5405 4.09441 56.2655 4.02351C57.2735 4.0181 58.281 4.0614 59.2887 4.04922C59.756 4.04327 60.2391 4.05437 60.6493 3.869C60.6655 3.86954 60.682 3.87062 60.6985 3.87089C60.9518 3.91093 61.2067 3.91473 61.4625 3.88821C61.7734 3.82597 62.0989 3.79134 62.395 3.69771C62.5105 3.69798 62.626 3.69852 62.7416 3.69907C62.7438 4.08035 62.7459 4.46188 62.7481 4.84316C63.0417 4.84262 63.3356 4.84208 63.6292 4.84154C63.9607 4.88943 64.2824 4.85397 64.6001 4.77577C64.7362 4.73708 64.8772 4.71354 65.0195 4.69379C65.3648 4.74628 65.7101 4.79825 66.0551 4.85047C66.0516 4.72086 66.0481 4.59097 66.0448 4.46135C66.0597 4.44917 66.073 4.43644 66.0862 4.42345C66.3108 4.58094 66.5676 4.58528 66.8439 4.49734C66.8631 4.44836 66.8791 4.39748 66.8942 4.34634C66.9102 4.36231 66.9235 4.37664 66.9411 4.39342C69.3302 4.38287 71.7037 4.21888 74.0744 4.00565C75.2139 3.99969 76.3529 4.01133 77.4905 4.09846C77.5538 4.11335 77.6171 4.12797 77.6805 4.14448C77.7035 4.15043 77.7264 4.15665 77.7497 4.16261C78.2879 4.15855 78.8286 4.17776 79.3639 4.14448C80.0899 4.09929 80.4165 3.81163 80.147 3.23552C80.0482 3.23444 79.9497 3.23309 79.851 3.23146C79.8528 3.07884 79.855 2.92651 79.8569 2.77415C80.2284 2.76306 80.4357 2.62396 80.4398 2.32684C79.645 2.31792 78.8503 2.30872 78.0558 2.29951C77.9516 2.30331 77.8469 2.30709 77.7424 2.31088C77.044 2.30493 76.3456 2.2987 75.6469 2.29247C75.5486 2.29816 75.4501 2.30114 75.3514 2.30114C73.9285 1.81351 72.4332 2.16935 70.9749 2.0833C70.1366 2.03351 69.2891 2.07844 68.4456 2.08087C66.5563 2.35418 64.6445 2.29735 62.7378 2.30655C62.3441 2.30574 61.9501 2.30466 61.5564 2.30357C61.5772 2.28382 61.5994 2.26678 61.6183 2.24432C61.6232 2.09521 61.5409 1.9867 61.371 1.9158C60.4942 1.64574 59.5747 1.79539 58.6747 1.74641C53.7108 1.69365 48.752 1.70338 43.83 2.30276C43.7299 2.3025 43.6301 2.30384 43.5305 2.30709C43.58 2.66861 43.1081 2.75954 42.9273 3.00173C42.7279 3.00092 42.5287 2.99983 42.3295 2.99902C42.0874 2.74953 41.7247 2.72977 41.3933 2.77821C39.5196 3.05124 37.5845 2.85642 35.7263 3.23174C34.9995 2.84857 34.2296 2.89809 33.3861 2.96628C32.176 3.06396 30.9434 2.99632 29.7206 2.99957C27.9957 2.75467 26.3186 3.12863 24.6205 3.23335C24.1229 3.3949 23.6269 3.6701 23.1222 3.24445C22.6205 3.23904 22.1188 3.23389 21.6174 3.22821C21.4585 3.37 21.445 3.51775 21.5273 3.6701C21.2624 3.6739 20.9969 3.67795 20.732 3.68201C20.7544 3.28152 20.2714 3.28503 19.9813 3.13458C20.0549 3.01849 20.1088 2.897 20.1126 2.76414C20.115 2.62234 20.1174 2.48055 20.1199 2.33876C19.9329 2.33199 19.7459 2.32549 19.5587 2.31873C19.4396 2.46593 19.3205 2.61287 19.2015 2.76008C19.0291 3.01119 18.9008 3.26854 19.0215 3.55835C19.061 3.62275 19.1197 3.67039 19.1917 3.70583C18.913 3.88497 18.9284 4.12715 18.966 4.37366C18.9363 4.53738 18.9065 4.70136 18.8767 4.86481C18.8112 5.13243 18.9685 5.29506 19.2837 5.38328C19.2843 5.58434 19.2843 5.78485 19.2845 5.98591C19.2469 5.99348 19.209 6.00079 19.1714 6.00837C19.2412 6.1553 19.1444 6.22728 18.9769 6.26787C18.4635 6.74764 19.0507 7.37787 18.6107 7.86739C18.6029 7.9418 18.5875 8.01514 18.5647 8.08766C18.5236 8.35664 18.6386 8.58637 18.8337 8.79636C18.7593 8.80015 18.6852 8.80393 18.6107 8.80772C18.6075 8.80989 18.6048 8.81232 18.6018 8.81448C18.5977 8.78796 18.5942 8.76172 18.5872 8.73331C18.0795 8.46893 17.5716 8.53497 17.0629 8.73061C16.6015 8.9958 16.0157 9.12865 15.6579 9.50777C15.2231 10.0858 14.821 10.673 14.7641 11.36C14.1996 11.8309 14.4648 12.424 14.3682 12.9639C13.5451 13.327 13.6089 14.0449 13.2728 14.6029C13.0371 14.9133 12.8012 15.2239 12.5655 15.5349C12.3855 15.8734 12.4938 16.226 12.4792 16.5726C12.5076 16.6589 12.5606 16.716 12.6285 16.755C12.6126 16.8116 12.5966 16.8684 12.5804 16.9249L12.6946 16.9317C12.6583 17.4702 12.6218 18.0084 12.5847 18.5466L12.6453 18.5556C12.5944 18.7028 12.543 18.8502 12.4922 18.9975C12.4077 19.1428 12.3203 19.2873 12.2432 19.4353C12.1647 19.3985 12.0789 19.4069 11.9867 19.4561C11.7039 19.5503 11.4214 19.6447 11.1386 19.7389C11.144 20.0585 10.9116 20.4178 11.3976 20.6562C11.5053 20.65 11.613 20.6438 11.7209 20.6376L11.7751 20.6148C11.7786 20.6175 11.7821 20.6205 11.7853 20.6235C11.764 20.6281 11.7426 20.6327 11.7209 20.6376C11.7301 20.7788 11.7399 20.9206 11.7493 21.0621C11.37 21.2386 11.6295 21.57 11.4825 21.8033C11.4341 22.0606 11.2955 22.3313 11.6576 22.5293C12.0237 22.6584 11.732 23.0207 11.9783 23.1923C11.5491 23.526 11.7385 23.95 11.7017 24.3407C11.8013 24.3497 11.9012 24.3583 12.0005 24.3673C12.0113 24.4379 12.0191 24.5085 12.0232 24.5794C12.2635 25.3219 13.4614 25.3244 13.8227 25.9727C13.9177 25.9757 14.0124 25.979 14.1071 25.9825C13.9117 26.1351 13.7161 26.2877 13.521 26.4401C13.2025 26.3029 13.0742 25.9308 12.595 25.9925C12.398 25.9938 12.201 25.9952 12.0043 25.9968C11.6149 25.9846 11.2255 25.973 10.8363 25.9611C10.7784 25.8036 10.6707 25.6661 10.5249 25.5441C10.3325 25.4518 10.1401 25.3596 9.94741 25.2675C10.0662 24.6609 9.51201 24.3976 8.97351 24.1264C8.98407 24.0501 8.99462 23.9738 9.00544 23.8972C8.91371 23.8883 8.82414 23.8731 8.73565 23.8526C8.38441 23.9213 8.03317 23.9895 7.68193 24.0577C7.69275 24.0163 7.70168 23.9746 7.70574 23.9319C7.69654 23.8258 7.65839 23.7324 7.58126 23.6569C7.99258 23.6231 8.00205 23.4429 7.83563 23.1988C7.62592 23.1109 7.4162 23.0229 7.20675 22.9347C6.91396 23.0224 6.62144 23.1095 6.32892 23.1969C6.34624 23.4329 6.36329 23.6691 6.38033 23.9051L6.2702 23.8802C6.27832 23.9627 6.28589 24.0452 6.29374 24.1278L6.34732 24.0985C6.53864 24.2804 6.678 24.4963 6.93669 24.6349C7.00813 24.65 7.0774 24.6517 7.14478 24.6419C7.0314 24.7821 7.05819 24.9231 7.17374 25.0638C7.13639 25.4702 7.67273 25.6407 7.80235 25.9787C7.94198 26.0388 8.07484 26.0279 8.20257 25.9565L8.20527 25.9532C8.27157 25.9638 8.3376 25.9749 8.40498 25.9808C8.52188 26.2688 8.24072 26.4517 8.10001 26.6717C8.20067 26.8265 8.30134 26.9813 8.40173 27.136C8.40011 27.2884 8.39848 27.4407 8.39686 27.5931L8.39605 27.5879C8.0007 27.592 7.60481 27.5969 7.20946 27.6012C7.14884 27.6304 7.11421 27.6605 7.10068 27.6908C6.88798 27.6459 6.67745 27.6515 6.46801 27.7121C5.96523 27.9367 6.01908 28.3085 6.04316 28.6725C6.0797 28.8497 6.17684 29.0016 6.35895 29.1163C6.7654 29.4002 6.69261 29.8245 6.87364 30.1746C6.90341 30.2469 6.89854 30.3175 6.85903 30.3868C6.89583 30.5424 6.93263 30.698 6.96943 30.8538C6.69477 31.1285 6.51753 31.4248 6.62306 31.7833L6.57787 31.7565C6.25775 32.311 6.21878 32.8636 6.59438 33.4113C6.61549 33.4892 6.63605 33.565 6.65716 33.6429C6.54756 33.7298 6.43824 33.8145 6.32892 33.9013C5.83426 34.2198 6.10188 34.6763 5.97443 35.0617C5.91219 35.2018 5.87701 35.3534 5.70356 35.447C5.62048 35.4781 5.53281 35.4981 5.44026 35.5025C5.42024 35.5782 5.40535 35.654 5.39534 35.7319L5.42782 35.7119C6.08863 36.1105 5.94926 36.6027 5.69896 37.1085L5.71357 37.1217C5.47273 37.3244 5.42971 37.5515 5.55743 37.8031C5.57367 37.8256 5.59315 37.8432 5.61101 37.8632C5.50087 37.9146 5.41672 37.9904 5.34799 38.0816C5.27519 38.1549 5.20078 38.2285 5.12474 38.2997C5.11283 38.3643 5.10012 38.4312 5.0855 38.4958C5.09362 38.5759 5.10174 38.6585 5.10959 38.7407C4.81247 38.7451 4.51534 38.7497 4.21822 38.7543C3.56526 38.7451 3.6137 39.1172 3.5888 39.4489C3.72491 39.9168 3.41102 40.4401 3.87348 40.8698C3.88755 40.9323 3.90432 40.9946 3.92327 41.0571C4.27721 41.2286 4.20821 41.4957 4.19658 41.7517C4.10511 41.7631 4.01365 41.7696 3.92191 41.7763C3.62317 41.9365 3.32415 42.097 3.02541 42.2575C2.93584 42.3354 2.84627 42.4155 2.7567 42.4956C2.46201 42.6715 2.54617 42.961 2.41547 43.1862H2.41358C2.38625 43.1504 2.34809 43.1082 2.29478 43.0614C1.5398 43.0793 0.770482 42.912 0.0339029 43.1659C-0.157683 43.5915 0.520987 43.5691 0.615968 43.8475C0.807284 43.9276 0.998869 44.0101 1.19046 44.0902C1.31602 44.2418 1.44185 44.3909 1.56741 44.5424C1.52032 44.6093 1.5049 44.6804 1.5214 44.7562C1.77848 45.2084 1.69026 45.696 1.7552 46.1682C1.97141 46.3376 2.18763 46.5089 2.40411 46.6804C3.20617 46.961 4.00824 47.2438 4.81057 47.5244C5.03301 47.7718 5.25571 48.0188 5.47815 48.2661L5.36125 48.2505C5.358 48.3308 5.35475 48.4088 5.35123 48.4889C5.43783 48.941 5.83345 49.2038 6.30051 49.4219C6.30051 49.4219 6.30051 49.4219 6.30051 49.424C6.4258 49.5713 6.55162 49.7182 6.67691 49.8651C6.74889 50.2548 7.13667 50.4174 7.53445 50.5646C8.4913 50.9164 9.20082 51.4576 9.65408 52.1969C9.6538 52.3506 9.65353 52.5021 9.65353 52.6558C9.73011 52.658 9.80318 52.6737 9.87218 52.698C10.1885 52.825 10.2094 53.1413 10.4599 53.3107C10.399 53.413 10.4315 53.4952 10.5603 53.5556C10.8631 53.952 11.1662 54.3484 11.469 54.7449C11.459 54.8983 11.4487 55.0523 11.4387 55.2057C11.7012 55.4019 11.3992 55.7491 11.7583 55.9206C11.843 55.8405 11.9274 55.7626 12.0121 55.6825C12.1074 55.689 12.2023 55.6958 12.2976 55.7001C12.3246 55.8873 12.3834 56.0611 12.6245 56.1569C12.7243 56.3861 12.8242 56.6134 12.924 56.8428C12.664 57.5375 13.0277 58.2345 12.9219 58.9294C12.8112 58.9384 12.7005 58.9451 12.5896 58.9541C12.6158 59.0277 12.6036 59.0988 12.5528 59.1657C12.6886 59.3995 12.8245 59.6333 12.9603 59.8671C13.1873 60.0632 13.4314 60.228 13.8097 60.1477C13.823 60.1366 13.8343 60.1255 13.8465 60.1166C14.1585 60.2835 14.1047 60.5509 14.1301 60.7958C13.9477 60.8783 13.7653 60.9584 13.5832 61.0409C13.7997 61.4617 14.2438 61.7223 14.6894 61.9807C15.0079 62.2768 15.3264 62.5752 15.6449 62.8715C15.738 62.9473 15.8314 63.0206 15.9247 63.0964C16.312 63.19 16.6989 63.2812 17.0859 63.3749C17.8958 63.6644 18.706 63.9539 19.5159 64.2456C19.9602 64.5062 20.3586 64.8491 21.0075 64.749C21.1192 65.1365 21.7992 64.8136 21.9229 65.1854C22.1215 65.1787 22.3201 65.1722 22.5188 65.1654C22.9079 65.2566 23.2967 65.3502 23.6859 65.4439C23.9002 65.6019 24.1148 65.7624 24.3294 65.9204C24.3911 65.925 24.4525 65.9272 24.5142 65.9337C24.995 65.9515 25.5008 65.8625 25.9221 66.1363C26.0287 66.1942 26.1402 66.2435 26.2577 66.2857C27.0018 66.5016 27.7958 66.5885 28.5321 66.8223C28.6319 66.8134 28.7315 66.8023 28.8314 66.7934C28.931 66.8759 29.0305 66.956 29.1301 67.0385C29.2294 67.0607 29.3252 67.0539 29.4175 67.0161C30.3676 67.1254 30.9526 67.7578 31.8037 68.0073C31.9081 68.0809 32.0128 68.1564 32.1176 68.2321C32.3205 68.5349 32.9215 68.5084 33.0336 68.8892C33.322 68.9113 33.6107 68.9338 33.8995 68.956C33.9888 69.025 34.0778 69.0962 34.1671 69.1654C34.5968 69.6219 35.0263 70.0784 35.456 70.5349C35.5055 71.2745 36.2483 71.5884 36.9097 71.9537C37.0146 72.0249 37.1199 72.096 37.2249 72.1675C37.3656 72.4903 37.6538 72.664 38.0971 72.6819C38.3944 72.9003 38.6916 73.1184 38.9887 73.3367C38.9581 73.7421 39.4733 73.9023 39.6444 74.2186C39.8403 74.2922 40.0359 74.3656 40.2318 74.4392C40.6418 74.5994 40.8475 75.0247 41.4108 74.9869C41.7044 75.1717 41.9899 75.3722 42.3728 75.3944C42.388 75.4079 42.4061 75.4168 42.4207 75.4301C42.566 75.5392 42.7295 75.6195 42.9387 75.626C43.1349 75.7218 43.331 75.82 43.527 75.918C43.6282 75.8934 43.7291 75.869 43.83 75.8444C43.9063 75.8823 43.99 75.9001 44.0803 75.8955C44.4513 76.4993 45.2353 76.5815 45.934 76.7731C46.0184 76.7999 46.1061 76.8175 46.1973 76.8242C46.7298 77.1027 47.3595 77.0694 47.9524 77.1495C47.9835 77.1538 48.0144 77.1584 48.0455 77.1606C48.0476 77.1896 48.0487 77.2163 48.0517 77.2431C48.1526 77.3254 48.2538 77.4079 48.355 77.4902C48.9466 77.635 49.5381 77.7797 50.1296 77.9223C50.3258 78.0271 50.5218 78.1315 50.7179 78.2362C51.0372 78.332 51.1658 78.1697 51.2894 78.0003C51.3525 78.6015 52.2268 78.3277 52.5404 78.6573C52.6227 78.6706 52.7058 78.6773 52.7891 78.6773C53.481 79.0848 54.5231 79.0805 54.9621 79.7841C55.3447 79.7862 55.6943 79.8644 56.006 80.0292C56.0052 80.1272 56.0542 80.2095 56.1581 80.2763C56.6 80.174 56.8722 80.6595 57.336 80.4814C58.1381 80.6348 58.9402 80.7864 59.7422 80.9401C60.376 81.2718 61.0993 81.3966 61.8383 81.488C61.9403 81.4613 62.0426 81.4366 62.1449 81.4101C62.2277 81.4388 62.3149 81.4567 62.4058 81.4634C62.5059 81.5457 62.6063 81.6282 62.7067 81.7107C63.2809 81.8777 63.8814 81.7484 64.4659 81.8019C64.8758 81.8977 65.298 81.9421 65.7212 81.9824C66.2421 81.9868 66.7671 82.0157 67.2639 81.8509C67.4547 81.7462 67.6525 81.6415 67.5469 81.4591C67.5532 81.4591 67.5597 81.4613 67.5659 81.4613C67.7502 81.4456 67.935 81.4323 68.1193 81.4188C68.231 81.2786 68.3422 81.1406 68.4537 81.0023C68.5541 80.9958 68.6532 81.0023 68.7509 81.0202C69.097 81.136 69.3973 80.9958 69.7091 80.9201C70.1997 80.7885 70.7022 80.7241 71.2231 80.7642C71.2869 80.7685 71.3508 80.7753 71.4147 80.7818C71.5226 80.7707 71.6306 80.7617 71.7386 80.7531C71.944 80.8421 72.1493 80.929 72.3547 81.018C73.1541 80.9958 73.9534 80.9734 74.7525 80.9512C74.9512 80.9712 75.1498 80.9934 75.3484 81.0158C75.95 81.1517 76.5545 81.1206 77.1598 81.0359L77.1401 80.9669C77.4567 81.0248 77.8382 80.9044 78.078 81.1717C78.4584 81.1896 78.8386 81.205 79.2191 81.2229C79.5433 81.8999 80.2046 81.5056 80.7461 81.4924C80.9515 81.4945 81.1566 81.4967 81.3617 81.4991C81.4375 81.4767 81.5154 81.4677 81.5958 81.4745C82.2539 81.8953 83.0543 81.5546 83.7614 81.7151C84.6493 81.7194 85.5371 81.724 86.425 81.7283C86.5373 81.7061 86.6493 81.6861 86.7613 81.6639C86.8452 81.6929 86.9323 81.7129 87.0233 81.7218C87.519 81.8531 88.0315 81.7684 88.5359 81.7908C88.5438 81.8309 88.5532 81.8688 88.5587 81.9067C89.5231 82.1873 90.5294 82.1648 91.5337 82.1562C92.2827 82.588 93.1394 82.2874 93.9401 82.3678C94.454 82.4189 95.0271 82.2427 95.4587 82.6059C95.7534 82.6884 96.0481 82.7707 96.3431 82.8508C96.7425 83.107 97.1852 83.136 97.6593 83.0002C97.7469 82.969 97.8111 82.9244 97.856 82.8665C98.4256 83.2296 98.3385 83.4234 97.8227 83.5124C97.7285 83.4656 97.6309 83.4234 97.5275 83.3877C97.1457 83.2873 96.766 83.2651 96.3937 83.4144C96.3441 83.441 96.2887 83.461 96.2316 83.4813C95.9732 83.3831 95.715 83.3988 95.4574 83.5346C95.3616 83.5368 95.2655 83.5389 95.1695 83.5414C94.967 83.8063 95.2753 83.8688 95.4633 83.9778C95.5521 83.9957 95.6425 84.009 95.7337 84.0179C96.1588 84.3185 96.6859 84.4165 97.2333 84.4744C97.79 84.6192 98.3466 84.7639 98.9398 84.5948C98.9879 84.5323 99.0258 84.4744 99.0569 84.4211C99.0591 84.4322 99.0629 84.4411 99.0648 84.4522C99.14 84.4633 99.216 84.4679 99.2918 84.4701C99.2623 84.5101 99.2407 84.5523 99.2298 84.6016C99.291 84.7818 99.5132 84.8264 99.675 84.9222C99.8606 84.9266 100.046 84.9309 100.232 84.9377C100.85 84.8576 101.469 84.7775 102.088 84.6971C102.174 84.5569 102.26 84.4165 102.346 84.2763C102.356 84.2917 102.364 84.3074 102.376 84.3231C102.743 84.6882 102.977 85.1514 103.586 85.3473L103.546 85.4231C103.746 85.5324 103.95 85.5389 104.159 85.4388C104.352 85.4366 104.544 85.4366 104.737 85.4345C105.089 85.6393 105.525 85.6415 105.926 85.7305C106.46 85.5657 107.043 86.0068 107.563 85.6526C107.572 85.6415 107.579 85.6326 107.587 85.6236C107.878 85.628 108.174 85.6215 108.369 85.8507C109.171 85.6304 109.971 86.3296 110.773 85.8507C110.935 85.7151 110.949 85.5636 110.871 85.3988C111.734 85.3988 112.598 85.3966 113.461 85.3942L113.46 85.3988C113.462 85.4745 113.464 85.55 113.468 85.6236C113.968 85.6236 114.469 85.6236 114.969 85.6215C114.968 85.5857 114.967 85.5479 114.966 85.5124C115.465 85.5346 115.982 85.4077 116.46 85.6147C116.653 85.7083 116.846 85.8017 117.038 85.8931C117.047 85.96 117.061 86.0247 117.08 86.0869C117.472 86.1716 117.864 86.2585 118.256 86.3432C118.563 86.5659 118.871 86.7886 119.178 87.0113C119.572 87.0892 119.967 87.1671 120.361 87.2451C120.791 86.873 121.371 87.0778 121.879 87.0088C122.273 87.0134 122.668 87.0178 123.062 87.0199C123.267 87.2829 123.618 87.2294 123.926 87.2694C123.894 87.3363 123.906 87.4074 123.97 87.4832C124.842 87.7616 125.73 87.94 126.675 87.7194C126.97 87.6347 127.264 87.5525 127.559 87.4699C127.627 87.3942 127.638 87.3252 127.605 87.2583C128.484 87.2651 129.362 87.2716 130.241 87.2784C130.252 87.3406 130.262 87.4031 130.271 87.4678C130.37 87.4832 130.469 87.4989 130.569 87.5143C130.667 87.5078 130.765 87.4989 130.863 87.4921C132.347 87.7238 133.847 87.5322 135.338 87.5947C135.912 87.5922 136.486 87.6125 137.058 87.5836C137.344 87.5679 137.584 87.4943 137.45 87.2472C137.459 87.2472 137.468 87.2472 137.478 87.2472C137.674 87.2518 137.87 87.2562 138.066 87.2627C138.162 87.2451 138.26 87.2361 138.359 87.2383C138.348 87.1647 138.359 87.0957 138.391 87.0267C138.761 86.9734 138.851 86.5702 139.287 86.5991C139.68 86.577 140.073 86.5523 140.466 86.528C141.149 86.2806 141.911 86.5856 142.594 86.3432C142.774 86.3253 142.954 86.3053 143.134 86.2874C143.145 86.3139 143.158 86.3407 143.179 86.3675C143.579 86.4565 143.978 86.4855 144.371 86.3453C144.57 86.3432 144.769 86.3407 144.968 86.3386C144.991 86.6102 145.157 86.7661 145.526 86.7683C146.048 86.3764 146.571 85.9868 147.094 85.5968C147.204 85.5346 147.315 85.4721 147.425 85.412C147.519 85.2605 147.613 85.1114 147.707 84.9598C147.894 84.8641 148.081 84.7707 148.268 84.6749C148.28 84.3854 148.293 84.0958 148.306 83.8084C148.582 83.6726 148.836 83.4899 149.207 83.5592L149.179 83.5257C149.675 83.4456 150.171 83.3652 150.668 83.2873C150.871 83.2118 151.075 83.1382 151.278 83.0624C152.471 83.0602 153.665 83.0559 154.858 83.0513C154.961 83.2407 155.358 83.136 155.484 83.3008L155.49 83.3051C155.783 83.3119 156.076 83.3208 156.369 83.3276C156.454 83.3119 156.539 83.2962 156.624 83.2829C156.662 83.4077 156.745 83.5167 156.877 83.6058C156.964 83.6482 157.055 83.6837 157.148 83.7172C157.194 83.793 157.24 83.8663 157.286 83.9421C157.158 84.0715 157.115 84.2027 157.183 84.3342C156.485 84.2095 156.023 84.381 155.925 85.0067C155.97 85.2161 156.205 85.2851 156.396 85.3877C156.622 85.4231 156.891 85.392 156.987 85.6236C157.089 85.6125 157.191 85.6014 157.294 85.5903C157.38 85.6147 157.469 85.6304 157.561 85.6347C157.578 85.6815 157.594 85.7305 157.611 85.7773C157.586 85.7974 157.56 85.8152 157.535 85.8331C157.517 86.637 158.286 87.1203 158.805 87.7059C158.996 87.6972 159.186 87.688 159.377 87.6794C159.584 87.8417 159.79 88.0044 159.997 88.1648C160.207 88.3675 160.482 88.4812 160.806 88.5323C161.242 88.5099 161.658 88.6435 162.092 88.637C162.692 88.6392 163.291 88.6392 163.89 88.6414C164.19 88.637 164.49 88.6324 164.79 88.6281C166.091 88.6303 167.392 88.6346 168.693 88.6392C169.696 88.6414 170.699 88.6457 171.702 88.6503C171.775 88.6592 171.848 88.6682 171.92 88.6771C172.655 88.7326 173.388 88.6993 174.121 88.6435C174.49 88.6324 174.864 88.6592 175.228 88.5835C175.806 88.2671 176.436 88.207 177.108 88.3586C177.778 88.0712 178.687 88.2761 179.236 87.7416C179.39 87.4632 179.176 87.3051 178.926 87.156C178.91 87.1493 178.893 87.1468 178.878 87.1425C178.883 87.0979 178.889 87.0535 178.896 87.0088C179.002 86.942 179.108 86.873 179.215 86.8062C179.215 86.8062 179.215 86.8062 179.215 86.804C180.408 86.7951 181.602 86.7861 182.795 86.7772C183.201 86.7861 183.608 86.7972 184.014 86.8062C184.176 86.8018 184.338 86.7972 184.5 86.7929C184.705 86.8151 184.91 86.8197 185.115 86.775C185.137 86.775 185.16 86.7729 185.183 86.7729C185.228 86.7572 185.259 86.7393 185.28 86.7193C185.381 86.6814 185.476 86.6324 185.556 86.5659C185.557 86.5567 185.558 86.5502 185.559 86.5412C185.78 86.5412 186 86.5412 186.218 86.5412C186.586 86.5856 186.965 86.5591 187.339 86.5412C187.622 86.5412 187.905 86.5434 188.187 86.5434C188.25 86.5212 188.285 86.4966 188.301 86.4701C188.339 86.4565 188.379 86.4476 188.414 86.4322C188.472 86.3986 188.508 86.3607 188.53 86.3207C188.989 86.4676 189.452 86.4877 189.916 86.4119C190.063 86.4211 190.209 86.4387 190.354 86.4609C190.86 86.8419 191.544 86.7593 192.178 86.804C192.339 86.7818 192.488 86.735 192.626 86.666C192.771 86.577 192.8 86.4676 192.715 86.3407L192.702 86.3118C192.704 86.3096 192.706 86.3074 192.706 86.3074C192.762 86.3542 192.82 86.4008 192.875 86.4476C194.234 86.8419 195.644 86.5856 197.027 86.6414C197.579 86.6571 198.12 86.5166 198.673 86.5212C198.555 86.5724 198.47 86.6525 198.423 86.7707C198.163 86.6102 197.875 86.6703 197.583 86.7572C197.064 87.0045 196.541 86.8262 196.011 86.7818C195.292 86.7193 194.539 86.568 193.918 87.0289C193.898 87.0467 193.882 87.0602 193.864 87.0757C193.871 87.04 193.882 87.0021 193.911 86.9555C193.742 86.8508 193.548 86.8062 193.336 86.7951C193.114 86.7886 192.902 86.824 192.702 86.9019C192.461 87.0489 192.256 87.2093 192.417 87.4767C192.617 87.55 192.817 87.6258 193.016 87.6994C193.109 87.7081 193.2 87.7148 193.292 87.7238C193.697 87.7173 194.103 87.7105 194.51 87.7059C194.53 87.6591 194.535 87.619 194.53 87.5858C194.546 87.6125 194.541 87.6526 194.51 87.7059C194.706 87.7059 194.9 87.7059 195.096 87.7059C195.225 87.5235 195.441 87.5011 195.677 87.5167C196.434 87.6769 197.205 87.5657 197.969 87.5836C198.071 87.5525 198.16 87.5167 198.238 87.4767C199.178 87.481 200.118 87.4832 201.058 87.4878C201.022 87.5633 201.047 87.628 201.122 87.688C201.218 87.7059 201.312 87.7305 201.399 87.7662C201.652 87.7349 201.893 87.7284 202.015 87.9554C202.102 87.9465 202.191 87.9375 202.278 87.9308C202.381 87.8685 202.485 87.8085 202.594 87.7484C202.777 87.6769 202.964 87.6101 203.171 87.5858C204.069 87.5922 204.969 87.5322 205.868 87.5057C205.991 87.5078 206.113 87.5078 206.236 87.51C206.434 87.5057 206.63 87.5011 206.828 87.4967C207.185 87.5011 207.541 87.5121 207.897 87.5433C208.069 87.5947 208.24 87.6147 208.412 87.6036C208.481 87.6125 208.55 87.619 208.619 87.628C208.982 87.7127 209.347 87.7838 209.726 87.8085C209.877 87.8217 210.031 87.8263 210.182 87.8263C210.875 87.8263 211.565 87.8263 212.258 87.8263C212.632 87.7952 213.022 87.9021 213.383 87.7595C213.369 87.7884 213.36 87.8196 213.358 87.8528C214.53 88.3654 215.839 87.8306 217.037 88.1426L217.009 88.2049C217.207 88.1892 217.405 88.1738 217.603 88.1581C217.839 88.0823 218.031 87.98 217.993 87.7462C218.501 87.9132 219.04 87.7838 219.558 87.8263C219.61 87.8285 219.661 87.8242 219.712 87.8196C219.716 87.8574 219.723 87.8953 219.725 87.9308C220.318 87.9486 220.908 87.9643 221.498 87.9822C221.61 87.9643 221.723 87.9486 221.835 87.9308C222.024 87.94 222.211 87.9465 222.398 87.9532C222.438 88.4565 222.953 88.2382 223.307 88.2585C224.977 88.1137 226.65 88.1559 228.32 88.2338C228.877 88.3096 229.476 88.265 229.95 88.5745C230.369 88.6571 230.77 88.6457 231.13 88.4365C231.427 88.4298 231.725 88.4208 232.021 88.4143C233.053 88.5835 234.094 88.7104 235.149 88.7883C235.315 88.8062 235.48 88.7972 235.642 88.7639C235.964 88.7239 236.321 88.8283 236.6 88.6192V88.6167C239.468 88.6281 242.337 88.6414 245.205 88.6525C245.208 88.6546 245.208 88.6546 245.208 88.6546C245.221 88.7171 245.246 88.7772 245.281 88.8373C246.26 88.8508 247.243 88.8662 248.228 88.8798C248.228 88.9398 248.228 88.9977 248.225 89.0578C249.232 89.0667 250.238 89.0735 251.245 89.0824C251.334 89.1046 251.423 89.1225 251.515 89.1358C252.119 89.1336 252.722 89.129 253.326 89.1268C253.337 89.1847 253.356 89.2426 253.383 89.2962C253.864 89.3184 254.346 89.3406 254.83 89.3631C256.237 89.3606 257.647 89.3606 259.054 89.3585L259.03 89.3252C259.122 89.2916 259.157 89.2562 259.141 89.2161C260.394 89.1826 261.652 89.3116 262.897 89.1314C262.875 89.1915 262.892 89.2562 262.954 89.3227C263.159 89.3985 263.365 89.4743 263.571 89.55C263.749 89.5633 263.928 89.5744 264.107 89.5879C264.22 89.5744 264.334 89.5611 264.45 89.5479C265.627 89.5411 266.807 89.5368 267.982 89.53C267.998 89.5032 268.011 89.4764 268.022 89.4499C268.065 89.4542 268.109 89.4586 268.155 89.4564C269.732 89.4989 271.318 89.6458 272.885 89.3696C273.069 89.3806 273.256 89.392 273.437 89.4031C273.429 89.3631 273.429 89.3252 273.44 89.2873C273.542 89.3051 273.645 89.3227 273.745 89.3406C275.307 89.8174 276.944 89.4475 278.535 89.5923C280.142 89.875 281.75 89.7259 283.357 89.579L283.36 89.5744C283.46 89.5836 283.56 89.5923 283.658 89.599C284.859 89.5947 286.061 89.5923 287.262 89.5879C287.359 89.5744 287.457 89.5657 287.552 89.5568C287.638 89.5076 287.727 89.4675 287.814 89.4364C288.431 89.4321 289.045 89.3785 289.66 89.3517C289.67 89.3517 289.684 89.3495 289.695 89.3495C289.803 89.3452 289.914 89.3406 290.022 89.3384C291.868 89.3184 293.705 89.1468 295.553 89.2183C296.192 89.178 296.841 89.3116 297.466 89.1268C297.772 89.0489 298.173 89.2004 298.386 88.8998C298.478 88.8108 298.625 88.7483 298.7 88.6503C299.593 88.8283 300.494 88.7994 301.393 88.6592C301.88 88.6392 302.367 88.6213 302.854 88.6035C303.355 88.5277 303.853 88.4519 304.353 88.3762C304.394 88.3028 304.402 88.2382 304.378 88.1824C304.575 88.1781 304.767 88.1738 304.965 88.1692C305.273 88.1759 305.584 88.1849 305.896 88.1916C306.082 88.1713 306.269 88.1535 306.456 88.1359C306.856 88.0579 307.257 87.98 307.66 87.9021C308.071 87.98 308.469 87.9665 308.864 87.9199C309.573 87.8818 310.282 87.6837 310.986 87.8039C311.657 87.8528 312.317 87.8106 312.977 87.7505C312.991 87.7505 313.004 87.7505 313.018 87.7505C313.061 87.7462 313.107 87.7395 313.151 87.7349C313.827 87.6683 314.506 87.5901 315.185 87.5747C315.751 87.5479 316.327 87.5836 316.871 87.4699C317.088 87.4699 317.304 87.4699 317.523 87.4699C317.526 87.3942 317.526 87.3162 317.526 87.2383C317.564 87.1736 317.588 87.1092 317.61 87.0399C318.105 86.6592 318.546 86.2317 319.188 85.9822C319.464 85.98 319.704 85.9465 319.694 85.6794C319.999 85.9554 320.56 85.842 320.89 86.0801C321.369 86.3275 321.095 86.706 321.166 87.0245C321.477 87.2115 321.772 87.2115 322.048 86.9823C322.521 86.7328 323.033 86.5101 323.314 86.0958C323.387 86.0222 323.46 85.9486 323.536 85.8775C323.642 85.7238 323.715 85.57 323.631 85.4077C323.818 85.3363 324.007 85.2672 324.196 85.1982L324.142 85.1135C324.356 85.0445 324.57 84.9755 324.784 84.9065C324.784 84.9065 324.746 84.9845 324.746 84.9866C325.336 84.8175 326.053 85.1314 326.57 84.6928C326.662 84.6882 326.756 84.6817 326.851 84.6771C327.165 84.4544 327.476 84.2317 327.79 84.009C327.858 84.0068 327.925 84 327.993 83.9957C328.071 84.1291 328.196 84.2227 328.391 84.2517C328.832 83.9889 329.368 84.009 329.874 83.951C330.039 83.8285 330.05 83.7062 329.874 83.5814C329.479 83.5525 329.078 83.5213 328.683 83.4924C328.567 83.4366 328.448 83.4277 328.32 83.4656C328.266 83.4945 328.22 83.5257 328.177 83.5592C327.958 83.5389 327.739 83.5213 327.519 83.5035C327.225 83.4431 326.927 83.3855 326.626 83.3254C326.185 83.274 325.739 83.2161 325.422 83.5303C325.403 83.51 325.393 83.4924 325.376 83.4724C325.184 83.392 324.989 83.3877 324.792 83.4523C324.786 83.4545 324.786 83.4567 324.784 83.4588C324.794 83.3408 324.808 83.225 324.822 83.107C324.816 83.0735 324.813 83.0402 324.811 83.0069C324.903 83.0045 324.997 82.9977 325.089 82.9823C325.506 82.8732 325.939 82.8686 326.375 82.8797C326.437 82.8776 326.499 82.8732 326.562 82.8686C326.813 82.7574 326.859 82.5905 326.775 82.39C326.775 82.39 326.916 82.3564 326.916 82.3542C326.908 82.2162 326.902 82.0758 326.894 81.9356C326.889 81.7751 326.889 81.615 326.884 81.4523L326.875 81.4434C327.197 81.2139 327.519 80.9869 327.844 80.7596L327.763 80.7507C327.777 80.7374 327.793 80.7285 327.806 80.7174C327.82 80.7306 327.831 80.7439 327.844 80.7596C328.123 80.7574 328.399 80.7574 328.68 80.7553C328.78 80.7617 328.881 80.7707 328.983 80.7774C329.419 80.7885 329.82 80.6884 330.185 80.5125C330.112 80.2763 329.836 80.3009 329.617 80.2541C329.587 80.2874 329.554 80.3163 329.517 80.341C329.319 80.0468 329.124 79.7529 328.929 79.4591C328.962 79.4166 328.994 79.3765 329.027 79.3343C329.111 79.1985 329.197 79.0626 329.281 78.9268C329.562 78.831 329.787 78.6973 329.849 78.4457C329.213 78.4189 329.222 78.1093 329.341 77.7508C329.508 77.6818 329.679 77.6128 329.847 77.5438C330.456 77.508 331.064 77.4723 331.673 77.4369C331.671 77.2964 331.671 77.1584 331.668 77.0204C331.865 76.8911 332.066 76.762 332.263 76.6305C331.389 76.2876 330.496 76.1875 329.576 76.5304C329.495 76.5683 329.406 76.5883 329.311 76.5904C329.046 76.7263 328.751 76.5726 328.477 76.6373C328.101 76.7174 327.709 76.782 327.465 77.0337C327.425 77.0115 327.384 76.989 327.344 76.9669C327.252 76.9647 327.17 76.989 327.095 77.0269C326.875 76.8578 326.873 76.6305 326.84 76.4102C326.854 76.4078 326.87 76.4056 326.884 76.4035C326.951 76.3434 326.978 76.2833 326.965 76.2208C327.07 76.2609 327.192 76.2787 327.319 76.2833C327.484 76.2698 327.633 76.2251 327.771 76.1494C327.858 76.1207 327.947 76.105 328.044 76.1028C327.901 75.7286 326.973 75.7911 327.214 75.2052C327.252 74.9557 327.127 74.8578 326.805 74.9447C326.792 74.9603 326.781 74.9758 326.767 74.9893C326.721 74.9758 326.675 74.9647 326.624 74.9557C326.667 74.8867 326.651 74.8156 326.562 74.742C326.12 74.5526 326.675 74.4324 326.621 74.2698C326.713 74.1943 326.808 74.1161 326.902 74.0403C326.87 73.9802 326.827 73.9291 326.775 73.8779C326.802 73.8533 326.829 73.829 326.859 73.8022C327.046 73.6774 327.065 73.5237 326.989 73.3546C326.84 73.1763 326.626 73.1029 326.378 73.094C326.483 73.0136 326.562 72.9157 326.635 72.8156C326.878 72.3612 327.541 72.486 327.947 72.2543C327.985 72.2121 328.02 72.1675 328.055 72.125C328.058 72.0517 328.055 71.9802 328.044 71.9091C328.109 71.8244 328.18 71.7399 328.247 71.6552C328.272 71.6552 328.299 71.6531 328.323 71.6506C328.45 71.6173 328.559 71.5616 328.648 71.4858C328.651 71.495 328.651 71.5059 328.651 71.5172C328.918 71.711 329.249 71.78 329.6 71.8043C330.085 71.7689 330.315 71.5037 330.512 71.2077C330.761 70.7844 331.248 70.6418 331.792 70.5707C331.998 70.5485 332.198 70.5128 332.396 70.4727C332.929 70.3323 333.511 70.3858 334.046 70.2432C334.225 70.1897 334.377 70.1231 334.515 70.0427C334.653 70.0427 334.796 70.0452 334.939 70.0452C335.091 69.8647 335.316 69.8579 335.556 69.8958C335.635 69.8779 335.713 69.8625 335.792 69.8446C335.8 69.8468 335.808 69.8468 335.813 69.8468C336.425 69.8357 337.037 69.8468 337.648 69.8357C337.756 69.8357 337.865 69.8357 337.973 69.8357C337.973 69.8311 337.973 69.8268 337.976 69.8222C338.184 69.8022 338.371 69.7488 338.506 69.6173C338.749 69.8758 339.174 69.8779 339.494 70.0295L339.475 70.1006C339.672 70.0852 339.864 70.0717 340.059 70.0563C340.408 69.9025 340.73 69.7443 340.365 69.3946C340.173 69.3746 339.981 69.3568 339.789 69.3367C339.499 69.3457 339.207 69.3567 338.915 69.3657C338.806 69.2988 338.687 69.2877 338.557 69.3278C338.546 69.3435 338.538 69.3592 338.528 69.3746C337.986 69.1008 337.315 69.4304 336.771 69.1654C336.176 69.0986 335.529 69.2409 334.993 68.9135C334.975 68.8448 334.977 68.7777 334.999 68.7087C335.51 68.546 336.019 68.3837 336.528 68.2189C336.512 68.1431 336.495 68.0652 336.479 67.9894C336.931 67.9361 337.077 67.3903 337.662 67.5551C338.392 67.5573 339.107 67.4661 339.789 67.2545V67.2566C340.281 67.2723 340.776 67.2902 341.269 67.3102C341.759 67.2923 342.248 67.2745 342.735 67.2545C342.779 67.2011 342.808 67.143 342.833 67.0807C343.009 67.0629 343.187 67.045 343.369 67.0296C343.425 66.956 343.436 66.8913 343.406 66.8312C344.597 66.8312 345.79 66.8312 346.984 66.8312C346.984 66.8891 346.981 66.9492 346.981 67.0074C347.679 67.0274 348.38 67.045 349.078 67.065L349.062 67.0807C349.086 67.0807 349.108 67.0807 349.13 67.0807C349.103 67.1319 349.097 67.1898 349.111 67.2523C349.197 67.2677 349.289 67.2834 349.379 67.2967C350.077 67.2923 350.775 67.2902 351.479 67.2856L351.481 67.2834C351.549 67.2011 351.554 67.1254 351.514 67.0564C351.603 67.045 351.69 67.0339 351.776 67.0207C351.809 67.0629 351.86 67.1118 351.939 67.1654C352.599 67.2233 353.275 67.065 353.919 67.2656C354.109 67.3481 354.296 67.4303 354.48 67.515C354.577 67.5976 354.674 67.682 354.769 67.7667C355.278 67.6777 355.876 67.9182 356.298 67.515C356.59 67.515 356.885 67.5129 357.177 67.5104C357.324 67.3191 357.54 67.2834 357.8 67.3413C357.895 67.3213 357.987 67.2945 358.073 67.2677C358.162 67.2076 358.211 67.1386 358.23 67.0585C358.693 67.0696 359.158 67.0807 359.621 67.0918C359.667 67.0829 359.71 67.0718 359.754 67.0607C359.797 67.0764 359.837 67.0918 359.881 67.1054C359.967 67.0807 360.059 67.0675 360.149 67.065C360.26 67.1787 360.368 67.2923 360.476 67.406C360.454 67.426 360.436 67.446 360.417 67.4704C360.376 67.5751 360.379 67.682 360.43 67.7846C360.441 67.7913 360.452 67.7935 360.46 67.8C360.419 67.8379 360.414 67.8847 360.449 67.9448C360.576 68.0451 360.703 68.1453 360.833 68.2432C361.028 68.0895 361.22 67.9337 361.412 67.78C361.651 67.7532 361.91 67.7556 362.013 67.5329C362.595 67.475 363.128 67.1408 363.761 67.3367C363.956 67.4036 364.151 67.4728 364.346 67.5394C364.338 67.5908 364.332 67.642 364.34 67.6977C364.641 67.9515 364.982 67.8893 365.331 67.7756C365.65 67.4593 365.967 67.1408 366.283 66.8245C366.14 66.6664 365.991 66.5106 365.848 66.3547C365.891 66.29 365.915 66.221 365.926 66.1499C365.731 65.7245 365.29 65.6598 364.789 65.6844C364.757 65.6909 364.725 65.6999 364.692 65.7088C364.689 65.6999 364.689 65.6931 364.689 65.6866C364.167 65.4171 363.585 65.613 363.036 65.5529C362.876 65.6019 362.782 65.6931 362.755 65.8246C362.755 65.8536 362.757 65.8803 362.765 65.9047C362.416 65.9872 362.07 66.0673 361.724 66.1477C361.561 66.2232 361.377 66.2746 361.269 66.4037C360.898 66.3726 360.53 66.3414 360.162 66.3101C359.935 66.3501 359.667 66.3279 359.572 66.5574C359.107 66.7043 358.517 66.4037 358.116 66.7755C358.079 66.74 358.033 66.7089 357.973 66.6821C357.835 66.6264 357.686 66.5907 357.532 66.5706C356.985 66.5173 356.436 66.5263 355.884 66.5263C355.562 66.5417 355.24 66.5574 354.977 66.7C354.75 66.6196 354.528 66.5328 354.323 66.4194C354.114 66.3057 353.928 66.161 353.689 66.0852C353.919 66.0116 354.022 65.8625 354.047 65.6598C354.098 65.6441 354.152 65.6287 354.204 65.613C354.501 65.6441 354.802 65.6755 355.099 65.7066C355.389 65.6844 355.678 65.662 355.968 65.6376C356.041 65.584 356.084 65.524 356.092 65.4528C356.333 65.4972 356.547 65.4103 356.769 65.357C357.313 65.1833 357.873 65.2301 358.436 65.2812C358.56 65.2858 358.685 65.2858 358.812 65.2858C359.118 65.2076 359.345 65.0675 359.497 64.8626C359.648 64.9427 359.81 64.9963 360 65.0074C360.054 64.9806 360.111 64.9538 360.162 64.927C360.454 65.268 360.885 65.3391 361.404 65.2477C361.897 65.1454 362.389 65.0428 362.882 64.9405C362.887 64.878 362.893 64.8158 362.903 64.7533C363.096 64.6821 363.288 64.611 363.48 64.5395C363.78 64.4394 364.081 64.3414 364.381 64.2411C364.681 64.1834 364.979 64.1252 365.274 64.0673C365.385 64.0673 365.496 64.0673 365.607 64.0673C365.699 63.9783 365.793 63.8893 365.888 63.8002C365.988 63.7824 366.088 63.7667 366.191 63.7491C366.297 63.7578 366.402 63.7645 366.505 63.7735C366.678 63.8403 366.849 63.9071 367.022 63.9718C367.057 64.1342 367.184 64.2346 367.398 64.2835C367.888 64.1988 368.383 64.112 368.878 64.0273C368.992 63.8914 369.106 63.7556 369.219 63.6198C369.622 63.3681 370.218 63.6598 370.61 63.3838C370.632 63.3949 370.653 63.406 370.678 63.4171C370.981 63.4639 371.216 63.337 371.463 63.239C371.665 63.1922 371.866 63.1411 372.066 63.0875C372.291 63.0853 372.515 63.081 372.742 63.0786C372.816 62.8293 373.357 62.9584 373.341 62.6356C373.419 62.5108 373.519 62.415 373.727 62.4751C373.768 62.4573 373.811 62.4394 373.855 62.4215C374.242 62.4619 374.507 62.1277 374.886 62.1455C374.888 62.1255 374.888 62.103 374.891 62.0808C374.961 62.0787 375.037 62.0765 375.113 62.0787C375.254 62.0608 375.389 62.0275 375.519 61.9829C375.549 61.9718 375.578 61.9607 375.605 61.9496C375.879 61.9539 376.149 61.9583 376.423 61.9607C376.507 61.9496 376.59 61.9407 376.674 61.9317C376.774 61.905 376.815 61.8738 376.812 61.8338C376.823 61.8424 376.837 61.8538 376.85 61.8603C377.464 62.0208 378.103 61.9228 378.731 61.9518C379.291 61.9607 379.867 61.896 380.387 62.1344C381.234 62.2299 382.057 62.2456 382.739 61.7491C382.831 61.7467 382.914 61.7291 382.993 61.6933C383.09 61.4974 383.001 61.3681 382.839 61.2636C383.236 61.1857 383.618 61.0877 383.889 60.8226C383.699 60.7982 383.507 60.7736 383.318 60.7492C383.142 60.6578 382.95 60.5888 382.728 60.582C382.362 60.5687 382.046 60.6735 381.745 60.8136C381.556 60.8916 381.372 60.9695 381.202 61.0674C381.199 61.0653 381.199 61.0653 381.196 61.0653C381.118 61.0252 381.034 60.9941 380.947 60.9673C381.031 60.8761 381.055 60.7825 381.009 60.6867C381.036 60.6688 381.064 60.651 381.085 60.6288C381.164 60.6488 381.242 60.6645 381.326 60.671C381.653 60.6667 381.97 60.602 382.297 60.5931C382.63 60.582 382.963 60.5687 383.28 60.4773C383.545 60.3972 383.721 60.2367 383.878 60.0654C383.91 59.994 383.902 59.925 383.859 59.8584C383.897 59.7937 383.932 59.7269 383.962 59.6579C383.588 58.8805 382.63 59.5307 382.073 59.1989C381.699 59.1835 381.326 59.1678 380.953 59.1521C380.85 59.072 380.747 58.9919 380.641 58.9118C380.49 58.6288 380.836 58.4664 380.915 58.2391C380.855 57.9696 380.503 57.9317 380.303 57.7759C380.1 57.7848 379.897 57.7959 379.694 57.8048C379.608 57.7848 379.521 57.7669 379.432 57.7515C378.428 57.7691 377.421 57.787 376.417 57.8048C376.193 57.7491 375.9 57.7715 375.865 57.5063C375.849 57.4595 375.827 57.4173 375.8 57.3751C376.147 57.219 376.109 56.8361 376.406 56.6512C376.912 56.6134 377.318 56.2591 377.87 56.3639C377.989 56.3371 378.035 56.2995 378.011 56.2527C378 56.2348 377.992 56.2234 377.981 56.2123C378.477 56.1945 378.807 55.9674 379.058 55.6489C380.249 55.0276 381.656 55.003 383.001 54.796C383.161 54.865 383.296 54.8428 383.404 54.727C383.434 54.6602 383.445 54.5912 383.442 54.5243C383.596 54.5243 383.751 54.5222 383.908 54.5222C384.622 54.5308 385.334 54.5376 386.048 54.5465C386.135 54.5376 386.216 54.5443 386.3 54.569C386.492 54.629 386.622 54.5822 386.689 54.4285C386.678 54.3817 386.66 54.3395 386.635 54.3016C387.528 54.4732 388.421 54.4643 389.314 54.297L389.309 54.2905C389.915 53.8516 390.691 54.1701 391.36 54.0232C391.384 53.9631 391.398 53.9009 391.398 53.8384C391.298 53.6468 391.135 53.502 390.908 53.404C391.032 53.3483 391.135 53.2725 391.216 53.1746C391.308 52.9965 391.271 52.8385 391.095 52.7002C390.905 52.7026 390.716 52.7048 390.526 52.7048C389.55 52.8875 388.562 52.7427 387.582 52.7895C387.252 52.8028 386.914 52.747 386.597 52.8653C386.586 52.8807 386.581 52.8964 386.576 52.9097C386.08 52.8561 385.537 53.0187 385.101 52.7048L384.957 52.6802L384.811 52.6823C384.216 52.8628 383.615 52.8139 383.012 52.7181C382.511 52.609 382.013 52.5 381.518 52.3906C381.41 52.3484 381.299 52.3417 381.185 52.3685C381.112 52.3974 381.053 52.4331 381.007 52.4775C380.574 52.4532 380.138 52.4285 379.705 52.4042C379.394 52.3574 379.085 52.3105 378.774 52.2637C378.698 52.1947 378.623 52.1279 378.547 52.0589C378.977 52.0835 379.364 51.972 379.702 51.7404L379.724 51.7515C379.819 51.6671 379.93 51.6002 380.057 51.551C380.747 51.4062 381.518 51.6735 382.157 51.295C382.435 51.3039 382.714 51.3128 382.996 51.3218C383.093 51.2971 383.19 51.275 383.285 51.2528C383.299 51.177 383.285 51.1102 383.25 51.0522C383.269 51.0501 383.291 51.0501 383.31 51.0479V51.0501C383.905 51.0322 384.5 51.0144 385.095 50.9989C385.104 50.9364 385.106 50.8739 385.109 50.8139C385.301 50.8095 385.493 50.8074 385.683 50.8052C385.715 50.8496 385.772 50.8985 385.859 50.95C386.256 51.0769 386.622 51.0211 386.965 50.8339C387.244 50.8185 387.52 50.8028 387.796 50.7849C387.977 50.7094 388.188 50.6669 388.275 50.5C388.356 50.2773 388.313 50.0767 388.096 49.9052L387.95 49.8852L387.807 49.9141C387.709 49.8272 387.615 49.7404 387.52 49.6535C387.469 49.5377 387.358 49.4687 387.241 49.4019C387.301 49.3886 387.363 49.3775 387.42 49.3575C387.482 49.3218 387.544 49.2885 387.604 49.2528C388.023 49.5266 388.613 49.3418 389.071 49.5133C389.455 49.4933 389.874 49.6492 390.21 49.3843C391.276 48.8474 390.188 48.7559 389.904 48.5C389.558 48.2415 389.062 48.4978 388.703 48.2883C388.602 48.284 388.5 48.2794 388.397 48.2729L388.413 48.2505C387.755 48.0989 387.082 48.0323 386.397 48.0302C386.389 48.0077 386.381 47.9923 386.37 47.9923C386.162 47.8854 385.877 47.9433 385.683 47.8075C384.99 47.8118 384.294 47.8186 383.599 47.8229C382.549 47.3353 381.41 47.6159 380.303 47.6024C380.016 47.5044 379.729 47.4086 379.443 47.3107C379.259 47.0011 378.95 46.8385 378.509 46.8274C378.109 46.8563 377.705 46.8874 377.305 46.9186C377.115 46.8853 376.926 46.852 376.737 46.8184C376.65 46.7562 376.553 46.7115 376.447 46.6826C376.509 46.5957 376.599 46.5289 376.707 46.4688C377.107 46.3641 377.551 46.3641 377.922 46.1839C378.011 46.1703 378.098 46.1549 378.184 46.1325C378.284 46.1438 378.385 46.1525 378.485 46.1639C378.758 45.7875 379.453 46.1192 379.71 45.7182C380.014 45.7271 380.317 45.7339 380.617 45.7406C380.806 45.7406 380.996 45.7406 381.183 45.7428C381.285 45.7206 381.388 45.6984 381.491 45.676C381.548 45.6026 381.556 45.5358 381.524 45.4757C382.203 45.4554 382.885 45.4354 383.564 45.4154C383.58 45.4465 383.594 45.4757 383.61 45.5068C383.802 45.5133 383.994 45.5179 384.186 45.5223C384.476 45.4265 384.771 45.331 385.063 45.2327C385.131 44.7673 384.679 44.8409 384.327 44.8073C384.294 44.8119 384.262 44.8187 384.227 44.823C384.224 44.8209 384.221 44.8187 384.219 44.8163C384.265 44.7719 384.286 44.7229 384.276 44.6739C384.262 44.6114 384.246 44.5803 384.224 44.5803C384.227 44.5781 384.232 44.5735 384.235 44.5714C384.273 44.6203 384.324 44.6693 384.405 44.7115C384.979 44.8763 385.52 44.8788 385.983 44.5181C385.999 44.4734 386.01 44.4266 386.018 44.3798C386.362 44.5267 386.714 44.4488 387.065 44.3955C387.417 44.2997 387.823 44.3351 388.137 44.1414C388.186 44.2261 388.28 44.2707 388.424 44.2797C388.719 44.2797 389.016 44.2818 389.311 44.2818C389.506 44.1571 389.785 44.2261 389.98 44.1081C390.031 44.0101 389.999 43.9365 389.88 43.8832L389.923 43.8253C389.309 43.8096 388.757 43.4668 388.113 43.6248L388.137 43.5869C387.672 43.1994 388.275 42.9767 388.375 42.6782C388.567 42.5245 388.757 42.3733 388.949 42.2196C389.068 42.1349 389.192 42.0502 389.311 41.9633C389.874 42.1549 390.291 41.7631 390.802 41.7474C390.51 41.1818 389.891 41.2798 389.309 41.3063L389.328 41.2641C388.735 41.0571 388.067 41.322 387.482 41.086C387.184 41.0168 386.887 40.9478 386.589 40.8788C386.508 40.8455 386.421 40.8255 386.327 40.8209C386.297 40.7451 386.3 40.6718 386.332 40.5981C386.213 40.4066 385.988 40.3597 385.737 40.3576C385.693 40.3286 385.645 40.3132 385.596 40.3043C385.445 40.2439 385.288 40.1863 385.131 40.1259C385.509 39.7384 386.175 39.9479 386.622 39.7006C386.711 39.683 386.8 39.6784 386.892 39.6916C387.396 39.6694 387.899 39.6473 388.402 39.6248C388.397 39.4735 388.351 39.3399 388.194 39.253C388.21 39.1304 388.153 39.0013 388.124 38.8744C388.107 38.6874 388.11 38.5002 388.102 38.311C388.123 38.3378 388.151 38.3622 388.186 38.3844C388.565 38.5806 388.995 38.5827 389.425 38.5938C390.121 38.5781 390.843 38.6739 391.449 38.2975C391.522 38.2753 391.598 38.2621 391.676 38.2553C391.906 38.1173 392.283 38.2152 392.442 37.9636C392.494 37.7988 392.469 37.6518 392.31 37.536C392.31 37.4868 392.31 37.4378 392.312 37.3888C391.806 37.3845 391.303 37.3777 390.797 37.371C390.71 37.3466 390.621 37.3355 390.529 37.3355C390.516 37.2708 390.491 37.2086 390.459 37.1483C390.372 37.0481 390.259 36.977 390.115 36.9302C390.088 36.9234 390.064 36.9191 390.037 36.9123C389.991 36.8254 389.945 36.7364 389.899 36.6474C389.899 36.6474 389.901 36.6474 389.901 36.6452C389.904 36.6428 389.907 36.6406 389.909 36.636C389.945 36.6717 389.988 36.7096 390.037 36.7475C390.605 36.8254 391.168 36.7986 391.723 36.6828C392.21 36.587 392.694 36.4891 393.184 36.3936C393.205 36.3221 393.2 36.2599 393.17 36.2041C393.184 36.2063 393.203 36.2063 393.219 36.2063C393.219 36.2063 393.219 36.2063 393.216 36.2063H393.232C393.227 36.2063 393.224 36.2063 393.222 36.2063C393.817 36.0972 394.507 36.3936 395.024 35.9525C394.929 35.7988 394.832 35.6451 394.734 35.4914C394.664 35.3645 394.829 35.2822 394.832 35.1685C394.824 35.1418 394.818 35.115 394.81 35.0882C395.273 35.3266 395.798 35.2976 396.317 35.2822C396.388 35.2754 396.455 35.2665 396.526 35.2597C396.62 35.2465 396.718 35.2465 396.815 35.2597C397.026 35.7008 397.654 35.5071 398.011 35.7276L398.006 35.7341C398.682 35.6383 399.399 35.8145 400.079 35.7051C400.211 35.7119 400.344 35.7141 400.482 35.7119C400.639 35.703 400.788 35.6673 400.923 35.6072C400.955 35.5514 400.974 35.5025 400.985 35.4581C400.996 35.4692 401.007 35.4803 401.012 35.4914C401.129 35.5828 401.269 35.6207 401.434 35.605C401.897 35.5804 402.371 35.6719 402.823 35.5339C403.212 35.5182 403.607 35.5025 404 35.487C403.919 35.2532 403.64 35.2844 403.421 35.2308Z" fill="black"/>
</svg>
