<svg width="203" height="203" viewBox="0 0 203 203" fill="none" xmlns="http://www.w3.org/2000/svg">
<path d="M86.7587 140.829C87.7081 139.51 90.3673 131.995 90.8379 129.459C90.8894 129.177 90.7559 128.87 90.7081 128.575C90.5999 128.556 90.493 128.537 90.3847 128.518C88.4478 132.295 86.5115 136.071 84.4919 140.01C85.3336 140.314 86.0033 140.557 86.7587 140.829ZM162.822 32.6387C163.009 32.2598 163.463 31.5448 163.714 30.7745C164.018 29.843 163.729 29.0319 162.935 28.4695C161.917 27.7475 159.888 27.8118 158.874 28.6012C157.964 29.3092 157.622 30.6288 157.997 31.9841C158.733 34.6421 160.462 35.0079 162.822 32.6387ZM71.1405 115.672C70.9559 115.201 70.8842 114.861 70.7083 114.592C69.6287 112.943 69.0938 112.941 67.4935 114.285C65.294 116.132 63.0479 117.922 60.7936 119.7C58.7901 121.28 58.7156 122.71 60.6661 124.291C64.1521 121.423 67.6482 118.546 71.1405 115.672ZM61.1919 125.41C61.9653 127.299 63.1886 128.535 64.7082 129.146C67.4625 125.631 70.0487 122.331 72.6322 119.03C72.7615 118.865 72.9563 118.697 72.9833 118.518C73.0393 118.147 73.1475 117.647 72.9655 117.425C72.782 117.202 72.2233 117.102 71.9173 117.218C71.416 117.406 70.9679 117.79 70.5287 118.133C69.7016 118.778 68.9081 119.471 68.0787 120.113C65.8194 121.864 63.5492 123.599 61.1919 125.41ZM77.9991 137.271C79.5467 138.432 81.1351 138.853 82.793 139.202C84.5665 135.088 86.2921 131.084 88.0835 126.928C87.0103 126.378 86.0929 125.908 85.029 125.361C82.6427 129.405 80.3761 133.245 77.9991 137.271ZM76.0863 136.8C78.5351 132.379 80.7488 128.383 82.9947 124.328C82.2876 123.881 81.7868 123.564 81.2852 123.248C80.3808 122.677 79.6225 122.92 78.9771 123.789C78.7262 124.128 78.4691 124.463 78.2274 124.806C76.3722 127.442 74.5156 130.077 72.6713 132.721C72.3646 133.161 72.1142 133.639 71.697 134.335C73.1804 135.168 74.534 135.928 76.0863 136.8ZM66.2277 135.484C64.725 137.694 63.6931 139.905 62.4416 142.334C63.217 142.334 63.6086 142.378 63.9923 142.327C66.653 141.973 67.7519 142.795 68.0471 145.434C68.1303 146.176 68.0797 146.94 68.1717 147.681C68.2239 148.097 68.4431 148.483 68.603 148.929C70.379 147.625 73.7196 143.201 74.8526 140.666C72.0578 138.988 69.2353 137.291 66.2277 135.484ZM78.4973 122.255C78.3435 121.868 78.3293 121.704 78.2396 121.63C77.5779 121.08 76.9206 120.52 76.2234 120.016C74.9161 119.07 74.6327 119.151 73.5689 120.462C72.2002 122.149 70.795 123.808 69.4002 125.474C68.1609 126.955 66.9143 128.431 65.5306 130.075C67.2286 131.264 68.7714 132.345 70.4426 133.515C73.6239 129.877 75.7932 125.883 78.4973 122.255ZM119.451 52.5373C119.667 53.1235 119.768 53.5134 119.947 53.8607C122.25 58.3516 125.647 61.9303 129.522 65.0147C131.862 66.8784 134.531 68.3465 137.648 68.8122C139.454 69.0829 139.653 69.0562 140.384 67.4025C142.226 63.2427 144.129 59.0992 145.734 54.8595C146.564 52.6694 146.878 50.2974 147.304 47.9926C147.718 45.7555 145.745 43.409 143.163 43.6906C142.07 43.8098 140.965 43.9357 139.893 44.2016C133.323 45.8325 126.991 48.1885 120.997 51.5267C120.519 51.7929 120.075 52.1265 119.451 52.5373ZM74.2706 160.13C75.5374 158.484 81.091 144.786 81.259 142.982C80.6451 142.729 79.9913 142.412 79.3027 142.188C77.933 141.743 77.832 141.832 76.9697 143.105C75.6297 145.084 74.3209 147.091 72.8589 148.982C71.4851 150.76 69.9521 152.424 68.4445 154.098C67.7582 154.859 66.8976 155.428 65.869 154.953C64.8963 154.503 64.6741 153.606 64.7538 152.562C64.8897 150.777 65.0143 148.991 65.0792 147.207C65.1054 146.483 64.9633 145.764 64.8606 144.626C64.2924 144.785 63.8947 144.906 63.4933 145.006C62.6163 145.222 61.7434 145.495 60.8589 145.623C59.0719 145.882 58.2955 144.853 58.9818 143.149C59.2411 142.506 59.6197 141.901 59.9729 141.294C61.1751 139.231 62.3677 137.163 63.6107 135.123C64.0924 134.333 64.0834 133.777 63.3926 133.165C61.9456 131.885 60.5688 130.527 59.168 129.197C57.9612 128.052 57.7707 128.021 56.4802 129.281C54.258 131.451 52.0689 133.655 49.8911 135.869C49.5287 136.238 49.2952 136.73 49.017 137.143C49.2475 137.373 49.3266 137.533 49.4328 137.547C50.4442 137.672 51.4628 137.759 52.4736 137.886C54.5421 138.144 55.111 139.275 54.1175 141.181C53.826 141.739 53.4669 142.265 53.1184 142.794C49.4548 148.349 46.801 154.367 44.2631 160.436C44.0158 161.028 43.6114 161.676 44.1643 162.542C45.4744 161.575 46.6642 160.629 47.9198 159.785C50.2536 158.217 52.5662 156.595 55.0007 155.21C57.016 154.065 58.4118 155.065 58.1863 157.34C58.092 158.293 57.8104 159.241 57.5732 160.183C55.9774 166.524 54.5598 172.889 53.9557 179.359C53.8786 180.19 53.9984 181.029 54.0267 181.864C54.1898 181.896 54.3526 181.928 54.5157 181.961C55.0614 181.177 55.6505 180.418 56.1467 179.606C59.9536 173.368 63.7401 167.117 67.5434 160.876C68.0544 160.037 68.5532 159.173 69.184 158.424C70.6223 156.719 72.5124 156.871 73.5479 158.713C73.7717 159.11 73.9649 159.527 74.2706 160.13ZM40.9036 126.462C42.4867 125.94 43.212 124.769 44.0593 123.762C45.3299 122.254 46.4909 120.652 47.8082 119.187C53.2747 113.104 58.8061 107.08 64.2647 100.991C67.3209 97.5816 70.2932 94.0967 73.2783 90.6246C73.9493 89.8442 74.5163 88.9736 75.1906 88.0642C73.9665 86.9278 72.5792 86.6049 71.1864 86.3883C67.2302 85.7734 63.2727 86.0874 59.3464 87.277C51.7598 89.5765 46.3439 94.5866 42.4608 101.382C37.9872 109.213 37.8821 117.257 40.2373 125.359C40.3427 125.721 40.6305 126.021 40.9036 126.462ZM88.8671 157.431C89.9643 157.401 90.5581 157.445 91.1406 157.36C96.2995 156.611 101.338 155.35 106.035 152.806C111.7 149.738 116.894 146.094 120.757 140.735C123.644 136.731 125.379 132.428 125.548 127.588C125.711 122.893 123.994 119.283 120.029 116.893C118.081 115.719 117.968 115.761 116.574 117.618C114.336 120.599 112.036 123.535 109.766 126.494C108.612 127.999 107.408 129.472 106.333 131.031C104.456 133.75 102.68 136.537 100.829 139.274C97.2856 144.512 93.7111 149.732 90.1701 154.973C89.7512 155.593 89.4632 156.295 88.8671 157.431ZM116.524 54.3448C116.044 54.5582 115.497 54.707 115.055 55.0147C112.918 56.5012 110.754 57.9574 108.702 59.5576C102.632 64.2922 97.1482 69.695 91.6661 75.0809C87.5899 79.0852 83.6554 83.2381 79.763 87.4227C77.1245 90.2595 74.634 93.2356 72.1474 96.2071C70.9301 97.6622 69.8315 99.2203 68.7569 100.782C67.7058 102.308 67.6189 103.903 68.5128 105.444C69.2833 106.773 70.0378 108.116 70.8872 109.392C73.4649 113.257 76.5029 116.72 80.5347 119.099C84.042 121.171 87.6842 123.037 91.3475 124.843C92.8267 125.572 94.5173 125.909 96.1174 126.409C97.9103 126.967 99.7525 127.41 101.491 128.09C102.593 128.522 103.49 128.43 104.313 127.594C105.001 126.893 105.583 126.088 106.214 125.331C112.779 117.458 118.578 109.052 123.503 100.138C128.287 91.4793 132.601 82.5808 137.102 73.7794C137.34 73.3139 137.409 72.7691 137.55 72.2873C126.864 67.8867 124.882 67.5796 116.524 54.3448ZM101.628 131.579C98.7336 130.155 96.6648 129.62 94.3906 129.671C94.2366 130.062 94.0298 130.49 93.8981 130.936C92.9939 134.006 92.1194 137.083 91.2013 140.149C91.0026 140.812 90.7083 141.462 90.3823 142.08C89.3689 144 88.2921 144.643 86.178 144.364C85.0534 144.214 84.6262 144.576 84.2108 145.628C81.7484 151.866 79.201 158.075 76.6763 164.293C76.5459 164.615 76.3711 164.923 76.2003 165.231C75.5618 166.382 74.7927 167.427 73.3292 167.317C72.0132 167.217 71.3938 166.252 70.9792 165.124C70.7844 164.594 70.5702 164.072 70.1985 163.122C69.4 164.303 68.8285 165.074 68.3351 165.89C64.2945 172.564 60.2821 179.255 56.2251 185.919C55.5731 186.99 54.8508 188.069 53.9681 188.95C52.6407 190.276 50.9439 189.845 50.4798 188.124C50.2724 187.356 50.2808 186.508 50.2658 185.69C50.1207 177.954 51.4626 170.332 53.3204 162.749C53.5118 161.967 53.659 161.177 53.8946 160.071C53.1329 160.341 52.6471 160.401 52.298 160.655C50.0224 162.311 47.7712 164.001 45.5245 165.695C44.6259 166.374 43.771 167.111 42.8703 167.787C41.9776 168.458 41.0099 168.861 40.0095 168.206C38.9418 167.506 38.9074 166.43 39.2885 165.291C40.1302 162.779 40.8634 160.224 41.8984 157.784C44.1658 152.439 46.5576 147.137 49.7007 142.186C49.9148 141.848 50.0389 141.458 50.2792 140.929C49.7413 140.772 49.3279 140.566 48.8963 140.542C48.149 140.502 47.3897 140.571 46.6352 140.601C45.742 140.636 44.7243 140.81 44.2814 139.86C43.7837 138.793 44.3713 137.85 45.1718 137.077C48.3164 134.042 51.4778 131.025 54.6374 128.005C55.045 127.615 55.4757 127.25 55.902 126.88C56.4925 126.368 56.7669 125.791 56.4561 125.049C56.3277 124.74 56.2534 124.406 56.1584 124.082C55.5265 121.904 56.0214 119.993 57.9125 118.511C59.9611 116.903 62.0655 115.371 64.1444 113.802C65.0433 113.124 65.9257 112.421 66.8389 111.763C67.5063 111.281 67.7991 110.73 67.3969 110.001C66.6282 108.611 65.8391 107.234 64.9818 105.715C64.4988 106.087 64.078 106.319 63.7737 106.656C58.908 112.048 54.0502 117.448 49.2054 122.859C47.8414 124.382 46.5776 125.999 45.1648 127.473C44.3472 128.327 43.3821 129.087 42.3776 129.709C40.5497 130.842 38.8892 130.429 37.8141 128.684C37.5353 128.234 37.3097 127.731 37.1547 127.219C34.2205 117.569 34.7003 108.092 40.4808 99.0137C45.9252 90.4638 53.4498 85.0242 63.4611 83.552C66.3511 83.1266 69.254 83.0287 72.0528 83.6504C73.4052 83.9504 74.6858 84.6171 75.9004 85.2849C77.1162 85.9539 77.3006 86.073 78.3833 85.0078C80.2441 83.1766 82.0265 81.2652 83.8697 79.4147C87.652 75.6169 91.4432 71.8297 95.2489 68.057C96.5018 66.8147 97.8202 65.638 99.0947 64.4173C107.33 56.5282 116.527 50.0936 126.978 45.7337C131.029 44.0438 135.291 42.9118 139.482 41.6296C141.371 41.0519 143.319 41.031 145.175 41.5886C146.057 41.8536 146.707 41.6994 147.415 41.0298C149.514 39.0442 151.649 37.0952 153.812 35.1793C154.719 34.3758 155.145 33.606 155.044 32.317C154.948 31.0877 155.24 29.689 155.755 28.5204C156.706 26.3627 158.585 25.5569 160.848 25.4917C163.189 25.4244 164.996 26.2641 166.044 28.2837C166.858 29.851 166.447 31.5517 165.528 33.0245C163.797 35.796 160.656 37.5039 157.523 36.4881C156.465 36.1452 155.705 36.4017 154.907 37.1393C153.147 38.767 151.347 40.3516 149.57 41.9621C148.983 42.4943 148.415 43.0237 148.907 43.9061C150.567 46.8835 150.169 50.1903 149.304 53.3157C148.14 57.5235 146.777 61.7524 144.914 65.7244C140.512 75.1088 135.907 84.4154 131.107 93.6203C128.031 99.5189 124.475 105.19 121.106 110.947C120.013 112.813 119.975 112.783 121.795 113.885C126.755 116.89 129.25 121.232 129.072 127.317C128.898 133.24 126.69 138.387 123.047 143.062C116.485 151.481 107.821 156.542 97.7904 159.211C94.5726 160.067 91.2666 160.508 87.9994 161.122C87.4581 161.223 86.897 161.312 86.36 161.279C85.0625 161.197 84.3726 160.413 84.558 159.114C84.6633 158.38 84.9795 157.648 85.2906 156.951C87.3881 152.253 90.3851 148.067 93.3067 143.84C95.707 140.368 98.1492 136.922 100.555 133.452C100.939 132.898 101.228 132.283 101.628 131.579Z" fill="black"/>
<path d="M102.44 78.1589C100.589 80.032 99.4933 81.9751 98.8678 84.1475C97.8679 87.6254 99.4143 92.1675 102.143 93.9457C106.214 96.5977 112.055 95.9539 116.35 92.3801C120.173 89.1992 121.461 84.2755 119.7 79.6256C119.101 78.0425 118.062 76.9264 116.491 76.2501C113.405 74.9212 110.172 74.8317 106.861 75.6479C105.09 76.0845 103.485 76.9679 102.44 78.1589ZM121.391 76.4807C125.93 80.9252 124.631 87.4228 121.653 91.6165C117.484 97.4911 111.204 100.118 104.608 98.8192C96.5929 97.2426 92.9718 87.7369 96.7783 80.8646C101.138 72.9941 110.774 69.7762 118.259 74.0314C119.403 74.682 120.351 75.6565 121.391 76.4807Z" fill="black"/>
<path d="M112.79 89.2657C114.833 87.1946 114.893 83.8156 112.923 81.8317C110.879 79.7741 107.822 79.7694 105.757 81.8217C103.67 83.8976 103.602 87.3878 105.61 89.4457C107.536 91.4198 110.747 91.3389 112.79 89.2657ZM103.461 91.5439C100.399 88.4283 100.666 83.8671 103.858 80.5017C106.436 77.7821 112.593 76.8902 115.451 79.9008C118.435 83.0449 118.255 88.0343 114.864 91.3394C111.478 94.6396 106.589 94.7269 103.461 91.5439Z" fill="black"/>
</svg>
