<svg width="216" height="245" viewBox="0 0 216 245" fill="none" xmlns="http://www.w3.org/2000/svg">
<path d="M80.7716 162.02C81.3706 160.593 82.2302 153.047 82.1243 150.593C82.1118 150.32 81.9221 150.064 81.8145 149.8C81.7101 149.805 81.6067 149.81 81.5022 149.816C80.5128 153.737 79.5238 157.657 78.4921 161.745C79.3384 161.847 80.0121 161.929 80.7716 162.02ZM128.218 45.3129C128.311 44.9211 128.579 44.1602 128.648 43.3914C128.73 42.4619 128.288 41.7707 127.431 41.4187C126.331 40.9664 124.462 41.4603 123.689 42.4102C122.996 43.2622 122.962 44.5602 123.6 45.738C124.852 48.0478 126.535 48.0171 128.218 45.3129ZM60.8896 142.012C60.6172 141.613 60.4779 141.313 60.2571 141.101C58.902 139.802 58.4051 139.914 57.2073 141.504C55.5609 143.689 53.8591 145.831 52.1472 147.965C50.6258 149.86 50.8627 151.204 53.0116 152.254C55.6335 148.845 58.2629 145.426 60.8896 142.012ZM53.7392 153.18C54.8615 154.768 56.2614 155.653 57.8029 155.895C59.6071 152.043 61.3013 148.426 62.9928 144.809C63.0775 144.628 63.2224 144.43 63.2091 144.258C63.1817 143.902 63.1751 143.415 62.9587 143.248C62.7406 143.08 62.2007 143.107 61.9414 143.28C61.5163 143.562 61.1826 144.014 60.8484 144.427C60.2188 145.203 59.6303 146.015 58.998 146.789C57.2756 148.898 55.5396 150.994 53.7392 153.18ZM71.8791 160.593C73.5641 161.339 75.1286 161.389 76.7423 161.359C77.5077 157.16 78.2525 153.074 79.0259 148.833C77.9119 148.552 76.9597 148.312 75.8552 148.033C74.5057 152.297 73.2236 156.346 71.8791 160.593ZM70.0026 160.564C71.3293 155.936 72.5289 151.753 73.7456 147.509C72.9935 147.245 72.4609 147.058 71.9277 146.872C70.9661 146.536 70.314 146.923 69.9011 147.868C69.7408 148.237 69.5736 148.602 69.4228 148.972C68.265 151.817 67.1057 154.66 65.9596 157.509C65.769 157.983 65.6391 158.481 65.4007 159.215C66.9559 159.671 68.3751 160.088 70.0026 160.564ZM60.5699 161.453C59.6481 163.826 59.1636 166.1 58.5217 168.622C59.2414 168.456 59.6144 168.413 59.9596 168.283C62.3536 167.385 63.5496 167.913 64.3885 170.299C64.6244 170.97 64.7412 171.691 64.985 172.358C65.1227 172.734 65.4087 173.045 65.6525 173.424C67.022 171.834 69.176 167.013 69.6851 164.417C66.7315 163.457 63.7485 162.487 60.5699 161.453ZM69.1273 146.547C68.9017 146.22 68.8534 146.071 68.7543 146.022C68.0223 145.653 67.2925 145.274 66.5373 144.955C65.1213 144.357 64.8756 144.493 64.1688 145.937C63.2594 147.796 62.3102 149.637 61.3721 151.482C60.5388 153.122 59.6975 154.759 58.7651 156.582C60.5957 157.322 62.2591 157.994 64.061 158.723C66.2351 154.665 67.3939 150.493 69.1273 146.547ZM92.2188 73.0669C92.5452 73.5647 92.7225 73.905 92.9627 74.1891C96.0623 77.8647 99.981 80.4595 104.238 82.4931C106.809 83.7221 109.601 84.5137 112.594 84.2787C114.328 84.1433 114.507 84.0761 114.832 82.3845C115.651 78.129 116.53 73.8756 117.113 69.5966C117.414 67.3861 117.198 65.1171 117.1 62.8865C117.006 60.7213 114.672 58.9656 112.336 59.7795C111.347 60.1241 110.348 60.4776 109.41 60.9538C103.66 63.874 98.2875 67.4162 93.438 71.7978C93.051 72.1473 92.7105 72.5519 92.2188 73.0669ZM73.311 182.609C74.1344 180.809 76.3576 166.906 76.1273 165.195C75.5034 165.092 74.8288 164.938 74.1415 164.877C72.7749 164.758 72.7001 164.861 72.1723 166.228C71.352 168.351 70.5666 170.494 69.6143 172.563C68.7197 174.507 67.6529 176.38 66.6117 178.256C66.1377 179.11 65.4605 179.822 64.4041 179.601C63.4049 179.392 63.0068 178.607 62.8571 177.62C62.6012 175.934 62.3346 174.25 62.013 172.58C61.8825 171.903 61.5966 171.265 61.2576 170.231C60.7643 170.501 60.4211 170.699 60.0698 170.876C59.3021 171.265 58.5502 171.705 57.7565 172.013C56.1534 172.637 55.2124 171.848 55.4847 170.119C55.5877 169.466 55.8096 168.823 56.0076 168.185C56.6819 166.012 57.3462 163.838 58.0635 161.678C58.3414 160.841 58.214 160.327 57.4419 159.907C55.8247 159.029 54.2561 158.063 52.671 157.128C51.3058 156.323 51.1224 156.336 50.1942 157.781C48.5959 160.271 47.0358 162.786 45.4882 165.307C45.2306 165.727 45.1192 166.234 44.9494 166.677C45.2127 166.841 45.3203 166.973 45.4218 166.962C46.3876 166.863 47.3515 166.725 48.317 166.627C50.2922 166.423 51.0624 167.351 50.5481 169.333C50.397 169.913 50.1763 170.479 49.966 171.044C47.7544 176.985 46.5793 183.139 45.5224 189.316C45.4196 189.918 45.1829 190.606 45.8814 191.291C46.8906 190.114 47.7925 188.981 48.7774 187.929C50.6081 185.974 52.4075 183.973 54.371 182.167C55.9965 180.672 57.5061 181.302 57.7838 183.462C57.9002 184.366 57.8417 185.307 57.8233 186.232C57.6991 192.459 57.7457 198.671 58.57 204.806C58.6762 205.594 58.967 206.347 59.1719 207.116C59.3302 207.111 59.4882 207.106 59.6465 207.101C59.9854 206.257 60.3697 205.426 60.6564 204.566C62.8551 197.961 65.0317 191.348 67.2262 184.741C67.5211 183.853 67.7989 182.944 68.2242 182.114C69.1944 180.223 70.9812 179.959 72.3368 181.448C72.6296 181.769 72.8981 182.114 73.311 182.609ZM35.1321 158.499C36.4899 157.676 36.9124 156.433 37.4835 155.318C38.3401 153.646 39.0747 151.91 39.9839 150.268C43.7562 143.452 47.6011 136.676 51.3647 129.856C53.4718 126.037 55.4849 122.166 57.5125 118.304C57.9683 117.436 58.3083 116.506 58.7396 115.518C57.36 114.725 56.0032 114.722 54.664 114.819C50.8601 115.095 47.2538 116.234 43.864 118.179C37.314 121.937 33.3592 127.747 31.2094 134.886C28.7329 143.112 30.3571 150.601 34.2776 157.618C34.4527 157.931 34.7841 158.148 35.1321 158.499ZM86.2821 176.979C87.2943 176.717 87.8549 176.63 88.3774 176.427C93.0056 174.627 97.4126 172.378 101.228 169.011C105.83 164.951 109.872 160.457 112.31 154.655C114.132 150.32 114.822 145.956 113.943 141.426C113.089 137.034 110.723 134.05 106.531 132.68C104.471 132.007 104.375 132.07 103.479 134.093C102.039 137.339 100.533 140.557 99.0596 143.789C98.3103 145.433 97.5076 147.058 96.8438 148.735C95.6838 151.661 94.6317 154.628 93.4994 157.564C91.3313 163.185 89.1305 168.795 86.9656 174.418C86.7094 175.083 86.5924 175.797 86.2821 176.979ZM89.8891 75.3711C89.4897 75.6719 89.0131 75.9272 88.6687 76.3074C87.0034 78.1446 85.3068 79.9594 83.7444 81.8841C79.1236 87.578 75.1894 93.7669 71.2536 99.9398C68.3271 104.529 65.5639 109.226 62.8465 113.944C61.0045 117.142 59.3298 120.437 57.6577 123.728C56.8393 125.339 56.153 127.02 55.4897 128.7C54.8408 130.342 55.1016 131.841 56.261 133.08C57.2607 134.149 58.2485 135.233 59.3101 136.236C62.5302 139.272 66.0914 141.836 70.343 143.182C74.042 144.354 77.8223 145.306 81.6092 146.199C83.1384 146.559 84.7799 146.51 86.3721 146.632C88.1558 146.766 89.9605 146.782 91.7196 147.042C92.8354 147.207 93.6484 146.93 94.2329 145.977C94.7218 145.179 95.0894 144.307 95.5132 143.47C99.9219 134.757 103.506 125.713 106.169 116.384C108.757 107.323 110.856 98.1396 113.15 89.0063C113.271 88.5233 113.219 88.0028 113.246 87.5254C102.386 85.7279 100.48 85.8671 89.8891 75.3711ZM92.5934 150.251C89.6023 149.549 87.5675 149.495 85.4674 150.029C85.4081 150.425 85.3077 150.866 85.281 151.308C85.0988 154.351 84.9457 157.395 84.7498 160.438C84.7072 161.096 84.5731 161.762 84.4028 162.405C83.8731 164.405 83.0113 165.232 80.9891 165.425C79.9132 165.527 79.5941 165.954 79.4336 167.019C78.4833 173.338 77.4477 179.646 76.4351 185.958C76.383 186.285 76.2867 186.609 76.1939 186.93C75.8477 188.136 75.3576 189.271 73.9755 189.482C72.7326 189.67 71.9509 188.907 71.3246 187.949C71.0304 187.498 70.7198 187.059 70.1715 186.258C69.683 187.525 69.3178 188.363 69.0342 189.225C66.7122 196.286 64.4199 203.355 62.0806 210.41C61.7046 211.544 61.265 212.699 60.6343 213.706C59.686 215.221 58.0186 215.184 57.2195 213.686C56.8626 213.017 56.6888 212.228 56.4999 211.472C54.7094 204.323 54.3234 196.96 54.4248 189.524C54.4351 188.757 54.4026 187.992 54.3847 186.916C53.7355 187.329 53.2972 187.488 53.0276 187.799C51.2697 189.823 49.5419 191.874 47.8191 193.928C47.1302 194.75 46.4945 195.617 45.8032 196.438C45.118 197.251 44.306 197.832 43.2372 197.438C42.0964 197.018 41.834 196.026 41.9441 194.887C42.1877 192.375 42.3214 189.847 42.7599 187.36C43.7204 181.913 44.8057 176.48 46.6634 171.211C46.7899 170.852 46.8216 170.463 46.9315 169.921C46.3984 169.89 45.9707 169.788 45.565 169.858C44.8626 169.98 44.1727 170.207 43.4787 170.396C42.6572 170.62 41.7497 171 41.1352 170.213C40.4449 169.329 40.7886 168.328 41.3661 167.439C43.6353 163.948 45.924 160.471 48.2106 156.992C48.5054 156.542 48.827 156.111 49.1435 155.676C49.5821 155.075 49.7134 154.481 49.266 153.858C49.0807 153.599 48.9401 153.305 48.7828 153.025C47.73 151.138 47.7804 149.259 49.2184 147.478C50.776 145.547 52.4013 143.674 53.9952 141.773C54.6845 140.952 55.3531 140.11 56.0598 139.303C56.5763 138.714 56.7301 138.139 56.2007 137.549C55.1897 136.423 54.1624 135.314 53.0415 134.087C52.6727 134.535 52.3319 134.841 52.1216 135.219C48.7591 141.266 45.4058 147.318 42.0669 153.378C41.1268 155.083 40.2997 156.854 39.3039 158.525C38.7278 159.493 37.9945 160.405 37.1953 161.197C35.7412 162.641 34.1113 162.612 32.74 161.223C32.3847 160.864 32.0678 160.446 31.8141 160.004C27.0251 151.675 25.442 142.775 28.8644 133.111C32.088 124.009 37.9083 117.35 46.8861 113.84C49.4776 112.827 52.1512 112.114 54.8822 112.092C56.2017 112.081 57.5331 112.426 58.8035 112.786C60.0753 113.147 60.272 113.218 61.0489 111.997C62.3842 109.899 63.6296 107.744 64.9444 105.631C67.6424 101.296 70.3508 96.9696 73.0759 92.6531C73.973 91.2318 74.9449 89.8573 75.8666 88.4514C81.8227 79.3657 88.9821 71.4243 97.75 65.1403C101.148 62.7047 104.862 60.7416 108.478 58.6543C110.107 57.7139 111.911 57.2775 113.753 57.3978C114.629 57.455 115.2 57.1725 115.713 56.3995C117.236 54.1072 118.801 51.8411 120.399 49.5997C121.069 48.6597 121.299 47.854 120.93 46.6791C120.577 45.5586 120.549 44.1978 120.777 43.0029C121.198 40.7964 122.769 39.6464 124.856 39.1014C127.015 38.5376 128.872 38.9305 130.277 40.5809C131.368 41.8614 131.35 43.528 130.812 45.0919C129.799 48.0349 127.249 50.2926 124.124 50.0202C123.068 49.9284 122.418 50.3292 121.835 51.1846C120.549 53.0722 119.218 54.9283 117.913 56.8037C117.482 57.4234 117.068 58.0363 117.714 58.75C119.892 61.1584 120.23 64.3133 120.097 67.3993C119.917 71.5544 119.556 75.7716 118.677 79.8572C116.6 89.5104 114.318 99.1348 111.833 108.706C110.24 114.84 108.153 120.865 106.257 126.93C105.643 128.897 105.601 128.876 107.526 129.51C112.773 131.238 116.019 134.734 117.156 140.42C118.262 145.956 117.314 151.206 114.933 156.325C110.644 165.545 103.686 172.097 94.946 176.721C92.1424 178.204 89.1681 179.321 86.2667 180.59C85.7861 180.801 85.2843 181.004 84.7787 181.088C83.5568 181.29 82.7485 180.709 82.6427 179.464C82.5833 178.76 82.72 178.012 82.8597 177.299C83.801 172.489 85.6869 167.962 87.4941 163.413C88.9789 159.676 90.5082 155.955 91.9988 152.219C92.2364 151.623 92.3729 150.99 92.5934 150.251Z" fill="black"/>
<path d="M81.9142 100.493C80.5965 102.628 79.9956 104.666 79.8801 106.817C79.6963 110.259 82.104 114.144 85.0178 115.211C89.364 116.801 94.648 114.953 97.87 110.716C100.738 106.945 100.879 102.1 98.2493 98.1603C97.354 96.8191 96.1509 96.0054 94.5483 95.7138C91.399 95.1409 88.379 95.7499 85.4803 97.2161C83.9295 98.0005 82.629 99.1641 81.9142 100.493ZM99.1454 94.8792C104.31 98.0332 104.495 104.343 102.629 108.873C100.016 115.218 94.7495 119 88.3485 119.207C80.5714 119.459 75.1754 111.41 77.2378 104.217C79.5997 95.9778 87.8556 90.9282 95.7139 93.276C96.9152 93.635 98.0044 94.3365 99.1454 94.8792Z" fill="black"/>
<path d="M93.9004 108.586C95.3528 106.227 94.6854 103.077 92.432 101.658C90.0944 100.185 87.2557 100.835 85.7788 103.182C84.2856 105.556 84.9698 108.81 87.2742 110.29C89.4845 111.71 92.4472 110.948 93.9004 108.586ZM85.7283 112.698C82.219 110.461 81.491 106.17 83.733 102.363C85.5444 99.2869 91.0685 97.1412 94.3654 99.3241C97.8083 101.604 98.7094 106.274 96.2691 110.067C93.8328 113.855 89.3131 114.983 85.7283 112.698Z" fill="black"/>
</svg>
