<svg width="178" height="241" viewBox="0 0 178 241" fill="none" xmlns="http://www.w3.org/2000/svg">
<path d="M77.9962 75.842C73.6258 75.7022 69.2979 74.931 65.1023 73.723C61.2037 72.5998 57.4549 70.8701 54.1128 68.5714C50.7508 66.2627 47.938 63.2851 45.4745 60.0554C43.0634 56.8905 41.0767 53.3089 40.0634 49.4503C39.664 47.9303 39.3046 46.4003 39.0276 44.8528C38.8853 44.0691 38.773 43.2903 38.6756 42.4991C38.5783 41.698 38.5334 40.9093 38.4959 40.1056C38.4235 38.603 38.5658 37.0705 38.7281 35.5755C39.0575 32.533 39.8287 29.5778 40.7622 26.6726C41.2439 25.18 41.9627 23.7599 42.6616 22.3622C43.2981 21.0967 44.0668 19.8837 44.8755 18.7206C45.3272 18.0742 45.7865 17.4427 46.2782 16.8212C46.7873 16.1748 47.329 15.5733 47.8805 14.9618C49.5328 13.1373 51.3998 11.5274 53.414 10.1147C54.8866 9.08143 56.4615 8.18041 58.0015 7.25692C58.6429 6.87006 59.3018 6.51813 59.9582 6.15622C61.004 5.58466 62.0398 5.00561 63.1081 4.48147C67.3911 2.38241 71.9835 0.947264 76.7208 0.343255C78.992 0.0537293 81.2608 -0.018656 83.5496 0.00380717C84.7601 0.0162867 85.9631 0.101147 87.1636 0.248405C87.7053 0.315795 88.2444 0.400659 88.7785 0.502991C89.0955 0.562893 89.4649 0.660237 89.7594 0.807496C91.7162 0.715147 93.6755 0.692678 95.6348 0.800003C98.7546 0.969724 101.852 1.48138 104.862 2.31252C107.795 3.1187 110.598 4.2818 113.343 5.58216C114.676 6.21612 115.976 6.90749 117.259 7.6313C118.575 8.37009 119.81 9.22869 121.028 10.1197C123.477 11.9093 125.681 14.0982 127.468 16.5442C129.265 19.0052 130.797 21.6558 132.097 24.4088C133.37 27.1094 134.152 30.0321 134.296 33.0222C134.374 34.6071 134.416 36.1895 134.344 37.7769C134.286 39.0498 134.187 40.3077 134.014 41.5732C133.797 43.173 133.365 44.7604 132.836 46.2829C132.317 47.7705 131.748 49.2381 131.042 50.6483C130.53 51.6641 130.011 52.655 129.424 53.6309C128.326 55.4654 126.981 57.1526 125.516 58.7051C124.128 60.1801 122.586 61.473 120.978 62.6985C120.297 63.2177 119.566 63.6819 118.862 64.1711C118.323 64.5455 117.751 64.8725 117.192 65.2169C116.56 65.6063 115.931 66.0006 115.28 66.355C114.461 66.7993 113.643 67.2436 112.824 67.6879C112.163 68.0473 111.466 68.3518 110.787 68.6837C109.365 69.3751 107.91 69.9941 106.457 70.6255C105.888 70.8726 105.304 71.0848 104.722 71.3044C103.986 71.5865 103.25 71.9034 102.503 72.1505C101.106 72.6123 99.7181 73.109 98.3004 73.5058C97.3894 73.7629 96.4809 74.0175 95.5724 74.2746C94.8735 74.4717 94.1597 74.6015 93.4483 74.7513C92.8044 74.886 92.1555 75.0608 91.5015 75.1506C90.5406 75.2804 89.5747 75.4102 88.6138 75.5425C88.0073 75.6223 87.4082 75.6698 86.7992 75.7072C85.9906 75.7571 85.1719 75.852 84.3607 75.857C83.2476 75.8669 82.1344 75.8794 81.0212 75.8794C80.0179 75.8869 79.007 75.8769 77.9962 75.842ZM80.4197 70.3085C81.6177 70.2986 82.8158 70.2886 84.0113 70.2811C84.5504 70.2761 85.0995 70.2137 85.6411 70.1788C86.2576 70.1388 86.8716 70.1014 87.4881 70.0615C88.5064 69.9242 89.5248 69.7869 90.5456 69.6496C91.0697 69.5772 91.5964 69.4275 92.1155 69.3202C92.6996 69.2004 93.2811 69.0781 93.8652 68.9558C95.5025 68.4965 97.1373 68.0423 98.7521 67.5056C99.5433 67.2461 100.342 67.004 101.118 66.7045C102.077 66.3376 103.035 65.9732 103.991 65.6088C105.454 64.9748 106.914 64.3508 108.349 63.6545C109.065 63.3075 109.799 62.9756 110.5 62.5962C111.342 62.1395 112.185 61.6827 113.026 61.2259C114.768 60.1527 116.498 59.082 118.138 57.8515C119.144 57.0603 120.1 56.2241 121.016 55.3306C121.789 54.5294 122.523 53.6983 123.215 52.8247C123.928 51.8588 124.582 50.8629 125.186 49.8246C125.903 48.5118 126.507 47.159 127.091 45.7838C127.445 44.7679 127.797 43.7621 128.084 42.7238C128.284 41.8926 128.443 41.0615 128.563 40.2154C128.693 39.0323 128.743 37.8518 128.798 36.6612C128.79 35.1212 128.76 33.5913 128.593 32.0563C128.486 31.3175 128.346 30.5862 128.174 29.8599C127.972 29.1335 127.732 28.4297 127.455 27.7284C126.931 26.5079 126.324 25.3348 125.703 24.1642C124.752 22.5469 123.761 20.9694 122.658 19.4469C122.094 18.7556 121.515 18.0867 120.913 17.4252C120.472 16.991 120.032 16.5617 119.568 16.1548C119.006 15.6656 118.435 15.1989 117.853 14.7322C116.793 13.9634 115.717 13.2396 114.601 12.5532C112.435 11.3477 110.211 10.282 107.935 9.28609C106.225 8.6097 104.498 8.02566 102.728 7.53147C101.113 7.14461 99.4909 6.84011 97.8461 6.61298C96.1339 6.43577 94.4317 6.33843 92.712 6.32096C90.8501 6.3559 88.9931 6.44824 87.1387 6.59051C86.2676 6.6579 85.4515 6.28351 84.8949 5.66952C84.1661 5.62459 83.4372 5.60213 82.7059 5.59465C80.9114 5.60463 79.1318 5.69199 77.3497 5.90663C75.8397 6.12128 74.3471 6.41579 72.8646 6.78269C71.2847 7.21449 69.7347 7.72365 68.2097 8.32516C66.7047 8.95663 65.2346 9.65548 63.8044 10.4392C62.9683 10.8984 62.1322 11.3552 61.2961 11.812C59.2519 13.0399 57.1878 14.2505 55.2784 15.6831C54.632 16.2023 54.0155 16.7489 53.409 17.3154C52.8724 17.8545 52.3357 18.3937 51.8241 18.9577C51.2276 19.6142 50.676 20.2905 50.1269 20.9844C49.5328 21.843 48.9513 22.7066 48.3872 23.5876C47.7258 24.7782 47.1193 25.9837 46.5502 27.2242C46.3131 27.8457 46.076 28.4671 45.8713 29.1011C45.6317 29.8424 45.4146 30.5887 45.2024 31.3349C44.868 32.8025 44.5859 34.2676 44.3438 35.7527C44.2041 37.1055 44.1242 38.4433 44.0943 39.8011C44.1192 40.2803 44.1417 40.762 44.1641 41.2437C44.1891 41.7778 44.2864 42.3219 44.3588 42.8536C44.3513 42.7986 44.3438 42.7437 44.3388 42.6888C44.6558 44.4559 45.0302 46.2006 45.4595 47.9427C45.6717 48.7239 45.9113 49.4902 46.1983 50.2464C46.6426 51.2922 47.1567 52.2981 47.7108 53.289C48.4945 54.6143 49.3506 55.8872 50.2741 57.1177C51.28 58.3981 52.3457 59.6161 53.4889 60.7767C54.4323 61.6927 55.4182 62.5513 56.459 63.355C57.4548 64.0838 58.4807 64.7552 59.5489 65.3741C60.7494 66.0306 61.9774 66.6221 63.2404 67.1512C64.8402 67.7802 66.4701 68.3068 68.1299 68.7561C70.1116 69.2578 72.1108 69.6422 74.1375 69.9192C76.2191 70.1663 78.3131 70.2686 80.4197 70.3085Z" fill="black"/>
<path d="M75.9712 43.9712C75.3846 43.4645 75.0976 42.7881 75.0102 42.0344C74.5884 38.4253 74.3289 34.7912 74.0843 31.1672C73.9644 29.3701 73.8621 27.5706 73.7573 25.7735C73.7124 24.9549 73.6624 24.1387 73.6225 23.32C73.5751 22.3916 73.4603 21.4306 73.5177 20.4997C73.6075 18.9747 74.9728 17.7891 76.4903 17.8865C77.908 17.9788 79.0211 19.1519 79.101 20.5371C79.106 20.6319 79.106 20.7293 79.1035 20.8266C79.121 22.439 79.2683 24.0613 79.3606 25.6687C79.4629 27.4707 79.5678 29.2728 79.6876 31.0723C79.9247 34.614 80.1818 38.1582 80.5961 41.6799C80.7733 43.195 79.4405 44.5602 77.9779 44.6526C77.9205 44.6551 77.8606 44.6576 77.8032 44.6576C77.1367 44.6551 76.4778 44.413 75.9712 43.9712Z" fill="black"/>
<path d="M87.043 33.397C86.751 30.5667 86.4689 27.7313 86.2443 24.896C86.132 23.4658 86.0272 22.0382 85.9273 20.608C85.8624 19.6795 85.7776 18.7436 85.82 17.8151C85.8874 16.2901 87.2926 15.1045 88.7926 15.2019C90.3351 15.2992 91.4732 16.652 91.4034 18.177C91.4009 18.2144 91.4009 18.2544 91.3984 18.2943C91.4158 19.3201 91.5157 20.3459 91.5906 21.3693C91.6854 22.6771 91.7777 23.9825 91.8901 25.2878C92.1097 27.8761 92.3593 30.4619 92.6264 33.0476C92.7836 34.5626 91.4857 35.9254 90.0106 36.0203C89.9507 36.0227 89.8908 36.0252 89.8309 36.0252C88.3509 36.0202 87.1928 34.8572 87.043 33.397Z" fill="black"/>
<path d="M78.8152 59.9978C76.3143 58.9894 74.3002 57.15 72.8076 54.9311C72.1437 53.9402 71.5821 52.8395 71.1753 51.7213C70.9981 51.2322 70.8183 50.7454 70.7135 50.2313C70.409 48.7387 71.4423 47.2387 72.9299 46.9492C74.4224 46.6596 75.8801 47.6505 76.2045 49.1231C76.2919 49.3977 76.3867 49.6647 76.4841 49.9368C76.6788 50.386 76.8909 50.8253 77.1205 51.2596C77.3651 51.6664 77.6222 52.0633 77.9017 52.4502C78.1414 52.7422 78.3859 53.0192 78.6455 53.2938C78.8826 53.5134 79.1222 53.7231 79.3718 53.9252C79.6663 54.1324 79.9634 54.3246 80.2729 54.5093C80.4576 54.6066 80.6473 54.699 80.8394 54.7838C81.1889 54.9186 81.5383 55.0359 81.8977 55.1457C82.2871 55.2356 82.6789 55.3155 83.0758 55.3804C83.253 55.3978 83.4302 55.4103 83.6074 55.4178C83.9818 55.4053 84.3487 55.3803 84.7206 55.3379C84.9477 55.303 85.1723 55.2606 85.397 55.2106C85.9885 55.0459 86.5675 54.8487 87.1416 54.6291C87.8005 54.3396 88.442 54.0251 89.0734 53.6781C89.5252 53.4036 89.9645 53.1141 90.3938 52.8096C90.7557 52.5225 91.1001 52.223 91.4371 51.906C91.9188 51.4019 92.3605 50.8727 92.7898 50.3212C93.3289 49.5649 93.8481 48.8061 94.3548 48.0274C94.8265 47.1663 95.2633 46.2953 95.6651 45.3967C95.9671 44.633 96.2367 43.8642 96.4713 43.073C96.5636 42.7061 96.646 42.3392 96.7209 41.9673C97.0179 40.4723 98.5005 39.4639 100.003 39.756C101.496 40.0455 102.514 41.5455 102.214 43.0381C101.77 45.2595 100.979 47.3585 99.9781 49.3877C99.4988 50.3611 98.9248 51.2746 98.3357 52.1831C97.2875 53.8054 96.0295 55.3229 94.5894 56.6108C93.596 57.5019 92.4454 58.1982 91.2848 58.8447C90.0543 59.5336 88.7265 60.0577 87.3812 60.467C86.2156 60.8214 85.0226 60.9911 83.832 60.9911C82.1248 60.9936 80.4251 60.6467 78.8152 59.9978Z" fill="black"/>
<path d="M26.3502 77.7984C25.6663 77.7535 24.935 77.5638 24.3584 77.182C23.5622 76.6553 22.9857 76.0014 22.4116 75.2451C21.885 74.5488 21.4607 73.7551 21.0139 73.0038C20.6021 72.3074 20.1953 71.6111 19.7884 70.9122C18.9922 69.542 18.2235 68.1468 17.5346 66.7191C16.7135 65.0169 16.0495 63.2348 15.7051 61.3754C15.5529 60.5617 15.5005 59.6532 15.6302 58.8345C15.7775 57.8986 16.087 57.0874 16.6286 56.3087C17.3599 55.2554 18.5904 54.6464 19.7136 54.1073C20.3825 53.7853 21.0513 53.4658 21.7227 53.1488C22.9882 52.5498 24.2586 51.9583 25.5265 51.3643C28.1173 50.1513 30.698 48.9133 33.2539 47.6279C34.5617 46.969 35.8671 46.3076 37.1749 45.6511C37.8313 45.3242 38.4828 44.9897 39.1442 44.6802C40.0278 44.2634 40.9437 43.8266 41.9421 43.8691C43.4671 43.9315 44.6527 45.3466 44.5553 46.8442C44.5129 47.4831 44.2583 48.0497 43.8665 48.4915C44.0437 49.1279 44.0037 49.8293 43.7042 50.4633C41.1883 55.7746 38.6949 61.0983 35.9794 66.3123C35.2905 67.6401 34.5842 68.9554 33.8703 70.2683C32.8046 72.2226 31.7139 74.2617 30.2163 75.9165C29.2903 76.9374 27.99 77.8084 26.5673 77.8084C26.4974 77.8059 26.425 77.8034 26.3502 77.7984ZM26.6172 71.4688C27.351 70.4205 27.9875 69.3149 28.6264 68.2067C30.4185 64.9121 32.1432 61.585 33.8029 58.2205C34.7963 56.2088 35.7597 54.1797 36.7182 52.1505C35.1732 52.9292 33.6307 53.7054 32.0733 54.4542C30.2488 55.3303 28.4218 56.1914 26.5923 57.0475C24.8551 57.8586 23.1055 58.6548 21.3933 59.5209C21.3184 59.5658 21.2435 59.6133 21.1687 59.6607C21.1687 59.7056 21.1687 59.748 21.1662 59.793C21.1761 60.085 21.2036 60.372 21.246 60.6615C21.2311 60.5417 21.2161 60.4244 21.2011 60.3046C21.241 60.5542 21.291 60.8013 21.3509 61.0484C21.5381 61.7173 21.7602 62.3662 22.0123 63.0177C22.7386 64.7249 23.6371 66.3472 24.5431 67.9646C25.217 69.1327 25.871 70.3382 26.6172 71.4688Z" fill="black"/>
<path d="M142.221 81.0013C140.156 79.2542 138.943 76.7383 137.661 74.4021C136.185 71.709 134.977 68.8537 133.802 66.0208C132.651 63.2454 131.695 60.3876 130.819 57.5173C129.981 54.7718 129.202 52.0088 128.538 49.2184C128.288 48.1626 128.778 47.0919 129.604 46.4604C129.451 46.2433 129.329 46.0012 129.249 45.7366C129.167 45.4645 129.134 45.3023 129.11 45.0178C128.985 43.4329 130.445 41.843 132.085 42.0476C132.354 42.0801 132.604 42.1075 132.863 42.1949C133.22 42.3122 133.527 42.5169 133.844 42.714C134.121 42.8838 134.383 43.1009 134.648 43.2906C135.195 43.685 135.741 44.0768 136.295 44.4662C137.513 45.3223 138.739 46.1659 139.944 47.037C142.433 48.8415 144.906 50.666 147.32 52.5704C149.736 54.4798 152.129 56.4166 154.51 58.3734C155.084 58.8426 155.651 59.3193 156.218 59.8035C156.734 60.2453 157.326 60.7794 157.665 61.3734C157.852 61.7004 158.075 62.0174 158.187 62.3793C158.344 62.8885 158.431 63.3602 158.491 63.8893C158.571 64.6057 158.342 65.3619 158.147 66.0408C157.89 66.9244 157.413 67.773 156.954 68.5642C156.392 69.5376 155.776 70.471 155.162 71.4095C153.582 73.8231 151.86 76.1517 150.178 78.4954C149.249 79.7858 148.226 81.0812 146.736 81.7376C146.219 81.9647 145.667 82.072 145.113 82.072C144.07 82.067 143.027 81.6852 142.221 81.0013ZM145.091 75.9421C145.133 75.8897 145.178 75.8372 145.221 75.7848C146.376 74.2424 147.469 72.6525 148.578 71.075C149.813 69.3229 151.056 67.5633 152.142 65.7114C152.359 65.302 152.566 64.8927 152.761 64.4734C152.783 64.411 152.806 64.3461 152.828 64.2812C151.895 63.4301 150.904 62.6439 149.928 61.8452C148.984 61.0715 148.039 60.3027 147.093 59.534C145.181 57.979 143.234 56.4665 141.282 54.9615C139.592 53.696 137.898 52.4331 136.173 51.2176C135.619 50.8257 135.065 50.4364 134.511 50.047C135.08 52.181 135.691 54.2976 136.335 56.4091C137.071 58.8176 137.925 61.1813 138.824 63.5324C139.525 65.2147 140.239 66.8869 141.013 68.5392C141.864 70.3487 142.787 72.1109 143.746 73.8655C144.17 74.5768 144.609 75.2707 145.091 75.9421Z" fill="black"/>
<path d="M65.8758 169.513C64.4082 169.41 62.9306 169.303 61.473 169.096C60.5995 168.976 59.7259 168.874 58.8623 168.712C57.1601 168.397 55.1384 167.915 53.9454 166.558C53.244 165.756 52.8172 164.541 52.947 163.473C53.0418 162.646 53.2565 161.858 53.4512 161.049C53.7532 159.821 54.0452 158.588 54.3122 157.353C54.8564 154.854 55.2258 152.328 55.5827 149.795C56.3314 143.932 57.0353 138.064 57.8015 132.206C58.5877 126.169 59.3315 120.124 60.2051 114.096C61.8349 102.832 63.7568 91.6104 65.2568 80.3264C65.3841 79.2132 65.5264 78.1026 65.6187 76.9844C65.7036 75.9511 65.751 74.9253 65.7934 73.892C65.7934 73.8645 65.7934 73.8371 65.7959 73.8096C65.7959 73.8021 65.7984 73.7971 65.7984 73.7896C65.8608 72.2646 67.276 71.0791 68.7735 71.1764C70.321 71.2763 71.4492 72.629 71.3843 74.149C71.3843 74.1565 71.3843 74.1615 71.3843 74.169C71.3843 74.189 71.3818 74.2114 71.3818 74.2314C71.3319 75.4819 71.2944 76.7298 71.1546 77.9753C70.9774 79.5477 70.7927 81.1151 70.5856 82.6826C70.1638 85.8748 69.6846 89.0571 69.2028 92.2419C68.2844 98.3119 67.306 104.372 66.3875 110.442C65.0222 119.47 63.9165 128.535 62.7359 137.588C62.1769 142.005 61.7026 146.441 61.0812 150.848C60.7667 153.095 60.4322 155.331 59.9904 157.557C59.8008 158.518 59.5811 159.472 59.3615 160.425C59.1668 161.264 58.9397 162.097 58.7375 162.936C58.8573 162.971 58.9771 163.006 59.0994 163.038C60.1976 163.285 61.3058 163.433 62.4165 163.585C64.3807 163.777 66.35 163.984 68.3193 164.067C69.3651 164.112 70.4134 164.196 71.4591 164.201C72.48 164.206 73.5033 164.216 74.5266 164.221C80.6865 164.049 86.8389 163.737 92.9839 163.275C95.8891 163.056 98.7893 162.789 101.695 162.562C104.78 162.317 107.872 162.127 110.962 161.93C114.087 161.73 117.219 161.531 120.334 161.231C123.591 160.919 126.833 160.497 130.081 160.086C129.961 160.101 129.843 160.116 129.724 160.131C131.139 159.948 132.554 159.766 133.967 159.567C134.883 159.437 135.809 159.317 136.725 159.165C136.697 159.037 136.667 158.91 136.637 158.785C135.809 155.843 134.738 152.972 133.642 150.117C132.542 147.257 131.386 144.421 130.28 141.561C129.157 138.658 128.099 135.728 127.053 132.798C126.075 130.062 125.031 127.354 123.971 124.649C121.632 118.699 119.391 112.711 116.997 106.781C114.751 101.285 112.377 95.851 109.622 90.5871C108.246 87.9589 106.879 85.3307 105.663 82.6226C104.507 80.0444 103.349 77.4686 102.116 74.9253C101.884 74.4461 101.647 73.9693 101.41 73.4926C100.731 72.1274 101.348 70.4127 102.708 69.7513C104.091 69.0823 105.77 69.6839 106.449 71.0491C107.662 73.4851 108.823 75.9486 109.926 78.4345C111.142 81.1825 112.432 83.8756 113.82 86.5387C115.17 89.127 116.513 91.7202 117.738 94.3709C119.011 97.1314 120.234 99.9143 121.38 102.73C123.689 108.398 125.877 114.111 128.091 119.819C129.147 122.545 130.225 125.265 131.269 128.001C132.297 130.696 133.208 133.437 134.214 136.142C135.294 139.038 136.428 141.908 137.568 144.783C138.651 147.511 139.74 150.254 140.688 153.037C140.925 153.731 141.165 154.42 141.382 155.124C141.497 155.488 141.609 155.855 141.724 156.22C142.043 157.245 142.38 158.346 142.448 159.419C142.54 160.842 142.303 162.407 141.17 163.4C140.204 164.251 139.003 164.459 137.778 164.651C134.89 165.107 131.99 165.477 129.087 165.844C126.224 166.208 123.357 166.6 120.479 166.84C117.514 167.084 114.546 167.314 111.576 167.504C108.573 167.693 105.571 167.873 102.571 168.11C99.5606 168.347 96.548 168.624 93.5355 168.851C87.3356 169.321 81.1333 169.635 74.916 169.81C74.3794 169.825 73.8402 169.832 73.3036 169.832C70.8252 169.83 68.3443 169.685 65.8758 169.513Z" fill="black"/>
<path d="M61.991 240.193C59.0883 240 56.1381 239.456 53.3651 238.578C51.5831 238.016 49.8235 237.32 48.2086 236.371C46.4989 235.366 45.0014 234.135 43.6311 232.7C42.2658 231.267 41.1302 229.513 40.5986 227.598C40.1743 226.071 40.3715 224.488 41.0853 223.088C41.849 221.591 43.2592 220.697 44.7917 220.138C45.5579 219.863 46.3816 219.766 47.1828 219.676C48.0663 219.579 49.0073 219.631 49.8834 219.766C51.4932 220.018 53.133 220.472 54.5881 221.216C55.7238 221.795 56.8345 222.392 57.8902 223.108C59.3528 224.099 60.6507 225.297 61.8512 226.587C61.8462 226.235 61.8412 225.886 61.8387 225.534C61.8113 222.522 61.8487 219.507 61.9161 216.496C62.0459 210.429 62.4877 204.359 62.937 198.311C63.3014 193.397 63.7881 188.497 64.2723 183.595C64.5269 181.04 64.769 178.481 65.0011 175.92C65.1084 174.757 65.2032 173.589 65.2831 172.424C65.3205 171.87 65.3555 171.321 65.3979 170.769C65.4428 170.14 65.4378 169.456 65.5826 168.842C65.9295 167.357 67.3273 166.331 68.8647 166.631C70.3049 166.91 71.4006 168.398 71.0886 169.868C70.9563 171.133 70.9114 172.409 70.8065 173.677C70.6718 175.324 70.5295 176.969 70.3773 178.616C70.1152 181.514 69.8132 184.409 69.5311 187.304C68.9421 193.314 68.418 199.33 68.0586 205.357C67.8789 208.345 67.6817 211.335 67.5868 214.323C67.492 217.23 67.4346 220.138 67.4196 223.048C67.4271 224.95 67.4471 226.852 67.477 228.754C67.497 229.842 67.5145 230.93 67.5319 232.019C67.5419 232.488 67.5494 232.959 67.5544 233.431C67.5594 234.255 67.5594 235.049 67.1925 235.807C66.7532 236.706 65.9196 237.237 64.9711 237.357C64.9711 237.432 64.9711 237.507 64.9661 237.582C64.8713 239.042 63.6183 240.2 62.1707 240.2C62.1108 240.198 62.0509 240.198 61.991 240.193ZM60.9352 234.472C60.4286 233.753 59.9069 233.044 59.3828 232.34C58.669 231.464 57.9601 230.598 57.1789 229.78C56.6073 229.226 56.0133 228.699 55.3893 228.2C54.8053 227.773 54.2088 227.376 53.5873 227.002C52.9059 226.622 52.2095 226.273 51.4932 225.963C51.0639 225.804 50.6296 225.661 50.1878 225.534C49.7685 225.432 49.3517 225.349 48.9224 225.28C48.7153 225.257 48.5056 225.245 48.2985 225.237C47.9515 225.245 47.6096 225.262 47.2626 225.297C47.0879 225.324 46.9132 225.359 46.741 225.399C46.6037 225.439 46.4665 225.484 46.3342 225.534C46.2768 225.559 46.2194 225.587 46.1619 225.616C46.1345 225.636 46.107 225.656 46.0771 225.674C46.0696 225.681 46.0596 225.689 46.0496 225.696L46.0422 225.706C46.0372 225.716 46.0297 225.724 46.0247 225.734C46.0172 225.749 46.0097 225.764 46.0022 225.779C45.9972 225.789 45.9947 225.801 45.9897 225.811C45.9847 225.829 45.9823 225.844 45.9773 225.861C45.9773 225.874 45.9748 225.886 45.9723 225.899C45.9748 225.931 45.9748 225.966 45.9748 225.998C45.9847 226.058 45.9947 226.121 46.0047 226.181C45.9972 226.148 45.9872 226.113 45.9773 226.081V226.088V226.078C45.9548 225.996 45.9348 225.914 45.9124 225.834C45.9648 226.068 46.0347 226.298 46.117 226.523C46.1969 226.705 46.2843 226.884 46.3766 227.059C46.5813 227.396 46.7934 227.721 47.023 228.04C47.375 228.482 47.7419 228.901 48.1312 229.313C48.6254 229.787 49.1371 230.234 49.6787 230.656C50.1504 230.99 50.6296 231.302 51.1263 231.599C51.8501 231.989 52.5864 232.318 53.3377 232.645C54.3635 233.017 55.3918 233.351 56.4451 233.646C57.9227 233.993 59.4053 234.265 60.9078 234.469C60.9153 234.469 60.9252 234.469 60.9352 234.472Z" fill="black"/>
<path d="M114.537 235.915C113.791 235.905 113.124 235.543 112.653 235.004C112.248 235.049 111.834 235.017 111.42 234.877C110.701 234.637 110.049 234.233 109.618 233.601C109.211 233.015 108.946 232.426 108.779 231.732C108.597 230.966 108.485 230.182 108.362 229.406C107.893 226.483 107.556 223.545 107.287 220.6C107.014 217.663 106.76 214.722 106.595 211.777C106.413 208.533 106.288 205.288 106.198 202.036C106.051 196.54 105.996 191.044 105.786 185.553C105.677 182.685 105.534 179.82 105.397 176.952C105.34 175.764 105.285 174.573 105.26 173.383C105.227 171.92 105.157 170.442 105.255 168.98C105.36 167.46 106.705 166.269 108.23 166.369C109.75 166.464 110.946 167.822 110.843 169.342C110.803 169.926 110.806 170.507 110.803 171.089C110.941 177.009 111.335 182.922 111.5 188.845C111.677 195.105 111.732 201.369 111.984 207.627C112.228 213.669 112.73 219.714 113.471 225.719C113.546 226.281 113.621 226.848 113.698 227.417C115.418 225.759 117.228 224.197 119.257 222.921C119.928 222.5 120.595 222.085 121.294 221.708C121.952 221.349 122.619 221.03 123.298 220.713C124.012 220.381 124.768 220.119 125.512 219.861C126.919 219.375 128.502 219.038 129.992 219.292C131.36 219.527 132.565 220.148 133.446 221.234C134.472 222.5 134.804 224.177 134.674 225.767C134.537 227.422 133.738 228.912 132.74 230.197C131.672 231.57 130.109 232.528 128.569 233.277C126.894 234.091 125.062 234.59 123.255 235.012C121.853 235.339 120.43 235.543 119.002 235.718C117.742 235.87 116.479 235.925 115.211 235.925C114.986 235.92 114.762 235.92 114.537 235.915ZM119.097 230.065C120.343 229.883 121.573 229.65 122.801 229.368C123.705 229.116 124.596 228.852 125.474 228.52C125.941 228.32 126.398 228.105 126.849 227.873C127.114 227.716 127.371 227.549 127.626 227.374C127.81 227.224 127.99 227.07 128.167 226.907C128.315 226.75 128.454 226.588 128.589 226.421C128.659 226.321 128.724 226.221 128.786 226.119C128.849 225.991 128.911 225.862 128.971 225.732C129.016 225.605 129.058 225.475 129.093 225.345C129.093 225.34 129.093 225.335 129.096 225.327C129.083 225.377 129.071 225.427 129.056 225.477C129.073 225.387 129.088 225.298 129.106 225.208C129.111 225.15 129.116 225.093 129.121 225.038C129.118 224.986 129.113 224.931 129.108 224.878C129.106 224.873 129.103 224.866 129.103 224.866C129.106 224.883 129.108 224.898 129.108 224.916C129.101 224.883 129.093 224.851 129.086 224.818V224.816C129.041 224.811 128.996 224.808 128.953 224.803C128.879 224.806 128.804 224.811 128.731 224.816C128.447 224.861 128.167 224.916 127.888 224.981C127.149 225.203 126.433 225.475 125.719 225.759C124.93 226.129 124.164 226.516 123.398 226.93C122.544 227.471 121.713 228.026 120.884 228.61C120.275 229.081 119.681 229.568 119.097 230.065Z" fill="black"/>
<path d="M0.0504766 159.086C-0.0867984 158.374 0.0579679 157.621 0.459809 157.014C0.886609 156.365 1.52556 155.991 2.26684 155.804C4.47822 155.247 6.70956 154.773 8.9409 154.304C11.332 153.802 13.7305 153.353 16.1042 152.781C16.4186 152.689 16.7281 152.589 17.0376 152.479C17.105 152.449 17.1699 152.417 17.2373 152.384C17.2448 152.379 17.2498 152.374 17.2573 152.372C17.2623 152.362 17.2698 152.354 17.2747 152.344C18.5876 149.963 19.8131 147.537 21.1035 145.146C22.5236 142.51 23.9538 139.877 25.4039 137.256C26.8965 134.561 28.414 131.88 29.8965 129.175C31.4116 126.404 32.9166 123.631 34.4291 120.861C37.4192 115.39 40.584 110.021 43.7463 104.65C46.7514 99.5483 49.9212 94.549 53.0736 89.5397C55.0977 86.32 57.1369 83.1103 59.2135 79.9255C60.097 78.5702 60.9831 77.2149 61.9041 75.8846C62.4557 75.0884 62.9998 74.2772 63.6113 73.5285C64.2727 72.7173 64.9541 71.8437 65.8251 71.2522C67.0881 70.3961 68.8701 70.783 69.7038 72.0409C70.5249 73.2764 70.2005 74.9436 69.0449 75.8272C68.9001 75.9495 68.7653 76.0843 68.638 76.224C68.7279 76.1342 68.8177 76.0418 68.9076 75.952C68.5582 76.3289 68.2337 76.7132 67.9092 77.1101C66.1421 79.5037 64.5373 82.0096 62.9124 84.498C61.2626 87.0288 59.6553 89.5871 58.0479 92.1429C54.8481 97.2321 51.6184 102.301 48.5684 107.48C46.2348 111.444 43.9136 115.417 41.6248 119.408C38.6198 124.824 35.6895 130.283 32.6745 135.694C29.8491 140.766 27.0362 145.842 24.3382 150.979C23.9313 151.75 23.527 152.524 23.1177 153.293C22.5611 154.338 22.0494 155.542 21.1883 156.368C19.8905 157.613 18.1408 158.037 16.4461 158.457C15.6 158.661 14.7489 158.844 13.8953 159.013C10.3636 159.712 6.82437 160.424 3.33259 161.302C3.1429 161.349 2.95072 161.372 2.76103 161.372C1.48063 161.372 0.29258 160.339 0.0504766 159.086Z" fill="black"/>
<path d="M11.1653 173.052C9.84249 172.413 9.13615 170.654 9.86496 169.313C11.3949 166.498 13.0098 163.727 14.6272 160.96C15.4209 159.599 16.237 158.249 17.0756 156.919C17.4775 156.28 17.8893 155.648 18.3211 155.032C18.6206 154.605 18.9126 154.108 19.3195 153.779C19.8261 153.369 20.3578 153.137 21.0117 153.072C22.5292 152.923 23.8895 154.206 23.9843 155.688C24.0317 156.444 23.7747 157.131 23.3229 157.655C23.3054 157.68 23.288 157.705 23.268 157.73C23.273 157.725 23.278 157.722 23.2805 157.717C23.2705 157.73 23.258 157.745 23.248 157.757C21.8453 159.687 20.6523 161.771 19.4343 163.817C18.2512 165.804 17.1106 167.818 15.97 169.832C15.9824 169.813 15.9924 169.79 16.0049 169.77C15.633 170.429 15.2661 171.09 14.9042 171.754C14.5398 172.423 14.0032 172.947 13.2694 173.192C12.9848 173.287 12.6878 173.332 12.3908 173.332C11.969 173.332 11.5472 173.237 11.1653 173.052ZM22.981 157.992C22.9959 157.984 23.0134 157.979 23.0284 157.972C23.1033 157.897 23.1781 157.82 23.253 157.745C23.2705 157.722 23.288 157.697 23.3054 157.675C23.2056 157.787 23.0983 157.895 22.981 157.992Z" fill="black"/>
<path d="M22.318 174.802C21.5942 171.585 20.8879 168.363 20.219 165.133C19.867 163.428 19.5226 161.723 19.2006 160.014C19.1282 159.627 19.0683 159.238 19.0009 158.851C18.8786 158.134 18.7464 157.351 18.8861 156.627C19.1632 155.202 20.4311 154.256 21.8588 154.306C23.3838 154.356 24.5668 155.793 24.472 157.281C24.467 157.351 24.4595 157.423 24.4495 157.49C24.8613 160.198 25.4604 162.884 26.0319 165.562C26.611 168.29 27.2 171.016 27.814 173.739C28.1485 175.224 27.0627 176.736 25.5976 177.018C25.4179 177.053 25.2407 177.071 25.066 177.071C23.7532 177.068 22.615 176.117 22.318 174.802Z" fill="black"/>
<path d="M27.5668 166.508C26.3862 164.978 25.1483 163.49 23.9128 162.005C22.7222 160.573 21.5067 159.158 20.2014 157.83C20.139 157.772 20.0791 157.715 20.0167 157.658C19.3902 157.338 18.8835 156.796 18.6789 156.093C18.6888 156.12 18.7013 156.145 18.7113 156.172C18.614 155.908 18.5566 155.638 18.5316 155.349C18.3719 153.607 20.1315 152.002 21.8586 152.424C22.233 152.516 22.6274 152.616 22.9419 152.853C23.496 153.267 23.9802 153.709 24.4694 154.193C24.7888 154.513 25.1033 154.842 25.4053 155.177C26.1466 156.003 26.8829 156.831 27.5967 157.682C29.0169 159.37 30.4296 161.064 31.7774 162.812C32.2391 163.411 32.5162 164.072 32.4663 164.841C32.4188 165.577 32.0744 166.276 31.5228 166.763C31.0111 167.212 30.3123 167.449 29.6209 167.451C28.8372 167.451 28.0635 167.149 27.5668 166.508Z" fill="black"/>
<path d="M14.7822 157.047C12.9552 156.725 11.243 155.963 9.54826 155.24C8.0033 154.581 6.46083 153.909 4.93583 153.2C3.55309 152.557 2.97904 150.819 3.63296 149.462C4.30436 148.074 5.99159 147.515 7.37183 148.159C9.16639 148.995 10.9834 149.771 12.8004 150.547C13.649 150.887 14.4952 151.199 15.3712 151.456C15.531 151.488 15.6907 151.521 15.8529 151.548C17.3555 151.81 18.3513 153.358 18.0643 154.83C17.8022 156.181 16.5967 157.087 15.2789 157.087C15.1166 157.089 14.9494 157.074 14.7822 157.047Z" fill="black"/>
<path d="M153.799 130.672C150.267 126.289 146.68 121.959 143.009 117.693C138.893 112.914 134.902 108.027 130.851 103.192C128.355 100.217 125.792 97.2943 123.154 94.4415C120.299 91.3515 117.381 88.329 114.423 85.3364C112.007 82.9403 109.564 80.5767 107.108 78.2156C105.935 77.0874 104.766 75.9568 103.601 74.8211C102.93 74.1672 102.276 73.5008 101.627 72.8219C101.23 72.4076 100.82 71.9434 100.494 71.4691C99.6324 70.2087 100.027 68.4216 101.282 67.5905C102.478 66.7968 104.06 67.0738 104.969 68.1246C104.956 68.1071 104.944 68.0922 104.931 68.0747C105.505 68.776 106.122 69.4275 106.746 70.0789C110.994 74.2071 115.299 78.273 119.467 82.4836C121.596 84.635 123.713 86.7965 125.767 89.0179C127.816 91.2317 129.888 93.4381 131.85 95.7319C135.833 100.397 139.722 105.136 143.673 109.829C145.617 112.135 147.604 114.406 149.553 116.707C151.47 118.971 153.357 121.258 155.231 123.556C156.157 124.692 157.086 125.828 158.007 126.971C158.965 128.159 158.933 129.883 157.752 130.922C157.235 131.376 156.552 131.608 155.873 131.608C155.087 131.616 154.31 131.309 153.799 130.672Z" fill="black"/>
<path d="M152.485 148.241C151.01 147.954 149.956 146.449 150.273 144.959C150.81 142.433 151.434 139.927 152.063 137.426C152.425 135.989 152.797 134.558 153.191 133.131C153.361 132.514 153.545 131.905 153.73 131.296C153.91 130.707 154.122 130.078 154.461 129.559C154.758 129.107 155.158 128.79 155.627 128.526C156.952 127.77 158.734 128.518 159.368 129.824C159.683 130.475 159.733 131.241 159.506 131.928C159.436 132.135 159.346 132.325 159.239 132.499C158.837 133.615 158.54 134.768 158.225 135.909C157.349 139.266 156.493 142.635 155.772 146.03C155.492 147.347 154.327 148.291 153.016 148.291C152.839 148.293 152.662 148.276 152.485 148.241Z" fill="black"/>
<path d="M165.726 148.012C163.549 144.882 161.35 141.767 159.107 138.685C158.305 137.666 157.492 136.668 156.646 135.685C156.281 135.258 155.899 134.846 155.535 134.422C155.131 133.95 154.749 133.423 154.307 132.984C153.229 131.903 153.473 129.991 154.564 129.033C155.121 128.546 155.857 128.297 156.593 128.344C157.362 128.392 157.978 128.756 158.515 129.29C158.974 129.749 159.374 130.298 159.795 130.79C160.315 131.394 160.849 131.983 161.368 132.587C162.563 133.982 163.667 135.442 164.747 136.928C166.667 139.563 168.534 142.244 170.396 144.919C171.267 146.172 170.855 147.969 169.607 148.798C169.138 149.11 168.613 149.255 168.092 149.255C167.178 149.257 166.28 148.808 165.726 148.012Z" fill="black"/>
<path d="M172.958 142.041C170.69 140.848 168.466 139.563 166.247 138.285C163.971 136.975 161.779 135.514 159.5 134.204C159.066 133.967 158.632 133.75 158.18 133.548C157.928 133.455 157.671 133.38 157.409 133.323C157.524 133.353 157.641 133.385 157.756 133.415C157.718 133.408 157.683 133.4 157.648 133.393C156.153 133.091 155.145 131.616 155.437 130.111C155.727 128.621 157.227 127.597 158.719 127.897C160.636 128.284 162.293 129.342 163.938 130.34C164.764 130.842 165.58 131.364 166.407 131.868C168.164 132.939 169.946 133.967 171.735 134.985C172.948 135.669 174.161 136.351 175.392 136.997C176.742 137.708 177.374 139.331 176.695 140.736C176.226 141.707 175.185 142.326 174.134 142.326C173.735 142.326 173.33 142.236 172.958 142.041Z" fill="black"/>
<path d="M154.733 130.107C154.736 130.112 154.738 130.117 154.741 130.125C154.134 129.039 154.519 127.564 155.422 126.77C155.991 126.269 156.743 126.012 157.447 125.767C158.135 125.53 158.852 125.333 159.566 125.171C161.188 124.796 162.81 124.434 164.448 124.115C167.854 123.453 171.259 122.792 174.668 122.153C176.166 121.876 177.661 122.864 177.95 124.369C178.237 125.859 177.237 127.372 175.734 127.651C170.662 128.597 165.586 129.526 160.556 130.686C159.977 130.844 159.408 131.016 158.839 131.213C158.627 131.36 158.395 131.48 158.14 131.565C157.856 131.66 157.566 131.705 157.279 131.705C156.219 131.7 155.208 131.083 154.733 130.107Z" fill="black"/>
<path d="M146.44 138.107C145.584 136.817 145.976 135.095 147.229 134.229C148.671 133.23 150.096 132.207 151.519 131.181C152.293 130.622 153.064 130.06 153.835 129.494C154.479 129.022 155.113 128.52 155.802 128.114C156.443 127.734 157.137 127.557 157.881 127.699C158.612 127.842 159.266 128.281 159.681 128.902C160.489 130.125 160.205 132.007 158.892 132.781C158.256 133.158 157.669 133.617 157.075 134.051C156.326 134.6 155.58 135.15 154.826 135.691C153.334 136.772 151.834 137.848 150.319 138.896C149.864 139.21 149.338 139.358 148.811 139.358C147.89 139.36 146.969 138.906 146.44 138.107Z" fill="black"/>
</svg>
