<svg width="200" height="284" viewBox="0 0 200 284" fill="none" xmlns="http://www.w3.org/2000/svg">
<path d="M74.5792 99.4042C73.7408 99.3772 72.9074 99.3477 72.069 99.3207C71.292 99.2936 70.5077 99.1584 69.7357 99.0748C68.9145 98.9863 68.0909 98.8977 67.2648 98.8068C66.5076 98.7256 65.7454 98.5413 64.9955 98.406C64.2432 98.2733 63.4957 98.1429 62.7459 98.0102C60.5454 97.6217 58.3646 96.9874 56.2428 96.3039C52.245 95.0106 48.3825 93.2503 44.7757 91.0941C42.9711 90.0147 41.2574 88.7682 39.5831 87.4947C37.8055 86.1449 36.1361 84.6623 34.5306 83.1133C31.3589 80.0548 28.6741 76.5168 26.3704 72.7699C24.0863 69.05 22.4316 64.9809 21.4482 60.7299C20.4844 56.5699 20.4574 52.2747 21.018 48.0582C21.581 43.7925 22.9947 39.6865 24.8386 35.8142C28.5389 28.04 34.0512 21.0796 40.601 15.5157C43.3005 13.2194 46.2312 11.1049 49.3488 9.40601C50.8043 8.61433 52.2352 7.7661 53.7473 7.08506C55.2274 6.41877 56.6902 5.70827 58.2146 5.15262C59.1735 4.80104 60.1298 4.45191 61.0887 4.10278C61.696 3.87905 62.318 3.71433 62.9376 3.53239C63.8719 3.25948 64.8086 2.98657 65.7454 2.71612C66.392 2.52681 67.0607 2.40136 67.7147 2.25138C68.4966 2.0719 69.2735 1.88996 70.0529 1.71048C70.9159 1.51379 71.8034 1.38842 72.6762 1.22615C74.3604 0.916361 76.047 0.677873 77.7435 0.441845C78.3041 0.363169 78.8524 0.306607 79.4154 0.259893C80.3767 0.183676 81.3429 0.0583121 82.3067 0.0411017C83.123 0.0288085 83.9442 0.016537 84.7604 0.00178518C85.5423 -0.010508 86.3241 0.0435789 87.106 0.0755411C88.4508 0.134548 89.7883 0.264831 91.1135 0.495943C91.9593 0.64346 92.7903 0.867231 93.614 1.11555C93.9434 1.04671 94.2852 1.04179 94.6294 1.11555C100.582 2.3965 106.549 3.8151 112.268 5.92214C115.098 6.96706 117.831 8.27263 120.477 9.72076C121.822 10.4559 123.137 11.2476 124.396 12.1253C125.741 13.062 127.019 14.0528 128.283 15.1002C130.796 17.1851 132.972 19.6511 135.015 22.186C136.866 24.4848 138.504 27.0295 139.866 29.6479C140.63 31.1206 141.363 32.6057 141.98 34.1473C142.605 35.7036 143.106 37.282 143.536 38.9022C143.93 40.3848 144.181 41.8993 144.328 43.4261C144.422 44.3973 144.419 45.3807 144.454 46.3544C144.481 47.1755 144.439 48.0311 144.368 48.8523C144.301 49.5801 144.279 50.3251 144.171 51.0504C144.043 51.8814 143.95 52.7246 143.765 53.5434C143.6 54.2687 143.485 55.021 143.268 55.7291C143.023 56.5306 142.814 57.3543 142.514 58.1361C142.243 58.8368 142.007 59.5646 141.695 60.2456C141.326 61.0447 140.984 61.8609 140.579 62.6378C140.203 63.3607 139.824 64.086 139.448 64.8088C138.693 66.2569 137.778 67.6215 136.891 68.9885C136.092 70.2203 135.204 71.4177 134.248 72.5314C133.702 73.1707 133.178 73.8344 132.598 74.4417C131.944 75.1203 131.293 75.7989 130.639 76.4775C129.658 77.4978 128.588 78.4518 127.526 79.3885C126.181 80.5687 124.819 81.707 123.432 82.8331C122.264 83.7821 121.033 84.6475 119.821 85.54C119.248 85.9604 118.618 86.3243 118.021 86.7103C117.411 87.1086 116.806 87.5217 116.174 87.888C114.751 88.7141 113.342 89.5525 111.872 90.2999C111.07 90.7081 110.266 91.1186 109.462 91.5268C108.737 91.8956 107.97 92.1955 107.23 92.5275C106.522 92.8422 105.814 93.1593 105.106 93.474C104.358 93.8084 103.564 94.0617 102.799 94.3518C102.118 94.6099 101.437 94.8705 100.754 95.1311C99.9622 95.4335 99.1213 95.645 98.3124 95.9007C97.5896 96.1268 96.8692 96.3555 96.1439 96.5817C95.3375 96.835 94.5064 97.0095 93.6877 97.216C92.8321 97.4299 91.9765 97.6439 91.1234 97.8578C90.4571 98.0225 89.7662 98.1135 89.0925 98.2389C88.1878 98.4036 87.2805 98.5733 86.3782 98.7404C85.6628 98.8732 84.935 98.9248 84.2121 99.001C83.2975 99.1018 82.3829 99.1977 81.4659 99.2985C80.7627 99.3723 80.0349 99.355 79.3293 99.3772C78.4319 99.4067 77.5345 99.4362 76.6371 99.4682C76.5437 99.4706 76.4478 99.4731 76.3519 99.4731C75.7618 99.4731 75.1644 99.4239 74.5792 99.4042ZM76.6838 93.6584C77.419 93.683 78.1762 93.6117 78.9114 93.5847C79.5457 93.5625 80.18 93.5429 80.8143 93.5207C82.2944 93.3609 83.777 93.2011 85.2571 93.0413C86.7372 92.7684 88.2173 92.493 89.6998 92.2201C90.494 92.0726 91.2856 91.8218 92.0699 91.6251C92.8518 91.4309 93.6336 91.2342 94.413 91.0375C95.5464 90.6785 96.6799 90.3245 97.8133 89.968C98.7181 89.6852 99.5934 89.3484 100.481 89.0092C101.445 88.6428 102.426 88.3109 103.367 87.8904C104.488 87.3913 105.612 86.8898 106.733 86.3907C107.913 85.7908 109.089 85.1909 110.269 84.591C110.76 84.3402 111.233 84.0353 111.71 83.7575C112.312 83.4084 112.912 83.0592 113.517 82.7101C114.918 81.8029 116.315 80.903 117.659 79.9122C118.34 79.4131 119.034 78.9287 119.688 78.3952C120.445 77.7805 121.2 77.1684 121.955 76.5537C123.044 75.5973 124.138 74.6507 125.185 73.6501C126.314 72.5732 127.396 71.4717 128.475 70.3482C129.043 69.6819 129.611 69.018 130.181 68.3517C130.454 68.0321 130.688 67.6682 130.936 67.3314C131.209 66.965 131.482 66.5987 131.755 66.2299C132.409 65.2268 133.065 64.2261 133.665 63.1886C134.29 62.1117 134.872 61.025 135.448 59.9235C135.757 59.2449 136.07 58.5639 136.382 57.8854C136.652 57.2953 136.864 56.6658 137.092 56.0561C137.294 55.3972 137.496 54.7358 137.697 54.0769C137.904 53.4057 138.014 52.6878 138.167 51.9994C138.145 52.0977 138.123 52.196 138.103 52.2944C138.214 51.5691 138.324 50.8487 138.437 50.1234C138.543 49.4153 138.565 48.6827 138.629 47.9672C138.617 48.0926 138.609 48.2156 138.597 48.3385C138.614 47.6304 138.632 46.9223 138.649 46.2142C138.663 45.6561 138.624 45.0906 138.597 44.53C138.536 43.763 138.45 43.0032 138.334 42.2459C138.127 41.1494 137.845 40.0848 137.562 39.008C137.368 38.4326 137.176 37.8524 136.982 37.2771C136.775 36.6599 136.495 36.0552 136.252 35.4503C135.718 34.3071 135.162 33.1859 134.582 32.0648C134.022 30.9879 133.37 29.9577 132.726 28.9251C131.664 27.3835 130.557 25.8961 129.387 24.4381C128.229 23.1227 127.034 21.8664 125.78 20.642C124.994 19.9388 124.199 19.2529 123.388 18.5767C122.604 17.9277 121.76 17.3449 120.922 16.7622C119.557 15.887 118.173 15.0732 116.755 14.2913C114.318 13.0522 111.842 11.9507 109.28 10.9992C105.029 9.57076 100.695 8.42995 96.3283 7.42683C95.4776 7.79316 94.4745 7.74397 93.6484 7.2547C93.4935 7.18832 93.3386 7.12441 93.1837 7.0654C92.3183 6.78757 91.4553 6.51713 90.5726 6.30323C89.722 6.13604 88.8713 6.01804 88.0083 5.93445C86.1373 5.79185 84.2736 5.80906 82.4001 5.83856C81.8863 5.88036 81.37 5.92212 80.8537 5.96146C80.2783 6.00572 79.6932 6.02294 79.1252 6.10162C77.8394 6.2811 76.5535 6.46057 75.2676 6.64005C74.2326 6.83182 73.195 7.02361 72.16 7.21539C71.2158 7.38995 70.284 7.61367 69.3497 7.82757C68.4228 8.04147 67.4984 8.24062 66.5887 8.50615C65.5388 8.81102 64.489 9.11839 63.4392 9.42326C62.082 9.91991 60.7298 10.414 59.3726 10.9107C58.7309 11.1443 58.1064 11.4811 57.4819 11.7614C56.8673 12.0368 56.2526 12.3146 55.6355 12.5924C53.8972 13.539 52.1418 14.456 50.4527 15.4887C48.3875 16.7967 46.4156 18.2301 44.5274 19.7839C42.6687 21.3697 40.9157 23.0588 39.2536 24.8462C37.4859 26.8057 35.8509 28.8637 34.3339 31.0199C33.0382 32.9229 31.8458 34.8848 30.7713 36.9231C29.8887 38.6662 29.0995 40.4463 28.416 42.2755C27.9341 43.6548 27.5235 45.0439 27.1989 46.4674C26.9113 47.8959 26.6999 49.3293 26.5597 50.7799C26.4687 52.0313 26.4368 53.2779 26.4786 54.5342C26.545 55.6996 26.6654 56.8552 26.8449 58.0083C27.0859 59.3212 27.4006 60.612 27.7792 61.8929C28.239 63.3239 28.7774 64.7178 29.3896 66.0897C30.1395 67.6706 30.9926 69.1828 31.9146 70.6678C33.0357 72.406 34.2577 74.0681 35.5706 75.6662C36.8687 77.193 38.248 78.6337 39.7109 80.0032C41.5795 81.6923 43.5538 83.2412 45.6116 84.6918C47.2319 85.7932 48.9037 86.7865 50.6395 87.6888C52.6777 88.7092 54.7651 89.6041 56.909 90.381C59.0013 91.1014 61.1256 91.6915 63.2843 92.1759C64.8799 92.5127 66.4977 92.7586 68.1032 93.0389C68.7473 93.152 69.4186 93.1839 70.0677 93.2552C70.8126 93.3363 71.5551 93.4175 72.3001 93.4986C73.7531 93.5625 75.2209 93.6092 76.6838 93.6584Z" fill="black"/>
<path d="M73.364 43.7436C71.8126 43.7068 70.448 42.3521 70.5267 40.7712C70.7086 37.1447 71.0676 33.533 71.4487 29.9261C71.638 28.1289 71.8691 26.339 72.1223 24.5516C72.2551 23.632 72.41 22.7199 72.5723 21.8077C72.6436 21.4045 72.737 21.0037 72.8206 20.6054C72.9878 19.826 73.241 18.941 73.8802 18.405C74.7924 17.6404 75.9135 17.3797 77.042 17.8395C77.3961 17.9845 77.728 18.2231 77.9911 18.5034C78.827 19.3835 78.9991 20.6842 78.5172 21.7365C78.5099 21.761 78.5025 21.7881 78.4951 21.8127C77.9985 24.2074 77.6714 26.6389 77.3862 29.0656C77.101 31.507 76.8626 33.9534 76.6462 36.4022C76.5208 37.902 76.4127 39.4042 76.3364 40.9064C76.2578 42.4652 75.0137 43.7461 73.4278 43.7461C73.4082 43.7461 73.3861 43.7436 73.364 43.7436Z" fill="black"/>
<path d="M91.6095 38.8083C90.8424 38.7911 90.1049 38.4641 89.5763 37.9085C89.0255 37.3332 88.7944 36.6177 88.7723 35.8358C88.6764 32.5437 88.6936 29.2516 88.7305 25.9595C88.7477 24.3048 88.7698 22.6478 88.8239 20.9931C88.8559 20.1104 88.8878 19.2278 88.9247 18.3427C88.9542 17.5879 88.9517 16.8208 89.0329 16.0685C89.2001 14.4925 90.8277 13.4057 92.3422 13.6344C93.1068 13.7499 93.8051 14.1778 94.2575 14.8047C94.6804 15.3874 94.8328 16.0586 94.7935 16.7593C94.7984 16.7003 94.8058 16.6388 94.8107 16.5798C94.6976 18.1435 94.6828 19.7245 94.6287 21.2931C94.5722 22.9674 94.5575 24.6466 94.5378 26.3234C94.4984 29.5393 94.491 32.7551 94.582 35.971C94.6263 37.5323 93.1708 38.8083 91.6685 38.8083C91.6489 38.8083 91.6292 38.8083 91.6095 38.8083Z" fill="black"/>
<path d="M78.0586 212.074C71.74 211.811 65.4065 211.452 59.1149 210.803C55.8965 210.468 52.6979 210.06 49.5164 209.455C48.115 209.19 46.6914 208.892 45.3638 208.369C44.6508 208.088 43.8566 207.771 43.269 207.26C42.5978 206.677 42.0446 206.055 41.6808 205.234C41.2751 204.324 41.1767 203.331 41.1325 202.347C41.0931 201.514 41.0882 200.693 41.1226 199.862C41.2529 196.934 41.5111 194.005 41.7028 191.082C41.8995 188.006 42.1012 184.93 42.3052 181.852C42.706 175.772 43.1854 169.694 43.6525 163.617C44.132 157.391 44.5819 151.164 45.0196 144.936C45.4646 138.573 45.9243 132.21 46.4628 125.854C47.0307 119.192 47.6331 112.531 48.2477 105.871C48.4838 103.306 48.7223 100.742 48.9608 98.1776C49.0763 96.9483 49.1894 95.719 49.3025 94.4897C49.3615 93.8554 49.4205 93.226 49.4746 92.5916C49.5213 92.0581 49.5508 91.5049 49.7549 91.0082C50.2933 89.6781 51.8595 88.9479 53.2412 89.3437C54.6844 89.7543 55.5106 91.1853 55.2991 92.6138C55.3016 92.6064 55.304 92.5965 55.3065 92.5891C55.1467 93.5456 55.1245 94.5438 55.0336 95.5051C54.9156 96.7811 54.7975 98.0547 54.6795 99.3283C54.4558 101.72 54.232 104.115 54.0132 106.51C53.5436 111.629 53.0814 116.745 52.6241 121.864C52.1078 127.937 51.6013 134.012 51.176 140.09C50.7187 146.657 50.2589 153.226 49.7672 159.788C49.3099 165.874 48.8083 171.954 48.3854 178.039C47.9576 184.129 47.5839 190.224 47.1782 196.316C47.0651 198.04 46.9004 199.763 46.9029 201.489C46.9225 201.91 46.9471 202.33 46.9889 202.748C47.1414 202.819 47.2987 202.886 47.4561 202.947C48.2896 203.215 49.1279 203.437 49.9811 203.628C51.6677 203.948 53.3519 204.268 55.0582 204.479C57.0865 204.732 59.11 204.961 61.1433 205.167C66.2326 205.593 71.3245 205.915 76.4237 206.183C81.4786 206.446 86.5286 206.421 91.5836 206.244C95.7829 206.045 99.9896 205.817 104.172 205.372C108.339 204.931 112.487 204.366 116.62 203.668C116.561 203.677 116.499 203.69 116.44 203.7C118.358 203.368 120.318 203.095 122.196 202.571C122.267 202.544 122.339 202.517 122.41 202.49C122.464 202.463 122.518 202.433 122.572 202.406C122.607 202.374 122.639 202.342 122.673 202.311C122.693 202.288 122.712 202.264 122.734 202.242C122.727 202.254 122.717 202.266 122.71 202.279L122.72 202.269C122.776 202.183 122.83 202.094 122.882 202.003C122.998 201.752 123.103 201.499 123.202 201.241C123.332 200.813 123.45 200.388 123.556 199.953C123.789 198.787 123.92 197.619 124.05 196.439C124.215 193.6 124.303 190.757 124.266 187.91C124.227 184.778 124.136 181.651 124.015 178.521C124.02 178.646 124.025 178.769 124.03 178.892C123.484 166.422 122.712 153.947 121.176 141.555C120.379 135.106 119.477 128.67 118.579 122.233C117.724 116.089 116.959 109.937 116.271 103.771C115.563 97.4081 114.909 91.0378 114.1 84.6847C113.901 83.1136 115.137 81.6507 116.686 81.4909C118.287 81.3237 119.681 82.5063 119.88 84.0774C120.615 89.8527 121.222 95.6452 121.859 101.43C122.538 107.602 123.28 113.765 124.126 119.914C124.972 126.088 125.884 132.252 126.649 138.435C127.423 144.692 128.087 150.962 128.569 157.249C129.058 163.629 129.447 170.009 129.729 176.401C130.01 182.747 130.307 189.135 129.928 195.483C129.808 197.482 129.641 199.498 129.171 201.452C128.77 203.137 128.198 204.799 127.052 206.131C126.602 206.65 126.034 207.164 125.417 207.481C124.751 207.82 124.082 208.069 123.366 208.278C122.747 208.457 122.1 208.56 121.466 208.686C120.728 208.831 119.986 208.964 119.246 209.096C117.832 209.347 116.413 209.588 114.995 209.812C108.937 210.763 102.852 211.403 96.7295 211.781C92.6015 212.034 88.471 212.189 84.338 212.189C82.2457 212.202 80.1534 212.162 78.0586 212.074Z" fill="black"/>
<path d="M45.5151 282.818C44.1726 282.292 43.0073 281.357 42.0336 280.315C40.8732 279.073 39.993 277.51 39.5283 275.875C38.6063 272.629 39.1079 268.777 41.7976 266.492C43.3957 265.138 45.5814 264.973 47.5926 264.958C48.8318 264.948 50.0586 265.199 51.2633 265.452C52.4681 265.703 53.6654 266.038 54.821 266.468C56.8862 267.23 58.7843 268.383 60.8373 269.172C60.852 269.177 60.8668 269.182 60.884 269.187C60.97 268.666 61.0241 268.142 61.0758 267.616C61.5429 261.797 61.956 255.972 62.4108 250.15C62.9001 243.9 63.4459 237.655 64.0433 231.413C64.6973 224.602 65.2948 217.782 66.1037 210.986C66.2905 209.413 67.8862 208.321 69.413 208.552C71.016 208.796 72.0339 210.291 71.847 211.862C71.2471 216.892 70.7873 221.942 70.2981 226.985C69.8014 232.123 69.3122 237.264 68.8573 242.41C68.8598 242.368 68.8647 242.327 68.8671 242.285C68.8622 242.356 68.8548 242.427 68.8499 242.496C68.845 242.55 68.8401 242.602 68.8352 242.656C68.8376 242.617 68.8426 242.575 68.845 242.536C68.3435 248.576 67.8837 254.622 67.424 260.666C67.3133 262.116 67.2027 263.564 67.0945 265.012C66.9765 266.544 66.9027 268.088 66.6937 269.61C66.615 270.195 66.5093 270.775 66.3053 271.329C66.0102 272.125 65.5947 272.819 65.0833 273.492C64.8547 273.795 64.5916 274.06 64.3015 274.289C64.3408 274.859 64.2154 275.444 63.9032 275.961C62.7206 277.901 61.2282 279.604 59.3719 280.922C56.933 282.651 54.0416 283.455 51.0888 283.627C50.7741 283.646 50.4594 283.656 50.1496 283.656C48.5638 283.659 47.0247 283.408 45.5151 282.818ZM50.5282 277.846C51.0863 277.81 51.642 277.76 52.1976 277.684C52.6967 277.588 53.1909 277.473 53.6802 277.335C54.0023 277.227 54.317 277.104 54.6292 276.971C54.9808 276.797 55.3275 276.612 55.6643 276.413C56.0159 276.182 56.3552 275.936 56.6846 275.673C56.9772 275.415 57.2575 275.147 57.5255 274.864C57.6853 274.682 57.8402 274.495 57.9926 274.306C57.5132 274.102 57.046 273.881 56.5887 273.664C55.2316 273.02 53.8916 272.334 52.4902 271.793C51.7084 271.555 50.9241 271.334 50.1275 271.142C49.5079 271.014 48.8908 270.896 48.2663 270.81C47.8729 270.785 47.482 270.77 47.0861 270.77C46.7124 270.795 46.3412 270.825 45.9699 270.869C45.8125 270.898 45.6577 270.928 45.5003 270.96C45.488 270.97 45.4782 270.982 45.4659 270.992C45.4217 271.046 45.3774 271.1 45.3356 271.154C45.2815 271.245 45.2274 271.336 45.1733 271.429C45.1389 271.503 45.1069 271.577 45.0774 271.653C45.043 271.769 45.0086 271.882 44.9766 271.995C44.9496 272.138 44.9274 272.283 44.9102 272.428C44.9004 272.6 44.8955 272.772 44.8955 272.946C44.9152 273.234 44.9471 273.514 44.9865 273.8C45.0209 273.964 45.0627 274.127 45.1069 274.289C45.1684 274.473 45.2348 274.655 45.3085 274.835C45.4266 275.081 45.552 275.319 45.6872 275.555C45.8322 275.771 45.9847 275.98 46.142 276.189C46.3043 276.371 46.469 276.546 46.6387 276.716C46.8034 276.856 46.9706 276.991 47.1427 277.121C47.241 277.183 47.3394 277.242 47.4402 277.298C47.6197 277.384 47.8016 277.463 47.986 277.539C48.1827 277.601 48.3794 277.657 48.5785 277.709C48.8072 277.748 49.0334 277.785 49.2645 277.817C49.6898 277.849 50.1053 277.856 50.5282 277.846Z" fill="black"/>
<path d="M112.727 280.586C111.171 280.246 109.7 279.745 108.284 279.012C105.631 277.635 103.564 275.373 102.108 272.789C101.764 272.18 101.688 271.484 101.83 270.832C101.223 270.171 100.869 269.315 100.746 268.43C100.508 266.758 100.525 265.047 100.466 263.361C100.419 261.925 100.375 260.491 100.336 259.055C100.158 252.86 100.021 246.661 99.9077 240.463C99.7799 233.471 99.6594 226.479 99.3939 219.491C99.2955 217.436 99.1357 215.373 99.1038 213.315C99.0816 211.729 100.54 210.441 102.076 210.478C103.704 210.515 104.891 211.867 104.916 213.45C104.916 213.475 104.916 213.502 104.916 213.527C105.051 216.472 105.218 219.42 105.307 222.365C105.41 225.714 105.494 229.063 105.565 232.411C105.698 238.474 105.784 244.535 105.924 250.595C106.037 255.545 106.16 260.496 106.342 265.448C107.178 264.996 108.006 264.528 108.862 264.113C110.143 263.493 111.466 263.002 112.86 262.699C114.512 262.343 116.263 262.333 117.934 262.549C118.409 262.611 118.881 262.672 119.353 262.731C120.223 262.844 121.045 263.088 121.866 263.38C123.464 263.953 124.917 265.015 126.087 266.225C127.031 267.203 127.789 268.477 128.116 269.8C128.462 271.208 128.433 272.6 128.034 273.994C127.253 276.723 124.846 278.968 122.269 280.023C121.386 280.384 120.442 280.677 119.493 280.809C118.643 280.932 117.799 280.981 116.939 281.009C116.794 281.013 116.651 281.016 116.503 281.016C115.24 281.014 113.949 280.851 112.727 280.586ZM117.489 275.184C117.883 275.152 118.269 275.11 118.66 275.059C118.984 274.985 119.301 274.904 119.619 274.813C119.778 274.759 119.933 274.697 120.091 274.633C120.28 274.542 120.467 274.446 120.649 274.343C120.895 274.178 121.131 274.006 121.362 273.827C121.519 273.687 121.669 273.542 121.817 273.392C121.932 273.254 122.04 273.116 122.146 272.974C122.203 272.885 122.254 272.797 122.306 272.706C122.345 272.625 122.38 272.544 122.414 272.46C122.456 272.327 122.495 272.192 122.53 272.057C122.539 272 122.547 271.944 122.554 271.887C122.557 271.823 122.559 271.759 122.557 271.695C122.552 271.619 122.542 271.545 122.532 271.469C122.515 271.381 122.493 271.292 122.468 271.204C122.448 271.149 122.429 271.095 122.407 271.041C122.335 270.901 122.259 270.761 122.18 270.626C122.124 270.547 122.067 270.468 122.011 270.392C121.858 270.223 121.703 270.06 121.541 269.903C121.354 269.748 121.168 269.598 120.973 269.453C120.74 269.303 120.504 269.165 120.26 269.03C119.982 268.902 119.705 268.782 119.422 268.674C119.319 268.644 119.215 268.617 119.112 268.588C118.316 268.433 117.502 268.337 116.693 268.256C116.24 268.231 115.791 268.219 115.341 268.229C115.014 268.253 114.687 268.285 114.36 268.327C113.981 268.401 113.61 268.487 113.238 268.59C112.727 268.765 112.228 268.959 111.731 269.173C110.453 269.8 109.216 270.503 107.952 271.162C108.078 271.334 108.208 271.506 108.341 271.676C108.675 272.059 109.029 272.425 109.398 272.777C109.595 272.947 109.794 273.109 109.998 273.264C110.421 273.537 110.854 273.795 111.296 274.033C111.638 274.188 111.98 274.331 112.329 274.464C112.72 274.592 113.113 274.71 113.514 274.815C114.271 274.968 115.028 275.086 115.798 275.164C116.363 275.189 116.924 275.194 117.489 275.184Z" fill="black"/>
<path d="M55.6366 51.183C54.0729 51.1584 52.8018 49.7546 52.8387 48.2106C52.8756 46.6002 54.2278 45.3733 55.8112 45.3733C56.0742 45.3733 56.3496 45.4175 56.6151 45.4495C58.6853 45.5896 60.7481 45.5282 62.8207 45.4618C75.3474 44.7857 87.8717 43.9817 100.369 42.895C105.22 42.4721 110.061 41.9656 114.907 41.5058C116.483 41.3559 117.936 42.5041 118.101 44.0923C118.265 45.6536 117.093 47.1361 115.514 47.2861C112.576 47.5664 109.645 47.8934 106.705 48.1688C103.636 48.454 100.561 48.7121 97.4899 48.9776C91.3974 49.5013 85.2951 49.9021 79.1903 50.2955C75.2024 50.5536 71.2096 50.8216 67.2192 51.038C64.6696 51.1757 62.1004 51.3625 59.5385 51.3625C58.2354 51.3625 56.9348 51.3133 55.6366 51.183Z" fill="black"/>
<path d="M74.9625 88.0975C73.0275 87.5468 71.186 86.6568 69.3666 85.8184C67.8915 85.1423 66.495 84.2916 65.1083 83.4581C64.7739 83.2565 64.4592 83.0328 64.1396 82.8115C63.6528 82.4747 63.1266 82.1624 62.6644 81.7912C61.5752 80.9183 60.5106 80.048 59.4928 79.0866C57.5726 77.2722 55.9696 75.1405 54.6272 72.8737C53.3757 70.7543 52.5176 68.4285 51.8391 66.0731C50.7966 62.4589 50.504 58.6874 50.7622 54.9478C50.8876 53.126 51.0449 51.3065 51.2637 49.4945C51.453 47.921 53.0462 46.8269 54.5731 47.058C56.1761 47.3039 57.1964 48.7988 57.0096 50.3698C56.867 51.55 56.7563 52.735 56.653 53.9176C56.5424 55.533 56.4465 57.1409 56.4932 58.7587C56.5547 59.8011 56.6703 60.8314 56.835 61.8615C57.0612 63.0589 57.3488 64.239 57.698 65.4068C58.0127 66.3608 58.3618 67.2975 58.7626 68.2171C59.1658 69.0628 59.6059 69.884 60.0902 70.6855C60.6483 71.5436 61.2482 72.3623 61.8949 73.1565C62.5611 73.9235 63.2594 74.6488 63.9945 75.3496C64.7321 76.006 65.5017 76.6133 66.2712 77.228C67.0727 77.7836 67.8718 78.3319 68.7077 78.8359C69.6567 79.4088 70.623 79.9275 71.5991 80.4438C72.9981 81.0855 74.397 81.7297 75.8427 82.2681C76.4942 82.4869 77.1482 82.6714 77.8145 82.8312C78.5644 82.9811 79.3118 83.0967 80.0691 83.1828C81.0918 83.259 82.1122 83.2811 83.1374 83.254C84.384 83.1827 85.6158 83.0229 86.8549 82.8705C87.5851 82.7303 88.3153 82.5877 89.048 82.4476C89.7856 82.305 90.5207 82.0764 91.2509 81.887C92.2491 81.5723 93.2399 81.2527 94.2209 80.8863C95.2265 80.5102 96.21 80.0947 97.2008 79.6743C98.0171 79.2883 98.8333 78.9047 99.6324 78.4843C100.434 78.0614 101.213 77.609 101.993 77.1493C102.632 76.7239 103.252 76.2789 103.851 75.7994C104.473 75.2635 105.061 74.6882 105.654 74.1178C105.565 74.2161 105.477 74.312 105.388 74.4103C105.931 73.8129 106.475 73.2277 106.981 72.6008C107.478 71.9837 107.945 71.3567 108.41 70.72C109.315 69.3431 110.145 67.9417 110.918 66.4837C111.335 65.601 111.717 64.711 112.061 63.7964C112.385 62.7761 112.668 61.7533 112.921 60.7108C113.384 58.4538 113.735 56.1845 113.959 53.8906C114.052 52.5998 114.092 51.3164 114.052 50.0232C113.988 48.8849 113.875 47.7514 113.698 46.6253C113.686 46.5589 113.674 46.4926 113.661 46.4287C113.521 45.6763 113.595 44.9338 113.996 44.2651C114.396 43.5963 115.063 43.1095 115.82 42.93C117.307 42.5784 119.026 43.5275 119.319 45.0838C119.808 47.6629 119.958 50.2961 119.847 52.917C119.719 55.9141 119.228 58.9111 118.616 61.8418C118.259 63.5481 117.735 65.1954 117.13 66.8279C116.599 68.2687 115.842 69.6406 115.095 70.9757C114.323 72.3525 113.452 73.6629 112.525 74.9365C112.08 75.5462 111.603 76.1289 111.129 76.7166C110.908 76.9895 110.654 77.2403 110.418 77.5033C110.128 77.8205 109.846 78.1548 109.536 78.4523C108.729 79.2268 107.923 79.9742 107.057 80.6774C106.01 81.5256 104.855 82.2067 103.699 82.8926C102.428 83.645 101.076 84.267 99.7406 84.8989C98.2728 85.5947 96.741 86.1528 95.2192 86.7207C94.5061 86.9887 93.7587 87.183 93.0335 87.4116C92.1803 87.6821 91.2976 87.8738 90.4322 88.0951C89.6749 88.2868 88.8882 88.395 88.1235 88.5426C87.2778 88.7048 86.4173 88.7835 85.5617 88.8892C84.4528 89.0269 83.3341 89.0958 82.2154 89.0958C79.7642 89.0982 77.3154 88.7663 74.9625 88.0975Z" fill="black"/>
<path d="M11.4326 176.512C9.97216 176.094 8.92233 174.412 9.4411 172.915C9.96233 171.415 10.5032 169.92 11.0564 168.43C11.5776 167.024 12.0792 165.606 12.6447 164.219C13.8052 161.372 15.0517 158.566 16.3449 155.778C19.0396 149.961 21.8744 144.215 24.7584 138.489C25.2329 137.548 25.7 136.604 26.1795 135.667C26.1573 135.711 26.1352 135.755 26.1131 135.797C28.9749 130.191 31.9228 124.63 34.8068 119.034C34.7478 119.147 34.6913 119.258 34.6322 119.373C36.8376 114.963 39.016 110.544 41.1624 106.107C42.3229 103.702 43.4833 101.293 44.7053 98.9225C45.2412 97.8825 45.7723 96.8401 46.3206 95.8099C47.1885 94.1897 48.0736 91.8933 50.1585 91.6671C51.732 91.4999 53.1875 92.6826 53.3523 94.2536C53.4408 95.0896 53.1507 95.8886 52.627 96.4812C52.5901 96.5303 52.5532 96.582 52.5139 96.6311C51.4689 98.3251 50.6035 100.144 49.6914 101.91C49.7504 101.799 49.8069 101.686 49.8659 101.571C47.3237 106.657 44.8995 111.801 42.3597 116.888C40.8919 119.838 39.4045 122.779 37.8875 125.707C36.5942 128.202 35.2641 130.676 33.9733 133.171C34.0323 133.061 34.0889 132.948 34.1479 132.834C33.2382 134.612 32.331 136.395 31.4164 138.172C28.5127 143.945 25.6386 149.728 22.8529 155.562C21.5081 158.37 20.2419 161.219 18.9929 164.074C17.8078 166.783 16.8096 169.576 15.7967 172.357C15.6934 172.64 15.5926 172.92 15.4894 173.203C15.332 173.64 15.1771 174.083 15.0246 174.523C14.764 175.273 14.3215 175.897 13.6085 176.281C13.1856 176.51 12.7086 176.628 12.2292 176.628C11.9637 176.625 11.6932 176.586 11.4326 176.512Z" fill="black"/>
<path d="M149.83 119.545C145.66 118.974 141.66 117.221 138.147 114.952C137.107 114.281 136.116 113.543 135.137 112.788C134.52 112.311 133.886 111.851 133.283 111.352C132.054 110.332 130.82 109.322 129.627 108.255C129.02 107.711 128.413 107.168 127.803 106.624C127.093 105.99 126.441 105.282 125.77 104.608C124.595 103.428 123.523 102.162 122.429 100.903C121.386 99.7034 120.469 98.388 119.513 97.1218C119.073 96.5391 118.687 95.9073 118.278 95.3024C117.9 94.7443 117.519 94.1863 117.147 93.6208C116.248 92.2562 115.36 90.8843 114.389 89.5689C113.349 88.551 113.228 86.8349 114.148 85.6818C115.139 84.4402 116.988 84.2386 118.232 85.2196C118.741 85.6203 119.109 86.1785 119.491 86.6899C119.874 87.2087 120.221 87.7544 120.585 88.2855C121.167 89.1386 121.713 90.0189 122.291 90.8745C122.947 91.8382 123.564 92.8463 124.265 93.7756C125.025 94.7812 125.785 95.7868 126.547 96.7923C127.368 97.7365 128.187 98.6806 129.008 99.6247C129.364 100.035 129.785 100.407 130.168 100.793C130.665 101.292 131.162 101.788 131.658 102.287C132.929 103.423 134.191 104.557 135.504 105.643C137.114 106.981 138.747 108.291 140.455 109.504C141.542 110.244 142.658 110.922 143.819 111.537C144.792 112.016 145.781 112.444 146.796 112.82C147.662 113.11 148.532 113.359 149.422 113.568C150.231 113.727 151.04 113.85 151.856 113.936C152.692 113.993 153.52 114.008 154.356 113.986C155.195 113.934 156.026 113.845 156.857 113.72C157.661 113.568 158.452 113.381 159.239 113.159C159.982 112.916 160.705 112.638 161.423 112.326C162.126 111.987 162.804 111.62 163.475 111.22C164.191 110.755 164.879 110.261 165.546 109.727C166.082 109.26 166.595 108.773 167.09 108.262C167.633 107.642 168.137 107.003 168.621 106.339C169.283 105.358 169.88 104.34 170.436 103.295C171.134 101.906 171.751 100.49 172.373 99.0666C172.764 98.1791 173.084 97.2546 173.43 96.3473C173.708 95.4942 173.984 94.6411 174.261 93.7904C174.557 92.8709 174.778 91.9219 175.033 90.9925C175.506 89.2837 175.869 87.543 176.253 85.8121C176.671 83.7419 177.04 81.6767 177.337 79.5844C177.603 77.6962 177.76 75.7858 177.93 73.8828C177.925 73.9345 177.922 73.9837 177.917 74.0353C177.922 73.9812 177.927 73.9296 177.93 73.8755C177.937 73.8042 177.942 73.7353 177.949 73.664C177.942 73.7329 177.937 73.7992 177.932 73.8681C178.04 72.533 178.141 71.198 178.2 69.8605C178.272 68.2796 179.565 66.9864 181.173 67.0232C182.729 67.0601 184.081 68.4149 184.01 69.9958C183.875 73.0813 183.597 76.1743 183.231 79.2378C182.84 82.5077 182.215 85.7187 181.5 88.9321C181.185 90.3434 180.853 91.7521 180.47 93.1462C180.263 93.8961 180.088 94.6607 179.847 95.3983C179.56 96.2736 179.277 97.1513 178.994 98.0266C178.53 99.4625 177.937 100.866 177.33 102.248C176.012 105.248 174.561 108.146 172.575 110.77C170.042 114.106 166.475 116.555 162.63 118.133C159.802 119.294 156.709 119.813 153.636 119.813C152.355 119.805 151.082 119.714 149.83 119.545Z" fill="black"/>
<path d="M178.346 79.7939C177.55 79.671 176.933 79.2359 176.431 78.6237C175.052 76.9395 173.869 75.0783 172.667 73.2663C171.457 71.4469 170.302 69.5906 169.122 67.7516C167.885 65.8216 166.633 63.9063 165.262 62.0672C164.922 61.6148 164.583 61.1649 164.236 60.7174C163.691 60.0044 163.103 59.2422 163.009 58.3153C162.832 56.5402 164.212 55.0527 165.977 55.0527C167.125 55.0527 168.119 55.7952 168.564 56.7959C169.589 58.2514 170.732 59.6184 171.715 61.1059C172.844 62.8097 173.95 64.5283 175.047 66.2567C175.971 67.7147 176.903 69.1678 177.869 70.6011C178.922 72.1624 179.945 73.7604 181.139 75.2159C182.145 76.4428 181.712 78.3876 180.488 79.2752C179.991 79.6341 179.386 79.8259 178.777 79.8259C178.634 79.8259 178.491 79.816 178.346 79.7939Z" fill="black"/>
<path d="M180.868 79.0105C179.331 78.9761 177.932 77.6214 178.03 76.0381C178.247 72.5271 178.507 69.0186 178.753 65.5077C178.876 63.7547 179.004 62.0041 179.1 60.2511C179.151 59.3169 179.203 58.3777 179.245 57.4434C179.292 56.4255 179.247 55.3536 179.496 54.3627C179.877 52.8236 181.61 51.9459 183.093 52.3713C184.455 52.7597 185.241 54.0308 185.173 55.3658C185.17 55.4052 185.168 55.447 185.165 55.4863C185.16 55.5404 185.158 55.5946 185.153 55.6511C185.155 55.6388 185.158 55.624 185.163 55.6117C185.16 55.6338 185.155 55.656 185.153 55.6781C185.032 57.4262 184.983 59.1792 184.885 60.9273C184.792 62.5599 184.673 64.1899 184.555 65.82C184.305 69.2719 184.059 72.7214 183.845 76.1758C183.749 77.7321 182.537 79.013 180.944 79.0155C180.914 79.0106 180.892 79.0105 180.868 79.0105Z" fill="black"/>
<path d="M177.549 78.2449C176.369 77.3033 176.022 75.3364 177.087 74.1612C179.26 71.7542 181.502 69.416 183.747 67.0754C186.053 64.6684 188.296 62.2024 190.55 59.7512C191.625 58.5833 193.619 58.7579 194.659 59.8471C195.187 60.4003 195.48 61.155 195.463 61.9197C195.445 62.7236 195.094 63.3776 194.563 63.9529C192.387 66.3181 190.216 68.6858 188.003 71.019C186.058 73.072 184.089 75.0954 182.176 77.1779C181.994 77.3795 181.81 77.5787 181.63 77.7803C181.099 78.3679 180.462 78.776 179.661 78.8621C179.56 78.8719 179.459 78.8768 179.359 78.8768C178.707 78.8768 178.063 78.6555 177.549 78.2449Z" fill="black"/>
<path d="M178.326 82.1894C177.578 81.9755 176.937 81.4568 176.568 80.7733C175.848 79.4333 176.317 77.5107 177.751 76.837C180.765 75.4159 183.779 73.9973 186.791 72.5738C189.889 71.1109 192.935 69.5275 196.062 68.131C197.508 67.4869 199.276 68.4015 199.812 69.8177C200.077 70.5184 200.06 71.315 199.763 72.0034C199.441 72.7484 198.853 73.2425 198.125 73.5646C198.056 73.5965 197.99 73.626 197.921 73.658C195.106 74.9512 192.345 76.3699 189.545 77.6927C186.535 79.1162 183.519 80.5372 180.507 81.9559C180.049 82.1722 179.577 82.2976 179.093 82.2976C178.837 82.2976 178.582 82.2632 178.326 82.1894Z" fill="black"/>
<path d="M179.551 82.3661C175.305 80.5639 171.142 78.5503 166.992 76.5416C164.799 75.4795 162.594 74.4248 160.464 73.2323C159.314 72.5906 158.193 71.9219 157.072 71.2285C156.614 70.9458 156.15 70.6261 155.722 70.2991C155.449 70.0901 155.173 69.8812 154.906 69.6673C154.485 69.3354 154.18 68.937 153.905 68.4871C153.138 67.248 153.669 65.5908 154.76 64.7574C155.078 64.514 155.451 64.3615 155.832 64.2632C156.968 63.9682 158.148 64.4624 158.827 65.3548C158.987 65.4778 159.147 65.6007 159.306 65.7236C160.927 66.8202 162.611 67.779 164.322 68.733C167.132 70.159 169.967 71.5334 172.812 72.8881C175.809 74.3141 178.808 75.7376 181.864 77.0333C183.322 77.6529 184.001 79.4133 183.374 80.8565C182.902 81.9481 181.813 82.5972 180.687 82.5972C180.303 82.5948 179.92 82.521 179.551 82.3661ZM157.413 69.8418C157.448 69.832 157.485 69.8197 157.519 69.8098C157.632 69.7582 157.745 69.7066 157.858 69.655C157.962 69.5886 158.062 69.5246 158.166 69.4607C158.166 69.4558 158.168 69.4534 158.168 69.4485C157.942 69.6132 157.689 69.7459 157.413 69.8418Z" fill="black"/>
<path d="M13.9369 198.275C12.7936 197.132 11.9012 195.819 11.0751 194.435C10.1186 192.83 9.34418 191.062 8.73444 189.301C7.50759 185.761 7.0773 181.943 7.41659 178.218C7.48789 177.441 7.66491 176.679 7.85669 175.924C8.03617 175.228 8.27713 174.464 8.64838 173.842C9.25075 172.838 10.2219 172.197 11.4094 172.197C12.9952 172.197 14.2835 173.613 14.2467 175.169C14.2319 175.804 14.0131 176.379 13.6566 176.844C13.5435 177.19 13.4452 177.537 13.3517 177.891C13.2608 178.366 13.1919 178.84 13.1428 179.322C13.1059 179.971 13.0936 180.618 13.1034 181.267C13.1526 182.213 13.2509 183.15 13.3935 184.084C13.5681 185.021 13.7845 185.941 14.0475 186.858C14.2836 187.583 14.5491 188.293 14.8417 188.999C15.3555 190.091 15.8915 191.155 16.5013 192.195C16.8381 192.694 17.1823 193.179 17.556 193.648C17.7453 193.857 17.9371 194.059 18.1387 194.261C19.2574 195.382 19.1713 197.294 18.0428 198.369C17.4847 198.902 16.7742 199.161 16.0612 199.161C15.2916 199.161 14.5171 198.858 13.9369 198.275Z" fill="black"/>
<path d="M21.3906 191.069C19.5269 189.365 17.6412 187.686 15.7554 186.004C14.7695 185.129 13.7811 184.254 12.7977 183.376C12.3182 182.948 11.8486 182.506 11.3766 182.068C10.6365 181.377 9.8055 180.677 9.32115 179.774C8.40163 178.053 9.5203 175.617 11.5782 175.508C11.829 175.494 12.0822 175.474 12.3305 175.526C13.105 175.685 13.7762 176.044 14.2482 176.694C14.2876 176.748 14.3245 176.804 14.3614 176.861C14.9637 177.493 15.6079 178.083 16.2471 178.673C19.1754 181.279 22.1159 183.875 25.0121 186.521C25.5973 187.057 26.0054 187.684 26.0915 188.49C26.1702 189.242 25.9489 190.012 25.4768 190.604C24.9236 191.295 24.009 191.706 23.1141 191.706C22.4871 191.706 21.87 191.507 21.3906 191.069Z" fill="black"/>
<path d="M25.0107 183.967C21.8686 182.408 18.7117 180.864 15.5007 179.453C15.2106 179.354 14.918 179.261 14.623 179.18C13.642 179.248 12.6291 178.85 12.066 177.995C11.5473 177.21 11.3973 176.357 11.6358 175.445C11.889 174.471 12.7667 173.618 13.7551 173.417C15.2598 173.112 16.8382 173.689 18.2151 174.292C19.2526 174.749 20.2754 175.236 21.3007 175.723C23.3143 176.679 25.3254 177.641 27.3243 178.634C28.0348 178.985 28.6003 179.514 28.8855 180.271C29.151 180.972 29.1339 181.769 28.8364 182.457C28.384 183.502 27.2579 184.225 26.1269 184.225C25.7459 184.225 25.3648 184.144 25.0107 183.967Z" fill="black"/>
<path d="M2.10481 198.635C0.587839 198.202 -0.334179 196.557 0.113292 195.04C0.939392 192.22 1.82699 189.42 2.71947 186.62C3.19891 185.112 3.68817 183.61 4.19219 182.115C4.94699 179.871 5.83945 177.631 7.1081 175.625C7.95141 174.285 9.71426 173.795 11.0935 174.624C12.4286 175.423 12.9424 177.272 12.0942 178.609C11.841 179.008 11.6025 179.416 11.3763 179.829C10.742 181.139 10.2429 182.489 9.73394 183.851C8.30793 188.087 6.95567 192.353 5.69931 196.643C5.32806 197.905 4.15038 198.746 2.88664 198.746C2.62849 198.746 2.36543 198.711 2.10481 198.635Z" fill="black"/>
</svg>
