<svg width="133" height="244" viewBox="0 0 133 244" fill="none" xmlns="http://www.w3.org/2000/svg">
<path d="M126.596 215.898C126.789 215.514 126.506 214.968 126.003 215.122C125.546 215.263 125.134 215.502 124.753 215.786C123.596 215.94 122.555 216.514 121.987 217.641C121.792 218.029 121.806 218.394 121.945 218.697C121.919 218.701 121.894 218.706 121.868 218.71C121.779 218.566 121.669 218.428 121.515 218.319C118.998 216.542 114.124 216.95 111.096 216.274C107.296 215.423 102.864 214.247 99.892 211.602C99.3729 211.141 98.8016 211.159 98.3648 211.413C99.6297 208.77 101.052 206.212 102.836 203.844C106.528 206.483 111.119 207.868 116.162 207.126C135.946 204.214 138.801 163.983 116.787 166.754C116.449 166.796 116.184 166.936 115.952 167.109C110.318 159.821 97.501 174.246 95.3641 179.882C93.4634 184.891 93.7999 190.221 95.7157 194.839C93.6804 195.182 91.6438 195.503 89.6058 195.753C89.3132 192.9 89.0633 190.045 88.8848 187.181C88.7433 184.911 88.7721 182.434 88.5263 180.063C89.2762 179.773 89.9711 179.326 90.5437 178.719C92.7177 176.413 91.1562 173.167 88.8367 171.716C88.5675 171.547 88.2805 171.425 87.9921 171.31C88.0058 171.283 88.0264 171.266 88.0374 171.236C94.0677 155.667 87.8108 142.928 78.0876 130.481C62.6089 110.666 49.0734 90.7187 55.4429 64.737C70.1265 59.9583 84.2443 50.1747 90.8802 35.9498C96.1991 24.5468 91.5476 5.50476 78.5038 1.13608C66.998 -2.7184 53.7564 3.62894 48.1148 14.2284C36.6736 -6.38364 4.29879 22.1046 14.7471 40.2992C10.8729 41.2605 7.22259 43.1555 4.23698 46.0446C-2.70931 52.7663 0.191158 64.9386 5.93441 71.3421C9.89783 75.7629 14.5617 78.5368 20.3214 79.9931C28.8086 82.139 37.7654 79.132 46.1166 82.2391C48.1546 82.996 49.0212 79.7531 47.0106 79.0017C38.0263 75.6381 28.1809 78.4902 18.9604 76.1825C7.83372 73.3989 -1.35383 58.354 6.53868 48.3414C16.8016 35.3231 35.2206 45.6401 42.0763 56.1107C48.3414 65.6817 45.191 77.4577 51.3545 87.0918C51.3764 87.1275 51.4176 87.1302 51.4451 87.1563C52.7662 95.6468 55.9647 103.865 60.6752 112.005C72.1247 131.791 92.3922 145.217 86.2342 170.741C86.2177 170.806 86.2287 170.859 86.2246 170.919C85.6203 170.877 85.0106 170.893 84.4091 170.999C82.8037 171.283 80.5926 172.624 80.2273 174.298C80.0831 174.96 80.5363 175.709 81.1927 175.833C81.2628 176.677 81.5127 177.516 81.9577 178.181C82.7419 179.354 83.9325 180.046 85.2207 180.316C85.358 182.62 85.7398 184.976 85.9472 187.181C86.2205 190.108 86.5103 193.13 87.186 196.015C82.4493 196.425 77.7223 196.266 73.0489 194.706C71.7703 194.279 70.4259 195.647 70.8365 196.915C71.6426 199.4 72.5779 201.828 73.5598 204.236C71.2251 205.021 68.9152 205.721 66.4418 206.014C64.1429 198.564 63.8833 184.322 53.0395 186.709C49.3686 187.515 45.5384 191.473 47.8415 195.2C50.2915 199.165 56.8574 197.808 60.3195 195.316C61.8549 199.482 61.9181 204.219 63.6403 208.319C63.9904 209.152 64.7678 209.813 65.7401 209.509C68.7078 208.585 71.5534 207.425 74.2327 205.891C75.7722 209.54 77.4381 213.134 79.1328 216.718C73.3689 221.735 66.6574 226.89 64.7911 234.622C63.3395 240.635 67.0777 244.633 73.0887 243.917C73.8592 243.825 74.6104 243.446 74.8013 242.615C75.7873 238.319 73.4334 234.008 69.7035 231.833C69.8134 231.623 69.9246 231.415 70.0427 231.214C72.7317 226.614 76.875 223.211 80.3083 219.211C82.2584 223.339 84.188 227.481 85.8964 231.719C86.4539 233.103 88.3698 233.64 89.2253 232.154C92.7493 226.037 94.8258 219.197 97.7221 212.795C97.7633 213.02 97.8443 213.246 98.0256 213.461C100.69 216.651 105.259 217.949 109.1 219.056C111.843 219.847 117.337 221.708 120.534 220.673C120.941 220.745 121.35 220.821 121.75 220.885C121.96 220.918 122.169 220.959 122.377 220.993C122.394 223.275 123.624 225.269 126.522 224.981C129.928 224.642 131.555 221.117 130.002 218.211C129.376 217.029 128.029 216.211 126.596 215.898ZM75.3382 3.61525C92.6229 6.8897 91.3252 30.0467 84.1193 40.9067C77.6812 50.608 66.2372 57.3365 55.3234 61.1622C43.8534 43.0156 43.3164 -2.45237 75.3382 3.61525ZM50.8724 82.0458C49.6296 76.3004 49.7298 70.3877 48.6023 64.604C49.6131 64.7123 50.639 64.7329 51.6525 64.774C51.9216 64.7836 52.1922 64.7959 52.4614 64.8069C51.0455 70.7209 50.514 76.4554 50.8724 82.0458ZM52.9709 62.1317C52.931 62.1344 52.9201 62.133 52.8665 62.1344C52.5232 62.1495 52.1798 62.1632 51.8365 62.1769C50.5936 62.2276 49.3261 62.218 48.0942 62.4018C48.0214 62.1221 47.9678 61.8396 47.8868 61.5599C46.0136 55.037 41.608 49.4562 36.48 45.1767C30.8823 40.5049 23.4567 38.7443 16.5351 39.9222C14.0082 30.9627 17.5377 22.7793 24.0706 16.3785C30.6076 9.97216 40.3898 7.57529 45.673 16.5211C45.9504 16.9914 46.3363 17.2259 46.7387 17.2944C46.67 17.4837 46.5821 17.6633 46.5176 17.8525C41.8469 31.7594 44.2722 50.0554 53.2098 61.9465C53.1096 61.9932 53.056 62.0741 52.9709 62.1317ZM57.8709 192.781C56.8848 193.244 55.8713 193.631 54.829 193.945C52.9516 194.847 51.8228 194.038 51.441 191.519C54.0173 188.721 57.062 189.944 58.8432 192.376C58.5507 192.483 58.2472 192.608 57.8709 192.781ZM71.5163 240.393C68.4167 240.16 67.8234 237.867 68.3933 235.276C69.9836 236.691 71.53 238.109 71.5163 240.393ZM101.992 175.558C104.718 172.18 111.503 164.997 115.633 170.061C115.968 170.471 116.568 170.361 116.914 170.03C132.532 169.518 130.701 192.478 122.813 200.38C115.746 207.459 104.902 203.194 100.112 195.817C100.344 195.208 99.9854 194.451 99.2547 194.321C98.9197 193.664 98.6175 192.993 98.3854 192.304C96.3666 186.307 98.1945 180.263 101.992 175.558ZM85.2221 177.22C85.2193 177.257 85.2235 177.298 85.2193 177.337C84.9076 177.222 84.6192 177.072 84.3995 176.871C83.6496 176.186 83.4313 175.373 83.581 174.586C83.8556 174.383 84.1413 174.197 84.4695 174.066C85.2894 173.746 86.0804 173.8 86.8948 174.092C87.4208 174.28 87.9138 174.737 88.2173 175.194C88.5112 175.638 88.6046 176.173 88.492 176.419C88.3766 176.67 88.1981 176.86 87.9962 177.024C87.9811 176.968 87.977 176.906 87.9619 176.851C87.5087 175.268 85.3567 175.701 85.2221 177.22ZM87.8163 226.999C83.7197 217.66 78.8622 208.654 75.3932 199.059C82.5084 200.558 89.9601 199.443 96.905 197.286C97.788 198.83 98.8689 200.248 100.099 201.515C94.3561 209.209 91.9775 218.473 87.8163 226.999ZM125.557 222.238C124.461 222.042 124.51 220.454 124.944 218.935C125.886 218.621 126.76 218.473 127.527 219.656C128.41 221.017 127.04 222.504 125.557 222.238Z" fill="black"/>
<path d="M28.2357 69.1806C24.4618 67.4638 20.3432 67.6119 16.6338 65.3508C12.1788 62.6358 11.3836 57.8667 11.0018 53.0921C10.8851 51.64 8.64107 51.1272 8.31147 52.7288C7.17985 58.2232 8.72896 63.8603 12.9506 67.6325C16.4265 70.7396 23.142 73.4437 27.8017 72.5044C29.2808 72.2041 29.6571 69.8278 28.2357 69.1806Z" fill="black"/>
</svg>
