<svg width="134" height="131" viewBox="0 0 134 131" fill="none" xmlns="http://www.w3.org/2000/svg">
<path d="M102.269 58.992C101.343 51.5372 97.1971 46.5949 90.4971 43.4362C86.718 41.6526 82.696 40.6187 78.8031 39.1866C76.3527 38.2819 73.9022 38.0286 71.369 38.1889C69.906 38.2819 68.4791 38.5301 67.135 37.6099C66.5094 37.1756 65.7133 37.4238 64.9895 37.5633C60.8279 38.3388 57.0953 40.112 53.5954 42.4126C49.5837 45.0492 47.0091 48.9265 44.8378 53.0416C40.8313 60.6308 40.1334 68.3441 44.6362 76.0315C45.4582 77.4273 46.3939 78.7663 47.402 80.0381C49.32 82.4523 50.8658 85.213 53.3421 87.1258C56.8523 89.8451 60.8331 91.8303 65.0412 93.1072C71.2449 94.989 77.5882 95.0459 83.8178 93.0038C89.6286 91.091 94.7105 88.108 97.5849 82.4368C99.57 78.5233 101.286 74.4651 102.15 70.1328C102.548 68.1528 102.905 66.1366 102.636 63.9705C102.625 62.3782 102.475 60.6877 102.269 58.992ZM92.6322 81.9354C90.4402 85.885 86.6612 87.9478 82.6494 89.3281C77.9966 90.9359 73.1112 91.4529 68.1896 90.4138C62.8131 89.2764 57.969 87.1206 54.3243 82.8452C51.4241 79.4435 48.4825 76.0418 46.9316 71.7664C45.4117 67.5738 45.4944 63.2984 46.8437 59.0902C48.0483 55.3421 49.9404 51.8887 52.4684 48.8903C56.0252 44.6769 60.5642 41.9059 66.0907 40.9702C67.2022 40.7841 68.3654 40.6807 69.2753 41.6785C69.8026 42.2627 70.5212 42.3764 71.2966 42.2575C74.3675 41.7922 77.1695 42.5573 80.0956 43.5809C83.399 44.7493 86.6767 45.9487 89.8664 47.3807C93.5214 49.0299 95.915 51.6975 96.9955 55.7609C97.6882 58.3406 97.7451 60.8634 97.864 64.2289C98.3293 70.231 95.8168 76.1866 92.6322 81.9354Z" fill="black"/>
<mask id="mask0_273_4127" style="mask-type:luminance" maskUnits="userSpaceOnUse" x="65" y="105" width="11" height="26">
<path d="M65.7598 105.075H75.024V130.03H65.7598V105.075Z" fill="white"/>
</mask>
<g mask="url(#mask0_273_4127)">
<path d="M70.7223 105.742C69.5487 106.14 68.8974 107.138 69.0783 108.663C69.2747 110.286 69.2954 111.874 69.0524 113.502C68.6234 116.397 68.1477 119.271 67.5739 122.136C67.1913 124.048 66.8088 125.961 66.5658 127.889C66.3693 129.456 67.0621 129.926 68.613 129.595C70.1329 129.275 70.7585 128.117 71.0893 126.856C72.4903 121.51 73.6173 116.118 73.8086 110.576C73.8086 109.599 73.9172 108.611 73.7828 107.66C73.5605 106.135 72.0974 105.277 70.7223 105.742Z" fill="black"/>
</g>
<path d="M42.3914 93.1688C41.5073 93.5514 40.7009 94.1252 39.8996 94.6732C37.0045 96.6791 34.7556 99.388 32.1914 101.751C30.5216 103.291 28.8621 104.847 27.213 106.414C26.7839 106.817 26.4789 107.313 26.8046 107.928C27.1199 108.528 27.6782 108.59 28.4227 108.502C30.1649 108.466 31.7468 107.644 33.1323 106.465C36.9631 103.208 40.7629 99.9153 44.5833 96.6377C45.4157 95.9139 45.7465 95.0764 45.1624 94.058C44.6506 93.1585 43.4563 92.7139 42.3914 93.1688Z" fill="black"/>
<mask id="mask1_273_4127" style="mask-type:luminance" maskUnits="userSpaceOnUse" x="73" y="0" width="8" height="22">
<path d="M73.7012 0H80.3185V21.6975H73.7012V0Z" fill="white"/>
</mask>
<g mask="url(#mask1_273_4127)">
<path d="M74.7458 15.3233C74.7819 16.6157 74.7613 17.9237 74.906 19.2058C75.0456 20.4155 75.9141 21.0617 77.0721 21.1703C78.3181 21.2892 78.7523 20.3431 79.0056 19.3712C79.1711 18.7509 79.2331 18.0891 79.2279 17.4481C79.1711 12.6557 79.4089 7.87886 79.8897 3.11235C80.0603 1.39599 79.3003 0.50679 77.6667 0.305171C76.2502 0.124229 75.3713 0.889354 75.3196 2.6936C75.2059 6.25556 74.5286 9.79167 74.7458 12.8987C74.7458 14.0257 74.7302 14.6771 74.7458 15.3233Z" fill="black"/>
</g>
<mask id="mask2_273_4127" style="mask-type:luminance" maskUnits="userSpaceOnUse" x="110" y="61" width="24" height="10">
<path d="M110.756 61.4014H133.999V70.6656H110.756V61.4014Z" fill="white"/>
</mask>
<g mask="url(#mask2_273_4127)">
<path d="M133.602 63.0713C133.302 62.5388 132.795 62.2752 132.185 62.27C131.859 62.27 131.539 62.3269 131.213 62.3734C126.142 63.1075 121.065 63.852 116.087 65.0875C115.058 65.3409 114.055 65.6821 113.062 66.0491C112.261 66.349 111.63 66.8866 111.651 67.8327C111.677 68.8201 112.473 69.1768 113.222 69.4922C113.662 69.6731 114.158 69.7351 114.582 69.8437C115.047 69.7403 115.451 69.6834 115.833 69.5594C118.64 68.6909 121.51 68.1842 124.425 67.7913C126.669 67.4863 128.861 66.7832 131.068 66.2352C131.953 66.0181 132.764 65.651 133.317 64.8807C133.726 64.3224 133.979 63.7227 133.602 63.0713Z" fill="black"/>
</g>
<path d="M40.0298 28.5423C40.371 29.5452 40.7742 30.5223 41.4205 31.365C41.9323 32.0319 42.5733 32.5075 43.3953 32.5333C44.5223 32.4713 45.4477 31.2305 45.0962 30.0001C43.7934 25.3991 42.1701 20.9065 39.8127 16.719C39.4043 15.9953 38.6702 15.561 37.8327 15.4111C36.959 15.2508 36.2145 15.4938 35.7131 16.2641C35.2788 16.9258 35.1702 17.6444 35.651 18.3113C37.874 21.4028 38.8356 25.0217 40.0298 28.5423Z" fill="black"/>
<path d="M110.684 91.355C109.521 90.6726 108.213 90.807 107.593 91.691C106.812 92.7973 107.577 93.5056 108.342 94.157C109.48 95.1341 110.265 96.349 110.886 97.6931C111.982 100.051 113.181 102.361 113.631 104.967C113.739 105.598 113.993 106.223 114.293 106.792C114.66 107.49 115.316 107.841 116.123 107.759C116.94 107.681 117.472 107.19 117.705 106.43C117.839 105.97 117.865 105.474 117.984 104.714C117.188 101.038 115.993 97.2692 113.491 94.0432C112.7 93.0145 111.832 92.0322 110.684 91.355Z" fill="black"/>
<path d="M109.553 33.4901C111.093 32.451 112.479 31.2051 113.87 29.8868C113.968 30.1815 114.081 30.3366 114.05 30.4451C113.885 30.9724 113.466 31.6187 114.237 31.8927C115.069 32.1873 115.338 31.4274 115.596 30.8329C115.689 30.6261 115.767 30.3055 115.674 30.1298C114.914 28.6977 115.87 27.9016 116.734 27.0176C117.178 26.5626 117.54 25.994 117.814 25.4149C118.166 24.686 118.496 23.8589 117.716 23.1816C116.94 22.5147 116.036 22.5199 115.234 23.0937C111.796 25.5545 108.576 28.2945 105.35 31.0241C104.419 31.8099 104.574 32.694 105.526 33.4953C106.73 34.5034 108.002 34.5292 109.553 33.4901Z" fill="black"/>
<mask id="mask3_273_4127" style="mask-type:luminance" maskUnits="userSpaceOnUse" x="0" y="64" width="20" height="7">
<path d="M0 64.0483H19.4383V70.6656H0V64.0483Z" fill="white"/>
</mask>
<g mask="url(#mask3_273_4127)">
<path d="M16.9715 64.4511C16.0564 64.3994 15.2086 64.7355 14.3452 64.9423C11.1141 65.7332 7.87787 66.5087 4.50719 66.121C3.53528 66.121 2.55303 66.0382 1.59662 66.1468C0.831497 66.2295 0.242145 66.7362 0.107731 67.553C-0.0111722 68.2974 0.479953 68.7989 1.06931 69.0936C1.71552 69.4244 2.42378 69.6364 3.11653 69.8587C6.18736 70.8461 9.24786 70.112 12.2877 69.7036C14.428 69.4089 16.3459 68.5404 17.9227 67.0257C18.4087 66.5604 18.905 66.0589 18.5844 65.3455C18.3001 64.6993 17.659 64.4873 16.9715 64.4511Z" fill="black"/>
</g>
<path d="M82.4164 65.351C80.5036 64.1619 78.6941 64.896 78.2754 67.1966C77.7584 70.0606 76.254 72.2888 74.1189 74.1447C71.7408 76.1971 67.1139 75.432 66.4418 71.6115C66.2144 70.3294 66.0903 69.0525 65.9404 67.7652C65.7284 65.9662 64.3222 64.834 62.8075 65.1287C61.4323 65.3923 60.8223 66.5297 61.2824 68.4218C61.7942 70.5466 62.487 72.6196 63.433 74.61C65.1029 78.1254 68.122 79.3352 71.5082 79.6143C78.8079 79.3869 83.0264 72.7696 83.1918 66.7365C83.2177 66.1161 82.9644 65.6922 82.4164 65.351Z" fill="black"/>
<path d="M63.9555 56.361C64.9067 56.0405 65.9045 55.6217 65.7804 54.412C65.6667 53.3212 65.0205 52.4526 63.94 52.0391C63.5678 51.8995 63.1438 51.9046 62.9422 51.8736C60.8847 51.8633 59.7163 52.6956 59.7266 53.9984C59.7421 55.2908 61.3034 56.6505 62.7716 56.6091C63.1645 56.5988 63.5729 56.4902 63.9555 56.361Z" fill="black"/>
<path d="M79.501 55.2547C80.9072 55.3219 81.8739 54.5102 81.9567 53.1816C82.0601 51.5893 80.9899 50.483 79.2942 50.4313C77.5572 50.3693 76.3216 51.2533 76.3165 52.5457C76.3061 53.9312 77.764 55.1668 79.501 55.2547Z" fill="black"/>
</svg>
