<svg width="214" height="208" viewBox="0 0 214 208" fill="none" xmlns="http://www.w3.org/2000/svg">
<path d="M163.326 94.2118C161.848 82.3063 155.226 74.4134 144.526 69.3688C138.491 66.5204 132.068 64.8692 125.851 62.5822C121.937 61.1373 118.024 60.7328 113.978 60.9887C111.642 61.1373 109.363 61.5336 107.216 60.064C106.217 59.3705 104.946 59.7668 103.79 59.9897C97.1438 61.2282 91.1828 64.0601 85.5933 67.7341C79.1865 71.9448 75.0749 78.1369 71.6073 84.7089C65.2087 96.829 64.0941 109.147 71.2853 121.424C72.598 123.654 74.0924 125.792 75.7024 127.823C78.7654 131.679 81.234 136.087 85.1888 139.142C90.7948 143.485 97.1521 146.655 103.873 148.695C113.78 151.7 123.911 151.791 133.859 148.53C143.139 145.475 151.255 140.711 155.846 131.654C159.016 125.404 161.757 118.923 163.136 112.004C163.772 108.842 164.341 105.622 163.912 102.163C163.895 99.6196 163.656 96.9199 163.326 94.2118ZM147.936 130.853C144.436 137.161 138.4 140.455 131.993 142.659C124.563 145.227 116.761 146.053 108.901 144.393C100.314 142.577 92.5781 139.134 86.7575 132.306C82.1257 126.873 77.4279 121.441 74.951 114.613C72.5237 107.917 72.6558 101.089 74.8107 94.3687C76.7344 88.3829 79.7562 82.8677 83.7935 78.0791C89.4738 71.3503 96.7227 66.925 105.549 65.4306C107.324 65.1334 109.181 64.9682 110.634 66.5617C111.477 67.4946 112.624 67.6763 113.863 67.4864C118.767 66.7433 123.242 67.9653 127.915 69.6C133.191 71.4659 138.425 73.3813 143.519 75.6683C149.356 78.3021 153.179 82.5623 154.904 89.0517C156.011 93.1715 156.102 97.2006 156.291 102.575C157.035 112.161 153.022 121.672 147.936 130.853Z" fill="#FCD800"/>
<mask id="mask0_745_6337" style="mask-type:luminance" maskUnits="userSpaceOnUse" x="105" y="167" width="15" height="41">
<path d="M105.02 167.808H119.815V207.66H105.02V167.808Z" fill="white"/>
</mask>
<g mask="url(#mask0_745_6337)">
<path d="M112.946 168.873C111.072 169.509 110.031 171.102 110.32 173.538C110.634 176.13 110.667 178.665 110.279 181.266C109.594 185.889 108.834 190.479 107.918 195.053C107.307 198.108 106.696 201.163 106.308 204.243C105.994 206.744 107.101 207.496 109.577 206.967C112.005 206.455 113.004 204.606 113.532 202.591C115.77 194.054 117.569 185.443 117.875 176.593C117.875 175.032 118.048 173.455 117.834 171.936C117.479 169.5 115.142 168.13 112.946 168.873Z" fill="#FCD800"/>
</g>
<path d="M67.7005 148.793C66.2887 149.404 65.0007 150.321 63.721 151.196C59.0975 154.399 55.5061 158.725 51.411 162.499C48.7442 164.959 46.094 167.444 43.4602 169.946C42.775 170.59 42.2878 171.382 42.808 172.365C43.3116 173.322 44.2033 173.422 45.3922 173.281C48.1745 173.223 50.7009 171.911 52.9136 170.028C59.0315 164.827 65.0998 159.568 71.2012 154.333C72.5304 153.177 73.0588 151.84 72.1259 150.213C71.3085 148.777 69.4013 148.067 67.7005 148.793Z" fill="#FCD800"/>
<mask id="mask1_745_6337" style="mask-type:luminance" maskUnits="userSpaceOnUse" x="117" y="0" width="12" height="35">
<path d="M117.701 0H128.269V34.6514H117.701V0Z" fill="white"/>
</mask>
<g mask="url(#mask1_745_6337)">
<path d="M119.371 24.4715C119.429 26.5355 119.396 28.6244 119.627 30.6719C119.85 32.6039 121.237 33.6359 123.086 33.8093C125.076 33.9992 125.769 32.4883 126.174 30.9361C126.438 29.9454 126.537 28.8886 126.529 27.8648C126.438 20.2113 126.818 12.5825 127.586 4.97026C127.858 2.22919 126.645 0.809114 124.036 0.487122C121.773 0.198154 120.37 1.42008 120.287 4.3015C120.106 9.99005 119.024 15.6373 119.371 20.5993C119.371 22.3992 119.346 23.4394 119.371 24.4715Z" fill="#FCD800"/>
</g>
<mask id="mask2_745_6337" style="mask-type:luminance" maskUnits="userSpaceOnUse" x="176" y="98" width="38" height="15">
<path d="M176.881 98.0596H214.001V112.855H176.881V98.0596Z" fill="white"/>
</mask>
<g mask="url(#mask2_745_6337)">
<path d="M213.365 100.726C212.886 99.8761 212.077 99.455 211.103 99.4468C210.583 99.4468 210.071 99.5376 209.551 99.6119C201.452 100.784 193.344 101.973 185.393 103.946C183.75 104.351 182.149 104.896 180.563 105.482C179.284 105.961 178.276 106.82 178.309 108.33C178.351 109.907 179.622 110.477 180.819 110.981C181.521 111.27 182.314 111.369 182.991 111.542C183.734 111.377 184.378 111.286 184.989 111.088C189.472 109.701 194.054 108.892 198.711 108.264C202.294 107.777 205.794 106.654 209.32 105.779C210.732 105.433 212.028 104.846 212.911 103.616C213.563 102.725 213.968 101.767 213.365 100.726Z" fill="#FCD800"/>
</g>
<path d="M63.9279 45.5827C64.4728 47.1845 65.1168 48.7449 66.1488 50.0906C66.9662 51.1557 67.9899 51.9153 69.3027 51.9566C71.1025 51.8575 72.5804 49.876 72.019 47.911C69.9384 40.563 67.3459 33.3883 63.5811 26.7007C62.9289 25.5449 61.7565 24.8513 60.419 24.6119C59.0237 24.356 57.8348 24.744 57.0339 25.9742C56.3404 27.031 56.167 28.1786 56.9348 29.2437C60.485 34.1809 62.0207 39.9602 63.9279 45.5827Z" fill="#FCD800"/>
<path d="M176.766 145.896C174.908 144.806 172.82 145.021 171.829 146.433C170.582 148.199 171.804 149.331 173.026 150.371C174.842 151.931 176.097 153.871 177.088 156.018C178.838 159.783 180.754 163.473 181.472 167.635C181.646 168.642 182.05 169.641 182.529 170.549C183.115 171.664 184.164 172.225 185.452 172.093C186.756 171.969 187.607 171.185 187.978 169.971C188.193 169.236 188.234 168.444 188.424 167.23C187.152 161.36 185.245 155.341 181.249 150.189C179.986 148.546 178.599 146.978 176.766 145.896Z" fill="#FCD800"/>
<path d="M174.96 53.4845C177.42 51.825 179.633 49.8353 181.854 47.7299C182.01 48.2005 182.192 48.4482 182.142 48.6216C181.878 49.4637 181.21 50.4958 182.44 50.9333C183.769 51.4039 184.198 50.1903 184.611 49.2408C184.76 48.9106 184.884 48.3987 184.735 48.118C183.521 45.831 185.049 44.5595 186.427 43.1477C187.138 42.4212 187.715 41.513 188.153 40.5883C188.714 39.4241 189.243 38.1031 187.996 37.0216C186.758 35.9565 185.313 35.9648 184.033 36.8812C178.543 40.8112 173.399 45.187 168.247 49.5463C166.761 50.8012 167.009 52.2131 168.528 53.4928C170.452 55.1027 172.483 55.144 174.96 53.4845Z" fill="#FCD800"/>
<mask id="mask3_745_6337" style="mask-type:luminance" maskUnits="userSpaceOnUse" x="0" y="102" width="32" height="11">
<path d="M0 102.287H31.0434V112.855H0V102.287Z" fill="white"/>
</mask>
<g mask="url(#mask3_745_6337)">
<path d="M27.103 102.93C25.6416 102.847 24.2876 103.384 22.9088 103.714C17.7487 104.977 12.5803 106.216 7.1972 105.597C5.64503 105.597 4.07634 105.465 2.54894 105.638C1.32702 105.77 0.385808 106.579 0.171145 107.884C-0.0187469 109.073 0.765592 109.873 1.7068 110.344C2.73883 110.872 3.86994 111.211 4.97627 111.566C9.88047 113.143 14.7682 111.97 19.6228 111.318C23.0409 110.848 26.104 109.461 28.6221 107.042C29.3982 106.298 30.1908 105.498 29.6789 104.358C29.2248 103.326 28.201 102.988 27.103 102.93Z" fill="#FCD800"/>
</g>
<path d="M131.62 104.367C128.566 102.468 125.676 103.641 125.007 107.315C124.182 111.889 121.779 115.447 118.369 118.411C114.571 121.689 107.182 120.467 106.109 114.366C105.745 112.318 105.547 110.279 105.308 108.223C104.969 105.35 102.724 103.542 100.305 104.012C98.1084 104.433 97.1342 106.25 97.869 109.272C98.6863 112.665 99.7927 115.976 101.304 119.154C103.97 124.769 108.792 126.7 114.2 127.146C125.858 126.783 132.595 116.215 132.859 106.58C132.9 105.589 132.496 104.912 131.62 104.367Z" fill="#FCD800"/>
<path d="M102.138 90.0098C103.658 89.4979 105.251 88.8292 105.053 86.8972C104.871 85.1552 103.839 83.7681 102.114 83.1076C101.519 82.8847 100.842 82.893 100.52 82.8434C97.2343 82.8269 95.3684 84.1562 95.3849 86.2367C95.4096 88.3008 97.903 90.4722 100.248 90.4061C100.875 90.3896 101.528 90.2162 102.138 90.0098Z" fill="#FCD800"/>
<path d="M126.965 88.2426C129.211 88.35 130.754 87.0537 130.887 84.9319C131.052 82.389 129.343 80.6221 126.635 80.5396C123.86 80.4405 121.887 81.8523 121.879 83.9164C121.862 86.129 124.191 88.1023 126.965 88.2426Z" fill="#FCD800"/>
</svg>
