<svg width="126" height="139" viewBox="0 0 126 139" fill="none" xmlns="http://www.w3.org/2000/svg">
<path d="M126.438 9.51373C122.814 11.4804 123.835 17.3591 122.338 20.8906C121.875 21.9766 120.863 24.9181 121.408 25.9143C121.202 26.0297 121.202 26.0297 120.962 26.1323C121.185 27.385 121.648 28.1802 122.235 29.2619C124.002 28.736 124.418 29.2063 126.258 28.0733C127.63 27.2225 128.955 19.561 129.457 17.8636C129.778 16.7734 131.682 10.2192 128.835 10.7408C128.655 10.4116 128.655 10.4116 128.475 10.0781C127.694 10.232 126.905 10.0695 126.438 9.51373ZM47.739 0.0564934C47.1258 -0.22996 46.6069 0.697807 45.9165 0.0778705C45.3762 0.372875 45.2604 0.16338 44.6901 0.449832C44.5571 0.304469 44.5571 0.304467 44.4156 0.193307C43.1248 0.894476 41.8727 0.979985 40.7534 2.04457C40.3117 2.47211 40.6548 3.09632 39.9858 3.45546C40.0373 3.64785 40.0373 3.64785 40.0416 3.85735C39.0038 4.4217 37.5458 7.09812 38.189 8.22683C37.207 9.29996 37.6101 12.8999 38.5192 13.9687C38.3734 14.1013 38.3734 14.1013 38.2533 14.2766C39.4755 16.5169 41.3409 16.7178 42.9619 18.2057C44.0468 17.6199 45.1875 17.7824 46.1781 17.8636C48.155 18.0261 51.0153 16.0423 52.4133 14.7469C54.0986 13.1863 53.4896 10.0439 54.7675 8.68002C53.7941 6.8929 53.9099 2.95523 51.5213 1.69398C50.1834 1.01846 48.9698 0.6294 47.739 0.0564934ZM87.8688 14.6186C87.2256 14.4305 86.7753 14.6442 86.102 15.1445C86.102 15.1445 86.0892 15.3155 86.0806 15.3454C86.0806 15.3454 86.0806 15.3454 86.0549 15.3069C85.0986 15.8243 84.8413 16.6922 84.0608 17.0898C84.1766 17.7482 83.4219 19.8303 82.7572 20.1895C82.8944 21.0317 82.1997 23.0241 81.4407 23.4644C81.6122 24.4179 80.1499 29.1123 79.4938 29.4415C79.541 29.6339 79.541 29.6339 79.5495 29.8434C78.8849 30.2068 78.9921 31.25 78.3917 31.8742C78.5032 32.0794 78.5032 32.0794 78.6061 32.3188C78.0229 32.6352 77.9972 32.7336 78.3017 33.3449C77.3454 33.8665 77.161 35.3116 76.7364 36.1625C75.8445 37.9923 73.1128 40.844 71.5819 41.7547C68.0012 43.9437 63.164 45.5171 59.9564 48.1978C59.8234 48.0567 59.8234 48.0567 59.6819 47.9455C58.8929 48.3731 54.8576 50.1858 53.9485 49.3607C52.2417 50.2885 49.9303 49.4676 48.2065 50.2158C47.516 50.5364 46.5941 51.1692 45.7364 51.1264C44.63 51.0794 43.1935 50.9725 42.1214 51.5241C42.1428 51.5668 42.2629 51.6395 42.2843 51.678C41.5082 51.5882 40.8177 51.5625 40.4104 51.7549C40.4447 51.8704 40.5047 52.0286 40.4661 52.1568C40.4275 52.2851 40.3031 52.3492 40.2088 52.4262C39.4669 53.0461 38.3262 57.3814 40.6848 56.9624C41.5467 58.54 44.4885 58.6384 45.938 59.0616C50.1834 60.3143 54.7204 63.2857 57.9023 66.2443C60.7283 68.8523 65.0037 75.4451 65.3725 79.387C65.5354 81.3195 64.2489 86.621 65.008 88.0618C64.652 88.4466 64.3904 91.0888 64.5748 91.4223C63.1511 92.9187 64.339 97.4165 62.6408 99.2549C63.1854 100.251 62.6494 101.346 63.194 102.346C63.3827 102.295 63.3741 102.329 63.5928 102.286C64.0045 103.034 63.7944 102.556 64.0817 103.718C65.2052 103.111 66.6547 102.701 67.9583 102.316C67.671 100.803 69.798 98.2202 69.8537 96.4972C70.0424 92.1962 73.1857 86.1806 75.1626 82.337C75.8573 80.939 76.2175 79.3699 77.5512 78.6473C77.3625 77.5101 81.9424 74.3292 82.873 73.6622C85.7461 71.5074 89.1253 68.9464 92.9676 68.0229C93.9453 67.7878 95.4677 67.9545 96.4197 67.574C97.2902 67.2362 98.4094 66.7659 99.3743 66.8044C100.755 66.8643 103.302 65.9365 104.494 66.2871C105.232 66.5051 107.097 66.7061 107.955 66.4025C114.242 64.0681 107.869 58.4289 106.201 59.331C105.725 58.4588 103.783 57.8175 102.912 57.4583C101.416 56.8427 93.7395 49.459 92.9633 49.6129C91.6468 47.2059 89.5756 44.9912 88.3748 42.7936C88.7908 42.3233 88.3405 40.6559 88.0704 40.16C88.8894 39.2835 87.4529 37.0475 88.3705 36.0641C88.1904 35.7306 88.1904 35.7306 88.0103 35.4014C88.7651 34.6105 87.9117 30.7711 88.7222 29.9289C88.0618 28.7232 89.4469 27.0045 88.9366 25.5295C89.0824 25.3969 89.1853 25.29 89.3826 25.2088C88.3319 21.797 91.4924 18.4365 88.7222 15.6361C88.7436 15.4352 88.705 15.2129 88.5335 15.0932C88.2976 14.8153 88.0832 14.7169 87.8688 14.6186ZM82.1611 37.2014C82.1997 37.3168 82.1825 37.4836 82.2297 37.5691C82.0839 37.7016 82.0839 37.7016 81.9638 37.8726C82.4398 38.7448 81.818 38.8389 81.8223 39.6427C81.818 41.3143 81.9381 43.5119 82.7743 45.0511C82.6328 45.1793 82.6328 45.1793 82.5213 45.3204C83.8335 47.7318 84.7384 50.2286 86.488 52.3449C87.8045 53.9183 90.3046 54.6879 91.3037 56.5177C92.0413 56.3852 92.0928 56.9239 92.453 57.5866C94.0783 57.3002 94.6014 60.1348 96.3639 59.8526C96.5912 60.2673 96.5912 60.2673 96.8399 60.7248C96.2567 61.0411 95.4376 61.567 94.9188 61.0668C93.0877 62.063 90.772 62.3195 88.8294 63.1062C86.5266 64.0339 84.584 65.5175 82.3369 66.4966C82.3841 66.6847 82.3841 66.6847 82.4013 66.8643C81.9853 67.0909 78.1816 69.0747 78.3445 70.0623C77.5941 70.4685 77.5941 70.4685 76.8008 70.9003C76.8522 71.0884 76.8522 71.0884 76.8694 71.268C74.6609 72.4651 74.0391 75.6289 71.955 76.7576C71.4361 75.8042 71.8392 74.9106 71.4575 74.0684C70.1753 71.0756 68.0526 67.0353 66.0028 64.6197C64.6649 63.0036 61.5645 61.4302 60.5524 59.5276C59.995 59.6431 54.879 56.257 54.1329 55.8294C53.481 55.4275 52.3061 54.9059 50.9381 54.3287C53.1894 54.6451 55.2736 54.8033 56.024 54.3971C56.1569 54.5425 56.1655 54.5083 56.2985 54.6537C58.2153 53.6105 60.6082 53.7943 62.4907 52.9862C66.4102 51.3188 70.4026 49.5317 73.7732 47.0007C74.528 46.4577 77.9371 44.3926 77.7656 43.435C78.7219 42.9133 81.8695 38.1933 81.728 37.4921C81.9553 37.3125 82.0367 37.2698 82.1611 37.2014ZM141.803 33.5544C140.1 33.0542 138.316 32.8105 137.776 33.1012C137.141 32.5326 135.696 32.4557 134.808 32.6138C134.697 32.4044 134.697 32.4044 134.594 32.1649C133.968 32.5027 133.676 32.0709 133.042 32.4428C130.246 29.8391 129.937 33.1312 128.822 34.3026C128.891 34.4266 128.925 34.5421 128.993 34.6661C128.633 35.0466 128.363 35.4912 127.994 35.9059C128.38 36.6114 128.852 37.6204 129.319 38.2831C129.409 38.4498 130.173 38.36 130.203 38.3686C130.319 38.3344 130.404 38.2873 130.486 38.2446C130.469 38.655 130.533 39.0227 131.082 39.1852C134.684 40.2455 139.311 39.9676 142.9 40.1172C144.037 40.1728 145.915 39.5058 145.679 38.1805C147.051 37.4365 146.172 37.1073 147 36.2009C146.884 35.9914 146.884 35.9914 146.747 35.7435C146.052 35.8503 146.254 35.2817 145.559 35.3929C145.186 34.7601 143.505 34.0547 141.803 33.5544ZM109.387 24.1229C107.325 23.6526 103.937 24.2255 102.809 23.1994C100.892 24.2383 101.849 26.6796 100.472 27.4235C101.463 30.5745 105.219 29.9374 107.921 30.7327C111.3 31.7246 118.937 33.7981 117.827 27.6159C115.76 27.9836 113.268 24.6017 110.905 25.0207C110.592 24.5461 110.074 24.2896 109.387 24.1229ZM120.919 36.1924C118.599 36.59 116.446 45.7522 115.876 47.6762C115.58 48.6723 115.871 50.5322 115.155 51.2975C115.335 51.6309 115.335 51.6309 115.515 51.9644C114.799 52.7297 115.807 55.1154 116.6 55.0342C118.226 54.8546 118.886 54.5211 120.301 53.7558C120.25 53.5677 120.25 53.5677 120.233 53.3881C121.442 52.7297 123.942 42.2763 123.775 42.0198C124.491 41.2545 124.765 39.3818 124.465 38.3899C124.276 38.437 124.285 38.4028 124.096 38.4541C123.912 38.1206 123.912 38.1206 123.732 37.7871C122.964 37.9111 121.729 36.0513 120.919 36.1924ZM103.44 96.8949C102.505 96.6212 101.707 96.493 101.248 96.4972C100.253 96.5528 98.2207 97.8697 97.5389 97.2155C95.2061 98.4853 93.9753 100.281 91.6854 101.525C90.5619 102.137 91.1536 104.505 90.0773 105.061C90.3818 106.754 88.3963 109.097 88.8551 111.081C89.284 112.949 90.7591 117.289 92.7789 118.263C93.7609 118.729 93.7652 118.242 94.4428 119.486C95.4033 119.315 96.1152 119.978 97.0801 119.914C101.969 119.469 109.392 118.131 112.196 113.381C113.809 110.649 114.019 106.63 113.062 103.599C112.835 102.833 112.458 100.213 111.056 100.461C110.511 99.4644 106.287 97.6644 103.44 96.8949ZM105.631 104.616C106.111 104.757 106.574 104.967 106.849 105.463C109.653 104.963 108.157 109.195 108.354 110.298C107.604 110.704 107.784 111.038 107.119 111.397C107.166 111.589 107.166 111.589 107.175 111.799C105.579 112.342 103.718 112.838 102.23 113.62C100.97 112.449 98.3022 116.263 96.4197 112.817C96.231 112.868 96.2395 112.834 96.0509 112.885C95.4977 111.324 94.4599 110.221 94.5543 108.61C94.6057 107.716 95.7593 106.421 95.6049 105.642C96.231 105.305 96.2781 104.548 96.7756 104.172C99.6402 102.051 101.54 103.552 104.049 104.291C104.572 104.411 105.116 104.467 105.631 104.616ZM28.5404 76.1462C25.7659 74.8807 22.6997 83.7009 22.8756 85.9498C22.7726 86.0567 22.6311 86.1892 22.5582 86.3089C22.3824 86.6766 21.6577 88.763 21.7692 89.5625C21.5633 89.6779 21.5633 89.6779 21.3446 89.8233C21.7735 90.61 21.1817 92.1449 21.4476 93.1282C21.9793 94.9923 22.0736 94.569 23.2272 94.5605C26.7522 94.5861 25.1912 92.0679 27.2196 90.9948C27.1724 90.8024 27.2024 90.8152 27.1553 90.6228C27.3654 90.5116 27.3654 90.5116 27.5798 90.3663C27.5069 90.0328 31.0319 78.8312 31.272 78.4849C31.0276 78.1343 31.0276 78.1343 30.7488 77.7752C30.6245 77.8436 30.5816 77.8649 30.5001 77.9077C30.3415 77.617 30.1528 77.4246 29.7197 77.4716C29.3766 76.7448 28.9392 76.3343 28.5404 76.1462ZM38.1976 94.1885C36.3322 93.637 33.4805 94.2997 32.2626 92.6152C31.3235 92.9657 31.1777 92.504 30.3457 92.9572C30.4572 93.1667 30.4572 93.1667 30.5945 93.4147C29.1107 95.0008 28.0258 98.1989 29.9984 99.7936C30.3372 100.067 30.8818 100.123 31.0876 100.495C32.0868 100.302 33.1589 100.931 34.0508 100.986C36.9154 101.234 40.2002 101.713 43.2278 100.931C43.871 100.773 46.9543 98.5067 45.5563 97.4336C43.2149 95.6635 40.6419 94.9068 38.1976 94.1885ZM7.22331 91.1059C6.29704 90.6912 4.41448 91.1487 3.95992 90.3193C1.26259 90.8152 -1.33611 93.3249 0.769437 96.1424C1.82436 97.5319 4.81758 96.2877 5.61091 97.7414C6.86309 97.5148 7.32194 98.2117 8.3597 98.3742C10.7997 98.7461 13.5485 99.0326 15.7527 97.9723L15.7741 98.0107C16.1086 97.8312 16.1086 97.8312 16.4388 97.6516C16.2845 96.8735 17.6224 96.6041 17.5538 95.7832C17.408 94.6246 15.4954 93.9918 14.7836 93.3291C14.6978 93.3719 14.6378 93.4617 14.5563 93.5044C14.5649 93.4745 14.5649 93.4745 14.5434 93.4318C13.9431 93.5686 8.03379 91.448 7.22331 91.1059ZM20.4698 102.812C18.39 102.406 15.7441 103.894 16.5632 106.087C16.6232 106.245 16.7004 106.335 16.7562 106.386C16.5546 106.468 16.5246 106.459 16.2287 106.51C16.5589 108.353 15.1652 113.065 13.8959 114.398C14.8007 116.062 12.3435 118.58 13.5099 120.666C14.0588 120.581 14.1832 120.863 14.6506 121.175C14.5048 121.308 14.5048 121.308 14.3847 121.479C15.0409 122.684 16.0357 121.932 16.8205 121.29C18.1113 122.475 19.6293 119.119 19.565 117.216C19.5864 117.259 19.6079 117.301 19.6293 117.344C20.547 116.844 20.7786 113.462 21.0745 112.47C21.3189 111.637 22.5882 110.298 22.6397 109.653C22.7126 108.943 22.5325 108.96 22.1551 108.22C22.6783 107.643 22.6397 106.587 22.6869 105.835C22.7426 104.001 21.692 103.064 20.4698 102.812ZM76.7236 124.903C75.6601 124.591 74.5708 125.805 73.6145 124.895C72.9499 125.258 70.9001 126.152 71.0973 127.259C70.5141 127.575 70.4841 127.669 70.7929 128.285C70.4584 128.465 70.4584 128.465 70.1282 128.644C70.1753 128.832 70.1753 128.832 70.1839 129.046C69.2233 129.563 69.9438 130.44 69.6993 131.274C68.7516 134.48 69.6736 137.853 73.3101 138.922C74.4336 139.256 75.8059 138.401 76.9208 138.52C77.9457 138.614 80.7674 137.353 80.5744 136.109C80.9046 135.929 80.9046 135.929 81.2391 135.75C81.1619 135.305 82.903 131.671 83.3104 131.235C82.6757 130.072 83.469 129.397 82.5942 128.097C81.668 126.742 78.4603 125.416 76.7236 124.903Z" fill="#FCD800"/>
</svg>
