<svg width="147" height="170" viewBox="0 0 147 170" fill="none" xmlns="http://www.w3.org/2000/svg">
<path d="M153.565 11.5897C149.164 13.9855 150.403 21.1469 148.586 25.449C148.023 26.7719 146.794 30.3553 147.455 31.5688C147.205 31.7094 147.205 31.7094 146.914 31.8344C147.185 33.3605 147.747 34.3292 148.461 35.6469C150.606 35.0063 151.112 35.5792 153.346 34.199C155.013 33.1626 156.622 23.8292 157.231 21.7615C157.622 20.4334 159.935 12.449 156.476 13.0844C156.257 12.6834 156.257 12.6834 156.039 12.2772C155.091 12.4647 154.132 12.2667 153.565 11.5897ZM57.9814 0.0688204C57.2366 -0.280138 56.6064 0.85007 55.7679 0.0948621C55.1116 0.454237 54.971 0.19903 54.2783 0.547987C54.1168 0.370904 54.1168 0.370903 53.9449 0.235487C52.3772 1.08965 50.8564 1.19382 49.497 2.4907C48.9606 3.01153 49.3772 3.77195 48.5647 4.20945C48.6272 4.44382 48.6272 4.44382 48.6324 4.69903C47.372 5.38653 45.6012 8.64695 46.3824 10.0219C45.1897 11.3292 45.6793 15.7147 46.7835 17.0167C46.6064 17.1782 46.6064 17.1782 46.4606 17.3917C47.9449 20.1209 50.2106 20.3657 52.1793 22.1782C53.497 21.4647 54.8824 21.6626 56.0856 21.7615C58.4866 21.9594 61.9606 19.5428 63.6585 17.9647C65.7054 16.0636 64.9658 12.2355 66.5179 10.574C65.3356 8.39694 65.4762 3.60007 62.5751 2.06361C60.9501 1.2407 59.4762 0.766737 57.9814 0.0688204ZM106.721 17.8084C105.94 17.5792 105.393 17.8397 104.575 18.449C104.575 18.449 104.56 18.6574 104.549 18.6938C104.549 18.6938 104.549 18.6938 104.518 18.6469C103.356 19.2772 103.044 20.3344 102.096 20.8188C102.237 21.6209 101.32 24.1574 100.513 24.5949C100.679 25.6209 99.8356 28.048 98.9137 28.5844C99.122 29.7459 97.346 35.4647 96.5491 35.8657C96.6064 36.1001 96.6064 36.1001 96.6168 36.3553C95.8095 36.798 95.9397 38.0688 95.2106 38.8292C95.346 39.0792 95.346 39.0792 95.471 39.3709C94.7626 39.7563 94.7314 39.8761 95.1012 40.6209C93.9397 41.2563 93.7158 43.0167 93.2001 44.0532C92.1168 46.2824 88.7991 49.7563 86.9397 50.8657C82.5908 53.5324 76.7158 55.449 72.8199 58.7147C72.6585 58.5428 72.6585 58.5428 72.4866 58.4074C71.5283 58.9282 66.6272 61.1365 65.5231 60.1313C63.4501 61.2615 60.6429 60.2615 58.5491 61.173C57.7106 61.5636 56.5908 62.3344 55.5491 62.2824C54.2054 62.2251 52.4606 62.0949 51.1585 62.7667C51.1845 62.8188 51.3304 62.9074 51.3564 62.9542C50.4137 62.8449 49.5751 62.8136 49.0804 63.048C49.122 63.1886 49.1949 63.3813 49.1481 63.5376C49.1012 63.6938 48.9501 63.7719 48.8356 63.8657C47.9345 64.6209 46.5491 69.9022 49.4137 69.3917C50.4606 71.3136 54.0335 71.4334 55.7939 71.949C60.9501 73.4751 66.4606 77.0949 70.3251 80.699C73.7574 83.8761 78.9501 91.9074 79.3981 96.7094C79.596 99.0636 78.0335 105.522 78.9554 107.277C78.5231 107.746 78.2054 110.965 78.4293 111.371C76.7001 113.194 78.1429 118.673 76.0804 120.913C76.7418 122.126 76.0908 123.459 76.7522 124.678C76.9814 124.616 76.971 124.657 77.2366 124.605C77.7366 125.517 77.4814 124.933 77.8304 126.35C79.1949 125.61 80.9554 125.11 82.5387 124.642C82.1897 122.798 84.7731 119.652 84.8408 117.553C85.0699 112.314 88.8876 104.985 91.2887 100.303C92.1324 98.6001 92.5699 96.6886 94.1897 95.8084C93.9606 94.423 99.5231 90.548 100.653 89.7355C104.143 87.1105 108.247 83.9907 112.914 82.8657C114.101 82.5792 115.95 82.7824 117.106 82.3188C118.164 81.9074 119.523 81.3344 120.695 81.3813C122.372 81.4542 125.466 80.324 126.914 80.7511C127.81 81.0167 130.075 81.2615 131.117 80.8917C138.752 78.048 131.013 71.1782 128.987 72.2772C128.408 71.2147 126.049 70.4334 124.992 69.9959C123.174 69.2459 113.851 60.2511 112.908 60.4386C111.31 57.5063 108.794 54.8084 107.336 52.1313C107.841 51.5584 107.294 49.5272 106.966 48.923C107.961 47.8553 106.216 45.1313 107.33 43.9334C107.112 43.5272 107.112 43.5272 106.893 43.1261C107.81 42.1626 106.773 37.4855 107.757 36.4594C106.955 34.9907 108.638 32.8969 108.018 31.1001C108.195 30.9386 108.32 30.8084 108.56 30.7094C107.283 26.5532 111.122 22.4594 107.757 19.048C107.783 18.8032 107.737 18.5324 107.528 18.3865C107.242 18.048 106.981 17.9282 106.721 17.8084ZM99.7887 45.3188C99.8356 45.4594 99.8147 45.6626 99.872 45.7667C99.6949 45.9282 99.6949 45.9282 99.5491 46.1365C100.127 47.199 99.372 47.3136 99.3772 48.2928C99.372 50.3292 99.5179 53.0063 100.533 54.8813C100.362 55.0376 100.362 55.0376 100.226 55.2094C101.82 58.1469 102.919 61.1886 105.044 63.7667C106.643 65.6834 109.679 66.6209 110.893 68.8501C111.789 68.6886 111.851 69.3449 112.289 70.1522C114.263 69.8032 114.898 73.2563 117.039 72.9126C117.315 73.4178 117.315 73.4178 117.617 73.9751C116.908 74.3605 115.914 75.0011 115.283 74.3917C113.06 75.6053 110.247 75.9178 107.888 76.8761C105.091 78.0063 102.731 79.8136 100.002 81.0063C100.06 81.2355 100.06 81.2355 100.08 81.4542C99.5751 81.7303 94.9554 84.1469 95.1533 85.3501C94.2418 85.8449 94.2418 85.8449 93.2783 86.3709C93.3408 86.6001 93.3408 86.6001 93.3616 86.8188C90.6793 88.2772 89.9241 92.1313 87.3929 93.5063C86.7626 92.3449 87.2522 91.2563 86.7887 90.2303C85.2314 86.5844 82.6533 81.6626 80.1637 78.7199C78.5387 76.7511 74.7731 74.8344 73.5439 72.5167C72.8668 72.6574 66.6533 68.5324 65.747 68.0115C64.9554 67.5219 63.5283 66.8865 61.8668 66.1834C64.6012 66.5688 67.1324 66.7615 68.0439 66.2667C68.2054 66.4438 68.2158 66.4022 68.3772 66.5792C70.7054 65.3084 73.6116 65.5324 75.8981 64.548C80.6585 62.5167 85.5074 60.3397 89.6012 57.2563C90.5179 56.5949 94.6585 54.0792 94.4501 52.9126C95.6116 52.2772 99.4345 46.5272 99.2626 45.673C99.5387 45.4542 99.6376 45.4022 99.7887 45.3188ZM172.226 40.8761C170.158 40.2667 167.992 39.9699 167.336 40.324C166.565 39.6313 164.81 39.5376 163.731 39.7303C163.596 39.4751 163.596 39.4751 163.471 39.1834C162.711 39.5949 162.356 39.0688 161.586 39.5219C158.19 36.3501 157.815 40.3605 156.461 41.7876C156.544 41.9386 156.586 42.0792 156.669 42.2303C156.231 42.6938 155.903 43.2355 155.455 43.7407C155.924 44.6001 156.497 45.8292 157.065 46.6365C157.174 46.8397 158.101 46.7303 158.138 46.7407C158.278 46.699 158.382 46.6417 158.481 46.5897C158.461 47.0897 158.539 47.5376 159.205 47.7355C163.58 49.0272 169.2 48.6886 173.56 48.8709C174.94 48.9386 177.221 48.1261 176.935 46.5115C178.601 45.6053 177.533 45.2042 178.539 44.1001C178.398 43.8449 178.398 43.8449 178.231 43.5428C177.388 43.673 177.632 42.9803 176.789 43.1157C176.336 42.3449 174.294 41.4855 172.226 40.8761ZM132.856 29.3865C130.351 28.8136 126.237 29.5115 124.867 28.2615C122.539 29.5272 123.7 32.5011 122.028 33.4074C123.231 37.2459 127.794 36.4699 131.075 37.4386C135.179 38.6469 144.455 41.173 143.106 33.6417C140.596 34.0897 137.57 29.9699 134.7 30.4803C134.32 29.9022 133.69 29.5897 132.856 29.3865ZM146.862 44.0897C144.044 44.574 141.429 55.7355 140.737 58.0792C140.377 59.2928 140.731 61.5584 139.862 62.4907C140.08 62.8969 140.08 62.8969 140.299 63.3032C139.429 64.2355 140.653 67.1417 141.617 67.0428C143.591 66.824 144.393 66.4178 146.112 65.4855C146.049 65.2563 146.049 65.2563 146.028 65.0376C147.497 64.2355 150.533 51.5011 150.33 51.1886C151.2 50.2563 151.533 47.9751 151.169 46.7667C150.94 46.824 150.95 46.7824 150.721 46.8449C150.497 46.4386 150.497 46.4386 150.278 46.0324C149.346 46.1834 147.846 43.9178 146.862 44.0897ZM125.632 118.038C124.497 117.704 123.528 117.548 122.971 117.553C121.763 117.621 119.294 119.225 118.466 118.428C115.632 119.975 114.138 122.163 111.356 123.678C109.992 124.423 110.711 127.308 109.403 127.985C109.773 130.048 107.362 132.902 107.919 135.319C108.44 137.595 110.231 142.881 112.685 144.069C113.877 144.637 113.882 144.043 114.705 145.558C115.872 145.35 116.737 146.157 117.908 146.079C123.846 145.538 132.862 143.907 136.268 138.121C138.226 134.793 138.481 129.897 137.32 126.204C137.044 125.272 136.586 122.079 134.882 122.381C134.221 121.168 129.091 118.975 125.632 118.038ZM128.294 127.444C128.877 127.616 129.44 127.871 129.773 128.475C133.179 127.866 131.362 133.022 131.601 134.366C130.69 134.86 130.908 135.267 130.101 135.704C130.158 135.939 130.158 135.939 130.169 136.194C128.231 136.855 125.971 137.459 124.164 138.413C122.632 136.985 119.393 141.631 117.106 137.433C116.877 137.496 116.888 137.454 116.658 137.517C115.987 135.616 114.726 134.272 114.841 132.308C114.903 131.22 116.304 129.642 116.117 128.694C116.877 128.282 116.935 127.36 117.539 126.902C121.018 124.319 123.325 126.147 126.372 127.048C127.007 127.194 127.669 127.262 128.294 127.444ZM34.6637 92.7615C31.2939 91.2199 27.5699 101.965 27.7835 104.704C27.6585 104.834 27.4866 104.996 27.3981 105.142C27.1845 105.59 26.3043 108.131 26.4397 109.105C26.1897 109.246 26.1897 109.246 25.9241 109.423C26.4449 110.381 25.7262 112.251 26.0491 113.449C26.6949 115.72 26.8095 115.204 28.2106 115.194C32.4918 115.225 30.596 112.157 33.0595 110.85C33.0022 110.616 33.0387 110.631 32.9814 110.397C33.2366 110.262 33.2366 110.262 33.497 110.084C33.4085 109.678 37.6897 96.0324 37.9814 95.6105C37.6845 95.1834 37.6845 95.1834 37.346 94.7459C37.1949 94.8292 37.1429 94.8553 37.0439 94.9074C36.8512 94.5532 36.622 94.3188 36.096 94.3761C35.6793 93.4907 35.1481 92.9907 34.6637 92.7615ZM46.3929 114.741C44.1272 114.069 40.6637 114.876 39.1845 112.824C38.0439 113.251 37.8668 112.689 36.8564 113.241C36.9918 113.496 36.9918 113.496 37.1585 113.798C35.3564 115.73 34.0387 119.626 36.4345 121.569C36.846 121.902 37.5074 121.97 37.7574 122.423C38.971 122.189 40.2731 122.954 41.3564 123.022C44.8356 123.324 48.8251 123.907 52.5022 122.954C53.2835 122.762 57.0283 120.001 55.3304 118.694C52.4866 116.538 49.3616 115.616 46.3929 114.741ZM8.77306 110.985C7.64806 110.48 5.3616 111.038 4.80952 110.027C1.53348 110.631 -1.62277 113.689 0.934519 117.121C2.21577 118.814 5.85119 117.298 6.81473 119.069C8.33556 118.793 8.89285 119.642 10.1533 119.84C13.1168 120.293 16.4554 120.642 19.1324 119.35L19.1585 119.397C19.5647 119.178 19.5647 119.178 19.9658 118.959C19.7783 118.012 21.4033 117.683 21.3199 116.683C21.1429 115.272 18.8199 114.501 17.9554 113.694C17.8512 113.746 17.7783 113.855 17.6793 113.907C17.6897 113.871 17.6897 113.871 17.6637 113.819C16.9345 113.985 9.75744 111.402 8.77306 110.985ZM24.8616 125.246C22.3356 124.751 19.122 126.564 20.1168 129.235C20.1897 129.428 20.2835 129.538 20.3512 129.6C20.1064 129.699 20.0699 129.689 19.7106 129.751C20.1116 131.996 18.4189 137.735 16.8772 139.36C17.9762 141.387 14.9918 144.454 16.4085 146.996C17.0751 146.892 17.2262 147.235 17.7939 147.616C17.6168 147.777 17.6168 147.777 17.471 147.985C18.2679 149.454 19.4762 148.538 20.4293 147.756C21.997 149.199 23.8408 145.11 23.7626 142.793C23.7887 142.845 23.8147 142.897 23.8408 142.949C24.9554 142.34 25.2366 138.22 25.596 137.012C25.8929 135.996 27.4345 134.366 27.497 133.579C27.5856 132.715 27.3668 132.735 26.9085 131.834C27.5439 131.131 27.497 129.845 27.5543 128.928C27.622 126.694 26.346 125.553 24.8616 125.246ZM93.1845 152.157C91.8929 151.777 90.5699 153.256 89.4085 152.147C88.6012 152.59 86.1116 153.678 86.3512 155.027C85.6429 155.413 85.6064 155.527 85.9814 156.277C85.5751 156.496 85.5751 156.496 85.1741 156.715C85.2314 156.944 85.2314 156.944 85.2418 157.204C84.0751 157.834 84.9501 158.902 84.6533 159.918C83.5022 163.824 84.622 167.933 89.0387 169.235C90.4033 169.642 92.0699 168.6 93.4241 168.746C94.6689 168.86 98.096 167.324 97.8616 165.808C98.2626 165.59 98.2626 165.59 98.6689 165.371C98.5751 164.829 100.69 160.402 101.185 159.871C100.414 158.454 101.377 157.631 100.315 156.048C99.1897 154.397 95.2939 152.782 93.1845 152.157Z" fill="black"/>
</svg>
