<svg width="174" height="432" viewBox="0 0 174 432" fill="none" xmlns="http://www.w3.org/2000/svg">
<path d="M156.328 332.809C158.291 339.076 166.926 339.625 171.149 335.557C174.454 332.374 174.925 326.362 172.354 322.621C169.739 318.814 164.55 318.846 161.248 321.483C161.266 321.116 161.229 320.749 161.064 320.411C150.534 298.826 116.891 319.088 107.001 330.939C106.367 331.697 106.509 332.562 106.989 333.12C103.724 331.227 100.056 329.241 96.7002 328.376C102.874 323.865 107.633 317.495 109.637 309.814C112.691 298.11 96.9278 267.745 83.2918 275.88C50.766 260.197 26.532 318.36 60.6023 333.032C63.9887 334.49 67.5423 335.313 71.1238 335.62C71.2817 337.111 71.5139 338.595 71.6951 340.083C62.3745 348.42 53.9527 349.459 46.0791 338.948C43.4754 335.471 41.4919 331.497 39.6199 327.593C38.44 325.132 37.6085 322.258 36.2893 319.758C36.4007 319.686 36.5331 319.635 36.64 319.558C40.9298 316.47 40.3446 310.705 36.359 307.67C36.6098 307.412 36.7747 307.044 36.7561 306.542C35.3602 268.606 72.0457 247.057 85.0523 214.7C95.8989 187.72 104.421 148.59 95.0396 119.959C95.5111 120.103 96.0266 120.173 96.6235 120.033C119.548 114.724 136.375 113.801 153.311 95.6639C165.542 82.5689 172.131 60.9671 164.857 43.856C159.701 31.726 146.604 17.9497 131.813 21.4008C126.727 22.5891 103.677 30.2517 107.094 38.6235C107.133 38.7235 107.191 38.8212 107.249 38.9166C99.7567 33.8841 90.4152 31.4447 80.716 32.6749C80.7369 32.433 80.7602 32.1912 80.7137 31.9261C73.6089 -9.68442 22.7972 -8.78448 4.82027 23.9821C-13.4633 57.3068 23.7217 100.071 58.4052 88.8338C64.9549 103.28 76.6004 115.689 90.0506 118.952C90.0553 119.145 90.0344 119.328 90.0925 119.545C99.0902 153.523 89.1565 200.415 69.6721 229.414C53.674 253.227 29.6396 275.182 33.4952 306.356C32.3037 306.089 31.0542 306.093 29.8696 306.484C29.0799 306.744 28.2763 307.221 27.5493 307.814C26.5297 308.186 25.6146 308.786 24.818 309.788C23.2851 311.719 22.8809 314.058 23.364 316.446C24.1072 320.121 27.2126 321.539 30.4689 321.49C31.0751 325.358 33.1885 329.22 34.7238 332.625C37.5272 338.843 41.4013 344.815 46.5761 349.301C55.9548 357.434 65.8143 352.701 72.2432 344.401C74.2453 359.266 77.274 374.005 81.5359 388.368C82.1259 390.356 84.1396 390.919 85.8908 390.142C90.0111 388.314 94.0245 386.321 97.9706 384.212C96.5306 397.163 92.9423 409.665 87.0754 421.318C82.8273 417.76 77.9359 415.809 72.0807 415.381C70.8613 415.293 69.3609 416.36 69.1658 417.604C68.2646 423.358 70.4548 428.376 76.1452 430.618C80.2957 432.253 86.3995 433.176 89.1727 429.041C89.7348 428.79 90.2457 428.439 90.5476 427.881C97.8058 414.488 102.514 398.212 100.556 382.831C104.901 380.417 109.142 377.842 113.26 375.082C114.698 387.451 123.998 407.942 137.343 395.872C143.206 390.57 147.259 381.121 154.361 377.373C155.546 382.966 161.984 391.647 167.739 385.952C172.254 381.484 171 374.177 165.814 370.91C156.407 364.987 146.704 374.663 141.561 381.331C138.526 385.263 131.351 397.593 125.563 391.43C121.206 386.793 118.263 378.542 117.383 372.182C124.488 367.117 131.249 361.545 137.594 355.406C138.804 354.234 138.756 352.231 137.594 351.055C131.105 344.469 121.025 340.574 112.912 336.495C111.518 335.795 109.79 334.76 107.902 333.651C108.346 333.737 108.838 333.648 109.298 333.239C116.205 327.093 123.826 322.374 132.508 319.158C142.602 315.419 149.702 317.295 158.068 323.414C158.282 323.569 158.495 323.658 158.704 323.725C156.414 326.028 155.302 329.537 156.328 332.809ZM161.155 327.132C161.266 327.109 161.371 327.111 161.487 327.067C163.141 326.439 164.583 325.265 166.295 324.844C166.98 324.676 167.456 324.976 167.723 325.33C168.935 326.925 168.908 329.381 167.865 331.204C166.476 333.63 162.521 333.595 161.064 331.283C160.282 330.039 160.486 328.514 161.155 327.132ZM108.457 39.6654L109.029 39.6143C109.488 39.5701 109.848 39.2678 109.86 38.7817C109.9 37.1027 120.753 31.8284 122.781 30.7819C144 19.8194 159.784 39.5003 161.073 59.1044C162.344 78.4109 147.482 95.3872 132.382 105.006C124.109 110.275 113.962 110.882 104.281 112.375C114.754 102.852 122.911 81.7084 123.591 72.8668C124.674 58.7788 118.24 46.8373 108.23 39.6398C108.306 39.6491 108.376 39.6723 108.457 39.6654ZM9.15658 29.9331C13.6926 14.8125 30.355 5.75 45.1547 5.28489C63.4243 4.71049 68.232 21.2449 75.8571 33.6306C52.2107 39.6468 48.8197 63.0229 56.3821 83.9247C26.1697 85.813 -0.672675 62.695 9.15658 29.9331ZM92.4661 111.891C91.1678 112.405 90.3898 113.982 90.5639 115.291C79.0578 110.022 68.945 98.6731 63.617 85.8455C63.6565 85.2781 63.4266 84.6851 62.99 84.227C58.5515 72.5529 58.1009 59.837 64.2859 49.414C79.7382 23.3705 116.533 45.6838 117.155 70.4901C117.464 82.8828 104.244 107.231 92.4661 111.891ZM33.8413 315.563C33.616 315.728 33.3582 315.888 33.0818 316.039C32.241 315.807 31.3259 316.081 30.8242 316.791C29.5004 316.974 28.2252 316.651 27.7003 315.249C27.612 315.014 27.5679 314.772 27.526 314.53C27.7444 314.495 27.9627 314.463 28.1787 314.367C29.5932 313.737 30.0113 312.226 31.2655 311.444C31.9089 311.042 32.5034 311.212 33.2466 311.637C34.7215 312.481 35.43 314.381 33.8413 315.563ZM75.1163 421.99C78.1264 422.706 80.7555 424.039 83.1153 425.999C79.6941 426.116 76.0221 425.09 75.1163 421.99ZM159.712 375.81C162.922 375.568 164.992 377.51 164.128 380.633C163.535 382.773 160.753 378.366 159.169 375.891C159.352 375.87 159.524 375.826 159.712 375.81ZM55.9061 323.19C47.0221 315.267 48.7965 301.158 53.7761 291.731C59.2087 281.447 69.1147 277.761 79.6779 279.192C78.937 280.845 80.4072 282.682 82.3628 282.331C100.598 279.057 108.402 303.172 100.34 316.593C91.6741 331.018 68.2043 334.153 55.9061 323.19ZM130.856 353.276C117.613 365.685 102.683 375.656 86.3042 383.405C81.6845 367.659 78.477 351.55 74.1338 335.739C79.866 335.746 85.5703 334.427 90.7172 331.948C94.7074 336.223 102.163 338.185 107.363 340.713C114.735 344.294 124.197 347.859 130.856 353.276Z" fill="black"/>
</svg>
