<svg width="111" height="44" viewBox="0 0 111 44" fill="none" xmlns="http://www.w3.org/2000/svg">
<path d="M110.841 26.7285C110.682 26.8354 110.497 26.6924 110.34 26.8224C110.2 26.8245 110.082 27.0145 109.93 26.9239C109.903 26.9348 109.877 26.9458 109.85 26.9566C109.637 27.0364 109.415 27.0374 109.201 27.1051C109.166 27.103 109.137 27.0888 109.114 27.0604C109.113 27.0604 109.111 27.0637 109.111 27.0637C109.111 27.0637 109.111 27.0637 109.111 27.0625C109.054 27.2251 108.82 27.1226 108.842 27.4042L108.867 27.3923C108.858 27.4272 108.858 27.4633 108.865 27.4992C108.946 27.509 109.027 27.5178 109.108 27.5276C109.161 27.6063 109.329 27.519 109.276 27.7503C109.216 27.8923 109.114 27.8344 109.027 27.8508C108.942 27.9229 108.856 27.995 108.772 28.0659L108.732 28.0714L108.693 28.0616C108.671 28.0758 108.65 28.0833 108.626 28.0856C108.625 28.1555 108.624 28.2253 108.623 28.2962C108.675 28.306 108.728 28.3148 108.781 28.3246C108.787 28.3344 108.793 28.3432 108.8 28.3519C108.802 28.3236 108.806 28.293 108.813 28.257C108.94 28.257 109.068 28.2265 109.193 28.282C109.22 28.2952 109.246 28.3094 109.273 28.3225C109.303 28.3989 109.332 28.4764 109.361 28.5528C109.331 28.6621 109.253 28.6369 109.193 28.6653C109.162 28.6533 109.131 28.6423 109.1 28.6304C109.073 28.7046 109.047 28.7784 109.02 28.8522C109.031 28.8594 109.042 28.8676 109.052 28.8778C109.108 28.98 109.117 29.0952 109.102 29.2173C109.096 29.3527 109.017 29.4004 108.948 29.4591C108.921 29.4983 108.895 29.5374 108.868 29.5767C108.837 29.6065 108.802 29.6208 108.764 29.6183C108.762 29.6182 108.761 29.6178 108.758 29.6175C108.739 29.6682 108.719 29.7187 108.699 29.7693C108.862 29.9484 109.072 29.7613 109.243 29.8834C109.259 29.8478 109.277 29.8165 109.3 29.7904C109.317 29.7817 109.333 29.7734 109.349 29.7652C109.401 29.7685 109.453 29.7718 109.506 29.7754C109.707 29.6308 109.907 29.6276 110.108 29.7772C110.158 29.7759 110.209 29.7746 110.259 29.7733C110.259 29.7422 110.265 29.7124 110.274 29.684C110.303 29.6287 110.326 29.6293 110.345 29.6952C110.598 29.9403 110.223 29.9661 110.264 30.1369C110.239 30.2536 110.157 30.2397 110.097 30.2768C110.085 30.2597 110.076 30.2413 110.068 30.2224C110.054 30.2281 110.042 30.2338 110.028 30.2395C110.033 30.2482 110.037 30.2555 110.041 30.2649C110.016 30.4314 109.909 30.4251 109.823 30.4612C109.677 30.4745 109.553 30.5664 109.436 30.6813C109.383 30.6882 109.329 30.6952 109.274 30.7021C109.166 30.746 109.065 30.8325 108.944 30.7946C108.943 30.7943 108.943 30.7939 108.941 30.7937C108.941 30.8305 108.94 30.8673 108.938 30.904C108.887 30.9153 108.836 30.9265 108.784 30.9377C108.709 30.9822 108.635 30.9999 108.564 30.9507C108.558 30.9574 108.552 30.9632 108.547 30.9705C108.491 31.0274 108.436 31.0943 108.361 31.0768C108.359 31.0884 108.357 31.1002 108.355 31.1119C108.423 31.1403 108.478 31.1964 108.523 31.273C108.552 31.3118 108.58 31.3508 108.609 31.3898C108.69 31.4146 108.772 31.4394 108.853 31.4643C108.91 31.4742 108.966 31.4842 109.024 31.4941C109.077 31.5373 109.131 31.5805 109.185 31.6237C109.3 31.7772 109.453 31.6829 109.581 31.7452C109.639 31.8086 109.698 31.8719 109.757 31.9353C109.684 32.188 109.827 32.1484 109.924 32.17C109.955 32.1307 109.984 32.1314 110.01 32.1781C109.997 32.2983 109.924 32.2857 109.865 32.3023C109.788 32.372 109.726 32.5234 109.616 32.4118C109.564 32.4579 109.484 32.4457 109.453 32.5323L109.44 32.52C109.435 32.5578 109.43 32.5957 109.425 32.6334C109.461 32.7098 109.497 32.7862 109.532 32.8625C109.381 33.0113 109.199 33.0182 109.027 33.0681C108.943 33.1052 108.86 33.1425 108.777 33.1798C108.692 33.2582 108.609 33.3365 108.525 33.4147C108.466 33.5289 108.39 33.6104 108.294 33.6537C108.3 33.6632 108.307 33.6728 108.314 33.6822C108.382 33.6441 108.451 33.6026 108.525 33.6733C108.639 33.8427 108.466 33.8962 108.453 34.0142C108.419 34.1137 108.349 34.0999 108.288 34.1132C108.15 34.2448 107.971 34.0743 107.836 34.229C107.81 34.3487 107.755 34.411 107.662 34.4037C107.613 34.3977 107.575 34.3685 107.542 34.3311C107.57 34.3924 107.6 34.4525 107.642 34.5008C107.68 34.5484 107.714 34.6019 107.735 34.6668C107.745 34.716 107.735 34.7583 107.71 34.7939C107.652 34.8663 107.595 34.9386 107.537 35.0109C107.515 35.0467 107.488 35.059 107.458 35.0508C107.444 35.102 107.42 35.1321 107.374 35.1125L107.38 35.1527C107.229 35.1656 107.129 35.392 106.962 35.3417C106.937 35.3515 106.911 35.3587 106.885 35.3631C106.853 35.4313 106.821 35.4995 106.788 35.5678C106.709 35.6128 106.63 35.6579 106.552 35.703C106.552 35.7028 106.552 35.7028 106.552 35.7028C106.548 35.7081 106.545 35.7125 106.543 35.7176C106.563 35.7284 106.581 35.7511 106.6 35.7868C106.653 35.9627 106.65 36.1245 106.54 36.26C106.244 36.3812 105.948 36.5026 105.652 36.624C105.584 36.6927 105.51 36.7182 105.429 36.6679C105.425 36.6452 105.422 36.6236 105.419 36.6023C105.413 36.6093 105.406 36.6159 105.398 36.6212C105.311 36.7681 105.183 36.7113 105.074 36.748C105.055 36.9185 105.129 36.9538 105.229 36.9506C105.229 36.9506 105.224 36.9383 105.224 36.9381C105.388 36.9494 105.552 36.961 105.716 36.9724C105.826 37.1585 106.033 36.9647 106.137 37.1777C106.155 37.3601 106.027 37.4062 105.971 37.5195C105.971 37.5532 105.971 37.5868 105.968 37.6205C105.949 37.6349 105.929 37.6447 105.906 37.65C105.743 37.7157 105.875 38.1042 105.648 38.1004C105.648 38.1093 105.648 38.1181 105.648 38.1269C105.694 38.1609 105.729 38.2077 105.72 38.2979C105.694 38.3392 105.668 38.3804 105.642 38.4217C105.506 38.4252 105.371 38.4299 105.309 38.6436C105.159 38.7976 105.008 38.9491 104.821 39.01C104.683 39.121 104.546 39.2319 104.408 39.343C104.199 39.6168 103.919 39.6588 103.665 39.7847C103.283 40.1034 102.805 40.0497 102.428 40.3865C102.399 40.3741 102.372 40.3617 102.343 40.3492C102.227 40.4992 102.079 40.4812 101.937 40.4954C101.902 40.6181 101.833 40.5969 101.763 40.5731C101.329 40.9157 100.819 40.8246 100.363 41.0346L100.323 41.0478L100.283 41.0324C100.144 41.063 100.024 41.2221 99.8684 41.145C99.7904 41.1535 99.7131 41.1617 99.635 41.1701C99.629 41.1993 99.6224 41.2283 99.6164 41.2575C99.464 41.3854 99.3071 41.3493 99.1488 41.287C99.1562 41.3249 99.148 41.3575 99.1205 41.3838C99.0945 41.3883 99.0699 41.3979 99.0462 41.4122C98.8001 41.4898 98.5748 41.7208 98.3019 41.6033C98.1926 41.6024 98.0826 41.6015 97.9733 41.6007C97.8915 41.6084 97.8105 41.6162 97.7287 41.6242C97.7265 41.655 97.7242 41.6857 97.7227 41.7166C97.6692 41.7241 97.6164 41.7314 97.5629 41.7388C97.4848 41.9369 97.3384 41.7989 97.2335 41.8647C97.0625 41.8302 96.9138 42.0532 96.7369 41.9452C96.6833 41.9525 96.6283 41.9598 96.5741 41.9668C96.464 42.1721 96.2967 42.0233 96.1651 42.0914C96.0291 42.0907 95.893 42.0899 95.757 42.0893C95.757 42.0894 95.757 42.0894 95.757 42.0894C95.7518 42.1166 95.7466 42.1437 95.7399 42.1705C95.7138 42.1755 95.6886 42.186 95.6648 42.2018C95.5547 42.1922 95.4447 42.1827 95.3347 42.1731C95.3057 42.2108 95.2774 42.2485 95.2492 42.286C95.0811 42.4232 94.902 42.4701 94.7094 42.4179C94.6878 42.4037 94.6648 42.3928 94.6432 42.3834C94.5852 42.4497 94.499 42.4041 94.4306 42.4305C94.2447 42.5448 94.0336 42.3829 93.8499 42.5286C93.6648 42.62 93.473 42.6593 93.276 42.6595C93.2194 42.7072 93.1607 42.7006 93.102 42.6663C93.0953 42.6519 93.0901 42.6377 93.0879 42.6238C92.9592 42.6557 92.8254 42.6207 92.6975 42.6649C92.6648 42.6885 92.6343 42.7162 92.6053 42.7487C92.4693 42.7551 92.334 42.7615 92.1972 42.7677C92.1771 42.7653 92.1563 42.7628 92.1362 42.7604C91.9407 42.751 91.7466 42.7562 91.5518 42.7555C91.5288 42.7917 91.4998 42.8105 91.4626 42.8098C91.2106 42.8379 90.9555 42.7583 90.7065 42.8583C90.6812 42.8627 90.6574 42.8714 90.6336 42.8844C90.4745 42.9936 90.2901 42.8482 90.1332 42.9797C90.1042 42.9769 90.0745 42.9741 90.0455 42.9713C90.0366 42.9769 90.0277 42.9815 90.018 42.9883C89.9823 43.0191 89.9429 43.0297 89.9005 43.0205C89.6477 42.9529 89.392 42.9839 89.1377 42.9964C89.0834 43.0172 89.0284 43.0395 88.9712 43.037C88.9347 43.0327 88.8991 43.0217 88.8641 43.0045C88.7585 42.9745 88.6522 42.9749 88.5459 43.0014C88.4968 43.0258 88.447 43.0479 88.4009 43.0833C88.3199 43.0808 88.2388 43.0784 88.1571 43.076C88.1058 43.087 88.0537 43.098 88.0017 43.109C87.8046 43.1505 87.6084 43.1803 87.4128 43.1532C87.363 43.16 87.3139 43.1661 87.2649 43.171C87.2106 43.2091 87.1556 43.2435 87.0991 43.273C87.0597 43.2901 87.0195 43.2985 86.9786 43.3006C86.937 43.2994 86.8969 43.2914 86.8567 43.2782C86.8351 43.2746 86.8128 43.2717 86.7913 43.2686C86.6976 43.2835 86.598 43.2449 86.505 43.2665C86.3697 43.2439 86.2314 43.288 86.0961 43.2681C86.0448 43.2784 85.9943 43.2906 85.9444 43.3074C85.9013 43.3222 85.8582 43.3273 85.8143 43.3242C85.6612 43.3214 85.5073 43.3294 85.3534 43.317C85.3534 43.317 85.3534 43.3173 85.3526 43.3173L85.3615 43.3393C85.1675 43.4091 84.9727 43.3946 84.7787 43.3478C84.7244 43.332 84.6701 43.3164 84.6166 43.3006C84.5623 43.3123 84.508 43.3241 84.4545 43.3359C83.94 43.4354 83.4233 43.3556 82.9073 43.3803C82.9081 43.4017 82.8984 43.4189 82.8768 43.4315C82.8523 43.4393 82.8278 43.4473 82.8025 43.455C82.2263 43.5784 81.6412 43.4006 81.0649 43.5468C80.9036 43.5427 80.7415 43.5386 80.5802 43.5345C80.5534 43.5203 80.5408 43.5041 80.5423 43.4862C80.5393 43.4875 80.5371 43.4886 80.5334 43.4899C80.4196 43.4963 80.3051 43.4944 80.1914 43.4941C80.1906 43.4988 80.1891 43.5036 80.1869 43.5079C80.1772 43.5269 80.1668 43.5363 80.1564 43.5363C80.1311 43.544 80.1059 43.5542 80.0813 43.5671C79.5304 43.5568 78.9787 43.5465 78.4278 43.5362C78.372 43.5481 78.317 43.5601 78.2613 43.572C78.2062 43.5635 78.1512 43.5552 78.0962 43.5467L78.1051 43.5788C77.9133 43.6665 77.7059 43.5341 77.5178 43.6606C77.4665 43.6588 77.4152 43.657 77.3639 43.6552C77.1758 43.5353 76.9661 43.6753 76.7765 43.568L76.7862 43.5371C76.7267 43.5376 76.668 43.5382 76.6085 43.5386L76.6226 43.5739C76.4814 43.624 76.3401 43.6305 76.1996 43.5687C76.1736 43.5565 76.1475 43.5443 76.1215 43.5321C76.0382 43.5439 75.955 43.5556 75.8717 43.5674C75.8487 43.5642 75.8256 43.5611 75.8033 43.5581C75.6858 43.5674 75.5691 43.5736 75.4524 43.5786C75.4234 43.5942 75.3959 43.6172 75.3699 43.6523C75.3178 43.6523 75.2658 43.6523 75.2137 43.6523C75.0174 43.5659 74.8174 43.6117 74.6189 43.6249C74.4955 43.681 74.3646 43.6852 74.239 43.7262C74.2048 43.7402 74.1699 43.7523 74.1349 43.7633C74.0814 43.7609 74.0286 43.7585 73.9751 43.7561C73.7937 43.58 73.5959 43.6809 73.4033 43.6909C72.99 43.6864 72.5773 43.6817 72.1647 43.6772C71.9967 43.6805 71.8286 43.6837 71.6606 43.6872C71.6361 43.6768 71.6108 43.6662 71.5862 43.6555C71.5862 43.6553 71.5862 43.6553 71.5862 43.6553V43.6555C71.0948 43.6618 70.6041 43.6682 70.1134 43.6747C70.1127 43.6747 70.1127 43.6747 70.1127 43.6748C70.1067 43.7027 70.1008 43.7308 70.0948 43.7591C69.851 43.7689 69.6063 43.7786 69.3617 43.7882C69.2242 43.7881 69.0874 43.788 68.9498 43.7878C68.9201 43.7833 68.8911 43.7787 68.8614 43.774C68.8614 43.7742 68.8614 43.7742 68.8614 43.7742C68.8116 43.774 68.761 43.7739 68.7104 43.7736C68.6681 43.8575 68.5803 43.8165 68.532 43.8838C68.4777 43.8823 68.4227 43.881 68.3677 43.8794C68.2041 43.7843 68.0517 43.8316 67.9038 43.947C67.7952 43.9509 67.6859 43.9486 67.5766 43.949C67.3885 43.9192 67.1945 44.001 67.0101 43.9116C67.0019 43.916 66.9937 43.9196 66.9848 43.9253C66.8949 43.9539 66.8056 43.9649 66.7172 43.9143C66.6376 43.8735 66.5581 43.8329 66.4792 43.7922C66.1179 43.7817 65.7566 43.7714 65.3952 43.7608L65.399 43.7865C65.2198 43.9803 65.0049 43.8469 64.8116 43.9084C64.7544 43.9332 64.6971 43.9549 64.6458 44C64.5945 43.9964 64.5432 43.9928 64.4919 43.9894C64.5194 43.8846 64.5477 43.7798 64.5752 43.6751C64.5752 43.675 64.5752 43.6749 64.5752 43.6749C64.2726 43.6708 63.9712 43.6667 63.6689 43.6626C63.4492 43.7216 63.2075 43.5479 63.0056 43.7843C63.005 43.7843 62.9658 43.788 62.9658 43.788L62.9266 43.78C62.7247 43.6586 62.513 43.7447 62.3062 43.7287C62.0425 43.7787 61.7769 43.8641 61.5229 43.6674C61.4397 43.6633 61.3559 43.6593 61.2721 43.6552C61.0836 43.4045 60.8015 43.704 60.6148 43.4429C60.6148 43.4428 60.6148 43.4428 60.6148 43.4428C60.2551 43.3858 59.8842 43.5377 59.53 43.3659C59.4987 43.4002 59.4651 43.4279 59.4265 43.4448C59.0117 43.5094 58.5987 43.5078 58.1893 43.3775C58.1263 43.3621 58.0639 43.3502 58.0008 43.3384C57.7353 43.3519 57.4721 43.3015 57.2084 43.2593C56.8988 43.2502 56.5879 43.2573 56.2783 43.2551C56.238 43.2723 56.1982 43.2965 56.1602 43.3311C56.1437 43.3024 56.1186 43.2795 56.0984 43.2536C55.9522 43.2506 55.8059 43.2438 55.6627 43.3018C55.5826 43.3247 55.5006 43.3222 55.4191 43.3273C55.3666 43.3201 55.3139 43.3128 55.2613 43.3055C55.2246 43.2555 55.205 43.1949 55.2026 43.1234C55.205 43.0801 55.2142 43.0436 55.2264 43.0105C55.2013 43.0253 55.175 43.0258 55.1463 43.0117C55.1371 43.0046 55.1291 42.9964 55.1206 42.9884C54.2033 43.0777 53.2861 42.9607 52.3694 42.9841C52.1773 43.0302 51.9656 42.8799 51.7912 43.0968C51.7642 43.0966 51.7373 43.0974 51.7104 43.0988C51.6131 43.3153 51.3947 43.1101 51.2967 43.3241C51.235 43.4022 51.1615 43.4172 51.0826 43.3989C50.3663 43.1167 49.6261 43.3794 48.9049 43.2154C48.5211 43.215 48.1373 43.2146 47.7535 43.2141C47.2578 43.3372 46.7621 43.2745 46.2664 43.2122C46.2655 43.1756 46.2651 43.1389 46.2651 43.1024C46.2651 43.1023 46.2651 43.1023 46.2651 43.1023C45.9343 43.1403 45.6036 43.1784 45.2727 43.2165C45.19 43.2087 45.1071 43.2007 45.0243 43.1926C44.7241 42.9878 44.4041 43.1509 44.096 43.0968C43.9386 43.0691 43.7636 43.1796 43.6273 42.9843C43.3539 42.9253 43.0835 42.8259 42.8025 42.8708C42.6649 42.8323 42.5273 42.7938 42.3896 42.7554C42.4076 42.739 42.4255 42.7226 42.4435 42.7063C42.4194 42.7124 42.3994 42.7254 42.3896 42.7554C42.0634 42.8567 41.7156 42.5623 41.4 42.8583C41.2922 42.8583 41.1844 42.8583 41.0765 42.8583C41.0856 42.7822 41.2825 42.6524 41.0488 42.6451C40.7545 42.6358 40.4598 42.6406 40.1654 42.6393C39.6149 42.3254 39.0165 42.4992 38.4518 42.3228C38.3973 42.3058 38.3275 42.3826 38.2646 42.416C38.182 42.4108 38.0994 42.4059 38.0168 42.4006C37.9623 42.3299 37.908 42.2592 37.8536 42.1886C37.6561 42.1912 37.4585 42.1938 37.261 42.1965C37.1846 42.1857 37.1082 42.1751 37.0317 42.1644C37.0311 42.134 37.0301 42.1036 37.0288 42.0734C36.767 41.77 36.3951 41.8839 36.1234 41.6185C35.9582 41.6185 35.7929 41.6185 35.6277 41.6185C35.216 41.6183 34.8044 41.6183 34.3927 41.6182C34.3917 41.5808 34.3909 41.5434 34.3903 41.5059C34.3358 41.5059 34.2813 41.5057 34.2268 41.5056C33.9786 41.4751 33.7391 41.3362 33.4839 41.3915C33.3436 41.5307 33.2037 41.5398 33.0641 41.3928C32.7534 41.4979 32.4733 41.2663 32.1748 41.2364C32.1501 41.2059 32.1241 41.1811 32.0972 41.1609C32.015 41.1658 31.9313 41.1788 31.8647 41.0957C31.848 41.0971 31.831 41.0995 31.8139 41.1028C31.784 41.0957 31.759 41.0783 31.7376 41.0523C31.5231 41.0946 31.2916 40.942 31.0927 41.1605C31.0658 41.1654 31.0388 41.1681 31.0116 41.1684C30.9273 41.2361 30.8442 41.2449 30.7631 41.1584C30.7588 41.1554 30.7545 41.1513 30.7502 41.1477C30.5961 41.4054 30.3499 41.1899 30.1716 41.3228C29.9122 41.3485 29.6517 41.3157 29.3922 41.3419C29.1256 41.4188 28.8517 41.4061 28.5836 41.4637C28.5398 41.4714 28.4963 41.4671 28.4535 41.4515C28.2914 41.4787 28.1128 41.3548 27.9687 41.5512C27.7937 41.6776 27.5994 41.5766 27.4191 41.6405C27.3796 41.6619 27.3399 41.662 27.3001 41.6416C27.2451 41.6352 27.1901 41.6288 27.1352 41.6225C26.9184 41.7656 26.6876 41.8339 26.4496 41.8421C26.3115 41.847 26.1805 41.8608 26.0664 41.9797C26.0214 41.9769 25.9764 41.9741 25.9313 41.9713C25.9307 42.0744 25.8744 42.1325 25.8092 42.1833C25.7576 42.187 25.7062 42.1908 25.6546 42.1945C25.6545 42.1946 25.6545 42.1946 25.6544 42.1946C25.3893 42.418 25.1009 42.2601 24.824 42.2912C24.7426 42.2952 24.6611 42.2991 24.5797 42.3031C24.354 42.4949 24.1031 42.5397 23.845 42.5424C23.7115 42.6415 23.5545 42.5227 23.4218 42.6292C23.3429 42.6376 23.2641 42.646 23.1853 42.6544C22.9255 42.7485 22.661 42.6748 22.3991 42.6966C22.3491 42.675 22.3194 42.6284 22.3097 42.5572C22.3469 42.2628 22.4062 41.9912 22.6075 41.8676C22.5831 41.8237 22.5765 41.7786 22.5966 41.7316C22.5694 41.6941 22.5421 41.6565 22.5149 41.619H22.5149C22.075 41.6571 21.6352 41.6953 21.1953 41.7336C21.1952 41.7336 21.1957 41.7338 21.1957 41.7338C20.5353 41.7182 19.875 41.706 19.2167 41.6189L19.2166 41.619C19.2166 41.5813 19.2162 41.5437 19.2155 41.506C18.8303 41.5045 18.4451 41.5029 18.0598 41.5012C17.8698 41.5003 17.6798 41.4993 17.4899 41.4983C17.4885 41.5024 17.4872 41.5066 17.4858 41.5108C17.4026 41.5069 17.3194 41.5029 17.2362 41.4992C16.3566 41.5207 15.4748 41.4523 14.5984 41.617C14.5436 41.6181 14.4886 41.6191 14.4337 41.6202C14.4242 41.6175 14.4146 41.6164 14.4051 41.6144C14.447 41.7364 14.5558 41.7576 14.6258 41.8379C14.6268 41.8399 14.6275 41.8421 14.6284 41.8443C15.058 41.8069 15.4876 41.7694 15.917 41.7319C15.9087 41.9301 15.81 41.9479 15.6948 41.9642C15.6146 41.9756 15.5346 41.9927 15.4591 42.0275C15.736 42.0301 16.0128 42.0089 16.2897 42.0149C16.4181 42.0178 16.5508 42.0123 16.6635 42.1032C16.668 42.1029 16.6725 42.1024 16.6771 42.1023C16.7467 42.0826 16.8167 42.0808 16.887 42.0938C16.9724 42.1243 17.0618 42.1413 17.1432 42.1872C17.1749 42.187 17.2067 42.1868 17.2384 42.1865C17.239 41.9996 17.2396 41.8126 17.2402 41.6256C17.3209 41.6259 17.4016 41.6262 17.4823 41.6264C17.5733 41.603 17.6617 41.6203 17.749 41.6587C17.7864 41.6776 17.8252 41.6892 17.8643 41.6989C17.9591 41.6731 18.054 41.6477 18.1488 41.6221C18.1478 41.6856 18.1469 41.7493 18.146 41.8128C18.1501 41.8188 18.1537 41.825 18.1574 41.8314C18.2191 41.7542 18.2896 41.7521 18.3655 41.7952C18.3708 41.8192 18.3752 41.8441 18.3794 41.8692C18.3837 41.8614 18.3874 41.8543 18.3922 41.8461C19.0486 41.8513 19.7008 41.9317 20.3521 42.0362C20.6652 42.0391 20.9781 42.0334 21.2907 41.9907C21.3081 41.9834 21.3255 41.9763 21.3429 41.9682C21.3492 41.9652 21.3555 41.9622 21.3619 41.9593C21.5098 41.9613 21.6584 41.9518 21.8054 41.9682C22.0049 41.9903 22.0946 42.1313 22.0206 42.4138C21.9934 42.4143 21.9664 42.415 21.9392 42.4158C21.9398 42.4906 21.9404 42.5653 21.9409 42.6399C22.043 42.6454 22.0999 42.7136 22.101 42.8592C21.8827 42.8636 21.6643 42.8681 21.446 42.8726C21.4174 42.8708 21.3886 42.8689 21.3599 42.8671C21.168 42.87 20.9761 42.873 20.7842 42.8761C20.7572 42.8733 20.7301 42.8718 20.703 42.8718C20.703 42.8718 20.703 42.872 20.7031 42.872C20.3121 43.111 19.9012 42.9364 19.5005 42.9786C19.2702 43.003 19.0373 42.981 18.8056 42.9798C18.2865 42.8458 17.7612 42.8737 17.2374 42.8692C17.2373 42.8692 17.2373 42.8692 17.2373 42.8692C17.1291 42.8696 17.0209 42.8701 16.9128 42.8706C16.9185 42.8803 16.9246 42.8887 16.9298 42.8997C16.9311 42.9728 16.9085 43.026 16.8618 43.0607C16.6209 43.1931 16.3683 43.1198 16.121 43.1438C14.7572 43.1697 13.3947 43.1649 12.0424 42.871C12.0149 42.8712 11.9875 42.8705 11.9601 42.8689C11.9737 42.6917 11.844 42.6471 11.7944 42.5284C11.7396 42.5288 11.6849 42.5293 11.6301 42.5297C11.5636 42.652 11.464 42.6617 11.3729 42.638C10.8581 42.5041 10.3264 42.5996 9.81589 42.4156C9.61619 42.6035 9.40467 42.5792 9.17293 42.5458C8.84044 42.4979 8.50178 42.531 8.1658 42.5294C7.6919 42.6495 7.23109 42.4662 6.76455 42.4148C6.62782 42.3356 6.49154 42.2007 6.35288 42.4094C6.21504 42.412 6.0772 42.4146 5.93943 42.4173C5.89579 42.3478 5.89207 42.2754 5.91467 42.2007C5.84189 42.1989 5.76895 42.1969 5.69616 42.1949H5.69624C5.70241 42.3912 5.56962 42.3895 5.48992 42.4632C5.51014 42.5202 5.52494 42.5797 5.52598 42.6449C5.52665 42.7144 5.52732 42.7839 5.52799 42.8534C5.47661 42.8567 5.42524 42.8599 5.37379 42.8632C5.34107 42.791 5.30836 42.719 5.27565 42.6468C5.22829 42.5237 5.19305 42.3976 5.22621 42.2555C5.23706 42.2239 5.25319 42.2006 5.27297 42.1832C5.19639 42.0954 5.20063 41.9767 5.21096 41.8558C5.20279 41.7755 5.19461 41.6952 5.18643 41.615C5.16844 41.4838 5.21163 41.4041 5.29825 41.3609C5.2984 41.2623 5.2984 41.164 5.29847 41.0654C5.28814 41.0617 5.27773 41.0581 5.2674 41.0544C5.28658 40.9824 5.25996 40.9471 5.21394 40.9272C5.0729 40.692 5.23424 40.383 5.11335 40.143C5.11119 40.1066 5.10695 40.0706 5.1007 40.0351C5.0894 39.9032 5.121 39.7906 5.17461 39.6876C5.15416 39.6858 5.13379 39.6839 5.11335 39.6821C5.11245 39.681 5.11171 39.6798 5.11089 39.6787C5.10978 39.6917 5.10881 39.7046 5.10688 39.7185C4.9674 39.8481 4.82785 39.8158 4.68807 39.7199C4.56131 39.5899 4.40034 39.5247 4.30205 39.3389C4.18257 39.0555 4.07209 38.7676 4.05648 38.4308C3.90139 38.2 3.97425 37.9092 3.94771 37.6446C3.72154 37.4665 3.73909 37.1146 3.64674 36.841C3.58199 36.6889 3.51715 36.5366 3.4524 36.3842C3.40296 36.2182 3.4327 36.0454 3.42868 35.8754C3.43649 35.8331 3.45106 35.8051 3.46972 35.786C3.46533 35.7583 3.46095 35.7304 3.45649 35.7027C3.45649 35.7027 3.48749 35.6994 3.48786 35.6994C3.4779 35.4354 3.46786 35.1715 3.45768 34.9077C3.4576 34.9077 3.47411 34.9034 3.47433 34.9033C3.46035 34.8311 3.44623 34.7588 3.43225 34.6867C3.40905 34.6154 3.38504 34.5446 3.36385 34.472C3.34229 34.4901 3.31872 34.486 3.29337 34.4618C3.21567 34.4156 3.13805 34.3693 3.06036 34.3232C3.06184 34.1665 2.99798 33.9903 3.13151 33.8735C3.1611 33.8765 3.19069 33.8796 3.22036 33.8826C3.22036 33.8826 3.23493 33.8935 3.23523 33.8938C3.23619 33.8924 3.23716 33.891 3.23805 33.8895C3.23218 33.8873 3.2263 33.885 3.22036 33.8826C3.22288 33.8134 3.22556 33.7439 3.22816 33.6745C3.12393 33.588 3.19523 33.4255 3.15485 33.3111C3.14155 33.185 3.10348 33.0523 3.20296 32.9552C3.30355 32.8919 3.2234 32.7143 3.29106 32.6302C3.17314 32.4666 3.22519 32.2587 3.21508 32.0672C3.24244 32.0628 3.26987 32.0586 3.29716 32.0542C3.29716 32.0543 3.29723 32.0543 3.29723 32.0543C3.30021 32.0197 3.30229 31.9849 3.3034 31.9502C3.30348 31.9502 3.30348 31.9502 3.30348 31.9502H3.3034C3.36942 31.5862 3.69857 31.585 3.79782 31.2671C3.82392 31.2657 3.84994 31.2641 3.87596 31.2623C3.82228 31.1875 3.76853 31.1127 3.71492 31.038C3.62741 31.1053 3.59217 31.2877 3.4605 31.2574C3.40638 31.2568 3.35225 31.2561 3.2982 31.2553C3.2982 31.2553 3.2982 31.2552 3.29827 31.2552C3.2982 31.2552 3.2982 31.2552 3.2982 31.2552C3.19121 31.2612 3.08422 31.267 2.97731 31.2728C2.9614 31.35 2.93181 31.4174 2.89174 31.4773C2.83887 31.5225 2.78601 31.5677 2.73307 31.6128C2.76571 31.9102 2.61345 32.0393 2.46549 32.1723C2.46839 32.2097 2.47129 32.2471 2.47427 32.2846C2.44906 32.289 2.42445 32.2964 2.40014 32.3065C2.30364 32.2728 2.20713 32.2394 2.11063 32.2059C2.1136 32.2262 2.11606 32.2467 2.11717 32.2676C2.11464 32.3196 2.10416 32.3654 2.08297 32.4024C2.19598 32.419 2.19858 32.5073 2.15286 32.627C2.09524 32.6701 2.03762 32.7132 1.98007 32.7565C1.89963 32.7135 1.81926 32.6708 1.73889 32.6279C1.74364 32.5123 1.74833 32.3964 1.75301 32.2808L1.72275 32.293C1.72498 32.2525 1.72706 32.2121 1.72922 32.1716L1.74394 32.1859C1.79651 32.0968 1.8348 31.9909 1.90587 31.923C1.9255 31.9156 1.94453 31.9148 1.96305 31.9195C1.93189 31.8508 1.93925 31.7817 1.971 31.7127C1.96074 31.5135 2.1081 31.4299 2.14371 31.2642C2.18208 31.2348 2.21858 31.2401 2.25368 31.2751C2.25397 31.2756 2.25412 31.2761 2.25442 31.2767C2.27263 31.2715 2.29078 31.2661 2.30929 31.2631C2.34141 31.122 2.26416 31.0323 2.2255 30.9245C2.25316 30.8486 2.28081 30.7727 2.3084 30.6968C2.30795 30.6221 2.3075 30.5474 2.30706 30.4728L2.30683 30.4753V30.4754L2.30676 30.4753C2.19814 30.4733 2.08944 30.4709 1.98082 30.4688L1.98059 30.4685C1.96394 30.4542 1.95465 30.4397 1.95093 30.4249C1.89249 30.4469 1.83465 30.4441 1.7771 30.4144C1.63896 30.3043 1.65376 30.122 1.66037 29.9436C1.67041 29.8567 1.6971 29.7823 1.74714 29.726C1.85881 29.5869 1.83881 29.3789 1.88855 29.2072C1.89673 29.1718 1.89539 29.1372 1.88454 29.1032C1.89465 29.0269 1.90476 28.9506 1.91487 28.8742C1.83941 28.7396 1.79071 28.5943 1.8197 28.4185L1.80729 28.4317C1.71933 28.1599 1.70863 27.889 1.81182 27.6205C1.81762 27.5823 1.82327 27.5451 1.82907 27.5069C1.79896 27.4643 1.76892 27.4228 1.73889 27.3802C1.60298 27.2241 1.67651 27.0003 1.64149 26.8114C1.62439 26.7427 1.61472 26.6684 1.56707 26.6225C1.54424 26.6072 1.52015 26.5974 1.49473 26.5953C1.48922 26.5581 1.48513 26.521 1.48238 26.4828L1.49131 26.4926C1.67286 26.2972 1.63457 26.0559 1.5658 25.808L1.56982 25.8014C1.50365 25.7021 1.49183 25.5908 1.52692 25.4674C1.53138 25.4564 1.53673 25.4478 1.54164 25.438C1.51138 25.4128 1.48826 25.3756 1.46937 25.3309C1.44937 25.295 1.42893 25.2589 1.40803 25.224C1.40476 25.1923 1.40127 25.1595 1.39725 25.1278C1.39948 25.0885 1.40172 25.0481 1.40387 25.0078C1.32224 25.0056 1.2406 25.0034 1.15897 25.0011C0.979564 25.0056 0.992872 24.8232 0.986032 24.6606C1.02343 24.4312 0.937185 24.1747 1.06425 23.964C1.06811 23.9334 1.07272 23.9028 1.07793 23.8722C1.17517 23.7881 1.15622 23.6572 1.15302 23.5317C1.12789 23.5261 1.10276 23.5229 1.07756 23.5196C0.995475 23.4411 0.91332 23.3624 0.831239 23.2837C0.806629 23.2455 0.78202 23.2063 0.75741 23.167C0.676445 23.0808 0.699567 22.9388 0.663657 22.8284C0.663508 22.8284 0.663285 22.8284 0.663137 22.8284C0.655627 22.8459 0.645144 22.8666 0.630498 22.8896C0.423065 22.8808 0.211692 22.9628 0.00931489 22.8384C-0.0433239 22.6297 0.143142 22.6407 0.169239 22.5042C0.221803 22.465 0.274442 22.4245 0.327081 22.3852C0.361578 22.3109 0.396151 22.2378 0.430649 22.1636C0.417712 22.1308 0.413474 22.0959 0.41801 22.0588C0.488641 21.8371 0.464402 21.598 0.482246 21.3665C0.541651 21.2835 0.601056 21.1995 0.660535 21.1154C0.880904 20.9778 1.10127 20.8392 1.32172 20.7017C1.38283 20.5804 1.44402 20.4593 1.50513 20.338L1.47302 20.3457C1.47212 20.3063 1.47123 20.2681 1.47026 20.2289C1.49406 20.0072 1.60275 19.8784 1.73108 19.7715C1.73108 19.7715 1.73108 19.7715 1.73108 19.7704C1.7655 19.6982 1.80007 19.6262 1.8345 19.5542C1.85427 19.3631 1.96082 19.2834 2.07011 19.2112C2.33301 19.0388 2.52795 18.7735 2.65248 18.411C2.65241 18.3357 2.65233 18.2614 2.65233 18.1861C2.67337 18.185 2.69345 18.1773 2.71241 18.1654C2.79932 18.1031 2.80504 17.9481 2.87389 17.865C2.85716 17.8149 2.86608 17.7745 2.90147 17.745C2.98467 17.5506 3.06794 17.3563 3.15114 17.1619C3.14839 17.0867 3.14556 17.0112 3.14281 16.936C3.21493 16.8398 3.13195 16.6696 3.23062 16.5855C3.25389 16.6248 3.27708 16.663 3.30035 16.7023C3.32653 16.6991 3.35262 16.6958 3.37879 16.6936C3.37887 16.6936 3.37887 16.6936 3.37887 16.6936C3.3863 16.6018 3.40236 16.5167 3.46861 16.4697C3.49604 16.3573 3.52347 16.2459 3.55091 16.1334C3.55091 16.1334 3.55091 16.1334 3.55084 16.1334C3.47939 15.7929 3.57938 15.4512 3.55031 15.1105C3.51991 15.1061 3.4895 15.1028 3.45901 15.0984C3.46623 15.0623 3.46288 15.0274 3.4489 14.9947C3.48623 14.8801 3.52355 14.7654 3.56087 14.6508C3.62325 14.5547 3.69031 14.4739 3.79425 14.5133C3.7979 14.5187 3.80102 14.5241 3.80436 14.5285C3.89009 14.4467 3.87529 14.3156 3.88228 14.1955C3.83217 14.1551 3.78206 14.1158 3.73202 14.0754C3.7915 13.8691 3.91351 13.7413 4.03596 13.6146C4.12347 13.4695 4.21098 13.3232 4.29848 13.1779C4.32406 13.1408 4.34971 13.1048 4.37536 13.0677C4.48175 13.0218 4.58807 12.9771 4.69439 12.9312C4.69446 12.9312 4.69446 12.9312 4.69454 12.9312C4.69446 12.9312 4.69446 12.9312 4.69446 12.9312C4.91699 12.7892 5.13952 12.6473 5.36204 12.5043C5.48412 12.3765 5.59356 12.2085 5.77185 12.2575C5.80256 12.0676 5.98939 12.2258 6.02337 12.0436C6.07794 12.0469 6.13251 12.0501 6.18709 12.0534C6.294 12.0087 6.40084 11.9628 6.50775 11.9169C6.56664 11.8394 6.62559 11.7607 6.68455 11.6833C6.7015 11.681 6.71838 11.6799 6.73533 11.6768C6.86745 11.668 7.00641 11.7116 7.12217 11.5774C7.15146 11.549 7.18209 11.5249 7.21436 11.5042C7.41882 11.3983 7.63696 11.3557 7.83926 11.2411C7.86669 11.2455 7.89406 11.2509 7.92149 11.2553C7.94885 11.2148 7.97621 11.1756 8.00357 11.1351C8.03086 11.1242 8.05718 11.1275 8.08253 11.1461C8.34357 11.0925 8.50431 10.7825 8.73813 10.6602C8.76683 10.6241 8.79561 10.5871 8.82438 10.55C8.88014 10.4015 9.04527 10.4145 9.07605 10.2279C9.1553 10.217 9.23463 10.206 9.31396 10.1951C9.3385 10.1613 9.36296 10.1264 9.38749 10.0924C9.50556 9.86862 9.62355 9.64482 9.74162 9.42103C9.75522 9.05847 9.95931 8.90459 10.141 8.7255C10.1699 8.69061 10.1988 8.65572 10.2276 8.6207C10.2663 8.46244 10.3455 8.37727 10.4673 8.36851C10.549 8.26146 10.6306 8.15454 10.7122 8.04748C10.7038 7.84876 10.8454 7.77022 10.8924 7.61515C10.9462 7.57906 11 7.54311 11.0538 7.50703C11.1664 7.4285 11.2229 7.21996 11.3777 7.23853C11.4584 7.14792 11.5368 7.04962 11.642 7.03874C11.6462 7.03211 11.6512 7.02773 11.6552 7.02123C11.6951 6.96777 11.74 6.92837 11.7975 6.92519C11.8514 6.87823 11.9053 6.83007 11.9591 6.78205C11.9869 6.79412 12.0147 6.80606 12.0424 6.81813C12.0634 6.79956 12.0863 6.7908 12.1112 6.79306C12.2131 6.4971 12.4285 6.45677 12.6205 6.36285C12.6437 6.34972 12.6678 6.34109 12.6928 6.33777C12.8391 6.20127 13.0121 6.21759 13.175 6.17832C13.1836 6.1762 13.1921 6.17394 13.2006 6.17288C13.2012 6.15869 13.2015 6.14555 13.2023 6.13242C13.2301 6.09209 13.2579 6.05163 13.2857 6.0113C13.4482 5.94033 13.6107 5.86936 13.7732 5.79945C13.8271 5.74811 13.881 5.6969 13.9349 5.64556C14.0226 5.5986 14.0579 5.6782 14.0919 5.76124C14.1092 5.46647 14.3494 5.60072 14.4356 5.43915C14.4582 5.43264 14.481 5.42933 14.5039 5.42933C14.694 5.22954 14.9804 5.23167 15.101 4.88676C15.2061 4.88569 15.3021 4.84736 15.3878 4.76657C15.3876 4.71854 15.401 4.67822 15.4296 4.64545C15.551 4.69559 15.6258 4.4576 15.7532 4.54489C15.9736 4.46968 16.194 4.39539 16.4143 4.32004C16.5885 4.1574 16.7872 4.09624 16.9902 4.0514C17.0183 4.06454 17.0464 4.07661 17.0745 4.08961C17.0972 4.07555 17.1212 4.06679 17.1461 4.06348C17.1736 4.02315 17.2012 3.98269 17.2288 3.94223C17.3866 3.86038 17.5516 3.92379 17.7122 3.89752C17.8248 3.85056 17.9408 3.8288 18.0571 3.80904C18.2002 3.80691 18.3444 3.79272 18.4809 3.87351C18.5333 3.92485 18.5877 3.97619 18.5587 4.0656C18.5604 4.0656 18.5622 4.06454 18.5639 4.06454C18.6145 4.07223 18.6653 4.07873 18.7159 4.08536C18.7466 4.15408 18.7772 4.22174 18.8078 4.28953C18.8354 4.29271 18.8626 4.28953 18.8895 4.28077C18.9846 4.22399 19.0671 4.29271 19.1527 4.32985C19.2875 4.39433 19.4256 4.4259 19.5687 4.40627C19.5863 4.40414 19.6038 4.40083 19.6214 4.39764C19.651 4.40308 19.6807 4.40746 19.7103 4.4117C19.7668 4.36806 19.8232 4.32548 19.8796 4.28183C20.0993 4.29271 20.3189 4.30372 20.5384 4.3146C20.593 4.30478 20.6476 4.2939 20.7022 4.28289C20.8674 4.2163 21.0335 4.23155 21.1998 4.27308L21.1944 4.3069C21.2814 4.27851 21.3862 4.33755 21.4521 4.20648C21.5566 4.19773 21.6611 4.19017 21.7656 4.18141C21.8547 3.8495 22.0364 4.04278 22.1852 4.04928C22.2416 4.04822 22.298 4.04716 22.3543 4.04597C22.3751 4.05698 22.3966 4.06135 22.4186 4.05804C22.5995 3.85175 22.8194 4.01877 23.0137 3.9401C23.2576 3.93798 23.5015 3.93572 23.7455 3.9336C23.7763 3.94448 23.8071 3.9543 23.8379 3.96518C23.8609 3.95098 23.8849 3.94116 23.9099 3.93679C24.0461 3.87245 24.1869 3.91397 24.3255 3.90296C24.3276 3.88333 24.3302 3.86475 24.3317 3.84618C24.5967 3.70861 24.8732 3.71962 25.1491 3.72387C25.3549 3.51215 25.5903 3.65953 25.8103 3.62013C25.9515 3.59506 26.1089 3.68142 26.2275 3.50339C26.3085 3.46293 26.3895 3.4226 26.4705 3.38333C26.5802 3.25771 26.7019 3.24351 26.8321 3.31011C26.8562 3.32536 26.8738 3.34725 26.8862 3.37564C27.0427 3.19761 27.0187 3.10263 26.877 3.05898C26.8512 3.08193 26.8243 3.10263 26.7959 3.12014C26.691 3.16936 26.5867 3.18023 26.4844 3.10701C26.4708 3.09401 26.4555 3.08419 26.4399 3.07424C26.3689 3.1224 26.2979 3.1147 26.2271 3.04811C26.2008 3.04704 26.1744 3.04598 26.148 3.04479C26.0924 2.91492 26.1771 2.88427 26.2288 2.83081C26.2532 2.82206 26.278 2.81556 26.3031 2.81118C26.4199 2.66379 26.5647 2.61577 26.7151 2.58738C26.868 2.51641 27.021 2.44544 27.1839 2.52835C27.1972 2.55899 27.2076 2.58738 27.2161 2.61352C27.2167 2.60808 27.2178 2.6037 27.2183 2.59826C27.239 2.59282 27.2598 2.59057 27.2807 2.58951C27.2726 2.56987 27.2666 2.54918 27.2636 2.52503C27.2804 2.43668 27.3415 2.41479 27.3859 2.36783C27.4369 2.36571 27.488 2.36359 27.539 2.36027C27.7088 2.39954 27.8788 2.43881 28.0488 2.4782C28.0725 2.54692 28.0962 2.61577 28.1199 2.68449C28.1224 2.67693 28.1247 2.66923 28.1282 2.66154C28.2288 2.48258 28.2931 2.25547 28.4604 2.15943L28.4494 2.12228C28.5044 2.06869 28.5607 2.0655 28.618 2.11459C28.671 2.11565 28.7238 2.11565 28.7768 2.11671C28.8735 2.01629 28.9933 2.01523 29.1034 1.97158C29.2501 2.05237 29.4104 1.83614 29.5532 2.00979C29.5557 2.01523 29.5577 2.0196 29.5599 2.02398C29.6397 2.02186 29.7209 2.02504 29.7746 1.91268C29.9949 2.02067 30.2148 1.67788 30.4351 1.91268C30.4796 1.97914 30.4835 2.05343 30.462 2.13422C30.6992 2.13422 30.9365 2.13528 31.1738 2.13648L31.1734 2.13422C31.1735 2.13422 31.1735 2.13422 31.1735 2.13422C31.1739 2.09708 31.1746 2.06007 31.1755 2.02398C31.313 2.02398 31.4505 2.02398 31.5881 2.02504C31.5878 2.04255 31.5875 2.06113 31.5872 2.0785C31.7244 2.06763 31.8663 2.12984 31.9978 2.02836C32.0508 1.98246 32.1037 1.93669 32.1566 1.89185C32.1566 1.89185 32.1566 1.89185 32.1567 1.89185C32.1591 1.85909 32.1628 1.82738 32.168 1.79687C32.2757 1.75535 32.3834 1.71277 32.4912 1.67124C32.4912 1.67124 32.4913 1.67124 32.4914 1.67124C32.5757 1.56207 32.66 1.45289 32.7443 1.34371C32.8527 1.3055 32.9611 1.2673 33.0695 1.22909C33.1877 1.4115 33.3468 1.31108 33.4865 1.3449C33.5949 1.34265 33.7032 1.34052 33.8115 1.33946H33.8114C33.8677 1.21052 33.9644 1.23679 34.0489 1.21715C34.0403 1.18439 34.0433 1.1495 34.061 1.11235C34.3007 0.975846 34.5445 0.888425 34.8044 0.996541C34.8853 1.03806 34.9662 1.07839 35.0471 1.11885C35.0658 1.156 35.0689 1.18982 35.0598 1.22259C35.3012 1.21927 35.5427 1.21609 35.784 1.21277C35.7841 1.21277 35.7842 1.21277 35.7843 1.21277C35.7841 1.21277 35.7841 1.21277 35.7839 1.21277C35.7871 1.18226 35.7899 1.15162 35.7923 1.11991C35.8196 1.11235 35.8468 1.10466 35.874 1.0971C35.901 1.10028 35.928 1.10466 35.955 1.10797C36.3626 0.994417 36.7748 1.08834 37.1845 1.0577C37.3421 1.05889 37.5 1.04894 37.6571 1.06313C37.7356 1.07083 37.8014 1.10691 37.7648 1.22803C37.7673 1.22803 37.7698 1.22803 37.7723 1.22803C37.8262 1.22577 37.8801 1.22365 37.9339 1.22047C37.9604 1.22909 37.9873 1.23347 38.0145 1.23241C38.0115 1.26849 38.0144 1.30232 38.0234 1.33615C38.1249 1.36228 38.1495 1.55994 38.2695 1.54575C38.3775 1.55662 38.4854 1.5687 38.5935 1.58064C38.7809 1.70189 38.9905 1.55238 39.1782 1.67124C39.2276 1.68 39.277 1.68981 39.3265 1.69857C39.3293 1.68557 39.3331 1.67244 39.3387 1.6593C39.4486 1.61566 39.5582 1.60146 39.6664 1.67018C39.721 1.67124 39.7757 1.67244 39.8304 1.6735C39.8365 1.54031 39.8822 1.4639 39.9835 1.46284C40.1271 1.65492 40.2708 1.84595 40.4145 2.03711C40.4448 2.06763 40.4751 2.09827 40.5053 2.12772C40.5311 2.20201 40.5571 2.2751 40.583 2.34939C40.583 2.34939 40.583 2.34939 40.583 2.34939C40.6343 2.39636 40.6856 2.44212 40.7369 2.48908C40.7403 2.63103 40.7439 2.77297 40.7474 2.91386C40.8233 2.98045 40.8931 3.07 40.9949 3.03604L40.9874 3.05248C41.1237 3.09175 41.26 3.13115 41.3963 3.16936C41.4523 3.20637 41.5082 3.24245 41.5641 3.2796C41.8919 3.28066 42.2197 3.28278 42.5476 3.28504C42.576 3.19217 42.685 3.24351 42.7195 3.16272L42.7212 3.1606C42.8018 3.15729 42.8823 3.15291 42.9628 3.14959C42.9861 3.15728 43.0095 3.16498 43.0328 3.17148C43.0432 3.11032 43.0662 3.05686 43.1023 3.01322C43.1261 2.99239 43.1513 2.97501 43.1767 2.95856C43.1893 2.92142 43.202 2.88547 43.2146 2.84832C43.1794 2.78491 43.1678 2.72057 43.1864 2.6561C42.9947 2.71726 42.8677 2.63315 42.8407 2.32644C42.8533 2.22377 42.9176 2.18994 42.9701 2.13966C43.0322 2.12228 43.1063 2.13754 43.1326 2.02398C43.1606 2.02942 43.1887 2.03486 43.2168 2.0403C43.2405 2.02836 43.265 2.02066 43.2902 2.01854C43.2948 1.99559 43.2994 1.97158 43.3041 1.94863C43.2971 1.93881 43.29 1.93006 43.2832 1.9213C43.2782 1.52718 43.4894 1.29025 43.6322 1.00317C43.6846 1.00742 43.7368 1.01193 43.7892 1.01617C43.846 0.936579 43.9026 0.856851 43.9594 0.778184C44.0172 0.678823 44.0927 0.623107 44.182 0.598034C44.3017 0.609045 44.4159 0.543512 44.5353 0.546696C44.6999 0.545634 44.8646 0.545634 45.0292 0.544573C45.0293 0.544573 45.0293 0.544573 45.0293 0.544573C45.1117 0.546695 45.194 0.54895 45.2764 0.551073C45.6339 0.550011 45.9914 0.54789 46.3488 0.545635C46.6244 0.544574 46.9 0.542451 47.1756 0.540195C47.1955 0.535818 47.2155 0.53144 47.2354 0.527062C47.4374 0.499867 47.6388 0.516184 47.8401 0.543512C47.9417 0.548951 48.0443 0.535817 48.1443 0.572962C48.3032 0.72804 48.4763 0.757491 48.6609 0.683202C48.8449 0.824085 49.0948 0.723662 49.2456 0.985662C49.2878 1.12217 49.229 1.19964 49.1603 1.27274C49.156 1.27605 49.1514 1.27725 49.147 1.27937C49.1487 1.30126 49.1503 1.32301 49.152 1.3449C49.1813 1.37767 49.2104 1.4115 49.2397 1.44426C49.2397 1.44426 49.2397 1.44426 49.2398 1.44532C49.5676 1.4497 49.8955 1.45408 50.2234 1.45846C50.2234 1.45846 50.2235 1.45846 50.2236 1.45846C50.2235 1.45846 50.2234 1.45846 50.2234 1.45846C50.335 1.45408 50.4466 1.44864 50.5582 1.44426C50.6028 1.44639 50.6473 1.44864 50.6918 1.45076C50.7481 1.43989 50.8044 1.43763 50.8607 1.45952C50.8669 1.45952 50.8733 1.46058 50.8796 1.46058C50.8919 1.46828 50.9002 1.47703 50.906 1.48685C50.9339 1.50542 50.9599 1.52943 50.9819 1.56207C50.9822 1.56658 50.9824 1.56976 50.9827 1.57414C51.0434 1.57414 51.104 1.57414 51.164 1.57414C51.2649 1.55238 51.369 1.56538 51.4718 1.57414C51.5495 1.57414 51.6272 1.57308 51.7049 1.57308C51.722 1.58395 51.7318 1.59602 51.7361 1.60903C51.7466 1.61566 51.7576 1.62004 51.7673 1.6276C51.7832 1.64405 51.793 1.66262 51.7991 1.68225C51.9252 1.61022 52.0525 1.6004 52.1798 1.63755C52.2201 1.63304 52.2605 1.62441 52.3003 1.61354C52.4392 1.42675 52.6271 1.46721 52.8014 1.44532C52.8455 1.4562 52.8865 1.47915 52.9245 1.51298C52.9642 1.55663 52.9722 1.61022 52.9489 1.67244L52.9453 1.68663C52.9459 1.68769 52.9465 1.68875 52.9465 1.68875C52.9618 1.6658 52.9777 1.64299 52.993 1.62004C53.3662 1.42675 53.7536 1.55238 54.1336 1.52505C54.2853 1.51736 54.434 1.58621 54.5858 1.58395C54.5534 1.55888 54.5301 1.51961 54.5172 1.46164C54.4456 1.54031 54.3667 1.51086 54.2865 1.46827C54.1439 1.34702 54.0002 1.43445 53.8546 1.4562C53.6569 1.48685 53.45 1.561 53.2793 1.33508C53.2738 1.32633 53.2696 1.3197 53.2647 1.31214C53.2665 1.32965 53.2696 1.34822 53.2775 1.37104C53.231 1.42238 53.1778 1.44426 53.1196 1.4497C53.0584 1.45289 53.0003 1.43551 52.9453 1.3973C52.8792 1.32527 52.8228 1.2466 52.8669 1.11554C52.922 1.07959 52.977 1.04244 53.0315 1.00636C53.0572 1.00211 53.0823 0.998796 53.1074 0.994418C53.2187 0.997602 53.3302 1.00092 53.4421 1.00317C53.4476 1.02612 53.4488 1.04576 53.4476 1.06207C53.4519 1.04894 53.4507 1.02931 53.4421 1.00317C53.496 1.00317 53.5492 1.00317 53.603 1.00317C53.6385 1.09259 53.6979 1.1036 53.7627 1.0959C53.9708 1.01737 54.1825 1.07189 54.3924 1.06313C54.4206 1.07839 54.445 1.0959 54.4664 1.11554C54.7247 1.11341 54.9829 1.11235 55.2411 1.1101C55.2313 1.07308 55.238 1.04138 55.2589 1.01193C55.2852 1.00317 55.3109 0.991101 55.3348 0.97359C55.4045 0.988978 55.4706 0.992162 55.5042 0.880862C55.5281 0.88524 55.5526 0.889618 55.5765 0.892934C55.6046 0.923446 55.6333 0.952896 55.6633 0.982346C55.7135 1.01737 55.7649 1.05013 55.8218 1.06207C56.0684 1.05889 56.3156 1.08834 56.5629 1.10134C56.5965 1.10028 56.6301 1.10028 56.6638 1.09922C56.7182 1.10134 56.7721 1.1036 56.8266 1.10572C56.9245 1.1036 57.0224 1.09816 57.1203 1.0829C57.1674 1.0577 57.2145 1.04788 57.2617 1.05332C57.2806 1.04894 57.2996 1.04576 57.3185 1.04138C57.4183 0.999858 57.5187 0.964968 57.6226 0.952896C57.6643 0.946396 57.7065 0.94414 57.7481 0.94414C57.9384 0.94414 58.1281 0.94414 58.3184 0.94414C58.4212 0.959396 58.5283 0.906995 58.6274 0.976907C58.6237 0.962712 58.6213 0.947457 58.6207 0.93114C58.9425 0.679884 59.3024 0.942019 59.6315 0.789063L59.6236 0.758551C59.6781 0.766245 59.7325 0.773806 59.787 0.781501C59.8518 0.818645 59.9044 0.868791 59.894 0.983408C60.0336 0.901558 60.1817 0.964968 60.3242 0.94414C60.3383 0.943079 60.3524 0.945202 60.3665 0.947457C60.3676 0.928885 60.3695 0.910312 60.3701 0.892934C60.5329 0.884179 60.6951 0.876484 60.8572 0.867729C60.8878 0.876484 60.919 0.884179 60.9496 0.892934C61.0016 0.888424 61.053 0.885241 61.1044 0.881924C61.1154 0.635179 61.2568 0.742234 61.354 0.732285C61.813 0.803257 62.2725 0.782563 62.7315 0.744357C62.8844 0.707213 63.049 0.7291 63.1794 0.577339C63.2944 0.536878 63.4046 0.542451 63.5037 0.644996C63.5851 0.648312 63.6671 0.65269 63.7484 0.655873C64.0318 0.572962 64.3179 0.510745 64.6079 0.47254C64.6532 0.463784 64.6986 0.468161 64.7432 0.484478C64.8317 0.504111 64.9298 0.452906 65.0064 0.555451V0.556645C65.7945 0.551073 66.5826 0.544572 67.3707 0.539133C67.3714 0.538072 67.3714 0.538072 67.3714 0.538072C67.3751 0.507428 67.3818 0.477978 67.3915 0.448528C67.6606 0.441895 67.9305 0.434334 68.2012 0.427701C68.2012 0.398251 68.2012 0.369861 68.2004 0.340411C68.477 0.336033 68.7536 0.332718 69.0301 0.32834C69.0547 0.317462 69.0792 0.308705 69.1045 0.302205C69.2703 0.303266 69.4361 0.305522 69.6019 0.306584C69.6049 0.278195 69.6101 0.249806 69.6175 0.223539C69.7498 0.212661 69.8822 0.201784 70.0153 0.190773C70.4019 0.191967 70.7892 0.191966 71.1758 0.193027L71.1692 0.209344C71.1944 0.225794 71.2041 0.243172 71.1996 0.262806C71.5439 0.279255 71.8896 0.215977 72.2316 0.304328C72.2256 0.274878 72.2301 0.243173 72.2472 0.210539C72.3037 0.173395 72.3602 0.13625 72.4167 0.0991054C72.4658 0.0926051 72.5149 0.0871658 72.5639 0.0805328C72.5952 0.0871658 72.6264 0.0936658 72.6584 0.100166C72.9818 0.103483 73.3059 0.105606 73.6286 0.108922C73.6331 0.122055 73.6368 0.135188 73.6398 0.148188C73.6516 0.146066 73.6636 0.143943 73.6762 0.145005C74.1096 0.124177 74.5453 0.0521432 74.9758 0.187588C75.0264 0.182149 75.0777 0.176577 75.1275 0.171138C75.1252 0.190772 75.1252 0.209344 75.1282 0.227916C75.1565 0.219161 75.1847 0.210539 75.2122 0.201783C75.6412 -0.0319615 76.091 0.149382 76.5282 0.0784099C76.9698 -0.0602184 77.4115 0.0128764 77.8531 0.08491L77.8538 0.0871658C77.8813 0.0826554 77.9089 0.0784099 77.9356 0.0750934C78.2657 0.0772159 78.5958 0.0784103 78.9259 0.0805328C78.9527 0.0871658 78.9795 0.0914112 79.0055 0.0957889C79.0293 0.119933 79.0538 0.139566 79.0776 0.154821C79.2471 0.156944 79.4159 0.18321 79.5847 0.196344C79.5876 0.196344 79.5914 0.197406 79.5943 0.197406C79.6241 0.199528 79.6546 0.201782 79.6843 0.202844C80.1914 0.21266 80.6962 0.296767 81.204 0.261745C81.3794 0.281511 81.5579 0.215978 81.7296 0.306584C81.8136 0.344789 81.9237 0.270501 81.9824 0.417884C82.0077 0.461529 82.0478 0.492173 82.0687 0.540195C82.314 0.452906 82.5616 0.467099 82.8084 0.535817C82.9422 0.545633 83.0761 0.55439 83.2099 0.563145C83.3475 0.600289 83.4842 0.637434 83.6218 0.674579C83.6329 0.710529 83.6352 0.742233 83.6285 0.769561C83.6828 0.771684 83.7355 0.773808 83.7898 0.776063C83.8746 0.772746 83.9601 0.768368 84.0456 0.765051C84.0969 0.775001 84.1482 0.783757 84.1995 0.79238C84.3095 0.830585 84.4196 0.868791 84.5303 0.906997C84.6433 0.868791 84.7526 0.875424 84.8612 0.898241C85.056 0.916946 85.2508 1.01405 85.4441 0.955152C85.6285 0.931141 85.8099 0.951835 85.9913 0.981285C85.995 0.981285 85.9987 0.981285 86.0024 0.981285C86.0143 0.983408 86.027 0.986724 86.0389 0.988979C86.2247 1.02161 86.4114 1.05995 86.598 1.06751C86.7534 1.08065 86.9117 1.06314 87.0612 1.11885C87.1206 1.11885 87.1801 1.11885 87.2403 1.11885C87.2411 1.156 87.2411 1.1942 87.2411 1.23241C87.2515 1.26411 87.2582 1.29569 87.2641 1.32965C87.4002 1.5163 87.5214 1.7259 87.6976 1.84821C87.7734 1.84927 87.8396 1.86572 87.8366 1.99665C87.9206 1.86134 88.0745 1.91693 88.1652 1.80019C88.2968 1.67894 88.2217 1.49335 88.2411 1.33721C88.3266 1.24554 88.4076 1.24554 88.4834 1.3579C88.6136 1.48021 88.7541 1.58939 88.8314 1.79249C88.8515 1.82858 88.8715 1.86466 88.8924 1.89955C88.9214 1.9749 88.9414 2.05025 88.9184 2.12984C88.9697 2.16487 89.0217 2.19869 89.0738 2.23252L89.0589 2.27404C89.1176 2.30787 89.1764 2.3417 89.2351 2.37553C89.2351 2.37553 89.2247 2.33732 89.2247 2.33626C89.3868 2.41917 89.5838 2.26529 89.7258 2.48033C89.7511 2.48258 89.7771 2.48577 89.8031 2.48802C89.8894 2.5972 89.9749 2.70638 90.0611 2.81556C90.0797 2.81662 90.0983 2.81993 90.1169 2.82206C90.1385 2.75666 90.1726 2.71076 90.2262 2.69656C90.3474 2.82537 90.4946 2.81556 90.6336 2.84395C90.679 2.90404 90.6819 2.964 90.6336 3.02516C90.5251 3.03935 90.415 3.05461 90.3065 3.0688C90.2745 3.09613 90.2418 3.10051 90.2068 3.08193C90.192 3.06774 90.1793 3.05248 90.1674 3.03604C90.1072 3.04598 90.047 3.05461 89.9868 3.06336C89.9057 3.09294 89.824 3.1212 89.7414 3.15065C89.6202 3.17586 89.4976 3.20425 89.4106 3.05023C89.4054 3.06018 89.4024 3.0688 89.3979 3.07862C89.3451 3.11802 89.2916 3.12014 89.2373 3.08843C89.2359 3.08737 89.2358 3.08631 89.2351 3.08525C89.2381 3.14309 89.2418 3.19987 89.2455 3.25771C89.244 3.27416 89.2433 3.29047 89.2425 3.30679C89.2678 3.30798 89.2938 3.3113 89.3191 3.31886C89.4336 3.37232 89.5526 3.37458 89.6723 3.36914C89.6894 3.3702 89.7065 3.37233 89.7236 3.37458C89.7927 3.4291 89.8054 3.51095 89.7823 3.60925C89.7823 3.60925 89.821 3.6257 89.821 3.62676C89.8187 3.69442 89.8173 3.76327 89.815 3.83199C89.8135 3.91065 89.8135 3.98919 89.8121 4.06892L89.8098 4.07329C89.8983 4.18579 89.9868 4.29709 90.076 4.40852L90.0537 4.4129C90.0574 4.4194 90.0619 4.42378 90.0656 4.42922C90.0693 4.42272 90.0723 4.41621 90.076 4.40852C90.1526 4.40958 90.2284 4.40958 90.3057 4.41064C90.3332 4.40746 90.3607 4.40308 90.389 4.39977C90.5087 4.39433 90.6187 4.44341 90.7191 4.52964C90.699 4.64545 90.6232 4.63338 90.563 4.65633C90.5548 4.64001 90.5459 4.62582 90.5355 4.61374C90.4812 4.75794 90.4277 4.90201 90.3741 5.04608C90.383 5.06691 90.392 5.08654 90.4009 5.10723C90.424 5.17383 90.4477 5.24042 90.4708 5.30702C90.5481 5.35398 90.6098 5.41951 90.6269 5.54289C90.4522 5.55602 90.4544 5.70778 90.4871 5.88355C90.5332 5.91738 90.5801 5.95121 90.6262 5.98504C90.7935 6.00255 90.9607 6.02006 91.128 6.03744C91.1273 6.10629 91.1273 6.17394 91.1265 6.2416C91.1808 6.30501 91.2358 6.36829 91.2901 6.43276C91.05 6.60084 90.8046 6.64992 90.5518 6.48184C90.5295 6.46327 90.505 6.45345 90.479 6.45239C90.4061 6.3858 90.3251 6.46115 90.25 6.42944C90.1466 6.39018 90.0388 6.35847 89.9719 6.2351C89.9608 6.24598 89.9496 6.25699 89.9384 6.26786C89.9132 6.26892 89.8909 6.25699 89.87 6.23841C89.8098 6.32133 89.8091 6.43276 89.8002 6.54074C89.8039 6.54194 89.8083 6.543 89.8121 6.54406C89.8306 6.57351 89.8381 6.60296 89.8344 6.6336C89.8634 6.61397 89.8968 6.60521 89.9318 6.60296C89.9771 6.60959 90.018 6.63148 90.0559 6.66863C90.0797 6.68269 90.1042 6.69038 90.131 6.69144C90.0916 6.87491 89.8366 6.84427 89.9028 7.13147C89.9132 7.25378 89.879 7.3018 89.7905 7.25922C89.7868 7.25153 89.7838 7.24397 89.7801 7.23733C89.7674 7.24397 89.7548 7.24941 89.7407 7.25378C89.7526 7.28761 89.7481 7.3225 89.7236 7.35858C89.6024 7.45144 89.7548 7.51035 89.7399 7.59007C89.7652 7.62709 89.7912 7.66542 89.8173 7.70257C89.8083 7.73202 89.7964 7.75709 89.7823 7.78216C89.7897 7.79424 89.7972 7.80618 89.8054 7.81931C89.8567 7.88046 89.8619 7.95581 89.841 8.03872C89.8002 8.12615 89.7414 8.1621 89.673 8.16648C89.702 8.20587 89.7236 8.2539 89.7437 8.30298C89.8106 8.52572 89.9927 8.46456 90.1042 8.57812C90.1147 8.59881 90.1243 8.6207 90.134 8.64153C90.1347 8.67748 90.134 8.7125 90.131 8.74739C90.1488 8.78891 90.1682 8.8303 90.1868 8.87182C90.1935 8.87182 90.2009 8.87288 90.2076 8.87408C90.2425 8.89039 90.2723 8.91772 90.2968 8.95486C90.2976 8.95035 90.2976 8.94505 90.2976 8.93948C90.3712 8.84449 90.4619 8.81066 90.5585 8.79873C90.6916 8.8161 90.7548 8.94611 90.8091 9.09124C90.8775 9.29872 91.0113 9.36863 91.1607 9.40352C91.2172 9.4144 91.2723 9.4319 91.3265 9.45154C91.473 9.52039 91.6329 9.49412 91.7801 9.56403C91.8291 9.5903 91.8708 9.62293 91.9087 9.66233C91.9466 9.66233 91.986 9.66114 92.0254 9.66114C92.067 9.74962 92.1288 9.75294 92.1949 9.73437C92.2165 9.74312 92.2381 9.75069 92.2596 9.75944C92.2618 9.75838 92.2641 9.75838 92.2656 9.75838C92.4336 9.76382 92.6016 9.75838 92.7696 9.76382C92.7994 9.76382 92.8291 9.76382 92.8589 9.76382C92.8589 9.76607 92.8589 9.76819 92.8596 9.77045C92.9168 9.78027 92.9682 9.8064 93.0053 9.87087C93.0722 9.74418 93.189 9.74312 93.2767 9.66883L93.2715 9.63394C93.3258 9.64151 93.3786 9.64814 93.4321 9.6557C93.528 9.73105 93.6165 9.80866 93.5161 9.98005C93.4633 9.98987 93.4105 9.99862 93.3577 10.0084C93.2782 10.0041 93.1979 9.99862 93.1176 9.99425C93.0879 10.027 93.0551 10.0325 93.0194 10.0128C93.0165 10.0051 93.0143 9.99743 93.0113 9.98987C92.8626 10.1241 92.6782 9.96254 92.5287 10.0924C92.3652 10.1252 92.1875 10.0554 92.0403 10.2159C92.0351 10.2496 92.0358 10.2825 92.0418 10.3163C92.1823 10.3961 92.3221 10.4757 92.4618 10.5565C92.4574 10.5936 92.4529 10.6318 92.4485 10.6689C92.5726 10.6951 92.6128 10.9627 92.7734 10.8819C92.9741 10.8808 93.1704 10.9255 93.3577 11.0292V11.0282C93.493 11.0205 93.6291 11.0117 93.7644 11.0019C93.899 11.0107 94.0336 11.0194 94.1674 11.0292C94.1793 11.0554 94.1875 11.0839 94.1942 11.1144C94.2425 11.1232 94.2916 11.1319 94.3414 11.1395C94.357 11.1756 94.36 11.2073 94.3518 11.2367C94.6789 11.2367 95.0068 11.2367 95.3347 11.2367C95.3347 11.2083 95.3339 11.1789 95.3339 11.1504C95.5257 11.1405 95.7183 11.1319 95.9101 11.1221L95.9057 11.1144C95.9124 11.1144 95.9183 11.1144 95.9242 11.1144C95.9168 11.0893 95.9153 11.061 95.919 11.0303C95.9428 11.0227 95.9681 11.0151 95.9927 11.0086C96.1845 11.0107 96.3763 11.0117 96.5696 11.014L96.5703 11.0151C96.5889 11.0554 96.5904 11.0925 96.5793 11.1264C96.6038 11.1319 96.6276 11.1374 96.6514 11.1439C96.6603 11.1232 96.6744 11.0992 96.696 11.0729C96.8774 11.0445 97.0633 11.1221 97.2402 11.0238C97.2923 10.9833 97.3436 10.943 97.3941 10.9015C97.4209 10.861 97.4477 10.8196 97.4737 10.7781C97.6134 10.8218 97.7778 10.7038 97.8937 10.9015C97.974 10.9015 98.0551 10.9026 98.1354 10.9038C98.1755 10.9975 98.235 11.0151 98.3064 10.9867C98.3324 10.9965 98.3577 11.0096 98.3815 11.0227C98.406 11.0522 98.4194 11.086 98.4246 11.1253C98.5517 11.1199 98.6796 11.1144 98.8067 11.109C98.8194 11.1134 98.8313 11.1188 98.8432 11.1242C98.8551 11.1165 98.8662 11.109 98.8781 11.1023C98.9019 11.1144 98.9272 11.1209 98.9517 11.1221C98.9822 11.0664 99.0119 11.0107 99.0417 10.955C99.0357 10.9451 99.0305 10.9353 99.0253 10.9234C99.0142 10.872 99.0149 10.8196 99.0291 10.7694C99.032 10.7661 99.035 10.765 99.0372 10.7618C99.0261 10.7432 99.0246 10.7203 99.0342 10.6908C99.0692 10.6416 99.1041 10.5925 99.1398 10.5445C99.1934 10.6199 99.2461 10.6963 99.2989 10.7716C99.3644 10.7848 99.4357 10.7836 99.464 10.8927C99.6238 10.9211 99.7703 11.085 99.9443 10.9889C99.9978 10.9562 100.051 10.9222 100.105 10.8896C100.103 10.8644 100.101 10.8393 100.103 10.812C100.186 10.6875 100.28 10.718 100.376 10.7737C100.463 10.9288 100.55 11.085 100.637 11.24C100.598 11.3175 100.557 11.3939 100.518 11.4703C100.529 11.502 100.536 11.5359 100.539 11.5708C100.486 11.7793 100.364 11.811 100.227 11.7989C100.218 11.7958 100.209 11.7914 100.2 11.787C100.199 11.7914 100.199 11.7947 100.199 11.7979C100.056 11.93 99.896 11.834 99.745 11.8634C99.7012 11.8394 99.6751 11.7947 99.6677 11.7302C99.6677 11.716 99.6684 11.7029 99.6707 11.6909C99.5748 11.6505 99.4796 11.6112 99.3844 11.5718C99.3398 11.5348 99.2893 11.5096 99.2595 11.4463C99.1577 11.4616 99.0566 11.4768 98.9554 11.4922C98.893 11.4726 98.8194 11.4835 98.7934 11.371C98.6655 11.2989 98.5034 11.4463 98.3934 11.2641C98.383 11.2814 98.3703 11.2967 98.354 11.3098C98.316 11.3371 98.2752 11.3547 98.2328 11.3645C98.0826 11.3906 97.9317 11.3862 97.78 11.3862C97.6915 11.3787 97.603 11.371 97.5309 11.3011C97.4685 11.3405 97.4075 11.383 97.351 11.4386C97.2938 11.4943 97.2424 11.5653 97.177 11.6025C97.2402 11.6385 97.2685 11.7116 97.2752 11.811C97.2893 11.8187 97.3042 11.8263 97.3183 11.834C97.4001 11.8187 97.4826 11.8033 97.5644 11.7881C97.6439 11.7989 97.7235 11.8099 97.803 11.8219C97.8231 11.8482 97.835 11.8776 97.8372 11.9125C97.9034 11.8907 97.9621 11.9333 98.0231 11.9594C98.1725 12.0446 98.3265 12.0217 98.4811 11.9966C98.5153 11.9943 98.5495 11.9943 98.5844 11.9943C98.6685 12.0327 98.7309 12.1014 98.7725 12.2018C98.8142 12.1626 98.8588 12.1363 98.9108 12.1308C98.9257 12.144 98.9413 12.1571 98.9554 12.1702C99.0357 12.0031 99.154 11.9682 99.2967 12.013C99.432 12.0632 99.5673 12.1135 99.7026 12.1636C99.7041 12.1943 99.7056 12.2248 99.7086 12.2554C99.7614 12.2903 99.8142 12.3252 99.867 12.3602C99.9495 12.4093 100.032 12.4573 100.115 12.5065C100.197 12.5348 100.279 12.5633 100.36 12.5917C100.39 12.5917 100.421 12.5917 100.451 12.5917C100.477 12.6353 100.503 12.679 100.529 12.7226C100.556 12.7314 100.584 12.7391 100.612 12.7477C100.641 12.7435 100.67 12.7401 100.698 12.7358C100.746 12.703 100.793 12.6702 100.84 12.6385C100.85 12.5589 100.885 12.5097 100.944 12.4857C101.078 12.5272 101.214 12.5698 101.35 12.6113C101.381 12.6779 101.413 12.7445 101.444 12.8111C101.555 12.9345 101.718 12.7915 101.826 12.9268C101.832 12.9214 101.838 12.9159 101.845 12.9105C101.928 12.8875 101.993 12.9497 102.06 12.9978C102.116 13.0207 102.171 13.0458 102.226 13.0721C102.288 13.0731 102.349 13.0752 102.412 13.0764C102.432 13.1986 102.581 13.1353 102.576 13.2936C102.598 13.3548 102.625 13.4017 102.683 13.3723C102.694 13.381 102.706 13.3898 102.717 13.3985C102.824 13.3788 102.897 13.5426 103.001 13.5338C103.001 13.5437 103.001 13.5547 103.002 13.5655C103.022 13.5666 103.042 13.5677 103.063 13.5666C103.102 13.5754 103.139 13.5917 103.175 13.6136C103.183 13.619 103.191 13.6245 103.199 13.6299C103.274 13.6278 103.348 13.6256 103.423 13.6244C103.446 13.6299 103.469 13.6343 103.492 13.6386C103.52 13.6518 103.531 13.667 103.53 13.6867C103.533 13.6824 103.537 13.6768 103.541 13.6737C103.709 13.595 103.885 13.643 104.057 13.6288C104.211 13.6244 104.37 13.6562 104.512 13.5393C104.745 13.4925 104.971 13.4848 105.158 13.7282C105.184 13.7294 105.207 13.738 105.228 13.7555C105.255 13.8516 105.23 13.915 105.186 13.9662C105.295 14.0044 105.4 14.0524 105.474 14.1824C105.422 14.1944 105.369 14.2064 105.317 14.2184C105.269 14.2632 105.216 14.297 105.155 14.3003C105.055 14.3068 104.968 14.2555 104.885 14.1868C104.833 14.1486 104.783 14.1104 104.736 14.0624C104.735 14.0634 104.735 14.0634 104.735 14.0634C104.713 14.0831 104.69 14.0983 104.666 14.1114C104.689 14.1561 104.696 14.202 104.683 14.249C104.691 14.2578 104.698 14.2665 104.704 14.2774C104.726 14.2676 104.747 14.2599 104.77 14.2567C104.86 14.2588 104.947 14.2905 105.037 14.2949C105.129 14.3003 105.22 14.3068 105.307 14.3517C105.38 14.391 105.428 14.4696 105.471 14.5536C105.48 14.5886 105.478 14.6224 105.466 14.6551C105.477 14.6868 105.486 14.7195 105.494 14.7534C105.392 15.1345 105.129 14.8157 104.975 14.9784C104.873 14.9859 104.77 14.9936 104.668 15.0013C104.639 15.0406 104.611 15.0798 104.582 15.1191C104.541 15.2579 104.636 15.3375 104.657 15.4489C104.641 15.581 104.544 15.5996 104.489 15.676C104.433 15.6716 104.378 15.6662 104.322 15.6618C104.298 15.6716 104.274 15.6804 104.25 15.688C103.974 15.6793 103.697 15.6706 103.422 15.6618C103.36 15.6891 103.28 15.6781 103.27 15.8081C103.265 15.8311 103.259 15.8518 103.252 15.8725C103.347 15.949 103.337 16.1367 103.419 16.2273C103.558 16.2459 103.669 16.4196 103.821 16.3682C103.854 16.3814 103.866 16.3998 103.859 16.4227C103.856 16.4315 103.854 16.4371 103.851 16.4425C103.987 16.4513 104.078 16.5626 104.147 16.7187C104.474 17.0233 104.861 17.0354 105.23 17.1369C105.274 17.103 105.312 17.1139 105.341 17.1707C105.349 17.2034 105.352 17.2373 105.352 17.27C105.394 17.27 105.436 17.2711 105.48 17.2711C105.676 17.2669 105.871 17.2635 106.068 17.2592C106.091 17.2635 106.114 17.2602 106.137 17.2482C106.19 17.2187 106.225 17.2417 106.244 17.317C106.241 17.34 106.236 17.3606 106.229 17.3792C106.474 17.2951 106.72 17.2995 106.965 17.3815L106.964 17.3847C107.13 17.5998 107.343 17.4437 107.527 17.5157C107.534 17.5452 107.537 17.5757 107.537 17.6063C107.51 17.7003 107.465 17.7712 107.403 17.8192C107.437 17.8466 107.465 17.8837 107.488 17.9317C107.513 18.019 107.503 18.0965 107.454 18.1643C107.402 18.1631 107.35 18.162 107.298 18.162C107.03 18.0725 106.758 18.1435 106.489 18.1205C106.398 18.114 106.306 18.1413 106.219 18.0834C106.216 18.0758 106.214 18.0681 106.213 18.0616C106.077 18.0879 105.927 18.0082 105.807 18.162L105.768 18.1741L105.728 18.173C105.564 18.0846 105.399 18.1086 105.233 18.1555C105.096 18.209 104.959 18.2625 104.823 18.3161C104.793 18.3368 104.763 18.3401 104.732 18.3269C104.712 18.3127 104.695 18.2952 104.683 18.2735C104.564 18.2854 104.444 18.2975 104.325 18.3094C104.239 18.3324 104.155 18.3553 104.069 18.3783C104.048 18.4121 104.028 18.4449 104.007 18.4787C104.125 18.4666 104.231 18.5213 104.324 18.6348L104.33 18.6294C104.356 18.6708 104.387 18.7035 104.422 18.7277C104.611 18.7987 104.823 18.6676 104.998 18.8532C105.075 18.8488 105.152 18.8444 105.229 18.8401C105.256 18.8521 105.283 18.863 105.309 18.8739C105.312 18.911 105.309 18.9438 105.299 18.9722C105.304 18.9732 105.31 18.9732 105.315 18.9743V18.9732C105.479 18.982 105.642 18.9908 105.806 18.9983C105.808 19.029 105.809 19.0596 105.81 19.0891C105.862 19.0912 105.915 19.0922 105.967 19.0933C105.976 19.0715 105.992 19.0475 106.016 19.0223C106.125 18.9601 106.225 18.9874 106.32 19.0792C106.396 19.0868 106.472 19.0945 106.548 19.1033C106.598 19.1403 106.656 19.1611 106.68 19.2429C106.702 19.3521 106.69 19.4504 106.63 19.5345L106.59 19.5443L106.551 19.5301C106.524 19.5727 106.498 19.6153 106.472 19.6579C106.458 19.7147 106.427 19.7485 106.396 19.7813C106.412 19.7878 106.429 19.7932 106.445 19.803C106.462 19.8205 106.479 19.8369 106.495 19.8544C106.61 19.7201 106.772 19.8107 106.898 19.7266C107.004 19.7364 107.119 19.66 107.211 19.7899C107.504 20.0531 107.205 20.0979 107.127 20.2234C107.032 20.3501 106.896 20.2245 106.797 20.3272C106.769 20.3293 106.741 20.3315 106.713 20.3347L106.717 20.3457C106.537 20.42 106.352 20.4527 106.164 20.4537C106.161 20.4647 106.159 20.4723 106.156 20.4723C106.099 20.5247 106.021 20.4963 105.967 20.5629C105.777 20.5608 105.586 20.5575 105.395 20.5553C105.106 20.7944 104.793 20.6568 104.489 20.6635C104.41 20.7115 104.332 20.7584 104.253 20.8065C104.202 20.9582 104.117 21.0379 103.996 21.0434C103.886 21.0292 103.775 21.0139 103.665 20.9987C103.613 21.015 103.561 21.0313 103.509 21.0478C103.486 21.0783 103.459 21.1002 103.43 21.1144C103.447 21.1569 103.471 21.1897 103.501 21.2192C103.611 21.2705 103.733 21.2705 103.835 21.3588C103.859 21.3655 103.883 21.373 103.907 21.3841C103.935 21.3785 103.962 21.3742 103.99 21.3687C104.065 21.5532 104.256 21.3906 104.326 21.5872C104.41 21.5828 104.493 21.5795 104.575 21.5761C104.627 21.5761 104.68 21.5761 104.731 21.5751C104.759 21.586 104.787 21.5968 104.816 21.6078C104.831 21.6438 104.833 21.6766 104.825 21.706C105.011 21.716 105.198 21.7258 105.385 21.7356C105.39 21.7203 105.393 21.706 105.398 21.6908C105.451 21.6876 105.503 21.6853 105.556 21.6832C105.636 21.7302 105.717 21.777 105.797 21.8251C105.816 22.0533 105.691 22.0172 105.595 22.0337C105.586 22.0314 105.577 22.0281 105.567 22.026C105.567 22.027 105.566 22.0281 105.565 22.0293C105.578 22.0511 105.584 22.0751 105.581 22.0991C105.577 22.1297 105.572 22.145 105.567 22.145C105.567 22.146 105.569 22.1483 105.569 22.1494C105.58 22.1253 105.594 22.1013 105.616 22.0806C105.774 21.9999 105.923 21.9987 106.05 22.1755C106.054 22.1974 106.057 22.2203 106.059 22.2433C106.154 22.1712 106.251 22.2095 106.347 22.2356C106.444 22.2825 106.555 22.2652 106.642 22.3602C106.655 22.3186 106.681 22.2967 106.72 22.2924C106.801 22.2924 106.883 22.2913 106.964 22.2913C107.018 22.3525 107.094 22.3186 107.148 22.3765C107.162 22.4245 107.153 22.4606 107.12 22.4867L107.132 22.5151C106.964 22.5228 106.812 22.6909 106.635 22.6134L106.642 22.632C106.514 22.8219 106.68 22.9311 106.707 23.0774C106.76 23.1528 106.812 23.2269 106.865 23.3023C106.897 23.3438 106.932 23.3853 106.964 23.4279C107.119 23.334 107.233 23.5261 107.374 23.5338C107.294 23.811 107.123 23.763 106.964 23.75L106.969 23.7707C106.806 23.8722 106.622 23.7423 106.462 23.858C106.38 23.892 106.298 23.9258 106.216 23.9596C106.194 23.9759 106.17 23.9858 106.144 23.988C106.136 24.0252 106.137 24.0611 106.146 24.0972C106.113 24.1911 106.051 24.2141 105.982 24.2151C105.97 24.2293 105.957 24.2369 105.943 24.2413C105.902 24.2708 105.859 24.2991 105.816 24.3287C105.92 24.5186 106.103 24.416 106.225 24.5372C106.25 24.5458 106.274 24.5481 106.3 24.5416C106.438 24.5525 106.576 24.5633 106.714 24.5744C106.713 24.6485 106.7 24.7141 106.657 24.7566C106.662 24.8167 106.646 24.88 106.638 24.9422C106.633 25.0339 106.634 25.1257 106.632 25.2184C106.638 25.2053 106.645 25.1933 106.655 25.1825C106.759 25.0863 106.877 25.0852 106.995 25.0798C107.187 25.0875 107.385 25.0405 107.552 25.225C107.572 25.2359 107.593 25.2424 107.614 25.2457C107.677 25.3134 107.781 25.2654 107.824 25.3888C107.839 25.4695 107.832 25.5416 107.788 25.5984C107.788 25.6225 107.788 25.6465 107.789 25.6705C107.65 25.6726 107.511 25.676 107.372 25.6793C107.349 25.6912 107.324 25.6967 107.299 25.6967C107.295 25.7284 107.288 25.7589 107.28 25.7885C107.256 25.8375 107.224 25.8724 107.185 25.8954C107.178 25.8987 107.171 25.9008 107.164 25.9041C107.151 25.9467 107.138 25.9904 107.126 26.034C107.126 26.034 107.126 26.034 107.126 26.0351C107.127 26.0363 107.128 26.0373 107.129 26.0396C107.138 26.0221 107.15 26.0035 107.164 25.9849C107.32 25.9467 107.474 25.9598 107.627 26.0166C107.761 26.0636 107.894 26.1116 108.028 26.1584C108.034 26.1935 108.033 26.224 108.024 26.2513C108.028 26.2502 108.033 26.2502 108.038 26.2502C108.038 26.2502 108.038 26.2502 108.037 26.2502H108.042C108.04 26.2502 108.039 26.2502 108.039 26.2502C108.202 26.3037 108.392 26.1584 108.534 26.3747C108.508 26.45 108.481 26.5254 108.454 26.6007C108.435 26.6629 108.48 26.7033 108.481 26.759C108.479 26.7721 108.477 26.7852 108.475 26.7984C108.602 26.6815 108.746 26.6957 108.889 26.7033C108.908 26.7066 108.927 26.711 108.946 26.7143C108.972 26.7208 108.999 26.7208 109.026 26.7143C109.084 26.498 109.256 26.593 109.355 26.4849L109.353 26.4817C109.539 26.5287 109.736 26.4423 109.923 26.4959C109.959 26.4926 109.995 26.4915 110.033 26.4926C110.076 26.497 110.117 26.5145 110.155 26.5439C110.163 26.5713 110.169 26.5953 110.172 26.617C110.175 26.6116 110.178 26.6062 110.179 26.6007C110.211 26.5559 110.25 26.5373 110.295 26.545C110.422 26.5571 110.552 26.5122 110.676 26.5799C110.784 26.5876 110.892 26.5953 111 26.6028C110.978 26.7175 110.901 26.7022 110.841 26.7285Z" fill="white"/>
</svg>
